<?xml version="1.0" encoding="UTF-8" standalone="no"?>
<!DOCTYPE svg PUBLIC "-//W3C//DTD SVG 1.1//EN"
 "http://www.w3.org/Graphics/SVG/1.1/DTD/svg11.dtd">
<!-- Generated by graphviz version 2.24.0 (20090616.2323)
 -->
<!-- Title: G Pages: 1 -->
<svg width="414pt" height="112pt"
 viewBox="0.00 0.00 414.00 112.00" xmlns="http://www.w3.org/2000/svg" xmlns:xlink="http://www.w3.org/1999/xlink">
<g id="graph1" class="graph" transform="scale(1 1) rotate(0) translate(4 108)">
<title>G</title>
<polygon fill="white" stroke="white" points="-4,5 -4,-108 411,-108 411,5 -4,5"/>
<!-- v -->
<g id="v [CHEBI:86193]" class="node"><title>v</title>
<polyline fill="none" stroke="black" points="218,-67 188,-67 "/>
<path fill="none" stroke="black" d="M188,-67C182,-67 176,-61 176,-55"/>
<polyline fill="none" stroke="black" points="176,-55 176,-43 "/>
<path fill="none" stroke="black" d="M176,-43C176,-37 182,-31 188,-31"/>
<polyline fill="none" stroke="black" points="188,-31 218,-31 "/>
<path fill="none" stroke="black" d="M218,-31C224,-31 230,-37 230,-43"/>
<polyline fill="none" stroke="black" points="230,-43 230,-55 "/>
<path fill="none" stroke="black" d="M230,-55C230,-61 224,-67 218,-67"/>
<text text-anchor="middle" x="203" y="-46.5" font-family="Times Roman,serif" font-size="10.00">v</text>
</g>
<!-- R3_intermediate_r -->
<g id="node15" class="node"><title>R3_intermediate_r</title>
<ellipse fill="black" stroke="black" cx="266" cy="-65" rx="0.036" ry="0.036"/>
</g>
<!-- v&#45;&gt;R3_intermediate_r -->
<g id="edge16" class="edge"><title>v&#45;&gt;R3_intermediate_r</title>
<path fill="none" stroke="black" d="M230.083,-55.8783C246.625,-60.0793 264.824,-64.7014 265.945,-64.9861"/>
</g>
<!-- R4_intermediate_r -->
<g id="node21" class="node"><title>R4_intermediate_r</title>
<ellipse fill="black" stroke="black" cx="266" cy="-40" rx="0.036" ry="0.036"/>
</g>
<!-- v&#45;&gt;R4_intermediate_r -->
<g id="edge22" class="edge"><title>v&#45;&gt;R4_intermediate_r</title>
<path fill="none" stroke="black" d="M230.083,-45.131C246.625,-42.7679 264.824,-40.168 265.945,-40.0078"/>
</g>
<!-- R1 -->
<g id="node2" class="node"><title>R1</title>
<polygon fill="none" stroke="black" points="104,-73 90,-73 90,-59 104,-59 104,-73"/>
</g>
<!-- R1_intermediate_p -->
<g id="node5" class="node"><title>R1_intermediate_p</title>
<ellipse fill="black" stroke="black" cx="140" cy="-61" rx="0.036" ry="0.036"/>
</g>
<!-- R1&#45;&gt;R1_intermediate_p -->
<g id="edge4" class="edge"><title>R1&#45;&gt;R1_intermediate_p</title>
<path fill="none" stroke="black" d="M104.101,-65.1744C115.932,-63.7986 138.531,-61.1708 139.932,-61.0079"/>
</g>
<!-- R1_empty -->
<g id="node3" class="node"><title>R1_empty</title>
<text text-anchor="middle" x="27" y="-67.5" font-family="Times Roman,serif" font-size="15.00" fill="blue">Ø</text>
</g>
<!-- R1_empty&#45;&gt;R1 -->
<g id="edge2" class="edge"><title>R1_empty&#45;&gt;R1</title>
<path fill="none" stroke="black" d="M54.2643,-69.6631C67.1627,-68.5575 81.5367,-67.3254 89.8947,-66.609"/>
</g>
<!-- R1_intermediate_p&#45;&gt;v -->
<g id="edge6" class="edge"><title>R1_intermediate_p&#45;&gt;v</title>
<path fill="none" stroke="black" d="M140.046,-60.9913C140.865,-60.8352 152.597,-58.6005 165.716,-56.1018"/>
<polygon fill="black" stroke="black" points="166.691,-59.479 175.86,-54.1696 165.381,-52.6026 166.691,-59.479"/>
</g>
<!-- R2 -->
<g id="node8" class="node"><title>R2</title>
<polygon fill="none" stroke="black" points="104,-36 90,-36 90,-22 104,-22 104,-36"/>
</g>
<!-- R2_intermediate_p -->
<g id="node11" class="node"><title>R2_intermediate_p</title>
<ellipse fill="black" stroke="black" cx="140" cy="-38" rx="0.036" ry="0.036"/>
</g>
<!-- R2&#45;&gt;R2_intermediate_p -->
<g id="edge10" class="edge"><title>R2&#45;&gt;R2_intermediate_p</title>
<path fill="none" stroke="black" d="M104.101,-30.4862C115.932,-32.9625 138.531,-37.6925 139.932,-37.9857"/>
</g>
<!-- R2_empty -->
<g id="node9" class="node"><title>R2_empty</title>
<text text-anchor="middle" x="27" y="-13.5" font-family="Times Roman,serif" font-size="15.00" fill="blue">Ø</text>
</g>
<!-- R2_empty&#45;&gt;R2 -->
<g id="edge8" class="edge"><title>R2_empty&#45;&gt;R2</title>
<path fill="none" stroke="black" d="M54.2643,-22.2844C67.1627,-24.3113 81.5367,-26.5701 89.8947,-27.8835"/>
</g>
<!-- R2_intermediate_p&#45;&gt;v -->
<g id="edge12" class="edge"><title>R2_intermediate_p&#45;&gt;v</title>
<path fill="none" stroke="black" d="M140.046,-38.008C140.865,-38.1511 152.597,-40.1995 165.716,-42.49"/>
<polygon fill="black" stroke="black" points="165.407,-45.9889 175.86,-44.2612 166.611,-39.0933 165.407,-45.9889"/>
</g>
<!-- R3 -->
<g id="node14" class="node"><title>R3</title>
<polygon fill="none" stroke="black" points="316,-87 302,-87 302,-73 316,-73 316,-87"/>
</g>
<!-- R3_empty -->
<g id="node18" class="node"><title>R3_empty</title>
<text text-anchor="middle" x="379" y="-81.5" font-family="Times Roman,serif" font-size="15.00" fill="blue">Ø</text>
</g>
<!-- R3&#45;&gt;R3_empty -->
<g id="edge18" class="edge"><title>R3&#45;&gt;R3_empty</title>
<path fill="none" stroke="black" d="M316.228,-80.6195C322.45,-81.1528 331.94,-81.9663 341.672,-82.8004"/>
<polygon fill="black" stroke="black" points="341.511,-86.2994 351.773,-83.6663 342.109,-79.325 341.511,-86.2994"/>
</g>
<!-- R3_intermediate_r&#45;&gt;R3 -->
<g id="edge14" class="edge"><title>R3_intermediate_r&#45;&gt;R3</title>
<path fill="none" stroke="black" d="M266.123,-65.043C267.976,-65.6891 290.231,-73.4527 301.924,-77.5315"/>
</g>
<!-- R4 -->
<g id="node20" class="node"><title>R4</title>
<polygon fill="none" stroke="black" points="316,-44 302,-44 302,-30 316,-30 316,-44"/>
</g>
<!-- R4_empty -->
<g id="node24" class="node"><title>R4_empty</title>
<text text-anchor="middle" x="379" y="-27.5" font-family="Times Roman,serif" font-size="15.00" fill="blue">Ø</text>
</g>
<!-- R4&#45;&gt;R4_empty -->
<g id="edge24" class="edge"><title>R4&#45;&gt;R4_empty</title>
<path fill="none" stroke="black" d="M316.228,-36.4837C322.45,-36.0393 331.94,-35.3614 341.672,-34.6663"/>
<polygon fill="black" stroke="black" points="342.048,-38.1484 351.773,-33.9448 341.549,-31.1662 342.048,-38.1484"/>
</g>
<!-- R4_intermediate_r&#45;&gt;R4 -->
<g id="edge20" class="edge"><title>R4_intermediate_r&#45;&gt;R4</title>
<path fill="none" stroke="black" d="M266.123,-39.9914C267.976,-39.8622 290.231,-38.3095 301.924,-37.4937"/>
</g>
</g>
</svg>
