<?xml version="1.0" encoding="UTF-8" standalone="no"?>
<!DOCTYPE svg PUBLIC "-//W3C//DTD SVG 1.1//EN"
 "http://www.w3.org/Graphics/SVG/1.1/DTD/svg11.dtd">
<!-- Generated by graphviz version 2.30.1 (20140821.0912)
 -->
<!-- Title: G Pages: 1 -->
<svg width="650pt" height="143pt"
 viewBox="0.00 0.00 650.00 143.00" xmlns="http://www.w3.org/2000/svg" xmlns:xlink="http://www.w3.org/1999/xlink">
<g id="graph0" class="graph" transform="scale(1 1) rotate(0) translate(4 139)">
<title>G</title>
<polygon fill="white" stroke="white" points="-4,5 -4,-139 647,-139 647,5 -4,5"/>
<!-- species_1 -->
<g id="species_1" class="node"><title>species_1</title>
<path fill="none" stroke="black" d="M400,-36C400,-36 370,-36 370,-36 364,-36 358,-30 358,-24 358,-24 358,-12 358,-12 358,-6 364,-0 370,-0 370,-0 400,-0 400,-0 406,-0 412,-6 412,-12 412,-12 412,-24 412,-24 412,-30 406,-36 400,-36"/>
<text text-anchor="middle" x="385" y="-15.5" font-family="Times,serif" font-size="10.00">U</text>
</g>
<!-- reaction_2_intermediate_r -->
<g id="node9" class="node"><title>reaction_2_intermediate_r</title>
<ellipse fill="black" stroke="black" cx="475" cy="-45" rx="0.036" ry="0.036"/>
</g>
<!-- species_1&#45;&gt;reaction_2_intermediate_r -->
<g id="edge8" class="edge"><title>species_1&#45;&gt;reaction_2_intermediate_r</title>
<path fill="none" stroke="black" d="M412.403,-26.1009C437.514,-33.8054 471.78,-44.3188 473.897,-44.9684"/>
</g>
<!-- reaction_2_intermediate_m -->
<g id="node11" class="node"><title>reaction_2_intermediate_m</title>
<ellipse fill="black" stroke="black" cx="615" cy="-15" rx="0.036" ry="0.036"/>
</g>
<!-- species_1&#45;&gt;reaction_2_intermediate_m -->
<g id="edge11" class="edge"><title>species_1&#45;&gt;reaction_2_intermediate_m</title>
<path fill="none" stroke="black" d="M412.154,-17.6559C471.107,-16.8802 609.584,-15.0581 613.897,-15.0014"/>
</g>
<!-- species_2 -->
<g id="species_2" class="node"><title>species_2</title>
<path fill="none" stroke="black" d="M272,-81C272,-81 242,-81 242,-81 236,-81 230,-75 230,-69 230,-69 230,-57 230,-57 230,-51 236,-45 242,-45 242,-45 272,-45 272,-45 278,-45 284,-51 284,-57 284,-57 284,-69 284,-69 284,-75 278,-81 272,-81"/>
<text text-anchor="middle" x="257" y="-60.5" font-family="Times,serif" font-size="10.00">V</text>
</g>
<!-- reaction_1_intermediate_m -->
<g id="node7" class="node"><title>reaction_1_intermediate_m</title>
<ellipse fill="black" stroke="black" cx="321" cy="-36" rx="0.036" ry="0.036"/>
</g>
<!-- species_2&#45;&gt;reaction_1_intermediate_m -->
<g id="edge5" class="edge"><title>species_2&#45;&gt;reaction_1_intermediate_m</title>
<path fill="none" stroke="black" d="M284.294,-44.8692C300.664,-37.2526 318.826,-31.4176 319.946,-35.567"/>
</g>
<!-- species_2&#45;&gt;reaction_1_intermediate_m -->
<g id="edge6" class="edge"><title>species_2&#45;&gt;reaction_1_intermediate_m</title>
<path fill="none" stroke="black" d="M284.294,-58.2299C300.928,-51.4817 319.413,-41.2817 319.986,-36.2363"/>
</g>
<!-- reaction_4_intermediate_r -->
<g id="node16" class="node"><title>reaction_4_intermediate_r</title>
<ellipse fill="black" stroke="black" cx="321" cy="-95" rx="0.036" ry="0.036"/>
</g>
<!-- species_2&#45;&gt;reaction_4_intermediate_r -->
<g id="edge16" class="edge"><title>species_2&#45;&gt;reaction_4_intermediate_r</title>
<path fill="none" stroke="black" d="M284.294,-76.5709C300.664,-85.0199 318.826,-94.3942 319.946,-94.9719"/>
</g>
<!-- reaction_4_intermediate_m -->
<g id="node18" class="node"><title>reaction_4_intermediate_m</title>
<ellipse fill="black" stroke="black" cx="475" cy="-64" rx="0.036" ry="0.036"/>
</g>
<!-- species_2&#45;&gt;reaction_4_intermediate_m -->
<g id="edge19" class="edge"><title>species_2&#45;&gt;reaction_4_intermediate_m</title>
<path fill="none" stroke="black" d="M284.055,-63.1206C340.606,-63.3824 469.878,-63.9809 473.904,-63.9996"/>
</g>
<!-- species_3 -->
<g id="species_3 [CHEBI:61448]" class="node"><title>species_3</title>
<ellipse fill="none" stroke="black" cx="27" cy="-117" rx="18" ry="18"/>
<text text-anchor="middle" x="27" y="-114.5" font-family="Times,serif" font-size="10.00">IPTG</text>
</g>
<!-- reaction_1 -->
<g id="node4" class="node"><title>reaction_1</title>
<polygon fill="none" stroke="black" points="264,-26 250,-26 250,-12 264,-12 264,-26"/>
</g>
<!-- reaction_1_intermediate_p -->
<g id="node6" class="node"><title>reaction_1_intermediate_p</title>
<ellipse fill="black" stroke="black" cx="321" cy="-18" rx="0.036" ry="0.036"/>
</g>
<!-- reaction_1&#45;&gt;reaction_1_intermediate_p -->
<g id="edge2" class="edge"><title>reaction_1&#45;&gt;reaction_1_intermediate_p</title>
<path fill="none" stroke="black" d="M264.171,-18.9005C279.364,-18.6554 317.515,-18.0401 319.884,-18.0019"/>
</g>
<!-- reaction_1&#45;&gt;reaction_1_intermediate_m -->
<g id="edge4" class="edge"><title>reaction_1&#45;&gt;reaction_1_intermediate_m</title>
<path fill="none" stroke="black" d="M264.171,-20.6922C279.364,-24.8578 317.515,-35.3186 319.884,-35.9683"/>
</g>
<!-- reaction_1_empty -->
<g id="node5" class="node"><title>reaction_1_empty</title>
<text text-anchor="middle" x="167" y="-15.5" font-family="Times,serif" font-size="15.00" fill="blue">Ø</text>
</g>
<!-- reaction_1_empty&#45;&gt;reaction_1 -->
<g id="edge1" class="edge"><title>reaction_1_empty&#45;&gt;reaction_1</title>
<path fill="none" stroke="black" d="M194.403,-19C213.641,-19 238.253,-19 249.665,-19"/>
</g>
<!-- reaction_1_intermediate_p&#45;&gt;species_1 -->
<g id="edge3" class="edge"><title>reaction_1_intermediate_p&#45;&gt;species_1</title>
<path fill="none" stroke="black" d="M322.045,-18C322.863,-18 334.734,-18 347.87,-18"/>
<polygon fill="black" stroke="black" points="347.998,-21.5001 357.998,-18 347.998,-14.5001 347.998,-21.5001"/>
</g>
<!-- reaction_2 -->
<g id="node8" class="node"><title>reaction_2</title>
<polygon fill="none" stroke="black" points="552,-57 538,-57 538,-43 552,-43 552,-57"/>
</g>
<!-- reaction_2_empty -->
<g id="node10" class="node"><title>reaction_2_empty</title>
<text text-anchor="middle" x="615" y="-47.5" font-family="Times,serif" font-size="15.00" fill="blue">Ø</text>
</g>
<!-- reaction_2&#45;&gt;reaction_2_empty -->
<g id="edge9" class="edge"><title>reaction_2&#45;&gt;reaction_2_empty</title>
<path fill="none" stroke="black" d="M552.275,-50.0923C558.278,-50.1806 567.849,-50.3213 577.68,-50.4659"/>
<polygon fill="black" stroke="black" points="577.829,-53.9684 587.88,-50.6159 577.932,-46.9691 577.829,-53.9684"/>
</g>
<!-- reaction_2&#45;&gt;reaction_2_intermediate_m -->
<g id="edge10" class="edge"><title>reaction_2&#45;&gt;reaction_2_intermediate_m</title>
<path fill="none" stroke="black" d="M552.019,-45.6781C559.964,-40.1157 574.524,-30.4067 588,-24 598.354,-19.0779 612.146,-15.4746 613.829,-15.0434"/>
</g>
<!-- reaction_2_intermediate_r&#45;&gt;reaction_2 -->
<g id="edge7" class="edge"><title>reaction_2_intermediate_r&#45;&gt;reaction_2</title>
<path fill="none" stroke="black" d="M476.049,-45.0036C477.722,-45.1266 521.535,-48.3481 537.906,-49.5519"/>
</g>
<!-- reaction_3 -->
<g id="node12" class="node"><title>reaction_3</title>
<polygon fill="none" stroke="black" points="104,-70 90,-70 90,-56 104,-56 104,-70"/>
</g>
<!-- reaction_3_intermediate_p -->
<g id="node14" class="node"><title>reaction_3_intermediate_p</title>
<ellipse fill="black" stroke="black" cx="167" cy="-63" rx="0.036" ry="0.036"/>
</g>
<!-- reaction_3&#45;&gt;reaction_3_intermediate_p -->
<g id="edge13" class="edge"><title>reaction_3&#45;&gt;reaction_3_intermediate_p</title>
<path fill="none" stroke="black" d="M104.275,-63C120.583,-63 163.222,-63 165.871,-63"/>
</g>
<!-- reaction_3_empty -->
<g id="node13" class="node"><title>reaction_3_empty</title>
<text text-anchor="middle" x="27" y="-59.5" font-family="Times,serif" font-size="15.00" fill="blue">Ø</text>
</g>
<!-- reaction_3_empty&#45;&gt;reaction_3 -->
<g id="edge12" class="edge"><title>reaction_3_empty&#45;&gt;reaction_3</title>
<path fill="none" stroke="black" d="M54.0961,-63C67.13,-63 81.8045,-63 89.8681,-63"/>
</g>
<!-- reaction_3_intermediate_p&#45;&gt;species_2 -->
<g id="edge14" class="edge"><title>reaction_3_intermediate_p&#45;&gt;species_2</title>
<path fill="none" stroke="black" d="M168.064,-63C169.533,-63 196.103,-63 219.654,-63"/>
<polygon fill="black" stroke="black" points="219.821,-66.5001 229.82,-63 219.82,-59.5001 219.821,-66.5001"/>
</g>
<!-- reaction_4 -->
<g id="node15" class="node"><title>reaction_4</title>
<polygon fill="none" stroke="black" points="392,-106 378,-106 378,-92 392,-92 392,-106"/>
</g>
<!-- reaction_4_empty -->
<g id="node17" class="node"><title>reaction_4_empty</title>
<text text-anchor="middle" x="475" y="-96.5" font-family="Times,serif" font-size="15.00" fill="blue">Ø</text>
</g>
<!-- reaction_4&#45;&gt;reaction_4_empty -->
<g id="edge17" class="edge"><title>reaction_4&#45;&gt;reaction_4_empty</title>
<path fill="none" stroke="black" d="M392.049,-99.0687C401.439,-99.1754 420.239,-99.3891 437.466,-99.5848"/>
<polygon fill="black" stroke="black" points="437.852,-103.089 447.891,-99.7033 437.932,-96.0898 437.852,-103.089"/>
</g>
<!-- reaction_4&#45;&gt;reaction_4_intermediate_m -->
<g id="edge18" class="edge"><title>reaction_4&#45;&gt;reaction_4_intermediate_m</title>
<path fill="none" stroke="black" d="M392.107,-96.2858C403.167,-91.4053 427.285,-80.9194 448,-73 458.708,-68.9062 472.19,-64.5781 473.833,-64.0531"/>
</g>
<!-- reaction_4_intermediate_r&#45;&gt;reaction_4 -->
<g id="edge15" class="edge"><title>reaction_4_intermediate_r&#45;&gt;reaction_4</title>
<path fill="none" stroke="black" d="M322.045,-95.0029C323.541,-95.0994 361.995,-97.5803 377.555,-98.5842"/>
</g>
</g>
</svg>
