<?xml version="1.0" encoding="UTF-8" standalone="no"?>
<!DOCTYPE svg PUBLIC "-//W3C//DTD SVG 1.1//EN"
 "http://www.w3.org/Graphics/SVG/1.1/DTD/svg11.dtd">
<!-- Generated by graphviz version 2.24.0 (20090616.2323)
 -->
<!-- Title: G Pages: 1 -->
<svg width="1230pt" height="722pt"
 viewBox="0.00 0.00 1230.00 722.00" xmlns="http://www.w3.org/2000/svg" xmlns:xlink="http://www.w3.org/1999/xlink">
<g id="graph1" class="graph" transform="scale(1 1) rotate(0) translate(4 718)">
<title>G</title>
<polygon fill="white" stroke="white" points="-4,5 -4,-718 1227,-718 1227,5 -4,5"/>
<!-- species_6 -->
<g id="node1" class="node"><title>species_6</title>
<ellipse fill="none" stroke="black" cx="161" cy="-471" rx="30.7794" ry="18"/>
<text text-anchor="middle" x="161" y="-468.5" font-family="Times Roman,serif" font-size="10.00">AsIIIex</text>
</g>
<!-- reaction_1_intermediate_r -->
<g id="node14" class="node"><title>reaction_1_intermediate_r</title>
<ellipse fill="black" stroke="black" cx="229" cy="-471" rx="0.036" ry="0.036"/>
</g>
<!-- species_6&#45;&gt;reaction_1_intermediate_r -->
<g id="edge4" class="edge"><title>species_6&#45;&gt;reaction_1_intermediate_r</title>
<path fill="none" stroke="black" d="M202.337,-471C216.02,-471 228.039,-471 228.945,-471"/>
<polygon fill="black" stroke="black" points="202.214,-467.5 192.214,-471 202.214,-474.5 202.214,-467.5"/>
</g>
<!-- reaction_1_intermediate_m -->
<g id="node20" class="node"><title>reaction_1_intermediate_m</title>
<ellipse fill="black" stroke="black" cx="539" cy="-667" rx="0.036" ry="0.036"/>
</g>
<!-- species_6&#45;&gt;reaction_1_intermediate_m -->
<g id="edge16" class="edge"><title>species_6&#45;&gt;reaction_1_intermediate_m</title>
<path fill="none" stroke="black" d="M162.266,-489.264C167.266,-545.777 190.739,-714 293,-714 293,-714 293,-714 383,-714 454.28,-714 536.391,-668.457 538.939,-667.034"/>
</g>
<!-- species_5 -->
<g id="node2" class="node"><title>species_5</title>
<polyline fill="none" stroke="black" points="946,-222 916,-222 "/>
<path fill="none" stroke="black" d="M916,-222C910,-222 904,-216 904,-210"/>
<polyline fill="none" stroke="black" points="904,-210 904,-198 "/>
<path fill="none" stroke="black" d="M904,-198C904,-192 910,-186 916,-186"/>
<polyline fill="none" stroke="black" points="916,-186 946,-186 "/>
<path fill="none" stroke="black" d="M946,-186C952,-186 958,-192 958,-198"/>
<polyline fill="none" stroke="black" points="958,-198 958,-210 "/>
<path fill="none" stroke="black" d="M958,-210C958,-216 952,-222 946,-222"/>
<text text-anchor="middle" x="931" y="-201.5" font-family="Times Roman,serif" font-size="10.00">Ycf1</text>
</g>
<!-- reaction_10_intermediate_m -->
<g id="node97" class="node"><title>reaction_10_intermediate_m</title>
<ellipse fill="black" stroke="black" cx="995" cy="-227" rx="0.036" ry="0.036"/>
</g>
<!-- species_5&#45;&gt;reaction_10_intermediate_m -->
<g id="edge110" class="edge"><title>species_5&#45;&gt;reaction_10_intermediate_m</title>
<path fill="none" stroke="black" d="M958.142,-207.074C975.312,-212.749 994.394,-221.756 994.986,-226.765"/>
</g>
<!-- species_5&#45;&gt;reaction_10_intermediate_m -->
<g id="edge112" class="edge"><title>species_5&#45;&gt;reaction_10_intermediate_m</title>
<path fill="none" stroke="black" d="M958.142,-220.434C975.04,-226.995 993.788,-231.658 994.944,-227.437"/>
</g>
<!-- species_10 -->
<g id="node3" class="node"><title>species_10</title>
<polyline fill="none" stroke="black" points="43,-105 13,-105 "/>
<path fill="none" stroke="black" d="M13,-105C7,-105 1,-99 1,-93"/>
<polyline fill="none" stroke="black" points="1,-93 1,-81 "/>
<path fill="none" stroke="black" d="M1,-81C1,-75 7,-69 13,-69"/>
<polyline fill="none" stroke="black" points="13,-69 43,-69 "/>
<path fill="none" stroke="black" d="M43,-69C49,-69 55,-75 55,-81"/>
<polyline fill="none" stroke="black" points="55,-81 55,-93 "/>
<path fill="none" stroke="black" d="M55,-93C55,-99 49,-105 43,-105"/>
<text text-anchor="middle" x="28" y="-84.5" font-family="Times Roman,serif" font-size="10.00">Hog1PP</text>
</g>
<!-- reaction_5_intermediate_r -->
<g id="node39" class="node"><title>reaction_5_intermediate_r</title>
<ellipse fill="black" stroke="black" cx="93" cy="-55" rx="0.036" ry="0.036"/>
</g>
<!-- species_10&#45;&gt;reaction_5_intermediate_r -->
<g id="edge38" class="edge"><title>species_10&#45;&gt;reaction_5_intermediate_r</title>
<path fill="none" stroke="black" d="M55.5659,-73.4291C72.728,-64.9801 91.7696,-55.6058 92.9429,-55.0281"/>
</g>
<!-- reaction_5_intermediate_m -->
<g id="node45" class="node"><title>reaction_5_intermediate_m</title>
<ellipse fill="black" stroke="black" cx="229" cy="-27" rx="0.036" ry="0.036"/>
</g>
<!-- species_10&#45;&gt;reaction_5_intermediate_m -->
<g id="edge46" class="edge"><title>species_10&#45;&gt;reaction_5_intermediate_m</title>
<path fill="none" stroke="black" d="M52.212,-68.9374C63.7779,-60.9911 78.1043,-52.0981 92,-46 147.41,-21.6834 226.484,-26.8292 228.941,-26.996"/>
</g>
<!-- reaction_16_intermediate_m -->
<g id="node140" class="node"><title>reaction_16_intermediate_m</title>
<ellipse fill="black" stroke="black" cx="539" cy="-512" rx="0.036" ry="0.036"/>
</g>
<!-- species_10&#45;&gt;reaction_16_intermediate_m -->
<g id="edge166" class="edge"><title>species_10&#45;&gt;reaction_16_intermediate_m</title>
<path fill="none" stroke="black" d="M31.9877,-105.265C45.9137,-172.989 95.1366,-404 161,-404 161,-404 161,-404 383,-404 464.475,-404 537.845,-501.459 538.987,-511.773"/>
</g>
<!-- species_10&#45;&gt;reaction_16_intermediate_m -->
<g id="edge172" class="edge"><title>species_10&#45;&gt;reaction_16_intermediate_m</title>
<path fill="none" stroke="black" d="M30.743,-105.377C42.7335,-175.738 92.9972,-422 161,-422 161,-422 161,-422 383,-422 463.833,-422 536.689,-517.93 538.946,-512.344"/>
</g>
<!-- species_9 -->
<g id="node4" class="node"><title>species_9</title>
<polyline fill="none" stroke="black" points="308,-151 278,-151 "/>
<path fill="none" stroke="black" d="M278,-151C272,-151 266,-145 266,-139"/>
<polyline fill="none" stroke="black" points="266,-139 266,-127 "/>
<path fill="none" stroke="black" d="M266,-127C266,-121 272,-115 278,-115"/>
<polyline fill="none" stroke="black" points="278,-115 308,-115 "/>
<path fill="none" stroke="black" d="M308,-115C314,-115 320,-121 320,-127"/>
<polyline fill="none" stroke="black" points="320,-127 320,-139 "/>
<path fill="none" stroke="black" d="M320,-139C320,-145 314,-151 308,-151"/>
<text text-anchor="middle" x="293" y="-130.5" font-family="Times Roman,serif" font-size="10.00">Hog1</text>
</g>
<!-- reaction_4_intermediate_r -->
<g id="node27" class="node"><title>reaction_4_intermediate_r</title>
<ellipse fill="black" stroke="black" cx="383" cy="-115" rx="0.036" ry="0.036"/>
</g>
<!-- species_9&#45;&gt;reaction_4_intermediate_r -->
<g id="edge22" class="edge"><title>species_9&#45;&gt;reaction_4_intermediate_r</title>
<path fill="none" stroke="black" d="M320.003,-127.599C345.685,-122.463 380.729,-115.454 382.895,-115.021"/>
</g>
<!-- reaction_4_intermediate_m -->
<g id="node33" class="node"><title>reaction_4_intermediate_m</title>
<ellipse fill="black" stroke="black" cx="539" cy="-225" rx="0.036" ry="0.036"/>
</g>
<!-- species_9&#45;&gt;reaction_4_intermediate_m -->
<g id="edge32" class="edge"><title>species_9&#45;&gt;reaction_4_intermediate_m</title>
<path fill="none" stroke="black" d="M314.209,-151.166C325.884,-160.36 341.013,-171.021 356,-178 430.934,-212.896 535.668,-224.633 538.922,-224.991"/>
</g>
<!-- species_15 -->
<g id="node5" class="node"><title>species_15</title>
<polyline fill="none" stroke="black" points="618,-614 588,-614 "/>
<path fill="none" stroke="black" d="M588,-614C582,-614 576,-608 576,-602"/>
<polyline fill="none" stroke="black" points="576,-602 576,-590 "/>
<path fill="none" stroke="black" d="M576,-590C576,-584 582,-578 588,-578"/>
<polyline fill="none" stroke="black" points="588,-578 618,-578 "/>
<path fill="none" stroke="black" d="M618,-578C624,-578 630,-584 630,-590"/>
<polyline fill="none" stroke="black" points="630,-590 630,-602 "/>
<path fill="none" stroke="black" d="M630,-602C630,-608 624,-614 618,-614"/>
<text text-anchor="middle" x="603" y="-593.5" font-family="Times Roman,serif" font-size="10.00">Fps1P</text>
</g>
<!-- reaction_6_intermediate_r -->
<g id="node49" class="node"><title>reaction_6_intermediate_r</title>
<ellipse fill="black" stroke="black" cx="667" cy="-594" rx="0.036" ry="0.036"/>
</g>
<!-- species_15&#45;&gt;reaction_6_intermediate_r -->
<g id="edge50" class="edge"><title>species_15&#45;&gt;reaction_6_intermediate_r</title>
<path fill="none" stroke="black" d="M630.142,-595.152C647.04,-594.624 665.788,-594.038 666.944,-594.002"/>
</g>
<!-- reaction_6_intermediate_m -->
<g id="node55" class="node"><title>reaction_6_intermediate_m</title>
<ellipse fill="black" stroke="black" cx="841" cy="-615" rx="0.036" ry="0.036"/>
</g>
<!-- species_15&#45;&gt;reaction_6_intermediate_m -->
<g id="edge58" class="edge"><title>species_15&#45;&gt;reaction_6_intermediate_m</title>
<path fill="none" stroke="black" d="M630.368,-600.157C650.648,-603.082 678.988,-606.846 704,-609 763.774,-614.147 838.62,-614.975 840.944,-614.999"/>
</g>
<!-- species_11 -->
<g id="node6" class="node"><title>species_11</title>
<polyline fill="none" stroke="black" points="308,-603 278,-603 "/>
<path fill="none" stroke="black" d="M278,-603C272,-603 266,-597 266,-591"/>
<polyline fill="none" stroke="black" points="266,-591 266,-579 "/>
<path fill="none" stroke="black" d="M266,-579C266,-573 272,-567 278,-567"/>
<polyline fill="none" stroke="black" points="278,-567 308,-567 "/>
<path fill="none" stroke="black" d="M308,-567C314,-567 320,-573 320,-579"/>
<polyline fill="none" stroke="black" points="320,-579 320,-591 "/>
<path fill="none" stroke="black" d="M320,-591C320,-597 314,-603 308,-603"/>
<text text-anchor="middle" x="293" y="-582.5" font-family="Times Roman,serif" font-size="10.00">Fps1</text>
</g>
<!-- species_11&#45;&gt;reaction_1_intermediate_m -->
<g id="edge12" class="edge"><title>species_11&#45;&gt;reaction_1_intermediate_m</title>
<path fill="none" stroke="black" d="M320.266,-589.656C383.315,-606.556 534.188,-658.215 538.888,-666.632"/>
</g>
<!-- species_11&#45;&gt;reaction_1_intermediate_m -->
<g id="edge14" class="edge"><title>species_11&#45;&gt;reaction_1_intermediate_m</title>
<path fill="none" stroke="black" d="M320.266,-598.521C383.315,-623.654 534.188,-672.578 538.888,-667.293"/>
</g>
<!-- reaction_16_intermediate_r -->
<g id="node134" class="node"><title>reaction_16_intermediate_r</title>
<ellipse fill="black" stroke="black" cx="383" cy="-585" rx="0.036" ry="0.036"/>
</g>
<!-- species_11&#45;&gt;reaction_16_intermediate_r -->
<g id="edge156" class="edge"><title>species_11&#45;&gt;reaction_16_intermediate_r</title>
<path fill="none" stroke="black" d="M320.003,-585C345.685,-585 380.729,-585 382.895,-585"/>
</g>
<!-- species_11&#45;&gt;reaction_16_intermediate_m -->
<g id="edge168" class="edge"><title>species_11&#45;&gt;reaction_16_intermediate_m</title>
<path fill="none" stroke="black" d="M310.879,-566.855C322.655,-556.052 338.995,-543.104 356,-536 430.508,-504.874 535.654,-511.771 538.922,-511.995"/>
</g>
<!-- species_14 -->
<g id="node7" class="node"><title>species_14</title>
<polyline fill="none" stroke="black" points="618,-131 588,-131 "/>
<path fill="none" stroke="black" d="M588,-131C582,-131 576,-125 576,-119"/>
<polyline fill="none" stroke="black" points="576,-119 576,-107 "/>
<path fill="none" stroke="black" d="M576,-107C576,-101 582,-95 588,-95"/>
<polyline fill="none" stroke="black" points="588,-95 618,-95 "/>
<path fill="none" stroke="black" d="M618,-95C624,-95 630,-101 630,-107"/>
<polyline fill="none" stroke="black" points="630,-107 630,-119 "/>
<path fill="none" stroke="black" d="M630,-119C630,-125 624,-131 618,-131"/>
<text text-anchor="middle" x="603" y="-110.5" font-family="Times Roman,serif" font-size="10.00">Acr3</text>
</g>
<!-- reaction_14_intermediate_r -->
<g id="node113" class="node"><title>reaction_14_intermediate_r</title>
<ellipse fill="black" stroke="black" cx="667" cy="-54" rx="0.036" ry="0.036"/>
</g>
<!-- species_14&#45;&gt;reaction_14_intermediate_r -->
<g id="edge130" class="edge"><title>species_14&#45;&gt;reaction_14_intermediate_r</title>
<path fill="none" stroke="black" d="M622.55,-94.9775C640.783,-78.1689 665.405,-55.4705 666.926,-54.0683"/>
</g>
<!-- reaction_14_intermediate_m -->
<g id="node118" class="node"><title>reaction_14_intermediate_m</title>
<ellipse fill="black" stroke="black" cx="841" cy="-54" rx="0.036" ry="0.036"/>
</g>
<!-- species_14&#45;&gt;reaction_14_intermediate_m -->
<g id="edge136" class="edge"><title>species_14&#45;&gt;reaction_14_intermediate_m</title>
<path fill="none" stroke="black" d="M630.302,-106.232C691.84,-90.9767 836.39,-55.1428 840.892,-54.0267"/>
</g>
<!-- reaction_15_intermediate_m -->
<g id="node128" class="node"><title>reaction_15_intermediate_m</title>
<ellipse fill="black" stroke="black" cx="667" cy="-114" rx="0.036" ry="0.036"/>
</g>
<!-- species_14&#45;&gt;reaction_15_intermediate_m -->
<g id="edge148" class="edge"><title>species_14&#45;&gt;reaction_15_intermediate_m</title>
<path fill="none" stroke="black" d="M630.142,-106.744C647.04,-106.52 665.788,-108.888 666.944,-113.542"/>
</g>
<!-- species_14&#45;&gt;reaction_15_intermediate_m -->
<g id="edge150" class="edge"><title>species_14&#45;&gt;reaction_15_intermediate_m</title>
<path fill="none" stroke="black" d="M630.142,-120.104C647.04,-120.856 665.788,-119.075 666.944,-114.456"/>
</g>
<!-- species_4 -->
<g id="node8" class="node"><title>species_4</title>
<ellipse fill="none" stroke="black" cx="1065" cy="-242" rx="33.2417" ry="18"/>
<text text-anchor="middle" x="1065" y="-239.5" font-family="Times Roman,serif" font-size="10.00">vAsGS3</text>
</g>
<!-- reaction_18_intermediate_r -->
<g id="node159" class="node"><title>reaction_18_intermediate_r</title>
<ellipse fill="black" stroke="black" cx="1135" cy="-210" rx="0.036" ry="0.036"/>
</g>
<!-- species_4&#45;&gt;reaction_18_intermediate_r -->
<g id="edge190" class="edge"><title>species_4&#45;&gt;reaction_18_intermediate_r</title>
<path fill="none" stroke="black" d="M1090.67,-230.266C1110.02,-221.419 1133.48,-210.694 1134.93,-210.032"/>
</g>
<!-- reaction_18_intermediate_m -->
<g id="node165" class="node"><title>reaction_18_intermediate_m</title>
<ellipse fill="black" stroke="black" cx="1222" cy="-223" rx="0.036" ry="0.036"/>
</g>
<!-- species_4&#45;&gt;reaction_18_intermediate_m -->
<g id="edge198" class="edge"><title>species_4&#45;&gt;reaction_18_intermediate_m</title>
<path fill="none" stroke="black" d="M1097.53,-238.063C1142.8,-232.585 1219.56,-223.296 1221.94,-223.007"/>
</g>
<!-- species_3 -->
<g id="node9" class="node"><title>species_3</title>
<ellipse fill="none" stroke="black" cx="741" cy="-291" rx="18" ry="18"/>
<text text-anchor="middle" x="741" y="-288.5" font-family="Times Roman,serif" font-size="10.00">AsGS3</text>
</g>
<!-- reaction_10_intermediate_r -->
<g id="node91" class="node"><title>reaction_10_intermediate_r</title>
<ellipse fill="black" stroke="black" cx="841" cy="-286" rx="0.036" ry="0.036"/>
</g>
<!-- species_3&#45;&gt;reaction_10_intermediate_r -->
<g id="edge102" class="edge"><title>species_3&#45;&gt;reaction_10_intermediate_r</title>
<path fill="none" stroke="black" d="M759.342,-290.083C787.309,-288.685 837.724,-286.164 840.848,-286.008"/>
</g>
<!-- species_3&#45;&gt;reaction_10_intermediate_m -->
<g id="edge114" class="edge"><title>species_3&#45;&gt;reaction_10_intermediate_m</title>
<path fill="none" stroke="black" d="M758.458,-286.601C814.948,-272.368 989.431,-228.403 994.87,-227.033"/>
</g>
<!-- reaction_17_intermediate_r -->
<g id="node148" class="node"><title>reaction_17_intermediate_r</title>
<ellipse fill="black" stroke="black" cx="841" cy="-352" rx="0.036" ry="0.036"/>
</g>
<!-- species_3&#45;&gt;reaction_17_intermediate_r -->
<g id="edge176" class="edge"><title>species_3&#45;&gt;reaction_17_intermediate_r</title>
<path fill="none" stroke="black" d="M756.625,-300.531C783.871,-317.151 837.512,-349.872 840.838,-351.901"/>
</g>
<!-- reaction_17_intermediate_m -->
<g id="node155" class="node"><title>reaction_17_intermediate_m</title>
<ellipse fill="black" stroke="black" cx="995" cy="-342" rx="0.036" ry="0.036"/>
</g>
<!-- species_3&#45;&gt;reaction_17_intermediate_m -->
<g id="edge186" class="edge"><title>species_3&#45;&gt;reaction_17_intermediate_m</title>
<path fill="none" stroke="black" d="M758.861,-294.586C815.773,-306.014 989.457,-340.887 994.871,-341.974"/>
</g>
<!-- species_1 -->
<g id="node10" class="node"><title>species_1</title>
<ellipse fill="none" stroke="black" cx="474" cy="-356" rx="27.1978" ry="18"/>
<text text-anchor="middle" x="474" y="-353.5" font-family="Times Roman,serif" font-size="10.00">AsIIIin</text>
</g>
<!-- species_1&#45;&gt;reaction_1_intermediate_m -->
<g id="edge18" class="edge"><title>species_1&#45;&gt;reaction_1_intermediate_m</title>
<path fill="none" stroke="black" d="M477.776,-374.065C491.431,-439.403 537.528,-659.959 538.966,-666.836"/>
</g>
<!-- species_1&#45;&gt;reaction_4_intermediate_m -->
<g id="edge30" class="edge"><title>species_1&#45;&gt;reaction_4_intermediate_m</title>
<path fill="none" stroke="black" d="M480.59,-338.443C496.599,-301.942 536.407,-222.918 538.879,-224.583"/>
</g>
<!-- species_1&#45;&gt;reaction_4_intermediate_m -->
<g id="edge34" class="edge"><title>species_1&#45;&gt;reaction_4_intermediate_m</title>
<path fill="none" stroke="black" d="M484.88,-339.265C503.094,-305.706 537.891,-233.95 538.974,-225.361"/>
</g>
<!-- reaction_7_intermediate_r -->
<g id="node59" class="node"><title>reaction_7_intermediate_r</title>
<ellipse fill="black" stroke="black" cx="539" cy="-494" rx="0.036" ry="0.036"/>
</g>
<!-- species_1&#45;&gt;reaction_7_intermediate_r -->
<g id="edge62" class="edge"><title>species_1&#45;&gt;reaction_7_intermediate_r</title>
<path fill="none" stroke="black" d="M488.611,-371.416C493.338,-376.969 498.307,-383.48 502,-390 525.802,-432.021 538.597,-492.089 538.991,-493.955"/>
</g>
<!-- reaction_7_intermediate_m -->
<g id="node65" class="node"><title>reaction_7_intermediate_m</title>
<ellipse fill="black" stroke="black" cx="667" cy="-477" rx="0.036" ry="0.036"/>
</g>
<!-- species_1&#45;&gt;reaction_7_intermediate_m -->
<g id="edge70" class="edge"><title>species_1&#45;&gt;reaction_7_intermediate_m</title>
<path fill="none" stroke="black" d="M487.668,-372.035C492.319,-377.638 497.481,-384.022 502,-390 518.949,-412.424 515.043,-425.78 538,-442 585.76,-475.744 664.493,-476.969 666.941,-476.999"/>
</g>
<!-- reaction_9_intermediate_r -->
<g id="node79" class="node"><title>reaction_9_intermediate_r</title>
<ellipse fill="black" stroke="black" cx="539" cy="-355" rx="0.036" ry="0.036"/>
</g>
<!-- species_1&#45;&gt;reaction_9_intermediate_r -->
<g id="edge86" class="edge"><title>species_1&#45;&gt;reaction_9_intermediate_r</title>
<path fill="none" stroke="black" d="M501.566,-355.576C518.728,-355.312 537.77,-355.019 538.943,-355.001"/>
</g>
<!-- reaction_9_intermediate_m -->
<g id="node86" class="node"><title>reaction_9_intermediate_m</title>
<ellipse fill="black" stroke="black" cx="1135" cy="-120" rx="0.036" ry="0.036"/>
</g>
<!-- species_1&#45;&gt;reaction_9_intermediate_m -->
<g id="edge96" class="edge"><title>species_1&#45;&gt;reaction_9_intermediate_m</title>
<path fill="none" stroke="black" d="M493.106,-342.871C533.332,-315.215 623.597,-253.08 630,-248 664.757,-220.426 666.735,-205.077 704,-181 708.182,-178.298 929.081,-82 931,-82 931,-82 931,-82 995,-82 1058.47,-82 1132.64,-118.822 1134.95,-119.972"/>
</g>
<!-- reaction_13_intermediate_m -->
<g id="node108" class="node"><title>reaction_13_intermediate_m</title>
<ellipse fill="black" stroke="black" cx="539" cy="-243" rx="0.036" ry="0.036"/>
</g>
<!-- species_1&#45;&gt;reaction_13_intermediate_m -->
<g id="edge124" class="edge"><title>species_1&#45;&gt;reaction_13_intermediate_m</title>
<path fill="none" stroke="black" d="M481.456,-338.544C497.996,-305.812 536.493,-240.168 538.883,-242.553"/>
</g>
<!-- species_1&#45;&gt;reaction_13_intermediate_m -->
<g id="edge126" class="edge"><title>species_1&#45;&gt;reaction_13_intermediate_m</title>
<path fill="none" stroke="black" d="M486.533,-339.67C505.126,-310.133 537.954,-251.342 538.976,-243.342"/>
</g>
<!-- reaction_15_intermediate_r -->
<g id="node122" class="node"><title>reaction_15_intermediate_r</title>
<ellipse fill="black" stroke="black" cx="539" cy="-299" rx="0.036" ry="0.036"/>
</g>
<!-- species_1&#45;&gt;reaction_15_intermediate_r -->
<g id="edge140" class="edge"><title>species_1&#45;&gt;reaction_15_intermediate_r</title>
<path fill="none" stroke="black" d="M490.739,-341.321C509.396,-324.96 537.197,-300.581 538.916,-299.073"/>
</g>
<!-- species_1&#45;&gt;reaction_15_intermediate_m -->
<g id="edge152" class="edge"><title>species_1&#45;&gt;reaction_15_intermediate_m</title>
<path fill="none" stroke="black" d="M485.42,-339.225C503.758,-312.545 541.248,-259.058 576,-216 612.964,-170.202 663.712,-117.413 666.847,-114.158"/>
</g>
<!-- species_1&#45;&gt;reaction_16_intermediate_m -->
<g id="edge164" class="edge"><title>species_1&#45;&gt;reaction_16_intermediate_m</title>
<path fill="none" stroke="black" d="M493.726,-368.548C496.784,-372.404 499.689,-376.686 502,-381 528.542,-430.558 538.839,-501.876 538.998,-511.778"/>
</g>
<!-- species_1&#45;&gt;reaction_16_intermediate_m -->
<g id="edge170" class="edge"><title>species_1&#45;&gt;reaction_16_intermediate_m</title>
<path fill="none" stroke="black" d="M483.453,-373.016C489.495,-380.81 497.09,-389.832 502,-399 527.915,-447.388 538.343,-516.518 538.97,-512.609"/>
</g>
<!-- species_2 -->
<g id="node11" class="node"><title>species_2</title>
<ellipse fill="none" stroke="black" cx="741" cy="-512" rx="35.8221" ry="18"/>
<text text-anchor="middle" x="741" y="-509.5" font-family="Times Roman,serif" font-size="10.00">AsIIIProt</text>
</g>
<!-- reaction_8_intermediate_r -->
<g id="node69" class="node"><title>reaction_8_intermediate_r</title>
<ellipse fill="black" stroke="black" cx="841" cy="-504" rx="0.036" ry="0.036"/>
</g>
<!-- species_2&#45;&gt;reaction_8_intermediate_r -->
<g id="edge74" class="edge"><title>species_2&#45;&gt;reaction_8_intermediate_r</title>
<path fill="none" stroke="black" d="M777.102,-509.112C804.851,-506.892 838.803,-504.176 840.898,-504.008"/>
</g>
<!-- reaction_8_intermediate_m -->
<g id="node75" class="node"><title>reaction_8_intermediate_m</title>
<ellipse fill="black" stroke="black" cx="995" cy="-518" rx="0.036" ry="0.036"/>
</g>
<!-- species_2&#45;&gt;reaction_8_intermediate_m -->
<g id="edge82" class="edge"><title>species_2&#45;&gt;reaction_8_intermediate_m</title>
<path fill="none" stroke="black" d="M777.571,-513.328C810.603,-514.478 860.551,-516.095 904,-517 943.174,-517.816 991.85,-517.989 994.854,-518"/>
</g>
<!-- species_7 -->
<g id="node12" class="node"><title>species_7</title>
<ellipse fill="none" stroke="black" cx="1065" cy="-368" rx="18" ry="18"/>
<text text-anchor="middle" x="1065" y="-365.5" font-family="Times Roman,serif" font-size="10.00">GSH</text>
</g>
<!-- species_7&#45;&gt;reaction_9_intermediate_r -->
<g id="edge88" class="edge"><title>species_7&#45;&gt;reaction_9_intermediate_r</title>
<path fill="none" stroke="black" d="M1050.68,-379.286C1027.14,-396.666 978.156,-428 931,-428 841,-428 841,-428 841,-428 705.07,-428 544.116,-357.263 539.119,-355.053"/>
</g>
<!-- species_7&#45;&gt;reaction_9_intermediate_m -->
<g id="edge98" class="edge"><title>species_7&#45;&gt;reaction_9_intermediate_m</title>
<path fill="none" stroke="black" d="M1071.13,-350.958C1078.09,-331.333 1089.56,-298.056 1098,-269 1116.73,-204.497 1134.44,-122.604 1134.99,-120.061"/>
</g>
<!-- reaction_1 -->
<g id="node13" class="node"><title>reaction_1</title>
<polygon fill="none" stroke="black" points="300,-478 286,-478 286,-464 300,-464 300,-478"/>
</g>
<!-- reaction_1_intermediate_p -->
<g id="node17" class="node"><title>reaction_1_intermediate_p</title>
<ellipse fill="black" stroke="black" cx="383" cy="-365" rx="0.036" ry="0.036"/>
</g>
<!-- reaction_1&#45;&gt;reaction_1_intermediate_p -->
<g id="edge6" class="edge"><title>reaction_1&#45;&gt;reaction_1_intermediate_p</title>
<path fill="none" stroke="black" d="M299.186,-463.714C319.202,-440.14 381.027,-367.324 382.954,-365.054"/>
</g>
<!-- reaction_1&#45;&gt;reaction_1_intermediate_m -->
<g id="edge10" class="edge"><title>reaction_1&#45;&gt;reaction_1_intermediate_m</title>
<path fill="none" stroke="black" d="M309.121,-486.327C336.214,-511.702 393.114,-563.372 446,-601 469.539,-617.748 478.664,-616.971 502,-634 519.243,-646.583 537.801,-665.756 538.944,-666.942"/>
<polygon fill="none" stroke="black" points="308.996,-486.209 301.887,-485 300.268,-477.973 307.377,-479.182 308.996,-486.209"/>
</g>
<!-- reaction_1_intermediate_r&#45;&gt;reaction_1 -->
<g id="edge2" class="edge"><title>reaction_1_intermediate_r&#45;&gt;reaction_1</title>
<path fill="none" stroke="black" d="M229.046,-471C230.576,-471 269.51,-471 285.868,-471"/>
</g>
<!-- reaction_1_intermediate_p&#45;&gt;species_1 -->
<g id="edge8" class="edge"><title>reaction_1_intermediate_p&#45;&gt;species_1</title>
<path fill="none" stroke="black" d="M383.066,-364.993C384.582,-364.844 411.967,-362.135 436.29,-359.73"/>
<polygon fill="black" stroke="black" points="436.835,-363.193 446.442,-358.725 436.146,-356.227 436.835,-363.193"/>
</g>
<!-- reaction_4 -->
<g id="node26" class="node"><title>reaction_4</title>
<polygon fill="none" stroke="black" points="481,-129 467,-129 467,-115 481,-115 481,-129"/>
</g>
<!-- reaction_4_intermediate_p -->
<g id="node30" class="node"><title>reaction_4_intermediate_p</title>
<ellipse fill="black" stroke="black" cx="539" cy="-105" rx="0.036" ry="0.036"/>
</g>
<!-- reaction_4&#45;&gt;reaction_4_intermediate_p -->
<g id="edge24" class="edge"><title>reaction_4&#45;&gt;reaction_4_intermediate_p</title>
<path fill="none" stroke="black" d="M481.204,-120.116C497.599,-115.828 536.469,-105.662 538.882,-105.031"/>
</g>
<!-- reaction_4&#45;&gt;reaction_4_intermediate_m -->
<g id="edge28" class="edge"><title>reaction_4&#45;&gt;reaction_4_intermediate_m</title>
<path fill="none" stroke="black" d="M492.214,-130.101C495.781,-132.288 499.261,-134.92 502,-138 529.05,-168.417 538.414,-221.549 538.973,-224.84"/>
<polygon fill="none" stroke="black" points="492.033,-130.011 484.877,-130.894 481.309,-124.628 488.465,-123.744 492.033,-130.011"/>
</g>
<!-- reaction_4_intermediate_r&#45;&gt;reaction_4 -->
<g id="edge20" class="edge"><title>reaction_4_intermediate_r&#45;&gt;reaction_4</title>
<path fill="none" stroke="black" d="M383.066,-115.005C385.337,-115.18 445.639,-119.818 466.769,-121.444"/>
</g>
<!-- reaction_4_intermediate_p&#45;&gt;species_10 -->
<g id="edge26" class="edge"><title>reaction_4_intermediate_p&#45;&gt;species_10</title>
<path fill="none" stroke="black" d="M538.937,-104.987C536.31,-104.442 451.703,-87 383,-87 161,-87 161,-87 161,-87 128.793,-87 92.1982,-87 65.5589,-87"/>
<polygon fill="black" stroke="black" points="65.5101,-83.5001 55.5101,-87 65.51,-90.5001 65.5101,-83.5001"/>
</g>
<!-- reaction_5 -->
<g id="node38" class="node"><title>reaction_5</title>
<polygon fill="none" stroke="black" points="168,-59 154,-59 154,-45 168,-45 168,-59"/>
</g>
<!-- reaction_5_intermediate_p -->
<g id="node42" class="node"><title>reaction_5_intermediate_p</title>
<ellipse fill="black" stroke="black" cx="229" cy="-56" rx="0.036" ry="0.036"/>
</g>
<!-- reaction_5&#45;&gt;reaction_5_intermediate_p -->
<g id="edge40" class="edge"><title>reaction_5&#45;&gt;reaction_5_intermediate_p</title>
<path fill="none" stroke="black" d="M168.021,-52.413C184.852,-53.4031 226.3,-55.8412 228.874,-55.9926"/>
</g>
<!-- reaction_5&#45;&gt;reaction_5_intermediate_m -->
<g id="edge44" class="edge"><title>reaction_5&#45;&gt;reaction_5_intermediate_m</title>
<path fill="none" stroke="black" d="M179.388,-45.2398C198.761,-38.1173 226.773,-27.8188 228.874,-27.0462"/>
<polygon fill="none" stroke="black" points="179.284,-45.2779 175.033,-51.1026 168.021,-49.4187 172.272,-43.594 179.284,-45.2779"/>
</g>
<!-- reaction_5_intermediate_r&#45;&gt;reaction_5 -->
<g id="edge36" class="edge"><title>reaction_5_intermediate_r&#45;&gt;reaction_5</title>
<path fill="none" stroke="black" d="M93.0493,-54.9978C94.6901,-54.9254 136.865,-53.0648 153.931,-52.3119"/>
</g>
<!-- reaction_5_intermediate_p&#45;&gt;species_9 -->
<g id="edge42" class="edge"><title>reaction_5_intermediate_p&#45;&gt;species_9</title>
<path fill="none" stroke="black" d="M229.046,-56.0558C230.22,-57.4673 253.408,-85.3657 271.528,-107.166"/>
<polygon fill="black" stroke="black" points="268.84,-109.409 277.924,-114.862 274.224,-104.934 268.84,-109.409"/>
</g>
<!-- reaction_6 -->
<g id="node48" class="node"><title>reaction_6</title>
<polygon fill="none" stroke="black" points="748,-600 734,-600 734,-586 748,-586 748,-600"/>
</g>
<!-- reaction_6_intermediate_p -->
<g id="node52" class="node"><title>reaction_6_intermediate_p</title>
<ellipse fill="black" stroke="black" cx="841" cy="-584" rx="0.036" ry="0.036"/>
</g>
<!-- reaction_6&#45;&gt;reaction_6_intermediate_p -->
<g id="edge52" class="edge"><title>reaction_6&#45;&gt;reaction_6_intermediate_p</title>
<path fill="none" stroke="black" d="M748.192,-592.353C770.763,-590.321 838.828,-584.196 840.949,-584.005"/>
</g>
<!-- reaction_6&#45;&gt;reaction_6_intermediate_m -->
<g id="edge56" class="edge"><title>reaction_6&#45;&gt;reaction_6_intermediate_m</title>
<path fill="none" stroke="black" d="M760.103,-597.203C788.602,-603.472 839.126,-614.588 840.949,-614.989"/>
<polygon fill="none" stroke="black" points="759.911,-597.161 753.192,-599.778 748.192,-594.582 754.911,-591.965 759.911,-597.161"/>
</g>
<!-- reaction_6_intermediate_r&#45;&gt;reaction_6 -->
<g id="edge48" class="edge"><title>reaction_6_intermediate_r&#45;&gt;reaction_6</title>
<path fill="none" stroke="black" d="M667.054,-593.999C668.857,-593.975 715.64,-593.343 733.846,-593.097"/>
</g>
<!-- reaction_6_intermediate_p&#45;&gt;species_11 -->
<g id="edge54" class="edge"><title>reaction_6_intermediate_p&#45;&gt;species_11</title>
<path fill="none" stroke="black" d="M840.878,-583.975C835.791,-582.946 671.96,-550 539,-550 474,-550 474,-550 474,-550 423.388,-550 366.241,-563.355 329.943,-573.565"/>
<polygon fill="black" stroke="black" points="328.921,-570.217 320.281,-576.348 330.859,-576.944 328.921,-570.217"/>
</g>
<!-- reaction_7 -->
<g id="node58" class="node"><title>reaction_7</title>
<polygon fill="none" stroke="black" points="610,-508 596,-508 596,-494 610,-494 610,-508"/>
</g>
<!-- reaction_7_intermediate_p -->
<g id="node62" class="node"><title>reaction_7_intermediate_p</title>
<ellipse fill="black" stroke="black" cx="667" cy="-507" rx="0.036" ry="0.036"/>
</g>
<!-- reaction_7&#45;&gt;reaction_7_intermediate_p -->
<g id="edge64" class="edge"><title>reaction_7&#45;&gt;reaction_7_intermediate_p</title>
<path fill="none" stroke="black" d="M610.342,-501.688C626.627,-503.215 664.532,-506.769 666.885,-506.989"/>
</g>
<!-- reaction_7&#45;&gt;reaction_7_intermediate_m -->
<g id="edge68" class="edge"><title>reaction_7&#45;&gt;reaction_7_intermediate_m</title>
<path fill="none" stroke="black" d="M621.668,-493.999C639.835,-487.187 664.982,-477.757 666.885,-477.043"/>
<polygon fill="none" stroke="black" points="621.578,-494.033 617.364,-499.885 610.342,-498.247 614.555,-492.395 621.578,-494.033"/>
</g>
<!-- reaction_7_intermediate_r&#45;&gt;reaction_7 -->
<g id="edge60" class="edge"><title>reaction_7_intermediate_r&#45;&gt;reaction_7</title>
<path fill="none" stroke="black" d="M539.046,-494.005C540.576,-494.172 579.51,-498.431 595.868,-500.22"/>
</g>
<!-- reaction_7_intermediate_p&#45;&gt;species_2 -->
<g id="edge66" class="edge"><title>reaction_7_intermediate_p&#45;&gt;species_2</title>
<path fill="none" stroke="black" d="M667.054,-507.004C667.957,-507.065 680.146,-507.888 694.376,-508.85"/>
<polygon fill="black" stroke="black" points="694.227,-512.348 704.44,-509.53 694.699,-505.363 694.227,-512.348"/>
</g>
<!-- reaction_8 -->
<g id="node68" class="node"><title>reaction_8</title>
<polygon fill="none" stroke="black" points="938,-508 924,-508 924,-494 938,-494 938,-508"/>
</g>
<!-- reaction_8_intermediate_p -->
<g id="node72" class="node"><title>reaction_8_intermediate_p</title>
<ellipse fill="black" stroke="black" cx="995" cy="-483" rx="0.036" ry="0.036"/>
</g>
<!-- reaction_8&#45;&gt;reaction_8_intermediate_p -->
<g id="edge76" class="edge"><title>reaction_8&#45;&gt;reaction_8_intermediate_p</title>
<path fill="none" stroke="black" d="M938.342,-498.935C954.627,-494.355 992.532,-483.694 994.885,-483.032"/>
</g>
<!-- reaction_8&#45;&gt;reaction_8_intermediate_m -->
<g id="edge80" class="edge"><title>reaction_8&#45;&gt;reaction_8_intermediate_m</title>
<path fill="none" stroke="black" d="M950.197,-506.099C968.319,-510.913 993.001,-517.469 994.885,-517.97"/>
<polygon fill="none" stroke="black" points="949.939,-506.031 943.114,-508.356 938.342,-502.95 945.167,-500.625 949.939,-506.031"/>
</g>
<!-- reaction_8_intermediate_r&#45;&gt;reaction_8 -->
<g id="edge72" class="edge"><title>reaction_8_intermediate_r&#45;&gt;reaction_8</title>
<path fill="none" stroke="black" d="M841.065,-503.998C843.311,-503.923 902.951,-501.935 923.848,-501.238"/>
</g>
<!-- reaction_8_intermediate_p&#45;&gt;species_1 -->
<g id="edge78" class="edge"><title>reaction_8_intermediate_p&#45;&gt;species_1</title>
<path fill="none" stroke="black" d="M994.957,-482.993C991.339,-482.432 759.039,-446.361 576,-403 559.006,-398.974 554.148,-399.652 538,-393 525.67,-387.921 512.805,-380.869 501.871,-374.283"/>
<polygon fill="black" stroke="black" points="503.541,-371.2 493.195,-368.914 499.857,-377.153 503.541,-371.2"/>
</g>
<!-- reaction_9 -->
<g id="node78" class="node"><title>reaction_9</title>
<polygon fill="none" stroke="black" points="610,-309 596,-309 596,-295 610,-295 610,-309"/>
</g>
<!-- reaction_9_intermediate_p -->
<g id="node83" class="node"><title>reaction_9_intermediate_p</title>
<ellipse fill="black" stroke="black" cx="667" cy="-292" rx="0.036" ry="0.036"/>
</g>
<!-- reaction_9&#45;&gt;reaction_9_intermediate_p -->
<g id="edge90" class="edge"><title>reaction_9&#45;&gt;reaction_9_intermediate_p</title>
<path fill="none" stroke="black" d="M610.342,-300.853C626.627,-298.308 664.532,-292.386 666.885,-292.018"/>
</g>
<!-- reaction_9&#45;&gt;reaction_9_intermediate_m -->
<g id="edge94" class="edge"><title>reaction_9&#45;&gt;reaction_9_intermediate_m</title>
<path fill="none" stroke="black" d="M620.018,-289.591C676.924,-248.581 860.935,-120 931,-120 931,-120 931,-120 995,-120 1056.25,-120 1132.57,-120 1134.94,-120"/>
<polygon fill="none" stroke="black" points="619.86,-289.705 617.351,-296.466 610.145,-296.749 612.655,-289.989 619.86,-289.705"/>
</g>
<!-- reaction_9_intermediate_r&#45;&gt;reaction_9 -->
<g id="edge84" class="edge"><title>reaction_9_intermediate_r&#45;&gt;reaction_9</title>
<path fill="none" stroke="black" d="M539.046,-354.962C540.576,-353.695 579.51,-321.452 595.868,-307.906"/>
</g>
<!-- reaction_9_intermediate_p&#45;&gt;species_3 -->
<g id="edge92" class="edge"><title>reaction_9_intermediate_p&#45;&gt;species_3</title>
<path fill="none" stroke="black" d="M667.054,-291.999C668.336,-291.982 692.357,-291.657 712.678,-291.383"/>
<polygon fill="black" stroke="black" points="712.875,-294.88 722.826,-291.246 712.78,-287.881 712.875,-294.88"/>
</g>
<!-- reaction_10 -->
<g id="node90" class="node"><title>reaction_10</title>
<polygon fill="none" stroke="black" points="938,-292 924,-292 924,-278 938,-278 938,-292"/>
</g>
<!-- reaction_10_intermediate_p -->
<g id="node94" class="node"><title>reaction_10_intermediate_p</title>
<ellipse fill="black" stroke="black" cx="995" cy="-270" rx="0.036" ry="0.036"/>
</g>
<!-- reaction_10&#45;&gt;reaction_10_intermediate_p -->
<g id="edge104" class="edge"><title>reaction_10&#45;&gt;reaction_10_intermediate_p</title>
<path fill="none" stroke="black" d="M938.342,-283.279C954.627,-279.462 992.532,-270.578 994.885,-270.027"/>
</g>
<!-- reaction_10&#45;&gt;reaction_10_intermediate_m -->
<g id="edge108" class="edge"><title>reaction_10&#45;&gt;reaction_10_intermediate_m</title>
<path fill="none" stroke="black" d="M948.148,-272.18C951.477,-269.548 954.895,-266.741 958,-264 974.89,-249.09 993.779,-228.344 994.943,-227.062"/>
<polygon fill="none" stroke="black" points="947.834,-272.42 945.497,-279.242 938.301,-279.708 940.638,-272.886 947.834,-272.42"/>
</g>
<!-- reaction_10_intermediate_r&#45;&gt;reaction_10 -->
<g id="edge100" class="edge"><title>reaction_10_intermediate_r&#45;&gt;reaction_10</title>
<path fill="none" stroke="black" d="M841.065,-285.999C843.311,-285.974 902.951,-285.312 923.848,-285.079"/>
</g>
<!-- reaction_10_intermediate_p&#45;&gt;species_4 -->
<g id="edge106" class="edge"><title>reaction_10_intermediate_p&#45;&gt;species_4</title>
<path fill="none" stroke="black" d="M995.051,-269.98C996.061,-269.575 1012.01,-263.197 1028.42,-256.633"/>
<polygon fill="black" stroke="black" points="1030.04,-259.754 1038.02,-252.79 1027.44,-253.255 1030.04,-259.754"/>
</g>
<!-- reaction_13 -->
<g id="node102" class="node"><title>reaction_13</title>
<polygon fill="none" stroke="black" points="481,-161 467,-161 467,-147 481,-147 481,-161"/>
</g>
<!-- reaction_13_intermediate_p -->
<g id="node105" class="node"><title>reaction_13_intermediate_p</title>
<ellipse fill="black" stroke="black" cx="539" cy="-139" rx="0.036" ry="0.036"/>
</g>
<!-- reaction_13&#45;&gt;reaction_13_intermediate_p -->
<g id="edge118" class="edge"><title>reaction_13&#45;&gt;reaction_13_intermediate_p</title>
<path fill="none" stroke="black" d="M481.204,-152.337C497.599,-148.554 536.469,-139.584 538.882,-139.027"/>
</g>
<!-- reaction_13&#45;&gt;reaction_13_intermediate_m -->
<g id="edge122" class="edge"><title>reaction_13&#45;&gt;reaction_13_intermediate_m</title>
<path fill="none" stroke="black" d="M486.463,-171.065C505.001,-196.447 537.8,-241.357 538.968,-242.956"/>
<polygon fill="none" stroke="black" points="486.397,-170.974 479.628,-168.488 479.319,-161.283 486.088,-163.769 486.397,-170.974"/>
</g>
<!-- reaction_13_empty -->
<g id="node103" class="node"><title>reaction_13_empty</title>
<text text-anchor="middle" x="383" y="-146.5" font-family="Times Roman,serif" font-size="15.00" fill="blue">Ø</text>
</g>
<!-- reaction_13_empty&#45;&gt;reaction_13 -->
<g id="edge116" class="edge"><title>reaction_13_empty&#45;&gt;reaction_13</title>
<path fill="none" stroke="black" d="M410.303,-151.9C429.778,-152.542 454.579,-153.36 466.685,-153.759"/>
</g>
<!-- reaction_13_intermediate_p&#45;&gt;species_14 -->
<g id="edge120" class="edge"><title>reaction_13_intermediate_p&#45;&gt;species_14</title>
<path fill="none" stroke="black" d="M539.046,-138.981C539.901,-138.634 552.449,-133.536 566.206,-127.948"/>
<polygon fill="black" stroke="black" points="567.847,-131.059 575.794,-124.052 565.212,-124.573 567.847,-131.059"/>
</g>
<!-- reaction_14 -->
<g id="node112" class="node"><title>reaction_14</title>
<polygon fill="none" stroke="black" points="748,-58 734,-58 734,-44 748,-44 748,-58"/>
</g>
<!-- reaction_14_empty -->
<g id="node116" class="node"><title>reaction_14_empty</title>
<text text-anchor="middle" x="841" y="-13.5" font-family="Times Roman,serif" font-size="15.00" fill="blue">Ø</text>
</g>
<!-- reaction_14&#45;&gt;reaction_14_empty -->
<g id="edge132" class="edge"><title>reaction_14&#45;&gt;reaction_14_empty</title>
<path fill="none" stroke="black" d="M748.192,-48.6267C759.814,-44.7912 783.501,-36.9748 804.034,-30.1987"/>
<polygon fill="black" stroke="black" points="805.395,-33.4354 813.794,-26.9779 803.201,-26.788 805.395,-33.4354"/>
</g>
<!-- reaction_14&#45;&gt;reaction_14_intermediate_m -->
<g id="edge134" class="edge"><title>reaction_14&#45;&gt;reaction_14_intermediate_m</title>
<path fill="none" stroke="black" d="M760.493,-51.5848C789.06,-52.4418 839.134,-53.944 840.949,-53.9985"/>
<polygon fill="none" stroke="black" points="760.186,-51.5757 754.069,-55.3939 748.192,-51.2158 754.309,-47.3975 760.186,-51.5757"/>
</g>
<!-- reaction_14_intermediate_r&#45;&gt;reaction_14 -->
<g id="edge128" class="edge"><title>reaction_14_intermediate_r&#45;&gt;reaction_14</title>
<path fill="none" stroke="black" d="M667.054,-53.9978C668.857,-53.9247 715.64,-52.0281 733.846,-51.29"/>
</g>
<!-- reaction_15 -->
<g id="node121" class="node"><title>reaction_15</title>
<polygon fill="none" stroke="black" points="610,-239 596,-239 596,-225 610,-225 610,-239"/>
</g>
<!-- reaction_15_intermediate_p -->
<g id="node125" class="node"><title>reaction_15_intermediate_p</title>
<ellipse fill="black" stroke="black" cx="667" cy="-132" rx="0.036" ry="0.036"/>
</g>
<!-- reaction_15&#45;&gt;reaction_15_intermediate_p -->
<g id="edge142" class="edge"><title>reaction_15&#45;&gt;reaction_15_intermediate_p</title>
<path fill="none" stroke="black" d="M610.433,-227.608C616.348,-223.813 624.516,-217.868 630,-211 653.438,-181.651 666.189,-135.026 666.963,-132.141"/>
</g>
<!-- reaction_15&#45;&gt;reaction_15_intermediate_m -->
<g id="edge146" class="edge"><title>reaction_15&#45;&gt;reaction_15_intermediate_m</title>
<path fill="none" stroke="black" d="M612.761,-214.002C630.363,-181.549 665.723,-116.355 666.966,-114.062"/>
<polygon fill="none" stroke="black" points="612.533,-214.424 613.189,-221.605 606.812,-224.972 606.156,-217.791 612.533,-214.424"/>
</g>
<!-- reaction_15_intermediate_r&#45;&gt;reaction_15 -->
<g id="edge138" class="edge"><title>reaction_15_intermediate_r&#45;&gt;reaction_15</title>
<path fill="none" stroke="black" d="M539.053,-298.92C540.144,-297.284 557.881,-270.825 576,-253 582.265,-246.836 590.31,-240.781 595.984,-236.768"/>
</g>
<!-- reaction_15_intermediate_p&#45;&gt;species_6 -->
<g id="edge144" class="edge"><title>reaction_15_intermediate_p&#45;&gt;species_6</title>
<path fill="none" stroke="black" d="M666.953,-132.047C664.994,-134.015 601.807,-197 539,-197 293,-197 293,-197 293,-197 238.759,-197 186.561,-373.48 168.062,-443.172"/>
<polygon fill="black" stroke="black" points="164.63,-442.462 165.484,-453.022 171.402,-444.234 164.63,-442.462"/>
</g>
<!-- reaction_16 -->
<g id="node133" class="node"><title>reaction_16</title>
<polygon fill="none" stroke="black" points="481,-592 467,-592 467,-578 481,-578 481,-592"/>
</g>
<!-- reaction_16_intermediate_p -->
<g id="node137" class="node"><title>reaction_16_intermediate_p</title>
<ellipse fill="black" stroke="black" cx="539" cy="-591" rx="0.036" ry="0.036"/>
</g>
<!-- reaction_16&#45;&gt;reaction_16_intermediate_p -->
<g id="edge158" class="edge"><title>reaction_16&#45;&gt;reaction_16_intermediate_p</title>
<path fill="none" stroke="black" d="M481.204,-585.665C497.599,-587.178 536.469,-590.766 538.882,-590.989"/>
</g>
<!-- reaction_16&#45;&gt;reaction_16_intermediate_m -->
<g id="edge162" class="edge"><title>reaction_16&#45;&gt;reaction_16_intermediate_m</title>
<path fill="none" stroke="black" d="M488.699,-568.492C507.175,-547.742 536.754,-514.523 538.879,-512.136"/>
<polygon fill="none" stroke="black" points="488.45,-568.771 487.447,-575.913 480.47,-577.734 481.473,-570.593 488.45,-568.771"/>
</g>
<!-- reaction_16_intermediate_r&#45;&gt;reaction_16 -->
<g id="edge154" class="edge"><title>reaction_16_intermediate_r&#45;&gt;reaction_16</title>
<path fill="none" stroke="black" d="M383.066,-585C385.337,-585 445.639,-585 466.769,-585"/>
</g>
<!-- reaction_16_intermediate_p&#45;&gt;species_15 -->
<g id="edge160" class="edge"><title>reaction_16_intermediate_p&#45;&gt;species_15</title>
<path fill="none" stroke="black" d="M539.046,-591.004C539.893,-591.07 552.209,-592.032 565.809,-593.094"/>
<polygon fill="black" stroke="black" points="565.552,-596.585 575.794,-593.875 566.097,-589.606 565.552,-596.585"/>
</g>
<!-- reaction_17 -->
<g id="node147" class="node"><title>reaction_17</title>
<polygon fill="none" stroke="black" points="938,-362 924,-362 924,-348 938,-348 938,-362"/>
</g>
<!-- reaction_17_intermediate_p -->
<g id="node151" class="node"><title>reaction_17_intermediate_p</title>
<ellipse fill="black" stroke="black" cx="995" cy="-368" rx="0.036" ry="0.036"/>
</g>
<!-- reaction_17&#45;&gt;reaction_17_intermediate_p -->
<g id="edge178" class="edge"><title>reaction_17&#45;&gt;reaction_17_intermediate_p</title>
<path fill="none" stroke="black" d="M938.342,-356.491C954.627,-359.799 992.532,-367.499 994.885,-367.977"/>
</g>
<!-- reaction_17&#45;&gt;reaction_17_intermediate_m -->
<g id="edge184" class="edge"><title>reaction_17&#45;&gt;reaction_17_intermediate_m</title>
<path fill="none" stroke="black" d="M950.197,-351.101C968.319,-347.42 993.001,-342.406 994.885,-342.023"/>
<polygon fill="none" stroke="black" points="950.101,-351.12 945.018,-356.234 938.342,-353.509 943.425,-348.394 950.101,-351.12"/>
</g>
<!-- reaction_17_intermediate_r&#45;&gt;reaction_17 -->
<g id="edge174" class="edge"><title>reaction_17_intermediate_r&#45;&gt;reaction_17</title>
<path fill="none" stroke="black" d="M841.065,-352.002C843.311,-352.077 902.951,-354.065 923.848,-354.762"/>
</g>
<!-- reaction_17_intermediate_p&#45;&gt;species_1 -->
<g id="edge180" class="edge"><title>reaction_17_intermediate_p&#45;&gt;species_1</title>
<path fill="none" stroke="black" d="M994.938,-368.016C992.352,-368.682 909.059,-390 841,-390 603,-390 603,-390 603,-390 569.468,-390 532.603,-379.125 506.901,-369.676"/>
<polygon fill="black" stroke="black" points="507.881,-366.304 497.29,-366.017 505.39,-372.846 507.881,-366.304"/>
</g>
<!-- reaction_17_intermediate_p&#45;&gt;species_7 -->
<g id="edge182" class="edge"><title>reaction_17_intermediate_p&#45;&gt;species_7</title>
<path fill="none" stroke="black" d="M995.051,-368C996.231,-368 1017.8,-368 1036.68,-368"/>
<polygon fill="black" stroke="black" points="1036.74,-371.5 1046.74,-368 1036.74,-364.5 1036.74,-371.5"/>
</g>
<!-- reaction_18 -->
<g id="node158" class="node"><title>reaction_18</title>
<polygon fill="none" stroke="black" points="1186,-214 1172,-214 1172,-200 1186,-200 1186,-214"/>
</g>
<!-- reaction_18_intermediate_p -->
<g id="node162" class="node"><title>reaction_18_intermediate_p</title>
<ellipse fill="black" stroke="black" cx="1222" cy="-190" rx="0.036" ry="0.036"/>
</g>
<!-- reaction_18&#45;&gt;reaction_18_intermediate_p -->
<g id="edge192" class="edge"><title>reaction_18&#45;&gt;reaction_18_intermediate_p</title>
<path fill="none" stroke="black" d="M1186.1,-204.193C1197.93,-199.515 1220.53,-190.581 1221.93,-190.027"/>
</g>
<!-- reaction_18&#45;&gt;reaction_18_intermediate_m -->
<g id="edge196" class="edge"><title>reaction_18&#45;&gt;reaction_18_intermediate_m</title>
<path fill="none" stroke="black" d="M1197.57,-213.909C1208.71,-218.053 1220.91,-222.596 1221.93,-222.975"/>
<polygon fill="none" stroke="black" points="1197.35,-213.827 1190.33,-215.483 1186.1,-209.642 1193.12,-207.986 1197.35,-213.827"/>
</g>
<!-- reaction_18_intermediate_r&#45;&gt;reaction_18 -->
<g id="edge188" class="edge"><title>reaction_18_intermediate_r&#45;&gt;reaction_18</title>
<path fill="none" stroke="black" d="M1135.13,-209.991C1137.02,-209.862 1159.79,-208.309 1171.76,-207.494"/>
</g>
<!-- reaction_18_intermediate_p&#45;&gt;species_3 -->
<g id="edge194" class="edge"><title>reaction_18_intermediate_p&#45;&gt;species_3</title>
<path fill="none" stroke="black" d="M1221.87,-189.908C1219.14,-188.031 1174.91,-158 1135,-158 931,-158 931,-158 931,-158 855.01,-158 787.8,-230.283 757.724,-268.273"/>
<polygon fill="black" stroke="black" points="754.897,-266.207 751.549,-276.259 760.435,-270.489 754.897,-266.207"/>
</g>
</g>
</svg>
