<?xml version="1.0" encoding="UTF-8" standalone="no"?>
<!DOCTYPE svg PUBLIC "-//W3C//DTD SVG 1.1//EN"
 "http://www.w3.org/Graphics/SVG/1.1/DTD/svg11.dtd">
<!-- Generated by graphviz version 2.24.0 (20090616.2323)
 -->
<!-- Title: G Pages: 1 -->
<svg width="744pt" height="278pt"
 viewBox="0.00 0.00 744.00 278.00" xmlns="http://www.w3.org/2000/svg" xmlns:xlink="http://www.w3.org/1999/xlink">
<g id="graph1" class="graph" transform="scale(1 1) rotate(0) translate(4 274)">
<title>G</title>
<polygon fill="white" stroke="white" points="-4,5 -4,-274 741,-274 741,5 -4,5"/>
<!-- EC -->
<g id="node1" class="node"><title>EC</title>
<ellipse fill="none" stroke="black" cx="18" cy="-206" rx="18" ry="18"/>
<text text-anchor="middle" x="18" y="-203.5" font-family="Times Roman,serif" font-size="10.00">EC</text>
</g>
<!-- vin_intermediate_r -->
<g id="node7" class="node"><title>vin_intermediate_r</title>
<ellipse fill="black" stroke="black" cx="73" cy="-189" rx="0.036" ry="0.036"/>
</g>
<!-- EC&#45;&gt;vin_intermediate_r -->
<g id="edge4" class="edge"><title>EC&#45;&gt;vin_intermediate_r</title>
<path fill="none" stroke="black" d="M35.4023,-200.621C51.0121,-195.796 71.6625,-189.413 72.9379,-189.019"/>
</g>
<!-- Z -->
<g id="node2" class="node"><title>Z</title>
<ellipse fill="none" stroke="black" cx="256" cy="-167" rx="18" ry="18"/>
<text text-anchor="middle" x="256" y="-164.5" font-family="Times Roman,serif" font-size="10.00">Z</text>
</g>
<!-- v2_intermediate_r -->
<g id="node14" class="node"><title>v2_intermediate_r</title>
<ellipse fill="black" stroke="black" cx="311" cy="-161" rx="0.036" ry="0.036"/>
</g>
<!-- Z&#45;&gt;v2_intermediate_r -->
<g id="edge12" class="edge"><title>Z&#45;&gt;v2_intermediate_r</title>
<path fill="none" stroke="black" d="M274.009,-165.035C289.548,-163.34 309.695,-161.142 310.939,-161.007"/>
</g>
<!-- v5_intermediate_r -->
<g id="node38" class="node"><title>v5_intermediate_r</title>
<ellipse fill="black" stroke="black" cx="311" cy="-179" rx="0.036" ry="0.036"/>
</g>
<!-- Z&#45;&gt;v5_intermediate_r -->
<g id="edge40" class="edge"><title>Z&#45;&gt;v5_intermediate_r</title>
<path fill="none" stroke="black" d="M273.705,-170.863C289.281,-174.261 309.679,-178.712 310.939,-178.987"/>
</g>
<!-- v6_intermediate_m -->
<g id="node51" class="node"><title>v6_intermediate_m</title>
<ellipse fill="black" stroke="black" cx="311" cy="-102" rx="0.036" ry="0.036"/>
</g>
<!-- Z&#45;&gt;v6_intermediate_m -->
<g id="edge56" class="edge"><title>Z&#45;&gt;v6_intermediate_m</title>
<path fill="none" stroke="black" d="M267.664,-153.215C283.304,-134.731 309.311,-103.996 310.922,-102.093"/>
</g>
<!-- Rho -->
<g id="node3" class="node"><title>Rho</title>
<polyline fill="none" stroke="black" points="152,-56 122,-56 "/>
<path fill="none" stroke="black" d="M122,-56C116,-56 110,-50 110,-44"/>
<polyline fill="none" stroke="black" points="110,-44 110,-32 "/>
<path fill="none" stroke="black" d="M110,-32C110,-26 116,-20 122,-20"/>
<polyline fill="none" stroke="black" points="122,-20 152,-20 "/>
<path fill="none" stroke="black" d="M152,-20C158,-20 164,-26 164,-32"/>
<polyline fill="none" stroke="black" points="164,-32 164,-44 "/>
<path fill="none" stroke="black" d="M164,-44C164,-50 158,-56 152,-56"/>
<text text-anchor="middle" x="137" y="-35.5" font-family="Times Roman,serif" font-size="10.00">Rho</text>
</g>
<!-- v3_intermediate_m -->
<g id="node27" class="node"><title>v3_intermediate_m</title>
<ellipse fill="black" stroke="black" cx="736" cy="-56" rx="0.036" ry="0.036"/>
</g>
<!-- Rho&#45;&gt;v3_intermediate_m -->
<g id="edge28" class="edge"><title>Rho&#45;&gt;v3_intermediate_m</title>
<path fill="none" stroke="black" d="M164.108,-24.066C187.734,-13.2208 223.252,-0 256,-0 256,-0 256,-0 649,-0 693.547,-0 733.432,-52.5547 735.881,-55.8394"/>
</g>
<!-- v6_intermediate_r -->
<g id="node45" class="node"><title>v6_intermediate_r</title>
<ellipse fill="black" stroke="black" cx="201" cy="-75" rx="0.036" ry="0.036"/>
</g>
<!-- Rho&#45;&gt;v6_intermediate_r -->
<g id="edge48" class="edge"><title>Rho&#45;&gt;v6_intermediate_r</title>
<path fill="none" stroke="black" d="M164.142,-53.6913C181.04,-63.4605 199.788,-74.2996 200.944,-74.9675"/>
</g>
<!-- Y -->
<g id="node4" class="node"><title>Y</title>
<ellipse fill="none" stroke="black" cx="594" cy="-176" rx="18" ry="18"/>
<text text-anchor="middle" x="594" y="-173.5" font-family="Times Roman,serif" font-size="10.00">Y</text>
</g>
<!-- v3_intermediate_r -->
<g id="node21" class="node"><title>v3_intermediate_r</title>
<ellipse fill="black" stroke="black" cx="649" cy="-167" rx="0.036" ry="0.036"/>
</g>
<!-- Y&#45;&gt;v3_intermediate_r -->
<g id="edge20" class="edge"><title>Y&#45;&gt;v3_intermediate_r</title>
<path fill="none" stroke="black" d="M612.009,-173.053C627.548,-170.51 647.695,-167.213 648.939,-167.01"/>
</g>
<!-- v4_intermediate_r -->
<g id="node31" class="node"><title>v4_intermediate_r</title>
<ellipse fill="black" stroke="black" cx="649" cy="-195" rx="0.036" ry="0.036"/>
</g>
<!-- Y&#45;&gt;v4_intermediate_r -->
<g id="edge32" class="edge"><title>Y&#45;&gt;v4_intermediate_r</title>
<path fill="none" stroke="black" d="M611.101,-181.908C626.742,-187.311 647.646,-194.532 648.937,-194.978"/>
</g>
<!-- Fraction_Inactive_Channels -->
<g id="node5" class="node"><title>Fraction_Inactive_Channels</title>
<polyline fill="none" stroke="black" points="490,-102 360,-102 "/>
<path fill="none" stroke="black" d="M360,-102C354,-102 348,-96 348,-90"/>
<polyline fill="none" stroke="black" points="348,-90 348,-78 "/>
<path fill="none" stroke="black" d="M348,-78C348,-72 354,-66 360,-66"/>
<polyline fill="none" stroke="black" points="360,-66 490,-66 "/>
<path fill="none" stroke="black" d="M490,-66C496,-66 502,-72 502,-78"/>
<polyline fill="none" stroke="black" points="502,-78 502,-90 "/>
<path fill="none" stroke="black" d="M502,-90C502,-96 496,-102 490,-102"/>
<text text-anchor="middle" x="425" y="-81.5" font-family="Times Roman,serif" font-size="10.00">Fraction_Inactive_Channels</text>
</g>
<!-- v7_intermediate_r -->
<g id="node55" class="node"><title>v7_intermediate_r</title>
<ellipse fill="black" stroke="black" cx="539" cy="-81" rx="0.036" ry="0.036"/>
</g>
<!-- Fraction_Inactive_Channels&#45;&gt;v7_intermediate_r -->
<g id="edge60" class="edge"><title>Fraction_Inactive_Channels&#45;&gt;v7_intermediate_r</title>
<path fill="none" stroke="black" d="M502.302,-81.9657C521.998,-81.4474 537.973,-81.027 538.952,-81.0013"/>
</g>
<!-- vin -->
<g id="node6" class="node"><title>vin</title>
<polygon fill="none" stroke="black" points="144,-193 130,-193 130,-179 144,-179 144,-193"/>
</g>
<!-- vin_intermediate_p -->
<g id="node10" class="node"><title>vin_intermediate_p</title>
<ellipse fill="black" stroke="black" cx="201" cy="-179" rx="0.036" ry="0.036"/>
</g>
<!-- vin&#45;&gt;vin_intermediate_p -->
<g id="edge6" class="edge"><title>vin&#45;&gt;vin_intermediate_p</title>
<path fill="none" stroke="black" d="M144.342,-185.197C160.627,-183.416 198.532,-179.27 200.885,-179.013"/>
</g>
<!-- vin_intermediate_r&#45;&gt;vin -->
<g id="edge2" class="edge"><title>vin_intermediate_r&#45;&gt;vin</title>
<path fill="none" stroke="black" d="M73.0464,-188.998C74.5756,-188.926 113.51,-187.101 129.868,-186.334"/>
</g>
<!-- vin_intermediate_p&#45;&gt;Z -->
<g id="edge8" class="edge"><title>vin_intermediate_p&#45;&gt;Z</title>
<path fill="none" stroke="black" d="M201.158,-178.966C202.709,-178.627 215.448,-175.848 228.257,-173.053"/>
<polygon fill="black" stroke="black" points="229.309,-176.406 238.333,-170.855 227.817,-169.567 229.309,-176.406"/>
</g>
<!-- v2 -->
<g id="node13" class="node"><title>v2</title>
<polygon fill="none" stroke="black" points="432,-172 418,-172 418,-158 432,-158 432,-172"/>
</g>
<!-- v2_intermediate_p -->
<g id="node17" class="node"><title>v2_intermediate_p</title>
<ellipse fill="black" stroke="black" cx="539" cy="-170" rx="0.036" ry="0.036"/>
</g>
<!-- v2&#45;&gt;v2_intermediate_p -->
<g id="edge14" class="edge"><title>v2&#45;&gt;v2_intermediate_p</title>
<path fill="none" stroke="black" d="M432.131,-165.313C456.699,-166.39 536.454,-169.888 538.941,-169.997"/>
</g>
<!-- v2_intermediate_r&#45;&gt;v2 -->
<g id="edge10" class="edge"><title>v2_intermediate_r&#45;&gt;v2</title>
<path fill="none" stroke="black" d="M311.083,-161.003C313.995,-161.105 393.092,-163.88 417.739,-164.745"/>
</g>
<!-- v2_intermediate_p&#45;&gt;Y -->
<g id="edge16" class="edge"><title>v2_intermediate_p&#45;&gt;Y</title>
<path fill="none" stroke="black" d="M539.158,-170.017C540.699,-170.185 553.285,-171.558 566.011,-172.947"/>
<polygon fill="black" stroke="black" points="565.718,-176.435 576.039,-174.041 566.477,-169.477 565.718,-176.435"/>
</g>
<!-- v3 -->
<g id="node20" class="node"><title>v3</title>
<polygon fill="none" stroke="black" points="700,-102 686,-102 686,-88 700,-88 700,-102"/>
</g>
<!-- v3_intermediate_p -->
<g id="node24" class="node"><title>v3_intermediate_p</title>
<ellipse fill="black" stroke="black" cx="736" cy="-112" rx="0.036" ry="0.036"/>
</g>
<!-- v3&#45;&gt;v3_intermediate_p -->
<g id="edge22" class="edge"><title>v3&#45;&gt;v3_intermediate_p</title>
<path fill="none" stroke="black" d="M700.101,-97.8072C711.932,-102.485 734.531,-111.419 735.932,-111.973"/>
</g>
<!-- v3&#45;&gt;v3_intermediate_m -->
<g id="edge26" class="edge"><title>v3&#45;&gt;v3_intermediate_m</title>
<path fill="none" stroke="black" d="M709.076,-80.4193C720.805,-69.7818 734.837,-57.0546 735.932,-56.062"/>
<polygon fill="none" stroke="black" points="708.989,-80.4981 707.232,-87.4919 700.101,-88.5599 701.858,-81.5662 708.989,-80.4981"/>
</g>
<!-- v3_intermediate_r&#45;&gt;v3 -->
<g id="edge18" class="edge"><title>v3_intermediate_r&#45;&gt;v3</title>
<path fill="none" stroke="black" d="M649.032,-166.948C650.099,-165.202 677.652,-120.116 688.587,-102.221"/>
</g>
<!-- v3_intermediate_p&#45;&gt;Z -->
<g id="edge24" class="edge"><title>v3_intermediate_p&#45;&gt;Z</title>
<path fill="none" stroke="black" d="M735.862,-112.052C733.038,-113.107 687.252,-130 649,-130 425,-130 425,-130 425,-130 373.777,-130 315.8,-146.421 282.8,-157.384"/>
<polygon fill="black" stroke="black" points="281.339,-154.184 273.004,-160.723 283.598,-160.809 281.339,-154.184"/>
</g>
<!-- v4 -->
<g id="node30" class="node"><title>v4</title>
<polygon fill="none" stroke="black" points="700,-231 686,-231 686,-217 700,-217 700,-231"/>
</g>
<!-- v4_intermediate_p -->
<g id="node34" class="node"><title>v4_intermediate_p</title>
<ellipse fill="black" stroke="black" cx="736" cy="-247" rx="0.036" ry="0.036"/>
</g>
<!-- v4&#45;&gt;v4_intermediate_p -->
<g id="edge34" class="edge"><title>v4&#45;&gt;v4_intermediate_p</title>
<path fill="none" stroke="black" d="M700.101,-227.798C711.932,-234.126 734.531,-246.214 735.932,-246.963"/>
</g>
<!-- v4_intermediate_r&#45;&gt;v4 -->
<g id="edge30" class="edge"><title>v4_intermediate_r&#45;&gt;v4</title>
<path fill="none" stroke="black" d="M649.126,-195.083C651.022,-196.332 673.795,-211.342 685.759,-219.227"/>
</g>
<!-- v4_intermediate_p&#45;&gt;Z -->
<g id="edge36" class="edge"><title>v4_intermediate_p&#45;&gt;Z</title>
<path fill="none" stroke="black" d="M735.864,-247.066C733.069,-248.415 687.745,-270 649,-270 539,-270 539,-270 539,-270 437.535,-270 327.276,-210.811 279.863,-182.17"/>
<polygon fill="black" stroke="black" points="281.593,-179.125 271.24,-176.876 277.931,-185.091 281.593,-179.125"/>
</g>
<!-- v5 -->
<g id="node37" class="node"><title>v5</title>
<polygon fill="none" stroke="black" points="432,-204 418,-204 418,-190 432,-190 432,-204"/>
</g>
<!-- v5_intermediate_p -->
<g id="node41" class="node"><title>v5_intermediate_p</title>
<ellipse fill="black" stroke="black" cx="539" cy="-214" rx="0.036" ry="0.036"/>
</g>
<!-- v5&#45;&gt;v5_intermediate_p -->
<g id="edge42" class="edge"><title>v5&#45;&gt;v5_intermediate_p</title>
<path fill="none" stroke="black" d="M432.131,-198.063C456.699,-201.727 536.454,-213.62 538.941,-213.991"/>
</g>
<!-- v5_intermediate_r&#45;&gt;v5 -->
<g id="edge38" class="edge"><title>v5_intermediate_r&#45;&gt;v5</title>
<path fill="none" stroke="black" d="M311.083,-179.013C313.995,-179.473 393.092,-191.962 417.739,-195.854"/>
</g>
<!-- v5_intermediate_p&#45;&gt;EC -->
<g id="edge44" class="edge"><title>v5_intermediate_p&#45;&gt;EC</title>
<path fill="none" stroke="black" d="M538.886,-214.022C534.118,-214.961 380.553,-245 256,-245 137,-245 137,-245 137,-245 103.329,-245 66.8442,-230.726 43.2741,-219.449"/>
<polygon fill="black" stroke="black" points="44.5225,-216.161 34.0092,-214.85 41.41,-222.431 44.5225,-216.161"/>
</g>
<!-- v6 -->
<g id="node44" class="node"><title>v6</title>
<polygon fill="none" stroke="black" points="263,-91 249,-91 249,-77 263,-77 263,-91"/>
</g>
<!-- v6_intermediate_p -->
<g id="node48" class="node"><title>v6_intermediate_p</title>
<ellipse fill="black" stroke="black" cx="311" cy="-84" rx="0.036" ry="0.036"/>
</g>
<!-- v6&#45;&gt;v6_intermediate_p -->
<g id="edge50" class="edge"><title>v6&#45;&gt;v6_intermediate_p</title>
<path fill="none" stroke="black" d="M263.19,-84C277.633,-84 308.961,-84 310.905,-84"/>
</g>
<!-- v6&#45;&gt;v6_intermediate_m -->
<g id="edge54" class="edge"><title>v6&#45;&gt;v6_intermediate_m</title>
<path fill="none" stroke="black" d="M274.608,-90.0899C289.933,-95.1053 309.386,-101.472 310.905,-101.969"/>
<polygon fill="none" stroke="black" points="274.595,-90.0857 267.648,-92.021 263.19,-86.3532 270.137,-84.4179 274.595,-90.0857"/>
</g>
<!-- v6_intermediate_r&#45;&gt;v6 -->
<g id="edge46" class="edge"><title>v6_intermediate_r&#45;&gt;v6</title>
<path fill="none" stroke="black" d="M201.158,-75.0258C203.628,-75.43 234.463,-80.4758 248.781,-82.8188"/>
</g>
<!-- v6_intermediate_p&#45;&gt;Fraction_Inactive_Channels -->
<g id="edge52" class="edge"><title>v6_intermediate_p&#45;&gt;Fraction_Inactive_Channels</title>
<path fill="none" stroke="black" d="M311.083,-84C312.128,-84 322.986,-84 337.618,-84"/>
<polygon fill="black" stroke="black" points="337.713,-87.5001 347.713,-84 337.713,-80.5001 337.713,-87.5001"/>
</g>
<!-- v7 -->
<g id="node54" class="node"><title>v7</title>
<polygon fill="none" stroke="black" points="601,-85 587,-85 587,-71 601,-71 601,-85"/>
</g>
<!-- v7_intermediate_p -->
<g id="node58" class="node"><title>v7_intermediate_p</title>
<ellipse fill="black" stroke="black" cx="649" cy="-58" rx="0.036" ry="0.036"/>
</g>
<!-- v7&#45;&gt;v7_intermediate_p -->
<g id="edge62" class="edge"><title>v7&#45;&gt;v7_intermediate_p</title>
<path fill="none" stroke="black" d="M601.19,-75.3853C615.633,-70.1335 646.961,-58.7414 648.905,-58.0345"/>
</g>
<!-- v7_intermediate_r&#45;&gt;v7 -->
<g id="edge58" class="edge"><title>v7_intermediate_r&#45;&gt;v7</title>
<path fill="none" stroke="black" d="M539.158,-80.9914C541.628,-80.8567 572.463,-79.1747 586.781,-78.3937"/>
</g>
<!-- v7_intermediate_p&#45;&gt;Rho -->
<g id="edge64" class="edge"><title>v7_intermediate_p&#45;&gt;Rho</title>
<path fill="none" stroke="black" d="M648.956,-57.9855C647.118,-57.3799 587.914,-38 539,-38 256,-38 256,-38 256,-38 228.768,-38 198.03,-38 174.617,-38"/>
<polygon fill="black" stroke="black" points="174.414,-34.5001 164.414,-38 174.414,-41.5001 174.414,-34.5001"/>
</g>
</g>
</svg>
