<?xml version="1.0" encoding="UTF-8" standalone="no"?>
<!DOCTYPE svg PUBLIC "-//W3C//DTD SVG 1.1//EN"
 "http://www.w3.org/Graphics/SVG/1.1/DTD/svg11.dtd">
<!-- Generated by graphviz version 2.24.0 (20090616.2323)
 -->
<!-- Title: G Pages: 1 -->
<svg width="648pt" height="152pt"
 viewBox="0.00 0.00 648.00 152.00" xmlns="http://www.w3.org/2000/svg" xmlns:xlink="http://www.w3.org/1999/xlink">
<g id="graph1" class="graph" transform="scale(1 1) rotate(0) translate(4 148)">
<title>G</title>
<polygon fill="white" stroke="white" points="-4,5 -4,-148 645,-148 645,5 -4,5"/>
<!-- x -->
<g id="node1" class="node"><title>x</title>
<polyline fill="none" stroke="black" points="272,-90 242,-90 "/>
<path fill="none" stroke="black" d="M242,-90C236,-90 230,-84 230,-78"/>
<polyline fill="none" stroke="black" points="230,-78 230,-66 "/>
<path fill="none" stroke="black" d="M230,-66C230,-60 236,-54 242,-54"/>
<polyline fill="none" stroke="black" points="242,-54 272,-54 "/>
<path fill="none" stroke="black" d="M272,-54C278,-54 284,-60 284,-66"/>
<polyline fill="none" stroke="black" points="284,-66 284,-78 "/>
<path fill="none" stroke="black" d="M284,-78C284,-84 278,-90 272,-90"/>
<text text-anchor="middle" x="257" y="-69.5" font-family="Times Roman,serif" font-size="10.00">p53</text>
</g>
<!-- R2_intermediate_r -->
<g id="node10" class="node"><title>R2_intermediate_r</title>
<ellipse fill="black" stroke="black" cx="320" cy="-36" rx="0.036" ry="0.036"/>
</g>
<!-- x&#45;&gt;R2_intermediate_r -->
<g id="edge10" class="edge"><title>x&#45;&gt;R2_intermediate_r</title>
<path fill="none" stroke="black" d="M284.083,-56.5238C300.625,-47.0715 318.824,-36.6719 319.945,-36.0312"/>
</g>
<!-- R3_intermediate_r -->
<g id="node16" class="node"><title>R3_intermediate_r</title>
<ellipse fill="black" stroke="black" cx="320" cy="-72" rx="0.036" ry="0.036"/>
</g>
<!-- x&#45;&gt;R3_intermediate_r -->
<g id="edge16" class="edge"><title>x&#45;&gt;R3_intermediate_r</title>
<path fill="none" stroke="black" d="M284.083,-72C300.625,-72 318.824,-72 319.945,-72"/>
</g>
<!-- R4_intermediate_m -->
<g id="node30" class="node"><title>R4_intermediate_m</title>
<ellipse fill="black" stroke="black" cx="320" cy="-94" rx="0.036" ry="0.036"/>
</g>
<!-- x&#45;&gt;R4_intermediate_m -->
<g id="edge32" class="edge"><title>x&#45;&gt;R4_intermediate_m</title>
<path fill="none" stroke="black" d="M284.083,-81.4577C300.625,-87.2341 318.824,-93.5894 319.945,-93.9809"/>
</g>
<!-- y -->
<g id="node2" class="node"><title>y</title>
<polyline fill="none" stroke="black" points="398,-133 368,-133 "/>
<path fill="none" stroke="black" d="M368,-133C362,-133 356,-127 356,-121"/>
<polyline fill="none" stroke="black" points="356,-121 356,-109 "/>
<path fill="none" stroke="black" d="M356,-109C356,-103 362,-97 368,-97"/>
<polyline fill="none" stroke="black" points="368,-97 398,-97 "/>
<path fill="none" stroke="black" d="M398,-97C404,-97 410,-103 410,-109"/>
<polyline fill="none" stroke="black" points="410,-109 410,-121 "/>
<path fill="none" stroke="black" d="M410,-121C410,-127 404,-133 398,-133"/>
<text text-anchor="middle" x="383" y="-112.5" font-family="Times Roman,serif" font-size="10.00">Mdm2</text>
</g>
<!-- R3_intermediate_m -->
<g id="node21" class="node"><title>R3_intermediate_m</title>
<ellipse fill="black" stroke="black" cx="473" cy="-108" rx="0.036" ry="0.036"/>
</g>
<!-- y&#45;&gt;R3_intermediate_m -->
<g id="edge22" class="edge"><title>y&#45;&gt;R3_intermediate_m</title>
<path fill="none" stroke="black" d="M410.003,-112.9C435.685,-110.902 470.729,-108.177 472.895,-108.008"/>
</g>
<!-- R5_intermediate_r -->
<g id="node34" class="node"><title>R5_intermediate_r</title>
<ellipse fill="black" stroke="black" cx="473" cy="-126" rx="0.036" ry="0.036"/>
</g>
<!-- y&#45;&gt;R5_intermediate_r -->
<g id="edge36" class="edge"><title>y&#45;&gt;R5_intermediate_r</title>
<path fill="none" stroke="black" d="M410.003,-118.3C435.685,-121.439 470.729,-125.722 472.895,-125.987"/>
</g>
<!-- R1 -->
<g id="node3" class="node"><title>R1</title>
<polygon fill="none" stroke="black" points="104,-79 90,-79 90,-65 104,-65 104,-79"/>
</g>
<!-- R1_intermediate_p -->
<g id="node6" class="node"><title>R1_intermediate_p</title>
<ellipse fill="black" stroke="black" cx="167" cy="-72" rx="0.036" ry="0.036"/>
</g>
<!-- R1&#45;&gt;R1_intermediate_p -->
<g id="edge4" class="edge"><title>R1&#45;&gt;R1_intermediate_p</title>
<path fill="none" stroke="black" d="M104.228,-72C121.554,-72 164.221,-72 166.871,-72"/>
</g>
<!-- R1_empty -->
<g id="node4" class="node"><title>R1_empty</title>
<text text-anchor="middle" x="27" y="-67.5" font-family="Times Roman,serif" font-size="15.00" fill="blue">Ø</text>
</g>
<!-- R1_empty&#45;&gt;R1 -->
<g id="edge2" class="edge"><title>R1_empty&#45;&gt;R1</title>
<path fill="none" stroke="black" d="M54.2643,-72C67.1627,-72 81.5367,-72 89.8947,-72"/>
</g>
<!-- R1_intermediate_p&#45;&gt;x -->
<g id="edge6" class="edge"><title>R1_intermediate_p&#45;&gt;x</title>
<path fill="none" stroke="black" d="M167.065,-72C168.565,-72 195.648,-72 219.704,-72"/>
<polygon fill="black" stroke="black" points="219.745,-75.5001 229.745,-72 219.745,-68.5001 219.745,-75.5001"/>
</g>
<!-- R2 -->
<g id="node9" class="node"><title>R2</title>
<polygon fill="none" stroke="black" points="390,-36 376,-36 376,-22 390,-22 390,-36"/>
</g>
<!-- R2_empty -->
<g id="node13" class="node"><title>R2_empty</title>
<text text-anchor="middle" x="473" y="-13.5" font-family="Times Roman,serif" font-size="15.00" fill="blue">Ø</text>
</g>
<!-- R2&#45;&gt;R2_empty -->
<g id="edge12" class="edge"><title>R2&#45;&gt;R2_empty</title>
<path fill="none" stroke="black" d="M390.062,-28.1368C399.877,-26.9373 418.359,-24.6784 435.389,-22.5969"/>
<polygon fill="black" stroke="black" points="436.213,-26.0223 445.715,-21.3349 435.364,-19.074 436.213,-26.0223"/>
</g>
<!-- R2_intermediate_r&#45;&gt;R2 -->
<g id="edge8" class="edge"><title>R2_intermediate_r&#45;&gt;R2</title>
<path fill="none" stroke="black" d="M320.046,-35.9949C321.551,-35.8277 359.877,-31.5692 375.979,-29.7801"/>
</g>
<!-- R3 -->
<g id="node15" class="node"><title>R3</title>
<polygon fill="none" stroke="black" points="390,-79 376,-79 376,-65 390,-65 390,-79"/>
</g>
<!-- R3_empty -->
<g id="node19" class="node"><title>R3_empty</title>
<text text-anchor="middle" x="473" y="-67.5" font-family="Times Roman,serif" font-size="15.00" fill="blue">Ø</text>
</g>
<!-- R3&#45;&gt;R3_empty -->
<g id="edge18" class="edge"><title>R3&#45;&gt;R3_empty</title>
<path fill="none" stroke="black" d="M390.062,-72C399.877,-72 418.359,-72 435.389,-72"/>
<polygon fill="black" stroke="black" points="435.715,-75.5001 445.715,-72 435.715,-68.5001 435.715,-75.5001"/>
</g>
<!-- R3&#45;&gt;R3_intermediate_m -->
<g id="edge20" class="edge"><title>R3&#45;&gt;R3_intermediate_m</title>
<path fill="none" stroke="black" d="M401.425,-80.3762C413.899,-85.9279 430.81,-93.2249 446,-99 457.454,-103.355 472.055,-107.718 472.956,-107.987"/>
<polygon fill="none" stroke="black" points="401.231,-80.2889 394.118,-81.4711 390.29,-75.3594 397.404,-74.1772 401.231,-80.2889"/>
</g>
<!-- R3_intermediate_r&#45;&gt;R3 -->
<g id="edge14" class="edge"><title>R3_intermediate_r&#45;&gt;R3</title>
<path fill="none" stroke="black" d="M320.046,-72C321.551,-72 359.877,-72 375.979,-72"/>
</g>
<!-- R4 -->
<g id="node24" class="node"><title>R4</title>
<polygon fill="none" stroke="black" points="264,-122 250,-122 250,-108 264,-108 264,-122"/>
</g>
<!-- R4_intermediate_p -->
<g id="node27" class="node"><title>R4_intermediate_p</title>
<ellipse fill="black" stroke="black" cx="320" cy="-115" rx="0.036" ry="0.036"/>
</g>
<!-- R4&#45;&gt;R4_intermediate_p -->
<g id="edge26" class="edge"><title>R4&#45;&gt;R4_intermediate_p</title>
<path fill="none" stroke="black" d="M264.227,-115C280.258,-115 317.571,-115 319.887,-115"/>
</g>
<!-- R4&#45;&gt;R4_intermediate_m -->
<g id="edge30" class="edge"><title>R4&#45;&gt;R4_intermediate_m</title>
<path fill="none" stroke="black" d="M275.636,-108.788C293.498,-102.834 318.023,-94.659 319.887,-94.0377"/>
<polygon fill="none" stroke="black" points="275.611,-108.796 271.184,-114.488 264.227,-112.591 268.654,-106.899 275.611,-108.796"/>
</g>
<!-- R4_empty -->
<g id="node25" class="node"><title>R4_empty</title>
<text text-anchor="middle" x="167" y="-110.5" font-family="Times Roman,serif" font-size="15.00" fill="blue">Ø</text>
</g>
<!-- R4_empty&#45;&gt;R4 -->
<g id="edge24" class="edge"><title>R4_empty&#45;&gt;R4</title>
<path fill="none" stroke="black" d="M194.003,-115C213.264,-115 237.792,-115 249.766,-115"/>
</g>
<!-- R4_intermediate_p&#45;&gt;y -->
<g id="edge28" class="edge"><title>R4_intermediate_p&#45;&gt;y</title>
<path fill="none" stroke="black" d="M320.046,-115C320.865,-115 332.597,-115 345.716,-115"/>
<polygon fill="black" stroke="black" points="345.86,-118.5 355.86,-115 345.859,-111.5 345.86,-118.5"/>
</g>
<!-- R5 -->
<g id="node33" class="node"><title>R5</title>
<polygon fill="none" stroke="black" points="550,-133 536,-133 536,-119 550,-119 550,-133"/>
</g>
<!-- R5_empty -->
<g id="node37" class="node"><title>R5_empty</title>
<text text-anchor="middle" x="613" y="-121.5" font-family="Times Roman,serif" font-size="15.00" fill="blue">Ø</text>
</g>
<!-- R5&#45;&gt;R5_empty -->
<g id="edge38" class="edge"><title>R5&#45;&gt;R5_empty</title>
<path fill="none" stroke="black" d="M550.228,-126C556.45,-126 565.94,-126 575.672,-126"/>
<polygon fill="black" stroke="black" points="575.773,-129.5 585.773,-126 575.773,-122.5 575.773,-129.5"/>
</g>
<!-- R5_intermediate_r&#45;&gt;R5 -->
<g id="edge34" class="edge"><title>R5_intermediate_r&#45;&gt;R5</title>
<path fill="none" stroke="black" d="M473.051,-126C474.748,-126 518.582,-126 535.98,-126"/>
</g>
</g>
</svg>
