<?xml version="1.0" encoding="UTF-8" standalone="no"?>
<!DOCTYPE svg PUBLIC "-//W3C//DTD SVG 1.1//EN"
 "http://www.w3.org/Graphics/SVG/1.1/DTD/svg11.dtd">
<!-- Generated by graphviz version 2.24.0 (20090616.2323)
 -->
<!-- Title: G Pages: 1 -->
<svg width="1956pt" height="460pt"
 viewBox="0.00 0.00 1956.00 460.00" xmlns="http://www.w3.org/2000/svg" xmlns:xlink="http://www.w3.org/1999/xlink">
<g id="graph1" class="graph" transform="scale(1 1) rotate(0) translate(4 456)">
<title>G</title>
<polygon fill="white" stroke="white" points="-4,5 -4,-456 1953,-456 1953,5 -4,5"/>
<!-- M_T -->
<g id="node1" class="node"><title>M_T</title>
<ellipse fill="none" stroke="black" cx="284" cy="-340" rx="41.8599" ry="18"/>
<text text-anchor="middle" x="284" y="-337.5" font-family="Times Roman,serif" font-size="10.00">tim mRNA</text>
</g>
<!-- M_T_decay_intermediate_r -->
<g id="node32" class="node"><title>M_T_decay_intermediate_r</title>
<ellipse fill="black" stroke="black" cx="363" cy="-340" rx="0.036" ry="0.036"/>
</g>
<!-- M_T&#45;&gt;M_T_decay_intermediate_r -->
<g id="edge24" class="edge"><title>M_T&#45;&gt;M_T_decay_intermediate_r</title>
<path fill="none" stroke="black" d="M326.275,-340C344.471,-340 361.878,-340 362.948,-340"/>
</g>
<!-- TIM_transl_intermediate_m -->
<g id="node58" class="node"><title>TIM_transl_intermediate_m</title>
<ellipse fill="black" stroke="black" cx="363" cy="-319" rx="0.036" ry="0.036"/>
</g>
<!-- M_T&#45;&gt;TIM_transl_intermediate_m -->
<g id="edge52" class="edge"><title>M_T&#45;&gt;TIM_transl_intermediate_m</title>
<path fill="none" stroke="black" d="M319.802,-330.483C340.051,-325.1 361.608,-319.37 362.935,-319.017"/>
</g>
<!-- M_P -->
<g id="node2" class="node"><title>M_P</title>
<ellipse fill="none" stroke="black" cx="284" cy="-47" rx="41.2443" ry="18"/>
<text text-anchor="middle" x="284" y="-44.5" font-family="Times Roman,serif" font-size="10.00">per mRNA</text>
</g>
<!-- M_P_decay_intermediate_r -->
<g id="node38" class="node"><title>M_P_decay_intermediate_r</title>
<ellipse fill="black" stroke="black" cx="363" cy="-47" rx="0.036" ry="0.036"/>
</g>
<!-- M_P&#45;&gt;M_P_decay_intermediate_r -->
<g id="edge30" class="edge"><title>M_P&#45;&gt;M_P_decay_intermediate_r</title>
<path fill="none" stroke="black" d="M325.351,-47C343.868,-47 361.841,-47 362.946,-47"/>
</g>
<!-- PER_transl_intermediate_m -->
<g id="node49" class="node"><title>PER_transl_intermediate_m</title>
<ellipse fill="black" stroke="black" cx="363" cy="-71" rx="0.036" ry="0.036"/>
</g>
<!-- M_P&#45;&gt;PER_transl_intermediate_m -->
<g id="edge42" class="edge"><title>M_P&#45;&gt;PER_transl_intermediate_m</title>
<path fill="none" stroke="black" d="M317.962,-57.3174C338.704,-63.619 361.525,-70.552 362.932,-70.9792"/>
</g>
<!-- T0 -->
<g id="node3" class="node"><title>T0</title>
<polyline fill="none" stroke="black" points="442,-315 412,-315 "/>
<path fill="none" stroke="black" d="M412,-315C406,-315 400,-309 400,-303"/>
<polyline fill="none" stroke="black" points="400,-303 400,-291 "/>
<path fill="none" stroke="black" d="M400,-291C400,-285 406,-279 412,-279"/>
<polyline fill="none" stroke="black" points="412,-279 442,-279 "/>
<path fill="none" stroke="black" d="M442,-279C448,-279 454,-285 454,-291"/>
<polyline fill="none" stroke="black" points="454,-291 454,-303 "/>
<path fill="none" stroke="black" d="M454,-303C454,-309 448,-315 442,-315"/>
<text text-anchor="middle" x="427" y="-294.5" font-family="Times Roman,serif" font-size="10.00">TIM</text>
</g>
<!-- T0_decay_intermediate_r -->
<g id="node80" class="node"><title>T0_decay_intermediate_r</title>
<ellipse fill="black" stroke="black" cx="517" cy="-315" rx="0.036" ry="0.036"/>
</g>
<!-- T0&#45;&gt;T0_decay_intermediate_r -->
<g id="edge74" class="edge"><title>T0&#45;&gt;T0_decay_intermediate_r</title>
<path fill="none" stroke="black" d="M454.003,-302.401C479.685,-307.537 514.729,-314.546 516.895,-314.979"/>
</g>
<!-- T_pho_intermediate_r -->
<g id="node153" class="node"><title>T_pho_intermediate_r</title>
<ellipse fill="black" stroke="black" cx="517" cy="-297" rx="0.036" ry="0.036"/>
</g>
<!-- T0&#45;&gt;T_pho_intermediate_r -->
<g id="edge154" class="edge"><title>T0&#45;&gt;T_pho_intermediate_r</title>
<path fill="none" stroke="black" d="M454.003,-297C479.685,-297 514.729,-297 516.895,-297"/>
</g>
<!-- T1 -->
<g id="node4" class="node"><title>T1</title>
<ellipse fill="none" stroke="black" cx="738" cy="-332" rx="18" ry="18"/>
<text text-anchor="middle" x="738" y="-329.5" font-family="Times Roman,serif" font-size="10.00">TIM&#45;p</text>
</g>
<!-- T1_decay_intermediate_r -->
<g id="node86" class="node"><title>T1_decay_intermediate_r</title>
<ellipse fill="black" stroke="black" cx="793" cy="-357" rx="0.036" ry="0.036"/>
</g>
<!-- T1&#45;&gt;T1_decay_intermediate_r -->
<g id="edge80" class="edge"><title>T1&#45;&gt;T1_decay_intermediate_r</title>
<path fill="none" stroke="black" d="M754.502,-339.501C770.196,-346.635 791.612,-356.369 792.936,-356.971"/>
</g>
<!-- T1_pho_intermediate_r -->
<g id="node160" class="node"><title>T1_pho_intermediate_r</title>
<ellipse fill="black" stroke="black" cx="793" cy="-332" rx="0.036" ry="0.036"/>
</g>
<!-- T1&#45;&gt;T1_pho_intermediate_r -->
<g id="edge162" class="edge"><title>T1&#45;&gt;T1_pho_intermediate_r</title>
<path fill="none" stroke="black" d="M756.009,-332C771.548,-332 791.695,-332 792.939,-332"/>
</g>
<!-- T1_depho_intermediate_r -->
<g id="node167" class="node"><title>T1_depho_intermediate_r</title>
<ellipse fill="black" stroke="black" cx="793" cy="-307" rx="0.036" ry="0.036"/>
</g>
<!-- T1&#45;&gt;T1_depho_intermediate_r -->
<g id="edge170" class="edge"><title>T1&#45;&gt;T1_depho_intermediate_r</title>
<path fill="none" stroke="black" d="M754.502,-324.499C770.196,-317.365 791.612,-307.631 792.936,-307.029"/>
</g>
<!-- T2 -->
<g id="node5" class="node"><title>T2</title>
<polyline fill="none" stroke="black" points="1018,-337 988,-337 "/>
<path fill="none" stroke="black" d="M988,-337C982,-337 976,-331 976,-325"/>
<polyline fill="none" stroke="black" points="976,-325 976,-313 "/>
<path fill="none" stroke="black" d="M976,-313C976,-307 982,-301 988,-301"/>
<polyline fill="none" stroke="black" points="988,-301 1018,-301 "/>
<path fill="none" stroke="black" d="M1018,-301C1024,-301 1030,-307 1030,-313"/>
<polyline fill="none" stroke="black" points="1030,-313 1030,-325 "/>
<path fill="none" stroke="black" d="M1030,-325C1030,-331 1024,-337 1018,-337"/>
<text text-anchor="middle" x="1003" y="-316.5" font-family="Times Roman,serif" font-size="10.00">TIM&#45;pp</text>
</g>
<!-- T2_decay_intermediate_r -->
<g id="node92" class="node"><title>T2_decay_intermediate_r</title>
<ellipse fill="black" stroke="black" cx="1073" cy="-319" rx="0.036" ry="0.036"/>
</g>
<!-- T2&#45;&gt;T2_decay_intermediate_r -->
<g id="edge86" class="edge"><title>T2&#45;&gt;T2_decay_intermediate_r</title>
<path fill="none" stroke="black" d="M1030.26,-319C1049.3,-319 1071.56,-319 1072.93,-319"/>
</g>
<!-- C_form_intermediate_r -->
<g id="node98" class="node"><title>C_form_intermediate_r</title>
<ellipse fill="black" stroke="black" cx="1073" cy="-181" rx="0.036" ry="0.036"/>
</g>
<!-- T2&#45;&gt;C_form_intermediate_r -->
<g id="edge94" class="edge"><title>T2&#45;&gt;C_form_intermediate_r</title>
<path fill="none" stroke="black" d="M1012.15,-300.959C1030.83,-264.137 1071.7,-183.569 1072.97,-181.06"/>
</g>
<!-- T2_depho_intermediate_r -->
<g id="node174" class="node"><title>T2_depho_intermediate_r</title>
<ellipse fill="black" stroke="black" cx="1073" cy="-351" rx="0.036" ry="0.036"/>
</g>
<!-- T2&#45;&gt;T2_depho_intermediate_r -->
<g id="edge178" class="edge"><title>T2&#45;&gt;T2_depho_intermediate_r</title>
<path fill="none" stroke="black" d="M1030.26,-331.464C1049.3,-340.168 1071.56,-350.342 1072.93,-350.969"/>
</g>
<!-- T2_light_deact_intermediate_r -->
<g id="node181" class="node"><title>T2_light_deact_intermediate_r</title>
<ellipse fill="black" stroke="black" cx="1073" cy="-370" rx="0.036" ry="0.036"/>
</g>
<!-- T2&#45;&gt;T2_light_deact_intermediate_r -->
<g id="edge186" class="edge"><title>T2&#45;&gt;T2_light_deact_intermediate_r</title>
<path fill="none" stroke="black" d="M1027.88,-337.124C1047.37,-351.325 1071.44,-368.865 1072.93,-369.947"/>
</g>
<!-- P0 -->
<g id="node6" class="node"><title>P0</title>
<polyline fill="none" stroke="black" points="442,-119 412,-119 "/>
<path fill="none" stroke="black" d="M412,-119C406,-119 400,-113 400,-107"/>
<polyline fill="none" stroke="black" points="400,-107 400,-95 "/>
<path fill="none" stroke="black" d="M400,-95C400,-89 406,-83 412,-83"/>
<polyline fill="none" stroke="black" points="412,-83 442,-83 "/>
<path fill="none" stroke="black" d="M442,-83C448,-83 454,-89 454,-95"/>
<polyline fill="none" stroke="black" points="454,-95 454,-107 "/>
<path fill="none" stroke="black" d="M454,-107C454,-113 448,-119 442,-119"/>
<text text-anchor="middle" x="427" y="-98.5" font-family="Times Roman,serif" font-size="10.00">PER</text>
</g>
<!-- PO_decay_intermediate_r -->
<g id="node62" class="node"><title>PO_decay_intermediate_r</title>
<ellipse fill="black" stroke="black" cx="517" cy="-83" rx="0.036" ry="0.036"/>
</g>
<!-- P0&#45;&gt;PO_decay_intermediate_r -->
<g id="edge56" class="edge"><title>P0&#45;&gt;PO_decay_intermediate_r</title>
<path fill="none" stroke="black" d="M454.003,-95.5994C479.685,-90.4631 514.729,-83.4541 516.895,-83.0211"/>
</g>
<!-- P_pho_intermediate_r -->
<g id="node125" class="node"><title>P_pho_intermediate_r</title>
<ellipse fill="black" stroke="black" cx="517" cy="-102" rx="0.036" ry="0.036"/>
</g>
<!-- P0&#45;&gt;P_pho_intermediate_r -->
<g id="edge122" class="edge"><title>P0&#45;&gt;P_pho_intermediate_r</title>
<path fill="none" stroke="black" d="M454.003,-101.3C479.685,-101.585 514.729,-101.975 516.895,-101.999"/>
</g>
<!-- P1 -->
<g id="node7" class="node"><title>P1</title>
<ellipse fill="none" stroke="black" cx="738" cy="-102" rx="18" ry="18"/>
<text text-anchor="middle" x="738" y="-99.5" font-family="Times Roman,serif" font-size="10.00">PER&#45;p</text>
</g>
<!-- P1_decay_intermediate_r -->
<g id="node68" class="node"><title>P1_decay_intermediate_r</title>
<ellipse fill="black" stroke="black" cx="793" cy="-91" rx="0.036" ry="0.036"/>
</g>
<!-- P1&#45;&gt;P1_decay_intermediate_r -->
<g id="edge62" class="edge"><title>P1&#45;&gt;P1_decay_intermediate_r</title>
<path fill="none" stroke="black" d="M755.705,-98.459C771.281,-95.3438 791.679,-91.2642 792.939,-91.0123"/>
</g>
<!-- P1_pho_intermediate_r -->
<g id="node132" class="node"><title>P1_pho_intermediate_r</title>
<ellipse fill="black" stroke="black" cx="793" cy="-129" rx="0.036" ry="0.036"/>
</g>
<!-- P1&#45;&gt;P1_pho_intermediate_r -->
<g id="edge130" class="edge"><title>P1&#45;&gt;P1_pho_intermediate_r</title>
<path fill="none" stroke="black" d="M754.204,-109.955C769.921,-117.67 791.595,-128.31 792.935,-128.968"/>
</g>
<!-- P1_depho_intermediate_r -->
<g id="node139" class="node"><title>P1_depho_intermediate_r</title>
<ellipse fill="black" stroke="black" cx="793" cy="-111" rx="0.036" ry="0.036"/>
</g>
<!-- P1&#45;&gt;P1_depho_intermediate_r -->
<g id="edge138" class="edge"><title>P1&#45;&gt;P1_depho_intermediate_r</title>
<path fill="none" stroke="black" d="M756.009,-104.947C771.548,-107.49 791.695,-110.787 792.939,-110.99"/>
</g>
<!-- P2 -->
<g id="node8" class="node"><title>P2</title>
<ellipse fill="none" stroke="black" cx="1003" cy="-145" rx="32.1242" ry="18"/>
<text text-anchor="middle" x="1003" y="-142.5" font-family="Times Roman,serif" font-size="10.00">PER&#45;pp</text>
</g>
<!-- P2_decay_intermediate_r -->
<g id="node74" class="node"><title>P2_decay_intermediate_r</title>
<ellipse fill="black" stroke="black" cx="1073" cy="-145" rx="0.036" ry="0.036"/>
</g>
<!-- P2&#45;&gt;P2_decay_intermediate_r -->
<g id="edge68" class="edge"><title>P2&#45;&gt;P2_decay_intermediate_r</title>
<path fill="none" stroke="black" d="M1035.54,-145C1053.25,-145 1071.8,-145 1072.94,-145"/>
</g>
<!-- P2&#45;&gt;C_form_intermediate_r -->
<g id="edge92" class="edge"><title>P2&#45;&gt;C_form_intermediate_r</title>
<path fill="none" stroke="black" d="M1027.09,-157.389C1046.71,-167.477 1071.4,-180.178 1072.93,-180.962"/>
</g>
<!-- P2_depho_intermediate_r -->
<g id="node146" class="node"><title>P2_depho_intermediate_r</title>
<ellipse fill="black" stroke="black" cx="1073" cy="-116" rx="0.036" ry="0.036"/>
</g>
<!-- P2&#45;&gt;P2_depho_intermediate_r -->
<g id="edge146" class="edge"><title>P2&#45;&gt;P2_depho_intermediate_r</title>
<path fill="none" stroke="black" d="M1029.07,-134.201C1048.35,-126.214 1071.5,-116.621 1072.93,-116.029"/>
</g>
<!-- P2_light_deact_intermediate_r -->
<g id="node187" class="node"><title>P2_light_deact_intermediate_r</title>
<ellipse fill="black" stroke="black" cx="1073" cy="-95" rx="0.036" ry="0.036"/>
</g>
<!-- P2&#45;&gt;P2_light_deact_intermediate_r -->
<g id="edge192" class="edge"><title>P2&#45;&gt;P2_light_deact_intermediate_r</title>
<path fill="none" stroke="black" d="M1023.25,-130.538C1043.27,-116.232 1071.19,-96.2923 1072.92,-95.06"/>
</g>
<!-- C -->
<g id="node9" class="node"><title>C</title>
<polyline fill="none" stroke="black" points="1400,-199 1262,-199 "/>
<path fill="none" stroke="black" d="M1262,-199C1256,-199 1250,-193 1250,-187"/>
<polyline fill="none" stroke="black" points="1250,-187 1250,-175 "/>
<path fill="none" stroke="black" d="M1250,-175C1250,-169 1256,-163 1262,-163"/>
<polyline fill="none" stroke="black" points="1262,-163 1400,-163 "/>
<path fill="none" stroke="black" d="M1400,-163C1406,-163 1412,-169 1412,-175"/>
<polyline fill="none" stroke="black" points="1412,-175 1412,-187 "/>
<path fill="none" stroke="black" d="M1412,-187C1412,-193 1406,-199 1400,-199"/>
<text text-anchor="middle" x="1331" y="-178.5" font-family="Times Roman,serif" font-size="10.00">PER_TIM complex cytoplasm</text>
</g>
<!-- C_decay_intermediate_r -->
<g id="node106" class="node"><title>C_decay_intermediate_r</title>
<ellipse fill="black" stroke="black" cx="1449" cy="-181" rx="0.036" ry="0.036"/>
</g>
<!-- C&#45;&gt;C_decay_intermediate_r -->
<g id="edge102" class="edge"><title>C&#45;&gt;C_decay_intermediate_r</title>
<path fill="none" stroke="black" d="M1412.31,-181C1432.11,-181 1447.98,-181 1448.95,-181"/>
</g>
<!-- C_transp_intermediate_r -->
<g id="node118" class="node"><title>C_transp_intermediate_r</title>
<ellipse fill="black" stroke="black" cx="1449" cy="-155" rx="0.036" ry="0.036"/>
</g>
<!-- C&#45;&gt;C_transp_intermediate_r -->
<g id="edge114" class="edge"><title>C&#45;&gt;C_transp_intermediate_r</title>
<path fill="none" stroke="black" d="M1422.12,-160.923C1437.13,-157.616 1448.15,-155.188 1448.95,-155.01"/>
<polygon fill="black" stroke="black" points="1421.32,-157.514 1412.31,-163.084 1422.83,-164.35 1421.32,-157.514"/>
</g>
<!-- CN -->
<g id="node10" class="node"><title>CN</title>
<polyline fill="none" stroke="black" points="1760,-163 1638,-163 "/>
<path fill="none" stroke="black" d="M1638,-163C1632,-163 1626,-157 1626,-151"/>
<polyline fill="none" stroke="black" points="1626,-151 1626,-139 "/>
<path fill="none" stroke="black" d="M1626,-139C1626,-133 1632,-127 1638,-127"/>
<polyline fill="none" stroke="black" points="1638,-127 1760,-127 "/>
<path fill="none" stroke="black" d="M1760,-127C1766,-127 1772,-133 1772,-139"/>
<polyline fill="none" stroke="black" points="1772,-139 1772,-151 "/>
<path fill="none" stroke="black" d="M1772,-151C1772,-157 1766,-163 1760,-163"/>
<text text-anchor="middle" x="1699" y="-142.5" font-family="Times Roman,serif" font-size="10.00">PER_TIM complex nuclear</text>
</g>
<!-- per_trans_intermediate_m -->
<g id="node19" class="node"><title>per_trans_intermediate_m</title>
<ellipse fill="black" stroke="black" cx="1808" cy="-64" rx="0.036" ry="0.036"/>
</g>
<!-- CN&#45;&gt;per_trans_intermediate_m -->
<g id="edge10" class="edge"><title>CN&#45;&gt;per_trans_intermediate_m</title>
<path fill="none" stroke="black" d="M1723.46,-126.822C1754.59,-103.687 1804.74,-66.4191 1807.85,-64.1124"/>
</g>
<!-- tim_trans_intermediate_m -->
<g id="node28" class="node"><title>tim_trans_intermediate_m</title>
<ellipse fill="black" stroke="black" cx="1808" cy="-195" rx="0.036" ry="0.036"/>
</g>
<!-- CN&#45;&gt;tim_trans_intermediate_m -->
<g id="edge20" class="edge"><title>CN&#45;&gt;tim_trans_intermediate_m</title>
<path fill="none" stroke="black" d="M1738.35,-163.051C1768.6,-176.925 1805.61,-193.902 1807.89,-194.949"/>
</g>
<!-- CN_decay_intermediate_r -->
<g id="node112" class="node"><title>CN_decay_intermediate_r</title>
<ellipse fill="black" stroke="black" cx="1808" cy="-145" rx="0.036" ry="0.036"/>
</g>
<!-- CN&#45;&gt;CN_decay_intermediate_r -->
<g id="edge108" class="edge"><title>CN&#45;&gt;CN_decay_intermediate_r</title>
<path fill="none" stroke="black" d="M1772.01,-145C1791.24,-145 1806.99,-145 1807.95,-145"/>
</g>
<!-- Tt -->
<g id="node11" class="node"><title>Tt</title>
<polyline fill="none" stroke="black" points="52,-353 14,-353 "/>
<path fill="none" stroke="black" d="M14,-353C8,-353 2,-347 2,-341"/>
<polyline fill="none" stroke="black" points="2,-341 2,-329 "/>
<path fill="none" stroke="black" d="M2,-329C2,-323 8,-317 14,-317"/>
<polyline fill="none" stroke="black" points="14,-317 52,-317 "/>
<path fill="none" stroke="black" d="M52,-317C58,-317 64,-323 64,-329"/>
<polyline fill="none" stroke="black" points="64,-329 64,-341 "/>
<path fill="none" stroke="black" d="M64,-341C64,-347 58,-353 52,-353"/>
<text text-anchor="middle" x="33" y="-332.5" font-family="Times Roman,serif" font-size="10.00">total TIM</text>
</g>
<!-- Pt -->
<g id="node12" class="node"><title>Pt</title>
<polyline fill="none" stroke="black" points="53,-407 13,-407 "/>
<path fill="none" stroke="black" d="M13,-407C7,-407 1,-401 1,-395"/>
<polyline fill="none" stroke="black" points="1,-395 1,-383 "/>
<path fill="none" stroke="black" d="M1,-383C1,-377 7,-371 13,-371"/>
<polyline fill="none" stroke="black" points="13,-371 53,-371 "/>
<path fill="none" stroke="black" d="M53,-371C59,-371 65,-377 65,-383"/>
<polyline fill="none" stroke="black" points="65,-383 65,-395 "/>
<path fill="none" stroke="black" d="M65,-395C65,-401 59,-407 53,-407"/>
<text text-anchor="middle" x="33" y="-386.5" font-family="Times Roman,serif" font-size="10.00">total PER</text>
</g>
<!-- per_trans -->
<g id="node13" class="node"><title>per_trans</title>
<polygon fill="none" stroke="black" points="116,-26 102,-26 102,-12 116,-12 116,-26"/>
</g>
<!-- per_trans_intermediate_p -->
<g id="node16" class="node"><title>per_trans_intermediate_p</title>
<ellipse fill="black" stroke="black" cx="179" cy="-37" rx="0.036" ry="0.036"/>
</g>
<!-- per_trans&#45;&gt;per_trans_intermediate_p -->
<g id="edge4" class="edge"><title>per_trans&#45;&gt;per_trans_intermediate_p</title>
<path fill="none" stroke="black" d="M116.228,-20.8585C133.554,-25.3138 176.221,-36.2854 178.871,-36.9667"/>
</g>
<!-- per_trans&#45;&gt;per_trans_intermediate_m -->
<g id="edge8" class="edge"><title>per_trans&#45;&gt;per_trans_intermediate_m</title>
<path fill="none" stroke="black" d="M128.133,-15.5517C160.236,-10.0747 227.031,-0 284,-0 284,-0 284,-0 1563,-0 1673.78,-0 1803.87,-62.0156 1807.9,-63.9536"/>
<polygon fill="none" stroke="black" points="128.123,-15.5534 122.907,-20.5329 116.305,-17.6336 121.52,-12.654 128.123,-15.5534"/>
</g>
<!-- per_trans_empty -->
<g id="node14" class="node"><title>per_trans_empty</title>
<text text-anchor="middle" x="33" y="-14.5" font-family="Times Roman,serif" font-size="15.00" fill="blue">Ø</text>
</g>
<!-- per_trans_empty&#45;&gt;per_trans -->
<g id="edge2" class="edge"><title>per_trans_empty&#45;&gt;per_trans</title>
<path fill="none" stroke="black" d="M60.0087,-19C74.8562,-19 92.1532,-19 101.711,-19"/>
</g>
<!-- per_trans_intermediate_p&#45;&gt;M_P -->
<g id="edge6" class="edge"><title>per_trans_intermediate_p&#45;&gt;M_P</title>
<path fill="none" stroke="black" d="M179.076,-37.0072C180.682,-37.1602 207.445,-39.7091 233.537,-42.194"/>
<polygon fill="black" stroke="black" points="233.544,-45.7104 243.831,-43.1744 234.208,-38.742 233.544,-45.7104"/>
</g>
<!-- tim_trans -->
<g id="node22" class="node"><title>tim_trans</title>
<polygon fill="none" stroke="black" points="116,-288 102,-288 102,-274 116,-274 116,-288"/>
</g>
<!-- tim_trans_intermediate_p -->
<g id="node25" class="node"><title>tim_trans_intermediate_p</title>
<ellipse fill="black" stroke="black" cx="179" cy="-336" rx="0.036" ry="0.036"/>
</g>
<!-- tim_trans&#45;&gt;tim_trans_intermediate_p -->
<g id="edge14" class="edge"><title>tim_trans&#45;&gt;tim_trans_intermediate_p</title>
<path fill="none" stroke="black" d="M114.748,-288.208C122.434,-297.473 136.857,-313.6 152,-324 162.486,-331.202 177.994,-335.712 178.953,-335.987"/>
</g>
<!-- tim_trans&#45;&gt;tim_trans_intermediate_m -->
<g id="edge18" class="edge"><title>tim_trans&#45;&gt;tim_trans_intermediate_m</title>
<path fill="none" stroke="black" d="M126.787,-271.615C157.805,-256.149 224.197,-227 284,-227 284,-227 284,-227 1563,-227 1671.1,-227 1803.78,-195.992 1807.9,-195.023"/>
<polygon fill="none" stroke="black" points="126.762,-271.628 123.256,-277.929 116.091,-277.116 119.597,-270.815 126.762,-271.628"/>
</g>
<!-- tim_trans_empty -->
<g id="node23" class="node"><title>tim_trans_empty</title>
<text text-anchor="middle" x="33" y="-276.5" font-family="Times Roman,serif" font-size="15.00" fill="blue">Ø</text>
</g>
<!-- tim_trans_empty&#45;&gt;tim_trans -->
<g id="edge12" class="edge"><title>tim_trans_empty&#45;&gt;tim_trans</title>
<path fill="none" stroke="black" d="M60.0087,-281C74.8562,-281 92.1532,-281 101.711,-281"/>
</g>
<!-- tim_trans_intermediate_p&#45;&gt;M_T -->
<g id="edge16" class="edge"><title>tim_trans_intermediate_p&#45;&gt;M_T</title>
<path fill="none" stroke="black" d="M179.076,-336.003C180.65,-336.063 206.36,-337.042 231.933,-338.017"/>
<polygon fill="black" stroke="black" points="231.927,-341.519 242.053,-338.402 232.194,-334.524 231.927,-341.519"/>
</g>
<!-- M_T_decay -->
<g id="node31" class="node"><title>M_T_decay</title>
<polygon fill="none" stroke="black" points="434,-352 420,-352 420,-338 434,-338 434,-352"/>
</g>
<!-- M_T_decay_empty -->
<g id="node35" class="node"><title>M_T_decay_empty</title>
<text text-anchor="middle" x="517" y="-346.5" font-family="Times Roman,serif" font-size="15.00" fill="blue">Ø</text>
</g>
<!-- M_T_decay&#45;&gt;M_T_decay_empty -->
<g id="edge26" class="edge"><title>M_T_decay&#45;&gt;M_T_decay_empty</title>
<path fill="none" stroke="black" d="M434.062,-345.471C443.877,-346.125 462.359,-347.357 479.389,-348.493"/>
<polygon fill="black" stroke="black" points="479.504,-352.008 489.715,-349.181 479.97,-345.023 479.504,-352.008"/>
</g>
<!-- M_T_decay_intermediate_r&#45;&gt;M_T_decay -->
<g id="edge22" class="edge"><title>M_T_decay_intermediate_r&#45;&gt;M_T_decay</title>
<path fill="none" stroke="black" d="M363.046,-340.004C364.576,-340.123 403.51,-343.165 419.868,-344.443"/>
</g>
<!-- M_P_decay -->
<g id="node37" class="node"><title>M_P_decay</title>
<polygon fill="none" stroke="black" points="434,-54 420,-54 420,-40 434,-40 434,-54"/>
</g>
<!-- M_P_decay_empty -->
<g id="node41" class="node"><title>M_P_decay_empty</title>
<text text-anchor="middle" x="517" y="-42.5" font-family="Times Roman,serif" font-size="15.00" fill="blue">Ø</text>
</g>
<!-- M_P_decay&#45;&gt;M_P_decay_empty -->
<g id="edge32" class="edge"><title>M_P_decay&#45;&gt;M_P_decay_empty</title>
<path fill="none" stroke="black" d="M434.062,-47C443.877,-47 462.359,-47 479.389,-47"/>
<polygon fill="black" stroke="black" points="479.715,-50.5001 489.715,-47 479.715,-43.5001 479.715,-50.5001"/>
</g>
<!-- M_P_decay_intermediate_r&#45;&gt;M_P_decay -->
<g id="edge28" class="edge"><title>M_P_decay_intermediate_r&#45;&gt;M_P_decay</title>
<path fill="none" stroke="black" d="M363.046,-47C364.576,-47 403.51,-47 419.868,-47"/>
</g>
<!-- PER_transl -->
<g id="node43" class="node"><title>PER_transl</title>
<polygon fill="none" stroke="black" points="291,-100 277,-100 277,-86 291,-86 291,-100"/>
</g>
<!-- PER_transl_intermediate_p -->
<g id="node46" class="node"><title>PER_transl_intermediate_p</title>
<ellipse fill="black" stroke="black" cx="363" cy="-96" rx="0.036" ry="0.036"/>
</g>
<!-- PER_transl&#45;&gt;PER_transl_intermediate_p -->
<g id="edge36" class="edge"><title>PER_transl&#45;&gt;PER_transl_intermediate_p</title>
<path fill="none" stroke="black" d="M291.011,-93.2662C309.741,-93.9775 359.742,-95.8763 362.848,-95.9942"/>
</g>
<!-- PER_transl&#45;&gt;PER_transl_intermediate_m -->
<g id="edge40" class="edge"><title>PER_transl&#45;&gt;PER_transl_intermediate_m</title>
<path fill="none" stroke="black" d="M302.725,-87.7854C325.215,-81.5224 360.263,-71.7621 362.848,-71.0422"/>
<polygon fill="none" stroke="black" points="302.571,-87.8283 297.864,-93.2913 291.011,-91.0476 295.718,-85.5846 302.571,-87.8283"/>
</g>
<!-- PER_transl_empty -->
<g id="node44" class="node"><title>PER_transl_empty</title>
<text text-anchor="middle" x="179" y="-88.5" font-family="Times Roman,serif" font-size="15.00" fill="blue">Ø</text>
</g>
<!-- PER_transl_empty&#45;&gt;PER_transl -->
<g id="edge34" class="edge"><title>PER_transl_empty&#45;&gt;PER_transl</title>
<path fill="none" stroke="black" d="M206.04,-93C229.616,-93 262.231,-93 276.645,-93"/>
</g>
<!-- PER_transl_intermediate_p&#45;&gt;P0 -->
<g id="edge38" class="edge"><title>PER_transl_intermediate_p&#45;&gt;P0</title>
<path fill="none" stroke="black" d="M363.046,-96.0036C363.893,-96.0698 376.209,-97.0319 389.809,-98.0945"/>
<polygon fill="black" stroke="black" points="389.552,-101.585 399.794,-98.8746 390.097,-94.6062 389.552,-101.585"/>
</g>
<!-- TIM_transl -->
<g id="node52" class="node"><title>TIM_transl</title>
<polygon fill="none" stroke="black" points="291,-304 277,-304 277,-290 291,-290 291,-304"/>
</g>
<!-- TIM_transl_intermediate_p -->
<g id="node55" class="node"><title>TIM_transl_intermediate_p</title>
<ellipse fill="black" stroke="black" cx="363" cy="-297" rx="0.036" ry="0.036"/>
</g>
<!-- TIM_transl&#45;&gt;TIM_transl_intermediate_p -->
<g id="edge46" class="edge"><title>TIM_transl&#45;&gt;TIM_transl_intermediate_p</title>
<path fill="none" stroke="black" d="M291.011,-297C309.741,-297 359.742,-297 362.848,-297"/>
</g>
<!-- TIM_transl&#45;&gt;TIM_transl_intermediate_m -->
<g id="edge50" class="edge"><title>TIM_transl&#45;&gt;TIM_transl_intermediate_m</title>
<path fill="none" stroke="black" d="M302.725,-302.215C325.215,-308.478 360.263,-318.238 362.848,-318.958"/>
<polygon fill="none" stroke="black" points="302.571,-302.172 295.718,-304.415 291.011,-298.952 297.864,-296.709 302.571,-302.172"/>
</g>
<!-- TIM_transl_empty -->
<g id="node53" class="node"><title>TIM_transl_empty</title>
<text text-anchor="middle" x="179" y="-292.5" font-family="Times Roman,serif" font-size="15.00" fill="blue">Ø</text>
</g>
<!-- TIM_transl_empty&#45;&gt;TIM_transl -->
<g id="edge44" class="edge"><title>TIM_transl_empty&#45;&gt;TIM_transl</title>
<path fill="none" stroke="black" d="M206.04,-297C229.616,-297 262.231,-297 276.645,-297"/>
</g>
<!-- TIM_transl_intermediate_p&#45;&gt;T0 -->
<g id="edge48" class="edge"><title>TIM_transl_intermediate_p&#45;&gt;T0</title>
<path fill="none" stroke="black" d="M363.046,-297C363.885,-297 375.971,-297 389.414,-297"/>
<polygon fill="black" stroke="black" points="389.794,-300.5 399.794,-297 389.794,-293.5 389.794,-300.5"/>
</g>
<!-- PO_decay -->
<g id="node61" class="node"><title>PO_decay</title>
<polygon fill="none" stroke="black" points="594,-75 580,-75 580,-61 594,-61 594,-75"/>
</g>
<!-- PO_decay_empty -->
<g id="node65" class="node"><title>PO_decay_empty</title>
<text text-anchor="middle" x="657" y="-61.5" font-family="Times Roman,serif" font-size="15.00" fill="blue">Ø</text>
</g>
<!-- PO_decay&#45;&gt;PO_decay_empty -->
<g id="edge58" class="edge"><title>PO_decay&#45;&gt;PO_decay_empty</title>
<path fill="none" stroke="black" d="M594.228,-67.7935C600.45,-67.6157 609.94,-67.3446 619.672,-67.0665"/>
<polygon fill="black" stroke="black" points="619.877,-70.5622 629.773,-66.7779 619.677,-63.565 619.877,-70.5622"/>
</g>
<!-- PO_decay_intermediate_r&#45;&gt;PO_decay -->
<g id="edge54" class="edge"><title>PO_decay_intermediate_r&#45;&gt;PO_decay</title>
<path fill="none" stroke="black" d="M517.051,-82.9891C518.748,-82.6254 562.582,-73.2324 579.98,-69.5043"/>
</g>
<!-- P1_decay -->
<g id="node67" class="node"><title>P1_decay</title>
<polygon fill="none" stroke="black" points="844,-97 830,-97 830,-83 844,-83 844,-97"/>
</g>
<!-- P1_decay_empty -->
<g id="node71" class="node"><title>P1_decay_empty</title>
<text text-anchor="middle" x="907" y="-96.5" font-family="Times Roman,serif" font-size="15.00" fill="blue">Ø</text>
</g>
<!-- P1_decay&#45;&gt;P1_decay_empty -->
<g id="edge64" class="edge"><title>P1_decay&#45;&gt;P1_decay_empty</title>
<path fill="none" stroke="black" d="M844.228,-91.1358C850.45,-92.1135 859.94,-93.6049 869.672,-95.1341"/>
<polygon fill="black" stroke="black" points="869.351,-98.6266 879.773,-96.7215 870.438,-91.7115 869.351,-98.6266"/>
</g>
<!-- P1_decay_intermediate_r&#45;&gt;P1_decay -->
<g id="edge60" class="edge"><title>P1_decay_intermediate_r&#45;&gt;P1_decay</title>
<path fill="none" stroke="black" d="M793.126,-90.9971C795.022,-90.9541 817.795,-90.4365 829.759,-90.1646"/>
</g>
<!-- P2_decay -->
<g id="node73" class="node"><title>P2_decay</title>
<polygon fill="none" stroke="black" points="1124,-152 1110,-152 1110,-138 1124,-138 1124,-152"/>
</g>
<!-- P2_decay_empty -->
<g id="node77" class="node"><title>P2_decay_empty</title>
<text text-anchor="middle" x="1187" y="-140.5" font-family="Times Roman,serif" font-size="15.00" fill="blue">Ø</text>
</g>
<!-- P2_decay&#45;&gt;P2_decay_empty -->
<g id="edge70" class="edge"><title>P2_decay&#45;&gt;P2_decay_empty</title>
<path fill="none" stroke="black" d="M1124.23,-145C1130.45,-145 1139.94,-145 1149.67,-145"/>
<polygon fill="black" stroke="black" points="1149.77,-148.5 1159.77,-145 1149.77,-141.5 1149.77,-148.5"/>
</g>
<!-- P2_decay_intermediate_r&#45;&gt;P2_decay -->
<g id="edge66" class="edge"><title>P2_decay_intermediate_r&#45;&gt;P2_decay</title>
<path fill="none" stroke="black" d="M1073.13,-145C1075.02,-145 1097.79,-145 1109.76,-145"/>
</g>
<!-- T0_decay -->
<g id="node79" class="node"><title>T0_decay</title>
<polygon fill="none" stroke="black" points="594,-341 580,-341 580,-327 594,-327 594,-341"/>
</g>
<!-- T0_decay_empty -->
<g id="node83" class="node"><title>T0_decay_empty</title>
<text text-anchor="middle" x="657" y="-331.5" font-family="Times Roman,serif" font-size="15.00" fill="blue">Ø</text>
</g>
<!-- T0_decay&#45;&gt;T0_decay_empty -->
<g id="edge76" class="edge"><title>T0_decay&#45;&gt;T0_decay_empty</title>
<path fill="none" stroke="black" d="M594.228,-334.207C600.45,-334.384 609.94,-334.655 619.672,-334.933"/>
<polygon fill="black" stroke="black" points="619.677,-338.435 629.773,-335.222 619.877,-331.438 619.677,-338.435"/>
</g>
<!-- T0_decay_intermediate_r&#45;&gt;T0_decay -->
<g id="edge72" class="edge"><title>T0_decay_intermediate_r&#45;&gt;T0_decay</title>
<path fill="none" stroke="black" d="M517.051,-315.014C518.748,-315.474 562.582,-327.372 579.98,-332.095"/>
</g>
<!-- T1_decay -->
<g id="node85" class="node"><title>T1_decay</title>
<polygon fill="none" stroke="black" points="844,-371 830,-371 830,-357 844,-357 844,-371"/>
</g>
<!-- T1_decay_empty -->
<g id="node89" class="node"><title>T1_decay_empty</title>
<text text-anchor="middle" x="907" y="-348.5" font-family="Times Roman,serif" font-size="15.00" fill="blue">Ø</text>
</g>
<!-- T1_decay&#45;&gt;T1_decay_empty -->
<g id="edge82" class="edge"><title>T1_decay&#45;&gt;T1_decay_empty</title>
<path fill="none" stroke="black" d="M844.228,-362.864C850.45,-361.886 859.94,-360.395 869.672,-358.866"/>
<polygon fill="black" stroke="black" points="870.438,-362.289 879.773,-357.278 869.351,-355.373 870.438,-362.289"/>
</g>
<!-- T1_decay_intermediate_r&#45;&gt;T1_decay -->
<g id="edge78" class="edge"><title>T1_decay_intermediate_r&#45;&gt;T1_decay</title>
<path fill="none" stroke="black" d="M793.126,-357.02C795.022,-357.322 817.795,-360.945 829.759,-362.848"/>
</g>
<!-- T2_decay -->
<g id="node91" class="node"><title>T2_decay</title>
<polygon fill="none" stroke="black" points="1124,-326 1110,-326 1110,-312 1124,-312 1124,-326"/>
</g>
<!-- T2_decay_empty -->
<g id="node95" class="node"><title>T2_decay_empty</title>
<text text-anchor="middle" x="1187" y="-314.5" font-family="Times Roman,serif" font-size="15.00" fill="blue">Ø</text>
</g>
<!-- T2_decay&#45;&gt;T2_decay_empty -->
<g id="edge88" class="edge"><title>T2_decay&#45;&gt;T2_decay_empty</title>
<path fill="none" stroke="black" d="M1124.23,-319C1130.45,-319 1139.94,-319 1149.67,-319"/>
<polygon fill="black" stroke="black" points="1149.77,-322.5 1159.77,-319 1149.77,-315.5 1149.77,-322.5"/>
</g>
<!-- T2_decay_intermediate_r&#45;&gt;T2_decay -->
<g id="edge84" class="edge"><title>T2_decay_intermediate_r&#45;&gt;T2_decay</title>
<path fill="none" stroke="black" d="M1073.13,-319C1075.02,-319 1097.79,-319 1109.76,-319"/>
</g>
<!-- C_form -->
<g id="node97" class="node"><title>C_form</title>
<polygon fill="none" stroke="black" points="1124,-188 1110,-188 1110,-174 1124,-174 1124,-188"/>
</g>
<!-- C_form_intermediate_p -->
<g id="node102" class="node"><title>C_form_intermediate_p</title>
<ellipse fill="black" stroke="black" cx="1187" cy="-181" rx="0.036" ry="0.036"/>
</g>
<!-- C_form&#45;&gt;C_form_intermediate_p -->
<g id="edge96" class="edge"><title>C_form&#45;&gt;C_form_intermediate_p</title>
<path fill="none" stroke="black" d="M1124.23,-181C1141.55,-181 1184.22,-181 1186.87,-181"/>
</g>
<!-- C_form_intermediate_r&#45;&gt;C_form -->
<g id="edge90" class="edge"><title>C_form_intermediate_r&#45;&gt;C_form</title>
<path fill="none" stroke="black" d="M1073.13,-181C1075.02,-181 1097.79,-181 1109.76,-181"/>
</g>
<!-- C_form_intermediate_p&#45;&gt;C -->
<g id="edge98" class="edge"><title>C_form_intermediate_p&#45;&gt;C</title>
<path fill="none" stroke="black" d="M1187.1,-181C1188.85,-181 1212.23,-181 1239.66,-181"/>
<polygon fill="black" stroke="black" points="1239.91,-184.5 1249.91,-181 1239.91,-177.5 1239.91,-184.5"/>
</g>
<!-- C_decay -->
<g id="node105" class="node"><title>C_decay</title>
<polygon fill="none" stroke="black" points="1500,-188 1486,-188 1486,-174 1500,-174 1500,-188"/>
</g>
<!-- C_decay_empty -->
<g id="node109" class="node"><title>C_decay_empty</title>
<text text-anchor="middle" x="1563" y="-176.5" font-family="Times Roman,serif" font-size="15.00" fill="blue">Ø</text>
</g>
<!-- C_decay&#45;&gt;C_decay_empty -->
<g id="edge104" class="edge"><title>C_decay&#45;&gt;C_decay_empty</title>
<path fill="none" stroke="black" d="M1500.23,-181C1506.45,-181 1515.94,-181 1525.67,-181"/>
<polygon fill="black" stroke="black" points="1525.77,-184.5 1535.77,-181 1525.77,-177.5 1525.77,-184.5"/>
</g>
<!-- C_decay_intermediate_r&#45;&gt;C_decay -->
<g id="edge100" class="edge"><title>C_decay_intermediate_r&#45;&gt;C_decay</title>
<path fill="none" stroke="black" d="M1449.13,-181C1451.02,-181 1473.79,-181 1485.76,-181"/>
</g>
<!-- CN_decay -->
<g id="node111" class="node"><title>CN_decay</title>
<polygon fill="none" stroke="black" points="1858,-152 1844,-152 1844,-138 1858,-138 1858,-152"/>
</g>
<!-- CN_decay_empty -->
<g id="node115" class="node"><title>CN_decay_empty</title>
<text text-anchor="middle" x="1921" y="-140.5" font-family="Times Roman,serif" font-size="15.00" fill="blue">Ø</text>
</g>
<!-- CN_decay&#45;&gt;CN_decay_empty -->
<g id="edge110" class="edge"><title>CN_decay&#45;&gt;CN_decay_empty</title>
<path fill="none" stroke="black" d="M1858.23,-145C1864.45,-145 1873.94,-145 1883.67,-145"/>
<polygon fill="black" stroke="black" points="1883.77,-148.5 1893.77,-145 1883.77,-141.5 1883.77,-148.5"/>
</g>
<!-- CN_decay_intermediate_r&#45;&gt;CN_decay -->
<g id="edge106" class="edge"><title>CN_decay_intermediate_r&#45;&gt;CN_decay</title>
<path fill="none" stroke="black" d="M1808.12,-145C1809.98,-145 1832.23,-145 1843.92,-145"/>
</g>
<!-- C_transp -->
<g id="node117" class="node"><title>C_transp</title>
<polygon fill="none" stroke="black" points="1500,-154 1486,-154 1486,-140 1500,-140 1500,-154"/>
</g>
<!-- C_transp_intermediate_p -->
<g id="node121" class="node"><title>C_transp_intermediate_p</title>
<ellipse fill="black" stroke="black" cx="1563" cy="-145" rx="0.036" ry="0.036"/>
</g>
<!-- C_transp&#45;&gt;C_transp_intermediate_p -->
<g id="edge116" class="edge"><title>C_transp&#45;&gt;C_transp_intermediate_p</title>
<path fill="none" stroke="black" d="M1500.23,-146.793C1517.55,-146.298 1560.22,-145.079 1562.87,-145.004"/>
</g>
<!-- C_transp_intermediate_r&#45;&gt;C_transp -->
<g id="edge112" class="edge"><title>C_transp_intermediate_r&#45;&gt;C_transp</title>
<path fill="none" stroke="black" d="M1449.13,-154.977C1451.02,-154.632 1473.79,-150.492 1485.76,-148.317"/>
</g>
<!-- C_transp_intermediate_p&#45;&gt;CN -->
<g id="edge118" class="edge"><title>C_transp_intermediate_p&#45;&gt;CN</title>
<path fill="none" stroke="black" d="M1563.1,-145C1564.81,-145 1588.59,-145 1615.79,-145"/>
<polygon fill="black" stroke="black" points="1615.93,-148.5 1625.93,-145 1615.93,-141.5 1615.93,-148.5"/>
</g>
<!-- P_pho -->
<g id="node124" class="node"><title>P_pho</title>
<polygon fill="none" stroke="black" points="594,-109 580,-109 580,-95 594,-95 594,-109"/>
</g>
<!-- P_pho_intermediate_p -->
<g id="node128" class="node"><title>P_pho_intermediate_p</title>
<ellipse fill="black" stroke="black" cx="657" cy="-102" rx="0.036" ry="0.036"/>
</g>
<!-- P_pho&#45;&gt;P_pho_intermediate_p -->
<g id="edge124" class="edge"><title>P_pho&#45;&gt;P_pho_intermediate_p</title>
<path fill="none" stroke="black" d="M594.228,-102C611.554,-102 654.221,-102 656.871,-102"/>
</g>
<!-- P_pho_intermediate_r&#45;&gt;P_pho -->
<g id="edge120" class="edge"><title>P_pho_intermediate_r&#45;&gt;P_pho</title>
<path fill="none" stroke="black" d="M517.051,-102C518.748,-102 562.582,-102 579.98,-102"/>
</g>
<!-- P_pho_intermediate_p&#45;&gt;P1 -->
<g id="edge126" class="edge"><title>P_pho_intermediate_p&#45;&gt;P1</title>
<path fill="none" stroke="black" d="M657.059,-102C658.514,-102 686.754,-102 709.471,-102"/>
<polygon fill="black" stroke="black" points="709.721,-105.5 719.721,-102 709.721,-98.5001 709.721,-105.5"/>
</g>
<!-- P1_pho -->
<g id="node131" class="node"><title>P1_pho</title>
<polygon fill="none" stroke="black" points="844,-199 830,-199 830,-185 844,-185 844,-199"/>
</g>
<!-- P1_pho_intermediate_p -->
<g id="node135" class="node"><title>P1_pho_intermediate_p</title>
<ellipse fill="black" stroke="black" cx="907" cy="-179" rx="0.036" ry="0.036"/>
</g>
<!-- P1_pho&#45;&gt;P1_pho_intermediate_p -->
<g id="edge132" class="edge"><title>P1_pho&#45;&gt;P1_pho_intermediate_p</title>
<path fill="none" stroke="black" d="M844.228,-190.658C861.554,-187.44 904.221,-179.516 906.871,-179.024"/>
</g>
<!-- P1_pho_intermediate_r&#45;&gt;P1_pho -->
<g id="edge128" class="edge"><title>P1_pho_intermediate_r&#45;&gt;P1_pho</title>
<path fill="none" stroke="black" d="M793.032,-129.046C794.083,-130.551 820.851,-168.877 832.097,-184.979"/>
</g>
<!-- P1_pho_intermediate_p&#45;&gt;P2 -->
<g id="edge134" class="edge"><title>P1_pho_intermediate_p&#45;&gt;P2</title>
<path fill="none" stroke="black" d="M907.07,-178.975C908.721,-178.391 939.452,-167.507 965.691,-158.213"/>
<polygon fill="black" stroke="black" points="967.2,-161.392 975.458,-154.754 964.863,-154.794 967.2,-161.392"/>
</g>
<!-- P1_depho -->
<g id="node138" class="node"><title>P1_depho</title>
<polygon fill="none" stroke="black" points="844,-129 830,-129 830,-115 844,-115 844,-129"/>
</g>
<!-- P1_depho_intermediate_p -->
<g id="node142" class="node"><title>P1_depho_intermediate_p</title>
<ellipse fill="black" stroke="black" cx="907" cy="-147" rx="0.036" ry="0.036"/>
</g>
<!-- P1_depho&#45;&gt;P1_depho_intermediate_p -->
<g id="edge140" class="edge"><title>P1_depho&#45;&gt;P1_depho_intermediate_p</title>
<path fill="none" stroke="black" d="M844.228,-124.581C861.554,-130.769 904.221,-146.007 906.871,-146.954"/>
</g>
<!-- P1_depho_intermediate_r&#45;&gt;P1_depho -->
<g id="edge136" class="edge"><title>P1_depho_intermediate_r&#45;&gt;P1_depho</title>
<path fill="none" stroke="black" d="M793.126,-111.032C795.022,-111.505 817.795,-117.199 829.759,-120.19"/>
</g>
<!-- P1_depho_intermediate_p&#45;&gt;P0 -->
<g id="edge142" class="edge"><title>P1_depho_intermediate_p&#45;&gt;P0</title>
<path fill="none" stroke="black" d="M906.954,-147.007C905.03,-147.31 843.067,-157 793,-157 587,-157 587,-157 587,-157 542.401,-157 494.538,-137.377 462.902,-121.363"/>
<polygon fill="black" stroke="black" points="464.514,-118.256 454.027,-116.748 461.285,-124.467 464.514,-118.256"/>
</g>
<!-- P2_depho -->
<g id="node145" class="node"><title>P2_depho</title>
<polygon fill="none" stroke="black" points="1124,-119 1110,-119 1110,-105 1124,-105 1124,-119"/>
</g>
<!-- P2_depho_intermediate_p -->
<g id="node149" class="node"><title>P2_depho_intermediate_p</title>
<ellipse fill="black" stroke="black" cx="1187" cy="-96" rx="0.036" ry="0.036"/>
</g>
<!-- P2_depho&#45;&gt;P2_depho_intermediate_p -->
<g id="edge148" class="edge"><title>P2_depho&#45;&gt;P2_depho_intermediate_p</title>
<path fill="none" stroke="black" d="M1124.23,-110.348C1141.55,-106.388 1184.22,-96.6352 1186.87,-96.0296"/>
</g>
<!-- P2_depho_intermediate_r&#45;&gt;P2_depho -->
<g id="edge144" class="edge"><title>P2_depho_intermediate_r&#45;&gt;P2_depho</title>
<path fill="none" stroke="black" d="M1073.13,-115.989C1075.02,-115.816 1097.79,-113.746 1109.76,-112.658"/>
</g>
<!-- P2_depho_intermediate_p&#45;&gt;P1 -->
<g id="edge150" class="edge"><title>P2_depho_intermediate_p&#45;&gt;P1</title>
<path fill="none" stroke="black" d="M1186.86,-95.9722C1180.79,-94.8114 985.642,-57.7942 830,-74 807.128,-76.3815 782.236,-84.3055 764.119,-91.1187"/>
<polygon fill="black" stroke="black" points="762.599,-87.9548 754.554,-94.8492 765.142,-94.4763 762.599,-87.9548"/>
</g>
<!-- T_pho -->
<g id="node152" class="node"><title>T_pho</title>
<polygon fill="none" stroke="black" points="594,-307 580,-307 580,-293 594,-293 594,-307"/>
</g>
<!-- T_pho_intermediate_p -->
<g id="node156" class="node"><title>T_pho_intermediate_p</title>
<ellipse fill="black" stroke="black" cx="657" cy="-300" rx="0.036" ry="0.036"/>
</g>
<!-- T_pho&#45;&gt;T_pho_intermediate_p -->
<g id="edge156" class="edge"><title>T_pho&#45;&gt;T_pho_intermediate_p</title>
<path fill="none" stroke="black" d="M594.228,-300C611.554,-300 654.221,-300 656.871,-300"/>
</g>
<!-- T_pho_intermediate_r&#45;&gt;T_pho -->
<g id="edge152" class="edge"><title>T_pho_intermediate_r&#45;&gt;T_pho</title>
<path fill="none" stroke="black" d="M517.051,-297.002C518.748,-297.075 562.582,-298.954 579.98,-299.699"/>
</g>
<!-- T_pho_intermediate_p&#45;&gt;T1 -->
<g id="edge158" class="edge"><title>T_pho_intermediate_p&#45;&gt;T1</title>
<path fill="none" stroke="black" d="M657.044,-300.013C657.945,-300.282 672.541,-304.658 684,-309 693.139,-312.463 703.009,-316.559 711.78,-320.328"/>
<polygon fill="black" stroke="black" points="710.552,-323.611 721.118,-324.394 713.347,-317.193 710.552,-323.611"/>
</g>
<!-- T1_pho -->
<g id="node159" class="node"><title>T1_pho</title>
<polygon fill="none" stroke="black" points="844,-339 830,-339 830,-325 844,-325 844,-339"/>
</g>
<!-- T1_pho_intermediate_p -->
<g id="node163" class="node"><title>T1_pho_intermediate_p</title>
<ellipse fill="black" stroke="black" cx="907" cy="-317" rx="0.036" ry="0.036"/>
</g>
<!-- T1_pho&#45;&gt;T1_pho_intermediate_p -->
<g id="edge164" class="edge"><title>T1_pho&#45;&gt;T1_pho_intermediate_p</title>
<path fill="none" stroke="black" d="M844.228,-330.451C861.554,-326.739 904.221,-317.596 906.871,-317.028"/>
</g>
<!-- T1_pho_intermediate_r&#45;&gt;T1_pho -->
<g id="edge160" class="edge"><title>T1_pho_intermediate_r&#45;&gt;T1_pho</title>
<path fill="none" stroke="black" d="M793.126,-332C795.022,-332 817.795,-332 829.759,-332"/>
</g>
<!-- T1_pho_intermediate_p&#45;&gt;T2 -->
<g id="edge166" class="edge"><title>T1_pho_intermediate_p&#45;&gt;T2</title>
<path fill="none" stroke="black" d="M907.07,-317.001C908.724,-317.036 939.554,-317.678 965.822,-318.225"/>
<polygon fill="black" stroke="black" points="965.892,-321.728 975.963,-318.437 966.038,-314.729 965.892,-321.728"/>
</g>
<!-- T1_depho -->
<g id="node166" class="node"><title>T1_depho</title>
<polygon fill="none" stroke="black" points="844,-307 830,-307 830,-293 844,-293 844,-307"/>
</g>
<!-- T1_depho_intermediate_p -->
<g id="node170" class="node"><title>T1_depho_intermediate_p</title>
<ellipse fill="black" stroke="black" cx="907" cy="-282" rx="0.036" ry="0.036"/>
</g>
<!-- T1_depho&#45;&gt;T1_depho_intermediate_p -->
<g id="edge172" class="edge"><title>T1_depho&#45;&gt;T1_depho_intermediate_p</title>
<path fill="none" stroke="black" d="M844.228,-298.141C861.554,-293.686 904.221,-282.715 906.871,-282.033"/>
</g>
<!-- T1_depho_intermediate_r&#45;&gt;T1_depho -->
<g id="edge168" class="edge"><title>T1_depho_intermediate_r&#45;&gt;T1_depho</title>
<path fill="none" stroke="black" d="M793.126,-306.98C795.022,-306.678 817.795,-303.055 829.759,-301.152"/>
</g>
<!-- T1_depho_intermediate_p&#45;&gt;T0 -->
<g id="edge174" class="edge"><title>T1_depho_intermediate_p&#45;&gt;T0</title>
<path fill="none" stroke="black" d="M906.954,-281.988C905.041,-281.473 843.427,-265 793,-265 587,-265 587,-265 587,-265 544.185,-265 496.154,-276.154 463.991,-285.292"/>
<polygon fill="black" stroke="black" points="462.75,-282.008 454.132,-288.171 464.712,-288.727 462.75,-282.008"/>
</g>
<!-- T2_depho -->
<g id="node173" class="node"><title>T2_depho</title>
<polygon fill="none" stroke="black" points="1124,-363 1110,-363 1110,-349 1124,-349 1124,-363"/>
</g>
<!-- T2_depho_intermediate_p -->
<g id="node177" class="node"><title>T2_depho_intermediate_p</title>
<ellipse fill="black" stroke="black" cx="1187" cy="-377" rx="0.036" ry="0.036"/>
</g>
<!-- T2_depho&#45;&gt;T2_depho_intermediate_p -->
<g id="edge180" class="edge"><title>T2_depho&#45;&gt;T2_depho_intermediate_p</title>
<path fill="none" stroke="black" d="M1124.23,-358.168C1141.55,-363.366 1184.22,-376.166 1186.87,-376.961"/>
</g>
<!-- T2_depho_intermediate_r&#45;&gt;T2_depho -->
<g id="edge176" class="edge"><title>T2_depho_intermediate_r&#45;&gt;T2_depho</title>
<path fill="none" stroke="black" d="M1073.13,-351.014C1075.02,-351.23 1097.79,-353.818 1109.76,-355.177"/>
</g>
<!-- T2_depho_intermediate_p&#45;&gt;T1 -->
<g id="edge182" class="edge"><title>T2_depho_intermediate_p&#45;&gt;T1</title>
<path fill="none" stroke="black" d="M1186.95,-377.016C1185.05,-377.682 1123.8,-399 1073,-399 837,-399 837,-399 837,-399 804.167,-399 774.106,-373.413 755.93,-353.863"/>
<polygon fill="black" stroke="black" points="758.381,-351.352 749.118,-346.209 753.152,-356.006 758.381,-351.352"/>
</g>
<!-- T2_light_deact -->
<g id="node180" class="node"><title>T2_light_deact</title>
<polygon fill="none" stroke="black" points="1124,-441 1110,-441 1110,-427 1124,-427 1124,-441"/>
</g>
<!-- T2_light_deact_empty -->
<g id="node184" class="node"><title>T2_light_deact_empty</title>
<text text-anchor="middle" x="1187" y="-429.5" font-family="Times Roman,serif" font-size="15.00" fill="blue">Ø</text>
</g>
<!-- T2_light_deact&#45;&gt;T2_light_deact_empty -->
<g id="edge188" class="edge"><title>T2_light_deact&#45;&gt;T2_light_deact_empty</title>
<path fill="none" stroke="black" d="M1124.23,-434C1130.45,-434 1139.94,-434 1149.67,-434"/>
<polygon fill="black" stroke="black" points="1149.77,-437.5 1159.77,-434 1149.77,-430.5 1149.77,-437.5"/>
</g>
<!-- T2_light_deact_intermediate_r&#45;&gt;T2_light_deact -->
<g id="edge184" class="edge"><title>T2_light_deact_intermediate_r&#45;&gt;T2_light_deact</title>
<path fill="none" stroke="black" d="M1073.03,-370.046C1074.08,-371.576 1100.85,-410.51 1112.1,-426.868"/>
</g>
<!-- P2_light_deact -->
<g id="node186" class="node"><title>P2_light_deact</title>
<polygon fill="none" stroke="black" points="1124,-42 1110,-42 1110,-28 1124,-28 1124,-42"/>
</g>
<!-- P2_light_deact_empty -->
<g id="node190" class="node"><title>P2_light_deact_empty</title>
<text text-anchor="middle" x="1187" y="-41.5" font-family="Times Roman,serif" font-size="15.00" fill="blue">Ø</text>
</g>
<!-- P2_light_deact&#45;&gt;P2_light_deact_empty -->
<g id="edge194" class="edge"><title>P2_light_deact&#45;&gt;P2_light_deact_empty</title>
<path fill="none" stroke="black" d="M1124.23,-36.1358C1130.45,-37.1135 1139.94,-38.6049 1149.67,-40.1341"/>
<polygon fill="black" stroke="black" points="1149.35,-43.6266 1159.77,-41.7215 1150.44,-36.7115 1149.35,-43.6266"/>
</g>
<!-- P2_light_deact_intermediate_r&#45;&gt;P2_light_deact -->
<g id="edge190" class="edge"><title>P2_light_deact_intermediate_r&#45;&gt;P2_light_deact</title>
<path fill="none" stroke="black" d="M1073.03,-94.9565C1074.07,-93.5371 1100.32,-57.741 1111.76,-42.1481"/>
</g>
</g>
</svg>
