<?xml version="1.0" encoding="UTF-8" standalone="no"?>
<!DOCTYPE svg PUBLIC "-//W3C//DTD SVG 1.1//EN"
 "http://www.w3.org/Graphics/SVG/1.1/DTD/svg11.dtd">
<!-- Generated by graphviz version 2.24.0 (20090616.2323)
 -->
<!-- Title: G Pages: 1 -->
<svg width="840pt" height="784pt"
 viewBox="0.00 0.00 840.00 784.00" xmlns="http://www.w3.org/2000/svg" xmlns:xlink="http://www.w3.org/1999/xlink">
<g id="graph1" class="graph" transform="scale(1 1) rotate(0) translate(4 780)">
<title>G</title>
<polygon fill="white" stroke="white" points="-4,5 -4,-780 837,-780 837,5 -4,5"/>
<!-- s1 -->
<g id="node1" class="node"><title>s1</title>
<polyline fill="none" stroke="black" points="518,-560 488,-560 "/>
<path fill="none" stroke="black" d="M488,-560C482,-560 476,-554 476,-548"/>
<polyline fill="none" stroke="black" points="476,-548 476,-536 "/>
<path fill="none" stroke="black" d="M476,-536C476,-530 482,-524 488,-524"/>
<polyline fill="none" stroke="black" points="488,-524 518,-524 "/>
<path fill="none" stroke="black" d="M518,-524C524,-524 530,-530 530,-536"/>
<polyline fill="none" stroke="black" points="530,-536 530,-548 "/>
<path fill="none" stroke="black" d="M530,-548C530,-554 524,-560 518,-560"/>
<text text-anchor="middle" x="503" y="-539.5" font-family="Times Roman,serif" font-size="10.00">PFKL</text>
</g>
<!-- re1_intermediate_m -->
<g id="node30" class="node"><title>re1_intermediate_m</title>
<ellipse fill="black" stroke="black" cx="596" cy="-542" rx="0.036" ry="0.036"/>
</g>
<!-- s1&#45;&gt;re1_intermediate_m -->
<g id="edge12" class="edge"><title>s1&#45;&gt;re1_intermediate_m</title>
<path fill="none" stroke="black" d="M530.4,-542C556.975,-542 593.625,-542 595.89,-542"/>
</g>
<!-- s2 -->
<g id="node2" class="node"><title>s2</title>
<polyline fill="none" stroke="black" points="518,-198 488,-198 "/>
<path fill="none" stroke="black" d="M488,-198C482,-198 476,-192 476,-186"/>
<polyline fill="none" stroke="black" points="476,-186 476,-174 "/>
<path fill="none" stroke="black" d="M476,-174C476,-168 482,-162 488,-162"/>
<polyline fill="none" stroke="black" points="488,-162 518,-162 "/>
<path fill="none" stroke="black" d="M518,-162C524,-162 530,-168 530,-174"/>
<polyline fill="none" stroke="black" points="530,-174 530,-186 "/>
<path fill="none" stroke="black" d="M530,-186C530,-192 524,-198 518,-198"/>
<text text-anchor="middle" x="503" y="-177.5" font-family="Times Roman,serif" font-size="10.00">FBPase</text>
</g>
<!-- re2_intermediate_m -->
<g id="node55" class="node"><title>re2_intermediate_m</title>
<ellipse fill="black" stroke="black" cx="596" cy="-254" rx="0.036" ry="0.036"/>
</g>
<!-- s2&#45;&gt;re2_intermediate_m -->
<g id="edge54" class="edge"><title>s2&#45;&gt;re2_intermediate_m</title>
<path fill="none" stroke="black" d="M530.058,-192.685C539.969,-197.96 550.962,-204.588 560,-212 578.416,-227.103 594.936,-252.36 595.951,-253.924"/>
</g>
<!-- s3 -->
<g id="node3" class="node"><title>s3</title>
<ellipse fill="none" stroke="black" cx="32" cy="-472" rx="18" ry="18"/>
<text text-anchor="middle" x="32" y="-469.5" font-family="Times Roman,serif" font-size="10.00">F6P</text>
</g>
<!-- re11_intermediate_r -->
<g id="node124" class="node"><title>re11_intermediate_r</title>
<ellipse fill="black" stroke="black" cx="101" cy="-472" rx="0.036" ry="0.036"/>
</g>
<!-- s3&#45;&gt;re11_intermediate_r -->
<g id="edge138" class="edge"><title>s3&#45;&gt;re11_intermediate_r</title>
<path fill="none" stroke="black" d="M50.1289,-472C69.9336,-472 99.108,-472 100.912,-472"/>
</g>
<!-- s4 -->
<g id="node4" class="node"><title>s4</title>
<ellipse fill="none" stroke="black" cx="32" cy="-134" rx="30.8966" ry="18"/>
<text text-anchor="middle" x="32" y="-131.5" font-family="Times Roman,serif" font-size="10.00">F1,6BP</text>
</g>
<!-- re2_intermediate_r -->
<g id="node49" class="node"><title>re2_intermediate_r</title>
<ellipse fill="black" stroke="black" cx="101" cy="-194" rx="0.036" ry="0.036"/>
</g>
<!-- s4&#45;&gt;re2_intermediate_r -->
<g id="edge46" class="edge"><title>s4&#45;&gt;re2_intermediate_r</title>
<path fill="none" stroke="black" d="M49.4116,-149.141C69.2135,-166.36 99.0637,-192.316 100.91,-193.922"/>
</g>
<!-- s4&#45;&gt;re2_intermediate_m -->
<g id="edge64" class="edge"><title>s4&#45;&gt;re2_intermediate_m</title>
<path fill="none" stroke="black" d="M63.7098,-134C90.6556,-134 130.365,-134 165,-134 165,-134 165,-134 409,-134 476.64,-134 507.268,-110.638 560,-153 578.285,-167.69 595.455,-251.327 595.987,-253.938"/>
</g>
<!-- re3_intermediate_r -->
<g id="node64" class="node"><title>re3_intermediate_r</title>
<ellipse fill="black" stroke="black" cx="101" cy="-103" rx="0.036" ry="0.036"/>
</g>
<!-- s4&#45;&gt;re3_intermediate_r -->
<g id="edge68" class="edge"><title>s4&#45;&gt;re3_intermediate_r</title>
<path fill="none" stroke="black" d="M56.9106,-122.808C76.0572,-114.206 99.4841,-103.681 100.93,-103.032"/>
</g>
<!-- re3_intermediate_m -->
<g id="node70" class="node"><title>re3_intermediate_m</title>
<ellipse fill="black" stroke="black" cx="229" cy="-64" rx="0.036" ry="0.036"/>
</g>
<!-- s4&#45;&gt;re3_intermediate_m -->
<g id="edge78" class="edge"><title>s4&#45;&gt;re3_intermediate_m</title>
<path fill="none" stroke="black" d="M52.4223,-120.162C65.5692,-111.722 83.2698,-101.207 100,-94 153.216,-71.0761 226.663,-64.2138 228.945,-64.005"/>
</g>
<!-- s5 -->
<g id="node5" class="node"><title>s5</title>
<ellipse fill="none" stroke="black" cx="503" cy="-758" rx="18" ry="18"/>
<text text-anchor="middle" x="503" y="-755.5" font-family="Times Roman,serif" font-size="10.00">PEP</text>
</g>
<!-- s5&#45;&gt;re1_intermediate_m -->
<g id="edge32" class="edge"><title>s5&#45;&gt;re1_intermediate_m</title>
<path fill="none" stroke="black" d="M518.023,-747.869C531.152,-742.4 549.683,-735.339 560,-722 585.748,-688.708 595.688,-537.82 595.993,-541.697"/>
</g>
<!-- s5&#45;&gt;re1_intermediate_m -->
<g id="edge14" class="edge"><title>s5&#45;&gt;re1_intermediate_m</title>
<path fill="none" stroke="black" d="M520.645,-761.578C533.524,-759.457 550.353,-752.473 560,-740 585.953,-706.444 595.845,-553.417 595.998,-542.238"/>
</g>
<!-- re6_intermediate_r -->
<g id="node89" class="node"><title>re6_intermediate_r</title>
<ellipse fill="black" stroke="black" cx="596" cy="-758" rx="0.036" ry="0.036"/>
</g>
<!-- s5&#45;&gt;re6_intermediate_r -->
<g id="edge98" class="edge"><title>s5&#45;&gt;re6_intermediate_r</title>
<path fill="none" stroke="black" d="M521.374,-758C547.63,-758 593.05,-758 595.863,-758"/>
</g>
<!-- s6 -->
<g id="node6" class="node"><title>s6</title>
<ellipse fill="none" stroke="black" cx="503" cy="-704" rx="40.1272" ry="18"/>
<text text-anchor="middle" x="503" y="-701.5" font-family="Times Roman,serif" font-size="10.00">Isocitrate</text>
</g>
<!-- s6&#45;&gt;re1_intermediate_m -->
<g id="edge36" class="edge"><title>s6&#45;&gt;re1_intermediate_m</title>
<path fill="none" stroke="black" d="M527.336,-689.585C538.758,-684.55 551.66,-678.012 560,-668 579.25,-644.889 594.988,-539.861 595.953,-541.502"/>
</g>
<!-- s6&#45;&gt;re1_intermediate_m -->
<g id="edge16" class="edge"><title>s6&#45;&gt;re1_intermediate_m</title>
<path fill="none" stroke="black" d="M542.653,-699.636C549.163,-696.173 555.305,-691.637 560,-686 579.716,-662.33 595.748,-552.731 595.997,-542.23"/>
</g>
<!-- re7_intermediate_r -->
<g id="node96" class="node"><title>re7_intermediate_r</title>
<ellipse fill="black" stroke="black" cx="596" cy="-704" rx="0.036" ry="0.036"/>
</g>
<!-- s6&#45;&gt;re7_intermediate_r -->
<g id="edge106" class="edge"><title>s6&#45;&gt;re7_intermediate_r</title>
<path fill="none" stroke="black" d="M543.521,-704C567.799,-704 594.289,-704 595.921,-704"/>
</g>
<!-- s7 -->
<g id="node7" class="node"><title>s7</title>
<ellipse fill="none" stroke="black" cx="503" cy="-650" rx="56.1328" ry="18"/>
<text text-anchor="middle" x="503" y="-647.5" font-family="Times Roman,serif" font-size="10.00">2&#45;oxoglutarate</text>
</g>
<!-- s7&#45;&gt;re1_intermediate_m -->
<g id="edge30" class="edge"><title>s7&#45;&gt;re1_intermediate_m</title>
<path fill="none" stroke="black" d="M528.973,-633.931C539.666,-628.929 551.51,-622.698 560,-614 585.798,-587.571 594.865,-539.505 595.898,-541.016"/>
</g>
<!-- s7&#45;&gt;re1_intermediate_m -->
<g id="edge18" class="edge"><title>s7&#45;&gt;re1_intermediate_m</title>
<path fill="none" stroke="black" d="M550.282,-640.056C553.794,-637.666 557.093,-634.978 560,-632 587.303,-604.029 595.866,-551.824 595.998,-542.219"/>
</g>
<!-- re5_intermediate_r -->
<g id="node82" class="node"><title>re5_intermediate_r</title>
<ellipse fill="black" stroke="black" cx="596" cy="-650" rx="0.036" ry="0.036"/>
</g>
<!-- s7&#45;&gt;re5_intermediate_r -->
<g id="edge90" class="edge"><title>s7&#45;&gt;re5_intermediate_r</title>
<path fill="none" stroke="black" d="M559.511,-650C578.376,-650 594.934,-650 595.951,-650"/>
</g>
<!-- s8 -->
<g id="node8" class="node"><title>s8</title>
<ellipse fill="none" stroke="black" cx="503" cy="-596" rx="30.8966" ry="18"/>
<text text-anchor="middle" x="503" y="-593.5" font-family="Times Roman,serif" font-size="10.00">Malate</text>
</g>
<!-- s8&#45;&gt;re1_intermediate_m -->
<g id="edge38" class="edge"><title>s8&#45;&gt;re1_intermediate_m</title>
<path fill="none" stroke="black" d="M520.682,-581.045C532.184,-574.728 547.343,-567.637 560,-560 576.856,-549.828 595.411,-533.519 595.986,-541.597"/>
</g>
<!-- s8&#45;&gt;re1_intermediate_m -->
<g id="edge20" class="edge"><title>s8&#45;&gt;re1_intermediate_m</title>
<path fill="none" stroke="black" d="M533.765,-591.444C542.436,-587.725 551.75,-582.978 560,-578 576.856,-567.828 595.411,-551.519 595.986,-542.427"/>
</g>
<!-- re4_intermediate_r -->
<g id="node75" class="node"><title>re4_intermediate_r</title>
<ellipse fill="black" stroke="black" cx="596" cy="-596" rx="0.036" ry="0.036"/>
</g>
<!-- s8&#45;&gt;re4_intermediate_r -->
<g id="edge82" class="edge"><title>s8&#45;&gt;re4_intermediate_r</title>
<path fill="none" stroke="black" d="M534.745,-596C560.845,-596 593.863,-596 595.901,-596"/>
</g>
<!-- s9 -->
<g id="node9" class="node"><title>s9</title>
<ellipse fill="none" stroke="black" cx="503" cy="-272" rx="30.8966" ry="18"/>
<text text-anchor="middle" x="503" y="-269.5" font-family="Times Roman,serif" font-size="10.00">F2,6BP</text>
</g>
<!-- s9&#45;&gt;re1_intermediate_m -->
<g id="edge22" class="edge"><title>s9&#45;&gt;re1_intermediate_m</title>
<path fill="none" stroke="black" d="M534.63,-272.034C544.161,-275.646 553.741,-281.554 560,-290 592.248,-333.516 595.944,-529.898 595.999,-541.754"/>
</g>
<!-- s9&#45;&gt;re1_intermediate_m -->
<g id="edge28" class="edge"><title>s9&#45;&gt;re1_intermediate_m</title>
<path fill="none" stroke="black" d="M525.241,-284.929C537.405,-289.989 551.655,-296.739 560,-308 591.994,-351.174 595.884,-544.815 595.997,-542.271"/>
</g>
<!-- s9&#45;&gt;re2_intermediate_m -->
<g id="edge56" class="edge"><title>s9&#45;&gt;re2_intermediate_m</title>
<path fill="none" stroke="black" d="M528.413,-260.991C555.088,-254.04 593.509,-248.453 595.884,-253.48"/>
</g>
<!-- s9&#45;&gt;re2_intermediate_m -->
<g id="edge60" class="edge"><title>s9&#45;&gt;re2_intermediate_m</title>
<path fill="none" stroke="black" d="M534.745,-272.294C561.266,-268.317 594.93,-259.74 595.975,-254.259"/>
</g>
<!-- re8_intermediate_r -->
<g id="node103" class="node"><title>re8_intermediate_r</title>
<ellipse fill="black" stroke="black" cx="596" cy="-272" rx="0.036" ry="0.036"/>
</g>
<!-- s9&#45;&gt;re8_intermediate_r -->
<g id="edge114" class="edge"><title>s9&#45;&gt;re8_intermediate_r</title>
<path fill="none" stroke="black" d="M534.745,-272C560.845,-272 593.863,-272 595.901,-272"/>
</g>
<!-- s10 -->
<g id="node10" class="node"><title>s10</title>
<ellipse fill="none" stroke="black" cx="503" cy="-326" rx="32.1242" ry="18"/>
<text text-anchor="middle" x="503" y="-323.5" font-family="Times Roman,serif" font-size="10.00">Citrate</text>
</g>
<!-- s10&#45;&gt;re1_intermediate_m -->
<g id="edge24" class="edge"><title>s10&#45;&gt;re1_intermediate_m</title>
<path fill="none" stroke="black" d="M526.02,-338.858C537.815,-349.699 551.456,-365.466 560,-382 591.427,-442.813 595.931,-531.6 595.999,-541.774"/>
</g>
<!-- s10&#45;&gt;re1_intermediate_m -->
<g id="edge34" class="edge"><title>s10&#45;&gt;re1_intermediate_m</title>
<path fill="none" stroke="black" d="M514.94,-342.792C527.99,-357.106 548.562,-377.866 560,-400 590.684,-459.376 595.703,-545.421 595.987,-542.558"/>
</g>
<!-- s10&#45;&gt;re2_intermediate_m -->
<g id="edge58" class="edge"><title>s10&#45;&gt;re2_intermediate_m</title>
<path fill="none" stroke="black" d="M522.451,-311.545C534.087,-305.76 548.75,-298.899 560,-290 579.774,-274.359 595.502,-245.906 595.988,-253.606"/>
</g>
<!-- s10&#45;&gt;re2_intermediate_m -->
<g id="edge62" class="edge"><title>s10&#45;&gt;re2_intermediate_m</title>
<path fill="none" stroke="black" d="M534.956,-322.609C543.552,-318.921 552.528,-313.91 560,-308 579.774,-292.359 595.502,-263.906 595.988,-254.436"/>
</g>
<!-- re9_intermediate_r -->
<g id="node110" class="node"><title>re9_intermediate_r</title>
<ellipse fill="black" stroke="black" cx="596" cy="-326" rx="0.036" ry="0.036"/>
</g>
<!-- s10&#45;&gt;re9_intermediate_r -->
<g id="edge122" class="edge"><title>s10&#45;&gt;re9_intermediate_r</title>
<path fill="none" stroke="black" d="M535.527,-326C561.507,-326 593.903,-326 595.903,-326"/>
</g>
<!-- s11 -->
<g id="node11" class="node"><title>s11</title>
<ellipse fill="none" stroke="black" cx="319" cy="-88" rx="52.9405" ry="18"/>
<text text-anchor="middle" x="319" y="-85.5" font-family="Times Roman,serif" font-size="10.00">sa4_degraded</text>
</g>
<!-- s12 -->
<g id="node12" class="node"><title>s12</title>
<polyline fill="none" stroke="black" points="180,-36 150,-36 "/>
<path fill="none" stroke="black" d="M150,-36C144,-36 138,-30 138,-24"/>
<polyline fill="none" stroke="black" points="138,-24 138,-12 "/>
<path fill="none" stroke="black" d="M138,-12C138,-6 144,-1.61846e-14 150,-1.46056e-14"/>
<polyline fill="none" stroke="black" points="150,-1.46056e-14 180,-6.71068e-15 "/>
<path fill="none" stroke="black" d="M180,-6.71068e-15C186,-5.1317e-15 192,-6 192,-12"/>
<polyline fill="none" stroke="black" points="192,-12 192,-24 "/>
<path fill="none" stroke="black" d="M192,-24C192,-30 186,-36 180,-36"/>
<text text-anchor="middle" x="165" y="-15.5" font-family="Times Roman,serif" font-size="10.00">ALDO</text>
</g>
<!-- s12&#45;&gt;re3_intermediate_m -->
<g id="edge76" class="edge"><title>s12&#45;&gt;re3_intermediate_m</title>
<path fill="none" stroke="black" d="M190.294,-36.1804C207.625,-48.6364 227.702,-63.0669 228.94,-63.9567"/>
</g>
<!-- s13 -->
<g id="node13" class="node"><title>s13</title>
<polyline fill="none" stroke="black" points="518,-468 488,-468 "/>
<path fill="none" stroke="black" d="M488,-468C482,-468 476,-462 476,-456"/>
<polyline fill="none" stroke="black" points="476,-456 476,-444 "/>
<path fill="none" stroke="black" d="M476,-444C476,-438 482,-432 488,-432"/>
<polyline fill="none" stroke="black" points="488,-432 518,-432 "/>
<path fill="none" stroke="black" d="M518,-432C524,-432 530,-438 530,-444"/>
<polyline fill="none" stroke="black" points="530,-444 530,-456 "/>
<path fill="none" stroke="black" d="M530,-456C530,-462 524,-468 518,-468"/>
<text text-anchor="middle" x="503" y="-447.5" font-family="Times Roman,serif" font-size="10.00">pPFKL</text>
</g>
<!-- s13&#45;&gt;re1_intermediate_m -->
<g id="edge26" class="edge"><title>s13&#45;&gt;re1_intermediate_m</title>
<path fill="none" stroke="black" d="M530.178,-453.22C540.329,-457.821 551.453,-464.697 560,-473 581.956,-494.332 595.57,-531.806 595.99,-541.557"/>
</g>
<!-- s13&#45;&gt;re1_intermediate_m -->
<g id="edge40" class="edge"><title>s13&#45;&gt;re1_intermediate_m</title>
<path fill="none" stroke="black" d="M526.742,-468.015C537.752,-474.268 550.477,-481.748 560,-491 580.911,-511.316 594.254,-546.274 595.841,-543.148"/>
</g>
<!-- re10_intermediate_r -->
<g id="node117" class="node"><title>re10_intermediate_r</title>
<ellipse fill="black" stroke="black" cx="596" cy="-450" rx="0.036" ry="0.036"/>
</g>
<!-- s13&#45;&gt;re10_intermediate_r -->
<g id="edge130" class="edge"><title>s13&#45;&gt;re10_intermediate_r</title>
<path fill="none" stroke="black" d="M530.4,-450C556.975,-450 593.625,-450 595.89,-450"/>
</g>
<!-- s14 -->
<g id="node14" class="node"><title>s14</title>
<ellipse fill="none" stroke="black" cx="775" cy="-596" rx="52.9405" ry="18"/>
<text text-anchor="middle" x="775" y="-593.5" font-family="Times Roman,serif" font-size="10.00">sa8_degraded</text>
</g>
<!-- s15 -->
<g id="node15" class="node"><title>s15</title>
<ellipse fill="none" stroke="black" cx="775" cy="-650" rx="52.9405" ry="18"/>
<text text-anchor="middle" x="775" y="-647.5" font-family="Times Roman,serif" font-size="10.00">sa7_degraded</text>
</g>
<!-- s16 -->
<g id="node16" class="node"><title>s16</title>
<ellipse fill="none" stroke="black" cx="775" cy="-758" rx="53.0555" ry="18"/>
<text text-anchor="middle" x="775" y="-755.5" font-family="Times Roman,serif" font-size="10.00">sa5_degraded</text>
</g>
<!-- s17 -->
<g id="node17" class="node"><title>s17</title>
<ellipse fill="none" stroke="black" cx="775" cy="-704" rx="52.9405" ry="18"/>
<text text-anchor="middle" x="775" y="-701.5" font-family="Times Roman,serif" font-size="10.00">sa6_degraded</text>
</g>
<!-- s18 -->
<g id="node18" class="node"><title>s18</title>
<ellipse fill="none" stroke="black" cx="775" cy="-272" rx="52.9405" ry="18"/>
<text text-anchor="middle" x="775" y="-269.5" font-family="Times Roman,serif" font-size="10.00">sa9_degraded</text>
</g>
<!-- s20 -->
<g id="node19" class="node"><title>s20</title>
<ellipse fill="none" stroke="black" cx="775" cy="-450" rx="56.1328" ry="18"/>
<text text-anchor="middle" x="775" y="-447.5" font-family="Times Roman,serif" font-size="10.00">sa13_degraded</text>
</g>
<!-- s21 -->
<g id="node20" class="node"><title>s21</title>
<ellipse fill="none" stroke="black" cx="319" cy="-472" rx="52.9405" ry="18"/>
<text text-anchor="middle" x="319" y="-469.5" font-family="Times Roman,serif" font-size="10.00">sa3_degraded</text>
</g>
<!-- s19 -->
<g id="node21" class="node"><title>s19</title>
<ellipse fill="none" stroke="black" cx="775" cy="-326" rx="56.1328" ry="18"/>
<text text-anchor="middle" x="775" y="-323.5" font-family="Times Roman,serif" font-size="10.00">sa10_degraded</text>
</g>
<!-- s22 -->
<g id="node22" class="node"><title>s22</title>
<ellipse fill="none" stroke="black" cx="319" cy="-418" rx="41.8599" ry="18"/>
<text text-anchor="middle" x="319" y="-415.5" font-family="Times Roman,serif" font-size="10.00">F6P_proxy</text>
</g>
<!-- re1_intermediate_r -->
<g id="node24" class="node"><title>re1_intermediate_r</title>
<ellipse fill="black" stroke="black" cx="409" cy="-413" rx="0.036" ry="0.036"/>
</g>
<!-- s22&#45;&gt;re1_intermediate_r -->
<g id="edge4" class="edge"><title>s22&#45;&gt;re1_intermediate_r</title>
<path fill="none" stroke="black" d="M360.838,-415.676C383.607,-414.411 407.46,-413.086 408.929,-413.004"/>
</g>
<!-- s22&#45;&gt;re1_intermediate_m -->
<g id="edge42" class="edge"><title>s22&#45;&gt;re1_intermediate_m</title>
<path fill="none" stroke="black" d="M346.354,-431.805C371.811,-444.388 410.982,-463.081 446,-477 495.631,-496.727 512.693,-490.213 560,-515 577.162,-523.992 594.858,-540.901 595.947,-541.949"/>
</g>
<!-- re1 -->
<g id="node23" class="node"><title>re1</title>
<polygon fill="none" stroke="black" points="510,-414 496,-414 496,-400 510,-400 510,-414"/>
</g>
<!-- re1_intermediate_p -->
<g id="node27" class="node"><title>re1_intermediate_p</title>
<ellipse fill="black" stroke="black" cx="596" cy="-389" rx="0.036" ry="0.036"/>
</g>
<!-- re1&#45;&gt;re1_intermediate_p -->
<g id="edge6" class="edge"><title>re1&#45;&gt;re1_intermediate_p</title>
<path fill="none" stroke="black" d="M510.298,-405.588C531.879,-401.411 594.017,-389.384 595.954,-389.009"/>
</g>
<!-- re1&#45;&gt;re1_intermediate_m -->
<g id="edge10" class="edge"><title>re1&#45;&gt;re1_intermediate_m</title>
<path fill="none" stroke="black" d="M522.09,-407.782C534.419,-409.278 549.973,-413.173 560,-423 579.423,-442.036 595.491,-538.905 595.988,-541.928"/>
<polygon fill="none" stroke="black" points="521.977,-407.774 515.709,-411.339 510.008,-406.924 516.276,-403.359 521.977,-407.774"/>
</g>
<!-- re1_intermediate_r&#45;&gt;re1 -->
<g id="edge2" class="edge"><title>re1_intermediate_r&#45;&gt;re1</title>
<path fill="none" stroke="black" d="M409.068,-412.996C411.425,-412.845 474.296,-408.832 495.838,-407.457"/>
</g>
<!-- re1_intermediate_p&#45;&gt;s4 -->
<g id="edge8" class="edge"><title>re1_intermediate_p&#45;&gt;s4</title>
<path fill="none" stroke="black" d="M595.925,-388.988C592.769,-388.473 491.15,-372 409,-372 165,-372 165,-372 165,-372 69.917,-372 42.1623,-225.457 34.6183,-162.35"/>
<polygon fill="black" stroke="black" points="38.0827,-161.834 33.5029,-152.28 31.1252,-162.605 38.0827,-161.834"/>
</g>
<!-- re2 -->
<g id="node48" class="node"><title>re2</title>
<polygon fill="none" stroke="black" points="172,-233 158,-233 158,-219 172,-219 172,-233"/>
</g>
<!-- re2_intermediate_p -->
<g id="node52" class="node"><title>re2_intermediate_p</title>
<ellipse fill="black" stroke="black" cx="229" cy="-409" rx="0.036" ry="0.036"/>
</g>
<!-- re2&#45;&gt;re2_intermediate_p -->
<g id="edge48" class="edge"><title>re2&#45;&gt;re2_intermediate_p</title>
<path fill="none" stroke="black" d="M167.588,-233.4C179.374,-267.102 227.464,-404.609 228.964,-408.897"/>
</g>
<!-- re2&#45;&gt;re2_intermediate_m -->
<g id="edge52" class="edge"><title>re2&#45;&gt;re2_intermediate_m</title>
<path fill="none" stroke="black" d="M184.275,-226C213.435,-226 270.512,-226 319,-226 319,-226 319,-226 409,-226 476.64,-226 493.515,-232.553 560,-245 575.704,-247.94 594.767,-253.63 595.943,-253.983"/>
<polygon fill="none" stroke="black" points="184.061,-226 178.061,-230 172.061,-226 178.061,-222 184.061,-226"/>
</g>
<!-- re2_intermediate_r&#45;&gt;re2 -->
<g id="edge44" class="edge"><title>re2_intermediate_r&#45;&gt;re2</title>
<path fill="none" stroke="black" d="M101.046,-194.023C102.576,-194.788 141.51,-214.255 157.868,-222.434"/>
</g>
<!-- re2_intermediate_p&#45;&gt;s22 -->
<g id="edge50" class="edge"><title>re2_intermediate_p&#45;&gt;s22</title>
<path fill="none" stroke="black" d="M229.065,-409.007C230.281,-409.128 248.311,-410.931 267.91,-412.891"/>
<polygon fill="black" stroke="black" points="267.607,-416.378 277.905,-413.891 268.303,-409.413 267.607,-416.378"/>
</g>
<!-- re3 -->
<g id="node63" class="node"><title>re3</title>
<polygon fill="none" stroke="black" points="172,-106 158,-106 158,-92 172,-92 172,-106"/>
</g>
<!-- re3_intermediate_p -->
<g id="node67" class="node"><title>re3_intermediate_p</title>
<ellipse fill="black" stroke="black" cx="229" cy="-93" rx="0.036" ry="0.036"/>
</g>
<!-- re3&#45;&gt;re3_intermediate_p -->
<g id="edge70" class="edge"><title>re3&#45;&gt;re3_intermediate_p</title>
<path fill="none" stroke="black" d="M172.342,-98.3117C188.627,-96.785 226.532,-93.2314 228.885,-93.0108"/>
</g>
<!-- re3&#45;&gt;re3_intermediate_m -->
<g id="edge74" class="edge"><title>re3&#45;&gt;re3_intermediate_m</title>
<path fill="none" stroke="black" d="M182.883,-89.2203C201.101,-79.2571 226.955,-65.1184 228.885,-64.0628"/>
<polygon fill="none" stroke="black" points="182.87,-89.2273 179.525,-95.6156 172.342,-94.9851 175.687,-88.5967 182.87,-89.2273"/>
</g>
<!-- re3_intermediate_r&#45;&gt;re3 -->
<g id="edge66" class="edge"><title>re3_intermediate_r&#45;&gt;re3</title>
<path fill="none" stroke="black" d="M101.046,-102.997C102.576,-102.902 141.51,-100.468 157.868,-99.4458"/>
</g>
<!-- re3_intermediate_p&#45;&gt;s11 -->
<g id="edge72" class="edge"><title>re3_intermediate_p&#45;&gt;s11</title>
<path fill="none" stroke="black" d="M229.065,-92.9964C230.039,-92.9423 241.797,-92.289 256.51,-91.4717"/>
<polygon fill="black" stroke="black" points="256.73,-94.9649 266.52,-90.9155 256.342,-87.9757 256.73,-94.9649"/>
</g>
<!-- re4 -->
<g id="node74" class="node"><title>re4</title>
<polygon fill="none" stroke="black" points="646,-603 632,-603 632,-589 646,-589 646,-603"/>
</g>
<!-- re4_intermediate_p -->
<g id="node78" class="node"><title>re4_intermediate_p</title>
<ellipse fill="black" stroke="black" cx="682" cy="-596" rx="0.036" ry="0.036"/>
</g>
<!-- re4&#45;&gt;re4_intermediate_p -->
<g id="edge84" class="edge"><title>re4&#45;&gt;re4_intermediate_p</title>
<path fill="none" stroke="black" d="M646.101,-596C657.932,-596 680.531,-596 681.932,-596"/>
</g>
<!-- re4_intermediate_r&#45;&gt;re4 -->
<g id="edge80" class="edge"><title>re4_intermediate_r&#45;&gt;re4</title>
<path fill="none" stroke="black" d="M596.123,-596C597.976,-596 620.231,-596 631.924,-596"/>
</g>
<!-- re4_intermediate_p&#45;&gt;s14 -->
<g id="edge86" class="edge"><title>re4_intermediate_p&#45;&gt;s14</title>
<path fill="none" stroke="black" d="M682.067,-596C683.101,-596 695.904,-596 711.694,-596"/>
<polygon fill="black" stroke="black" points="711.832,-599.5 721.832,-596 711.832,-592.5 711.832,-599.5"/>
</g>
<!-- re5 -->
<g id="node81" class="node"><title>re5</title>
<polygon fill="none" stroke="black" points="646,-657 632,-657 632,-643 646,-643 646,-657"/>
</g>
<!-- re5_intermediate_p -->
<g id="node85" class="node"><title>re5_intermediate_p</title>
<ellipse fill="black" stroke="black" cx="682" cy="-650" rx="0.036" ry="0.036"/>
</g>
<!-- re5&#45;&gt;re5_intermediate_p -->
<g id="edge92" class="edge"><title>re5&#45;&gt;re5_intermediate_p</title>
<path fill="none" stroke="black" d="M646.101,-650C657.932,-650 680.531,-650 681.932,-650"/>
</g>
<!-- re5_intermediate_r&#45;&gt;re5 -->
<g id="edge88" class="edge"><title>re5_intermediate_r&#45;&gt;re5</title>
<path fill="none" stroke="black" d="M596.123,-650C597.976,-650 620.231,-650 631.924,-650"/>
</g>
<!-- re5_intermediate_p&#45;&gt;s15 -->
<g id="edge94" class="edge"><title>re5_intermediate_p&#45;&gt;s15</title>
<path fill="none" stroke="black" d="M682.067,-650C683.101,-650 695.904,-650 711.694,-650"/>
<polygon fill="black" stroke="black" points="711.832,-653.5 721.832,-650 711.832,-646.5 711.832,-653.5"/>
</g>
<!-- re6 -->
<g id="node88" class="node"><title>re6</title>
<polygon fill="none" stroke="black" points="646,-765 632,-765 632,-751 646,-751 646,-765"/>
</g>
<!-- re6_intermediate_p -->
<g id="node92" class="node"><title>re6_intermediate_p</title>
<ellipse fill="black" stroke="black" cx="682" cy="-758" rx="0.036" ry="0.036"/>
</g>
<!-- re6&#45;&gt;re6_intermediate_p -->
<g id="edge100" class="edge"><title>re6&#45;&gt;re6_intermediate_p</title>
<path fill="none" stroke="black" d="M646.101,-758C657.932,-758 680.531,-758 681.932,-758"/>
</g>
<!-- re6_intermediate_r&#45;&gt;re6 -->
<g id="edge96" class="edge"><title>re6_intermediate_r&#45;&gt;re6</title>
<path fill="none" stroke="black" d="M596.123,-758C597.976,-758 620.231,-758 631.924,-758"/>
</g>
<!-- re6_intermediate_p&#45;&gt;s16 -->
<g id="edge102" class="edge"><title>re6_intermediate_p&#45;&gt;s16</title>
<path fill="none" stroke="black" d="M682.067,-758C683.092,-758 695.679,-758 711.277,-758"/>
<polygon fill="black" stroke="black" points="711.301,-761.5 721.301,-758 711.301,-754.5 711.301,-761.5"/>
</g>
<!-- re7 -->
<g id="node95" class="node"><title>re7</title>
<polygon fill="none" stroke="black" points="646,-711 632,-711 632,-697 646,-697 646,-711"/>
</g>
<!-- re7_intermediate_p -->
<g id="node99" class="node"><title>re7_intermediate_p</title>
<ellipse fill="black" stroke="black" cx="682" cy="-704" rx="0.036" ry="0.036"/>
</g>
<!-- re7&#45;&gt;re7_intermediate_p -->
<g id="edge108" class="edge"><title>re7&#45;&gt;re7_intermediate_p</title>
<path fill="none" stroke="black" d="M646.101,-704C657.932,-704 680.531,-704 681.932,-704"/>
</g>
<!-- re7_intermediate_r&#45;&gt;re7 -->
<g id="edge104" class="edge"><title>re7_intermediate_r&#45;&gt;re7</title>
<path fill="none" stroke="black" d="M596.123,-704C597.976,-704 620.231,-704 631.924,-704"/>
</g>
<!-- re7_intermediate_p&#45;&gt;s17 -->
<g id="edge110" class="edge"><title>re7_intermediate_p&#45;&gt;s17</title>
<path fill="none" stroke="black" d="M682.067,-704C683.101,-704 695.904,-704 711.694,-704"/>
<polygon fill="black" stroke="black" points="711.832,-707.5 721.832,-704 711.832,-700.5 711.832,-707.5"/>
</g>
<!-- re8 -->
<g id="node102" class="node"><title>re8</title>
<polygon fill="none" stroke="black" points="646,-279 632,-279 632,-265 646,-265 646,-279"/>
</g>
<!-- re8_intermediate_p -->
<g id="node106" class="node"><title>re8_intermediate_p</title>
<ellipse fill="black" stroke="black" cx="682" cy="-272" rx="0.036" ry="0.036"/>
</g>
<!-- re8&#45;&gt;re8_intermediate_p -->
<g id="edge116" class="edge"><title>re8&#45;&gt;re8_intermediate_p</title>
<path fill="none" stroke="black" d="M646.101,-272C657.932,-272 680.531,-272 681.932,-272"/>
</g>
<!-- re8_intermediate_r&#45;&gt;re8 -->
<g id="edge112" class="edge"><title>re8_intermediate_r&#45;&gt;re8</title>
<path fill="none" stroke="black" d="M596.123,-272C597.976,-272 620.231,-272 631.924,-272"/>
</g>
<!-- re8_intermediate_p&#45;&gt;s18 -->
<g id="edge118" class="edge"><title>re8_intermediate_p&#45;&gt;s18</title>
<path fill="none" stroke="black" d="M682.067,-272C683.101,-272 695.904,-272 711.694,-272"/>
<polygon fill="black" stroke="black" points="711.832,-275.5 721.832,-272 711.832,-268.5 711.832,-275.5"/>
</g>
<!-- re9 -->
<g id="node109" class="node"><title>re9</title>
<polygon fill="none" stroke="black" points="646,-333 632,-333 632,-319 646,-319 646,-333"/>
</g>
<!-- re9_intermediate_p -->
<g id="node113" class="node"><title>re9_intermediate_p</title>
<ellipse fill="black" stroke="black" cx="682" cy="-326" rx="0.036" ry="0.036"/>
</g>
<!-- re9&#45;&gt;re9_intermediate_p -->
<g id="edge124" class="edge"><title>re9&#45;&gt;re9_intermediate_p</title>
<path fill="none" stroke="black" d="M646.101,-326C657.932,-326 680.531,-326 681.932,-326"/>
</g>
<!-- re9_intermediate_r&#45;&gt;re9 -->
<g id="edge120" class="edge"><title>re9_intermediate_r&#45;&gt;re9</title>
<path fill="none" stroke="black" d="M596.123,-326C597.976,-326 620.231,-326 631.924,-326"/>
</g>
<!-- re9_intermediate_p&#45;&gt;s19 -->
<g id="edge126" class="edge"><title>re9_intermediate_p&#45;&gt;s19</title>
<path fill="none" stroke="black" d="M682.067,-326C683.024,-326 694.048,-326 708.192,-326"/>
<polygon fill="black" stroke="black" points="708.397,-329.5 718.397,-326 708.397,-322.5 708.397,-329.5"/>
</g>
<!-- re10 -->
<g id="node116" class="node"><title>re10</title>
<polygon fill="none" stroke="black" points="646,-457 632,-457 632,-443 646,-443 646,-457"/>
</g>
<!-- re10_intermediate_p -->
<g id="node120" class="node"><title>re10_intermediate_p</title>
<ellipse fill="black" stroke="black" cx="682" cy="-450" rx="0.036" ry="0.036"/>
</g>
<!-- re10&#45;&gt;re10_intermediate_p -->
<g id="edge132" class="edge"><title>re10&#45;&gt;re10_intermediate_p</title>
<path fill="none" stroke="black" d="M646.101,-450C657.932,-450 680.531,-450 681.932,-450"/>
</g>
<!-- re10_intermediate_r&#45;&gt;re10 -->
<g id="edge128" class="edge"><title>re10_intermediate_r&#45;&gt;re10</title>
<path fill="none" stroke="black" d="M596.123,-450C597.976,-450 620.231,-450 631.924,-450"/>
</g>
<!-- re10_intermediate_p&#45;&gt;s20 -->
<g id="edge134" class="edge"><title>re10_intermediate_p&#45;&gt;s20</title>
<path fill="none" stroke="black" d="M682.067,-450C683.024,-450 694.048,-450 708.192,-450"/>
<polygon fill="black" stroke="black" points="708.397,-453.5 718.397,-450 708.397,-446.5 708.397,-453.5"/>
</g>
<!-- re11 -->
<g id="node123" class="node"><title>re11</title>
<polygon fill="none" stroke="black" points="172,-479 158,-479 158,-465 172,-465 172,-479"/>
</g>
<!-- re11_intermediate_p -->
<g id="node127" class="node"><title>re11_intermediate_p</title>
<ellipse fill="black" stroke="black" cx="229" cy="-472" rx="0.036" ry="0.036"/>
</g>
<!-- re11&#45;&gt;re11_intermediate_p -->
<g id="edge140" class="edge"><title>re11&#45;&gt;re11_intermediate_p</title>
<path fill="none" stroke="black" d="M172.342,-472C188.627,-472 226.532,-472 228.885,-472"/>
</g>
<!-- re11_intermediate_r&#45;&gt;re11 -->
<g id="edge136" class="edge"><title>re11_intermediate_r&#45;&gt;re11</title>
<path fill="none" stroke="black" d="M101.046,-472C102.576,-472 141.51,-472 157.868,-472"/>
</g>
<!-- re11_intermediate_p&#45;&gt;s21 -->
<g id="edge142" class="edge"><title>re11_intermediate_p&#45;&gt;s21</title>
<path fill="none" stroke="black" d="M229.065,-472C230.017,-472 241.266,-472 255.506,-472"/>
<polygon fill="black" stroke="black" points="255.753,-475.5 265.752,-472 255.752,-468.5 255.753,-475.5"/>
</g>
</g>
</svg>
