<?xml version="1.0" encoding="UTF-8" standalone="no"?>
<!DOCTYPE svg PUBLIC "-//W3C//DTD SVG 1.1//EN"
 "http://www.w3.org/Graphics/SVG/1.1/DTD/svg11.dtd">
<!-- Generated by graphviz version 2.30.1 (20140821.0912)
 -->
<!-- Title: G Pages: 1 -->
<svg width="1198pt" height="305pt"
 viewBox="0.00 0.00 1198.00 305.00" xmlns="http://www.w3.org/2000/svg" xmlns:xlink="http://www.w3.org/1999/xlink">
<g id="graph0" class="graph" transform="scale(1 1) rotate(0) translate(4 301)">
<title>G</title>
<polygon fill="white" stroke="white" points="-4,5 -4,-301 1195,-301 1195,5 -4,5"/>
<!-- PIP2_PHGFP_PM -->
<g id="PIP2_PHGFP_PM [CHEBI:18348]" class="node"><title>PIP2_PHGFP_PM</title>
<path fill="none" stroke="black" d="M583.5,-36C583.5,-36 516.5,-36 516.5,-36 510.5,-36 504.5,-30 504.5,-24 504.5,-24 504.5,-12 504.5,-12 504.5,-6 510.5,-0 516.5,-0 516.5,-0 583.5,-0 583.5,-0 589.5,-0 595.5,-6 595.5,-12 595.5,-12 595.5,-24 595.5,-24 595.5,-30 589.5,-36 583.5,-36"/>
<text text-anchor="middle" x="550" y="-15.5" font-family="Times,serif" font-size="10.00">PIP2_PHGFP_PM</text>
</g>
<!-- PIP2_PH_hyd_intermediate_r -->
<g id="node26" class="node"><title>PIP2_PH_hyd_intermediate_r</title>
<ellipse fill="black" stroke="black" cx="633" cy="-52" rx="0.036" ry="0.036"/>
</g>
<!-- PIP2_PHGFP_PM&#45;&gt;PIP2_PH_hyd_intermediate_r -->
<g id="edge19" class="edge"><title>PIP2_PHGFP_PM&#45;&gt;PIP2_PH_hyd_intermediate_r</title>
<path fill="none" stroke="black" d="M594.346,-36.1944C613.002,-44.0256 630.849,-51.517 631.947,-51.9776"/>
</g>
<!-- PH_GFP_Cyt -->
<g id="PH_GFP_Cyt" class="node"><title>PH_GFP_Cyt</title>
<path fill="none" stroke="black" d="M877.5,-152C877.5,-152 828.5,-152 828.5,-152 822.5,-152 816.5,-146 816.5,-140 816.5,-140 816.5,-128 816.5,-128 816.5,-122 822.5,-116 828.5,-116 828.5,-116 877.5,-116 877.5,-116 883.5,-116 889.5,-122 889.5,-128 889.5,-128 889.5,-140 889.5,-140 889.5,-146 883.5,-152 877.5,-152"/>
<text text-anchor="middle" x="853" y="-131.5" font-family="Times,serif" font-size="10.00">PH_GFP_Cyt</text>
</g>
<!-- PIP2_PH_intermediate_r -->
<g id="node30" class="node"><title>PIP2_PH_intermediate_r</title>
<ellipse fill="black" stroke="black" cx="927" cy="-88" rx="0.036" ry="0.036"/>
</g>
<!-- PH_GFP_Cyt&#45;&gt;PIP2_PH_intermediate_r -->
<g id="edge27" class="edge"><title>PH_GFP_Cyt&#45;&gt;PIP2_PH_intermediate_r</title>
<path fill="none" stroke="black" d="M882.456,-115.82C901.953,-103.364 924.54,-88.9331 925.932,-88.0433"/>
</g>
<!-- IP3_PHGFP_intermediate_r -->
<g id="node39" class="node"><title>IP3_PHGFP_intermediate_r</title>
<ellipse fill="black" stroke="black" cx="927" cy="-170" rx="0.036" ry="0.036"/>
</g>
<!-- PH_GFP_Cyt&#45;&gt;IP3_PHGFP_intermediate_r -->
<g id="edge40" class="edge"><title>PH_GFP_Cyt&#45;&gt;IP3_PHGFP_intermediate_r</title>
<path fill="none" stroke="black" d="M889.578,-151.789C907.151,-160.575 924.857,-169.429 925.947,-169.974"/>
</g>
<!-- PI_PM -->
<g id="PI_PM [CHEBI:28874]" class="node"><title>PI_PM</title>
<ellipse fill="none" stroke="black" cx="44" cy="-171" rx="18" ry="18"/>
<text text-anchor="middle" x="44" y="-168.5" font-family="Times,serif" font-size="10.00">PI_PM</text>
</g>
<!-- PIPSyn_intermediate_r -->
<g id="node15" class="node"><title>PIPSyn_intermediate_r</title>
<ellipse fill="black" stroke="black" cx="124" cy="-171" rx="0.036" ry="0.036"/>
</g>
<!-- PI_PM&#45;&gt;PIPSyn_intermediate_r -->
<g id="edge2" class="edge"><title>PI_PM&#45;&gt;PIPSyn_intermediate_r</title>
<path fill="none" stroke="black" d="M62.3107,-171C84.5721,-171 120.658,-171 122.891,-171"/>
</g>
<!-- stim_PM -->
<g id="stim_PM" class="node"><title>stim_PM</title>
<ellipse fill="none" stroke="black" cx="550" cy="-72" rx="31.3996" ry="18"/>
<text text-anchor="middle" x="550" y="-69.5" font-family="Times,serif" font-size="10.00">stim_PM</text>
</g>
<!-- PLCact_intermediate_m -->
<g id="node24" class="node"><title>PLCact_intermediate_m</title>
<ellipse fill="black" stroke="black" cx="633" cy="-72" rx="0.036" ry="0.036"/>
</g>
<!-- stim_PM&#45;&gt;PLCact_intermediate_m -->
<g id="edge17" class="edge"><title>stim_PM&#45;&gt;PLCact_intermediate_m</title>
<path fill="none" stroke="black" d="M581.623,-72C603.844,-72 630.289,-72 631.921,-72"/>
</g>
<!-- IP3_PHGFP_Cyt -->
<g id="IP3_PHGFP_Cyt [CHEBI:16595]" class="node"><title>IP3_PHGFP_Cyt</title>
<path fill="none" stroke="black" d="M1178,-188C1178,-188 1116,-188 1116,-188 1110,-188 1104,-182 1104,-176 1104,-176 1104,-164 1104,-164 1104,-158 1110,-152 1116,-152 1116,-152 1178,-152 1178,-152 1184,-152 1190,-158 1190,-164 1190,-164 1190,-176 1190,-176 1190,-182 1184,-188 1178,-188"/>
<text text-anchor="middle" x="1147" y="-167.5" font-family="Times,serif" font-size="10.00">IP3_PHGFP_Cyt</text>
</g>
<!-- PIP2_PM -->
<g id="PIP2_PM [CHEBI:18348]" class="node"><title>PIP2_PM</title>
<ellipse fill="none" stroke="black" cx="550" cy="-171" rx="32.2534" ry="18"/>
<text text-anchor="middle" x="550" y="-168.5" font-family="Times,serif" font-size="10.00">PIP2_PM</text>
</g>
<!-- PIP2_hyd_intermediate_r -->
<g id="node18" class="node"><title>PIP2_hyd_intermediate_r</title>
<ellipse fill="black" stroke="black" cx="633" cy="-175" rx="0.036" ry="0.036"/>
</g>
<!-- PIP2_PM&#45;&gt;PIP2_hyd_intermediate_r -->
<g id="edge6" class="edge"><title>PIP2_PM&#45;&gt;PIP2_hyd_intermediate_r</title>
<path fill="none" stroke="black" d="M582.549,-172.558C604.581,-173.646 630.335,-174.918 631.923,-174.996"/>
</g>
<!-- PIP2_PM&#45;&gt;PIP2_PH_intermediate_r -->
<g id="edge28" class="edge"><title>PIP2_PM&#45;&gt;PIP2_PH_intermediate_r</title>
<path fill="none" stroke="black" d="M570.921,-156.874C593.679,-141.576 632.617,-117.902 670,-107 777.817,-75.5573 921.432,-87.6065 925.893,-87.9907"/>
</g>
<!-- PIP_PM -->
<g id="PIP_PM [CHEBI:26034]" class="node"><title>PIP_PM</title>
<ellipse fill="none" stroke="black" cx="276" cy="-171" rx="29.3664" ry="18"/>
<text text-anchor="middle" x="276" y="-168.5" font-family="Times,serif" font-size="10.00">PIP_PM</text>
</g>
<!-- PIP2Syn_intermediate_r -->
<g id="node36" class="node"><title>PIP2Syn_intermediate_r</title>
<ellipse fill="black" stroke="black" cx="342" cy="-171" rx="0.036" ry="0.036"/>
</g>
<!-- PIP_PM&#45;&gt;PIP2Syn_intermediate_r -->
<g id="edge35" class="edge"><title>PIP_PM&#45;&gt;PIP2Syn_intermediate_r</title>
<path fill="none" stroke="black" d="M305.631,-171C322.138,-171 339.856,-171 340.947,-171"/>
</g>
<!-- DAG_PM -->
<g id="DAG_PM [CHEBI:18035]" class="node"><title>DAG_PM</title>
<ellipse fill="none" stroke="black" cx="853" cy="-188" rx="34.9638" ry="18"/>
<text text-anchor="middle" x="853" y="-185.5" font-family="Times,serif" font-size="10.00">DAG_PM</text>
</g>
<!-- hv_Cytosol -->
<g id="hv_Cytosol [CHEBI:30212]" class="node"><title>hv_Cytosol</title>
<ellipse fill="none" stroke="black" cx="44" cy="-225" rx="38.0276" ry="18"/>
<text text-anchor="middle" x="44" y="-222.5" font-family="Times,serif" font-size="10.00">hv_Cytosol</text>
</g>
<!-- IP3X_Cytosol -->
<g id="IP3X_Cytosol [CHEBI:16595]" class="node"><title>IP3X_Cytosol</title>
<ellipse fill="none" stroke="black" cx="44" cy="-279" rx="44.3" ry="18"/>
<text text-anchor="middle" x="44" y="-276.5" font-family="Times,serif" font-size="10.00">IP3X_Cytosol</text>
</g>
<!-- PLC_PM -->
<g id="PLC_PM" class="node"><title>PLC_PM</title>
<path fill="none" stroke="black" d="M420,-133C420,-133 390,-133 390,-133 384,-133 378,-127 378,-121 378,-121 378,-109 378,-109 378,-103 384,-97 390,-97 390,-97 420,-97 420,-97 426,-97 432,-103 432,-109 432,-109 432,-121 432,-121 432,-127 426,-133 420,-133"/>
<text text-anchor="middle" x="405" y="-112.5" font-family="Times,serif" font-size="10.00">PLC_PM</text>
</g>
<!-- PLCact_intermediate_r -->
<g id="node22" class="node"><title>PLCact_intermediate_r</title>
<ellipse fill="black" stroke="black" cx="468" cy="-115" rx="0.036" ry="0.036"/>
</g>
<!-- PLC_PM&#45;&gt;PLCact_intermediate_r -->
<g id="edge13" class="edge"><title>PLC_PM&#45;&gt;PLCact_intermediate_r</title>
<path fill="none" stroke="black" d="M432.224,-115C448.24,-115 465.861,-115 466.947,-115"/>
</g>
<!-- PLC_act_PM -->
<g id="PLC_act_PM" class="node"><title>PLC_act_PM</title>
<path fill="none" stroke="black" d="M729.5,-184C729.5,-184 682.5,-184 682.5,-184 676.5,-184 670.5,-178 670.5,-172 670.5,-172 670.5,-160 670.5,-160 670.5,-154 676.5,-148 682.5,-148 682.5,-148 729.5,-148 729.5,-148 735.5,-148 741.5,-154 741.5,-160 741.5,-160 741.5,-172 741.5,-172 741.5,-178 735.5,-184 729.5,-184"/>
<text text-anchor="middle" x="706" y="-163.5" font-family="Times,serif" font-size="10.00">PLC_act_PM</text>
</g>
<!-- PIP2_hyd_intermediate_m -->
<g id="node20" class="node"><title>PIP2_hyd_intermediate_m</title>
<ellipse fill="black" stroke="black" cx="779" cy="-184" rx="0.036" ry="0.036"/>
</g>
<!-- PLC_act_PM&#45;&gt;PIP2_hyd_intermediate_m -->
<g id="edge11" class="edge"><title>PLC_act_PM&#45;&gt;PIP2_hyd_intermediate_m</title>
<path fill="none" stroke="black" d="M741.668,-174.789C759.128,-179.215 776.856,-183.71 777.947,-183.987"/>
</g>
<!-- PIP2_PH_hyd_intermediate_m -->
<g id="node28" class="node"><title>PIP2_PH_hyd_intermediate_m</title>
<ellipse fill="black" stroke="black" cx="779" cy="-159" rx="0.036" ry="0.036"/>
</g>
<!-- PLC_act_PM&#45;&gt;PIP2_PH_hyd_intermediate_m -->
<g id="edge25" class="edge"><title>PLC_act_PM&#45;&gt;PIP2_PH_hyd_intermediate_m</title>
<path fill="none" stroke="black" d="M741.668,-162.582C759.128,-160.861 776.856,-159.113 777.947,-159.005"/>
</g>
<!-- IP3_Cyt -->
<g id="IP3_Cyt [CHEBI:16595]" class="node"><title>IP3_Cyt</title>
<ellipse fill="none" stroke="black" cx="853" cy="-242" rx="29.3664" ry="18"/>
<text text-anchor="middle" x="853" y="-239.5" font-family="Times,serif" font-size="10.00">IP3_Cyt</text>
</g>
<!-- IP3deg_intermediate_r -->
<g id="node33" class="node"><title>IP3deg_intermediate_r</title>
<ellipse fill="black" stroke="black" cx="927" cy="-242" rx="0.036" ry="0.036"/>
</g>
<!-- IP3_Cyt&#45;&gt;IP3deg_intermediate_r -->
<g id="edge32" class="edge"><title>IP3_Cyt&#45;&gt;IP3deg_intermediate_r</title>
<path fill="none" stroke="black" d="M882.456,-242C901.953,-242 924.54,-242 925.932,-242"/>
</g>
<!-- IP3_Cyt&#45;&gt;IP3_PHGFP_intermediate_r -->
<g id="edge39" class="edge"><title>IP3_Cyt&#45;&gt;IP3_PHGFP_intermediate_r</title>
<path fill="none" stroke="black" d="M873.411,-228.838C879.003,-224.683 884.951,-219.894 890,-215 907.817,-197.731 924.899,-171.689 925.949,-170.078"/>
</g>
<!-- PIPSyn -->
<g id="node14" class="node"><title>PIPSyn</title>
<polygon fill="none" stroke="black" points="174,-178 160,-178 160,-164 174,-164 174,-178"/>
</g>
<!-- PIPSyn_intermediate_p -->
<g id="node16" class="node"><title>PIPSyn_intermediate_p</title>
<ellipse fill="black" stroke="black" cx="210" cy="-171" rx="0.036" ry="0.036"/>
</g>
<!-- PIPSyn&#45;&gt;PIPSyn_intermediate_p -->
<g id="edge3" class="edge"><title>PIPSyn&#45;&gt;PIPSyn_intermediate_p</title>
<path fill="none" stroke="black" d="M174.05,-171C185.098,-171 207.54,-171 208.932,-171"/>
</g>
<!-- PIPSyn_intermediate_r&#45;&gt;PIPSyn -->
<g id="edge1" class="edge"><title>PIPSyn_intermediate_r&#45;&gt;PIPSyn</title>
<path fill="none" stroke="black" d="M125.118,-171C126.921,-171 149.016,-171 159.95,-171"/>
</g>
<!-- PIPSyn_intermediate_p&#45;&gt;PIP_PM -->
<g id="edge4" class="edge"><title>PIPSyn_intermediate_p&#45;&gt;PIP_PM</title>
<path fill="none" stroke="black" d="M211.046,-171C211.861,-171 223.284,-171 236.257,-171"/>
<polygon fill="black" stroke="black" points="236.329,-174.5 246.329,-171 236.329,-167.5 236.329,-174.5"/>
</g>
<!-- PIP2_hyd -->
<g id="node17" class="node"><title>PIP2_hyd</title>
<polygon fill="none" stroke="black" points="713,-216 699,-216 699,-202 713,-202 713,-216"/>
</g>
<!-- PIP2_hyd_intermediate_p -->
<g id="node19" class="node"><title>PIP2_hyd_intermediate_p</title>
<ellipse fill="black" stroke="black" cx="779" cy="-209" rx="0.036" ry="0.036"/>
</g>
<!-- PIP2_hyd&#45;&gt;PIP2_hyd_intermediate_p -->
<g id="edge7" class="edge"><title>PIP2_hyd&#45;&gt;PIP2_hyd_intermediate_p</title>
<path fill="none" stroke="black" d="M713.053,-209C729.687,-209 775.044,-209 777.862,-209"/>
</g>
<!-- PIP2_hyd&#45;&gt;PIP2_hyd_intermediate_m -->
<g id="edge10" class="edge"><title>PIP2_hyd&#45;&gt;PIP2_hyd_intermediate_m</title>
<path fill="none" stroke="black" d="M713.053,-206.869C729.687,-201.012 775.044,-185.041 777.862,-184.048"/>
</g>
<!-- PIP2_hyd_intermediate_r&#45;&gt;PIP2_hyd -->
<g id="edge5" class="edge"><title>PIP2_hyd_intermediate_r&#45;&gt;PIP2_hyd</title>
<path fill="none" stroke="black" d="M634.057,-175.03C635.238,-175.64 654.367,-185.521 670,-193 680.005,-197.786 691.751,-203.093 698.774,-206.233"/>
</g>
<!-- PIP2_hyd_intermediate_p&#45;&gt;DAG_PM -->
<g id="edge8" class="edge"><title>PIP2_hyd_intermediate_p&#45;&gt;DAG_PM</title>
<path fill="none" stroke="black" d="M780.052,-208.985C781.047,-208.695 796.102,-204.304 812.185,-199.613"/>
<polygon fill="black" stroke="black" points="813.595,-202.847 822.215,-196.687 811.635,-196.127 813.595,-202.847"/>
</g>
<!-- PIP2_hyd_intermediate_p&#45;&gt;IP3_Cyt -->
<g id="edge9" class="edge"><title>PIP2_hyd_intermediate_p&#45;&gt;IP3_Cyt</title>
<path fill="none" stroke="black" d="M780.052,-209.024C781.203,-209.552 801.196,-218.715 819.812,-227.247"/>
<polygon fill="black" stroke="black" points="818.484,-230.489 829.033,-231.474 821.401,-224.125 818.484,-230.489"/>
</g>
<!-- PLCact -->
<g id="node21" class="node"><title>PLCact</title>
<polygon fill="none" stroke="black" points="557,-122 543,-122 543,-108 557,-108 557,-122"/>
</g>
<!-- PLCact_intermediate_p -->
<g id="node23" class="node"><title>PLCact_intermediate_p</title>
<ellipse fill="black" stroke="black" cx="633" cy="-90" rx="0.036" ry="0.036"/>
</g>
<!-- PLCact&#45;&gt;PLCact_intermediate_p -->
<g id="edge14" class="edge"><title>PLCact&#45;&gt;PLCact_intermediate_p</title>
<path fill="none" stroke="black" d="M557.088,-113.121C575.337,-107.489 628.532,-91.0705 631.839,-90.0498"/>
</g>
<!-- PLCact&#45;&gt;PLCact_intermediate_m -->
<g id="edge16" class="edge"><title>PLCact&#45;&gt;PLCact_intermediate_m</title>
<path fill="none" stroke="black" d="M557.066,-113.473C565.944,-111.101 582.849,-106.058 596,-99 613.072,-89.8379 630.852,-73.0885 631.947,-72.0506"/>
</g>
<!-- PLCact_intermediate_r&#45;&gt;PLCact -->
<g id="edge12" class="edge"><title>PLCact_intermediate_r&#45;&gt;PLCact</title>
<path fill="none" stroke="black" d="M469.058,-115C471.064,-115 524.571,-115 542.905,-115"/>
</g>
<!-- PLCact_intermediate_p&#45;&gt;PLC_act_PM -->
<g id="edge15" class="edge"><title>PLCact_intermediate_p&#45;&gt;PLC_act_PM</title>
<path fill="none" stroke="black" d="M634.05,-90.0857C635.072,-91.8442 651.707,-120.273 670,-139 670.751,-139.769 671.524,-140.534 672.315,-141.294"/>
<polygon fill="black" stroke="black" points="669.991,-143.911 679.79,-147.94 674.643,-138.68 669.991,-143.911"/>
</g>
<!-- PIP2_PH_hyd -->
<g id="node25" class="node"><title>PIP2_PH_hyd</title>
<polygon fill="none" stroke="black" points="713,-130 699,-130 699,-116 713,-116 713,-130"/>
</g>
<!-- PIP2_PH_hyd_intermediate_p -->
<g id="node27" class="node"><title>PIP2_PH_hyd_intermediate_p</title>
<ellipse fill="black" stroke="black" cx="779" cy="-137" rx="0.036" ry="0.036"/>
</g>
<!-- PIP2_PH_hyd&#45;&gt;PIP2_PH_hyd_intermediate_p -->
<g id="edge20" class="edge"><title>PIP2_PH_hyd&#45;&gt;PIP2_PH_hyd_intermediate_p</title>
<path fill="none" stroke="black" d="M713.053,-124.194C729.687,-127.473 775.044,-136.417 777.862,-136.973"/>
</g>
<!-- PIP2_PH_hyd&#45;&gt;PIP2_PH_hyd_intermediate_m -->
<g id="edge24" class="edge"><title>PIP2_PH_hyd&#45;&gt;PIP2_PH_hyd_intermediate_m</title>
<path fill="none" stroke="black" d="M713.013,-125.577C720.04,-128.629 731.982,-133.937 742,-139 757.825,-146.998 776.774,-158.269 777.943,-158.966"/>
</g>
<!-- PIP2_PH_hyd_intermediate_r&#45;&gt;PIP2_PH_hyd -->
<g id="edge18" class="edge"><title>PIP2_PH_hyd_intermediate_r&#45;&gt;PIP2_PH_hyd</title>
<path fill="none" stroke="black" d="M634.051,-52.0515C635.798,-53.7983 681.544,-99.5436 698.637,-116.637"/>
</g>
<!-- PIP2_PH_hyd_intermediate_p&#45;&gt;PH_GFP_Cyt -->
<g id="edge21" class="edge"><title>PIP2_PH_hyd_intermediate_p&#45;&gt;PH_GFP_Cyt</title>
<path fill="none" stroke="black" d="M780.052,-136.998C780.923,-136.962 792.564,-136.477 806.237,-135.907"/>
<polygon fill="black" stroke="black" points="806.583,-139.396 816.428,-135.482 806.291,-132.402 806.583,-139.396"/>
</g>
<!-- PIP2_PH_hyd_intermediate_p&#45;&gt;IP3_Cyt -->
<g id="edge22" class="edge"><title>PIP2_PH_hyd_intermediate_p&#45;&gt;IP3_Cyt</title>
<path fill="none" stroke="black" d="M780.035,-137.139C780.762,-140.001 792.747,-186.236 816,-215 818.161,-217.673 820.643,-220.225 823.271,-222.618"/>
<polygon fill="black" stroke="black" points="821.465,-225.663 831.421,-229.285 825.897,-220.245 821.465,-225.663"/>
</g>
<!-- PIP2_PH_hyd_intermediate_p&#45;&gt;DAG_PM -->
<g id="edge23" class="edge"><title>PIP2_PH_hyd_intermediate_p&#45;&gt;DAG_PM</title>
<path fill="none" stroke="black" d="M780.052,-137.037C781.276,-137.904 803.805,-153.862 823.33,-167.692"/>
<polygon fill="black" stroke="black" points="821.539,-170.713 831.722,-173.637 825.585,-165 821.539,-170.713"/>
</g>
<!-- PIP2_PH -->
<g id="node29" class="node"><title>PIP2_PH</title>
<polygon fill="none" stroke="black" points="978,-79 964,-79 964,-65 978,-65 978,-79"/>
</g>
<!-- PIP2_PH_intermediate_p -->
<g id="node31" class="node"><title>PIP2_PH_intermediate_p</title>
<ellipse fill="black" stroke="black" cx="1041" cy="-46" rx="0.036" ry="0.036"/>
</g>
<!-- PIP2_PH&#45;&gt;PIP2_PH_intermediate_p -->
<g id="edge29" class="edge"><title>PIP2_PH&#45;&gt;PIP2_PH_intermediate_p</title>
<path fill="none" stroke="black" d="M978.275,-69.6006C994.583,-63.3652 1037.22,-47.0623 1039.87,-46.0494"/>
</g>
<!-- PIP2_PH_intermediate_r&#45;&gt;PIP2_PH -->
<g id="edge26" class="edge"><title>PIP2_PH_intermediate_r&#45;&gt;PIP2_PH</title>
<path fill="none" stroke="black" d="M928.12,-87.9541C929.968,-87.2502 952.602,-78.628 963.803,-74.3609"/>
</g>
<!-- PIP2_PH_intermediate_p&#45;&gt;PIP2_PHGFP_PM -->
<g id="edge30" class="edge"><title>PIP2_PH_intermediate_p&#45;&gt;PIP2_PHGFP_PM</title>
<path fill="none" stroke="black" d="M1039.96,-45.9812C1038.1,-45.1938 978.303,-20 928,-20 705,-20 705,-20 705,-20 672.112,-20 635.277,-19.5383 605.88,-19.0586"/>
<polygon fill="black" stroke="black" points="605.868,-15.558 595.811,-18.8889 605.75,-22.557 605.868,-15.558"/>
</g>
<!-- IP3deg -->
<g id="node32" class="node"><title>IP3deg</title>
<polygon fill="none" stroke="black" points="978,-249 964,-249 964,-235 978,-235 978,-249"/>
</g>
<!-- IP3deg_empty -->
<g id="node34" class="node"><title>IP3deg_empty</title>
<text text-anchor="middle" x="1041" y="-238.5" font-family="Times,serif" font-size="15.00" fill="blue">Ø</text>
</g>
<!-- IP3deg&#45;&gt;IP3deg_empty -->
<g id="edge33" class="edge"><title>IP3deg&#45;&gt;IP3deg_empty</title>
<path fill="none" stroke="black" d="M978.275,-242C984.278,-242 993.849,-242 1003.68,-242"/>
<polygon fill="black" stroke="black" points="1003.88,-245.5 1013.88,-242 1003.88,-238.5 1003.88,-245.5"/>
</g>
<!-- IP3deg_intermediate_r&#45;&gt;IP3deg -->
<g id="edge31" class="edge"><title>IP3deg_intermediate_r&#45;&gt;IP3deg</title>
<path fill="none" stroke="black" d="M928.12,-242C929.968,-242 952.602,-242 963.803,-242"/>
</g>
<!-- PIP2Syn -->
<g id="node35" class="node"><title>PIP2Syn</title>
<polygon fill="none" stroke="black" points="412,-178 398,-178 398,-164 412,-164 412,-178"/>
</g>
<!-- PIP2Syn_intermediate_p -->
<g id="node37" class="node"><title>PIP2Syn_intermediate_p</title>
<ellipse fill="black" stroke="black" cx="468" cy="-171" rx="0.036" ry="0.036"/>
</g>
<!-- PIP2Syn&#45;&gt;PIP2Syn_intermediate_p -->
<g id="edge36" class="edge"><title>PIP2Syn&#45;&gt;PIP2Syn_intermediate_p</title>
<path fill="none" stroke="black" d="M412.072,-171C427.019,-171 464.555,-171 466.886,-171"/>
</g>
<!-- PIP2Syn_intermediate_r&#45;&gt;PIP2Syn -->
<g id="edge34" class="edge"><title>PIP2Syn_intermediate_r&#45;&gt;PIP2Syn</title>
<path fill="none" stroke="black" d="M343.044,-171C344.516,-171 382.35,-171 397.659,-171"/>
</g>
<!-- PIP2Syn_intermediate_p&#45;&gt;PIP2_PM -->
<g id="edge37" class="edge"><title>PIP2Syn_intermediate_p&#45;&gt;PIP2_PM</title>
<path fill="none" stroke="black" d="M469.058,-171C470.213,-171 488.441,-171 507.198,-171"/>
<polygon fill="black" stroke="black" points="507.267,-174.5 517.267,-171 507.267,-167.5 507.267,-174.5"/>
</g>
<!-- IP3_PHGFP -->
<g id="node38" class="node"><title>IP3_PHGFP</title>
<polygon fill="none" stroke="black" points="978,-177 964,-177 964,-163 978,-163 978,-177"/>
</g>
<!-- IP3_PHGFP_intermediate_p -->
<g id="node40" class="node"><title>IP3_PHGFP_intermediate_p</title>
<ellipse fill="black" stroke="black" cx="1041" cy="-170" rx="0.036" ry="0.036"/>
</g>
<!-- IP3_PHGFP&#45;&gt;IP3_PHGFP_intermediate_p -->
<g id="edge41" class="edge"><title>IP3_PHGFP&#45;&gt;IP3_PHGFP_intermediate_p</title>
<path fill="none" stroke="black" d="M978.275,-170C994.583,-170 1037.22,-170 1039.87,-170"/>
</g>
<!-- IP3_PHGFP_intermediate_r&#45;&gt;IP3_PHGFP -->
<g id="edge38" class="edge"><title>IP3_PHGFP_intermediate_r&#45;&gt;IP3_PHGFP</title>
<path fill="none" stroke="black" d="M928.12,-170C929.968,-170 952.602,-170 963.803,-170"/>
</g>
<!-- IP3_PHGFP_intermediate_p&#45;&gt;IP3_PHGFP_Cyt -->
<g id="edge42" class="edge"><title>IP3_PHGFP_intermediate_p&#45;&gt;IP3_PHGFP_Cyt</title>
<path fill="none" stroke="black" d="M1042.08,-170C1043.62,-170 1068.52,-170 1093.57,-170"/>
<polygon fill="black" stroke="black" points="1093.86,-173.5 1103.86,-170 1093.86,-166.5 1093.86,-173.5"/>
</g>
</g>
</svg>
