<?xml version="1.0" encoding="UTF-8" standalone="no"?>
<!DOCTYPE svg PUBLIC "-//W3C//DTD SVG 1.1//EN"
 "http://www.w3.org/Graphics/SVG/1.1/DTD/svg11.dtd">
<!-- Generated by graphviz version 2.24.0 (20090616.2323)
 -->
<!-- Title: G Pages: 1 -->
<svg width="496pt" height="1181pt"
 viewBox="0.00 0.00 496.00 1181.00" xmlns="http://www.w3.org/2000/svg" xmlns:xlink="http://www.w3.org/1999/xlink">
<g id="graph1" class="graph" transform="scale(1 1) rotate(0) translate(4 1177)">
<title>G</title>
<polygon fill="white" stroke="white" points="-4,5 -4,-1177 493,-1177 493,5 -4,5"/>
<!-- sumrc1 -->
<g id="node1" class="node"><title>sumrc1</title>
<polyline fill="none" stroke="black" points="440,-36 410,-36 "/>
<path fill="none" stroke="black" d="M410,-36C404,-36 398,-30 398,-24"/>
<polyline fill="none" stroke="black" points="398,-24 398,-12 "/>
<path fill="none" stroke="black" d="M398,-12C398,-6 404,-1.61846e-14 410,-1.46056e-14"/>
<polyline fill="none" stroke="black" points="410,-1.46056e-14 440,-6.71068e-15 "/>
<path fill="none" stroke="black" d="M440,-6.71068e-15C446,-5.1317e-15 452,-6 452,-12"/>
<polyline fill="none" stroke="black" points="452,-12 452,-24 "/>
<path fill="none" stroke="black" d="M452,-24C452,-30 446,-36 440,-36"/>
<text text-anchor="middle" x="425" y="-15.5" font-family="Times Roman,serif" font-size="10.00">sumrc1</text>
</g>
<!-- r -->
<g id="node2" class="node"><title>r</title>
<polyline fill="none" stroke="black" points="42,-164 12,-164 "/>
<path fill="none" stroke="black" d="M12,-164C6,-164 2.07242e-14,-158 1.65793e-14,-152"/>
<polyline fill="none" stroke="black" points="1.65793e-14,-152 8.28967e-15,-140 "/>
<path fill="none" stroke="black" d="M8.28967e-15,-140C4.14483e-15,-134 6,-128 12,-128"/>
<polyline fill="none" stroke="black" points="12,-128 42,-128 "/>
<path fill="none" stroke="black" d="M42,-128C48,-128 54,-134 54,-140"/>
<polyline fill="none" stroke="black" points="54,-140 54,-152 "/>
<path fill="none" stroke="black" d="M54,-152C54,-158 48,-164 42,-164"/>
<text text-anchor="middle" x="27" y="-143.5" font-family="Times Roman,serif" font-size="10.00">r</text>
</g>
<!-- c1 -->
<g id="node3" class="node"><title>c1</title>
<polyline fill="none" stroke="black" points="132,-124 102,-124 "/>
<path fill="none" stroke="black" d="M102,-124C96,-124 90,-118 90,-112"/>
<polyline fill="none" stroke="black" points="90,-112 90,-100 "/>
<path fill="none" stroke="black" d="M90,-100C90,-94 96,-88 102,-88"/>
<polyline fill="none" stroke="black" points="102,-88 132,-88 "/>
<path fill="none" stroke="black" d="M132,-88C138,-88 144,-94 144,-100"/>
<polyline fill="none" stroke="black" points="144,-100 144,-112 "/>
<path fill="none" stroke="black" d="M144,-112C144,-118 138,-124 132,-124"/>
<text text-anchor="middle" x="117" y="-103.5" font-family="Times Roman,serif" font-size="10.00">c1</text>
</g>
<!-- sumrc1ODE_intermediate_m -->
<g id="node26" class="node"><title>sumrc1ODE_intermediate_m</title>
<ellipse fill="black" stroke="black" cx="361" cy="-61" rx="0.036" ry="0.036"/>
</g>
<!-- c1&#45;&gt;sumrc1ODE_intermediate_m -->
<g id="edge12" class="edge"><title>c1&#45;&gt;sumrc1ODE_intermediate_m</title>
<path fill="none" stroke="black" d="M144.148,-108.17C184.698,-110.424 262.86,-110.913 324,-88 342.467,-81.0792 359.878,-62.2286 360.948,-61.0572"/>
</g>
<!-- c2ODE_intermediate_m -->
<g id="node36" class="node"><title>c2ODE_intermediate_m</title>
<ellipse fill="black" stroke="black" cx="207" cy="-79" rx="0.036" ry="0.036"/>
</g>
<!-- c1&#45;&gt;c2ODE_intermediate_m -->
<g id="edge22" class="edge"><title>c1&#45;&gt;c2ODE_intermediate_m</title>
<path fill="none" stroke="black" d="M144.003,-97.8991C169.685,-90.1946 204.729,-79.6812 206.895,-79.0316"/>
</g>
<!-- c2 -->
<g id="node4" class="node"><title>c2</title>
<polyline fill="none" stroke="black" points="312,-79 282,-79 "/>
<path fill="none" stroke="black" d="M282,-79C276,-79 270,-73 270,-67"/>
<polyline fill="none" stroke="black" points="270,-67 270,-55 "/>
<path fill="none" stroke="black" d="M270,-55C270,-49 276,-43 282,-43"/>
<polyline fill="none" stroke="black" points="282,-43 312,-43 "/>
<path fill="none" stroke="black" d="M312,-43C318,-43 324,-49 324,-55"/>
<polyline fill="none" stroke="black" points="324,-55 324,-67 "/>
<path fill="none" stroke="black" d="M324,-67C324,-73 318,-79 312,-79"/>
<text text-anchor="middle" x="297" y="-58.5" font-family="Times Roman,serif" font-size="10.00">c2</text>
</g>
<!-- c2&#45;&gt;sumrc1ODE_intermediate_m -->
<g id="edge10" class="edge"><title>c2&#45;&gt;sumrc1ODE_intermediate_m</title>
<path fill="none" stroke="black" d="M324.142,-61C341.04,-61 359.788,-61 360.944,-61"/>
</g>
<!-- ePI3K -->
<g id="node5" class="node"><title>ePI3K</title>
<polyline fill="none" stroke="black" points="132,-1076 102,-1076 "/>
<path fill="none" stroke="black" d="M102,-1076C96,-1076 90,-1070 90,-1064"/>
<polyline fill="none" stroke="black" points="90,-1064 90,-1052 "/>
<path fill="none" stroke="black" d="M90,-1052C90,-1046 96,-1040 102,-1040"/>
<polyline fill="none" stroke="black" points="102,-1040 132,-1040 "/>
<path fill="none" stroke="black" d="M132,-1040C138,-1040 144,-1046 144,-1052"/>
<polyline fill="none" stroke="black" points="144,-1052 144,-1064 "/>
<path fill="none" stroke="black" d="M144,-1064C144,-1070 138,-1076 132,-1076"/>
<text text-anchor="middle" x="117" y="-1055.5" font-family="Times Roman,serif" font-size="10.00">ePI3K</text>
</g>
<!-- m3PIODE_intermediate_m -->
<g id="node45" class="node"><title>m3PIODE_intermediate_m</title>
<ellipse fill="black" stroke="black" cx="207" cy="-1056" rx="0.036" ry="0.036"/>
</g>
<!-- ePI3K&#45;&gt;m3PIODE_intermediate_m -->
<g id="edge32" class="edge"><title>ePI3K&#45;&gt;m3PIODE_intermediate_m</title>
<path fill="none" stroke="black" d="M144.003,-1057.4C169.685,-1056.83 204.729,-1056.05 206.895,-1056"/>
</g>
<!-- m3PI -->
<g id="node6" class="node"><title>m3PI</title>
<ellipse fill="none" stroke="black" cx="297" cy="-953" rx="27" ry="18"/>
<text text-anchor="middle" x="297" y="-950.5" font-family="Times Roman,serif" font-size="10.00">m3PI</text>
</g>
<!-- x2ODE_intermediate_m -->
<g id="node74" class="node"><title>x2ODE_intermediate_m</title>
<ellipse fill="black" stroke="black" cx="361" cy="-876" rx="0.036" ry="0.036"/>
</g>
<!-- m3PI&#45;&gt;x2ODE_intermediate_m -->
<g id="edge66" class="edge"><title>m3PI&#45;&gt;x2ODE_intermediate_m</title>
<path fill="none" stroke="black" d="M312.546,-938.243C316.406,-934.368 320.452,-930.118 324,-926 341.482,-905.712 359.816,-877.808 360.945,-876.084"/>
</g>
<!-- eGEF -->
<g id="node7" class="node"><title>eGEF</title>
<polyline fill="none" stroke="black" points="132,-1130 102,-1130 "/>
<path fill="none" stroke="black" d="M102,-1130C96,-1130 90,-1124 90,-1118"/>
<polyline fill="none" stroke="black" points="90,-1118 90,-1106 "/>
<path fill="none" stroke="black" d="M90,-1106C90,-1100 96,-1094 102,-1094"/>
<polyline fill="none" stroke="black" points="102,-1094 132,-1094 "/>
<path fill="none" stroke="black" d="M132,-1094C138,-1094 144,-1100 144,-1106"/>
<polyline fill="none" stroke="black" points="144,-1106 144,-1118 "/>
<path fill="none" stroke="black" d="M144,-1118C144,-1124 138,-1130 132,-1130"/>
<text text-anchor="middle" x="117" y="-1109.5" font-family="Times Roman,serif" font-size="10.00">eGEF</text>
</g>
<!-- mRasODE_intermediate_m -->
<g id="node54" class="node"><title>mRasODE_intermediate_m</title>
<ellipse fill="black" stroke="black" cx="207" cy="-1124" rx="0.036" ry="0.036"/>
</g>
<!-- eGEF&#45;&gt;mRasODE_intermediate_m -->
<g id="edge42" class="edge"><title>eGEF&#45;&gt;mRasODE_intermediate_m</title>
<path fill="none" stroke="black" d="M144.003,-1115.6C169.685,-1119.02 204.729,-1123.7 206.895,-1123.99"/>
</g>
<!-- mRas -->
<g id="node8" class="node"><title>mRas</title>
<polyline fill="none" stroke="black" points="312,-1114 282,-1114 "/>
<path fill="none" stroke="black" d="M282,-1114C276,-1114 270,-1108 270,-1102"/>
<polyline fill="none" stroke="black" points="270,-1102 270,-1090 "/>
<path fill="none" stroke="black" d="M270,-1090C270,-1084 276,-1078 282,-1078"/>
<polyline fill="none" stroke="black" points="282,-1078 312,-1078 "/>
<path fill="none" stroke="black" d="M312,-1078C318,-1078 324,-1084 324,-1090"/>
<polyline fill="none" stroke="black" points="324,-1090 324,-1102 "/>
<path fill="none" stroke="black" d="M324,-1102C324,-1108 318,-1114 312,-1114"/>
<text text-anchor="middle" x="297" y="-1093.5" font-family="Times Roman,serif" font-size="10.00">mRas</text>
</g>
<!-- x1ODE_intermediate_m -->
<g id="node63" class="node"><title>x1ODE_intermediate_m</title>
<ellipse fill="black" stroke="black" cx="361" cy="-949" rx="0.036" ry="0.036"/>
</g>
<!-- mRas&#45;&gt;x1ODE_intermediate_m -->
<g id="edge52" class="edge"><title>mRas&#45;&gt;x1ODE_intermediate_m</title>
<path fill="none" stroke="black" d="M304.848,-1077.97C321.67,-1039.34 359.785,-951.791 360.972,-949.065"/>
</g>
<!-- x1 -->
<g id="node9" class="node"><title>x1</title>
<polyline fill="none" stroke="black" points="312,-733 282,-733 "/>
<path fill="none" stroke="black" d="M282,-733C276,-733 270,-727 270,-721"/>
<polyline fill="none" stroke="black" points="270,-721 270,-709 "/>
<path fill="none" stroke="black" d="M270,-709C270,-703 276,-697 282,-697"/>
<polyline fill="none" stroke="black" points="282,-697 312,-697 "/>
<path fill="none" stroke="black" d="M312,-697C318,-697 324,-703 324,-709"/>
<polyline fill="none" stroke="black" points="324,-709 324,-721 "/>
<path fill="none" stroke="black" d="M324,-721C324,-727 318,-733 312,-733"/>
<text text-anchor="middle" x="297" y="-712.5" font-family="Times Roman,serif" font-size="10.00">x1</text>
</g>
<!-- yODE_intermediate_m -->
<g id="node85" class="node"><title>yODE_intermediate_m</title>
<ellipse fill="black" stroke="black" cx="361" cy="-715" rx="0.036" ry="0.036"/>
</g>
<!-- x1&#45;&gt;yODE_intermediate_m -->
<g id="edge84" class="edge"><title>x1&#45;&gt;yODE_intermediate_m</title>
<path fill="none" stroke="black" d="M324.142,-715C341.04,-715 359.788,-715 360.944,-715"/>
</g>
<!-- yppODE_intermediate_m -->
<g id="node97" class="node"><title>yppODE_intermediate_m</title>
<ellipse fill="black" stroke="black" cx="361" cy="-661" rx="0.036" ry="0.036"/>
</g>
<!-- x1&#45;&gt;yppODE_intermediate_m -->
<g id="edge96" class="edge"><title>x1&#45;&gt;yppODE_intermediate_m</title>
<path fill="none" stroke="black" d="M318.667,-696.718C336.654,-681.542 359.52,-662.249 360.931,-661.058"/>
</g>
<!-- x2 -->
<g id="node10" class="node"><title>x2</title>
<polyline fill="none" stroke="black" points="312,-679 282,-679 "/>
<path fill="none" stroke="black" d="M282,-679C276,-679 270,-673 270,-667"/>
<polyline fill="none" stroke="black" points="270,-667 270,-655 "/>
<path fill="none" stroke="black" d="M270,-655C270,-649 276,-643 282,-643"/>
<polyline fill="none" stroke="black" points="282,-643 312,-643 "/>
<path fill="none" stroke="black" d="M312,-643C318,-643 324,-649 324,-655"/>
<polyline fill="none" stroke="black" points="324,-655 324,-667 "/>
<path fill="none" stroke="black" d="M324,-667C324,-673 318,-679 312,-679"/>
<text text-anchor="middle" x="297" y="-658.5" font-family="Times Roman,serif" font-size="10.00">x2</text>
</g>
<!-- x2&#45;&gt;yODE_intermediate_m -->
<g id="edge86" class="edge"><title>x2&#45;&gt;yODE_intermediate_m</title>
<path fill="none" stroke="black" d="M318.667,-679.282C336.654,-694.458 359.52,-713.751 360.931,-714.942"/>
</g>
<!-- x2&#45;&gt;yppODE_intermediate_m -->
<g id="edge102" class="edge"><title>x2&#45;&gt;yppODE_intermediate_m</title>
<path fill="none" stroke="black" d="M324.142,-661C341.04,-661 359.788,-661 360.944,-661"/>
</g>
<!-- y -->
<g id="node11" class="node"><title>y</title>
<polyline fill="none" stroke="black" points="312,-917 282,-917 "/>
<path fill="none" stroke="black" d="M282,-917C276,-917 270,-911 270,-905"/>
<polyline fill="none" stroke="black" points="270,-905 270,-893 "/>
<path fill="none" stroke="black" d="M270,-893C270,-887 276,-881 282,-881"/>
<polyline fill="none" stroke="black" points="282,-881 312,-881 "/>
<path fill="none" stroke="black" d="M312,-881C318,-881 324,-887 324,-893"/>
<polyline fill="none" stroke="black" points="324,-893 324,-905 "/>
<path fill="none" stroke="black" d="M324,-905C324,-911 318,-917 312,-917"/>
<text text-anchor="middle" x="297" y="-896.5" font-family="Times Roman,serif" font-size="10.00">y</text>
</g>
<!-- y&#45;&gt;x1ODE_intermediate_m -->
<g id="edge54" class="edge"><title>y&#45;&gt;x1ODE_intermediate_m</title>
<path fill="none" stroke="black" d="M320.105,-917.051C337.865,-930.925 359.594,-947.902 360.935,-948.949"/>
</g>
<!-- y&#45;&gt;x2ODE_intermediate_m -->
<g id="edge68" class="edge"><title>y&#45;&gt;x2ODE_intermediate_m</title>
<path fill="none" stroke="black" d="M324.142,-889.246C341.04,-883.173 359.788,-876.435 360.944,-876.02"/>
</g>
<!-- y&#45;&gt;yppODE_intermediate_m -->
<g id="edge100" class="edge"><title>y&#45;&gt;yppODE_intermediate_m</title>
<path fill="none" stroke="black" d="M305.596,-880.84C311.419,-867.985 318.945,-850.215 324,-834 347.036,-760.108 360.573,-664.055 360.99,-661.071"/>
</g>
<!-- yp -->
<g id="node12" class="node"><title>yp</title>
<polyline fill="none" stroke="black" points="312,-825 282,-825 "/>
<path fill="none" stroke="black" d="M282,-825C276,-825 270,-819 270,-813"/>
<polyline fill="none" stroke="black" points="270,-813 270,-801 "/>
<path fill="none" stroke="black" d="M270,-801C270,-795 276,-789 282,-789"/>
<polyline fill="none" stroke="black" points="282,-789 312,-789 "/>
<path fill="none" stroke="black" d="M312,-789C318,-789 324,-795 324,-801"/>
<polyline fill="none" stroke="black" points="324,-801 324,-813 "/>
<path fill="none" stroke="black" d="M324,-813C324,-819 318,-825 312,-825"/>
<text text-anchor="middle" x="297" y="-804.5" font-family="Times Roman,serif" font-size="10.00">yp</text>
</g>
<!-- yp&#45;&gt;x1ODE_intermediate_m -->
<g id="edge56" class="edge"><title>yp&#45;&gt;x1ODE_intermediate_m</title>
<path fill="none" stroke="black" d="M305.236,-825.273C322.251,-863.026 359.803,-946.344 360.972,-948.938"/>
</g>
<!-- yp&#45;&gt;x2ODE_intermediate_m -->
<g id="edge70" class="edge"><title>yp&#45;&gt;x2ODE_intermediate_m</title>
<path fill="none" stroke="black" d="M313.815,-825.129C332.185,-844.934 359.245,-874.108 360.918,-875.912"/>
</g>
<!-- yp&#45;&gt;yODE_intermediate_m -->
<g id="edge80" class="edge"><title>yp&#45;&gt;yODE_intermediate_m</title>
<path fill="none" stroke="black" d="M313.185,-788.762C316.869,-784.357 320.675,-779.592 324,-775 341.8,-750.418 359.836,-717.155 360.946,-715.1"/>
</g>
<!-- yp&#45;&gt;yppODE_intermediate_m -->
<g id="edge98" class="edge"><title>yp&#45;&gt;yppODE_intermediate_m</title>
<path fill="none" stroke="black" d="M304.976,-788.804C321.865,-750.278 359.791,-663.759 360.972,-661.064"/>
</g>
<!-- ypp -->
<g id="node13" class="node"><title>ypp</title>
<polyline fill="none" stroke="black" points="312,-587 282,-587 "/>
<path fill="none" stroke="black" d="M282,-587C276,-587 270,-581 270,-575"/>
<polyline fill="none" stroke="black" points="270,-575 270,-563 "/>
<path fill="none" stroke="black" d="M270,-563C270,-557 276,-551 282,-551"/>
<polyline fill="none" stroke="black" points="282,-551 312,-551 "/>
<path fill="none" stroke="black" d="M312,-551C318,-551 324,-557 324,-563"/>
<polyline fill="none" stroke="black" points="324,-563 324,-575 "/>
<path fill="none" stroke="black" d="M324,-575C324,-581 318,-587 312,-587"/>
<text text-anchor="middle" x="297" y="-566.5" font-family="Times Roman,serif" font-size="10.00">ypp</text>
</g>
<!-- ypp&#45;&gt;yODE_intermediate_m -->
<g id="edge82" class="edge"><title>ypp&#45;&gt;yODE_intermediate_m</title>
<path fill="none" stroke="black" d="M304.976,-587.196C321.865,-625.722 359.791,-712.241 360.972,-714.936"/>
</g>
<!-- zODE_intermediate_m -->
<g id="node111" class="node"><title>zODE_intermediate_m</title>
<ellipse fill="black" stroke="black" cx="361" cy="-377" rx="0.036" ry="0.036"/>
</g>
<!-- ypp&#45;&gt;zODE_intermediate_m -->
<g id="edge122" class="edge"><title>ypp&#45;&gt;zODE_intermediate_m</title>
<path fill="none" stroke="black" d="M317.68,-550.956C320.075,-548.151 322.274,-545.136 324,-542 359.662,-477.183 360.967,-380.09 360.999,-377.072"/>
</g>
<!-- zppODE_intermediate_m -->
<g id="node123" class="node"><title>zppODE_intermediate_m</title>
<ellipse fill="black" stroke="black" cx="361" cy="-469" rx="0.036" ry="0.036"/>
</g>
<!-- ypp&#45;&gt;zppODE_intermediate_m -->
<g id="edge132" class="edge"><title>ypp&#45;&gt;zppODE_intermediate_m</title>
<path fill="none" stroke="black" d="M316.7,-550.814C319.304,-547.988 321.821,-545.006 324,-542 344.682,-513.47 360.016,-471.708 360.954,-469.126"/>
</g>
<!-- z -->
<g id="node14" class="node"><title>z</title>
<polyline fill="none" stroke="black" points="312,-533 282,-533 "/>
<path fill="none" stroke="black" d="M282,-533C276,-533 270,-527 270,-521"/>
<polyline fill="none" stroke="black" points="270,-521 270,-509 "/>
<path fill="none" stroke="black" d="M270,-509C270,-503 276,-497 282,-497"/>
<polyline fill="none" stroke="black" points="282,-497 312,-497 "/>
<path fill="none" stroke="black" d="M312,-497C318,-497 324,-503 324,-509"/>
<polyline fill="none" stroke="black" points="324,-509 324,-521 "/>
<path fill="none" stroke="black" d="M324,-521C324,-527 318,-533 312,-533"/>
<text text-anchor="middle" x="297" y="-512.5" font-family="Times Roman,serif" font-size="10.00">z</text>
</g>
<!-- z&#45;&gt;yppODE_intermediate_m -->
<g id="edge104" class="edge"><title>z&#45;&gt;yppODE_intermediate_m</title>
<path fill="none" stroke="black" d="M317.445,-533.18C319.878,-535.963 322.149,-538.936 324,-542 352.191,-588.667 360.734,-658.769 360.994,-660.948"/>
</g>
<!-- z&#45;&gt;zppODE_intermediate_m -->
<g id="edge136" class="edge"><title>z&#45;&gt;zppODE_intermediate_m</title>
<path fill="none" stroke="black" d="M322.294,-496.82C339.625,-484.364 359.702,-469.933 360.94,-469.043"/>
</g>
<!-- zp -->
<g id="node15" class="node"><title>zp</title>
<polyline fill="none" stroke="black" points="312,-441 282,-441 "/>
<path fill="none" stroke="black" d="M282,-441C276,-441 270,-435 270,-429"/>
<polyline fill="none" stroke="black" points="270,-429 270,-417 "/>
<path fill="none" stroke="black" d="M270,-417C270,-411 276,-405 282,-405"/>
<polyline fill="none" stroke="black" points="282,-405 312,-405 "/>
<path fill="none" stroke="black" d="M312,-405C318,-405 324,-411 324,-417"/>
<polyline fill="none" stroke="black" points="324,-417 324,-429 "/>
<path fill="none" stroke="black" d="M324,-429C324,-435 318,-441 312,-441"/>
<text text-anchor="middle" x="297" y="-420.5" font-family="Times Roman,serif" font-size="10.00">zp</text>
</g>
<!-- zp&#45;&gt;yppODE_intermediate_m -->
<g id="edge106" class="edge"><title>zp&#45;&gt;yppODE_intermediate_m</title>
<path fill="none" stroke="black" d="M305.596,-441.16C311.419,-454.015 318.945,-471.785 324,-488 347.036,-561.892 360.573,-657.945 360.99,-660.929"/>
</g>
<!-- zp&#45;&gt;zODE_intermediate_m -->
<g id="edge118" class="edge"><title>zp&#45;&gt;zODE_intermediate_m</title>
<path fill="none" stroke="black" d="M322.294,-404.82C339.625,-392.364 359.702,-377.933 360.94,-377.043"/>
</g>
<!-- zp&#45;&gt;zppODE_intermediate_m -->
<g id="edge134" class="edge"><title>zp&#45;&gt;zppODE_intermediate_m</title>
<path fill="none" stroke="black" d="M322.294,-441.18C339.625,-453.636 359.702,-468.067 360.94,-468.957"/>
</g>
<!-- zpp -->
<g id="node16" class="node"><title>zpp</title>
<polyline fill="none" stroke="black" points="312,-295 282,-295 "/>
<path fill="none" stroke="black" d="M282,-295C276,-295 270,-289 270,-283"/>
<polyline fill="none" stroke="black" points="270,-283 270,-271 "/>
<path fill="none" stroke="black" d="M270,-271C270,-265 276,-259 282,-259"/>
<polyline fill="none" stroke="black" points="282,-259 312,-259 "/>
<path fill="none" stroke="black" d="M312,-259C318,-259 324,-265 324,-271"/>
<polyline fill="none" stroke="black" points="324,-271 324,-283 "/>
<path fill="none" stroke="black" d="M324,-283C324,-289 318,-295 312,-295"/>
<text text-anchor="middle" x="297" y="-274.5" font-family="Times Roman,serif" font-size="10.00">zpp</text>
</g>
<!-- zpp&#45;&gt;zODE_intermediate_m -->
<g id="edge120" class="edge"><title>zpp&#45;&gt;zODE_intermediate_m</title>
<path fill="none" stroke="black" d="M316.7,-295.186C319.304,-298.012 321.821,-300.994 324,-304 344.682,-332.53 360.016,-374.292 360.954,-376.874"/>
</g>
<!-- fGEFODE_intermediate_m -->
<g id="node135" class="node"><title>fGEFODE_intermediate_m</title>
<ellipse fill="black" stroke="black" cx="361" cy="-254" rx="0.036" ry="0.036"/>
</g>
<!-- zpp&#45;&gt;fGEFODE_intermediate_m -->
<g id="edge148" class="edge"><title>zpp&#45;&gt;fGEFODE_intermediate_m</title>
<path fill="none" stroke="black" d="M324.142,-267.246C341.04,-261.173 359.788,-254.435 360.944,-254.02"/>
</g>
<!-- wODE_intermediate_m -->
<g id="node144" class="node"><title>wODE_intermediate_m</title>
<ellipse fill="black" stroke="black" cx="361" cy="-274" rx="0.036" ry="0.036"/>
</g>
<!-- zpp&#45;&gt;wODE_intermediate_m -->
<g id="edge158" class="edge"><title>zpp&#45;&gt;wODE_intermediate_m</title>
<path fill="none" stroke="black" d="M324.142,-275.728C341.04,-274.936 359.788,-274.057 360.944,-274.003"/>
</g>
<!-- fGEF -->
<g id="node17" class="node"><title>fGEF</title>
<polyline fill="none" stroke="black" points="440,-209 410,-209 "/>
<path fill="none" stroke="black" d="M410,-209C404,-209 398,-203 398,-197"/>
<polyline fill="none" stroke="black" points="398,-197 398,-185 "/>
<path fill="none" stroke="black" d="M398,-185C398,-179 404,-173 410,-173"/>
<polyline fill="none" stroke="black" points="410,-173 440,-173 "/>
<path fill="none" stroke="black" d="M440,-173C446,-173 452,-179 452,-185"/>
<polyline fill="none" stroke="black" points="452,-185 452,-197 "/>
<path fill="none" stroke="black" d="M452,-197C452,-203 446,-209 440,-209"/>
<text text-anchor="middle" x="425" y="-188.5" font-family="Times Roman,serif" font-size="10.00">fGEF</text>
</g>
<!-- w -->
<g id="node18" class="node"><title>w</title>
<ellipse fill="none" stroke="black" cx="425" cy="-245" rx="27" ry="18"/>
<text text-anchor="middle" x="425" y="-242.5" font-family="Times Roman,serif" font-size="10.00">w</text>
</g>
<!-- ephODE_intermediate_m -->
<g id="node153" class="node"><title>ephODE_intermediate_m</title>
<ellipse fill="black" stroke="black" cx="488" cy="-195" rx="0.036" ry="0.036"/>
</g>
<!-- w&#45;&gt;ephODE_intermediate_m -->
<g id="edge168" class="edge"><title>w&#45;&gt;ephODE_intermediate_m</title>
<path fill="none" stroke="black" d="M442.549,-231.072C460.608,-216.74 486.332,-196.324 487.923,-195.061"/>
</g>
<!-- eph -->
<g id="node19" class="node"><title>eph</title>
<ellipse fill="none" stroke="black" cx="297" cy="-331" rx="27" ry="18"/>
<text text-anchor="middle" x="297" y="-328.5" font-family="Times Roman,serif" font-size="10.00">eph</text>
</g>
<!-- eph&#45;&gt;zODE_intermediate_m -->
<g id="edge116" class="edge"><title>eph&#45;&gt;zODE_intermediate_m</title>
<path fill="none" stroke="black" d="M315.511,-344.305C333.822,-357.466 359.346,-375.811 360.923,-376.945"/>
</g>
<!-- eph&#45;&gt;zppODE_intermediate_m -->
<g id="edge138" class="edge"><title>eph&#45;&gt;zppODE_intermediate_m</title>
<path fill="none" stroke="black" d="M304.976,-348.199C321.865,-384.614 359.791,-466.392 360.972,-468.939"/>
</g>
<!-- sumrc1ODE -->
<g id="node20" class="node"><title>sumrc1ODE</title>
<polygon fill="none" stroke="black" points="304,-25 290,-25 290,-11 304,-11 304,-25"/>
</g>
<!-- sumrc1ODE_intermediate_p -->
<g id="node23" class="node"><title>sumrc1ODE_intermediate_p</title>
<ellipse fill="black" stroke="black" cx="361" cy="-18" rx="0.036" ry="0.036"/>
</g>
<!-- sumrc1ODE&#45;&gt;sumrc1ODE_intermediate_p -->
<g id="edge4" class="edge"><title>sumrc1ODE&#45;&gt;sumrc1ODE_intermediate_p</title>
<path fill="none" stroke="black" d="M304.342,-18C320.627,-18 358.532,-18 360.885,-18"/>
</g>
<!-- sumrc1ODE&#45;&gt;sumrc1ODE_intermediate_m -->
<g id="edge8" class="edge"><title>sumrc1ODE&#45;&gt;sumrc1ODE_intermediate_m</title>
<path fill="none" stroke="black" d="M314.687,-28.1531C317.822,-30.0451 321.031,-32.0437 324,-34 340.467,-44.8518 359.753,-60.0171 360.942,-60.9543"/>
<polygon fill="none" stroke="black" points="314.577,-28.0887 307.379,-28.5112 304.22,-22.0286 311.419,-21.6062 314.577,-28.0887"/>
</g>
<!-- sumrc1ODE_empty -->
<g id="node21" class="node"><title>sumrc1ODE_empty</title>
<text text-anchor="middle" x="207" y="-13.5" font-family="Times Roman,serif" font-size="15.00" fill="blue">Ø</text>
</g>
<!-- sumrc1ODE_empty&#45;&gt;sumrc1ODE -->
<g id="edge2" class="edge"><title>sumrc1ODE_empty&#45;&gt;sumrc1ODE</title>
<path fill="none" stroke="black" d="M234.003,-18C253.264,-18 277.792,-18 289.766,-18"/>
</g>
<!-- sumrc1ODE_intermediate_p&#45;&gt;sumrc1 -->
<g id="edge6" class="edge"><title>sumrc1ODE_intermediate_p&#45;&gt;sumrc1</title>
<path fill="none" stroke="black" d="M361.046,-18C361.885,-18 373.971,-18 387.414,-18"/>
<polygon fill="black" stroke="black" points="387.794,-21.5001 397.794,-18 387.794,-14.5001 387.794,-21.5001"/>
</g>
<!-- c2ODE -->
<g id="node30" class="node"><title>c2ODE</title>
<polygon fill="none" stroke="black" points="124,-69 110,-69 110,-55 124,-55 124,-69"/>
</g>
<!-- c2ODE_intermediate_p -->
<g id="node33" class="node"><title>c2ODE_intermediate_p</title>
<ellipse fill="black" stroke="black" cx="207" cy="-61" rx="0.036" ry="0.036"/>
</g>
<!-- c2ODE&#45;&gt;c2ODE_intermediate_p -->
<g id="edge16" class="edge"><title>c2ODE&#45;&gt;c2ODE_intermediate_p</title>
<path fill="none" stroke="black" d="M124.062,-61.9215C144.947,-61.6895 205.081,-61.0213 206.955,-61.0005"/>
</g>
<!-- c2ODE&#45;&gt;c2ODE_intermediate_m -->
<g id="edge20" class="edge"><title>c2ODE&#45;&gt;c2ODE_intermediate_m</title>
<path fill="none" stroke="black" d="M135.995,-65.588C161.917,-70.4844 205.367,-78.6915 206.955,-78.9915"/>
<polygon fill="none" stroke="black" points="135.854,-65.5613 129.215,-68.3781 124.062,-63.334 130.7,-60.5171 135.854,-65.5613"/>
</g>
<!-- c2ODE_empty -->
<g id="node31" class="node"><title>c2ODE_empty</title>
<text text-anchor="middle" x="27" y="-57.5" font-family="Times Roman,serif" font-size="15.00" fill="blue">Ø</text>
</g>
<!-- c2ODE_empty&#45;&gt;c2ODE -->
<g id="edge14" class="edge"><title>c2ODE_empty&#45;&gt;c2ODE</title>
<path fill="none" stroke="black" d="M54.003,-62C73.2642,-62 97.7921,-62 109.766,-62"/>
</g>
<!-- c2ODE_intermediate_p&#45;&gt;c2 -->
<g id="edge18" class="edge"><title>c2ODE_intermediate_p&#45;&gt;c2</title>
<path fill="none" stroke="black" d="M207.065,-61C208.565,-61 235.648,-61 259.704,-61"/>
<polygon fill="black" stroke="black" points="259.745,-64.5001 269.745,-61 259.745,-57.5001 259.745,-64.5001"/>
</g>
<!-- m3PIODE -->
<g id="node39" class="node"><title>m3PIODE</title>
<polygon fill="none" stroke="black" points="124,-1022 110,-1022 110,-1008 124,-1008 124,-1022"/>
</g>
<!-- m3PIODE_intermediate_p -->
<g id="node42" class="node"><title>m3PIODE_intermediate_p</title>
<ellipse fill="black" stroke="black" cx="207" cy="-1027" rx="0.036" ry="0.036"/>
</g>
<!-- m3PIODE&#45;&gt;m3PIODE_intermediate_p -->
<g id="edge26" class="edge"><title>m3PIODE&#45;&gt;m3PIODE_intermediate_p</title>
<path fill="none" stroke="black" d="M124.062,-1015.94C144.947,-1018.73 205.081,-1026.74 206.955,-1026.99"/>
</g>
<!-- m3PIODE&#45;&gt;m3PIODE_intermediate_m -->
<g id="edge30" class="edge"><title>m3PIODE&#45;&gt;m3PIODE_intermediate_m</title>
<path fill="none" stroke="black" d="M135.283,-1023.33C161.113,-1035.1 205.352,-1055.25 206.955,-1055.98"/>
<polygon fill="none" stroke="black" points="134.982,-1023.19 127.864,-1024.34 124.062,-1018.22 131.181,-1017.06 134.982,-1023.19"/>
</g>
<!-- m3PIODE_empty -->
<g id="node40" class="node"><title>m3PIODE_empty</title>
<text text-anchor="middle" x="27" y="-1010.5" font-family="Times Roman,serif" font-size="15.00" fill="blue">Ø</text>
</g>
<!-- m3PIODE_empty&#45;&gt;m3PIODE -->
<g id="edge24" class="edge"><title>m3PIODE_empty&#45;&gt;m3PIODE</title>
<path fill="none" stroke="black" d="M54.003,-1015C73.2642,-1015 97.7921,-1015 109.766,-1015"/>
</g>
<!-- m3PIODE_intermediate_p&#45;&gt;m3PI -->
<g id="edge28" class="edge"><title>m3PIODE_intermediate_p&#45;&gt;m3PI</title>
<path fill="none" stroke="black" d="M207.065,-1026.95C208.823,-1025.5 245.732,-995.153 271.714,-973.791"/>
<polygon fill="black" stroke="black" points="274.206,-976.273 279.707,-967.219 269.76,-970.866 274.206,-976.273"/>
</g>
<!-- mRasODE -->
<g id="node48" class="node"><title>mRasODE</title>
<polygon fill="none" stroke="black" points="124,-1162 110,-1162 110,-1148 124,-1148 124,-1162"/>
</g>
<!-- mRasODE_intermediate_p -->
<g id="node51" class="node"><title>mRasODE_intermediate_p</title>
<ellipse fill="black" stroke="black" cx="207" cy="-1148" rx="0.036" ry="0.036"/>
</g>
<!-- mRasODE&#45;&gt;mRasODE_intermediate_p -->
<g id="edge36" class="edge"><title>mRasODE&#45;&gt;mRasODE_intermediate_p</title>
<path fill="none" stroke="black" d="M124.062,-1154.45C144.947,-1152.83 205.081,-1148.15 206.955,-1148"/>
</g>
<!-- mRasODE&#45;&gt;mRasODE_intermediate_m -->
<g id="edge40" class="edge"><title>mRasODE&#45;&gt;mRasODE_intermediate_m</title>
<path fill="none" stroke="black" d="M135.638,-1148.58C161.516,-1139.67 205.359,-1124.57 206.955,-1124.02"/>
<polygon fill="none" stroke="black" points="135.408,-1148.66 131.038,-1154.4 124.062,-1152.57 128.432,-1146.83 135.408,-1148.66"/>
</g>
<!-- mRasODE_empty -->
<g id="node49" class="node"><title>mRasODE_empty</title>
<text text-anchor="middle" x="27" y="-1150.5" font-family="Times Roman,serif" font-size="15.00" fill="blue">Ø</text>
</g>
<!-- mRasODE_empty&#45;&gt;mRasODE -->
<g id="edge34" class="edge"><title>mRasODE_empty&#45;&gt;mRasODE</title>
<path fill="none" stroke="black" d="M54.003,-1155C73.2642,-1155 97.7921,-1155 109.766,-1155"/>
</g>
<!-- mRasODE_intermediate_p&#45;&gt;mRas -->
<g id="edge38" class="edge"><title>mRasODE_intermediate_p&#45;&gt;mRas</title>
<path fill="none" stroke="black" d="M207.172,-1147.91C208.873,-1146.98 222.826,-1139.38 234,-1133 242.746,-1128 252.129,-1122.55 260.911,-1117.39"/>
<polygon fill="black" stroke="black" points="262.949,-1120.26 269.794,-1112.17 259.4,-1114.22 262.949,-1120.26"/>
</g>
<!-- x1ODE -->
<g id="node57" class="node"><title>x1ODE</title>
<polygon fill="none" stroke="black" points="124,-946 110,-946 110,-932 124,-932 124,-946"/>
</g>
<!-- x1ODE_intermediate_p -->
<g id="node60" class="node"><title>x1ODE_intermediate_p</title>
<ellipse fill="black" stroke="black" cx="207" cy="-881" rx="0.036" ry="0.036"/>
</g>
<!-- x1ODE&#45;&gt;x1ODE_intermediate_p -->
<g id="edge46" class="edge"><title>x1ODE&#45;&gt;x1ODE_intermediate_p</title>
<path fill="none" stroke="black" d="M124.175,-932.067C135.303,-921.646 157.766,-901.9 180,-890 190.804,-884.218 206.014,-881.192 206.954,-881.009"/>
</g>
<!-- x1ODE&#45;&gt;x1ODE_intermediate_m -->
<g id="edge50" class="edge"><title>x1ODE&#45;&gt;x1ODE_intermediate_m</title>
<path fill="none" stroke="black" d="M135.84,-945.769C164.398,-955.633 220.562,-973.491 270,-980 293.795,-983.133 301.444,-988.2 324,-980 343.532,-972.899 359.944,-950.463 360.951,-949.068"/>
<polygon fill="none" stroke="black" points="135.503,-945.65 128.513,-947.423 124.188,-941.653 131.178,-939.88 135.503,-945.65"/>
</g>
<!-- x1ODE_empty -->
<g id="node58" class="node"><title>x1ODE_empty</title>
<text text-anchor="middle" x="27" y="-934.5" font-family="Times Roman,serif" font-size="15.00" fill="blue">Ø</text>
</g>
<!-- x1ODE_empty&#45;&gt;x1ODE -->
<g id="edge44" class="edge"><title>x1ODE_empty&#45;&gt;x1ODE</title>
<path fill="none" stroke="black" d="M54.003,-939C73.2642,-939 97.7921,-939 109.766,-939"/>
</g>
<!-- x1ODE_intermediate_p&#45;&gt;x1 -->
<g id="edge48" class="edge"><title>x1ODE_intermediate_p&#45;&gt;x1</title>
<path fill="none" stroke="black" d="M207.065,-880.88C209.082,-877.16 257.366,-788.102 282.335,-742.049"/>
<polygon fill="black" stroke="black" points="285.451,-743.644 287.141,-733.185 279.297,-740.308 285.451,-743.644"/>
</g>
<!-- x2ODE -->
<g id="node68" class="node"><title>x2ODE</title>
<polygon fill="none" stroke="black" points="124,-709 110,-709 110,-695 124,-695 124,-709"/>
</g>
<!-- x2ODE_intermediate_p -->
<g id="node71" class="node"><title>x2ODE_intermediate_p</title>
<ellipse fill="black" stroke="black" cx="207" cy="-681" rx="0.036" ry="0.036"/>
</g>
<!-- x2ODE&#45;&gt;x2ODE_intermediate_p -->
<g id="edge60" class="edge"><title>x2ODE&#45;&gt;x2ODE_intermediate_p</title>
<path fill="none" stroke="black" d="M124.062,-700.352C144.947,-695.479 205.081,-681.448 206.955,-681.01"/>
</g>
<!-- x2ODE&#45;&gt;x2ODE_intermediate_m -->
<g id="edge64" class="edge"><title>x2ODE&#45;&gt;x2ODE_intermediate_m</title>
<path fill="none" stroke="black" d="M132.291,-717.816C158.57,-744.363 214.815,-798.462 270,-834 306.28,-857.364 357.669,-874.876 360.845,-875.948"/>
<polygon fill="none" stroke="black" points="132.143,-717.665 125.088,-716.173 123.752,-709.087 130.807,-710.579 132.143,-717.665"/>
</g>
<!-- x2ODE_empty -->
<g id="node69" class="node"><title>x2ODE_empty</title>
<text text-anchor="middle" x="27" y="-697.5" font-family="Times Roman,serif" font-size="15.00" fill="blue">Ø</text>
</g>
<!-- x2ODE_empty&#45;&gt;x2ODE -->
<g id="edge58" class="edge"><title>x2ODE_empty&#45;&gt;x2ODE</title>
<path fill="none" stroke="black" d="M54.003,-702C73.2642,-702 97.7921,-702 109.766,-702"/>
</g>
<!-- x2ODE_intermediate_p&#45;&gt;x2 -->
<g id="edge62" class="edge"><title>x2ODE_intermediate_p&#45;&gt;x2</title>
<path fill="none" stroke="black" d="M207.065,-680.986C208.565,-680.652 235.648,-674.634 259.704,-669.288"/>
<polygon fill="black" stroke="black" points="260.743,-672.643 269.745,-667.057 259.224,-665.809 260.743,-672.643"/>
</g>
<!-- yODE -->
<g id="node79" class="node"><title>yODE</title>
<polygon fill="none" stroke="black" points="124,-849 110,-849 110,-835 124,-835 124,-849"/>
</g>
<!-- yODE_intermediate_p -->
<g id="node82" class="node"><title>yODE_intermediate_p</title>
<ellipse fill="black" stroke="black" cx="207" cy="-899" rx="0.036" ry="0.036"/>
</g>
<!-- yODE&#45;&gt;yODE_intermediate_p -->
<g id="edge74" class="edge"><title>yODE&#45;&gt;yODE_intermediate_p</title>
<path fill="none" stroke="black" d="M124.203,-848.781C135.368,-858.976 157.877,-878.302 180,-890 190.833,-895.728 206.016,-898.804 206.954,-898.991"/>
</g>
<!-- yODE&#45;&gt;yODE_intermediate_m -->
<g id="edge78" class="edge"><title>yODE&#45;&gt;yODE_intermediate_m</title>
<path fill="none" stroke="black" d="M135.263,-834.502C172.047,-819.115 257.24,-782.038 324,-742 340.913,-731.857 359.781,-716.027 360.943,-715.048"/>
<polygon fill="none" stroke="black" points="135.112,-834.564 131.099,-840.555 124.025,-839.154 128.038,-833.163 135.112,-834.564"/>
</g>
<!-- yODE_empty -->
<g id="node80" class="node"><title>yODE_empty</title>
<text text-anchor="middle" x="27" y="-837.5" font-family="Times Roman,serif" font-size="15.00" fill="blue">Ø</text>
</g>
<!-- yODE_empty&#45;&gt;yODE -->
<g id="edge72" class="edge"><title>yODE_empty&#45;&gt;yODE</title>
<path fill="none" stroke="black" d="M54.003,-842C73.2642,-842 97.7921,-842 109.766,-842"/>
</g>
<!-- yODE_intermediate_p&#45;&gt;y -->
<g id="edge76" class="edge"><title>yODE_intermediate_p&#45;&gt;y</title>
<path fill="none" stroke="black" d="M207.065,-899C208.565,-899 235.648,-899 259.704,-899"/>
<polygon fill="black" stroke="black" points="259.745,-902.5 269.745,-899 259.745,-895.5 259.745,-902.5"/>
</g>
<!-- yppODE -->
<g id="node91" class="node"><title>yppODE</title>
<polygon fill="none" stroke="black" points="124,-604 110,-604 110,-590 124,-590 124,-604"/>
</g>
<!-- yppODE_intermediate_p -->
<g id="node94" class="node"><title>yppODE_intermediate_p</title>
<ellipse fill="black" stroke="black" cx="207" cy="-578" rx="0.036" ry="0.036"/>
</g>
<!-- yppODE&#45;&gt;yppODE_intermediate_p -->
<g id="edge90" class="edge"><title>yppODE&#45;&gt;yppODE_intermediate_p</title>
<path fill="none" stroke="black" d="M124.062,-595.509C144.947,-591.1 205.081,-578.405 206.955,-578.009"/>
</g>
<!-- yppODE&#45;&gt;yppODE_intermediate_m -->
<g id="edge94" class="edge"><title>yppODE&#45;&gt;yppODE_intermediate_m</title>
<path fill="none" stroke="black" d="M136.469,-597.582C174.159,-599.325 259.091,-606.278 324,-634 342.136,-641.746 359.857,-659.823 360.947,-660.945"/>
<polygon fill="none" stroke="black" points="136.106,-597.569 129.963,-601.346 124.115,-597.127 130.258,-593.351 136.106,-597.569"/>
</g>
<!-- yppODE_empty -->
<g id="node92" class="node"><title>yppODE_empty</title>
<text text-anchor="middle" x="27" y="-592.5" font-family="Times Roman,serif" font-size="15.00" fill="blue">Ø</text>
</g>
<!-- yppODE_empty&#45;&gt;yppODE -->
<g id="edge88" class="edge"><title>yppODE_empty&#45;&gt;yppODE</title>
<path fill="none" stroke="black" d="M54.003,-597C73.2642,-597 97.7921,-597 109.766,-597"/>
</g>
<!-- yppODE_intermediate_p&#45;&gt;ypp -->
<g id="edge92" class="edge"><title>yppODE_intermediate_p&#45;&gt;ypp</title>
<path fill="none" stroke="black" d="M207.065,-577.993C208.565,-577.844 235.648,-575.135 259.704,-572.73"/>
<polygon fill="black" stroke="black" points="260.143,-576.203 269.745,-571.725 259.446,-569.238 260.143,-576.203"/>
</g>
<!-- zODE -->
<g id="node105" class="node"><title>zODE</title>
<polygon fill="none" stroke="black" points="124,-466 110,-466 110,-452 124,-452 124,-466"/>
</g>
<!-- zODE_intermediate_p -->
<g id="node108" class="node"><title>zODE_intermediate_p</title>
<ellipse fill="black" stroke="black" cx="207" cy="-470" rx="0.036" ry="0.036"/>
</g>
<!-- zODE&#45;&gt;zODE_intermediate_p -->
<g id="edge110" class="edge"><title>zODE&#45;&gt;zODE_intermediate_p</title>
<path fill="none" stroke="black" d="M124.062,-459.863C144.947,-462.416 205.081,-469.765 206.955,-469.995"/>
</g>
<!-- zODE&#45;&gt;zODE_intermediate_m -->
<g id="edge114" class="edge"><title>zODE&#45;&gt;zODE_intermediate_m</title>
<path fill="none" stroke="black" d="M134.981,-450.316C163.174,-436.995 219.758,-411.444 270,-396 308.259,-384.24 357.793,-377.434 360.851,-377.02"/>
<polygon fill="none" stroke="black" points="134.976,-450.318 131.289,-456.515 124.15,-455.495 127.837,-449.298 134.976,-450.318"/>
</g>
<!-- zODE_empty -->
<g id="node106" class="node"><title>zODE_empty</title>
<text text-anchor="middle" x="27" y="-454.5" font-family="Times Roman,serif" font-size="15.00" fill="blue">Ø</text>
</g>
<!-- zODE_empty&#45;&gt;zODE -->
<g id="edge108" class="edge"><title>zODE_empty&#45;&gt;zODE</title>
<path fill="none" stroke="black" d="M54.003,-459C73.2642,-459 97.7921,-459 109.766,-459"/>
</g>
<!-- zODE_intermediate_p&#45;&gt;z -->
<g id="edge112" class="edge"><title>zODE_intermediate_p&#45;&gt;z</title>
<path fill="none" stroke="black" d="M207.065,-470.033C208.585,-470.793 236.378,-484.689 260.669,-496.835"/>
<polygon fill="black" stroke="black" points="259.236,-500.031 269.745,-501.373 262.366,-493.77 259.236,-500.031"/>
</g>
<!-- zppODE -->
<g id="node117" class="node"><title>zppODE</title>
<polygon fill="none" stroke="black" points="124,-375 110,-375 110,-361 124,-361 124,-375"/>
</g>
<!-- zppODE_intermediate_p -->
<g id="node120" class="node"><title>zppODE_intermediate_p</title>
<ellipse fill="black" stroke="black" cx="207" cy="-342" rx="0.036" ry="0.036"/>
</g>
<!-- zppODE&#45;&gt;zppODE_intermediate_p -->
<g id="edge126" class="edge"><title>zppODE&#45;&gt;zppODE_intermediate_p</title>
<path fill="none" stroke="black" d="M124.062,-365.96C144.947,-359.926 205.081,-342.554 206.955,-342.013"/>
</g>
<!-- zppODE&#45;&gt;zppODE_intermediate_m -->
<g id="edge130" class="edge"><title>zppODE&#45;&gt;zppODE_intermediate_m</title>
<path fill="none" stroke="black" d="M134.617,-379.622C162.302,-397.371 218.192,-431.153 270,-450 307.614,-463.684 357.752,-468.686 360.849,-468.986"/>
<polygon fill="none" stroke="black" points="134.341,-379.442 127.13,-379.521 124.284,-372.896 131.495,-372.816 134.341,-379.442"/>
</g>
<!-- zppODE_empty -->
<g id="node118" class="node"><title>zppODE_empty</title>
<text text-anchor="middle" x="27" y="-363.5" font-family="Times Roman,serif" font-size="15.00" fill="blue">Ø</text>
</g>
<!-- zppODE_empty&#45;&gt;zppODE -->
<g id="edge124" class="edge"><title>zppODE_empty&#45;&gt;zppODE</title>
<path fill="none" stroke="black" d="M54.003,-368C73.2642,-368 97.7921,-368 109.766,-368"/>
</g>
<!-- zppODE_intermediate_p&#45;&gt;zpp -->
<g id="edge128" class="edge"><title>zppODE_intermediate_p&#45;&gt;zpp</title>
<path fill="none" stroke="black" d="M207.065,-341.953C208.643,-340.813 238.551,-319.213 263.449,-301.231"/>
<polygon fill="black" stroke="black" points="265.595,-303.998 271.653,-295.306 261.497,-298.324 265.595,-303.998"/>
</g>
<!-- fGEFODE -->
<g id="node129" class="node"><title>fGEFODE</title>
<polygon fill="none" stroke="black" points="304,-198 290,-198 290,-184 304,-184 304,-198"/>
</g>
<!-- fGEFODE_intermediate_p -->
<g id="node132" class="node"><title>fGEFODE_intermediate_p</title>
<ellipse fill="black" stroke="black" cx="361" cy="-191" rx="0.036" ry="0.036"/>
</g>
<!-- fGEFODE&#45;&gt;fGEFODE_intermediate_p -->
<g id="edge142" class="edge"><title>fGEFODE&#45;&gt;fGEFODE_intermediate_p</title>
<path fill="none" stroke="black" d="M304.342,-191C320.627,-191 358.532,-191 360.885,-191"/>
</g>
<!-- fGEFODE&#45;&gt;fGEFODE_intermediate_m -->
<g id="edge146" class="edge"><title>fGEFODE&#45;&gt;fGEFODE_intermediate_m</title>
<path fill="none" stroke="black" d="M313.088,-206.836C331.351,-224.814 358.891,-251.923 360.885,-253.887"/>
<polygon fill="none" stroke="black" points="312.893,-206.645 305.811,-205.287 304.342,-198.227 311.424,-199.585 312.893,-206.645"/>
</g>
<!-- fGEFODE_empty -->
<g id="node130" class="node"><title>fGEFODE_empty</title>
<text text-anchor="middle" x="207" y="-186.5" font-family="Times Roman,serif" font-size="15.00" fill="blue">Ø</text>
</g>
<!-- fGEFODE_empty&#45;&gt;fGEFODE -->
<g id="edge140" class="edge"><title>fGEFODE_empty&#45;&gt;fGEFODE</title>
<path fill="none" stroke="black" d="M234.003,-191C253.264,-191 277.792,-191 289.766,-191"/>
</g>
<!-- fGEFODE_intermediate_p&#45;&gt;fGEF -->
<g id="edge144" class="edge"><title>fGEFODE_intermediate_p&#45;&gt;fGEF</title>
<path fill="none" stroke="black" d="M361.046,-191C361.885,-191 373.971,-191 387.414,-191"/>
<polygon fill="black" stroke="black" points="387.794,-194.5 397.794,-191 387.794,-187.5 387.794,-194.5"/>
</g>
<!-- wODE -->
<g id="node138" class="node"><title>wODE</title>
<polygon fill="none" stroke="black" points="304,-241 290,-241 290,-227 304,-227 304,-241"/>
</g>
<!-- wODE_intermediate_p -->
<g id="node141" class="node"><title>wODE_intermediate_p</title>
<ellipse fill="black" stroke="black" cx="361" cy="-235" rx="0.036" ry="0.036"/>
</g>
<!-- wODE&#45;&gt;wODE_intermediate_p -->
<g id="edge152" class="edge"><title>wODE&#45;&gt;wODE_intermediate_p</title>
<path fill="none" stroke="black" d="M304.342,-234.115C320.627,-234.369 358.532,-234.961 360.885,-234.998"/>
</g>
<!-- wODE&#45;&gt;wODE_intermediate_m -->
<g id="edge156" class="edge"><title>wODE&#45;&gt;wODE_intermediate_m</title>
<path fill="none" stroke="black" d="M314.6,-244.29C317.744,-246.168 320.979,-248.126 324,-250 340.136,-260.009 359.732,-273.149 360.941,-273.96"/>
<polygon fill="none" stroke="black" points="314.491,-244.226 307.291,-244.626 304.153,-238.133 311.353,-237.734 314.491,-244.226"/>
</g>
<!-- wODE_empty -->
<g id="node139" class="node"><title>wODE_empty</title>
<text text-anchor="middle" x="207" y="-240.5" font-family="Times Roman,serif" font-size="15.00" fill="blue">Ø</text>
</g>
<!-- wODE_empty&#45;&gt;wODE -->
<g id="edge150" class="edge"><title>wODE_empty&#45;&gt;wODE</title>
<path fill="none" stroke="black" d="M234.003,-241.7C253.264,-239.345 277.792,-236.348 289.766,-234.884"/>
</g>
<!-- wODE_intermediate_p&#45;&gt;w -->
<g id="edge154" class="edge"><title>wODE_intermediate_p&#45;&gt;w</title>
<path fill="none" stroke="black" d="M361.046,-235.007C361.905,-235.141 374.565,-237.12 388.397,-239.281"/>
<polygon fill="black" stroke="black" points="388.104,-242.777 398.524,-240.863 389.184,-235.861 388.104,-242.777"/>
</g>
<!-- ephODE -->
<g id="node147" class="node"><title>ephODE</title>
<polygon fill="none" stroke="black" points="124,-245 110,-245 110,-231 124,-231 124,-245"/>
</g>
<!-- ephODE_intermediate_p -->
<g id="node150" class="node"><title>ephODE_intermediate_p</title>
<ellipse fill="black" stroke="black" cx="207" cy="-312" rx="0.036" ry="0.036"/>
</g>
<!-- ephODE&#45;&gt;ephODE_intermediate_p -->
<g id="edge162" class="edge"><title>ephODE&#45;&gt;ephODE_intermediate_p</title>
<path fill="none" stroke="black" d="M124.062,-243.807C144.947,-260.979 205.081,-310.422 206.955,-311.963"/>
</g>
<!-- ephODE&#45;&gt;ephODE_intermediate_m -->
<g id="edge166" class="edge"><title>ephODE&#45;&gt;ephODE_intermediate_m</title>
<path fill="none" stroke="black" d="M126.837,-220.462C137.548,-203.128 156.354,-177.328 180,-164 225.893,-138.133 244.319,-145 297,-145 297,-145 297,-145 361,-145 402.317,-145 414.948,-145.718 452,-164 470.343,-173.051 486.932,-193.658 487.95,-194.938"/>
<polygon fill="none" stroke="black" points="126.817,-220.496 127.238,-227.694 120.755,-230.852 120.334,-223.653 126.817,-220.496"/>
</g>
<!-- ephODE_empty -->
<g id="node148" class="node"><title>ephODE_empty</title>
<text text-anchor="middle" x="27" y="-233.5" font-family="Times Roman,serif" font-size="15.00" fill="blue">Ø</text>
</g>
<!-- ephODE_empty&#45;&gt;ephODE -->
<g id="edge160" class="edge"><title>ephODE_empty&#45;&gt;ephODE</title>
<path fill="none" stroke="black" d="M54.003,-238C73.2642,-238 97.7921,-238 109.766,-238"/>
</g>
<!-- ephODE_intermediate_p&#45;&gt;eph -->
<g id="edge164" class="edge"><title>ephODE_intermediate_p&#45;&gt;eph</title>
<path fill="none" stroke="black" d="M207.065,-312.014C208.6,-312.338 236.918,-318.316 261.372,-323.479"/>
<polygon fill="black" stroke="black" points="260.672,-326.908 271.179,-325.549 262.118,-320.059 260.672,-326.908"/>
</g>
</g>
</svg>
