<?xml version="1.0" encoding="UTF-8" standalone="no"?>
<!DOCTYPE svg PUBLIC "-//W3C//DTD SVG 1.1//EN"
 "http://www.w3.org/Graphics/SVG/1.1/DTD/svg11.dtd">
<!-- Generated by graphviz version 2.30.1 (20140821.0912)
 -->
<!-- Title: G Pages: 1 -->
<svg width="1792pt" height="594pt"
 viewBox="0.00 0.00 1792.00 594.00" xmlns="http://www.w3.org/2000/svg" xmlns:xlink="http://www.w3.org/1999/xlink">
<g id="graph0" class="graph" transform="scale(1 1) rotate(0) translate(4 590)">
<title>G</title>
<polygon fill="white" stroke="white" points="-4,5 -4,-590 1789,-590 1789,5 -4,5"/>
<!-- FeDuo -->
<g id="FeDuo [CHEBI:24875]" class="node"><title>FeDuo</title>
<ellipse fill="none" stroke="black" cx="194" cy="-64" rx="18" ry="18"/>
<text text-anchor="middle" x="194" y="-61.5" font-family="Times,serif" font-size="10.00">FeDuo</text>
</g>
<!-- Duo_NTBI_intermediate_r -->
<g id="node23" class="node"><title>Duo_NTBI_intermediate_r</title>
<ellipse fill="black" stroke="black" cx="249" cy="-224" rx="0.036" ry="0.036"/>
</g>
<!-- FeDuo&#45;&gt;Duo_NTBI_intermediate_r -->
<g id="edge11" class="edge"><title>FeDuo&#45;&gt;Duo_NTBI_intermediate_r</title>
<path fill="none" stroke="black" d="M200.572,-80.8204C213.967,-121.258 246.948,-220.824 247.975,-223.926"/>
</g>
<!-- DuoLoss_intermediate_r -->
<g id="node44" class="node"><title>DuoLoss_intermediate_r</title>
<ellipse fill="black" stroke="black" cx="293" cy="-7" rx="0.036" ry="0.036"/>
</g>
<!-- FeDuo&#45;&gt;DuoLoss_intermediate_r -->
<g id="edge43" class="edge"><title>FeDuo&#45;&gt;DuoLoss_intermediate_r</title>
<path fill="none" stroke="black" d="M209.711,-54.5237C220.271,-47.7993 234.893,-38.6469 248,-31 266.639,-20.1258 290.458,-7.79693 291.928,-7.03699"/>
</g>
<!-- FeRBC -->
<g id="FeRBC [CHEBI:24875]" class="node"><title>FeRBC</title>
<ellipse fill="none" stroke="black" cx="1347" cy="-305" rx="18" ry="18"/>
<text text-anchor="middle" x="1347" y="-302.5" font-family="Times,serif" font-size="10.00">FeRBC</text>
</g>
<!-- RBC_Spleen_intermediate_r -->
<g id="node30" class="node"><title>RBC_Spleen_intermediate_r</title>
<ellipse fill="black" stroke="black" cx="1445" cy="-301" rx="0.036" ry="0.036"/>
</g>
<!-- FeRBC&#45;&gt;RBC_Spleen_intermediate_r -->
<g id="edge22" class="edge"><title>FeRBC&#45;&gt;RBC_Spleen_intermediate_r</title>
<path fill="none" stroke="black" d="M1365.16,-304.285C1391.91,-303.17 1440.82,-301.132 1443.85,-301.006"/>
</g>
<!-- FeSpleen -->
<g id="FeSpleen [CHEBI:24875]" class="node"><title>FeSpleen</title>
<ellipse fill="none" stroke="black" cx="1628" cy="-284" rx="31.577" ry="18"/>
<text text-anchor="middle" x="1628" y="-281.5" font-family="Times,serif" font-size="10.00">FeSpleen</text>
</g>
<!-- Spleen_NTBI_intermediate_r -->
<g id="node33" class="node"><title>Spleen_NTBI_intermediate_r</title>
<ellipse fill="black" stroke="black" cx="1697" cy="-284" rx="0.036" ry="0.036"/>
</g>
<!-- FeSpleen&#45;&gt;Spleen_NTBI_intermediate_r -->
<g id="edge26" class="edge"><title>FeSpleen&#45;&gt;Spleen_NTBI_intermediate_r</title>
<path fill="none" stroke="black" d="M1660.15,-284C1677.1,-284 1694.85,-284 1695.95,-284"/>
</g>
<!-- FeLiver -->
<g id="FeLiver [CHEBI:24875]" class="node"><title>FeLiver</title>
<ellipse fill="none" stroke="black" cx="1079" cy="-374" rx="28.0137" ry="18"/>
<text text-anchor="middle" x="1079" y="-371.5" font-family="Times,serif" font-size="10.00">FeLiver</text>
</g>
<!-- Liver_NTBI_intermediate_r -->
<g id="node37" class="node"><title>Liver_NTBI_intermediate_r</title>
<ellipse fill="black" stroke="black" cx="1145" cy="-491" rx="0.036" ry="0.036"/>
</g>
<!-- FeLiver&#45;&gt;Liver_NTBI_intermediate_r -->
<g id="edge32" class="edge"><title>FeLiver&#45;&gt;Liver_NTBI_intermediate_r</title>
<path fill="none" stroke="black" d="M1089.31,-391.013C1106.78,-422.955 1142.85,-488.898 1143.97,-490.951"/>
</g>
<!-- Tf -->
<g id="Tf" class="node"><title>Tf</title>
<path fill="none" stroke="black" d="M1094,-247C1094,-247 1064,-247 1064,-247 1058,-247 1052,-241 1052,-235 1052,-235 1052,-223 1052,-223 1052,-217 1058,-211 1064,-211 1064,-211 1094,-211 1094,-211 1100,-211 1106,-217 1106,-223 1106,-223 1106,-235 1106,-235 1106,-241 1100,-247 1094,-247"/>
<text text-anchor="middle" x="1079" y="-226.5" font-family="Times,serif" font-size="10.00">Tf</text>
</g>
<!-- NTBI_Fe1Tf_intermediate_r -->
<g id="node41" class="node"><title>NTBI_Fe1Tf_intermediate_r</title>
<ellipse fill="black" stroke="black" cx="459" cy="-291" rx="0.036" ry="0.036"/>
</g>
<!-- Tf&#45;&gt;NTBI_Fe1Tf_intermediate_r -->
<g id="edge39" class="edge"><title>Tf&#45;&gt;NTBI_Fe1Tf_intermediate_r</title>
<path fill="none" stroke="black" d="M1057.39,-210.992C1029.43,-187.886 976.888,-149.001 924,-134 828.478,-106.907 801.29,-159 702,-159 546,-159 546,-159 546,-159 477.075,-159 460.513,-286.907 460.012,-290.904"/>
</g>
<!-- Hepcidin -->
<g id="Hepcidin" class="node"><title>Hepcidin</title>
<path fill="none" stroke="black" d="M1225.5,-555C1225.5,-555 1194.5,-555 1194.5,-555 1188.5,-555 1182.5,-549 1182.5,-543 1182.5,-543 1182.5,-531 1182.5,-531 1182.5,-525 1188.5,-519 1194.5,-519 1194.5,-519 1225.5,-519 1225.5,-519 1231.5,-519 1237.5,-525 1237.5,-531 1237.5,-531 1237.5,-543 1237.5,-543 1237.5,-549 1231.5,-555 1225.5,-555"/>
<text text-anchor="middle" x="1210" y="-534.5" font-family="Times,serif" font-size="10.00">Hepcidin</text>
</g>
<!-- HepcidinDecay_intermediate_r -->
<g id="node20" class="node"><title>HepcidinDecay_intermediate_r</title>
<ellipse fill="black" stroke="black" cx="1275" cy="-554" rx="0.036" ry="0.036"/>
</g>
<!-- Hepcidin&#45;&gt;HepcidinDecay_intermediate_r -->
<g id="edge8" class="edge"><title>Hepcidin&#45;&gt;HepcidinDecay_intermediate_r</title>
<path fill="none" stroke="black" d="M1237.72,-544.21C1254.35,-548.698 1272.81,-553.678 1273.94,-553.985"/>
</g>
<!-- Duo_NTBI_intermediate_m -->
<g id="node25" class="node"><title>Duo_NTBI_intermediate_m</title>
<ellipse fill="black" stroke="black" cx="1275" cy="-576" rx="0.036" ry="0.036"/>
</g>
<!-- Hepcidin&#45;&gt;Duo_NTBI_intermediate_m -->
<g id="edge15" class="edge"><title>Hepcidin&#45;&gt;Duo_NTBI_intermediate_m</title>
<path fill="none" stroke="black" d="M1237.72,-553.54C1254.35,-563.837 1272.81,-575.262 1273.94,-575.966"/>
</g>
<!-- Spleen_NTBI_intermediate_m -->
<g id="node35" class="node"><title>Spleen_NTBI_intermediate_m</title>
<ellipse fill="black" stroke="black" cx="1784" cy="-348" rx="0.036" ry="0.036"/>
</g>
<!-- Hepcidin&#45;&gt;Spleen_NTBI_intermediate_m -->
<g id="edge30" class="edge"><title>Hepcidin&#45;&gt;Spleen_NTBI_intermediate_m</title>
<path fill="none" stroke="black" d="M1237.54,-532.295C1264.7,-527.896 1308.15,-522 1346,-522 1346,-522 1346,-522 1698,-522 1782.72,-522 1783.01,-353.395 1783,-348.126"/>
</g>
<!-- Liver_NTBI_intermediate_m -->
<g id="node39" class="node"><title>Liver_NTBI_intermediate_m</title>
<ellipse fill="black" stroke="black" cx="1275" cy="-494" rx="0.036" ry="0.036"/>
</g>
<!-- Hepcidin&#45;&gt;Liver_NTBI_intermediate_m -->
<g id="edge36" class="edge"><title>Hepcidin&#45;&gt;Liver_NTBI_intermediate_m</title>
<path fill="none" stroke="black" d="M1237.72,-518.764C1254.35,-507.411 1272.81,-494.814 1273.94,-494.038"/>
</g>
<!-- Rest_NTBI_intermediate_m -->
<g id="node61" class="node"><title>Rest_NTBI_intermediate_m</title>
<ellipse fill="black" stroke="black" cx="1275" cy="-435" rx="0.036" ry="0.036"/>
</g>
<!-- Hepcidin&#45;&gt;Rest_NTBI_intermediate_m -->
<g id="edge70" class="edge"><title>Hepcidin&#45;&gt;Rest_NTBI_intermediate_m</title>
<path fill="none" stroke="black" d="M1230.76,-518.857C1233.35,-516.025 1235.85,-513.029 1238,-510 1258.71,-480.774 1273.08,-437.788 1273.96,-435.13"/>
</g>
<!-- Fe2Tf -->
<g id="Fe2Tf [CHEBI:29034]" class="node"><title>Fe2Tf</title>
<path fill="none" stroke="black" d="M824,-355C824,-355 794,-355 794,-355 788,-355 782,-349 782,-343 782,-343 782,-331 782,-331 782,-325 788,-319 794,-319 794,-319 824,-319 824,-319 830,-319 836,-325 836,-331 836,-331 836,-343 836,-343 836,-349 830,-355 824,-355"/>
<text text-anchor="middle" x="809" y="-334.5" font-family="Times,serif" font-size="10.00">Fe2Tf</text>
</g>
<!-- Fe2Tf_BM_intermediate_r -->
<g id="node27" class="node"><title>Fe2Tf_BM_intermediate_r</title>
<ellipse fill="black" stroke="black" cx="873" cy="-323" rx="0.036" ry="0.036"/>
</g>
<!-- Fe2Tf&#45;&gt;Fe2Tf_BM_intermediate_r -->
<g id="edge17" class="edge"><title>Fe2Tf&#45;&gt;Fe2Tf_BM_intermediate_r</title>
<path fill="none" stroke="black" d="M836.294,-331.063C852.664,-327.366 870.826,-323.265 871.946,-323.012"/>
</g>
<!-- Fe2Tf_Liver_intermediate_r -->
<g id="node47" class="node"><title>Fe2Tf_Liver_intermediate_r</title>
<ellipse fill="black" stroke="black" cx="873" cy="-348" rx="0.036" ry="0.036"/>
</g>
<!-- Fe2Tf&#45;&gt;Fe2Tf_Liver_intermediate_r -->
<g id="edge47" class="edge"><title>Fe2Tf&#45;&gt;Fe2Tf_Liver_intermediate_r</title>
<path fill="none" stroke="black" d="M836.294,-341.665C852.664,-344.569 870.826,-347.792 871.946,-347.99"/>
</g>
<!-- Fe2Tf_Rest_intermediate_r -->
<g id="node50" class="node"><title>Fe2Tf_Rest_intermediate_r</title>
<ellipse fill="black" stroke="black" cx="873" cy="-247" rx="0.036" ry="0.036"/>
</g>
<!-- Fe2Tf&#45;&gt;Fe2Tf_Rest_intermediate_r -->
<g id="edge52" class="edge"><title>Fe2Tf&#45;&gt;Fe2Tf_Rest_intermediate_r</title>
<path fill="none" stroke="black" d="M822.547,-318.787C840.097,-293.311 870.054,-249.824 871.91,-247.131"/>
</g>
<!-- Fe2Tf_Duo_intermediate_r -->
<g id="node56" class="node"><title>Fe2Tf_Duo_intermediate_r</title>
<ellipse fill="black" stroke="black" cx="873" cy="-265" rx="0.036" ry="0.036"/>
</g>
<!-- Fe2Tf&#45;&gt;Fe2Tf_Duo_intermediate_r -->
<g id="edge61" class="edge"><title>Fe2Tf&#45;&gt;Fe2Tf_Duo_intermediate_r</title>
<path fill="none" stroke="black" d="M825.645,-318.831C843.438,-298.168 870.26,-267.02 871.919,-265.094"/>
</g>
<!-- Fe1Tf -->
<g id="Fe1Tf [CHEBI:29034]" class="node"><title>Fe1Tf</title>
<ellipse fill="none" stroke="black" cx="602" cy="-291" rx="18" ry="18"/>
<text text-anchor="middle" x="602" y="-288.5" font-family="Times,serif" font-size="10.00">Fe1Tf</text>
</g>
<!-- Fe1Tf_Fe2Tf_intermediate_r -->
<g id="node63" class="node"><title>Fe1Tf_Fe2Tf_intermediate_r</title>
<ellipse fill="black" stroke="black" cx="657" cy="-337" rx="0.036" ry="0.036"/>
</g>
<!-- Fe1Tf&#45;&gt;Fe1Tf_Fe2Tf_intermediate_r -->
<g id="edge72" class="edge"><title>Fe1Tf&#45;&gt;Fe1Tf_Fe2Tf_intermediate_r</title>
<path fill="none" stroke="black" d="M616.101,-302.371C631.305,-315.567 654.496,-335.694 655.93,-336.939"/>
</g>
<!-- Fe1Tf_Liver_intermediate_r -->
<g id="node66" class="node"><title>Fe1Tf_Liver_intermediate_r</title>
<ellipse fill="black" stroke="black" cx="657" cy="-319" rx="0.036" ry="0.036"/>
</g>
<!-- Fe1Tf&#45;&gt;Fe1Tf_Liver_intermediate_r -->
<g id="edge77" class="edge"><title>Fe1Tf&#45;&gt;Fe1Tf_Liver_intermediate_r</title>
<path fill="none" stroke="black" d="M618.33,-299.099C633.494,-307.11 654.63,-318.276 655.936,-318.966"/>
</g>
<!-- Fe1Tf_BM_intermediate_r -->
<g id="node69" class="node"><title>Fe1Tf_BM_intermediate_r</title>
<ellipse fill="black" stroke="black" cx="701" cy="-291" rx="0.036" ry="0.036"/>
</g>
<!-- Fe1Tf&#45;&gt;Fe1Tf_BM_intermediate_r -->
<g id="edge82" class="edge"><title>Fe1Tf&#45;&gt;Fe1Tf_BM_intermediate_r</title>
<path fill="none" stroke="black" d="M620.342,-291C647.37,-291 696.788,-291 699.851,-291"/>
</g>
<!-- Fe1Tf_Rest_intermediate_r -->
<g id="node72" class="node"><title>Fe1Tf_Rest_intermediate_r</title>
<ellipse fill="black" stroke="black" cx="809" cy="-110" rx="0.036" ry="0.036"/>
</g>
<!-- Fe1Tf&#45;&gt;Fe1Tf_Rest_intermediate_r -->
<g id="edge87" class="edge"><title>Fe1Tf&#45;&gt;Fe1Tf_Rest_intermediate_r</title>
<path fill="none" stroke="black" d="M616.136,-279.402C660.674,-240.078 803.443,-114.024 807.894,-110.094"/>
</g>
<!-- Fe1Tf_Duo_intermediate_r -->
<g id="node75" class="node"><title>Fe1Tf_Duo_intermediate_r</title>
<ellipse fill="black" stroke="black" cx="657" cy="-255" rx="0.036" ry="0.036"/>
</g>
<!-- Fe1Tf&#45;&gt;Fe1Tf_Duo_intermediate_r -->
<g id="edge92" class="edge"><title>Fe1Tf&#45;&gt;Fe1Tf_Duo_intermediate_r</title>
<path fill="none" stroke="black" d="M617.203,-281.353C632.412,-271.022 654.564,-255.976 655.933,-255.045"/>
</g>
<!-- NTBI -->
<g id="NTBI [CHEBI:24875]" class="node"><title>NTBI</title>
<ellipse fill="none" stroke="black" cx="404" cy="-337" rx="18" ry="18"/>
<text text-anchor="middle" x="404" y="-334.5" font-family="Times,serif" font-size="10.00">NTBI</text>
</g>
<!-- NTBI&#45;&gt;NTBI_Fe1Tf_intermediate_r -->
<g id="edge38" class="edge"><title>NTBI&#45;&gt;NTBI_Fe1Tf_intermediate_r</title>
<path fill="none" stroke="black" d="M418.101,-325.629C433.305,-312.433 456.496,-292.306 457.93,-291.061"/>
</g>
<!-- NTBI&#45;&gt;Fe1Tf_Fe2Tf_intermediate_r -->
<g id="edge73" class="edge"><title>NTBI&#45;&gt;Fe1Tf_Fe2Tf_intermediate_r</title>
<path fill="none" stroke="black" d="M422.172,-337C441.559,-337 474.045,-337 502,-337 502,-337 502,-337 548,-337 595.25,-337 654.128,-337 655.956,-337"/>
</g>
<!-- FeRest -->
<g id="FeRest [CHEBI:24875]" class="node"><title>FeRest</title>
<ellipse fill="none" stroke="black" cx="1079" cy="-118" rx="27" ry="18"/>
<text text-anchor="middle" x="1079" y="-115.5" font-family="Times,serif" font-size="10.00">FeRest</text>
</g>
<!-- RestLoss_intermediate_r -->
<g id="node53" class="node"><title>RestLoss_intermediate_r</title>
<ellipse fill="black" stroke="black" cx="1145" cy="-118" rx="0.036" ry="0.036"/>
</g>
<!-- FeRest&#45;&gt;RestLoss_intermediate_r -->
<g id="edge57" class="edge"><title>FeRest&#45;&gt;RestLoss_intermediate_r</title>
<path fill="none" stroke="black" d="M1106.03,-118C1123.2,-118 1142.74,-118 1143.94,-118"/>
</g>
<!-- Rest_NTBI_intermediate_r -->
<g id="node59" class="node"><title>Rest_NTBI_intermediate_r</title>
<ellipse fill="black" stroke="black" cx="1145" cy="-199" rx="0.036" ry="0.036"/>
</g>
<!-- FeRest&#45;&gt;Rest_NTBI_intermediate_r -->
<g id="edge66" class="edge"><title>FeRest&#45;&gt;Rest_NTBI_intermediate_r</title>
<path fill="none" stroke="black" d="M1092.64,-134.003C1110.71,-156.871 1141.97,-196.43 1143.91,-198.881"/>
</g>
<!-- FeOutside -->
<g id="FeOutside [CHEBI:24875]" class="node"><title>FeOutside</title>
<ellipse fill="none" stroke="black" cx="1347" cy="-102" rx="34.9638" ry="18"/>
<text text-anchor="middle" x="1347" y="-99.5" font-family="Times,serif" font-size="10.00">FeOutside</text>
</g>
<!-- FeBM -->
<g id="FeBM [CHEBI:24875]" class="node"><title>FeBM</title>
<ellipse fill="none" stroke="black" cx="1079" cy="-286" rx="18" ry="18"/>
<text text-anchor="middle" x="1079" y="-283.5" font-family="Times,serif" font-size="10.00">FeBM</text>
</g>
<!-- BM_RBC_intermediate_r -->
<g id="node78" class="node"><title>BM_RBC_intermediate_r</title>
<ellipse fill="black" stroke="black" cx="1145" cy="-302" rx="0.036" ry="0.036"/>
</g>
<!-- FeBM&#45;&gt;BM_RBC_intermediate_r -->
<g id="edge97" class="edge"><title>FeBM&#45;&gt;BM_RBC_intermediate_r</title>
<path fill="none" stroke="black" d="M1096.82,-290.204C1115.18,-294.796 1142.25,-301.561 1143.92,-301.98"/>
</g>
<!-- BM_Spleen_intermediate_r -->
<g id="node81" class="node"><title>BM_Spleen_intermediate_r</title>
<ellipse fill="black" stroke="black" cx="1347" cy="-269" rx="0.036" ry="0.036"/>
</g>
<!-- FeBM&#45;&gt;BM_Spleen_intermediate_r -->
<g id="edge101" class="edge"><title>FeBM&#45;&gt;BM_Spleen_intermediate_r</title>
<path fill="none" stroke="black" d="M1097.04,-284.911C1154.84,-281.217 1340.09,-269.378 1345.86,-269.009"/>
</g>
<!-- Diet -->
<g id="node13" class="node"><title>Diet</title>
<polygon fill="none" stroke="black" points="104,-71 90,-71 90,-57 104,-57 104,-71"/>
</g>
<!-- Diet_intermediate_p -->
<g id="node15" class="node"><title>Diet_intermediate_p</title>
<ellipse fill="black" stroke="black" cx="140" cy="-64" rx="0.036" ry="0.036"/>
</g>
<!-- Diet&#45;&gt;Diet_intermediate_p -->
<g id="edge2" class="edge"><title>Diet&#45;&gt;Diet_intermediate_p</title>
<path fill="none" stroke="black" d="M104.05,-64C115.098,-64 137.54,-64 138.932,-64"/>
</g>
<!-- Diet_empty -->
<g id="node14" class="node"><title>Diet_empty</title>
<text text-anchor="middle" x="27" y="-60.5" font-family="Times,serif" font-size="15.00" fill="blue">Ø</text>
</g>
<!-- Diet_empty&#45;&gt;Diet -->
<g id="edge1" class="edge"><title>Diet_empty&#45;&gt;Diet</title>
<path fill="none" stroke="black" d="M54.0961,-64C67.13,-64 81.8045,-64 89.8681,-64"/>
</g>
<!-- Diet_intermediate_p&#45;&gt;FeDuo -->
<g id="edge3" class="edge"><title>Diet_intermediate_p&#45;&gt;FeDuo</title>
<path fill="none" stroke="black" d="M141.149,-64C142.568,-64 153.891,-64 165.595,-64"/>
<polygon fill="black" stroke="black" points="165.739,-67.5001 175.739,-64 165.739,-60.5001 165.739,-67.5001"/>
</g>
<!-- HepcidinSynthesis -->
<g id="node16" class="node"><title>HepcidinSynthesis</title>
<polygon fill="none" stroke="black" points="1086,-544 1072,-544 1072,-530 1086,-530 1086,-544"/>
</g>
<!-- HepcidinSynthesis_intermediate_p -->
<g id="node18" class="node"><title>HepcidinSynthesis_intermediate_p</title>
<ellipse fill="black" stroke="black" cx="1145" cy="-537" rx="0.036" ry="0.036"/>
</g>
<!-- HepcidinSynthesis&#45;&gt;HepcidinSynthesis_intermediate_p -->
<g id="edge5" class="edge"><title>HepcidinSynthesis&#45;&gt;HepcidinSynthesis_intermediate_p</title>
<path fill="none" stroke="black" d="M1086.37,-537C1102.05,-537 1141.43,-537 1143.88,-537"/>
</g>
<!-- HepcidinSynthesis_empty -->
<g id="node17" class="node"><title>HepcidinSynthesis_empty</title>
<text text-anchor="middle" x="987" y="-533.5" font-family="Times,serif" font-size="15.00" fill="blue">Ø</text>
</g>
<!-- HepcidinSynthesis_empty&#45;&gt;HepcidinSynthesis -->
<g id="edge4" class="edge"><title>HepcidinSynthesis_empty&#45;&gt;HepcidinSynthesis</title>
<path fill="none" stroke="black" d="M1014.03,-537C1033.97,-537 1059.98,-537 1071.74,-537"/>
</g>
<!-- HepcidinSynthesis_intermediate_p&#45;&gt;Hepcidin -->
<g id="edge6" class="edge"><title>HepcidinSynthesis_intermediate_p&#45;&gt;Hepcidin</title>
<path fill="none" stroke="black" d="M1146.05,-537C1146.87,-537 1158.77,-537 1172,-537"/>
<polygon fill="black" stroke="black" points="1172.22,-540.5 1182.22,-537 1172.22,-533.5 1172.22,-540.5"/>
</g>
<!-- HepcidinDecay -->
<g id="node19" class="node"><title>HepcidinDecay</title>
<polygon fill="none" stroke="black" points="1354,-570 1340,-570 1340,-556 1354,-556 1354,-570"/>
</g>
<!-- HepcidinDecay_empty -->
<g id="node21" class="node"><title>HepcidinDecay_empty</title>
<text text-anchor="middle" x="1445" y="-564.5" font-family="Times,serif" font-size="15.00" fill="blue">Ø</text>
</g>
<!-- HepcidinDecay&#45;&gt;HepcidinDecay_empty -->
<g id="edge9" class="edge"><title>HepcidinDecay&#45;&gt;HepcidinDecay_empty</title>
<path fill="none" stroke="black" d="M1354.01,-563.313C1364.63,-563.866 1387.52,-565.058 1407.55,-566.102"/>
<polygon fill="black" stroke="black" points="1407.52,-569.605 1417.69,-566.63 1407.88,-562.614 1407.52,-569.605"/>
</g>
<!-- HepcidinDecay_intermediate_r&#45;&gt;HepcidinDecay -->
<g id="edge7" class="edge"><title>HepcidinDecay_intermediate_r&#45;&gt;HepcidinDecay</title>
<path fill="none" stroke="black" d="M1276.05,-554.007C1277.77,-554.228 1322.87,-560.027 1339.73,-562.193"/>
</g>
<!-- Duo_NTBI -->
<g id="node22" class="node"><title>Duo_NTBI</title>
<polygon fill="none" stroke="black" points="300,-344 286,-344 286,-330 300,-330 300,-344"/>
</g>
<!-- Duo_NTBI_intermediate_p -->
<g id="node24" class="node"><title>Duo_NTBI_intermediate_p</title>
<ellipse fill="black" stroke="black" cx="343" cy="-337" rx="0.036" ry="0.036"/>
</g>
<!-- Duo_NTBI&#45;&gt;Duo_NTBI_intermediate_p -->
<g id="edge12" class="edge"><title>Duo_NTBI&#45;&gt;Duo_NTBI_intermediate_p</title>
<path fill="none" stroke="black" d="M300.275,-337C312.88,-337 340.221,-337 341.917,-337"/>
</g>
<!-- Duo_NTBI&#45;&gt;Duo_NTBI_intermediate_m -->
<g id="edge14" class="edge"><title>Duo_NTBI&#45;&gt;Duo_NTBI_intermediate_m</title>
<path fill="none" stroke="black" d="M293.82,-344.097C293.193,-384.431 295.56,-583 403,-583 403,-583 403,-583 1146,-583 1202.08,-583 1271.78,-576.217 1273.95,-576.005"/>
</g>
<!-- Duo_NTBI_intermediate_r&#45;&gt;Duo_NTBI -->
<g id="edge10" class="edge"><title>Duo_NTBI_intermediate_r&#45;&gt;Duo_NTBI</title>
<path fill="none" stroke="black" d="M250.03,-224.082C251.104,-226.969 280.244,-305.372 289.325,-329.803"/>
</g>
<!-- Duo_NTBI_intermediate_p&#45;&gt;NTBI -->
<g id="edge13" class="edge"><title>Duo_NTBI_intermediate_p&#45;&gt;NTBI</title>
<path fill="none" stroke="black" d="M344.169,-337C345.931,-337 361.154,-337 375.671,-337"/>
<polygon fill="black" stroke="black" points="375.915,-340.5 385.915,-337 375.915,-333.5 375.915,-340.5"/>
</g>
<!-- Fe2Tf_BM -->
<g id="node26" class="node"><title>Fe2Tf_BM</title>
<polygon fill="none" stroke="black" points="924,-329 910,-329 910,-315 924,-315 924,-329"/>
</g>
<!-- Fe2Tf_BM_intermediate_p -->
<g id="node28" class="node"><title>Fe2Tf_BM_intermediate_p</title>
<ellipse fill="black" stroke="black" cx="987" cy="-295" rx="0.036" ry="0.036"/>
</g>
<!-- Fe2Tf_BM&#45;&gt;Fe2Tf_BM_intermediate_p -->
<g id="edge18" class="edge"><title>Fe2Tf_BM&#45;&gt;Fe2Tf_BM_intermediate_p</title>
<path fill="none" stroke="black" d="M924.275,-319.508C940.583,-313.033 983.222,-296.103 985.871,-295.051"/>
</g>
<!-- Fe2Tf_BM_intermediate_r&#45;&gt;Fe2Tf_BM -->
<g id="edge16" class="edge"><title>Fe2Tf_BM_intermediate_r&#45;&gt;Fe2Tf_BM</title>
<path fill="none" stroke="black" d="M874.12,-322.997C875.968,-322.953 898.602,-322.414 909.803,-322.148"/>
</g>
<!-- Fe2Tf_BM_intermediate_p&#45;&gt;FeBM -->
<g id="edge19" class="edge"><title>Fe2Tf_BM_intermediate_p&#45;&gt;FeBM</title>
<path fill="none" stroke="black" d="M988.065,-294.993C989.777,-294.822 1024.84,-291.316 1050.67,-288.733"/>
<polygon fill="black" stroke="black" points="1051.1,-292.207 1060.71,-287.729 1050.41,-285.242 1051.1,-292.207"/>
</g>
<!-- Fe2Tf_BM_intermediate_p&#45;&gt;Tf -->
<g id="edge20" class="edge"><title>Fe2Tf_BM_intermediate_p&#45;&gt;Tf</title>
<path fill="none" stroke="black" d="M988.045,-294.992C988.961,-294.821 1003.78,-291.993 1014,-286 1028.6,-277.438 1042.86,-265.231 1054.2,-254.308"/>
<polygon fill="black" stroke="black" points="1056.92,-256.541 1061.55,-247.013 1051.99,-251.571 1056.92,-256.541"/>
</g>
<!-- RBC_Spleen -->
<g id="node29" class="node"><title>RBC_Spleen</title>
<polygon fill="none" stroke="black" points="1522,-307 1508,-307 1508,-293 1522,-293 1522,-307"/>
</g>
<!-- RBC_Spleen_intermediate_p -->
<g id="node31" class="node"><title>RBC_Spleen_intermediate_p</title>
<ellipse fill="black" stroke="black" cx="1559" cy="-300" rx="0.036" ry="0.036"/>
</g>
<!-- RBC_Spleen&#45;&gt;RBC_Spleen_intermediate_p -->
<g id="edge23" class="edge"><title>RBC_Spleen&#45;&gt;RBC_Spleen_intermediate_p</title>
<path fill="none" stroke="black" d="M1522.2,-300C1533.52,-300 1556.5,-300 1557.93,-300"/>
</g>
<!-- RBC_Spleen_intermediate_r&#45;&gt;RBC_Spleen -->
<g id="edge21" class="edge"><title>RBC_Spleen_intermediate_r&#45;&gt;RBC_Spleen</title>
<path fill="none" stroke="black" d="M1446.05,-300.999C1447.72,-300.975 1491.53,-300.33 1507.91,-300.09"/>
</g>
<!-- RBC_Spleen_intermediate_p&#45;&gt;FeSpleen -->
<g id="edge24" class="edge"><title>RBC_Spleen_intermediate_p&#45;&gt;FeSpleen</title>
<path fill="none" stroke="black" d="M1560.05,-299.988C1560.94,-299.775 1574.08,-296.638 1588.48,-293.199"/>
<polygon fill="black" stroke="black" points="1589.61,-296.528 1598.52,-290.801 1587.98,-289.72 1589.61,-296.528"/>
</g>
<!-- Spleen_NTBI -->
<g id="node32" class="node"><title>Spleen_NTBI</title>
<polygon fill="none" stroke="black" points="1748,-291 1734,-291 1734,-277 1748,-277 1748,-291"/>
</g>
<!-- Spleen_NTBI_intermediate_p -->
<g id="node34" class="node"><title>Spleen_NTBI_intermediate_p</title>
<ellipse fill="black" stroke="black" cx="1784" cy="-220" rx="0.036" ry="0.036"/>
</g>
<!-- Spleen_NTBI&#45;&gt;Spleen_NTBI_intermediate_p -->
<g id="edge27" class="edge"><title>Spleen_NTBI&#45;&gt;Spleen_NTBI_intermediate_p</title>
<path fill="none" stroke="black" d="M1746.7,-276.658C1757.14,-260.373 1781.42,-222.468 1782.93,-220.115"/>
</g>
<!-- Spleen_NTBI&#45;&gt;Spleen_NTBI_intermediate_m -->
<g id="edge29" class="edge"><title>Spleen_NTBI&#45;&gt;Spleen_NTBI_intermediate_m</title>
<path fill="none" stroke="black" d="M1746.7,-291.342C1757.14,-307.627 1781.42,-345.532 1782.93,-347.885"/>
</g>
<!-- Spleen_NTBI_intermediate_r&#45;&gt;Spleen_NTBI -->
<g id="edge25" class="edge"><title>Spleen_NTBI_intermediate_r&#45;&gt;Spleen_NTBI</title>
<path fill="none" stroke="black" d="M1698.12,-284C1699.97,-284 1722.6,-284 1733.8,-284"/>
</g>
<!-- Spleen_NTBI_intermediate_p&#45;&gt;NTBI -->
<g id="edge28" class="edge"><title>Spleen_NTBI_intermediate_p&#45;&gt;NTBI</title>
<path fill="none" stroke="black" d="M1783,-219.873C1783.02,-214.574 1783.12,-45 1698,-45 986,-45 986,-45 986,-45 549.457,-45 578.978,-102.582 496,-171 451.111,-208.013 424.789,-273.214 412.822,-309.92"/>
<polygon fill="black" stroke="black" points="409.344,-309.314 409.693,-319.903 416.023,-311.407 409.344,-309.314"/>
</g>
<!-- Liver_NTBI -->
<g id="node36" class="node"><title>Liver_NTBI</title>
<polygon fill="none" stroke="black" points="1217,-501 1203,-501 1203,-487 1217,-487 1217,-501"/>
</g>
<!-- Liver_NTBI_intermediate_p -->
<g id="node38" class="node"><title>Liver_NTBI_intermediate_p</title>
<ellipse fill="black" stroke="black" cx="1275" cy="-467" rx="0.036" ry="0.036"/>
</g>
<!-- Liver_NTBI&#45;&gt;Liver_NTBI_intermediate_p -->
<g id="edge33" class="edge"><title>Liver_NTBI&#45;&gt;Liver_NTBI_intermediate_p</title>
<path fill="none" stroke="black" d="M1217.27,-491.312C1232.71,-484.697 1271.47,-468.082 1273.88,-467.05"/>
</g>
<!-- Liver_NTBI&#45;&gt;Liver_NTBI_intermediate_m -->
<g id="edge35" class="edge"><title>Liver_NTBI&#45;&gt;Liver_NTBI_intermediate_m</title>
<path fill="none" stroke="black" d="M1217.27,-494C1232.71,-494 1271.47,-494 1273.88,-494"/>
</g>
<!-- Liver_NTBI_intermediate_r&#45;&gt;Liver_NTBI -->
<g id="edge31" class="edge"><title>Liver_NTBI_intermediate_r&#45;&gt;Liver_NTBI</title>
<path fill="none" stroke="black" d="M1146.05,-491.002C1147.58,-491.075 1187.41,-492.972 1202.91,-493.71"/>
</g>
<!-- Liver_NTBI_intermediate_p&#45;&gt;NTBI -->
<g id="edge34" class="edge"><title>Liver_NTBI_intermediate_p&#45;&gt;NTBI</title>
<path fill="none" stroke="black" d="M1273.95,-466.994C1271.78,-466.752 1202.11,-459 1146,-459 502,-459 502,-459 502,-459 453.852,-459 425.774,-400.061 413.127,-364.115"/>
<polygon fill="black" stroke="black" points="416.311,-362.601 409.828,-354.221 409.671,-364.815 416.311,-362.601"/>
</g>
<!-- NTBI_Fe1Tf -->
<g id="node40" class="node"><title>NTBI_Fe1Tf</title>
<polygon fill="none" stroke="black" points="510,-298 496,-298 496,-284 510,-284 510,-298"/>
</g>
<!-- NTBI_Fe1Tf_intermediate_p -->
<g id="node42" class="node"><title>NTBI_Fe1Tf_intermediate_p</title>
<ellipse fill="black" stroke="black" cx="547" cy="-291" rx="0.036" ry="0.036"/>
</g>
<!-- NTBI_Fe1Tf&#45;&gt;NTBI_Fe1Tf_intermediate_p -->
<g id="edge40" class="edge"><title>NTBI_Fe1Tf&#45;&gt;NTBI_Fe1Tf_intermediate_p</title>
<path fill="none" stroke="black" d="M510.197,-291C521.515,-291 544.505,-291 545.93,-291"/>
</g>
<!-- NTBI_Fe1Tf_intermediate_r&#45;&gt;NTBI_Fe1Tf -->
<g id="edge37" class="edge"><title>NTBI_Fe1Tf_intermediate_r&#45;&gt;NTBI_Fe1Tf</title>
<path fill="none" stroke="black" d="M460.12,-291C461.968,-291 484.602,-291 495.803,-291"/>
</g>
<!-- NTBI_Fe1Tf_intermediate_p&#45;&gt;Fe1Tf -->
<g id="edge41" class="edge"><title>NTBI_Fe1Tf_intermediate_p&#45;&gt;Fe1Tf</title>
<path fill="none" stroke="black" d="M548.152,-291C549.632,-291 561.681,-291 573.9,-291"/>
<polygon fill="black" stroke="black" points="573.975,-294.5 583.975,-291 573.975,-287.5 573.975,-294.5"/>
</g>
<!-- DuoLoss -->
<g id="node43" class="node"><title>DuoLoss</title>
<polygon fill="none" stroke="black" points="350,-14 336,-14 336,-0 350,-0 350,-14"/>
</g>
<!-- DuoLoss_intermediate_p -->
<g id="node45" class="node"><title>DuoLoss_intermediate_p</title>
<ellipse fill="black" stroke="black" cx="404" cy="-7" rx="0.036" ry="0.036"/>
</g>
<!-- DuoLoss&#45;&gt;DuoLoss_intermediate_p -->
<g id="edge44" class="edge"><title>DuoLoss&#45;&gt;DuoLoss_intermediate_p</title>
<path fill="none" stroke="black" d="M350.314,-7C365.059,-7 400.68,-7 402.892,-7"/>
</g>
<!-- DuoLoss_intermediate_r&#45;&gt;DuoLoss -->
<g id="edge42" class="edge"><title>DuoLoss_intermediate_r&#45;&gt;DuoLoss</title>
<path fill="none" stroke="black" d="M294.138,-7C296.293,-7 323.204,-7 335.7,-7"/>
</g>
<!-- DuoLoss_intermediate_p&#45;&gt;FeOutside -->
<g id="edge45" class="edge"><title>DuoLoss_intermediate_p&#45;&gt;FeOutside</title>
<path fill="none" stroke="black" d="M405.156,-7C408.358,-7 460.236,-7 502,-7 502,-7 502,-7 1080,-7 1169.83,-7 1267.31,-55.6478 1315.49,-83.3187"/>
<polygon fill="black" stroke="black" points="1313.78,-86.3703 1324.18,-88.3888 1317.3,-80.3249 1313.78,-86.3703"/>
</g>
<!-- Fe2Tf_Liver -->
<g id="node46" class="node"><title>Fe2Tf_Liver</title>
<polygon fill="none" stroke="black" points="924,-361 910,-361 910,-347 924,-347 924,-361"/>
</g>
<!-- Fe2Tf_Liver_intermediate_p -->
<g id="node48" class="node"><title>Fe2Tf_Liver_intermediate_p</title>
<ellipse fill="black" stroke="black" cx="987" cy="-354" rx="0.036" ry="0.036"/>
</g>
<!-- Fe2Tf_Liver&#45;&gt;Fe2Tf_Liver_intermediate_p -->
<g id="edge48" class="edge"><title>Fe2Tf_Liver&#45;&gt;Fe2Tf_Liver_intermediate_p</title>
<path fill="none" stroke="black" d="M924.275,-354C940.583,-354 983.222,-354 985.871,-354"/>
</g>
<!-- Fe2Tf_Liver_intermediate_r&#45;&gt;Fe2Tf_Liver -->
<g id="edge46" class="edge"><title>Fe2Tf_Liver_intermediate_r&#45;&gt;Fe2Tf_Liver</title>
<path fill="none" stroke="black" d="M874.12,-348.017C875.968,-348.281 898.602,-351.515 909.803,-353.115"/>
</g>
<!-- Fe2Tf_Liver_intermediate_p&#45;&gt;FeLiver -->
<g id="edge49" class="edge"><title>Fe2Tf_Liver_intermediate_p&#45;&gt;FeLiver</title>
<path fill="none" stroke="black" d="M988.065,-354.014C989.6,-354.355 1017.92,-360.648 1042.37,-366.083"/>
<polygon fill="black" stroke="black" points="1041.66,-369.509 1052.18,-368.262 1043.18,-362.676 1041.66,-369.509"/>
</g>
<!-- Fe2Tf_Liver_intermediate_p&#45;&gt;Tf -->
<g id="edge50" class="edge"><title>Fe2Tf_Liver_intermediate_p&#45;&gt;Tf</title>
<path fill="none" stroke="black" d="M988.09,-353.84C989.932,-350.558 1019.88,-297.448 1050,-259 1051.06,-257.651 1052.16,-256.29 1053.3,-254.932"/>
<polygon fill="black" stroke="black" points="1056.05,-257.107 1060.01,-247.28 1050.78,-252.493 1056.05,-257.107"/>
</g>
<!-- Fe2Tf_Rest -->
<g id="node49" class="node"><title>Fe2Tf_Rest</title>
<polygon fill="none" stroke="black" points="924,-157 910,-157 910,-143 924,-143 924,-157"/>
</g>
<!-- Fe2Tf_Rest_intermediate_p -->
<g id="node51" class="node"><title>Fe2Tf_Rest_intermediate_p</title>
<ellipse fill="black" stroke="black" cx="987" cy="-118" rx="0.036" ry="0.036"/>
</g>
<!-- Fe2Tf_Rest&#45;&gt;Fe2Tf_Rest_intermediate_p -->
<g id="edge53" class="edge"><title>Fe2Tf_Rest&#45;&gt;Fe2Tf_Rest_intermediate_p</title>
<path fill="none" stroke="black" d="M924.275,-147.047C940.583,-139.373 983.222,-119.307 985.871,-118.061"/>
</g>
<!-- Fe2Tf_Rest_intermediate_r&#45;&gt;Fe2Tf_Rest -->
<g id="edge51" class="edge"><title>Fe2Tf_Rest_intermediate_r&#45;&gt;Fe2Tf_Rest</title>
<path fill="none" stroke="black" d="M874.03,-246.93C875.089,-244.486 903.44,-179.007 912.935,-157.079"/>
</g>
<!-- Fe2Tf_Rest_intermediate_p&#45;&gt;FeRest -->
<g id="edge54" class="edge"><title>Fe2Tf_Rest_intermediate_p&#45;&gt;FeRest</title>
<path fill="none" stroke="black" d="M988.065,-118C989.584,-118 1017.33,-118 1041.6,-118"/>
<polygon fill="black" stroke="black" points="1041.7,-121.5 1051.7,-118 1041.7,-114.5 1041.7,-121.5"/>
</g>
<!-- Fe2Tf_Rest_intermediate_p&#45;&gt;Tf -->
<g id="edge55" class="edge"><title>Fe2Tf_Rest_intermediate_p&#45;&gt;Tf</title>
<path fill="none" stroke="black" d="M988.047,-118.015C989.013,-118.325 1004.62,-123.42 1014,-132 1035.82,-151.954 1053.63,-180.851 1064.87,-201.913"/>
<polygon fill="black" stroke="black" points="1061.86,-203.707 1069.57,-210.978 1068.08,-200.489 1061.86,-203.707"/>
</g>
<!-- RestLoss -->
<g id="node52" class="node"><title>RestLoss</title>
<polygon fill="none" stroke="black" points="1217,-125 1203,-125 1203,-111 1217,-111 1217,-125"/>
</g>
<!-- RestLoss_intermediate_p -->
<g id="node54" class="node"><title>RestLoss_intermediate_p</title>
<ellipse fill="black" stroke="black" cx="1275" cy="-114" rx="0.036" ry="0.036"/>
</g>
<!-- RestLoss&#45;&gt;RestLoss_intermediate_p -->
<g id="edge58" class="edge"><title>RestLoss&#45;&gt;RestLoss_intermediate_p</title>
<path fill="none" stroke="black" d="M1217.27,-117.602C1232.71,-116.622 1271.47,-114.16 1273.88,-114.007"/>
</g>
<!-- RestLoss_intermediate_r&#45;&gt;RestLoss -->
<g id="edge56" class="edge"><title>RestLoss_intermediate_r&#45;&gt;RestLoss</title>
<path fill="none" stroke="black" d="M1146.05,-118C1147.58,-118 1187.41,-118 1202.91,-118"/>
</g>
<!-- RestLoss_intermediate_p&#45;&gt;FeOutside -->
<g id="edge59" class="edge"><title>RestLoss_intermediate_p&#45;&gt;FeOutside</title>
<path fill="none" stroke="black" d="M1276.05,-113.991C1276.95,-113.838 1289.55,-111.677 1303.82,-109.231"/>
<polygon fill="black" stroke="black" points="1304.57,-112.653 1313.84,-107.514 1303.39,-105.754 1304.57,-112.653"/>
</g>
<!-- Fe2Tf_Duo -->
<g id="node55" class="node"><title>Fe2Tf_Duo</title>
<polygon fill="none" stroke="black" points="924,-265 910,-265 910,-251 924,-251 924,-265"/>
</g>
<!-- Fe2Tf_Duo_intermediate_p -->
<g id="node57" class="node"><title>Fe2Tf_Duo_intermediate_p</title>
<ellipse fill="black" stroke="black" cx="987" cy="-229" rx="0.036" ry="0.036"/>
</g>
<!-- Fe2Tf_Duo&#45;&gt;Fe2Tf_Duo_intermediate_p -->
<g id="edge62" class="edge"><title>Fe2Tf_Duo&#45;&gt;Fe2Tf_Duo_intermediate_p</title>
<path fill="none" stroke="black" d="M924.275,-255.324C940.583,-248.369 983.222,-230.185 985.871,-229.055"/>
</g>
<!-- Fe2Tf_Duo_intermediate_r&#45;&gt;Fe2Tf_Duo -->
<g id="edge60" class="edge"><title>Fe2Tf_Duo_intermediate_r&#45;&gt;Fe2Tf_Duo</title>
<path fill="none" stroke="black" d="M874.12,-264.98C875.968,-264.672 898.602,-260.9 909.803,-259.033"/>
</g>
<!-- Fe2Tf_Duo_intermediate_p&#45;&gt;FeDuo -->
<g id="edge63" class="edge"><title>Fe2Tf_Duo_intermediate_p&#45;&gt;FeDuo</title>
<path fill="none" stroke="black" d="M985.917,-228.994C982.44,-228.744 870.496,-220.632 782,-205 764.908,-201.981 760.384,-201.727 744,-196 632.706,-157.094 621.898,-83 504,-83 292,-83 292,-83 292,-83 267.563,-83 240.297,-77.1206 220.912,-71.903"/>
<polygon fill="black" stroke="black" points="221.86,-68.5339 211.286,-69.1918 219.963,-75.2718 221.86,-68.5339"/>
</g>
<!-- Fe2Tf_Duo_intermediate_p&#45;&gt;Tf -->
<g id="edge64" class="edge"><title>Fe2Tf_Duo_intermediate_p&#45;&gt;Tf</title>
<path fill="none" stroke="black" d="M988.065,-229C989.584,-229 1017.33,-229 1041.6,-229"/>
<polygon fill="black" stroke="black" points="1041.7,-232.5 1051.7,-229 1041.7,-225.5 1041.7,-232.5"/>
</g>
<!-- Rest_NTBI -->
<g id="node58" class="node"><title>Rest_NTBI</title>
<polygon fill="none" stroke="black" points="1217,-393 1203,-393 1203,-379 1217,-379 1217,-393"/>
</g>
<!-- Rest_NTBI_intermediate_p -->
<g id="node60" class="node"><title>Rest_NTBI_intermediate_p</title>
<ellipse fill="black" stroke="black" cx="1275" cy="-399" rx="0.036" ry="0.036"/>
</g>
<!-- Rest_NTBI&#45;&gt;Rest_NTBI_intermediate_p -->
<g id="edge67" class="edge"><title>Rest_NTBI&#45;&gt;Rest_NTBI_intermediate_p</title>
<path fill="none" stroke="black" d="M1217.27,-387.294C1232.71,-390.479 1271.47,-398.479 1273.88,-398.976"/>
</g>
<!-- Rest_NTBI&#45;&gt;Rest_NTBI_intermediate_m -->
<g id="edge69" class="edge"><title>Rest_NTBI&#45;&gt;Rest_NTBI_intermediate_m</title>
<path fill="none" stroke="black" d="M1217.27,-390.877C1232.71,-402.884 1271.47,-433.036 1273.88,-434.909"/>
</g>
<!-- Rest_NTBI_intermediate_r&#45;&gt;Rest_NTBI -->
<g id="edge65" class="edge"><title>Rest_NTBI_intermediate_r&#45;&gt;Rest_NTBI</title>
<path fill="none" stroke="black" d="M1146.01,-199.05C1146.54,-201.143 1163.42,-268.541 1182,-321 1189.59,-342.425 1200.4,-367.03 1205.75,-378.884"/>
</g>
<!-- Rest_NTBI_intermediate_p&#45;&gt;NTBI -->
<g id="edge68" class="edge"><title>Rest_NTBI_intermediate_p&#45;&gt;NTBI</title>
<path fill="none" stroke="black" d="M1273.95,-399.016C1271.81,-399.682 1202.82,-421 1146,-421 502,-421 502,-421 502,-421 465.097,-421 435.336,-385.827 418.927,-361.001"/>
<polygon fill="black" stroke="black" points="421.798,-358.991 413.497,-352.407 415.88,-362.73 421.798,-358.991"/>
</g>
<!-- Fe1Tf_Fe2Tf -->
<g id="node62" class="node"><title>Fe1Tf_Fe2Tf</title>
<polygon fill="none" stroke="black" points="708,-344 694,-344 694,-330 708,-330 708,-344"/>
</g>
<!-- Fe1Tf_Fe2Tf_intermediate_p -->
<g id="node64" class="node"><title>Fe1Tf_Fe2Tf_intermediate_p</title>
<ellipse fill="black" stroke="black" cx="745" cy="-337" rx="0.036" ry="0.036"/>
</g>
<!-- Fe1Tf_Fe2Tf&#45;&gt;Fe1Tf_Fe2Tf_intermediate_p -->
<g id="edge74" class="edge"><title>Fe1Tf_Fe2Tf&#45;&gt;Fe1Tf_Fe2Tf_intermediate_p</title>
<path fill="none" stroke="black" d="M708.197,-337C719.515,-337 742.505,-337 743.93,-337"/>
</g>
<!-- Fe1Tf_Fe2Tf_intermediate_r&#45;&gt;Fe1Tf_Fe2Tf -->
<g id="edge71" class="edge"><title>Fe1Tf_Fe2Tf_intermediate_r&#45;&gt;Fe1Tf_Fe2Tf</title>
<path fill="none" stroke="black" d="M658.12,-337C659.968,-337 682.602,-337 693.803,-337"/>
</g>
<!-- Fe1Tf_Fe2Tf_intermediate_p&#45;&gt;Fe2Tf -->
<g id="edge75" class="edge"><title>Fe1Tf_Fe2Tf_intermediate_p&#45;&gt;Fe2Tf</title>
<path fill="none" stroke="black" d="M746.045,-337C746.863,-337 758.734,-337 771.87,-337"/>
<polygon fill="black" stroke="black" points="771.998,-340.5 781.998,-337 771.998,-333.5 771.998,-340.5"/>
</g>
<!-- Fe1Tf_Liver -->
<g id="node65" class="node"><title>Fe1Tf_Liver</title>
<polygon fill="none" stroke="black" points="924,-393 910,-393 910,-379 924,-379 924,-393"/>
</g>
<!-- Fe1Tf_Liver_intermediate_p -->
<g id="node67" class="node"><title>Fe1Tf_Liver_intermediate_p</title>
<ellipse fill="black" stroke="black" cx="987" cy="-374" rx="0.036" ry="0.036"/>
</g>
<!-- Fe1Tf_Liver&#45;&gt;Fe1Tf_Liver_intermediate_p -->
<g id="edge78" class="edge"><title>Fe1Tf_Liver&#45;&gt;Fe1Tf_Liver_intermediate_p</title>
<path fill="none" stroke="black" d="M924.275,-384.893C940.583,-382.015 983.222,-374.49 985.871,-374.023"/>
</g>
<!-- Fe1Tf_Liver_intermediate_r&#45;&gt;Fe1Tf_Liver -->
<g id="edge76" class="edge"><title>Fe1Tf_Liver_intermediate_r&#45;&gt;Fe1Tf_Liver</title>
<path fill="none" stroke="black" d="M658.028,-319.046C659.201,-320.984 697.1,-383 744,-383 744,-383 744,-383 810,-383 847.925,-383 893.452,-384.943 909.789,-385.701"/>
</g>
<!-- Fe1Tf_Liver_intermediate_p&#45;&gt;FeLiver -->
<g id="edge79" class="edge"><title>Fe1Tf_Liver_intermediate_p&#45;&gt;FeLiver</title>
<path fill="none" stroke="black" d="M988.065,-374C989.556,-374 1016.31,-374 1040.26,-374"/>
<polygon fill="black" stroke="black" points="1040.26,-377.5 1050.26,-374 1040.26,-370.5 1040.26,-377.5"/>
</g>
<!-- Fe1Tf_Liver_intermediate_p&#45;&gt;Tf -->
<g id="edge80" class="edge"><title>Fe1Tf_Liver_intermediate_p&#45;&gt;Tf</title>
<path fill="none" stroke="black" d="M988.05,-373.994C989.081,-373.878 1005.7,-371.878 1014,-363 1047.41,-327.274 1024.76,-300.901 1050,-259 1050.78,-257.703 1051.63,-256.415 1052.52,-255.143"/>
<polygon fill="black" stroke="black" points="1055.45,-257.072 1058.92,-247.06 1049.97,-252.724 1055.45,-257.072"/>
</g>
<!-- Fe1Tf_BM -->
<g id="node68" class="node"><title>Fe1Tf_BM</title>
<polygon fill="none" stroke="black" points="924,-297 910,-297 910,-283 924,-283 924,-297"/>
</g>
<!-- Fe1Tf_BM_intermediate_p -->
<g id="node70" class="node"><title>Fe1Tf_BM_intermediate_p</title>
<ellipse fill="black" stroke="black" cx="987" cy="-277" rx="0.036" ry="0.036"/>
</g>
<!-- Fe1Tf_BM&#45;&gt;Fe1Tf_BM_intermediate_p -->
<g id="edge83" class="edge"><title>Fe1Tf_BM&#45;&gt;Fe1Tf_BM_intermediate_p</title>
<path fill="none" stroke="black" d="M924.275,-288.8C940.583,-285.683 983.222,-277.531 985.871,-277.025"/>
</g>
<!-- Fe1Tf_BM_intermediate_r&#45;&gt;Fe1Tf_BM -->
<g id="edge81" class="edge"><title>Fe1Tf_BM_intermediate_r&#45;&gt;Fe1Tf_BM</title>
<path fill="none" stroke="black" d="M702.155,-290.999C707.952,-290.972 874.494,-290.194 909.559,-290.03"/>
</g>
<!-- Fe1Tf_BM_intermediate_p&#45;&gt;FeBM -->
<g id="edge84" class="edge"><title>Fe1Tf_BM_intermediate_p&#45;&gt;FeBM</title>
<path fill="none" stroke="black" d="M988.065,-277.007C989.777,-277.178 1024.84,-280.684 1050.67,-283.267"/>
<polygon fill="black" stroke="black" points="1050.41,-286.758 1060.71,-284.271 1051.1,-279.793 1050.41,-286.758"/>
</g>
<!-- Fe1Tf_BM_intermediate_p&#45;&gt;Tf -->
<g id="edge85" class="edge"><title>Fe1Tf_BM_intermediate_p&#45;&gt;Tf</title>
<path fill="none" stroke="black" d="M988.065,-276.965C989.604,-276.145 1018.07,-260.961 1042.57,-247.895"/>
<polygon fill="black" stroke="black" points="1044.53,-250.819 1051.7,-243.025 1041.23,-244.642 1044.53,-250.819"/>
</g>
<!-- Fe1Tf_Rest -->
<g id="node71" class="node"><title>Fe1Tf_Rest</title>
<polygon fill="none" stroke="black" points="924,-87 910,-87 910,-73 924,-73 924,-87"/>
</g>
<!-- Fe1Tf_Rest_intermediate_p -->
<g id="node73" class="node"><title>Fe1Tf_Rest_intermediate_p</title>
<ellipse fill="black" stroke="black" cx="987" cy="-100" rx="0.036" ry="0.036"/>
</g>
<!-- Fe1Tf_Rest&#45;&gt;Fe1Tf_Rest_intermediate_p -->
<g id="edge88" class="edge"><title>Fe1Tf_Rest&#45;&gt;Fe1Tf_Rest_intermediate_p</title>
<path fill="none" stroke="black" d="M924.275,-81.8457C940.583,-86.6422 983.222,-99.1829 985.871,-99.962"/>
</g>
<!-- Fe1Tf_Rest_intermediate_r&#45;&gt;Fe1Tf_Rest -->
<g id="edge86" class="edge"><title>Fe1Tf_Rest_intermediate_r&#45;&gt;Fe1Tf_Rest</title>
<path fill="none" stroke="black" d="M810.077,-109.978C812.81,-109.205 887.699,-88.0096 909.872,-81.7344"/>
</g>
<!-- Fe1Tf_Rest_intermediate_p&#45;&gt;FeRest -->
<g id="edge89" class="edge"><title>Fe1Tf_Rest_intermediate_p&#45;&gt;FeRest</title>
<path fill="none" stroke="black" d="M988.065,-100.013C989.609,-100.322 1018.26,-106.053 1042.82,-110.964"/>
<polygon fill="black" stroke="black" points="1042.16,-114.401 1052.65,-112.931 1043.53,-107.537 1042.16,-114.401"/>
</g>
<!-- Fe1Tf_Rest_intermediate_p&#45;&gt;Tf -->
<g id="edge90" class="edge"><title>Fe1Tf_Rest_intermediate_p&#45;&gt;Tf</title>
<path fill="none" stroke="black" d="M988.048,-100.003C989.037,-100.073 1004.99,-101.305 1014,-109 1042.65,-133.48 1060.45,-174.081 1069.8,-201.185"/>
<polygon fill="black" stroke="black" points="1066.53,-202.441 1072.97,-210.851 1073.18,-200.258 1066.53,-202.441"/>
</g>
<!-- Fe1Tf_Duo -->
<g id="node74" class="node"><title>Fe1Tf_Duo</title>
<polygon fill="none" stroke="black" points="708,-247 694,-247 694,-233 708,-233 708,-247"/>
</g>
<!-- Fe1Tf_Duo_intermediate_p -->
<g id="node76" class="node"><title>Fe1Tf_Duo_intermediate_p</title>
<ellipse fill="black" stroke="black" cx="745" cy="-187" rx="0.036" ry="0.036"/>
</g>
<!-- Fe1Tf_Duo&#45;&gt;Fe1Tf_Duo_intermediate_p -->
<g id="edge93" class="edge"><title>Fe1Tf_Duo&#45;&gt;Fe1Tf_Duo_intermediate_p</title>
<path fill="none" stroke="black" d="M707.84,-232.631C719.02,-218.523 742.474,-188.926 743.929,-187.09"/>
</g>
<!-- Fe1Tf_Duo_intermediate_r&#45;&gt;Fe1Tf_Duo -->
<g id="edge91" class="edge"><title>Fe1Tf_Duo_intermediate_r&#45;&gt;Fe1Tf_Duo</title>
<path fill="none" stroke="black" d="M658.12,-254.957C659.968,-254.297 682.602,-246.214 693.803,-242.213"/>
</g>
<!-- Fe1Tf_Duo_intermediate_p&#45;&gt;FeDuo -->
<g id="edge94" class="edge"><title>Fe1Tf_Duo_intermediate_p&#45;&gt;FeDuo</title>
<path fill="none" stroke="black" d="M743.991,-186.897C743.603,-182.597 730.63,-45 658,-45 292,-45 292,-45 292,-45 267.563,-45 240.297,-50.8794 220.912,-56.097"/>
<polygon fill="black" stroke="black" points="219.963,-52.7282 211.286,-58.8082 221.86,-59.4661 219.963,-52.7282"/>
</g>
<!-- Fe1Tf_Duo_intermediate_p&#45;&gt;Tf -->
<g id="edge95" class="edge"><title>Fe1Tf_Duo_intermediate_p&#45;&gt;Tf</title>
<path fill="none" stroke="black" d="M746.108,-187.013C750.65,-187.541 896.878,-204.555 1014,-220 1023.05,-221.194 1032.82,-222.538 1041.92,-223.816"/>
<polygon fill="black" stroke="black" points="1041.47,-227.286 1051.86,-225.22 1042.45,-220.355 1041.47,-227.286"/>
</g>
<!-- BM_RBC -->
<g id="node77" class="node"><title>BM_RBC</title>
<polygon fill="none" stroke="black" points="1217,-312 1203,-312 1203,-298 1217,-298 1217,-312"/>
</g>
<!-- BM_RBC_intermediate_p -->
<g id="node79" class="node"><title>BM_RBC_intermediate_p</title>
<ellipse fill="black" stroke="black" cx="1275" cy="-305" rx="0.036" ry="0.036"/>
</g>
<!-- BM_RBC&#45;&gt;BM_RBC_intermediate_p -->
<g id="edge98" class="edge"><title>BM_RBC&#45;&gt;BM_RBC_intermediate_p</title>
<path fill="none" stroke="black" d="M1217.27,-305C1232.71,-305 1271.47,-305 1273.88,-305"/>
</g>
<!-- BM_RBC_intermediate_r&#45;&gt;BM_RBC -->
<g id="edge96" class="edge"><title>BM_RBC_intermediate_r&#45;&gt;BM_RBC</title>
<path fill="none" stroke="black" d="M1146.05,-302.002C1147.58,-302.075 1187.41,-303.972 1202.91,-304.71"/>
</g>
<!-- BM_RBC_intermediate_p&#45;&gt;FeRBC -->
<g id="edge99" class="edge"><title>BM_RBC_intermediate_p&#45;&gt;FeRBC</title>
<path fill="none" stroke="black" d="M1276.05,-305C1277.25,-305 1299.57,-305 1318.68,-305"/>
<polygon fill="black" stroke="black" points="1318.81,-308.5 1328.81,-305 1318.81,-301.5 1318.81,-308.5"/>
</g>
<!-- BM_Spleen -->
<g id="node80" class="node"><title>BM_Spleen</title>
<polygon fill="none" stroke="black" points="1452,-276 1438,-276 1438,-262 1452,-262 1452,-276"/>
</g>
<!-- BM_Spleen_intermediate_p -->
<g id="node82" class="node"><title>BM_Spleen_intermediate_p</title>
<ellipse fill="black" stroke="black" cx="1515" cy="-269" rx="0.036" ry="0.036"/>
</g>
<!-- BM_Spleen&#45;&gt;BM_Spleen_intermediate_p -->
<g id="edge102" class="edge"><title>BM_Spleen&#45;&gt;BM_Spleen_intermediate_p</title>
<path fill="none" stroke="black" d="M1452.28,-269C1468.58,-269 1511.22,-269 1513.87,-269"/>
</g>
<!-- BM_Spleen_intermediate_r&#45;&gt;BM_Spleen -->
<g id="edge100" class="edge"><title>BM_Spleen_intermediate_r&#45;&gt;BM_Spleen</title>
<path fill="none" stroke="black" d="M1348.07,-269C1350.52,-269 1417.13,-269 1437.89,-269"/>
</g>
<!-- BM_Spleen_intermediate_p&#45;&gt;FeSpleen -->
<g id="edge103" class="edge"><title>BM_Spleen_intermediate_p&#45;&gt;FeSpleen</title>
<path fill="none" stroke="black" d="M1516.08,-269.011C1518.05,-269.277 1555.81,-274.38 1586.73,-278.559"/>
<polygon fill="black" stroke="black" points="1586.52,-282.061 1596.9,-279.932 1587.46,-275.124 1586.52,-282.061"/>
</g>
</g>
</svg>
