<?xml version="1.0" encoding="UTF-8" standalone="no"?>
<!DOCTYPE svg PUBLIC "-//W3C//DTD SVG 1.1//EN"
 "http://www.w3.org/Graphics/SVG/1.1/DTD/svg11.dtd">
<!-- Generated by graphviz version 2.24.0 (20090616.2323)
 -->
<!-- Title: G Pages: 1 -->
<svg width="566pt" height="141pt"
 viewBox="0.00 0.00 566.00 141.00" xmlns="http://www.w3.org/2000/svg" xmlns:xlink="http://www.w3.org/1999/xlink">
<g id="graph1" class="graph" transform="scale(1 1) rotate(0) translate(4 137)">
<title>G</title>
<polygon fill="white" stroke="white" points="-4,5 -4,-137 563,-137 563,5 -4,5"/>
<!-- species_0 -->
<g id="node1" class="node"><title>species_0</title>
<ellipse fill="none" stroke="black" cx="27" cy="-61" rx="27" ry="18"/>
<text text-anchor="middle" x="27" y="-58.5" font-family="Times Roman,serif" font-size="10.00">S</text>
</g>
<!-- reaction_0_intermediate_r -->
<g id="node8" class="node"><title>reaction_0_intermediate_r</title>
<ellipse fill="black" stroke="black" cx="90" cy="-61" rx="0.036" ry="0.036"/>
</g>
<!-- species_0&#45;&gt;reaction_0_intermediate_r -->
<g id="edge4" class="edge"><title>species_0&#45;&gt;reaction_0_intermediate_r</title>
<path fill="none" stroke="black" d="M54.0833,-61C70.6248,-61 88.8241,-61 89.9454,-61"/>
</g>
<!-- species_1 -->
<g id="node2" class="node"><title>species_1</title>
<ellipse fill="none" stroke="black" cx="279" cy="-61" rx="27" ry="18"/>
<text text-anchor="middle" x="279" y="-58.5" font-family="Times Roman,serif" font-size="10.00">X1</text>
</g>
<!-- reaction_1_intermediate_r -->
<g id="node18" class="node"><title>reaction_1_intermediate_r</title>
<ellipse fill="black" stroke="black" cx="342" cy="-61" rx="0.036" ry="0.036"/>
</g>
<!-- species_1&#45;&gt;reaction_1_intermediate_r -->
<g id="edge16" class="edge"><title>species_1&#45;&gt;reaction_1_intermediate_r</title>
<path fill="none" stroke="black" d="M306.083,-61C322.625,-61 340.824,-61 341.945,-61"/>
</g>
<!-- species_2 -->
<g id="node3" class="node"><title>species_2</title>
<ellipse fill="none" stroke="black" cx="153" cy="-18" rx="27" ry="18"/>
<text text-anchor="middle" x="153" y="-15.5" font-family="Times Roman,serif" font-size="10.00">E1</text>
</g>
<!-- reaction_0_intermediate_m -->
<g id="node14" class="node"><title>reaction_0_intermediate_m</title>
<ellipse fill="black" stroke="black" cx="216" cy="-31" rx="0.036" ry="0.036"/>
</g>
<!-- species_2&#45;&gt;reaction_0_intermediate_m -->
<g id="edge12" class="edge"><title>species_2&#45;&gt;reaction_0_intermediate_m</title>
<path fill="none" stroke="black" d="M178.988,-23.3627C195.8,-26.8317 214.774,-30.7469 215.943,-30.9883"/>
</g>
<!-- species_3 -->
<g id="node4" class="node"><title>species_3</title>
<ellipse fill="none" stroke="black" cx="405" cy="-18" rx="27" ry="18"/>
<text text-anchor="middle" x="405" y="-15.5" font-family="Times Roman,serif" font-size="10.00">E2</text>
</g>
<!-- reaction_1_intermediate_m -->
<g id="node24" class="node"><title>reaction_1_intermediate_m</title>
<ellipse fill="black" stroke="black" cx="468" cy="-31" rx="0.036" ry="0.036"/>
</g>
<!-- species_3&#45;&gt;reaction_1_intermediate_m -->
<g id="edge24" class="edge"><title>species_3&#45;&gt;reaction_1_intermediate_m</title>
<path fill="none" stroke="black" d="M430.988,-23.3627C447.8,-26.8317 466.774,-30.7469 467.943,-30.9883"/>
</g>
<!-- species_4 -->
<g id="node5" class="node"><title>species_4</title>
<ellipse fill="none" stroke="black" cx="531" cy="-61" rx="27" ry="18"/>
<text text-anchor="middle" x="531" y="-58.5" font-family="Times Roman,serif" font-size="10.00">P</text>
</g>
<!-- species_5 -->
<g id="node6" class="node"><title>species_5</title>
<ellipse fill="none" stroke="black" cx="27" cy="-115" rx="27" ry="18"/>
<text text-anchor="middle" x="27" y="-112.5" font-family="Times Roman,serif" font-size="10.00">Etot</text>
</g>
<!-- reaction_0 -->
<g id="node7" class="node"><title>reaction_0</title>
<polygon fill="none" stroke="black" points="160,-68 146,-68 146,-54 160,-54 160,-68"/>
</g>
<!-- reaction_0_intermediate_p -->
<g id="node11" class="node"><title>reaction_0_intermediate_p</title>
<ellipse fill="black" stroke="black" cx="216" cy="-61" rx="0.036" ry="0.036"/>
</g>
<!-- reaction_0&#45;&gt;reaction_0_intermediate_p -->
<g id="edge6" class="edge"><title>reaction_0&#45;&gt;reaction_0_intermediate_p</title>
<path fill="none" stroke="black" d="M160.227,-61C176.258,-61 213.571,-61 215.887,-61"/>
</g>
<!-- reaction_0&#45;&gt;reaction_0_intermediate_m -->
<g id="edge10" class="edge"><title>reaction_0&#45;&gt;reaction_0_intermediate_m</title>
<path fill="none" stroke="black" d="M171.118,-52.3724C189.02,-43.8477 214.005,-31.95 215.887,-31.0538"/>
<polygon fill="none" stroke="black" points="171.061,-52.3994 167.364,-58.5904 160.227,-57.5586 163.924,-51.3675 171.061,-52.3994"/>
</g>
<!-- reaction_0_intermediate_r&#45;&gt;reaction_0 -->
<g id="edge2" class="edge"><title>reaction_0_intermediate_r&#45;&gt;reaction_0</title>
<path fill="none" stroke="black" d="M90.0457,-61C91.551,-61 129.877,-61 145.979,-61"/>
</g>
<!-- reaction_0_intermediate_p&#45;&gt;species_1 -->
<g id="edge8" class="edge"><title>reaction_0_intermediate_p&#45;&gt;species_1</title>
<path fill="none" stroke="black" d="M216.046,-61C216.865,-61 228.597,-61 241.716,-61"/>
<polygon fill="black" stroke="black" points="241.86,-64.5001 251.86,-61 241.859,-57.5001 241.86,-64.5001"/>
</g>
<!-- reaction_1 -->
<g id="node17" class="node"><title>reaction_1</title>
<polygon fill="none" stroke="black" points="412,-68 398,-68 398,-54 412,-54 412,-68"/>
</g>
<!-- reaction_1_intermediate_p -->
<g id="node21" class="node"><title>reaction_1_intermediate_p</title>
<ellipse fill="black" stroke="black" cx="468" cy="-61" rx="0.036" ry="0.036"/>
</g>
<!-- reaction_1&#45;&gt;reaction_1_intermediate_p -->
<g id="edge18" class="edge"><title>reaction_1&#45;&gt;reaction_1_intermediate_p</title>
<path fill="none" stroke="black" d="M412.227,-61C428.258,-61 465.571,-61 467.887,-61"/>
</g>
<!-- reaction_1&#45;&gt;reaction_1_intermediate_m -->
<g id="edge22" class="edge"><title>reaction_1&#45;&gt;reaction_1_intermediate_m</title>
<path fill="none" stroke="black" d="M423.118,-52.3724C441.02,-43.8477 466.005,-31.95 467.887,-31.0538"/>
<polygon fill="none" stroke="black" points="423.061,-52.3994 419.364,-58.5904 412.227,-57.5586 415.924,-51.3675 423.061,-52.3994"/>
</g>
<!-- reaction_1_intermediate_r&#45;&gt;reaction_1 -->
<g id="edge14" class="edge"><title>reaction_1_intermediate_r&#45;&gt;reaction_1</title>
<path fill="none" stroke="black" d="M342.046,-61C343.551,-61 381.877,-61 397.979,-61"/>
</g>
<!-- reaction_1_intermediate_p&#45;&gt;species_4 -->
<g id="edge20" class="edge"><title>reaction_1_intermediate_p&#45;&gt;species_4</title>
<path fill="none" stroke="black" d="M468.046,-61C468.865,-61 480.597,-61 493.716,-61"/>
<polygon fill="black" stroke="black" points="493.86,-64.5001 503.86,-61 493.859,-57.5001 493.86,-64.5001"/>
</g>
</g>
</svg>
