<?xml version="1.0" encoding="UTF-8" standalone="no"?>
<!DOCTYPE svg PUBLIC "-//W3C//DTD SVG 1.1//EN"
 "http://www.w3.org/Graphics/SVG/1.1/DTD/svg11.dtd">
<!-- Generated by graphviz version 2.30.1 (20140821.0912)
 -->
<!-- Title: G Pages: 1 -->
<svg width="1508pt" height="528pt"
 viewBox="0.00 0.00 1508.00 528.00" xmlns="http://www.w3.org/2000/svg" xmlns:xlink="http://www.w3.org/1999/xlink">
<g id="graph0" class="graph" transform="scale(1 1) rotate(0) translate(4 524)">
<title>G</title>
<polygon fill="white" stroke="white" points="-4,5 -4,-524 1505,-524 1505,5 -4,5"/>
<!-- x1 -->
<g id="x1" class="node"><title>x1</title>
<ellipse fill="none" stroke="black" cx="257" cy="-18" rx="27" ry="18"/>
<text text-anchor="middle" x="257" y="-15.5" font-family="Times,serif" font-size="10.00">x1</text>
</g>
<!-- r002___A_translation_intermediate_r -->
<g id="node14" class="node"><title>r002___A_translation_intermediate_r</title>
<ellipse fill="black" stroke="black" cx="347" cy="-18" rx="0.036" ry="0.036"/>
</g>
<!-- x1&#45;&gt;r002___A_translation_intermediate_r -->
<g id="edge5" class="edge"><title>x1&#45;&gt;r002___A_translation_intermediate_r</title>
<path fill="none" stroke="black" d="M284.403,-18C309.514,-18 343.78,-18 345.897,-18"/>
</g>
<!-- r003___mA_degradation_intermediate_r -->
<g id="node17" class="node"><title>r003___mA_degradation_intermediate_r</title>
<ellipse fill="black" stroke="black" cx="347" cy="-43" rx="0.036" ry="0.036"/>
</g>
<!-- x1&#45;&gt;r003___mA_degradation_intermediate_r -->
<g id="edge10" class="edge"><title>x1&#45;&gt;r003___mA_degradation_intermediate_r</title>
<path fill="none" stroke="black" d="M282.046,-24.8314C307.287,-32.0021 343.643,-42.3304 345.89,-42.9689"/>
</g>
<!-- x2 -->
<g id="x2" class="node"><title>x2</title>
<ellipse fill="none" stroke="black" cx="617" cy="-83" rx="27" ry="18"/>
<text text-anchor="middle" x="617" y="-80.5" font-family="Times,serif" font-size="10.00">x2</text>
</g>
<!-- r004___A_degradation_intermediate_r -->
<g id="node20" class="node"><title>r004___A_degradation_intermediate_r</title>
<ellipse fill="black" stroke="black" cx="707" cy="-79" rx="0.036" ry="0.036"/>
</g>
<!-- x2&#45;&gt;r004___A_degradation_intermediate_r -->
<g id="edge13" class="edge"><title>x2&#45;&gt;r004___A_degradation_intermediate_r</title>
<path fill="none" stroke="black" d="M644.403,-81.7999C669.514,-80.6585 703.78,-79.1009 705.897,-79.0047"/>
</g>
<!-- r005___AI2_dim_1_intermediate_r -->
<g id="node23" class="node"><title>r005___AI2_dim_1_intermediate_r</title>
<ellipse fill="black" stroke="black" cx="707" cy="-113" rx="0.036" ry="0.036"/>
</g>
<!-- x2&#45;&gt;r005___AI2_dim_1_intermediate_r -->
<g id="edge16" class="edge"><title>x2&#45;&gt;r005___AI2_dim_1_intermediate_r</title>
<path fill="none" stroke="black" d="M641.582,-91.0394C666.834,-99.6481 703.615,-112.187 705.889,-112.962"/>
</g>
<!-- x3 -->
<g id="x3" class="node"><title>x3</title>
<ellipse fill="none" stroke="black" cx="617" cy="-167" rx="27" ry="18"/>
<text text-anchor="middle" x="617" y="-164.5" font-family="Times,serif" font-size="10.00">x3</text>
</g>
<!-- x3&#45;&gt;r005___AI2_dim_1_intermediate_r -->
<g id="edge17" class="edge"><title>x3&#45;&gt;r005___AI2_dim_1_intermediate_r</title>
<path fill="none" stroke="black" d="M637.53,-155.016C662.645,-139.604 703.357,-114.622 705.877,-113.075"/>
</g>
<!-- r006a___I_transport_intermediate_r -->
<g id="node26" class="node"><title>r006a___I_transport_intermediate_r</title>
<ellipse fill="black" stroke="black" cx="707" cy="-197" rx="0.036" ry="0.036"/>
</g>
<!-- x3&#45;&gt;r006a___I_transport_intermediate_r -->
<g id="edge20" class="edge"><title>x3&#45;&gt;r006a___I_transport_intermediate_r</title>
<path fill="none" stroke="black" d="M641.582,-175.039C666.834,-183.648 703.615,-196.187 705.889,-196.962"/>
</g>
<!-- r007___I_degradation_intermediate_r -->
<g id="node29" class="node"><title>r007___I_degradation_intermediate_r</title>
<ellipse fill="black" stroke="black" cx="707" cy="-167" rx="0.036" ry="0.036"/>
</g>
<!-- x3&#45;&gt;r007___I_degradation_intermediate_r -->
<g id="edge23" class="edge"><title>x3&#45;&gt;r007___I_degradation_intermediate_r</title>
<path fill="none" stroke="black" d="M644.403,-167C669.514,-167 703.78,-167 705.897,-167"/>
</g>
<!-- r006d___I_transport_intermediate_m -->
<g id="node81" class="node"><title>r006d___I_transport_intermediate_m</title>
<ellipse fill="black" stroke="black" cx="707" cy="-236" rx="0.036" ry="0.036"/>
</g>
<!-- x3&#45;&gt;r006d___I_transport_intermediate_m -->
<g id="edge86" class="edge"><title>x3&#45;&gt;r006d___I_transport_intermediate_m</title>
<path fill="none" stroke="black" d="M635.386,-180.632C660.23,-200.112 703.208,-233.811 705.87,-235.898"/>
</g>
<!-- x4 -->
<g id="x4" class="node"><title>x4</title>
<ellipse fill="none" stroke="black" cx="257" cy="-410" rx="27" ry="18"/>
<text text-anchor="middle" x="257" y="-407.5" font-family="Times,serif" font-size="10.00">x4</text>
</g>
<!-- r009___AI2_degradation_intermediate_r -->
<g id="node35" class="node"><title>r009___AI2_degradation_intermediate_r</title>
<ellipse fill="black" stroke="black" cx="347" cy="-439" rx="0.036" ry="0.036"/>
</g>
<!-- x4&#45;&gt;r009___AI2_degradation_intermediate_r -->
<g id="edge29" class="edge"><title>x4&#45;&gt;r009___AI2_degradation_intermediate_r</title>
<path fill="none" stroke="black" d="M281.582,-417.771C306.834,-426.093 343.615,-438.214 345.889,-438.963"/>
</g>
<!-- r010___mB_transcription_intermediate_m -->
<g id="node40" class="node"><title>r010___mB_transcription_intermediate_m</title>
<ellipse fill="black" stroke="black" cx="347" cy="-373" rx="0.036" ry="0.036"/>
</g>
<!-- x4&#45;&gt;r010___mB_transcription_intermediate_m -->
<g id="edge35" class="edge"><title>x4&#45;&gt;r010___mB_transcription_intermediate_m</title>
<path fill="none" stroke="black" d="M280.206,-400.663C305.461,-390.045 343.531,-374.038 345.885,-373.048"/>
</g>
<!-- r014___mC_transcription_intermediate_m -->
<g id="node53" class="node"><title>r014___mC_transcription_intermediate_m</title>
<ellipse fill="black" stroke="black" cx="887" cy="-402" rx="0.036" ry="0.036"/>
</g>
<!-- x4&#45;&gt;r014___mC_transcription_intermediate_m -->
<g id="edge51" class="edge"><title>x4&#45;&gt;r014___mC_transcription_intermediate_m</title>
<path fill="none" stroke="black" d="M283.925,-408.104C318.564,-405.738 381.866,-402 436,-402 436,-402 436,-402 708,-402 785.875,-402 882.915,-402 885.928,-402"/>
</g>
<!-- r018___AI2_dim_2_intermediate_r -->
<g id="node64" class="node"><title>r018___AI2_dim_2_intermediate_r</title>
<ellipse fill="black" stroke="black" cx="347" cy="-468" rx="0.036" ry="0.036"/>
</g>
<!-- x4&#45;&gt;r018___AI2_dim_2_intermediate_r -->
<g id="edge65" class="edge"><title>x4&#45;&gt;r018___AI2_dim_2_intermediate_r</title>
<path fill="none" stroke="black" d="M277.095,-422.585C302.167,-439.11 343.328,-466.239 345.876,-467.918"/>
</g>
<!-- x5 -->
<g id="x5" class="node"><title>x5</title>
<ellipse fill="none" stroke="black" cx="437" cy="-340" rx="27" ry="18"/>
<text text-anchor="middle" x="437" y="-337.5" font-family="Times,serif" font-size="10.00">x5</text>
</g>
<!-- r011___B_translation_intermediate_r -->
<g id="node42" class="node"><title>r011___B_translation_intermediate_r</title>
<ellipse fill="black" stroke="black" cx="527" cy="-331" rx="0.036" ry="0.036"/>
</g>
<!-- x5&#45;&gt;r011___B_translation_intermediate_r -->
<g id="edge37" class="edge"><title>x5&#45;&gt;r011___B_translation_intermediate_r</title>
<path fill="none" stroke="black" d="M463.927,-337.348C489.074,-334.777 523.753,-331.23 525.896,-331.011"/>
</g>
<!-- r013___mB_degradation_intermediate_r -->
<g id="node48" class="node"><title>r013___mB_degradation_intermediate_r</title>
<ellipse fill="black" stroke="black" cx="527" cy="-349" rx="0.036" ry="0.036"/>
</g>
<!-- x5&#45;&gt;r013___mB_degradation_intermediate_r -->
<g id="edge45" class="edge"><title>x5&#45;&gt;r013___mB_degradation_intermediate_r</title>
<path fill="none" stroke="black" d="M463.927,-342.652C489.074,-345.223 523.753,-348.77 525.896,-348.989"/>
</g>
<!-- x6 -->
<g id="x6" class="node"><title>x6</title>
<ellipse fill="none" stroke="black" cx="797" cy="-338" rx="27" ry="18"/>
<text text-anchor="middle" x="797" y="-335.5" font-family="Times,serif" font-size="10.00">x6</text>
</g>
<!-- r012___B_degradation_intermediate_r -->
<g id="node45" class="node"><title>r012___B_degradation_intermediate_r</title>
<ellipse fill="black" stroke="black" cx="887" cy="-338" rx="0.036" ry="0.036"/>
</g>
<!-- x6&#45;&gt;r012___B_degradation_intermediate_r -->
<g id="edge42" class="edge"><title>x6&#45;&gt;r012___B_degradation_intermediate_r</title>
<path fill="none" stroke="black" d="M824.403,-338C849.514,-338 883.78,-338 885.897,-338"/>
</g>
<!-- x6&#45;&gt;r014___mC_transcription_intermediate_m -->
<g id="edge52" class="edge"><title>x6&#45;&gt;r014___mC_transcription_intermediate_m</title>
<path fill="none" stroke="black" d="M815.808,-350.951C840.718,-369.068 883.238,-399.992 885.872,-401.907"/>
</g>
<!-- x7 -->
<g id="x7" class="node"><title>x7</title>
<ellipse fill="none" stroke="black" cx="977" cy="-442" rx="27" ry="18"/>
<text text-anchor="middle" x="977" y="-439.5" font-family="Times,serif" font-size="10.00">x7</text>
</g>
<!-- r015___C_translation_intermediate_r -->
<g id="node55" class="node"><title>r015___C_translation_intermediate_r</title>
<ellipse fill="black" stroke="black" cx="1067" cy="-410" rx="0.036" ry="0.036"/>
</g>
<!-- x7&#45;&gt;r015___C_translation_intermediate_r -->
<g id="edge54" class="edge"><title>x7&#45;&gt;r015___C_translation_intermediate_r</title>
<path fill="none" stroke="black" d="M1001.12,-433.592C1026.38,-424.408 1063.59,-410.877 1065.89,-410.041"/>
</g>
<!-- r017___mC_degradation_intermediate_r -->
<g id="node61" class="node"><title>r017___mC_degradation_intermediate_r</title>
<ellipse fill="black" stroke="black" cx="1067" cy="-474" rx="0.036" ry="0.036"/>
</g>
<!-- x7&#45;&gt;r017___mC_degradation_intermediate_r -->
<g id="edge62" class="edge"><title>x7&#45;&gt;r017___mC_degradation_intermediate_r</title>
<path fill="none" stroke="black" d="M1001.12,-450.408C1026.38,-459.592 1063.59,-473.123 1065.89,-473.959"/>
</g>
<!-- x8 -->
<g id="x8" class="node"><title>x8</title>
<ellipse fill="none" stroke="black" cx="1297" cy="-424" rx="27" ry="18"/>
<text text-anchor="middle" x="1297" y="-421.5" font-family="Times,serif" font-size="10.00">x8</text>
</g>
<!-- r016___C_degradation_intermediate_r -->
<g id="node58" class="node"><title>r016___C_degradation_intermediate_r</title>
<ellipse fill="black" stroke="black" cx="1360" cy="-424" rx="0.036" ry="0.036"/>
</g>
<!-- x8&#45;&gt;r016___C_degradation_intermediate_r -->
<g id="edge59" class="edge"><title>x8&#45;&gt;r016___C_degradation_intermediate_r</title>
<path fill="none" stroke="black" d="M1324.22,-424C1340.24,-424 1357.86,-424 1358.95,-424"/>
</g>
<!-- x9 -->
<g id="x9" class="node"><title>x9</title>
<ellipse fill="none" stroke="black" cx="257" cy="-187" rx="27" ry="18"/>
<text text-anchor="middle" x="257" y="-184.5" font-family="Times,serif" font-size="10.00">x9</text>
</g>
<!-- r008___Ie_degradation_intermediate_r -->
<g id="node32" class="node"><title>r008___Ie_degradation_intermediate_r</title>
<ellipse fill="black" stroke="black" cx="347" cy="-219" rx="0.036" ry="0.036"/>
</g>
<!-- x9&#45;&gt;r008___Ie_degradation_intermediate_r -->
<g id="edge26" class="edge"><title>x9&#45;&gt;r008___Ie_degradation_intermediate_r</title>
<path fill="none" stroke="black" d="M281.121,-195.408C306.379,-204.592 343.587,-218.123 345.888,-218.959"/>
</g>
<!-- r006b___I_transport_intermediate_r -->
<g id="node73" class="node"><title>r006b___I_transport_intermediate_r</title>
<ellipse fill="black" stroke="black" cx="347" cy="-156" rx="0.036" ry="0.036"/>
</g>
<!-- x9&#45;&gt;r006b___I_transport_intermediate_r -->
<g id="edge75" class="edge"><title>x9&#45;&gt;r006b___I_transport_intermediate_r</title>
<path fill="none" stroke="black" d="M281.121,-178.855C306.379,-169.957 343.587,-156.85 345.888,-156.039"/>
</g>
<!-- r006c___I_transport_intermediate_r -->
<g id="node76" class="node"><title>r006c___I_transport_intermediate_r</title>
<ellipse fill="black" stroke="black" cx="347" cy="-128" rx="0.036" ry="0.036"/>
</g>
<!-- x9&#45;&gt;r006c___I_transport_intermediate_r -->
<g id="edge80" class="edge"><title>x9&#45;&gt;r006c___I_transport_intermediate_r</title>
<path fill="none" stroke="black" d="M276.663,-174.488C301.687,-157.71 343.298,-129.811 345.874,-128.084"/>
</g>
<!-- r001___mA_transcription -->
<g id="node10" class="node"><title>r001___mA_transcription</title>
<polygon fill="none" stroke="black" points="104,-25 90,-25 90,-11 104,-11 104,-25"/>
</g>
<!-- r001___mA_transcription_intermediate_p -->
<g id="node12" class="node"><title>r001___mA_transcription_intermediate_p</title>
<ellipse fill="black" stroke="black" cx="167" cy="-18" rx="0.036" ry="0.036"/>
</g>
<!-- r001___mA_transcription&#45;&gt;r001___mA_transcription_intermediate_p -->
<g id="edge2" class="edge"><title>r001___mA_transcription&#45;&gt;r001___mA_transcription_intermediate_p</title>
<path fill="none" stroke="black" d="M104.275,-18C120.583,-18 163.222,-18 165.871,-18"/>
</g>
<!-- r001___mA_transcription_empty -->
<g id="node11" class="node"><title>r001___mA_transcription_empty</title>
<text text-anchor="middle" x="27" y="-14.5" font-family="Times,serif" font-size="15.00" fill="blue">Ø</text>
</g>
<!-- r001___mA_transcription_empty&#45;&gt;r001___mA_transcription -->
<g id="edge1" class="edge"><title>r001___mA_transcription_empty&#45;&gt;r001___mA_transcription</title>
<path fill="none" stroke="black" d="M54.0961,-18C67.13,-18 81.8045,-18 89.8681,-18"/>
</g>
<!-- r001___mA_transcription_intermediate_p&#45;&gt;x1 -->
<g id="edge3" class="edge"><title>r001___mA_transcription_intermediate_p&#45;&gt;x1</title>
<path fill="none" stroke="black" d="M168.064,-18C169.533,-18 196.103,-18 219.654,-18"/>
<polygon fill="black" stroke="black" points="219.821,-21.5001 229.82,-18 219.82,-14.5001 219.821,-21.5001"/>
</g>
<!-- r002___A_translation -->
<g id="node13" class="node"><title>r002___A_translation</title>
<polygon fill="none" stroke="black" points="444,-25 430,-25 430,-11 444,-11 444,-25"/>
</g>
<!-- r002___A_translation_intermediate_p -->
<g id="node15" class="node"><title>r002___A_translation_intermediate_p</title>
<ellipse fill="black" stroke="black" cx="527" cy="-14" rx="0.036" ry="0.036"/>
</g>
<!-- r002___A_translation&#45;&gt;r002___A_translation_intermediate_p -->
<g id="edge6" class="edge"><title>r002___A_translation&#45;&gt;r002___A_translation_intermediate_p</title>
<path fill="none" stroke="black" d="M444.049,-17.7251C463.62,-16.8355 524.071,-14.0877 525.955,-14.002"/>
</g>
<!-- r002___A_translation_intermediate_r&#45;&gt;r002___A_translation -->
<g id="edge4" class="edge"><title>r002___A_translation_intermediate_r&#45;&gt;r002___A_translation</title>
<path fill="none" stroke="black" d="M348.064,-18C350.291,-18 410.244,-18 429.856,-18"/>
</g>
<!-- r002___A_translation_intermediate_p&#45;&gt;x1 -->
<g id="edge7" class="edge"><title>r002___A_translation_intermediate_p&#45;&gt;x1</title>
<path fill="none" stroke="black" d="M525.901,-13.9732C523.877,-13.4239 491.066,-4.59518 464,-2 404.052,3.74812 334.136,-4.92429 293.108,-11.5753"/>
<polygon fill="black" stroke="black" points="292.361,-8.15163 283.077,-13.2554 293.517,-15.0555 292.361,-8.15163"/>
</g>
<!-- r002___A_translation_intermediate_p&#45;&gt;x2 -->
<g id="edge8" class="edge"><title>r002___A_translation_intermediate_p&#45;&gt;x2</title>
<path fill="none" stroke="black" d="M528.045,-14.0076C528.969,-14.166 543.908,-16.7968 554,-23 569.911,-32.7801 585.031,-47.2668 596.356,-59.5553"/>
<polygon fill="black" stroke="black" points="593.949,-62.1142 603.22,-67.2416 599.17,-57.4515 593.949,-62.1142"/>
</g>
<!-- r003___mA_degradation -->
<g id="node16" class="node"><title>r003___mA_degradation</title>
<polygon fill="none" stroke="black" points="444,-57 430,-57 430,-43 444,-43 444,-57"/>
</g>
<!-- r003___mA_degradation_empty -->
<g id="node18" class="node"><title>r003___mA_degradation_empty</title>
<text text-anchor="middle" x="527" y="-46.5" font-family="Times,serif" font-size="15.00" fill="blue">Ø</text>
</g>
<!-- r003___mA_degradation&#45;&gt;r003___mA_degradation_empty -->
<g id="edge11" class="edge"><title>r003___mA_degradation&#45;&gt;r003___mA_degradation_empty</title>
<path fill="none" stroke="black" d="M444.049,-50C453.439,-50 472.239,-50 489.466,-50"/>
<polygon fill="black" stroke="black" points="489.891,-53.5001 499.891,-50 489.891,-46.5001 489.891,-53.5001"/>
</g>
<!-- r003___mA_degradation_intermediate_r&#45;&gt;r003___mA_degradation -->
<g id="edge9" class="edge"><title>r003___mA_degradation_intermediate_r&#45;&gt;r003___mA_degradation</title>
<path fill="none" stroke="black" d="M348.064,-43.0051C350.291,-43.1823 410.244,-47.9512 429.856,-49.5113"/>
</g>
<!-- r004___A_degradation -->
<g id="node19" class="node"><title>r004___A_degradation</title>
<polygon fill="none" stroke="black" points="804,-73 790,-73 790,-59 804,-59 804,-73"/>
</g>
<!-- r004___A_degradation_empty -->
<g id="node21" class="node"><title>r004___A_degradation_empty</title>
<text text-anchor="middle" x="887" y="-55.5" font-family="Times,serif" font-size="15.00" fill="blue">Ø</text>
</g>
<!-- r004___A_degradation&#45;&gt;r004___A_degradation_empty -->
<g id="edge14" class="edge"><title>r004___A_degradation&#45;&gt;r004___A_degradation_empty</title>
<path fill="none" stroke="black" d="M804.049,-65.5189C813.439,-64.7719 832.239,-63.2765 849.466,-61.9061"/>
<polygon fill="black" stroke="black" points="850.2,-65.3589 859.891,-61.0768 849.645,-58.3809 850.2,-65.3589"/>
</g>
<!-- r004___A_degradation_intermediate_r&#45;&gt;r004___A_degradation -->
<g id="edge12" class="edge"><title>r004___A_degradation_intermediate_r&#45;&gt;r004___A_degradation</title>
<path fill="none" stroke="black" d="M708.064,-78.9906C710.291,-78.6615 770.244,-69.8049 789.856,-66.9077"/>
</g>
<!-- r005___AI2_dim_1 -->
<g id="node22" class="node"><title>r005___AI2_dim_1</title>
<polygon fill="none" stroke="black" points="804,-120 790,-120 790,-106 804,-106 804,-120"/>
</g>
<!-- r005___AI2_dim_1_empty -->
<g id="node24" class="node"><title>r005___AI2_dim_1_empty</title>
<text text-anchor="middle" x="887" y="-109.5" font-family="Times,serif" font-size="15.00" fill="blue">Ø</text>
</g>
<!-- r005___AI2_dim_1&#45;&gt;r005___AI2_dim_1_empty -->
<g id="edge18" class="edge"><title>r005___AI2_dim_1&#45;&gt;r005___AI2_dim_1_empty</title>
<path fill="none" stroke="black" d="M804.049,-113C813.439,-113 832.239,-113 849.466,-113"/>
<polygon fill="black" stroke="black" points="849.891,-116.5 859.891,-113 849.891,-109.5 849.891,-116.5"/>
</g>
<!-- r005___AI2_dim_1_intermediate_r&#45;&gt;r005___AI2_dim_1 -->
<g id="edge15" class="edge"><title>r005___AI2_dim_1_intermediate_r&#45;&gt;r005___AI2_dim_1</title>
<path fill="none" stroke="black" d="M708.064,-113C710.291,-113 770.244,-113 789.856,-113"/>
</g>
<!-- r006a___I_transport -->
<g id="node25" class="node"><title>r006a___I_transport</title>
<polygon fill="none" stroke="black" points="804,-217 790,-217 790,-203 804,-203 804,-217"/>
</g>
<!-- r006a___I_transport_empty -->
<g id="node27" class="node"><title>r006a___I_transport_empty</title>
<text text-anchor="middle" x="887" y="-217.5" font-family="Times,serif" font-size="15.00" fill="blue">Ø</text>
</g>
<!-- r006a___I_transport&#45;&gt;r006a___I_transport_empty -->
<g id="edge21" class="edge"><title>r006a___I_transport&#45;&gt;r006a___I_transport_empty</title>
<path fill="none" stroke="black" d="M804.049,-210.756C813.527,-211.941 832.594,-214.324 849.953,-216.494"/>
<polygon fill="black" stroke="black" points="849.534,-219.969 859.891,-217.736 850.402,-213.023 849.534,-219.969"/>
</g>
<!-- r006a___I_transport_intermediate_r&#45;&gt;r006a___I_transport -->
<g id="edge19" class="edge"><title>r006a___I_transport_intermediate_r&#45;&gt;r006a___I_transport</title>
<path fill="none" stroke="black" d="M708.064,-197.009C710.291,-197.338 770.244,-206.195 789.856,-209.092"/>
</g>
<!-- r007___I_degradation -->
<g id="node28" class="node"><title>r007___I_degradation</title>
<polygon fill="none" stroke="black" points="804,-174 790,-174 790,-160 804,-160 804,-174"/>
</g>
<!-- r007___I_degradation_empty -->
<g id="node30" class="node"><title>r007___I_degradation_empty</title>
<text text-anchor="middle" x="887" y="-163.5" font-family="Times,serif" font-size="15.00" fill="blue">Ø</text>
</g>
<!-- r007___I_degradation&#45;&gt;r007___I_degradation_empty -->
<g id="edge24" class="edge"><title>r007___I_degradation&#45;&gt;r007___I_degradation_empty</title>
<path fill="none" stroke="black" d="M804.049,-167C813.439,-167 832.239,-167 849.466,-167"/>
<polygon fill="black" stroke="black" points="849.891,-170.5 859.891,-167 849.891,-163.5 849.891,-170.5"/>
</g>
<!-- r007___I_degradation_intermediate_r&#45;&gt;r007___I_degradation -->
<g id="edge22" class="edge"><title>r007___I_degradation_intermediate_r&#45;&gt;r007___I_degradation</title>
<path fill="none" stroke="black" d="M708.064,-167C710.291,-167 770.244,-167 789.856,-167"/>
</g>
<!-- r008___Ie_degradation -->
<g id="node31" class="node"><title>r008___Ie_degradation</title>
<polygon fill="none" stroke="black" points="444,-229 430,-229 430,-215 444,-215 444,-229"/>
</g>
<!-- r008___Ie_degradation_empty -->
<g id="node33" class="node"><title>r008___Ie_degradation_empty</title>
<text text-anchor="middle" x="527" y="-207.5" font-family="Times,serif" font-size="15.00" fill="blue">Ø</text>
</g>
<!-- r008___Ie_degradation&#45;&gt;r008___Ie_degradation_empty -->
<g id="edge27" class="edge"><title>r008___Ie_degradation&#45;&gt;r008___Ie_degradation_empty</title>
<path fill="none" stroke="black" d="M444.049,-221.244C453.527,-220.059 472.594,-217.676 489.953,-215.506"/>
<polygon fill="black" stroke="black" points="490.402,-218.977 499.891,-214.264 489.534,-212.031 490.402,-218.977"/>
</g>
<!-- r008___Ie_degradation_intermediate_r&#45;&gt;r008___Ie_degradation -->
<g id="edge25" class="edge"><title>r008___Ie_degradation_intermediate_r&#45;&gt;r008___Ie_degradation</title>
<path fill="none" stroke="black" d="M348.064,-219.002C350.291,-219.078 410.244,-221.122 429.856,-221.791"/>
</g>
<!-- r009___AI2_degradation -->
<g id="node34" class="node"><title>r009___AI2_degradation</title>
<polygon fill="none" stroke="black" points="444,-451 430,-451 430,-437 444,-437 444,-451"/>
</g>
<!-- r009___AI2_degradation_empty -->
<g id="node36" class="node"><title>r009___AI2_degradation_empty</title>
<text text-anchor="middle" x="527" y="-444.5" font-family="Times,serif" font-size="15.00" fill="blue">Ø</text>
</g>
<!-- r009___AI2_degradation&#45;&gt;r009___AI2_degradation_empty -->
<g id="edge30" class="edge"><title>r009___AI2_degradation&#45;&gt;r009___AI2_degradation_empty</title>
<path fill="none" stroke="black" d="M444.049,-444.275C453.439,-444.702 472.239,-445.556 489.466,-446.339"/>
<polygon fill="black" stroke="black" points="489.742,-449.855 499.891,-446.813 490.06,-442.863 489.742,-449.855"/>
</g>
<!-- r009___AI2_degradation_intermediate_r&#45;&gt;r009___AI2_degradation -->
<g id="edge28" class="edge"><title>r009___AI2_degradation_intermediate_r&#45;&gt;r009___AI2_degradation</title>
<path fill="none" stroke="black" d="M348.064,-439.004C350.291,-439.13 410.244,-442.537 429.856,-443.651"/>
</g>
<!-- r010___mB_transcription -->
<g id="node37" class="node"><title>r010___mB_transcription</title>
<polygon fill="none" stroke="black" points="264,-373 250,-373 250,-359 264,-359 264,-373"/>
</g>
<!-- r010___mB_transcription_intermediate_p -->
<g id="node39" class="node"><title>r010___mB_transcription_intermediate_p</title>
<ellipse fill="black" stroke="black" cx="347" cy="-355" rx="0.036" ry="0.036"/>
</g>
<!-- r010___mB_transcription&#45;&gt;r010___mB_transcription_intermediate_p -->
<g id="edge32" class="edge"><title>r010___mB_transcription&#45;&gt;r010___mB_transcription_intermediate_p</title>
<path fill="none" stroke="black" d="M264.049,-365.244C283.62,-362.798 344.071,-355.241 345.955,-355.006"/>
</g>
<!-- r010___mB_transcription&#45;&gt;r010___mB_transcription_intermediate_m -->
<g id="edge34" class="edge"><title>r010___mB_transcription&#45;&gt;r010___mB_transcription_intermediate_m</title>
<path fill="none" stroke="black" d="M264.049,-366.481C283.62,-368.038 344.071,-372.847 345.955,-372.996"/>
</g>
<!-- r010___mB_transcription_empty -->
<g id="node38" class="node"><title>r010___mB_transcription_empty</title>
<text text-anchor="middle" x="167" y="-362.5" font-family="Times,serif" font-size="15.00" fill="blue">Ø</text>
</g>
<!-- r010___mB_transcription_empty&#45;&gt;r010___mB_transcription -->
<g id="edge31" class="edge"><title>r010___mB_transcription_empty&#45;&gt;r010___mB_transcription</title>
<path fill="none" stroke="black" d="M194.403,-366C213.641,-366 238.253,-366 249.665,-366"/>
</g>
<!-- r010___mB_transcription_intermediate_p&#45;&gt;x5 -->
<g id="edge33" class="edge"><title>r010___mB_transcription_intermediate_p&#45;&gt;x5</title>
<path fill="none" stroke="black" d="M348.064,-354.989C349.557,-354.735 377.007,-350.056 400.845,-345.992"/>
<polygon fill="black" stroke="black" points="401.484,-349.434 410.753,-344.303 400.307,-342.534 401.484,-349.434"/>
</g>
<!-- r011___B_translation -->
<g id="node41" class="node"><title>r011___B_translation</title>
<polygon fill="none" stroke="black" points="624,-337 610,-337 610,-323 624,-323 624,-337"/>
</g>
<!-- r011___B_translation_intermediate_p -->
<g id="node43" class="node"><title>r011___B_translation_intermediate_p</title>
<ellipse fill="black" stroke="black" cx="707" cy="-320" rx="0.036" ry="0.036"/>
</g>
<!-- r011___B_translation&#45;&gt;r011___B_translation_intermediate_p -->
<g id="edge38" class="edge"><title>r011___B_translation&#45;&gt;r011___B_translation_intermediate_p</title>
<path fill="none" stroke="black" d="M624.049,-329.313C643.62,-327.089 704.071,-320.219 705.955,-320.005"/>
</g>
<!-- r011___B_translation_intermediate_r&#45;&gt;r011___B_translation -->
<g id="edge36" class="edge"><title>r011___B_translation_intermediate_r&#45;&gt;r011___B_translation</title>
<path fill="none" stroke="black" d="M528.064,-330.999C530.291,-330.974 590.244,-330.293 609.856,-330.07"/>
</g>
<!-- r011___B_translation_intermediate_p&#45;&gt;x5 -->
<g id="edge39" class="edge"><title>r011___B_translation_intermediate_p&#45;&gt;x5</title>
<path fill="none" stroke="black" d="M705.901,-319.987C703.86,-319.712 670.788,-315.293 644,-314 579.976,-310.909 562.998,-310.171 500,-322 490.454,-323.792 480.267,-326.434 470.966,-329.144"/>
<polygon fill="black" stroke="black" points="469.849,-325.825 461.294,-332.075 471.879,-332.525 469.849,-325.825"/>
</g>
<!-- r011___B_translation_intermediate_p&#45;&gt;x6 -->
<g id="edge40" class="edge"><title>r011___B_translation_intermediate_p&#45;&gt;x6</title>
<path fill="none" stroke="black" d="M708.064,-320.013C709.557,-320.319 737.007,-325.933 760.845,-330.809"/>
<polygon fill="black" stroke="black" points="760.255,-334.261 770.753,-332.836 761.658,-327.403 760.255,-334.261"/>
</g>
<!-- r012___B_degradation -->
<g id="node44" class="node"><title>r012___B_degradation</title>
<polygon fill="none" stroke="black" points="984,-345 970,-345 970,-331 984,-331 984,-345"/>
</g>
<!-- r012___B_degradation_empty -->
<g id="node46" class="node"><title>r012___B_degradation_empty</title>
<text text-anchor="middle" x="1067" y="-334.5" font-family="Times,serif" font-size="15.00" fill="blue">Ø</text>
</g>
<!-- r012___B_degradation&#45;&gt;r012___B_degradation_empty -->
<g id="edge43" class="edge"><title>r012___B_degradation&#45;&gt;r012___B_degradation_empty</title>
<path fill="none" stroke="black" d="M984.049,-338C993.439,-338 1012.24,-338 1029.47,-338"/>
<polygon fill="black" stroke="black" points="1029.89,-341.5 1039.89,-338 1029.89,-334.5 1029.89,-341.5"/>
</g>
<!-- r012___B_degradation_intermediate_r&#45;&gt;r012___B_degradation -->
<g id="edge41" class="edge"><title>r012___B_degradation_intermediate_r&#45;&gt;r012___B_degradation</title>
<path fill="none" stroke="black" d="M888.064,-338C890.291,-338 950.244,-338 969.856,-338"/>
</g>
<!-- r013___mB_degradation -->
<g id="node47" class="node"><title>r013___mB_degradation</title>
<polygon fill="none" stroke="black" points="624,-369 610,-369 610,-355 624,-355 624,-369"/>
</g>
<!-- r013___mB_degradation_empty -->
<g id="node49" class="node"><title>r013___mB_degradation_empty</title>
<text text-anchor="middle" x="707" y="-352.5" font-family="Times,serif" font-size="15.00" fill="blue">Ø</text>
</g>
<!-- r013___mB_degradation&#45;&gt;r013___mB_degradation_empty -->
<g id="edge46" class="edge"><title>r013___mB_degradation&#45;&gt;r013___mB_degradation_empty</title>
<path fill="none" stroke="black" d="M624.049,-361.588C633.439,-360.947 652.239,-359.666 669.466,-358.491"/>
<polygon fill="black" stroke="black" points="670.152,-361.952 679.891,-357.78 669.676,-354.969 670.152,-361.952"/>
</g>
<!-- r013___mB_degradation_intermediate_r&#45;&gt;r013___mB_degradation -->
<g id="edge44" class="edge"><title>r013___mB_degradation_intermediate_r&#45;&gt;r013___mB_degradation</title>
<path fill="none" stroke="black" d="M528.064,-349.009C530.291,-349.338 590.244,-358.195 609.856,-361.092"/>
</g>
<!-- r014___mC_transcription -->
<g id="node50" class="node"><title>r014___mC_transcription</title>
<polygon fill="none" stroke="black" points="804,-449 790,-449 790,-435 804,-435 804,-449"/>
</g>
<!-- r014___mC_transcription_intermediate_p -->
<g id="node52" class="node"><title>r014___mC_transcription_intermediate_p</title>
<ellipse fill="black" stroke="black" cx="887" cy="-442" rx="0.036" ry="0.036"/>
</g>
<!-- r014___mC_transcription&#45;&gt;r014___mC_transcription_intermediate_p -->
<g id="edge48" class="edge"><title>r014___mC_transcription&#45;&gt;r014___mC_transcription_intermediate_p</title>
<path fill="none" stroke="black" d="M804.049,-442C823.62,-442 884.071,-442 885.955,-442"/>
</g>
<!-- r014___mC_transcription&#45;&gt;r014___mC_transcription_intermediate_m -->
<g id="edge50" class="edge"><title>r014___mC_transcription&#45;&gt;r014___mC_transcription_intermediate_m</title>
<path fill="none" stroke="black" d="M804.049,-439.251C823.62,-430.355 884.071,-402.877 885.955,-402.02"/>
</g>
<!-- r014___mC_transcription_empty -->
<g id="node51" class="node"><title>r014___mC_transcription_empty</title>
<text text-anchor="middle" x="707" y="-444.5" font-family="Times,serif" font-size="15.00" fill="blue">Ø</text>
</g>
<!-- r014___mC_transcription_empty&#45;&gt;r014___mC_transcription -->
<g id="edge47" class="edge"><title>r014___mC_transcription_empty&#45;&gt;r014___mC_transcription</title>
<path fill="none" stroke="black" d="M734.403,-446.2C753.641,-444.888 778.253,-443.21 789.665,-442.432"/>
</g>
<!-- r014___mC_transcription_intermediate_p&#45;&gt;x7 -->
<g id="edge49" class="edge"><title>r014___mC_transcription_intermediate_p&#45;&gt;x7</title>
<path fill="none" stroke="black" d="M888.064,-442C889.533,-442 916.103,-442 939.654,-442"/>
<polygon fill="black" stroke="black" points="939.821,-445.5 949.82,-442 939.82,-438.5 939.821,-445.5"/>
</g>
<!-- r015___C_translation -->
<g id="node54" class="node"><title>r015___C_translation</title>
<polygon fill="none" stroke="black" points="1144,-414 1130,-414 1130,-400 1144,-400 1144,-414"/>
</g>
<!-- r015___C_translation_intermediate_p -->
<g id="node56" class="node"><title>r015___C_translation_intermediate_p</title>
<ellipse fill="black" stroke="black" cx="1207" cy="-424" rx="0.036" ry="0.036"/>
</g>
<!-- r015___C_translation&#45;&gt;r015___C_translation_intermediate_p -->
<g id="edge55" class="edge"><title>r015___C_translation&#45;&gt;r015___C_translation_intermediate_p</title>
<path fill="none" stroke="black" d="M1144.28,-408.569C1160.58,-412.646 1203.22,-423.305 1205.87,-423.968"/>
</g>
<!-- r015___C_translation_intermediate_r&#45;&gt;r015___C_translation -->
<g id="edge53" class="edge"><title>r015___C_translation_intermediate_r&#45;&gt;r015___C_translation</title>
<path fill="none" stroke="black" d="M1068.05,-409.998C1069.72,-409.924 1113.53,-407.991 1129.91,-407.269"/>
</g>
<!-- r015___C_translation_intermediate_p&#45;&gt;x7 -->
<g id="edge56" class="edge"><title>r015___C_translation_intermediate_p&#45;&gt;x7</title>
<path fill="none" stroke="black" d="M1205.9,-424.008C1201.82,-424.33 1077.85,-434.117 1014.5,-439.118"/>
<polygon fill="black" stroke="black" points="1013.85,-435.659 1004.15,-439.935 1014.4,-442.637 1013.85,-435.659"/>
</g>
<!-- r015___C_translation_intermediate_p&#45;&gt;x8 -->
<g id="edge57" class="edge"><title>r015___C_translation_intermediate_p&#45;&gt;x8</title>
<path fill="none" stroke="black" d="M1208.06,-424C1209.53,-424 1236.1,-424 1259.65,-424"/>
<polygon fill="black" stroke="black" points="1259.82,-427.5 1269.82,-424 1259.82,-420.5 1259.82,-427.5"/>
</g>
<!-- r016___C_degradation -->
<g id="node57" class="node"><title>r016___C_degradation</title>
<polygon fill="none" stroke="black" points="1410,-431 1396,-431 1396,-417 1410,-417 1410,-431"/>
</g>
<!-- r016___C_degradation_empty -->
<g id="node59" class="node"><title>r016___C_degradation_empty</title>
<text text-anchor="middle" x="1473" y="-420.5" font-family="Times,serif" font-size="15.00" fill="blue">Ø</text>
</g>
<!-- r016___C_degradation&#45;&gt;r016___C_degradation_empty -->
<g id="edge60" class="edge"><title>r016___C_degradation&#45;&gt;r016___C_degradation_empty</title>
<path fill="none" stroke="black" d="M1410.28,-424C1416.28,-424 1425.85,-424 1435.68,-424"/>
<polygon fill="black" stroke="black" points="1435.88,-427.5 1445.88,-424 1435.88,-420.5 1435.88,-427.5"/>
</g>
<!-- r016___C_degradation_intermediate_r&#45;&gt;r016___C_degradation -->
<g id="edge58" class="edge"><title>r016___C_degradation_intermediate_r&#45;&gt;r016___C_degradation</title>
<path fill="none" stroke="black" d="M1361.12,-424C1362.92,-424 1385.02,-424 1395.95,-424"/>
</g>
<!-- r017___mC_degradation -->
<g id="node60" class="node"><title>r017___mC_degradation</title>
<polygon fill="none" stroke="black" points="1144,-484 1130,-484 1130,-470 1144,-470 1144,-484"/>
</g>
<!-- r017___mC_degradation_empty -->
<g id="node62" class="node"><title>r017___mC_degradation_empty</title>
<text text-anchor="middle" x="1207" y="-473.5" font-family="Times,serif" font-size="15.00" fill="blue">Ø</text>
</g>
<!-- r017___mC_degradation&#45;&gt;r017___mC_degradation_empty -->
<g id="edge63" class="edge"><title>r017___mC_degradation&#45;&gt;r017___mC_degradation_empty</title>
<path fill="none" stroke="black" d="M1144.28,-477C1150.28,-477 1159.85,-477 1169.68,-477"/>
<polygon fill="black" stroke="black" points="1169.88,-480.5 1179.88,-477 1169.88,-473.5 1169.88,-480.5"/>
</g>
<!-- r017___mC_degradation_intermediate_r&#45;&gt;r017___mC_degradation -->
<g id="edge61" class="edge"><title>r017___mC_degradation_intermediate_r&#45;&gt;r017___mC_degradation</title>
<path fill="none" stroke="black" d="M1068.05,-474.002C1069.72,-474.076 1113.53,-476.009 1129.91,-476.731"/>
</g>
<!-- r018___AI2_dim_2 -->
<g id="node63" class="node"><title>r018___AI2_dim_2</title>
<polygon fill="none" stroke="black" points="444,-494 430,-494 430,-480 444,-480 444,-494"/>
</g>
<!-- r018___AI2_dim_2_empty -->
<g id="node65" class="node"><title>r018___AI2_dim_2_empty</title>
<text text-anchor="middle" x="527" y="-498.5" font-family="Times,serif" font-size="15.00" fill="blue">Ø</text>
</g>
<!-- r018___AI2_dim_2&#45;&gt;r018___AI2_dim_2_empty -->
<g id="edge66" class="edge"><title>r018___AI2_dim_2&#45;&gt;r018___AI2_dim_2_empty</title>
<path fill="none" stroke="black" d="M444.049,-488.031C453.527,-489.647 472.594,-492.897 489.953,-495.856"/>
<polygon fill="black" stroke="black" points="489.445,-499.319 499.891,-497.55 490.621,-492.419 489.445,-499.319"/>
</g>
<!-- r018___AI2_dim_2_intermediate_r&#45;&gt;r018___AI2_dim_2 -->
<g id="edge64" class="edge"><title>r018___AI2_dim_2_intermediate_r&#45;&gt;r018___AI2_dim_2</title>
<path fill="none" stroke="black" d="M348.064,-468.014C350.291,-468.495 410.244,-481.439 429.856,-485.673"/>
</g>
<!-- r019___AI2_dim_3 -->
<g id="node66" class="node"><title>r019___AI2_dim_3</title>
<polygon fill="none" stroke="black" points="444,-93 430,-93 430,-79 444,-79 444,-93"/>
</g>
<!-- r019___AI2_dim_3_intermediate_p -->
<g id="node68" class="node"><title>r019___AI2_dim_3_intermediate_p</title>
<ellipse fill="black" stroke="black" cx="527" cy="-86" rx="0.036" ry="0.036"/>
</g>
<!-- r019___AI2_dim_3&#45;&gt;r019___AI2_dim_3_intermediate_p -->
<g id="edge68" class="edge"><title>r019___AI2_dim_3&#45;&gt;r019___AI2_dim_3_intermediate_p</title>
<path fill="none" stroke="black" d="M444.049,-86C463.62,-86 524.071,-86 525.955,-86"/>
</g>
<!-- r019___AI2_dim_3_empty -->
<g id="node67" class="node"><title>r019___AI2_dim_3_empty</title>
<text text-anchor="middle" x="347" y="-82.5" font-family="Times,serif" font-size="15.00" fill="blue">Ø</text>
</g>
<!-- r019___AI2_dim_3_empty&#45;&gt;r019___AI2_dim_3 -->
<g id="edge67" class="edge"><title>r019___AI2_dim_3_empty&#45;&gt;r019___AI2_dim_3</title>
<path fill="none" stroke="black" d="M374.403,-86C393.641,-86 418.253,-86 429.665,-86"/>
</g>
<!-- r019___AI2_dim_3_intermediate_p&#45;&gt;x2 -->
<g id="edge69" class="edge"><title>r019___AI2_dim_3_intermediate_p&#45;&gt;x2</title>
<path fill="none" stroke="black" d="M528.064,-85.9978C529.533,-85.9477 556.103,-85.0419 579.654,-84.2391"/>
<polygon fill="black" stroke="black" points="579.946,-87.7313 589.82,-83.8925 579.707,-80.7353 579.946,-87.7313"/>
</g>
<!-- r019___AI2_dim_3_intermediate_p&#45;&gt;x3 -->
<g id="edge70" class="edge"><title>r019___AI2_dim_3_intermediate_p&#45;&gt;x3</title>
<path fill="none" stroke="black" d="M528.046,-86.0063C528.987,-86.1378 544.2,-88.3448 554,-95 572.252,-107.395 588.356,-126.492 599.574,-141.904"/>
<polygon fill="black" stroke="black" points="596.982,-144.303 605.594,-150.474 602.71,-140.279 596.982,-144.303"/>
</g>
<!-- r020___AI2_dim_4 -->
<g id="node69" class="node"><title>r020___AI2_dim_4</title>
<polygon fill="none" stroke="black" points="104,-417 90,-417 90,-403 104,-403 104,-417"/>
</g>
<!-- r020___AI2_dim_4_intermediate_p -->
<g id="node71" class="node"><title>r020___AI2_dim_4_intermediate_p</title>
<ellipse fill="black" stroke="black" cx="167" cy="-410" rx="0.036" ry="0.036"/>
</g>
<!-- r020___AI2_dim_4&#45;&gt;r020___AI2_dim_4_intermediate_p -->
<g id="edge72" class="edge"><title>r020___AI2_dim_4&#45;&gt;r020___AI2_dim_4_intermediate_p</title>
<path fill="none" stroke="black" d="M104.275,-410C120.583,-410 163.222,-410 165.871,-410"/>
</g>
<!-- r020___AI2_dim_4_empty -->
<g id="node70" class="node"><title>r020___AI2_dim_4_empty</title>
<text text-anchor="middle" x="27" y="-406.5" font-family="Times,serif" font-size="15.00" fill="blue">Ø</text>
</g>
<!-- r020___AI2_dim_4_empty&#45;&gt;r020___AI2_dim_4 -->
<g id="edge71" class="edge"><title>r020___AI2_dim_4_empty&#45;&gt;r020___AI2_dim_4</title>
<path fill="none" stroke="black" d="M54.0961,-410C67.13,-410 81.8045,-410 89.8681,-410"/>
</g>
<!-- r020___AI2_dim_4_intermediate_p&#45;&gt;x4 -->
<g id="edge73" class="edge"><title>r020___AI2_dim_4_intermediate_p&#45;&gt;x4</title>
<path fill="none" stroke="black" d="M168.064,-410C169.533,-410 196.103,-410 219.654,-410"/>
<polygon fill="black" stroke="black" points="219.821,-413.5 229.82,-410 219.82,-406.5 219.821,-413.5"/>
</g>
<!-- r006b___I_transport -->
<g id="node72" class="node"><title>r006b___I_transport</title>
<polygon fill="none" stroke="black" points="444,-159 430,-159 430,-145 444,-145 444,-159"/>
</g>
<!-- r006b___I_transport_intermediate_p -->
<g id="node74" class="node"><title>r006b___I_transport_intermediate_p</title>
<ellipse fill="black" stroke="black" cx="527" cy="-167" rx="0.036" ry="0.036"/>
</g>
<!-- r006b___I_transport&#45;&gt;r006b___I_transport_intermediate_p -->
<g id="edge76" class="edge"><title>r006b___I_transport&#45;&gt;r006b___I_transport_intermediate_p</title>
<path fill="none" stroke="black" d="M444.049,-153.031C463.62,-156.367 524.071,-166.671 525.955,-166.992"/>
</g>
<!-- r006b___I_transport_intermediate_r&#45;&gt;r006b___I_transport -->
<g id="edge74" class="edge"><title>r006b___I_transport_intermediate_r&#45;&gt;r006b___I_transport</title>
<path fill="none" stroke="black" d="M348.064,-155.997C350.291,-155.896 410.244,-153.171 429.856,-152.279"/>
</g>
<!-- r006b___I_transport_intermediate_p&#45;&gt;x9 -->
<g id="edge77" class="edge"><title>r006b___I_transport_intermediate_p&#45;&gt;x9</title>
<path fill="none" stroke="black" d="M525.873,-167.009C520.825,-167.386 366.143,-178.93 294.175,-184.3"/>
<polygon fill="black" stroke="black" points="293.897,-180.811 284.185,-185.046 294.418,-187.792 293.897,-180.811"/>
</g>
<!-- r006b___I_transport_intermediate_p&#45;&gt;x3 -->
<g id="edge78" class="edge"><title>r006b___I_transport_intermediate_p&#45;&gt;x3</title>
<path fill="none" stroke="black" d="M528.064,-167C529.533,-167 556.103,-167 579.654,-167"/>
<polygon fill="black" stroke="black" points="579.821,-170.5 589.82,-167 579.82,-163.5 579.821,-170.5"/>
</g>
<!-- r006c___I_transport -->
<g id="node75" class="node"><title>r006c___I_transport</title>
<polygon fill="none" stroke="black" points="444,-127 430,-127 430,-113 444,-113 444,-127"/>
</g>
<!-- r006c___I_transport_empty -->
<g id="node77" class="node"><title>r006c___I_transport_empty</title>
<text text-anchor="middle" x="527" y="-118.5" font-family="Times,serif" font-size="15.00" fill="blue">Ø</text>
</g>
<!-- r006c___I_transport&#45;&gt;r006c___I_transport_empty -->
<g id="edge81" class="edge"><title>r006c___I_transport&#45;&gt;r006c___I_transport_empty</title>
<path fill="none" stroke="black" d="M444.049,-120.137C453.439,-120.351 472.239,-120.778 489.466,-121.17"/>
<polygon fill="black" stroke="black" points="489.814,-124.678 499.891,-121.407 489.973,-117.68 489.814,-124.678"/>
</g>
<!-- r006c___I_transport_intermediate_r&#45;&gt;r006c___I_transport -->
<g id="edge79" class="edge"><title>r006c___I_transport_intermediate_r&#45;&gt;r006c___I_transport</title>
<path fill="none" stroke="black" d="M348.064,-127.994C350.291,-127.792 410.244,-122.341 429.856,-120.559"/>
</g>
<!-- r006d___I_transport -->
<g id="node78" class="node"><title>r006d___I_transport</title>
<polygon fill="none" stroke="black" points="104,-229 90,-229 90,-215 104,-215 104,-229"/>
</g>
<!-- r006d___I_transport_intermediate_p -->
<g id="node80" class="node"><title>r006d___I_transport_intermediate_p</title>
<ellipse fill="black" stroke="black" cx="167" cy="-208" rx="0.036" ry="0.036"/>
</g>
<!-- r006d___I_transport&#45;&gt;r006d___I_transport_intermediate_p -->
<g id="edge83" class="edge"><title>r006d___I_transport&#45;&gt;r006d___I_transport_intermediate_p</title>
<path fill="none" stroke="black" d="M104.275,-220.708C120.583,-217.35 163.222,-208.572 165.871,-208.027"/>
</g>
<!-- r006d___I_transport&#45;&gt;r006d___I_transport_intermediate_m -->
<g id="edge85" class="edge"><title>r006d___I_transport&#45;&gt;r006d___I_transport_intermediate_m</title>
<path fill="none" stroke="black" d="M104.212,-224.406C125.208,-232.313 195.595,-257 256,-257 256,-257 256,-257 528,-257 606.415,-257 702.931,-236.651 705.928,-236.015"/>
</g>
<!-- r006d___I_transport_empty -->
<g id="node79" class="node"><title>r006d___I_transport_empty</title>
<text text-anchor="middle" x="27" y="-218.5" font-family="Times,serif" font-size="15.00" fill="blue">Ø</text>
</g>
<!-- r006d___I_transport_empty&#45;&gt;r006d___I_transport -->
<g id="edge82" class="edge"><title>r006d___I_transport_empty&#45;&gt;r006d___I_transport</title>
<path fill="none" stroke="black" d="M54.0961,-222C67.13,-222 81.8045,-222 89.8681,-222"/>
</g>
<!-- r006d___I_transport_intermediate_p&#45;&gt;x9 -->
<g id="edge84" class="edge"><title>r006d___I_transport_intermediate_p&#45;&gt;x9</title>
<path fill="none" stroke="black" d="M168.064,-207.985C169.567,-207.626 197.343,-200.998 221.28,-195.285"/>
<polygon fill="black" stroke="black" points="222.302,-198.64 231.216,-192.914 220.677,-191.831 222.302,-198.64"/>
</g>
</g>
</svg>
