<?xml version="1.0" encoding="UTF-8" standalone="no"?>
<!DOCTYPE svg PUBLIC "-//W3C//DTD SVG 1.1//EN"
 "http://www.w3.org/Graphics/SVG/1.1/DTD/svg11.dtd">
<!-- Generated by graphviz version 2.30.1 (20140821.0912)
 -->
<!-- Title: G Pages: 1 -->
<svg width="1210pt" height="367pt"
 viewBox="0.00 0.00 1210.00 367.00" xmlns="http://www.w3.org/2000/svg" xmlns:xlink="http://www.w3.org/1999/xlink">
<g id="graph0" class="graph" transform="scale(1 1) rotate(0) translate(4 363)">
<title>G</title>
<polygon fill="white" stroke="white" points="-4,5 -4,-363 1207,-363 1207,5 -4,5"/>
<!-- Rs_0 -->
<g id="Rs_0" class="node"><title>Rs_0</title>
<path fill="none" stroke="black" d="M220,-294C220,-294 190,-294 190,-294 184,-294 178,-288 178,-282 178,-282 178,-270 178,-270 178,-264 184,-258 190,-258 190,-258 220,-258 220,-258 226,-258 232,-264 232,-270 232,-270 232,-282 232,-282 232,-288 226,-294 220,-294"/>
<text text-anchor="middle" x="205" y="-273.5" font-family="Times,serif" font-size="10.00">Rs</text>
</g>
<!-- Receptor_binding_to_Ligand_intermediate_r -->
<g id="node10" class="node"><title>Receptor_binding_to_Ligand_intermediate_r</title>
<ellipse fill="black" stroke="black" cx="269" cy="-239" rx="0.036" ry="0.036"/>
</g>
<!-- Rs_0&#45;&gt;Receptor_binding_to_Ligand_intermediate_r -->
<g id="edge2" class="edge"><title>Rs_0&#45;&gt;Receptor_binding_to_Ligand_intermediate_r</title>
<path fill="none" stroke="black" d="M232.294,-260.309C248.664,-250.539 266.826,-239.7 267.946,-239.033"/>
</g>
<!-- Receptor_Internalisation_intermediate_r -->
<g id="node21" class="node"><title>Receptor_Internalisation_intermediate_r</title>
<ellipse fill="black" stroke="black" cx="269" cy="-308" rx="0.036" ry="0.036"/>
</g>
<!-- Rs_0&#45;&gt;Receptor_Internalisation_intermediate_r -->
<g id="edge17" class="edge"><title>Rs_0&#45;&gt;Receptor_Internalisation_intermediate_r</title>
<path fill="none" stroke="black" d="M232.294,-289.571C248.664,-298.02 266.826,-307.394 267.946,-307.972"/>
</g>
<!-- Ligand_Binding_Dissociation_Recycling_intermediate_m -->
<g id="node52" class="node"><title>Ligand_Binding_Dissociation_Recycling_intermediate_m</title>
<ellipse fill="black" stroke="black" cx="551" cy="-144" rx="0.036" ry="0.036"/>
</g>
<!-- Rs_0&#45;&gt;Ligand_Binding_Dissociation_Recycling_intermediate_m -->
<g id="edge57" class="edge"><title>Rs_0&#45;&gt;Ligand_Binding_Dissociation_Recycling_intermediate_m</title>
<path fill="none" stroke="black" d="M209.692,-257.953C220.111,-212.7 254.195,-98 332,-98 332,-98 332,-98 398,-98 467.479,-98 547.458,-142.574 549.941,-143.967"/>
</g>
<!-- Cs_0 -->
<g id="Cs_0" class="node"><title>Cs_0</title>
<path fill="none" stroke="black" d="M476,-248C476,-248 446,-248 446,-248 440,-248 434,-242 434,-236 434,-236 434,-224 434,-224 434,-218 440,-212 446,-212 446,-212 476,-212 476,-212 482,-212 488,-218 488,-224 488,-224 488,-236 488,-236 488,-242 482,-248 476,-248"/>
<text text-anchor="middle" x="461" y="-227.5" font-family="Times,serif" font-size="10.00">Cs</text>
</g>
<!-- Receptor_Ligand_complex_dissocation_intermediate_r -->
<g id="node14" class="node"><title>Receptor_Ligand_complex_dissocation_intermediate_r</title>
<ellipse fill="black" stroke="black" cx="551" cy="-241" rx="0.036" ry="0.036"/>
</g>
<!-- Cs_0&#45;&gt;Receptor_Ligand_complex_dissocation_intermediate_r -->
<g id="edge8" class="edge"><title>Cs_0&#45;&gt;Receptor_Ligand_complex_dissocation_intermediate_r</title>
<path fill="none" stroke="black" d="M488.403,-233.3C513.514,-236.439 547.78,-240.722 549.897,-240.987"/>
</g>
<!-- Upregulation_of_Receptor_Synthesis_intermediate_m -->
<g id="node19" class="node"><title>Upregulation_of_Receptor_Synthesis_intermediate_m</title>
<ellipse fill="black" stroke="black" cx="551" cy="-347" rx="0.036" ry="0.036"/>
</g>
<!-- Cs_0&#45;&gt;Upregulation_of_Receptor_Synthesis_intermediate_m -->
<g id="edge15" class="edge"><title>Cs_0&#45;&gt;Upregulation_of_Receptor_Synthesis_intermediate_m</title>
<path fill="none" stroke="black" d="M475.557,-248.025C499.856,-280.331 548.451,-344.941 549.964,-346.952"/>
</g>
<!-- Endocytosis_of_Receptor_Ligand_complex_intermediate_r -->
<g id="node27" class="node"><title>Endocytosis_of_Receptor_Ligand_complex_intermediate_r</title>
<ellipse fill="black" stroke="black" cx="551" cy="-223" rx="0.036" ry="0.036"/>
</g>
<!-- Cs_0&#45;&gt;Endocytosis_of_Receptor_Ligand_complex_intermediate_r -->
<g id="edge24" class="edge"><title>Cs_0&#45;&gt;Endocytosis_of_Receptor_Ligand_complex_intermediate_r</title>
<path fill="none" stroke="black" d="M488.403,-227.9C513.514,-225.902 547.78,-223.177 549.897,-223.008"/>
</g>
<!-- Cs_0&#45;&gt;Ligand_Binding_Dissociation_Recycling_intermediate_m -->
<g id="edge58" class="edge"><title>Cs_0&#45;&gt;Ligand_Binding_Dissociation_Recycling_intermediate_m</title>
<path fill="none" stroke="black" d="M479.797,-211.863C482.577,-208.931 485.391,-205.905 488,-203 504.654,-184.456 505.142,-176.298 524,-160 533.945,-151.405 549.022,-144.447 549.955,-144.021"/>
</g>
<!-- Ri_0 -->
<g id="Ri_0" class="node"><title>Ri_0</title>
<path fill="none" stroke="black" d="M1012,-248C1012,-248 982,-248 982,-248 976,-248 970,-242 970,-236 970,-236 970,-224 970,-224 970,-218 976,-212 982,-212 982,-212 1012,-212 1012,-212 1018,-212 1024,-218 1024,-224 1024,-224 1024,-236 1024,-236 1024,-242 1018,-248 1012,-248"/>
<text text-anchor="middle" x="997" y="-227.5" font-family="Times,serif" font-size="10.00">Ri</text>
</g>
<!-- IL_2_binding_to_free_BetaGamma_heterodimer_1_intermediate_r -->
<g id="node30" class="node"><title>IL_2_binding_to_free_BetaGamma_heterodimer_1_intermediate_r</title>
<ellipse fill="black" stroke="black" cx="1061" cy="-215" rx="0.036" ry="0.036"/>
</g>
<!-- Ri_0&#45;&gt;IL_2_binding_to_free_BetaGamma_heterodimer_1_intermediate_r -->
<g id="edge28" class="edge"><title>Ri_0&#45;&gt;IL_2_binding_to_free_BetaGamma_heterodimer_1_intermediate_r</title>
<path fill="none" stroke="black" d="M1024.29,-223.639C1040.66,-219.678 1058.83,-215.284 1059.95,-215.013"/>
</g>
<!-- Degradation_of_heterodimer_intermediate_r -->
<g id="node37" class="node"><title>Degradation_of_heterodimer_intermediate_r</title>
<ellipse fill="black" stroke="black" cx="1061" cy="-235" rx="0.036" ry="0.036"/>
</g>
<!-- Ri_0&#45;&gt;Degradation_of_heterodimer_intermediate_r -->
<g id="edge38" class="edge"><title>Ri_0&#45;&gt;Degradation_of_heterodimer_intermediate_r</title>
<path fill="none" stroke="black" d="M1024.29,-232.12C1040.66,-233.441 1058.83,-234.905 1059.95,-234.996"/>
</g>
<!-- IL_2_binding_dissociating_intermediate_m -->
<g id="node45" class="node"><title>IL_2_binding_dissociating_intermediate_m</title>
<ellipse fill="black" stroke="black" cx="1061" cy="-184" rx="0.036" ry="0.036"/>
</g>
<!-- Ri_0&#45;&gt;IL_2_binding_dissociating_intermediate_m -->
<g id="edge48" class="edge"><title>Ri_0&#45;&gt;IL_2_binding_dissociating_intermediate_m</title>
<path fill="none" stroke="black" d="M1022.5,-211.82C1039.29,-199.364 1058.74,-184.933 1059.94,-184.043"/>
</g>
<!-- Ci_0 -->
<g id="Ci_0" class="node"><title>Ci_0</title>
<path fill="none" stroke="black" d="M796,-227C796,-227 766,-227 766,-227 760,-227 754,-221 754,-215 754,-215 754,-203 754,-203 754,-197 760,-191 766,-191 766,-191 796,-191 796,-191 802,-191 808,-197 808,-203 808,-203 808,-215 808,-215 808,-221 802,-227 796,-227"/>
<text text-anchor="middle" x="781" y="-206.5" font-family="Times,serif" font-size="10.00">Ci</text>
</g>
<!-- Dissocation_of_IL_2_Heterodimer_complex_intermediate_r -->
<g id="node34" class="node"><title>Dissocation_of_IL_2_Heterodimer_complex_intermediate_r</title>
<ellipse fill="black" stroke="black" cx="845" cy="-215" rx="0.036" ry="0.036"/>
</g>
<!-- Ci_0&#45;&gt;Dissocation_of_IL_2_Heterodimer_complex_intermediate_r -->
<g id="edge34" class="edge"><title>Ci_0&#45;&gt;Dissocation_of_IL_2_Heterodimer_complex_intermediate_r</title>
<path fill="none" stroke="black" d="M808.294,-211.545C824.664,-213.129 842.826,-214.886 843.946,-214.995"/>
</g>
<!-- Degradation_of_IL_2_heterodimer_complex_intermediate_r -->
<g id="node40" class="node"><title>Degradation_of_IL_2_heterodimer_complex_intermediate_r</title>
<ellipse fill="black" stroke="black" cx="845" cy="-147" rx="0.036" ry="0.036"/>
</g>
<!-- Ci_0&#45;&gt;Degradation_of_IL_2_heterodimer_complex_intermediate_r -->
<g id="edge41" class="edge"><title>Ci_0&#45;&gt;Degradation_of_IL_2_heterodimer_complex_intermediate_r</title>
<path fill="none" stroke="black" d="M800.267,-190.733C817.984,-173.016 842.417,-148.583 843.926,-147.074"/>
</g>
<!-- Ci_0&#45;&gt;IL_2_binding_dissociating_intermediate_m -->
<g id="edge49" class="edge"><title>Ci_0&#45;&gt;IL_2_binding_dissociating_intermediate_m</title>
<path fill="none" stroke="black" d="M808.169,-199.263C829.38,-192.243 860.206,-184 888,-184 888,-184 888,-184 934,-184 989.125,-184 1057.82,-184 1059.95,-184"/>
</g>
<!-- Li_0 -->
<g id="Li_0" class="node"><title>Li_0</title>
<path fill="none" stroke="black" d="M476,-70C476,-70 446,-70 446,-70 440,-70 434,-64 434,-58 434,-58 434,-46 434,-46 434,-40 440,-34 446,-34 446,-34 476,-34 476,-34 482,-34 488,-40 488,-46 488,-46 488,-58 488,-58 488,-64 482,-70 476,-70"/>
<text text-anchor="middle" x="461" y="-49.5" font-family="Times,serif" font-size="10.00">Li</text>
</g>
<!-- IL_2_binding_to_free_BetaGamma_heterodimer_1_intermediate_m -->
<g id="node32" class="node"><title>IL_2_binding_to_free_BetaGamma_heterodimer_1_intermediate_m</title>
<ellipse fill="black" stroke="black" cx="1175" cy="-100" rx="0.036" ry="0.036"/>
</g>
<!-- Li_0&#45;&gt;IL_2_binding_to_free_BetaGamma_heterodimer_1_intermediate_m -->
<g id="edge32" class="edge"><title>Li_0&#45;&gt;IL_2_binding_to_free_BetaGamma_heterodimer_1_intermediate_m</title>
<path fill="none" stroke="black" d="M488.25,-37.6531C518.916,-22.2614 571.629,-0 620,-0 620,-0 620,-0 1062,-0 1127.69,-0 1172.58,-96.8994 1173.97,-99.9275"/>
</g>
<!-- IL_2_binding_dissociating_intermediate_r -->
<g id="node43" class="node"><title>IL_2_binding_dissociating_intermediate_r</title>
<ellipse fill="black" stroke="black" cx="551" cy="-52" rx="0.036" ry="0.036"/>
</g>
<!-- Li_0&#45;&gt;IL_2_binding_dissociating_intermediate_r -->
<g id="edge45" class="edge"><title>Li_0&#45;&gt;IL_2_binding_dissociating_intermediate_r</title>
<path fill="none" stroke="black" d="M488.403,-52C513.514,-52 547.78,-52 549.897,-52"/>
</g>
<!-- Ligand_recycling_intermediate_r -->
<g id="node47" class="node"><title>Ligand_recycling_intermediate_r</title>
<ellipse fill="black" stroke="black" cx="551" cy="-98" rx="0.036" ry="0.036"/>
</g>
<!-- Li_0&#45;&gt;Ligand_recycling_intermediate_r -->
<g id="edge51" class="edge"><title>Li_0&#45;&gt;Ligand_recycling_intermediate_r</title>
<path fill="none" stroke="black" d="M488.403,-65.8015C513.514,-78.9277 547.78,-96.8394 549.897,-97.9461"/>
</g>
<!-- Li_0&#45;&gt;Ligand_Binding_Dissociation_Recycling_intermediate_m -->
<g id="edge59" class="edge"><title>Li_0&#45;&gt;Ligand_Binding_Dissociation_Recycling_intermediate_m</title>
<path fill="none" stroke="black" d="M479.386,-70.1762C504.23,-96.15 547.208,-141.081 549.87,-143.864"/>
</g>
<!-- Ld_0 -->
<g id="Ld_0" class="node"><title>Ld_0</title>
<path fill="none" stroke="black" d="M1012,-156C1012,-156 982,-156 982,-156 976,-156 970,-150 970,-144 970,-144 970,-132 970,-132 970,-126 976,-120 982,-120 982,-120 1012,-120 1012,-120 1018,-120 1024,-126 1024,-132 1024,-132 1024,-144 1024,-144 1024,-150 1018,-156 1012,-156"/>
<text text-anchor="middle" x="997" y="-135.5" font-family="Times,serif" font-size="10.00">Ld</text>
</g>
<!-- L_0 -->
<g id="L_0" class="node"><title>L_0</title>
<path fill="none" stroke="black" d="M348,-205C348,-205 318,-205 318,-205 312,-205 306,-199 306,-193 306,-193 306,-181 306,-181 306,-175 312,-169 318,-169 318,-169 348,-169 348,-169 354,-169 360,-175 360,-181 360,-181 360,-193 360,-193 360,-199 354,-205 348,-205"/>
<text text-anchor="middle" x="333" y="-184.5" font-family="Times,serif" font-size="10.00">L</text>
</g>
<!-- Receptor_binding_to_Ligand_intermediate_m -->
<g id="node12" class="node"><title>Receptor_binding_to_Ligand_intermediate_m</title>
<ellipse fill="black" stroke="black" cx="397" cy="-208" rx="0.036" ry="0.036"/>
</g>
<!-- L_0&#45;&gt;Receptor_binding_to_Ligand_intermediate_m -->
<g id="edge6" class="edge"><title>L_0&#45;&gt;Receptor_binding_to_Ligand_intermediate_m</title>
<path fill="none" stroke="black" d="M360.294,-195.906C376.664,-201.451 394.826,-207.602 395.946,-207.982"/>
</g>
<!-- Ligand_Binding_Dissociation_Recycling_intermediate_r -->
<g id="node50" class="node"><title>Ligand_Binding_Dissociation_Recycling_intermediate_r</title>
<ellipse fill="black" stroke="black" cx="397" cy="-187" rx="0.036" ry="0.036"/>
</g>
<!-- L_0&#45;&gt;Ligand_Binding_Dissociation_Recycling_intermediate_r -->
<g id="edge54" class="edge"><title>L_0&#45;&gt;Ligand_Binding_Dissociation_Recycling_intermediate_r</title>
<path fill="none" stroke="black" d="M360.294,-187C376.664,-187 394.826,-187 395.946,-187"/>
</g>
<!-- Y_0 -->
<g id="Y_0" class="node"><title>Y_0</title>
<ellipse fill="none" stroke="black" cx="461" cy="-144" rx="27" ry="18"/>
<text text-anchor="middle" x="461" y="-141.5" font-family="Times,serif" font-size="10.00">Y</text>
</g>
<!-- Y_0&#45;&gt;Ligand_Binding_Dissociation_Recycling_intermediate_m -->
<g id="edge60" class="edge"><title>Y_0&#45;&gt;Ligand_Binding_Dissociation_Recycling_intermediate_m</title>
<path fill="none" stroke="black" d="M488.403,-144C513.514,-144 547.78,-144 549.897,-144"/>
</g>
<!-- Receptor_binding_to_Ligand -->
<g id="node9" class="node"><title>Receptor_binding_to_Ligand</title>
<polygon fill="none" stroke="black" points="340,-237 326,-237 326,-223 340,-223 340,-237"/>
</g>
<!-- Receptor_binding_to_Ligand_intermediate_p -->
<g id="node11" class="node"><title>Receptor_binding_to_Ligand_intermediate_p</title>
<ellipse fill="black" stroke="black" cx="397" cy="-230" rx="0.036" ry="0.036"/>
</g>
<!-- Receptor_binding_to_Ligand&#45;&gt;Receptor_binding_to_Ligand_intermediate_p -->
<g id="edge3" class="edge"><title>Receptor_binding_to_Ligand&#45;&gt;Receptor_binding_to_Ligand_intermediate_p</title>
<path fill="none" stroke="black" d="M340.171,-230C355.364,-230 393.515,-230 395.884,-230"/>
</g>
<!-- Receptor_binding_to_Ligand&#45;&gt;Receptor_binding_to_Ligand_intermediate_m -->
<g id="edge5" class="edge"><title>Receptor_binding_to_Ligand&#45;&gt;Receptor_binding_to_Ligand_intermediate_m</title>
<path fill="none" stroke="black" d="M340.171,-227.81C355.364,-222.419 393.515,-208.882 395.884,-208.041"/>
</g>
<!-- Receptor_binding_to_Ligand_intermediate_r&#45;&gt;Receptor_binding_to_Ligand -->
<g id="edge1" class="edge"><title>Receptor_binding_to_Ligand_intermediate_r&#45;&gt;Receptor_binding_to_Ligand</title>
<path fill="none" stroke="black" d="M270.045,-238.993C271.541,-238.776 309.995,-233.194 325.555,-230.936"/>
</g>
<!-- Receptor_binding_to_Ligand_intermediate_p&#45;&gt;Cs_0 -->
<g id="edge4" class="edge"><title>Receptor_binding_to_Ligand_intermediate_p&#45;&gt;Cs_0</title>
<path fill="none" stroke="black" d="M398.045,-230C398.863,-230 410.734,-230 423.87,-230"/>
<polygon fill="black" stroke="black" points="423.998,-233.5 433.998,-230 423.998,-226.5 423.998,-233.5"/>
</g>
<!-- Receptor_Ligand_complex_dissocation -->
<g id="node13" class="node"><title>Receptor_Ligand_complex_dissocation</title>
<polygon fill="none" stroke="black" points="628,-248 614,-248 614,-234 628,-234 628,-248"/>
</g>
<!-- Receptor_Ligand_complex_dissocation_intermediate_p -->
<g id="node15" class="node"><title>Receptor_Ligand_complex_dissocation_intermediate_p</title>
<ellipse fill="black" stroke="black" cx="691" cy="-258" rx="0.036" ry="0.036"/>
</g>
<!-- Receptor_Ligand_complex_dissocation&#45;&gt;Receptor_Ligand_complex_dissocation_intermediate_p -->
<g id="edge9" class="edge"><title>Receptor_Ligand_complex_dissocation&#45;&gt;Receptor_Ligand_complex_dissocation_intermediate_p</title>
<path fill="none" stroke="black" d="M628.275,-242.569C644.583,-246.646 687.222,-257.305 689.871,-257.968"/>
</g>
<!-- Receptor_Ligand_complex_dissocation_intermediate_r&#45;&gt;Receptor_Ligand_complex_dissocation -->
<g id="edge7" class="edge"><title>Receptor_Ligand_complex_dissocation_intermediate_r&#45;&gt;Receptor_Ligand_complex_dissocation</title>
<path fill="none" stroke="black" d="M552.049,-241C553.722,-241 597.535,-241 613.906,-241"/>
</g>
<!-- Receptor_Ligand_complex_dissocation_intermediate_p&#45;&gt;Rs_0 -->
<g id="edge10" class="edge"><title>Receptor_Ligand_complex_dissocation_intermediate_p&#45;&gt;Rs_0</title>
<path fill="none" stroke="black" d="M689.945,-258.013C687.624,-258.558 612.886,-276 552,-276 332,-276 332,-276 332,-276 301.758,-276 267.433,-276 242.254,-276"/>
<polygon fill="black" stroke="black" points="242.062,-272.5 232.062,-276 242.062,-279.5 242.062,-272.5"/>
</g>
<!-- Upregulation_of_Receptor_Synthesis -->
<g id="node16" class="node"><title>Upregulation_of_Receptor_Synthesis</title>
<polygon fill="none" stroke="black" points="104,-348 90,-348 90,-334 104,-334 104,-348"/>
</g>
<!-- Upregulation_of_Receptor_Synthesis_intermediate_p -->
<g id="node18" class="node"><title>Upregulation_of_Receptor_Synthesis_intermediate_p</title>
<ellipse fill="black" stroke="black" cx="141" cy="-309" rx="0.036" ry="0.036"/>
</g>
<!-- Upregulation_of_Receptor_Synthesis&#45;&gt;Upregulation_of_Receptor_Synthesis_intermediate_p -->
<g id="edge12" class="edge"><title>Upregulation_of_Receptor_Synthesis&#45;&gt;Upregulation_of_Receptor_Synthesis_intermediate_p</title>
<path fill="none" stroke="black" d="M104.197,-336.278C115.515,-327.655 138.505,-310.139 139.93,-309.053"/>
</g>
<!-- Upregulation_of_Receptor_Synthesis&#45;&gt;Upregulation_of_Receptor_Synthesis_intermediate_m -->
<g id="edge14" class="edge"><title>Upregulation_of_Receptor_Synthesis&#45;&gt;Upregulation_of_Receptor_Synthesis_intermediate_m</title>
<path fill="none" stroke="black" d="M104.189,-342.095C120.475,-344.877 165.887,-352 204,-352 204,-352 204,-352 398,-352 464.536,-352 547.366,-347.155 549.939,-347.004"/>
</g>
<!-- Upregulation_of_Receptor_Synthesis_empty -->
<g id="node17" class="node"><title>Upregulation_of_Receptor_Synthesis_empty</title>
<text text-anchor="middle" x="27" y="-337.5" font-family="Times,serif" font-size="15.00" fill="blue">Ø</text>
</g>
<!-- Upregulation_of_Receptor_Synthesis_empty&#45;&gt;Upregulation_of_Receptor_Synthesis -->
<g id="edge11" class="edge"><title>Upregulation_of_Receptor_Synthesis_empty&#45;&gt;Upregulation_of_Receptor_Synthesis</title>
<path fill="none" stroke="black" d="M54.0961,-341C67.13,-341 81.8045,-341 89.8681,-341"/>
</g>
<!-- Upregulation_of_Receptor_Synthesis_intermediate_p&#45;&gt;Rs_0 -->
<g id="edge13" class="edge"><title>Upregulation_of_Receptor_Synthesis_intermediate_p&#45;&gt;Rs_0</title>
<path fill="none" stroke="black" d="M142.045,-308.976C142.887,-308.528 155.442,-301.845 169.032,-294.612"/>
<polygon fill="black" stroke="black" points="170.815,-297.628 177.998,-289.84 167.526,-291.449 170.815,-297.628"/>
</g>
<!-- Receptor_Internalisation -->
<g id="node20" class="node"><title>Receptor_Internalisation</title>
<polygon fill="none" stroke="black" points="340,-320 326,-320 326,-306 340,-306 340,-320"/>
</g>
<!-- Receptor_Internalisation_intermediate_p -->
<g id="node22" class="node"><title>Receptor_Internalisation_intermediate_p</title>
<ellipse fill="black" stroke="black" cx="781" cy="-314" rx="0.036" ry="0.036"/>
</g>
<!-- Receptor_Internalisation&#45;&gt;Receptor_Internalisation_intermediate_p -->
<g id="edge18" class="edge"><title>Receptor_Internalisation&#45;&gt;Receptor_Internalisation_intermediate_p</title>
<path fill="none" stroke="black" d="M340.032,-313.082C358.176,-313.321 413.842,-314 460,-314 460,-314 460,-314 622,-314 691.125,-314 777.261,-314 779.936,-314"/>
</g>
<!-- Receptor_Internalisation_intermediate_r&#45;&gt;Receptor_Internalisation -->
<g id="edge16" class="edge"><title>Receptor_Internalisation_intermediate_r&#45;&gt;Receptor_Internalisation</title>
<path fill="none" stroke="black" d="M270.045,-308.004C271.541,-308.124 309.995,-311.225 325.555,-312.48"/>
</g>
<!-- Receptor_Internalisation_intermediate_p&#45;&gt;Ri_0 -->
<g id="edge19" class="edge"><title>Receptor_Internalisation_intermediate_p&#45;&gt;Ri_0</title>
<path fill="none" stroke="black" d="M782.103,-313.962C784.222,-313.188 818.558,-300.632 846,-290 885.293,-274.776 930.129,-256.756 960.469,-244.465"/>
<polygon fill="black" stroke="black" points="961.833,-247.689 969.785,-240.687 959.202,-241.202 961.833,-247.689"/>
</g>
<!-- Receptor_Synthesis -->
<g id="node23" class="node"><title>Receptor_Synthesis</title>
<polygon fill="none" stroke="black" points="104,-283 90,-283 90,-269 104,-269 104,-283"/>
</g>
<!-- Receptor_Synthesis_intermediate_p -->
<g id="node25" class="node"><title>Receptor_Synthesis_intermediate_p</title>
<ellipse fill="black" stroke="black" cx="141" cy="-276" rx="0.036" ry="0.036"/>
</g>
<!-- Receptor_Synthesis&#45;&gt;Receptor_Synthesis_intermediate_p -->
<g id="edge21" class="edge"><title>Receptor_Synthesis&#45;&gt;Receptor_Synthesis_intermediate_p</title>
<path fill="none" stroke="black" d="M104.197,-276C115.515,-276 138.505,-276 139.93,-276"/>
</g>
<!-- Receptor_Synthesis_empty -->
<g id="node24" class="node"><title>Receptor_Synthesis_empty</title>
<text text-anchor="middle" x="27" y="-272.5" font-family="Times,serif" font-size="15.00" fill="blue">Ø</text>
</g>
<!-- Receptor_Synthesis_empty&#45;&gt;Receptor_Synthesis -->
<g id="edge20" class="edge"><title>Receptor_Synthesis_empty&#45;&gt;Receptor_Synthesis</title>
<path fill="none" stroke="black" d="M54.0961,-276C67.13,-276 81.8045,-276 89.8681,-276"/>
</g>
<!-- Receptor_Synthesis_intermediate_p&#45;&gt;Rs_0 -->
<g id="edge22" class="edge"><title>Receptor_Synthesis_intermediate_p&#45;&gt;Rs_0</title>
<path fill="none" stroke="black" d="M142.045,-276C142.863,-276 154.734,-276 167.87,-276"/>
<polygon fill="black" stroke="black" points="167.998,-279.5 177.998,-276 167.998,-272.5 167.998,-279.5"/>
</g>
<!-- Endocytosis_of_Receptor_Ligand_complex -->
<g id="node26" class="node"><title>Endocytosis_of_Receptor_Ligand_complex</title>
<polygon fill="none" stroke="black" points="628,-216 614,-216 614,-202 628,-202 628,-216"/>
</g>
<!-- Endocytosis_of_Receptor_Ligand_complex_intermediate_p -->
<g id="node28" class="node"><title>Endocytosis_of_Receptor_Ligand_complex_intermediate_p</title>
<ellipse fill="black" stroke="black" cx="691" cy="-209" rx="0.036" ry="0.036"/>
</g>
<!-- Endocytosis_of_Receptor_Ligand_complex&#45;&gt;Endocytosis_of_Receptor_Ligand_complex_intermediate_p -->
<g id="edge25" class="edge"><title>Endocytosis_of_Receptor_Ligand_complex&#45;&gt;Endocytosis_of_Receptor_Ligand_complex_intermediate_p</title>
<path fill="none" stroke="black" d="M628.275,-209C644.583,-209 687.222,-209 689.871,-209"/>
</g>
<!-- Endocytosis_of_Receptor_Ligand_complex_intermediate_r&#45;&gt;Endocytosis_of_Receptor_Ligand_complex -->
<g id="edge23" class="edge"><title>Endocytosis_of_Receptor_Ligand_complex_intermediate_r&#45;&gt;Endocytosis_of_Receptor_Ligand_complex</title>
<path fill="none" stroke="black" d="M552.049,-222.99C553.722,-222.645 597.535,-213.625 613.906,-210.255"/>
</g>
<!-- Endocytosis_of_Receptor_Ligand_complex_intermediate_p&#45;&gt;Ci_0 -->
<g id="edge26" class="edge"><title>Endocytosis_of_Receptor_Ligand_complex_intermediate_p&#45;&gt;Ci_0</title>
<path fill="none" stroke="black" d="M692.064,-209C693.533,-209 720.103,-209 743.654,-209"/>
<polygon fill="black" stroke="black" points="743.821,-212.5 753.82,-209 743.82,-205.5 743.821,-212.5"/>
</g>
<!-- IL_2_binding_to_free_BetaGamma_heterodimer_1 -->
<g id="node29" class="node"><title>IL_2_binding_to_free_BetaGamma_heterodimer_1</title>
<polygon fill="none" stroke="black" points="1112,-212 1098,-212 1098,-198 1112,-198 1112,-212"/>
</g>
<!-- IL_2_binding_to_free_BetaGamma_heterodimer_1_intermediate_p -->
<g id="node31" class="node"><title>IL_2_binding_to_free_BetaGamma_heterodimer_1_intermediate_p</title>
<ellipse fill="black" stroke="black" cx="1175" cy="-274" rx="0.036" ry="0.036"/>
</g>
<!-- IL_2_binding_to_free_BetaGamma_heterodimer_1&#45;&gt;IL_2_binding_to_free_BetaGamma_heterodimer_1_intermediate_p -->
<g id="edge29" class="edge"><title>IL_2_binding_to_free_BetaGamma_heterodimer_1&#45;&gt;IL_2_binding_to_free_BetaGamma_heterodimer_1_intermediate_p</title>
<path fill="none" stroke="black" d="M1109.36,-212.211C1115.43,-224.485 1129.32,-249.514 1148,-264 1157.48,-271.35 1172.99,-273.844 1173.95,-273.993"/>
</g>
<!-- IL_2_binding_to_free_BetaGamma_heterodimer_1&#45;&gt;IL_2_binding_to_free_BetaGamma_heterodimer_1_intermediate_m -->
<g id="edge31" class="edge"><title>IL_2_binding_to_free_BetaGamma_heterodimer_1&#45;&gt;IL_2_binding_to_free_BetaGamma_heterodimer_1_intermediate_m</title>
<path fill="none" stroke="black" d="M1110.67,-197.783C1125.8,-174.431 1172.51,-102.302 1173.97,-100.054"/>
</g>
<!-- IL_2_binding_to_free_BetaGamma_heterodimer_1_intermediate_r&#45;&gt;IL_2_binding_to_free_BetaGamma_heterodimer_1 -->
<g id="edge27" class="edge"><title>IL_2_binding_to_free_BetaGamma_heterodimer_1_intermediate_r&#45;&gt;IL_2_binding_to_free_BetaGamma_heterodimer_1</title>
<path fill="none" stroke="black" d="M1062.12,-214.971C1063.97,-214.531 1086.6,-209.142 1097.8,-206.476"/>
</g>
<!-- IL_2_binding_to_free_BetaGamma_heterodimer_1_intermediate_p&#45;&gt;Ci_0 -->
<g id="edge30" class="edge"><title>IL_2_binding_to_free_BetaGamma_heterodimer_1_intermediate_p&#45;&gt;Ci_0</title>
<path fill="none" stroke="black" d="M1173.95,-274.001C1172.06,-274.062 1111.01,-276 1062,-276 888,-276 888,-276 888,-276 855.711,-276 825.257,-253.512 805.349,-234.593"/>
<polygon fill="black" stroke="black" points="807.566,-231.862 797.999,-227.308 802.638,-236.833 807.566,-231.862"/>
</g>
<!-- Dissocation_of_IL_2_Heterodimer_complex -->
<g id="node33" class="node"><title>Dissocation_of_IL_2_Heterodimer_complex</title>
<polygon fill="none" stroke="black" points="896,-231 882,-231 882,-217 896,-217 896,-231"/>
</g>
<!-- Dissocation_of_IL_2_Heterodimer_complex_intermediate_p -->
<g id="node35" class="node"><title>Dissocation_of_IL_2_Heterodimer_complex_intermediate_p</title>
<ellipse fill="black" stroke="black" cx="933" cy="-226" rx="0.036" ry="0.036"/>
</g>
<!-- Dissocation_of_IL_2_Heterodimer_complex&#45;&gt;Dissocation_of_IL_2_Heterodimer_complex_intermediate_p -->
<g id="edge35" class="edge"><title>Dissocation_of_IL_2_Heterodimer_complex&#45;&gt;Dissocation_of_IL_2_Heterodimer_complex_intermediate_p</title>
<path fill="none" stroke="black" d="M896.197,-224.295C907.515,-224.834 930.505,-225.929 931.93,-225.997"/>
</g>
<!-- Dissocation_of_IL_2_Heterodimer_complex_intermediate_r&#45;&gt;Dissocation_of_IL_2_Heterodimer_complex -->
<g id="edge33" class="edge"><title>Dissocation_of_IL_2_Heterodimer_complex_intermediate_r&#45;&gt;Dissocation_of_IL_2_Heterodimer_complex</title>
<path fill="none" stroke="black" d="M846.12,-215.026C847.968,-215.422 870.602,-220.272 881.803,-222.672"/>
</g>
<!-- Dissocation_of_IL_2_Heterodimer_complex_intermediate_p&#45;&gt;Ri_0 -->
<g id="edge36" class="edge"><title>Dissocation_of_IL_2_Heterodimer_complex_intermediate_p&#45;&gt;Ri_0</title>
<path fill="none" stroke="black" d="M934.045,-226.003C934.863,-226.056 946.734,-226.822 959.87,-227.669"/>
<polygon fill="black" stroke="black" points="959.794,-231.171 969.998,-228.322 960.244,-224.186 959.794,-231.171"/>
</g>
<!-- Degradation_of_heterodimer -->
<g id="node36" class="node"><title>Degradation_of_heterodimer</title>
<polygon fill="none" stroke="black" points="1112,-244 1098,-244 1098,-230 1112,-230 1112,-244"/>
</g>
<!-- Degradation_of_heterodimer_empty -->
<g id="node38" class="node"><title>Degradation_of_heterodimer_empty</title>
<text text-anchor="middle" x="1175" y="-233.5" font-family="Times,serif" font-size="15.00" fill="blue">Ø</text>
</g>
<!-- Degradation_of_heterodimer&#45;&gt;Degradation_of_heterodimer_empty -->
<g id="edge39" class="edge"><title>Degradation_of_heterodimer&#45;&gt;Degradation_of_heterodimer_empty</title>
<path fill="none" stroke="black" d="M1112.28,-237C1118.28,-237 1127.85,-237 1137.68,-237"/>
<polygon fill="black" stroke="black" points="1137.88,-240.5 1147.88,-237 1137.88,-233.5 1137.88,-240.5"/>
</g>
<!-- Degradation_of_heterodimer_intermediate_r&#45;&gt;Degradation_of_heterodimer -->
<g id="edge37" class="edge"><title>Degradation_of_heterodimer_intermediate_r&#45;&gt;Degradation_of_heterodimer</title>
<path fill="none" stroke="black" d="M1062.12,-235.006C1063.97,-235.094 1086.6,-236.172 1097.8,-236.705"/>
</g>
<!-- Degradation_of_IL_2_heterodimer_complex -->
<g id="node39" class="node"><title>Degradation_of_IL_2_heterodimer_complex</title>
<polygon fill="none" stroke="black" points="896,-151 882,-151 882,-137 896,-137 896,-151"/>
</g>
<!-- Degradation_of_IL_2_heterodimer_complex_intermediate_p -->
<g id="node41" class="node"><title>Degradation_of_IL_2_heterodimer_complex_intermediate_p</title>
<ellipse fill="black" stroke="black" cx="933" cy="-140" rx="0.036" ry="0.036"/>
</g>
<!-- Degradation_of_IL_2_heterodimer_complex&#45;&gt;Degradation_of_IL_2_heterodimer_complex_intermediate_p -->
<g id="edge42" class="edge"><title>Degradation_of_IL_2_heterodimer_complex&#45;&gt;Degradation_of_IL_2_heterodimer_complex_intermediate_p</title>
<path fill="none" stroke="black" d="M896.197,-143.41C907.515,-142.332 930.505,-140.142 931.93,-140.007"/>
</g>
<!-- Degradation_of_IL_2_heterodimer_complex_intermediate_r&#45;&gt;Degradation_of_IL_2_heterodimer_complex -->
<g id="edge40" class="edge"><title>Degradation_of_IL_2_heterodimer_complex_intermediate_r&#45;&gt;Degradation_of_IL_2_heterodimer_complex</title>
<path fill="none" stroke="black" d="M846.12,-146.991C847.968,-146.859 870.602,-145.243 881.803,-144.443"/>
</g>
<!-- Degradation_of_IL_2_heterodimer_complex_intermediate_p&#45;&gt;Ld_0 -->
<g id="edge43" class="edge"><title>Degradation_of_IL_2_heterodimer_complex_intermediate_p&#45;&gt;Ld_0</title>
<path fill="none" stroke="black" d="M934.045,-139.999C934.863,-139.972 946.734,-139.589 959.87,-139.165"/>
<polygon fill="black" stroke="black" points="960.116,-142.659 969.998,-138.839 959.891,-135.663 960.116,-142.659"/>
</g>
<!-- IL_2_binding_dissociating -->
<g id="node42" class="node"><title>IL_2_binding_dissociating</title>
<polygon fill="none" stroke="black" points="628,-59 614,-59 614,-45 628,-45 628,-59"/>
</g>
<!-- IL_2_binding_dissociating_empty -->
<g id="node44" class="node"><title>IL_2_binding_dissociating_empty</title>
<text text-anchor="middle" x="691" y="-42.5" font-family="Times,serif" font-size="15.00" fill="blue">Ø</text>
</g>
<!-- IL_2_binding_dissociating&#45;&gt;IL_2_binding_dissociating_empty -->
<g id="edge46" class="edge"><title>IL_2_binding_dissociating&#45;&gt;IL_2_binding_dissociating_empty</title>
<path fill="none" stroke="black" d="M628.275,-51.4463C634.278,-50.9166 643.849,-50.0721 653.68,-49.2047"/>
<polygon fill="black" stroke="black" points="654.226,-52.6702 663.88,-48.3047 653.611,-45.6973 654.226,-52.6702"/>
</g>
<!-- IL_2_binding_dissociating&#45;&gt;IL_2_binding_dissociating_intermediate_m -->
<g id="edge47" class="edge"><title>IL_2_binding_dissociating&#45;&gt;IL_2_binding_dissociating_intermediate_m</title>
<path fill="none" stroke="black" d="M628.013,-55.7391C635.951,-60.5004 650.504,-68.6322 664,-73 713.704,-89.0862 727.757,-92 780,-92 780,-92 780,-92 934,-92 974.882,-92 991.713,-85.9235 1024,-111 1051.68,-132.496 1059.52,-180.852 1059.98,-183.854"/>
</g>
<!-- IL_2_binding_dissociating_intermediate_r&#45;&gt;IL_2_binding_dissociating -->
<g id="edge44" class="edge"><title>IL_2_binding_dissociating_intermediate_r&#45;&gt;IL_2_binding_dissociating</title>
<path fill="none" stroke="black" d="M552.049,-52C553.722,-52 597.535,-52 613.906,-52"/>
</g>
<!-- Ligand_recycling -->
<g id="node46" class="node"><title>Ligand_recycling</title>
<polygon fill="none" stroke="black" points="628,-125 614,-125 614,-111 628,-111 628,-125"/>
</g>
<!-- Ligand_recycling_empty -->
<g id="node48" class="node"><title>Ligand_recycling_empty</title>
<text text-anchor="middle" x="691" y="-134.5" font-family="Times,serif" font-size="15.00" fill="blue">Ø</text>
</g>
<!-- Ligand_recycling&#45;&gt;Ligand_recycling_empty -->
<g id="edge52" class="edge"><title>Ligand_recycling&#45;&gt;Ligand_recycling_empty</title>
<path fill="none" stroke="black" d="M628.275,-119.846C634.342,-121.63 644.051,-124.486 653.99,-127.409"/>
<polygon fill="black" stroke="black" points="653.298,-130.854 663.88,-130.318 655.274,-124.138 653.298,-130.854"/>
</g>
<!-- Ligand_recycling_intermediate_r&#45;&gt;Ligand_recycling -->
<g id="edge50" class="edge"><title>Ligand_recycling_intermediate_r&#45;&gt;Ligand_recycling</title>
<path fill="none" stroke="black" d="M552.049,-98.0145C553.722,-98.5066 597.535,-111.393 613.906,-116.208"/>
</g>
<!-- Ligand_Binding_Dissociation_Recycling -->
<g id="node49" class="node"><title>Ligand_Binding_Dissociation_Recycling</title>
<polygon fill="none" stroke="black" points="468,-194 454,-194 454,-180 468,-180 468,-194"/>
</g>
<!-- Ligand_Binding_Dissociation_Recycling_empty -->
<g id="node51" class="node"><title>Ligand_Binding_Dissociation_Recycling_empty</title>
<text text-anchor="middle" x="551" y="-183.5" font-family="Times,serif" font-size="15.00" fill="blue">Ø</text>
</g>
<!-- Ligand_Binding_Dissociation_Recycling&#45;&gt;Ligand_Binding_Dissociation_Recycling_empty -->
<g id="edge55" class="edge"><title>Ligand_Binding_Dissociation_Recycling&#45;&gt;Ligand_Binding_Dissociation_Recycling_empty</title>
<path fill="none" stroke="black" d="M468.049,-187C477.439,-187 496.239,-187 513.466,-187"/>
<polygon fill="black" stroke="black" points="513.891,-190.5 523.891,-187 513.891,-183.5 513.891,-190.5"/>
</g>
<!-- Ligand_Binding_Dissociation_Recycling&#45;&gt;Ligand_Binding_Dissociation_Recycling_intermediate_m -->
<g id="edge56" class="edge"><title>Ligand_Binding_Dissociation_Recycling&#45;&gt;Ligand_Binding_Dissociation_Recycling_intermediate_m</title>
<path fill="none" stroke="black" d="M468.049,-184.044C487.62,-174.481 548.071,-144.943 549.955,-144.022"/>
</g>
<!-- Ligand_Binding_Dissociation_Recycling_intermediate_r&#45;&gt;Ligand_Binding_Dissociation_Recycling -->
<g id="edge53" class="edge"><title>Ligand_Binding_Dissociation_Recycling_intermediate_r&#45;&gt;Ligand_Binding_Dissociation_Recycling</title>
<path fill="none" stroke="black" d="M398.045,-187C399.541,-187 437.995,-187 453.555,-187"/>
</g>
</g>
</svg>
