<?xml version="1.0" encoding="UTF-8" standalone="no"?>
<!DOCTYPE svg PUBLIC "-//W3C//DTD SVG 1.1//EN"
 "http://www.w3.org/Graphics/SVG/1.1/DTD/svg11.dtd">
<!-- Generated by graphviz version 2.30.1 (20140821.0912)
 -->
<!-- Title: G Pages: 1 -->
<svg width="1154pt" height="264pt"
 viewBox="0.00 0.00 1154.00 264.00" xmlns="http://www.w3.org/2000/svg" xmlns:xlink="http://www.w3.org/1999/xlink">
<g id="graph0" class="graph" transform="scale(1 1) rotate(0) translate(4 260)">
<title>G</title>
<polygon fill="white" stroke="white" points="-4,5 -4,-260 1151,-260 1151,5 -4,5"/>
<!-- CArt -->
<g id="CArt" class="node"><title>CArt</title>
<ellipse fill="none" stroke="black" cx="39" cy="-121" rx="27" ry="18"/>
<text text-anchor="middle" x="39" y="-118.5" font-family="Times,serif" font-size="10.00">CArt</text>
</g>
<!-- J1_intermediate_r -->
<g id="node12" class="node"><title>J1_intermediate_r</title>
<ellipse fill="black" stroke="black" cx="115" cy="-150" rx="0.036" ry="0.036"/>
</g>
<!-- CArt&#45;&gt;J1_intermediate_r -->
<g id="edge2" class="edge"><title>CArt&#45;&gt;J1_intermediate_r</title>
<path fill="none" stroke="black" d="M62.6045,-129.859C83.6865,-138.12 112.156,-149.277 113.914,-149.966"/>
</g>
<!-- J5_intermediate_r -->
<g id="node24" class="node"><title>J5_intermediate_r</title>
<ellipse fill="black" stroke="black" cx="115" cy="-89" rx="0.036" ry="0.036"/>
</g>
<!-- CArt&#45;&gt;J5_intermediate_r -->
<g id="edge18" class="edge"><title>CArt&#45;&gt;J5_intermediate_r</title>
<path fill="none" stroke="black" d="M62.2024,-111.399C83.3184,-102.268 112.133,-89.8074 113.913,-89.0375"/>
</g>
<!-- J7_intermediate_r -->
<g id="node30" class="node"><title>J7_intermediate_r</title>
<ellipse fill="black" stroke="black" cx="159" cy="-121" rx="0.036" ry="0.036"/>
</g>
<!-- CArt&#45;&gt;J7_intermediate_r -->
<g id="edge26" class="edge"><title>CArt&#45;&gt;J7_intermediate_r</title>
<path fill="none" stroke="black" d="M66.188,-121C99.8654,-121 154.456,-121 157.835,-121"/>
</g>
<!-- J11_intermediate_r -->
<g id="node42" class="node"><title>J11_intermediate_r</title>
<ellipse fill="black" stroke="black" cx="115" cy="-49" rx="0.036" ry="0.036"/>
</g>
<!-- CArt&#45;&gt;J11_intermediate_r -->
<g id="edge42" class="edge"><title>CArt&#45;&gt;J11_intermediate_r</title>
<path fill="none" stroke="black" d="M54.975,-106.43C75.9223,-86.0486 111.678,-51.2595 113.892,-49.105"/>
</g>
<!-- CGut -->
<g id="CGut" class="node"><title>CGut</title>
<ellipse fill="none" stroke="black" cx="284" cy="-157" rx="27" ry="18"/>
<text text-anchor="middle" x="284" y="-154.5" font-family="Times,serif" font-size="10.00">CGut</text>
</g>
<!-- J9_intermediate_r -->
<g id="node36" class="node"><title>J9_intermediate_r</title>
<ellipse fill="black" stroke="black" cx="353" cy="-157" rx="0.036" ry="0.036"/>
</g>
<!-- CGut&#45;&gt;J9_intermediate_r -->
<g id="edge34" class="edge"><title>CGut&#45;&gt;J9_intermediate_r</title>
<path fill="none" stroke="black" d="M311.096,-157C329.32,-157 350.622,-157 351.936,-157"/>
</g>
<!-- AGutlumen -->
<g id="AGutlumen" class="node"><title>AGutlumen</title>
<ellipse fill="none" stroke="black" cx="39" cy="-238" rx="38.0276" ry="18"/>
<text text-anchor="middle" x="39" y="-235.5" font-family="Times,serif" font-size="10.00">AGutlumen</text>
</g>
<!-- J2_intermediate_r -->
<g id="node15" class="node"><title>J2_intermediate_r</title>
<ellipse fill="black" stroke="black" cx="115" cy="-238" rx="0.036" ry="0.036"/>
</g>
<!-- AGutlumen&#45;&gt;J2_intermediate_r -->
<g id="edge6" class="edge"><title>AGutlumen&#45;&gt;J2_intermediate_r</title>
<path fill="none" stroke="black" d="M77.4336,-238C95.2144,-238 112.862,-238 113.947,-238"/>
</g>
<!-- CLung -->
<g id="CLung" class="node"><title>CLung</title>
<ellipse fill="none" stroke="black" cx="995" cy="-153" rx="27" ry="18"/>
<text text-anchor="middle" x="995" y="-150.5" font-family="Times,serif" font-size="10.00">CLung</text>
</g>
<!-- J3_intermediate_r -->
<g id="node18" class="node"><title>J3_intermediate_r</title>
<ellipse fill="black" stroke="black" cx="1059" cy="-157" rx="0.036" ry="0.036"/>
</g>
<!-- CLung&#45;&gt;J3_intermediate_r -->
<g id="edge10" class="edge"><title>CLung&#45;&gt;J3_intermediate_r</title>
<path fill="none" stroke="black" d="M1021.93,-154.673C1038.39,-155.735 1056.81,-156.923 1057.94,-156.996"/>
</g>
<!-- CVen -->
<g id="CVen" class="node"><title>CVen</title>
<ellipse fill="none" stroke="black" cx="762" cy="-95" rx="27" ry="18"/>
<text text-anchor="middle" x="762" y="-92.5" font-family="Times,serif" font-size="10.00">CVen</text>
</g>
<!-- J4_intermediate_r -->
<g id="node21" class="node"><title>J4_intermediate_r</title>
<ellipse fill="black" stroke="black" cx="843" cy="-99" rx="0.036" ry="0.036"/>
</g>
<!-- CVen&#45;&gt;J4_intermediate_r -->
<g id="edge14" class="edge"><title>CVen&#45;&gt;J4_intermediate_r</title>
<path fill="none" stroke="black" d="M789.306,-96.3319C811.569,-97.4592 840.15,-98.9063 841.914,-98.9956"/>
</g>
<!-- CRest -->
<g id="CRest" class="node"><title>CRest</title>
<ellipse fill="none" stroke="black" cx="284" cy="-85" rx="27" ry="18"/>
<text text-anchor="middle" x="284" y="-82.5" font-family="Times,serif" font-size="10.00">CRest</text>
</g>
<!-- J6_intermediate_r -->
<g id="node27" class="node"><title>J6_intermediate_r</title>
<ellipse fill="black" stroke="black" cx="397" cy="-85" rx="0.036" ry="0.036"/>
</g>
<!-- CRest&#45;&gt;J6_intermediate_r -->
<g id="edge22" class="edge"><title>CRest&#45;&gt;J6_intermediate_r</title>
<path fill="none" stroke="black" d="M311.025,-85C342.808,-85 392.758,-85 395.849,-85"/>
</g>
<!-- CLiver -->
<g id="CLiver" class="node"><title>CLiver</title>
<ellipse fill="none" stroke="black" cx="523" cy="-143" rx="27" ry="18"/>
<text text-anchor="middle" x="523" y="-140.5" font-family="Times,serif" font-size="10.00">CLiver</text>
</g>
<!-- J8_intermediate_r -->
<g id="node33" class="node"><title>J8_intermediate_r</title>
<ellipse fill="black" stroke="black" cx="593" cy="-152" rx="0.036" ry="0.036"/>
</g>
<!-- CLiver&#45;&gt;J8_intermediate_r -->
<g id="edge30" class="edge"><title>CLiver&#45;&gt;J8_intermediate_r</title>
<path fill="none" stroke="black" d="M549.708,-146.403C568.363,-148.872 590.564,-151.81 591.933,-151.991"/>
</g>
<!-- J10_intermediate_r -->
<g id="node39" class="node"><title>J10_intermediate_r</title>
<ellipse fill="black" stroke="black" cx="593" cy="-127" rx="0.036" ry="0.036"/>
</g>
<!-- CLiver&#45;&gt;J10_intermediate_r -->
<g id="edge38" class="edge"><title>CLiver&#45;&gt;J10_intermediate_r</title>
<path fill="none" stroke="black" d="M548.935,-137.133C567.735,-132.709 590.526,-127.347 591.932,-127.016"/>
</g>
<!-- CMetabolized -->
<g id="CMetabolized" class="node"><title>CMetabolized</title>
<ellipse fill="none" stroke="black" cx="762" cy="-155" rx="44.3" ry="18"/>
<text text-anchor="middle" x="762" y="-152.5" font-family="Times,serif" font-size="10.00">CMetabolized</text>
</g>
<!-- CKidney -->
<g id="CKidney" class="node"><title>CKidney</title>
<ellipse fill="none" stroke="black" cx="284" cy="-31" rx="31.577" ry="18"/>
<text text-anchor="middle" x="284" y="-28.5" font-family="Times,serif" font-size="10.00">CKidney</text>
</g>
<!-- J12_intermediate_r -->
<g id="node45" class="node"><title>J12_intermediate_r</title>
<ellipse fill="black" stroke="black" cx="353" cy="-41" rx="0.036" ry="0.036"/>
</g>
<!-- CKidney&#45;&gt;J12_intermediate_r -->
<g id="edge46" class="edge"><title>CKidney&#45;&gt;J12_intermediate_r</title>
<path fill="none" stroke="black" d="M314.973,-35.4735C332.254,-38.0529 350.802,-40.8212 351.944,-40.9917"/>
</g>
<!-- J13_intermediate_r -->
<g id="node48" class="node"><title>J13_intermediate_r</title>
<ellipse fill="black" stroke="black" cx="353" cy="-22" rx="0.036" ry="0.036"/>
</g>
<!-- CKidney&#45;&gt;J13_intermediate_r -->
<g id="edge50" class="edge"><title>CKidney&#45;&gt;J13_intermediate_r</title>
<path fill="none" stroke="black" d="M315.363,-26.9213C332.537,-24.6145 350.819,-22.1586 351.945,-22.0074"/>
</g>
<!-- CTubules -->
<g id="CTubules" class="node"><title>CTubules</title>
<ellipse fill="none" stroke="black" cx="523" cy="-52" rx="32.9303" ry="18"/>
<text text-anchor="middle" x="523" y="-49.5" font-family="Times,serif" font-size="10.00">CTubules</text>
</g>
<!-- J1 -->
<g id="node11" class="node"><title>J1</title>
<polygon fill="none" stroke="black" points="166,-159 152,-159 152,-145 166,-145 166,-159"/>
</g>
<!-- J1_intermediate_p -->
<g id="node13" class="node"><title>J1_intermediate_p</title>
<ellipse fill="black" stroke="black" cx="209" cy="-153" rx="0.036" ry="0.036"/>
</g>
<!-- J1&#45;&gt;J1_intermediate_p -->
<g id="edge3" class="edge"><title>J1&#45;&gt;J1_intermediate_p</title>
<path fill="none" stroke="black" d="M166.275,-152.131C178.88,-152.393 206.221,-152.963 207.917,-152.998"/>
</g>
<!-- J1_intermediate_r&#45;&gt;J1 -->
<g id="edge1" class="edge"><title>J1_intermediate_r&#45;&gt;J1</title>
<path fill="none" stroke="black" d="M116.12,-150.006C117.968,-150.094 140.602,-151.172 151.803,-151.705"/>
</g>
<!-- J1_intermediate_p&#45;&gt;CGut -->
<g id="edge4" class="edge"><title>J1_intermediate_p&#45;&gt;CGut</title>
<path fill="none" stroke="black" d="M210.053,-153.003C211.143,-153.063 228.893,-154.035 246.609,-155.006"/>
<polygon fill="black" stroke="black" points="246.733,-158.518 256.909,-155.57 247.116,-151.528 246.733,-158.518"/>
</g>
<!-- J2 -->
<g id="node14" class="node"><title>J2</title>
<polygon fill="none" stroke="black" points="166,-245 152,-245 152,-231 166,-231 166,-245"/>
</g>
<!-- J2_intermediate_p -->
<g id="node16" class="node"><title>J2_intermediate_p</title>
<ellipse fill="black" stroke="black" cx="209" cy="-234" rx="0.036" ry="0.036"/>
</g>
<!-- J2&#45;&gt;J2_intermediate_p -->
<g id="edge7" class="edge"><title>J2&#45;&gt;J2_intermediate_p</title>
<path fill="none" stroke="black" d="M166.275,-237.477C178.88,-236.427 206.221,-234.148 207.917,-234.007"/>
</g>
<!-- J2_intermediate_r&#45;&gt;J2 -->
<g id="edge5" class="edge"><title>J2_intermediate_r&#45;&gt;J2</title>
<path fill="none" stroke="black" d="M116.12,-238C117.968,-238 140.602,-238 151.803,-238"/>
</g>
<!-- J2_intermediate_p&#45;&gt;CGut -->
<g id="edge8" class="edge"><title>J2_intermediate_p&#45;&gt;CGut</title>
<path fill="none" stroke="black" d="M210.053,-233.944C211.459,-232.461 240.579,-201.745 261.595,-179.578"/>
<polygon fill="black" stroke="black" points="264.292,-181.82 268.632,-172.155 259.212,-177.004 264.292,-181.82"/>
</g>
<!-- J3 -->
<g id="node17" class="node"><title>J3</title>
<polygon fill="none" stroke="black" points="1110,-171 1096,-171 1096,-157 1110,-157 1110,-171"/>
</g>
<!-- J3_intermediate_p -->
<g id="node19" class="node"><title>J3_intermediate_p</title>
<ellipse fill="black" stroke="black" cx="1146" cy="-183" rx="0.036" ry="0.036"/>
</g>
<!-- J3&#45;&gt;J3_intermediate_p -->
<g id="edge11" class="edge"><title>J3&#45;&gt;J3_intermediate_p</title>
<path fill="none" stroke="black" d="M1110.05,-166.804C1121.1,-171.924 1143.54,-182.324 1144.93,-182.969"/>
</g>
<!-- J3_intermediate_r&#45;&gt;J3 -->
<g id="edge9" class="edge"><title>J3_intermediate_r&#45;&gt;J3</title>
<path fill="none" stroke="black" d="M1060.12,-157.02C1061.97,-157.328 1084.6,-161.1 1095.8,-162.967"/>
</g>
<!-- J3_intermediate_p&#45;&gt;CArt -->
<g id="edge12" class="edge"><title>J3_intermediate_p&#45;&gt;CArt</title>
<path fill="none" stroke="black" d="M1144.87,-183.057C1142.12,-184.23 1097.6,-203 1060,-203 158,-203 158,-203 158,-203 116.984,-203 79.9802,-169.177 58.7532,-144.976"/>
<polygon fill="black" stroke="black" points="61.3067,-142.575 52.1764,-137.201 55.9621,-147.096 61.3067,-142.575"/>
</g>
<!-- J4 -->
<g id="node20" class="node"><title>J4</title>
<polygon fill="none" stroke="black" points="894,-137 880,-137 880,-123 894,-123 894,-137"/>
</g>
<!-- J4_intermediate_p -->
<g id="node22" class="node"><title>J4_intermediate_p</title>
<ellipse fill="black" stroke="black" cx="931" cy="-145" rx="0.036" ry="0.036"/>
</g>
<!-- J4&#45;&gt;J4_intermediate_p -->
<g id="edge15" class="edge"><title>J4&#45;&gt;J4_intermediate_p</title>
<path fill="none" stroke="black" d="M894.197,-132.213C905.515,-136.255 928.505,-144.466 929.93,-144.975"/>
</g>
<!-- J4_intermediate_r&#45;&gt;J4 -->
<g id="edge13" class="edge"><title>J4_intermediate_r&#45;&gt;J4</title>
<path fill="none" stroke="black" d="M844.12,-99.0889C845.968,-100.453 868.602,-117.158 879.803,-125.426"/>
</g>
<!-- J4_intermediate_p&#45;&gt;CLung -->
<g id="edge16" class="edge"><title>J4_intermediate_p&#45;&gt;CLung</title>
<path fill="none" stroke="black" d="M932.045,-145.006C932.869,-145.112 944.904,-146.665 958.151,-148.374"/>
<polygon fill="black" stroke="black" points="957.986,-151.882 968.351,-149.691 958.882,-144.939 957.986,-151.882"/>
</g>
<!-- J5 -->
<g id="node23" class="node"><title>J5</title>
<polygon fill="none" stroke="black" points="166,-95 152,-95 152,-81 166,-81 166,-95"/>
</g>
<!-- J5_intermediate_p -->
<g id="node25" class="node"><title>J5_intermediate_p</title>
<ellipse fill="black" stroke="black" cx="209" cy="-86" rx="0.036" ry="0.036"/>
</g>
<!-- J5&#45;&gt;J5_intermediate_p -->
<g id="edge19" class="edge"><title>J5&#45;&gt;J5_intermediate_p</title>
<path fill="none" stroke="black" d="M166.275,-87.7385C178.88,-87.2134 206.221,-86.0741 207.917,-86.0034"/>
</g>
<!-- J5_intermediate_r&#45;&gt;J5 -->
<g id="edge17" class="edge"><title>J5_intermediate_r&#45;&gt;J5</title>
<path fill="none" stroke="black" d="M116.12,-88.9971C117.968,-88.9531 140.602,-88.4142 151.803,-88.1476"/>
</g>
<!-- J5_intermediate_p&#45;&gt;CRest -->
<g id="edge20" class="edge"><title>J5_intermediate_p&#45;&gt;CRest</title>
<path fill="none" stroke="black" d="M210.053,-85.9993C211.143,-85.9843 228.893,-85.7412 246.609,-85.4985"/>
<polygon fill="black" stroke="black" points="246.958,-88.9941 256.909,-85.3574 246.862,-81.9948 246.958,-88.9941"/>
</g>
<!-- J6 -->
<g id="node26" class="node"><title>J6</title>
<polygon fill="none" stroke="black" points="454,-93 440,-93 440,-79 454,-79 454,-93"/>
</g>
<!-- J6_intermediate_p -->
<g id="node28" class="node"><title>J6_intermediate_p</title>
<ellipse fill="black" stroke="black" cx="523" cy="-88" rx="0.036" ry="0.036"/>
</g>
<!-- J6&#45;&gt;J6_intermediate_p -->
<g id="edge23" class="edge"><title>J6&#45;&gt;J6_intermediate_p</title>
<path fill="none" stroke="black" d="M454.056,-86.1637C471.177,-86.6264 518.89,-87.9159 521.855,-87.9961"/>
</g>
<!-- J6_intermediate_r&#45;&gt;J6 -->
<g id="edge21" class="edge"><title>J6_intermediate_r&#45;&gt;J6</title>
<path fill="none" stroke="black" d="M398.138,-85.0029C400.293,-85.0478 427.204,-85.6084 439.7,-85.8688"/>
</g>
<!-- J6_intermediate_p&#45;&gt;CVen -->
<g id="edge24" class="edge"><title>J6_intermediate_p&#45;&gt;CVen</title>
<path fill="none" stroke="black" d="M524.043,-88.0013C526.775,-88.082 658.453,-91.9712 724.304,-93.9162"/>
<polygon fill="black" stroke="black" points="724.557,-97.4251 734.656,-94.2219 724.764,-90.4281 724.557,-97.4251"/>
</g>
<!-- J7 -->
<g id="node29" class="node"><title>J7</title>
<polygon fill="none" stroke="black" points="216,-128 202,-128 202,-114 216,-114 216,-128"/>
</g>
<!-- J7_intermediate_p -->
<g id="node31" class="node"><title>J7_intermediate_p</title>
<ellipse fill="black" stroke="black" cx="284" cy="-121" rx="0.036" ry="0.036"/>
</g>
<!-- J7&#45;&gt;J7_intermediate_p -->
<g id="edge27" class="edge"><title>J7&#45;&gt;J7_intermediate_p</title>
<path fill="none" stroke="black" d="M216.224,-121C233.326,-121 279.961,-121 282.859,-121"/>
</g>
<!-- J7_intermediate_r&#45;&gt;J7 -->
<g id="edge25" class="edge"><title>J7_intermediate_r&#45;&gt;J7</title>
<path fill="none" stroke="black" d="M160.138,-121C162.293,-121 189.204,-121 201.7,-121"/>
</g>
<!-- J7_intermediate_p&#45;&gt;CLiver -->
<g id="edge28" class="edge"><title>J7_intermediate_p&#45;&gt;CLiver</title>
<path fill="none" stroke="black" d="M285.043,-121.004C287.781,-121.258 420.104,-133.541 485.791,-139.639"/>
<polygon fill="black" stroke="black" points="485.827,-143.157 496.108,-140.597 486.474,-136.187 485.827,-143.157"/>
</g>
<!-- J8 -->
<g id="node32" class="node"><title>J8</title>
<polygon fill="none" stroke="black" points="644,-162 630,-162 630,-148 644,-148 644,-162"/>
</g>
<!-- J8_intermediate_p -->
<g id="node34" class="node"><title>J8_intermediate_p</title>
<ellipse fill="black" stroke="black" cx="681" cy="-155" rx="0.036" ry="0.036"/>
</g>
<!-- J8&#45;&gt;J8_intermediate_p -->
<g id="edge31" class="edge"><title>J8&#45;&gt;J8_intermediate_p</title>
<path fill="none" stroke="black" d="M644.197,-155C655.515,-155 678.505,-155 679.93,-155"/>
</g>
<!-- J8_intermediate_r&#45;&gt;J8 -->
<g id="edge29" class="edge"><title>J8_intermediate_r&#45;&gt;J8</title>
<path fill="none" stroke="black" d="M594.12,-152.009C595.968,-152.141 618.602,-153.757 629.803,-154.557"/>
</g>
<!-- J8_intermediate_p&#45;&gt;CMetabolized -->
<g id="edge32" class="edge"><title>J8_intermediate_p&#45;&gt;CMetabolized</title>
<path fill="none" stroke="black" d="M682.057,-155C682.937,-155 693.847,-155 707.29,-155"/>
<polygon fill="black" stroke="black" points="707.42,-158.5 717.42,-155 707.42,-151.5 707.42,-158.5"/>
</g>
<!-- J9 -->
<g id="node35" class="node"><title>J9</title>
<polygon fill="none" stroke="black" points="404,-164 390,-164 390,-150 404,-150 404,-164"/>
</g>
<!-- J9_intermediate_p -->
<g id="node37" class="node"><title>J9_intermediate_p</title>
<ellipse fill="black" stroke="black" cx="447" cy="-154" rx="0.036" ry="0.036"/>
</g>
<!-- J9&#45;&gt;J9_intermediate_p -->
<g id="edge35" class="edge"><title>J9&#45;&gt;J9_intermediate_p</title>
<path fill="none" stroke="black" d="M404.275,-156.608C416.88,-155.82 444.221,-154.111 445.917,-154.005"/>
</g>
<!-- J9_intermediate_r&#45;&gt;J9 -->
<g id="edge33" class="edge"><title>J9_intermediate_r&#45;&gt;J9</title>
<path fill="none" stroke="black" d="M354.12,-157C355.968,-157 378.602,-157 389.803,-157"/>
</g>
<!-- J9_intermediate_p&#45;&gt;CLiver -->
<g id="edge36" class="edge"><title>J9_intermediate_p&#45;&gt;CLiver</title>
<path fill="none" stroke="black" d="M448.054,-153.992C449.184,-153.824 467.978,-151.03 486.334,-148.302"/>
<polygon fill="black" stroke="black" points="486.995,-151.742 496.371,-146.81 485.965,-144.818 486.995,-151.742"/>
</g>
<!-- J10 -->
<g id="node38" class="node"><title>J10</title>
<polygon fill="none" stroke="black" points="644,-130 630,-130 630,-116 644,-116 644,-130"/>
</g>
<!-- J10_intermediate_p -->
<g id="node40" class="node"><title>J10_intermediate_p</title>
<ellipse fill="black" stroke="black" cx="681" cy="-120" rx="0.036" ry="0.036"/>
</g>
<!-- J10&#45;&gt;J10_intermediate_p -->
<g id="edge39" class="edge"><title>J10&#45;&gt;J10_intermediate_p</title>
<path fill="none" stroke="black" d="M644.197,-122.557C655.515,-121.749 678.505,-120.107 679.93,-120.005"/>
</g>
<!-- J10_intermediate_r&#45;&gt;J10 -->
<g id="edge37" class="edge"><title>J10_intermediate_r&#45;&gt;J10</title>
<path fill="none" stroke="black" d="M594.12,-126.989C595.968,-126.813 618.602,-124.657 629.803,-123.59"/>
</g>
<!-- J10_intermediate_p&#45;&gt;CVen -->
<g id="edge40" class="edge"><title>J10_intermediate_p&#45;&gt;CVen</title>
<path fill="none" stroke="black" d="M682.057,-119.982C683.356,-119.571 706.514,-112.242 727.413,-105.629"/>
<polygon fill="black" stroke="black" points="728.598,-108.925 737.076,-102.571 726.486,-102.251 728.598,-108.925"/>
</g>
<!-- J11 -->
<g id="node41" class="node"><title>J11</title>
<polygon fill="none" stroke="black" points="166,-51 152,-51 152,-37 166,-37 166,-51"/>
</g>
<!-- J11_intermediate_p -->
<g id="node43" class="node"><title>J11_intermediate_p</title>
<ellipse fill="black" stroke="black" cx="209" cy="-35" rx="0.036" ry="0.036"/>
</g>
<!-- J11&#45;&gt;J11_intermediate_p -->
<g id="edge43" class="edge"><title>J11&#45;&gt;J11_intermediate_p</title>
<path fill="none" stroke="black" d="M166.275,-42.8234C178.88,-40.4601 206.221,-35.3336 207.917,-35.0155"/>
</g>
<!-- J11_intermediate_r&#45;&gt;J11 -->
<g id="edge41" class="edge"><title>J11_intermediate_r&#45;&gt;J11</title>
<path fill="none" stroke="black" d="M116.12,-48.9857C117.968,-48.7657 140.602,-46.0712 151.803,-44.7378"/>
</g>
<!-- J11_intermediate_p&#45;&gt;CKidney -->
<g id="edge44" class="edge"><title>J11_intermediate_p&#45;&gt;CKidney</title>
<path fill="none" stroke="black" d="M210.053,-34.9971C211.047,-34.9426 225.896,-34.129 241.938,-33.2499"/>
<polygon fill="black" stroke="black" points="242.175,-36.7423 251.969,-32.7003 241.792,-29.7528 242.175,-36.7423"/>
</g>
<!-- J12 -->
<g id="node44" class="node"><title>J12</title>
<polygon fill="none" stroke="black" points="404,-56 390,-56 390,-42 404,-42 404,-56"/>
</g>
<!-- J12_intermediate_p -->
<g id="node46" class="node"><title>J12_intermediate_p</title>
<ellipse fill="black" stroke="black" cx="447" cy="-51" rx="0.036" ry="0.036"/>
</g>
<!-- J12&#45;&gt;J12_intermediate_p -->
<g id="edge47" class="edge"><title>J12&#45;&gt;J12_intermediate_p</title>
<path fill="none" stroke="black" d="M404.275,-49.2615C416.88,-49.7866 444.221,-50.9259 445.917,-50.9966"/>
</g>
<!-- J12_intermediate_r&#45;&gt;J12 -->
<g id="edge45" class="edge"><title>J12_intermediate_r&#45;&gt;J12</title>
<path fill="none" stroke="black" d="M354.12,-41.0229C355.968,-41.3749 378.602,-45.686 389.803,-47.8196"/>
</g>
<!-- J12_intermediate_p&#45;&gt;CTubules -->
<g id="edge48" class="edge"><title>J12_intermediate_p&#45;&gt;CTubules</title>
<path fill="none" stroke="black" d="M448.054,-51.0007C449.047,-51.0141 463.683,-51.2119 479.675,-51.428"/>
<polygon fill="black" stroke="black" points="479.651,-54.9279 489.697,-51.5635 479.746,-47.9286 479.651,-54.9279"/>
</g>
<!-- J13 -->
<g id="node47" class="node"><title>J13</title>
<polygon fill="none" stroke="black" points="454,-14 440,-14 440,-0 454,-0 454,-14"/>
</g>
<!-- J13_intermediate_p -->
<g id="node49" class="node"><title>J13_intermediate_p</title>
<ellipse fill="black" stroke="black" cx="593" cy="-17" rx="0.036" ry="0.036"/>
</g>
<!-- J13&#45;&gt;J13_intermediate_p -->
<g id="edge51" class="edge"><title>J13&#45;&gt;J13_intermediate_p</title>
<path fill="none" stroke="black" d="M454.188,-7.42969C481.319,-9.31384 588.575,-16.7621 591.92,-16.9944"/>
</g>
<!-- J13_intermediate_r&#45;&gt;J13 -->
<g id="edge49" class="edge"><title>J13_intermediate_r&#45;&gt;J13</title>
<path fill="none" stroke="black" d="M354.067,-21.9891C356.406,-21.6077 419.66,-11.2945 439.861,-8.00091"/>
</g>
<!-- J13_intermediate_p&#45;&gt;CVen -->
<g id="edge52" class="edge"><title>J13_intermediate_p&#45;&gt;CVen</title>
<path fill="none" stroke="black" d="M594.121,-17.0565C597.771,-18.7613 683.086,-58.6088 730.279,-80.6513"/>
<polygon fill="black" stroke="black" points="728.909,-83.8744 739.451,-84.9352 731.872,-77.5321 728.909,-83.8744"/>
</g>
</g>
</svg>
