<?xml version="1.0" encoding="UTF-8" standalone="no"?>
<!DOCTYPE svg PUBLIC "-//W3C//DTD SVG 1.1//EN"
 "http://www.w3.org/Graphics/SVG/1.1/DTD/svg11.dtd">
<!-- Generated by graphviz version 2.24.0 (20090616.2323)
 -->
<!-- Title: G Pages: 1 -->
<svg width="776pt" height="213pt"
 viewBox="0.00 0.00 776.00 213.00" xmlns="http://www.w3.org/2000/svg" xmlns:xlink="http://www.w3.org/1999/xlink">
<g id="graph1" class="graph" transform="scale(1 1) rotate(0) translate(4 209)">
<title>G</title>
<polygon fill="white" stroke="white" points="-4,5 -4,-209 773,-209 773,5 -4,5"/>
<!-- FC -->
<g id="node1" class="node"><title>FC</title>
<polyline fill="none" stroke="black" points="400,-194 370,-194 "/>
<path fill="none" stroke="black" d="M370,-194C364,-194 358,-188 358,-182"/>
<polyline fill="none" stroke="black" points="358,-182 358,-170 "/>
<path fill="none" stroke="black" d="M358,-170C358,-164 364,-158 370,-158"/>
<polyline fill="none" stroke="black" points="370,-158 400,-158 "/>
<path fill="none" stroke="black" d="M400,-158C406,-158 412,-164 412,-170"/>
<polyline fill="none" stroke="black" points="412,-170 412,-182 "/>
<path fill="none" stroke="black" d="M412,-182C412,-188 406,-194 400,-194"/>
<text text-anchor="middle" x="385" y="-173.5" font-family="Times Roman,serif" font-size="10.00">FC</text>
</g>
<!-- FCdeg_intermediate_r -->
<g id="node32" class="node"><title>FCdeg_intermediate_r</title>
<ellipse fill="black" stroke="black" cx="475" cy="-187" rx="0.036" ry="0.036"/>
</g>
<!-- FC&#45;&gt;FCdeg_intermediate_r -->
<g id="edge32" class="edge"><title>FC&#45;&gt;FCdeg_intermediate_r</title>
<path fill="none" stroke="black" d="M412.003,-179.3C437.685,-182.439 472.729,-186.722 474.895,-186.987"/>
</g>
<!-- FCtrs_intermediate_r -->
<g id="node38" class="node"><title>FCtrs_intermediate_r</title>
<ellipse fill="black" stroke="black" cx="475" cy="-169" rx="0.036" ry="0.036"/>
</g>
<!-- FC&#45;&gt;FCtrs_intermediate_r -->
<g id="edge38" class="edge"><title>FC&#45;&gt;FCtrs_intermediate_r</title>
<path fill="none" stroke="black" d="M421.99,-173.123C445.932,-171.261 473,-169.156 474.895,-169.008"/>
<polygon fill="black" stroke="black" points="421.701,-169.635 412.003,-173.9 422.244,-176.614 421.701,-169.635"/>
</g>
<!-- FCp -->
<g id="node2" class="node"><title>FCp</title>
<polyline fill="none" stroke="black" points="400,-59 370,-59 "/>
<path fill="none" stroke="black" d="M370,-59C364,-59 358,-53 358,-47"/>
<polyline fill="none" stroke="black" points="358,-47 358,-35 "/>
<path fill="none" stroke="black" d="M358,-35C358,-29 364,-23 370,-23"/>
<polyline fill="none" stroke="black" points="370,-23 400,-23 "/>
<path fill="none" stroke="black" d="M400,-23C406,-23 412,-29 412,-35"/>
<polyline fill="none" stroke="black" points="412,-35 412,-47 "/>
<path fill="none" stroke="black" d="M412,-47C412,-53 406,-59 400,-59"/>
<text text-anchor="middle" x="385" y="-38.5" font-family="Times Roman,serif" font-size="10.00">FCp</text>
</g>
<!-- FCpdeg_intermediate_r -->
<g id="node54" class="node"><title>FCpdeg_intermediate_r</title>
<ellipse fill="black" stroke="black" cx="475" cy="-41" rx="0.036" ry="0.036"/>
</g>
<!-- FCp&#45;&gt;FCpdeg_intermediate_r -->
<g id="edge56" class="edge"><title>FCp&#45;&gt;FCpdeg_intermediate_r</title>
<path fill="none" stroke="black" d="M412.003,-41C437.685,-41 472.729,-41 474.895,-41"/>
</g>
<!-- FCptrs_intermediate_r -->
<g id="node60" class="node"><title>FCptrs_intermediate_r</title>
<ellipse fill="black" stroke="black" cx="475" cy="-14" rx="0.036" ry="0.036"/>
</g>
<!-- FCp&#45;&gt;FCptrs_intermediate_r -->
<g id="edge62" class="edge"><title>FCp&#45;&gt;FCptrs_intermediate_r</title>
<path fill="none" stroke="black" d="M421.67,-29.9991C445.69,-22.793 472.992,-14.6025 474.895,-14.0316"/>
<polygon fill="black" stroke="black" points="420.575,-26.6732 412.003,-32.8991 422.587,-33.378 420.575,-26.6732"/>
</g>
<!-- FN -->
<g id="node3" class="node"><title>FN</title>
<polyline fill="none" stroke="black" points="720,-154 690,-154 "/>
<path fill="none" stroke="black" d="M690,-154C684,-154 678,-148 678,-142"/>
<polyline fill="none" stroke="black" points="678,-142 678,-130 "/>
<path fill="none" stroke="black" d="M678,-130C678,-124 684,-118 690,-118"/>
<polyline fill="none" stroke="black" points="690,-118 720,-118 "/>
<path fill="none" stroke="black" d="M720,-118C726,-118 732,-124 732,-130"/>
<polyline fill="none" stroke="black" points="732,-130 732,-142 "/>
<path fill="none" stroke="black" d="M732,-142C732,-148 726,-154 720,-154"/>
<text text-anchor="middle" x="705" y="-133.5" font-family="Times Roman,serif" font-size="10.00">FN</text>
</g>
<!-- MFtrn_intermediate_m -->
<g id="node12" class="node"><title>MFtrn_intermediate_m</title>
<ellipse fill="black" stroke="black" cx="768" cy="-87" rx="0.036" ry="0.036"/>
</g>
<!-- FN&#45;&gt;MFtrn_intermediate_m -->
<g id="edge10" class="edge"><title>FN&#45;&gt;MFtrn_intermediate_m</title>
<path fill="none" stroke="black" d="M728.459,-117.754C745.811,-104.258 766.652,-88.0486 767.937,-87.0487"/>
</g>
<!-- FNp -->
<g id="node4" class="node"><title>FNp</title>
<polyline fill="none" stroke="black" points="720,-41 690,-41 "/>
<path fill="none" stroke="black" d="M690,-41C684,-41 678,-35 678,-29"/>
<polyline fill="none" stroke="black" points="678,-29 678,-17 "/>
<path fill="none" stroke="black" d="M678,-17C678,-11 684,-5 690,-5"/>
<polyline fill="none" stroke="black" points="690,-5 720,-5 "/>
<path fill="none" stroke="black" d="M720,-5C726,-5 732,-11 732,-17"/>
<polyline fill="none" stroke="black" points="732,-17 732,-29 "/>
<path fill="none" stroke="black" d="M732,-29C732,-35 726,-41 720,-41"/>
<text text-anchor="middle" x="705" y="-20.5" font-family="Times Roman,serif" font-size="10.00">FNp</text>
</g>
<!-- FNp&#45;&gt;MFtrn_intermediate_m -->
<g id="edge12" class="edge"><title>FNp&#45;&gt;MFtrn_intermediate_m</title>
<path fill="none" stroke="black" d="M722.885,-41.1686C740.928,-59.4986 766.352,-85.3259 767.923,-86.9222"/>
</g>
<!-- MF -->
<g id="node5" class="node"><title>MF</title>
<polyline fill="none" stroke="black" points="272,-151 242,-151 "/>
<path fill="none" stroke="black" d="M242,-151C236,-151 230,-145 230,-139"/>
<polyline fill="none" stroke="black" points="230,-139 230,-127 "/>
<path fill="none" stroke="black" d="M230,-127C230,-121 236,-115 242,-115"/>
<polyline fill="none" stroke="black" points="242,-115 272,-115 "/>
<path fill="none" stroke="black" d="M272,-115C278,-115 284,-121 284,-127"/>
<polyline fill="none" stroke="black" points="284,-127 284,-139 "/>
<path fill="none" stroke="black" d="M284,-139C284,-145 278,-151 272,-151"/>
<text text-anchor="middle" x="257" y="-130.5" font-family="Times Roman,serif" font-size="10.00">MF</text>
</g>
<!-- MFdeg_intermediate_r -->
<g id="node17" class="node"><title>MFdeg_intermediate_r</title>
<ellipse fill="black" stroke="black" cx="321" cy="-133" rx="0.036" ry="0.036"/>
</g>
<!-- MF&#45;&gt;MFdeg_intermediate_r -->
<g id="edge16" class="edge"><title>MF&#45;&gt;MFdeg_intermediate_r</title>
<path fill="none" stroke="black" d="M284.142,-133C301.04,-133 319.788,-133 320.944,-133"/>
</g>
<!-- FCtrl_intermediate_m -->
<g id="node28" class="node"><title>FCtrl_intermediate_m</title>
<ellipse fill="black" stroke="black" cx="321" cy="-155" rx="0.036" ry="0.036"/>
</g>
<!-- MF&#45;&gt;FCtrl_intermediate_m -->
<g id="edge28" class="edge"><title>MF&#45;&gt;FCtrl_intermediate_m</title>
<path fill="none" stroke="black" d="M284.142,-142.33C301.04,-148.139 319.788,-154.584 320.944,-154.981"/>
</g>
<!-- FCptrl_intermediate_m -->
<g id="node50" class="node"><title>FCptrl_intermediate_m</title>
<ellipse fill="black" stroke="black" cx="321" cy="-115" rx="0.036" ry="0.036"/>
</g>
<!-- MF&#45;&gt;FCptrl_intermediate_m -->
<g id="edge52" class="edge"><title>MF&#45;&gt;FCptrl_intermediate_m</title>
<path fill="none" stroke="black" d="M284.142,-125.366C301.04,-120.614 319.788,-115.341 320.944,-115.016"/>
</g>
<!-- MFtrn -->
<g id="node6" class="node"><title>MFtrn</title>
<polygon fill="none" stroke="black" points="104,-112 90,-112 90,-98 104,-98 104,-112"/>
</g>
<!-- MFtrn_intermediate_p -->
<g id="node9" class="node"><title>MFtrn_intermediate_p</title>
<ellipse fill="black" stroke="black" cx="167" cy="-124" rx="0.036" ry="0.036"/>
</g>
<!-- MFtrn&#45;&gt;MFtrn_intermediate_p -->
<g id="edge4" class="edge"><title>MFtrn&#45;&gt;MFtrn_intermediate_p</title>
<path fill="none" stroke="black" d="M104.228,-106.962C121.554,-111.665 164.221,-123.246 166.871,-123.965"/>
</g>
<!-- MFtrn&#45;&gt;MFtrn_intermediate_m -->
<g id="edge8" class="edge"><title>MFtrn&#45;&gt;MFtrn_intermediate_m</title>
<path fill="none" stroke="black" d="M116.125,-101.445C146.056,-96.1996 205.842,-87 257,-87 257,-87 257,-87 615,-87 681.938,-87 765.348,-87 767.938,-87"/>
<polygon fill="none" stroke="black" points="116.111,-101.448 110.92,-106.453 104.303,-103.588 109.494,-98.5817 116.111,-101.448"/>
</g>
<!-- MFtrn_empty -->
<g id="node7" class="node"><title>MFtrn_empty</title>
<text text-anchor="middle" x="27" y="-100.5" font-family="Times Roman,serif" font-size="15.00" fill="blue">Ø</text>
</g>
<!-- MFtrn_empty&#45;&gt;MFtrn -->
<g id="edge2" class="edge"><title>MFtrn_empty&#45;&gt;MFtrn</title>
<path fill="none" stroke="black" d="M54.2643,-105C67.1627,-105 81.5367,-105 89.8947,-105"/>
</g>
<!-- MFtrn_intermediate_p&#45;&gt;MF -->
<g id="edge6" class="edge"><title>MFtrn_intermediate_p&#45;&gt;MF</title>
<path fill="none" stroke="black" d="M167.065,-124.007C168.565,-124.156 195.648,-126.865 219.704,-129.27"/>
<polygon fill="black" stroke="black" points="219.446,-132.762 229.745,-130.275 220.143,-125.797 219.446,-132.762"/>
</g>
<!-- MFdeg -->
<g id="node16" class="node"><title>MFdeg</title>
<polygon fill="none" stroke="black" points="392,-140 378,-140 378,-126 392,-126 392,-140"/>
</g>
<!-- MFdeg_empty -->
<g id="node20" class="node"><title>MFdeg_empty</title>
<text text-anchor="middle" x="475" y="-128.5" font-family="Times Roman,serif" font-size="15.00" fill="blue">Ø</text>
</g>
<!-- MFdeg&#45;&gt;MFdeg_empty -->
<g id="edge18" class="edge"><title>MFdeg&#45;&gt;MFdeg_empty</title>
<path fill="none" stroke="black" d="M392.062,-133C401.877,-133 420.359,-133 437.389,-133"/>
<polygon fill="black" stroke="black" points="437.715,-136.5 447.715,-133 437.715,-129.5 437.715,-136.5"/>
</g>
<!-- MFdeg_intermediate_r&#45;&gt;MFdeg -->
<g id="edge14" class="edge"><title>MFdeg_intermediate_r&#45;&gt;MFdeg</title>
<path fill="none" stroke="black" d="M321.046,-133C322.576,-133 361.51,-133 377.868,-133"/>
</g>
<!-- FCtrl -->
<g id="node22" class="node"><title>FCtrl</title>
<polygon fill="none" stroke="black" points="264,-183 250,-183 250,-169 264,-169 264,-183"/>
</g>
<!-- FCtrl_intermediate_p -->
<g id="node25" class="node"><title>FCtrl_intermediate_p</title>
<ellipse fill="black" stroke="black" cx="321" cy="-176" rx="0.036" ry="0.036"/>
</g>
<!-- FCtrl&#45;&gt;FCtrl_intermediate_p -->
<g id="edge22" class="edge"><title>FCtrl&#45;&gt;FCtrl_intermediate_p</title>
<path fill="none" stroke="black" d="M264.342,-176C280.627,-176 318.532,-176 320.885,-176"/>
</g>
<!-- FCtrl&#45;&gt;FCtrl_intermediate_m -->
<g id="edge26" class="edge"><title>FCtrl&#45;&gt;FCtrl_intermediate_m</title>
<path fill="none" stroke="black" d="M275.932,-169.788C294.077,-163.834 318.992,-155.659 320.885,-155.038"/>
<polygon fill="none" stroke="black" points="275.744,-169.85 271.29,-175.521 264.342,-173.591 268.795,-167.92 275.744,-169.85"/>
</g>
<!-- FCtrl_empty -->
<g id="node23" class="node"><title>FCtrl_empty</title>
<text text-anchor="middle" x="167" y="-171.5" font-family="Times Roman,serif" font-size="15.00" fill="blue">Ø</text>
</g>
<!-- FCtrl_empty&#45;&gt;FCtrl -->
<g id="edge20" class="edge"><title>FCtrl_empty&#45;&gt;FCtrl</title>
<path fill="none" stroke="black" d="M194.003,-176C213.264,-176 237.792,-176 249.766,-176"/>
</g>
<!-- FCtrl_intermediate_p&#45;&gt;FC -->
<g id="edge24" class="edge"><title>FCtrl_intermediate_p&#45;&gt;FC</title>
<path fill="none" stroke="black" d="M321.046,-176C321.885,-176 333.971,-176 347.414,-176"/>
<polygon fill="black" stroke="black" points="347.794,-179.5 357.794,-176 347.794,-172.5 347.794,-179.5"/>
</g>
<!-- FCdeg -->
<g id="node31" class="node"><title>FCdeg</title>
<polygon fill="none" stroke="black" points="552,-194 538,-194 538,-180 552,-180 552,-194"/>
</g>
<!-- FCdeg_empty -->
<g id="node35" class="node"><title>FCdeg_empty</title>
<text text-anchor="middle" x="615" y="-182.5" font-family="Times Roman,serif" font-size="15.00" fill="blue">Ø</text>
</g>
<!-- FCdeg&#45;&gt;FCdeg_empty -->
<g id="edge34" class="edge"><title>FCdeg&#45;&gt;FCdeg_empty</title>
<path fill="none" stroke="black" d="M552.228,-187C558.45,-187 567.94,-187 577.672,-187"/>
<polygon fill="black" stroke="black" points="577.773,-190.5 587.773,-187 577.773,-183.5 577.773,-190.5"/>
</g>
<!-- FCdeg_intermediate_r&#45;&gt;FCdeg -->
<g id="edge30" class="edge"><title>FCdeg_intermediate_r&#45;&gt;FCdeg</title>
<path fill="none" stroke="black" d="M475.051,-187C476.748,-187 520.582,-187 537.98,-187"/>
</g>
<!-- FCtrs -->
<g id="node37" class="node"><title>FCtrs</title>
<polygon fill="none" stroke="black" points="552,-159 538,-159 538,-145 552,-145 552,-159"/>
</g>
<!-- FCtrs_intermediate_p -->
<g id="node41" class="node"><title>FCtrs_intermediate_p</title>
<ellipse fill="black" stroke="black" cx="615" cy="-141" rx="0.036" ry="0.036"/>
</g>
<!-- FCtrs&#45;&gt;FCtrs_intermediate_p -->
<g id="edge40" class="edge"><title>FCtrs&#45;&gt;FCtrs_intermediate_p</title>
<path fill="none" stroke="black" d="M552.228,-150.864C569.554,-148.142 612.221,-141.437 614.871,-141.02"/>
</g>
<!-- FCtrs_intermediate_r&#45;&gt;FCtrs -->
<g id="edge36" class="edge"><title>FCtrs_intermediate_r&#45;&gt;FCtrs</title>
<path fill="none" stroke="black" d="M475.051,-168.988C476.748,-168.575 520.582,-157.93 537.98,-153.705"/>
</g>
<!-- FCtrs_intermediate_p&#45;&gt;FN -->
<g id="edge42" class="edge"><title>FCtrs_intermediate_p&#45;&gt;FN</title>
<path fill="none" stroke="black" d="M615.065,-140.996C616.565,-140.913 643.648,-139.408 667.704,-138.072"/>
<polygon fill="black" stroke="black" points="667.955,-141.564 677.745,-137.514 667.566,-134.574 667.955,-141.564"/>
</g>
<!-- FCptrl -->
<g id="node44" class="node"><title>FCptrl</title>
<polygon fill="none" stroke="black" points="264,-48 250,-48 250,-34 264,-34 264,-48"/>
</g>
<!-- FCptrl_intermediate_p -->
<g id="node47" class="node"><title>FCptrl_intermediate_p</title>
<ellipse fill="black" stroke="black" cx="321" cy="-41" rx="0.036" ry="0.036"/>
</g>
<!-- FCptrl&#45;&gt;FCptrl_intermediate_p -->
<g id="edge46" class="edge"><title>FCptrl&#45;&gt;FCptrl_intermediate_p</title>
<path fill="none" stroke="black" d="M264.342,-41C280.627,-41 318.532,-41 320.885,-41"/>
</g>
<!-- FCptrl&#45;&gt;FCptrl_intermediate_m -->
<g id="edge50" class="edge"><title>FCptrl&#45;&gt;FCptrl_intermediate_m</title>
<path fill="none" stroke="black" d="M271.198,-57.4168C289.368,-78.425 318.767,-112.418 320.879,-114.861"/>
<polygon fill="none" stroke="black" points="270.986,-57.1718 264.036,-55.2502 263.137,-48.0954 270.087,-50.017 270.986,-57.1718"/>
</g>
<!-- FCptrl_empty -->
<g id="node45" class="node"><title>FCptrl_empty</title>
<text text-anchor="middle" x="167" y="-36.5" font-family="Times Roman,serif" font-size="15.00" fill="blue">Ø</text>
</g>
<!-- FCptrl_empty&#45;&gt;FCptrl -->
<g id="edge44" class="edge"><title>FCptrl_empty&#45;&gt;FCptrl</title>
<path fill="none" stroke="black" d="M194.003,-41C213.264,-41 237.792,-41 249.766,-41"/>
</g>
<!-- FCptrl_intermediate_p&#45;&gt;FCp -->
<g id="edge48" class="edge"><title>FCptrl_intermediate_p&#45;&gt;FCp</title>
<path fill="none" stroke="black" d="M321.046,-41C321.885,-41 333.971,-41 347.414,-41"/>
<polygon fill="black" stroke="black" points="347.794,-44.5001 357.794,-41 347.794,-37.5001 347.794,-44.5001"/>
</g>
<!-- FCpdeg -->
<g id="node53" class="node"><title>FCpdeg</title>
<polygon fill="none" stroke="black" points="552,-48 538,-48 538,-34 552,-34 552,-48"/>
</g>
<!-- FCpdeg_empty -->
<g id="node57" class="node"><title>FCpdeg_empty</title>
<text text-anchor="middle" x="615" y="-36.5" font-family="Times Roman,serif" font-size="15.00" fill="blue">Ø</text>
</g>
<!-- FCpdeg&#45;&gt;FCpdeg_empty -->
<g id="edge58" class="edge"><title>FCpdeg&#45;&gt;FCpdeg_empty</title>
<path fill="none" stroke="black" d="M552.228,-41C558.45,-41 567.94,-41 577.672,-41"/>
<polygon fill="black" stroke="black" points="577.773,-44.5001 587.773,-41 577.773,-37.5001 577.773,-44.5001"/>
</g>
<!-- FCpdeg_intermediate_r&#45;&gt;FCpdeg -->
<g id="edge54" class="edge"><title>FCpdeg_intermediate_r&#45;&gt;FCpdeg</title>
<path fill="none" stroke="black" d="M475.051,-41C476.748,-41 520.582,-41 537.98,-41"/>
</g>
<!-- FCptrs -->
<g id="node59" class="node"><title>FCptrs</title>
<polygon fill="none" stroke="black" points="552,-14 538,-14 538,-6.21725e-15 552,-2.66454e-15 552,-14"/>
</g>
<!-- FCptrs_intermediate_p -->
<g id="node63" class="node"><title>FCptrs_intermediate_p</title>
<ellipse fill="black" stroke="black" cx="615" cy="-5" rx="0.036" ry="0.036"/>
</g>
<!-- FCptrs&#45;&gt;FCptrs_intermediate_p -->
<g id="edge64" class="edge"><title>FCptrs&#45;&gt;FCptrs_intermediate_p</title>
<path fill="none" stroke="black" d="M552.228,-6.7935C569.554,-6.29847 612.221,-5.0794 614.871,-5.00369"/>
</g>
<!-- FCptrs_intermediate_r&#45;&gt;FCptrs -->
<g id="edge60" class="edge"><title>FCptrs_intermediate_r&#45;&gt;FCptrs</title>
<path fill="none" stroke="black" d="M475.051,-13.9949C476.748,-13.8252 520.582,-9.44179 537.98,-7.70202"/>
</g>
<!-- FCptrs_intermediate_p&#45;&gt;FNp -->
<g id="edge66" class="edge"><title>FCptrs_intermediate_p&#45;&gt;FNp</title>
<path fill="none" stroke="black" d="M615.065,-5.01305C616.565,-5.31299 643.648,-10.7297 667.704,-15.5409"/>
<polygon fill="black" stroke="black" points="667.253,-19.0198 677.745,-17.549 668.626,-12.1558 667.253,-19.0198"/>
</g>
</g>
</svg>
