<?xml version="1.0" encoding="UTF-8" standalone="no"?>
<!DOCTYPE svg PUBLIC "-//W3C//DTD SVG 1.1//EN"
 "http://www.w3.org/Graphics/SVG/1.1/DTD/svg11.dtd">
<!-- Generated by graphviz version 2.30.1 (20140821.0912)
 -->
<!-- Title: G Pages: 1 -->
<svg width="1810pt" height="594pt"
 viewBox="0.00 0.00 1810.00 594.00" xmlns="http://www.w3.org/2000/svg" xmlns:xlink="http://www.w3.org/1999/xlink">
<g id="graph0" class="graph" transform="scale(1 1) rotate(0) translate(4 590)">
<title>G</title>
<polygon fill="white" stroke="white" points="-4,5 -4,-590 1807,-590 1807,5 -4,5"/>
<!-- FeDuo -->
<g id="FeDuo [CHEBI:24875]" class="node"><title>FeDuo</title>
<ellipse fill="none" stroke="black" cx="194" cy="-64" rx="18" ry="18"/>
<text text-anchor="middle" x="194" y="-61.5" font-family="Times,serif" font-size="10.00">FeDuo</text>
</g>
<!-- Duo_NTBI_intermediate_r -->
<g id="node23" class="node"><title>Duo_NTBI_intermediate_r</title>
<ellipse fill="black" stroke="black" cx="249" cy="-224" rx="0.036" ry="0.036"/>
</g>
<!-- FeDuo&#45;&gt;Duo_NTBI_intermediate_r -->
<g id="edge11" class="edge"><title>FeDuo&#45;&gt;Duo_NTBI_intermediate_r</title>
<path fill="none" stroke="black" d="M200.572,-80.8204C213.967,-121.258 246.948,-220.824 247.975,-223.926"/>
</g>
<!-- DuoLoss_intermediate_r -->
<g id="node44" class="node"><title>DuoLoss_intermediate_r</title>
<ellipse fill="black" stroke="black" cx="293" cy="-7" rx="0.036" ry="0.036"/>
</g>
<!-- FeDuo&#45;&gt;DuoLoss_intermediate_r -->
<g id="edge43" class="edge"><title>FeDuo&#45;&gt;DuoLoss_intermediate_r</title>
<path fill="none" stroke="black" d="M209.711,-54.5237C220.271,-47.7993 234.893,-38.6469 248,-31 266.639,-20.1258 290.458,-7.79693 291.928,-7.03699"/>
</g>
<!-- FeRBC -->
<g id="FeRBC [CHEBI:24875]" class="node"><title>FeRBC</title>
<ellipse fill="none" stroke="black" cx="1365" cy="-305" rx="18" ry="18"/>
<text text-anchor="middle" x="1365" y="-302.5" font-family="Times,serif" font-size="10.00">FeRBC</text>
</g>
<!-- RBC_Spleen_intermediate_r -->
<g id="node30" class="node"><title>RBC_Spleen_intermediate_r</title>
<ellipse fill="black" stroke="black" cx="1463" cy="-301" rx="0.036" ry="0.036"/>
</g>
<!-- FeRBC&#45;&gt;RBC_Spleen_intermediate_r -->
<g id="edge22" class="edge"><title>FeRBC&#45;&gt;RBC_Spleen_intermediate_r</title>
<path fill="none" stroke="black" d="M1383.16,-304.285C1409.91,-303.17 1458.82,-301.132 1461.85,-301.006"/>
</g>
<!-- FeSpleen -->
<g id="FeSpleen [CHEBI:24875]" class="node"><title>FeSpleen</title>
<ellipse fill="none" stroke="black" cx="1646" cy="-284" rx="31.577" ry="18"/>
<text text-anchor="middle" x="1646" y="-281.5" font-family="Times,serif" font-size="10.00">FeSpleen</text>
</g>
<!-- Spleen_NTBI_intermediate_r -->
<g id="node33" class="node"><title>Spleen_NTBI_intermediate_r</title>
<ellipse fill="black" stroke="black" cx="1715" cy="-284" rx="0.036" ry="0.036"/>
</g>
<!-- FeSpleen&#45;&gt;Spleen_NTBI_intermediate_r -->
<g id="edge26" class="edge"><title>FeSpleen&#45;&gt;Spleen_NTBI_intermediate_r</title>
<path fill="none" stroke="black" d="M1678.15,-284C1695.1,-284 1712.85,-284 1713.95,-284"/>
</g>
<!-- FeLiver -->
<g id="FeLiver [CHEBI:24875]" class="node"><title>FeLiver</title>
<ellipse fill="none" stroke="black" cx="1097" cy="-374" rx="28.0137" ry="18"/>
<text text-anchor="middle" x="1097" y="-371.5" font-family="Times,serif" font-size="10.00">FeLiver</text>
</g>
<!-- Liver_NTBI_intermediate_r -->
<g id="node37" class="node"><title>Liver_NTBI_intermediate_r</title>
<ellipse fill="black" stroke="black" cx="1163" cy="-491" rx="0.036" ry="0.036"/>
</g>
<!-- FeLiver&#45;&gt;Liver_NTBI_intermediate_r -->
<g id="edge32" class="edge"><title>FeLiver&#45;&gt;Liver_NTBI_intermediate_r</title>
<path fill="none" stroke="black" d="M1107.31,-391.013C1124.78,-422.955 1160.85,-488.898 1161.97,-490.951"/>
</g>
<!-- Tf -->
<g id="Tf" class="node"><title>Tf</title>
<path fill="none" stroke="black" d="M1112,-247C1112,-247 1082,-247 1082,-247 1076,-247 1070,-241 1070,-235 1070,-235 1070,-223 1070,-223 1070,-217 1076,-211 1082,-211 1082,-211 1112,-211 1112,-211 1118,-211 1124,-217 1124,-223 1124,-223 1124,-235 1124,-235 1124,-241 1118,-247 1112,-247"/>
<text text-anchor="middle" x="1097" y="-226.5" font-family="Times,serif" font-size="10.00">Tf</text>
</g>
<!-- NTBI_Fe1Tf_intermediate_r -->
<g id="node41" class="node"><title>NTBI_Fe1Tf_intermediate_r</title>
<ellipse fill="black" stroke="black" cx="459" cy="-291" rx="0.036" ry="0.036"/>
</g>
<!-- Tf&#45;&gt;NTBI_Fe1Tf_intermediate_r -->
<g id="edge39" class="edge"><title>Tf&#45;&gt;NTBI_Fe1Tf_intermediate_r</title>
<path fill="none" stroke="black" d="M1075.39,-210.992C1047.43,-187.886 994.888,-149.001 942,-134 846.478,-106.907 819.29,-159 720,-159 546,-159 546,-159 546,-159 477.075,-159 460.513,-286.907 460.012,-290.904"/>
</g>
<!-- Hepcidin -->
<g id="Hepcidin" class="node"><title>Hepcidin</title>
<path fill="none" stroke="black" d="M1243.5,-555C1243.5,-555 1212.5,-555 1212.5,-555 1206.5,-555 1200.5,-549 1200.5,-543 1200.5,-543 1200.5,-531 1200.5,-531 1200.5,-525 1206.5,-519 1212.5,-519 1212.5,-519 1243.5,-519 1243.5,-519 1249.5,-519 1255.5,-525 1255.5,-531 1255.5,-531 1255.5,-543 1255.5,-543 1255.5,-549 1249.5,-555 1243.5,-555"/>
<text text-anchor="middle" x="1228" y="-534.5" font-family="Times,serif" font-size="10.00">Hepcidin</text>
</g>
<!-- HepcidinDecay_intermediate_r -->
<g id="node20" class="node"><title>HepcidinDecay_intermediate_r</title>
<ellipse fill="black" stroke="black" cx="1293" cy="-554" rx="0.036" ry="0.036"/>
</g>
<!-- Hepcidin&#45;&gt;HepcidinDecay_intermediate_r -->
<g id="edge8" class="edge"><title>Hepcidin&#45;&gt;HepcidinDecay_intermediate_r</title>
<path fill="none" stroke="black" d="M1255.72,-544.21C1272.35,-548.698 1290.81,-553.678 1291.94,-553.985"/>
</g>
<!-- Duo_NTBI_intermediate_m -->
<g id="node25" class="node"><title>Duo_NTBI_intermediate_m</title>
<ellipse fill="black" stroke="black" cx="1293" cy="-576" rx="0.036" ry="0.036"/>
</g>
<!-- Hepcidin&#45;&gt;Duo_NTBI_intermediate_m -->
<g id="edge15" class="edge"><title>Hepcidin&#45;&gt;Duo_NTBI_intermediate_m</title>
<path fill="none" stroke="black" d="M1255.72,-553.54C1272.35,-563.837 1290.81,-575.262 1291.94,-575.966"/>
</g>
<!-- Spleen_NTBI_intermediate_m -->
<g id="node35" class="node"><title>Spleen_NTBI_intermediate_m</title>
<ellipse fill="black" stroke="black" cx="1802" cy="-348" rx="0.036" ry="0.036"/>
</g>
<!-- Hepcidin&#45;&gt;Spleen_NTBI_intermediate_m -->
<g id="edge30" class="edge"><title>Hepcidin&#45;&gt;Spleen_NTBI_intermediate_m</title>
<path fill="none" stroke="black" d="M1255.54,-532.295C1282.7,-527.896 1326.15,-522 1364,-522 1364,-522 1364,-522 1716,-522 1800.72,-522 1801.01,-353.395 1801,-348.126"/>
</g>
<!-- Liver_NTBI_intermediate_m -->
<g id="node39" class="node"><title>Liver_NTBI_intermediate_m</title>
<ellipse fill="black" stroke="black" cx="1293" cy="-494" rx="0.036" ry="0.036"/>
</g>
<!-- Hepcidin&#45;&gt;Liver_NTBI_intermediate_m -->
<g id="edge36" class="edge"><title>Hepcidin&#45;&gt;Liver_NTBI_intermediate_m</title>
<path fill="none" stroke="black" d="M1255.72,-518.764C1272.35,-507.411 1290.81,-494.814 1291.94,-494.038"/>
</g>
<!-- Rest_NTBI_intermediate_m -->
<g id="node61" class="node"><title>Rest_NTBI_intermediate_m</title>
<ellipse fill="black" stroke="black" cx="1293" cy="-435" rx="0.036" ry="0.036"/>
</g>
<!-- Hepcidin&#45;&gt;Rest_NTBI_intermediate_m -->
<g id="edge70" class="edge"><title>Hepcidin&#45;&gt;Rest_NTBI_intermediate_m</title>
<path fill="none" stroke="black" d="M1248.76,-518.857C1251.35,-516.025 1253.85,-513.029 1256,-510 1276.71,-480.774 1291.08,-437.788 1291.96,-435.13"/>
</g>
<!-- Fe2Tf -->
<g id="Fe2Tf [CHEBI:29034]" class="node"><title>Fe2Tf</title>
<path fill="none" stroke="black" d="M842,-355C842,-355 812,-355 812,-355 806,-355 800,-349 800,-343 800,-343 800,-331 800,-331 800,-325 806,-319 812,-319 812,-319 842,-319 842,-319 848,-319 854,-325 854,-331 854,-331 854,-343 854,-343 854,-349 848,-355 842,-355"/>
<text text-anchor="middle" x="827" y="-334.5" font-family="Times,serif" font-size="10.00">Fe2Tf</text>
</g>
<!-- Fe2Tf_BM_intermediate_r -->
<g id="node27" class="node"><title>Fe2Tf_BM_intermediate_r</title>
<ellipse fill="black" stroke="black" cx="891" cy="-323" rx="0.036" ry="0.036"/>
</g>
<!-- Fe2Tf&#45;&gt;Fe2Tf_BM_intermediate_r -->
<g id="edge17" class="edge"><title>Fe2Tf&#45;&gt;Fe2Tf_BM_intermediate_r</title>
<path fill="none" stroke="black" d="M854.294,-331.063C870.664,-327.366 888.826,-323.265 889.946,-323.012"/>
</g>
<!-- Fe2Tf_Liver_intermediate_r -->
<g id="node47" class="node"><title>Fe2Tf_Liver_intermediate_r</title>
<ellipse fill="black" stroke="black" cx="891" cy="-348" rx="0.036" ry="0.036"/>
</g>
<!-- Fe2Tf&#45;&gt;Fe2Tf_Liver_intermediate_r -->
<g id="edge47" class="edge"><title>Fe2Tf&#45;&gt;Fe2Tf_Liver_intermediate_r</title>
<path fill="none" stroke="black" d="M854.294,-341.665C870.664,-344.569 888.826,-347.792 889.946,-347.99"/>
</g>
<!-- Fe2Tf_Rest_intermediate_r -->
<g id="node50" class="node"><title>Fe2Tf_Rest_intermediate_r</title>
<ellipse fill="black" stroke="black" cx="891" cy="-247" rx="0.036" ry="0.036"/>
</g>
<!-- Fe2Tf&#45;&gt;Fe2Tf_Rest_intermediate_r -->
<g id="edge52" class="edge"><title>Fe2Tf&#45;&gt;Fe2Tf_Rest_intermediate_r</title>
<path fill="none" stroke="black" d="M840.547,-318.787C858.097,-293.311 888.054,-249.824 889.91,-247.131"/>
</g>
<!-- Fe2Tf_Duo_intermediate_r -->
<g id="node56" class="node"><title>Fe2Tf_Duo_intermediate_r</title>
<ellipse fill="black" stroke="black" cx="891" cy="-265" rx="0.036" ry="0.036"/>
</g>
<!-- Fe2Tf&#45;&gt;Fe2Tf_Duo_intermediate_r -->
<g id="edge61" class="edge"><title>Fe2Tf&#45;&gt;Fe2Tf_Duo_intermediate_r</title>
<path fill="none" stroke="black" d="M843.645,-318.831C861.438,-298.168 888.26,-267.02 889.919,-265.094"/>
</g>
<!-- Fe1Tf -->
<g id="Fe1Tf [CHEBI:29034]" class="node"><title>Fe1Tf</title>
<path fill="none" stroke="black" d="M626,-309C626,-309 596,-309 596,-309 590,-309 584,-303 584,-297 584,-297 584,-285 584,-285 584,-279 590,-273 596,-273 596,-273 626,-273 626,-273 632,-273 638,-279 638,-285 638,-285 638,-297 638,-297 638,-303 632,-309 626,-309"/>
<text text-anchor="middle" x="611" y="-288.5" font-family="Times,serif" font-size="10.00">Fe1Tf</text>
</g>
<!-- Fe1Tf_Fe2Tf_intermediate_r -->
<g id="node63" class="node"><title>Fe1Tf_Fe2Tf_intermediate_r</title>
<ellipse fill="black" stroke="black" cx="675" cy="-337" rx="0.036" ry="0.036"/>
</g>
<!-- Fe1Tf&#45;&gt;Fe1Tf_Fe2Tf_intermediate_r -->
<g id="edge72" class="edge"><title>Fe1Tf&#45;&gt;Fe1Tf_Fe2Tf_intermediate_r</title>
<path fill="none" stroke="black" d="M636.504,-309.18C653.293,-321.636 672.742,-336.067 673.942,-336.957"/>
</g>
<!-- Fe1Tf_Liver_intermediate_r -->
<g id="node66" class="node"><title>Fe1Tf_Liver_intermediate_r</title>
<ellipse fill="black" stroke="black" cx="675" cy="-319" rx="0.036" ry="0.036"/>
</g>
<!-- Fe1Tf&#45;&gt;Fe1Tf_Liver_intermediate_r -->
<g id="edge77" class="edge"><title>Fe1Tf&#45;&gt;Fe1Tf_Liver_intermediate_r</title>
<path fill="none" stroke="black" d="M638.294,-302.875C654.664,-310.267 672.826,-318.47 673.946,-318.975"/>
</g>
<!-- Fe1Tf_BM_intermediate_r -->
<g id="node69" class="node"><title>Fe1Tf_BM_intermediate_r</title>
<ellipse fill="black" stroke="black" cx="719" cy="-291" rx="0.036" ry="0.036"/>
</g>
<!-- Fe1Tf&#45;&gt;Fe1Tf_BM_intermediate_r -->
<g id="edge82" class="edge"><title>Fe1Tf&#45;&gt;Fe1Tf_BM_intermediate_r</title>
<path fill="none" stroke="black" d="M638.202,-291C668.611,-291 714.991,-291 717.86,-291"/>
</g>
<!-- Fe1Tf_Rest_intermediate_r -->
<g id="node72" class="node"><title>Fe1Tf_Rest_intermediate_r</title>
<ellipse fill="black" stroke="black" cx="827" cy="-110" rx="0.036" ry="0.036"/>
</g>
<!-- Fe1Tf&#45;&gt;Fe1Tf_Rest_intermediate_r -->
<g id="edge87" class="edge"><title>Fe1Tf&#45;&gt;Fe1Tf_Rest_intermediate_r</title>
<path fill="none" stroke="black" d="M633.302,-272.983C686.585,-227.917 821.69,-113.645 825.899,-110.085"/>
</g>
<!-- Fe1Tf_Duo_intermediate_r -->
<g id="node75" class="node"><title>Fe1Tf_Duo_intermediate_r</title>
<ellipse fill="black" stroke="black" cx="675" cy="-255" rx="0.036" ry="0.036"/>
</g>
<!-- Fe1Tf&#45;&gt;Fe1Tf_Duo_intermediate_r -->
<g id="edge92" class="edge"><title>Fe1Tf&#45;&gt;Fe1Tf_Duo_intermediate_r</title>
<path fill="none" stroke="black" d="M638.294,-275.733C654.664,-266.228 672.826,-255.681 673.946,-255.032"/>
</g>
<!-- NTBI -->
<g id="NTBI [CHEBI:24875]" class="node"><title>NTBI</title>
<ellipse fill="none" stroke="black" cx="404" cy="-337" rx="18" ry="18"/>
<text text-anchor="middle" x="404" y="-334.5" font-family="Times,serif" font-size="10.00">NTBI</text>
</g>
<!-- NTBI&#45;&gt;NTBI_Fe1Tf_intermediate_r -->
<g id="edge38" class="edge"><title>NTBI&#45;&gt;NTBI_Fe1Tf_intermediate_r</title>
<path fill="none" stroke="black" d="M418.101,-325.629C433.305,-312.433 456.496,-292.306 457.93,-291.061"/>
</g>
<!-- NTBI&#45;&gt;Fe1Tf_Fe2Tf_intermediate_r -->
<g id="edge73" class="edge"><title>NTBI&#45;&gt;Fe1Tf_Fe2Tf_intermediate_r</title>
<path fill="none" stroke="black" d="M422.172,-337C441.559,-337 474.045,-337 502,-337 502,-337 502,-337 548,-337 603.125,-337 671.816,-337 673.949,-337"/>
</g>
<!-- FeRest -->
<g id="FeRest [CHEBI:24875]" class="node"><title>FeRest</title>
<ellipse fill="none" stroke="black" cx="1097" cy="-118" rx="27" ry="18"/>
<text text-anchor="middle" x="1097" y="-115.5" font-family="Times,serif" font-size="10.00">FeRest</text>
</g>
<!-- RestLoss_intermediate_r -->
<g id="node53" class="node"><title>RestLoss_intermediate_r</title>
<ellipse fill="black" stroke="black" cx="1163" cy="-118" rx="0.036" ry="0.036"/>
</g>
<!-- FeRest&#45;&gt;RestLoss_intermediate_r -->
<g id="edge57" class="edge"><title>FeRest&#45;&gt;RestLoss_intermediate_r</title>
<path fill="none" stroke="black" d="M1124.03,-118C1141.2,-118 1160.74,-118 1161.94,-118"/>
</g>
<!-- Rest_NTBI_intermediate_r -->
<g id="node59" class="node"><title>Rest_NTBI_intermediate_r</title>
<ellipse fill="black" stroke="black" cx="1163" cy="-199" rx="0.036" ry="0.036"/>
</g>
<!-- FeRest&#45;&gt;Rest_NTBI_intermediate_r -->
<g id="edge66" class="edge"><title>FeRest&#45;&gt;Rest_NTBI_intermediate_r</title>
<path fill="none" stroke="black" d="M1110.64,-134.003C1128.71,-156.871 1159.97,-196.43 1161.91,-198.881"/>
</g>
<!-- FeOutside -->
<g id="FeOutside [CHEBI:24875]" class="node"><title>FeOutside</title>
<ellipse fill="none" stroke="black" cx="1365" cy="-102" rx="34.9638" ry="18"/>
<text text-anchor="middle" x="1365" y="-99.5" font-family="Times,serif" font-size="10.00">FeOutside</text>
</g>
<!-- FeBM -->
<g id="FeBM [CHEBI:24875]" class="node"><title>FeBM</title>
<ellipse fill="none" stroke="black" cx="1097" cy="-286" rx="18" ry="18"/>
<text text-anchor="middle" x="1097" y="-283.5" font-family="Times,serif" font-size="10.00">FeBM</text>
</g>
<!-- BM_RBC_intermediate_r -->
<g id="node78" class="node"><title>BM_RBC_intermediate_r</title>
<ellipse fill="black" stroke="black" cx="1163" cy="-302" rx="0.036" ry="0.036"/>
</g>
<!-- FeBM&#45;&gt;BM_RBC_intermediate_r -->
<g id="edge97" class="edge"><title>FeBM&#45;&gt;BM_RBC_intermediate_r</title>
<path fill="none" stroke="black" d="M1114.82,-290.204C1133.18,-294.796 1160.25,-301.561 1161.92,-301.98"/>
</g>
<!-- BM_Spleen_intermediate_r -->
<g id="node81" class="node"><title>BM_Spleen_intermediate_r</title>
<ellipse fill="black" stroke="black" cx="1365" cy="-269" rx="0.036" ry="0.036"/>
</g>
<!-- FeBM&#45;&gt;BM_Spleen_intermediate_r -->
<g id="edge101" class="edge"><title>FeBM&#45;&gt;BM_Spleen_intermediate_r</title>
<path fill="none" stroke="black" d="M1115.04,-284.911C1172.84,-281.217 1358.09,-269.378 1363.86,-269.009"/>
</g>
<!-- Diet -->
<g id="node13" class="node"><title>Diet</title>
<polygon fill="none" stroke="black" points="104,-71 90,-71 90,-57 104,-57 104,-71"/>
</g>
<!-- Diet_intermediate_p -->
<g id="node15" class="node"><title>Diet_intermediate_p</title>
<ellipse fill="black" stroke="black" cx="140" cy="-64" rx="0.036" ry="0.036"/>
</g>
<!-- Diet&#45;&gt;Diet_intermediate_p -->
<g id="edge2" class="edge"><title>Diet&#45;&gt;Diet_intermediate_p</title>
<path fill="none" stroke="black" d="M104.05,-64C115.098,-64 137.54,-64 138.932,-64"/>
</g>
<!-- Diet_empty -->
<g id="node14" class="node"><title>Diet_empty</title>
<text text-anchor="middle" x="27" y="-60.5" font-family="Times,serif" font-size="15.00" fill="blue">Ø</text>
</g>
<!-- Diet_empty&#45;&gt;Diet -->
<g id="edge1" class="edge"><title>Diet_empty&#45;&gt;Diet</title>
<path fill="none" stroke="black" d="M54.0961,-64C67.13,-64 81.8045,-64 89.8681,-64"/>
</g>
<!-- Diet_intermediate_p&#45;&gt;FeDuo -->
<g id="edge3" class="edge"><title>Diet_intermediate_p&#45;&gt;FeDuo</title>
<path fill="none" stroke="black" d="M141.149,-64C142.568,-64 153.891,-64 165.595,-64"/>
<polygon fill="black" stroke="black" points="165.739,-67.5001 175.739,-64 165.739,-60.5001 165.739,-67.5001"/>
</g>
<!-- HepcidinSynthesis -->
<g id="node16" class="node"><title>HepcidinSynthesis</title>
<polygon fill="none" stroke="black" points="1104,-544 1090,-544 1090,-530 1104,-530 1104,-544"/>
</g>
<!-- HepcidinSynthesis_intermediate_p -->
<g id="node18" class="node"><title>HepcidinSynthesis_intermediate_p</title>
<ellipse fill="black" stroke="black" cx="1163" cy="-537" rx="0.036" ry="0.036"/>
</g>
<!-- HepcidinSynthesis&#45;&gt;HepcidinSynthesis_intermediate_p -->
<g id="edge5" class="edge"><title>HepcidinSynthesis&#45;&gt;HepcidinSynthesis_intermediate_p</title>
<path fill="none" stroke="black" d="M1104.37,-537C1120.05,-537 1159.43,-537 1161.88,-537"/>
</g>
<!-- HepcidinSynthesis_empty -->
<g id="node17" class="node"><title>HepcidinSynthesis_empty</title>
<text text-anchor="middle" x="1005" y="-533.5" font-family="Times,serif" font-size="15.00" fill="blue">Ø</text>
</g>
<!-- HepcidinSynthesis_empty&#45;&gt;HepcidinSynthesis -->
<g id="edge4" class="edge"><title>HepcidinSynthesis_empty&#45;&gt;HepcidinSynthesis</title>
<path fill="none" stroke="black" d="M1032.03,-537C1051.97,-537 1077.98,-537 1089.74,-537"/>
</g>
<!-- HepcidinSynthesis_intermediate_p&#45;&gt;Hepcidin -->
<g id="edge6" class="edge"><title>HepcidinSynthesis_intermediate_p&#45;&gt;Hepcidin</title>
<path fill="none" stroke="black" d="M1164.05,-537C1164.87,-537 1176.77,-537 1190,-537"/>
<polygon fill="black" stroke="black" points="1190.22,-540.5 1200.22,-537 1190.22,-533.5 1190.22,-540.5"/>
</g>
<!-- HepcidinDecay -->
<g id="node19" class="node"><title>HepcidinDecay</title>
<polygon fill="none" stroke="black" points="1372,-570 1358,-570 1358,-556 1372,-556 1372,-570"/>
</g>
<!-- HepcidinDecay_empty -->
<g id="node21" class="node"><title>HepcidinDecay_empty</title>
<text text-anchor="middle" x="1463" y="-564.5" font-family="Times,serif" font-size="15.00" fill="blue">Ø</text>
</g>
<!-- HepcidinDecay&#45;&gt;HepcidinDecay_empty -->
<g id="edge9" class="edge"><title>HepcidinDecay&#45;&gt;HepcidinDecay_empty</title>
<path fill="none" stroke="black" d="M1372.01,-563.313C1382.63,-563.866 1405.52,-565.058 1425.55,-566.102"/>
<polygon fill="black" stroke="black" points="1425.52,-569.605 1435.69,-566.63 1425.88,-562.614 1425.52,-569.605"/>
</g>
<!-- HepcidinDecay_intermediate_r&#45;&gt;HepcidinDecay -->
<g id="edge7" class="edge"><title>HepcidinDecay_intermediate_r&#45;&gt;HepcidinDecay</title>
<path fill="none" stroke="black" d="M1294.05,-554.007C1295.77,-554.228 1340.87,-560.027 1357.73,-562.193"/>
</g>
<!-- Duo_NTBI -->
<g id="node22" class="node"><title>Duo_NTBI</title>
<polygon fill="none" stroke="black" points="300,-344 286,-344 286,-330 300,-330 300,-344"/>
</g>
<!-- Duo_NTBI_intermediate_p -->
<g id="node24" class="node"><title>Duo_NTBI_intermediate_p</title>
<ellipse fill="black" stroke="black" cx="343" cy="-337" rx="0.036" ry="0.036"/>
</g>
<!-- Duo_NTBI&#45;&gt;Duo_NTBI_intermediate_p -->
<g id="edge12" class="edge"><title>Duo_NTBI&#45;&gt;Duo_NTBI_intermediate_p</title>
<path fill="none" stroke="black" d="M300.275,-337C312.88,-337 340.221,-337 341.917,-337"/>
</g>
<!-- Duo_NTBI&#45;&gt;Duo_NTBI_intermediate_m -->
<g id="edge14" class="edge"><title>Duo_NTBI&#45;&gt;Duo_NTBI_intermediate_m</title>
<path fill="none" stroke="black" d="M293.82,-344.097C293.193,-384.431 295.56,-583 403,-583 403,-583 403,-583 1164,-583 1220.08,-583 1289.78,-576.217 1291.95,-576.005"/>
</g>
<!-- Duo_NTBI_intermediate_r&#45;&gt;Duo_NTBI -->
<g id="edge10" class="edge"><title>Duo_NTBI_intermediate_r&#45;&gt;Duo_NTBI</title>
<path fill="none" stroke="black" d="M250.03,-224.082C251.104,-226.969 280.244,-305.372 289.325,-329.803"/>
</g>
<!-- Duo_NTBI_intermediate_p&#45;&gt;NTBI -->
<g id="edge13" class="edge"><title>Duo_NTBI_intermediate_p&#45;&gt;NTBI</title>
<path fill="none" stroke="black" d="M344.169,-337C345.931,-337 361.154,-337 375.671,-337"/>
<polygon fill="black" stroke="black" points="375.915,-340.5 385.915,-337 375.915,-333.5 375.915,-340.5"/>
</g>
<!-- Fe2Tf_BM -->
<g id="node26" class="node"><title>Fe2Tf_BM</title>
<polygon fill="none" stroke="black" points="942,-329 928,-329 928,-315 942,-315 942,-329"/>
</g>
<!-- Fe2Tf_BM_intermediate_p -->
<g id="node28" class="node"><title>Fe2Tf_BM_intermediate_p</title>
<ellipse fill="black" stroke="black" cx="1005" cy="-295" rx="0.036" ry="0.036"/>
</g>
<!-- Fe2Tf_BM&#45;&gt;Fe2Tf_BM_intermediate_p -->
<g id="edge18" class="edge"><title>Fe2Tf_BM&#45;&gt;Fe2Tf_BM_intermediate_p</title>
<path fill="none" stroke="black" d="M942.275,-319.508C958.583,-313.033 1001.22,-296.103 1003.87,-295.051"/>
</g>
<!-- Fe2Tf_BM_intermediate_r&#45;&gt;Fe2Tf_BM -->
<g id="edge16" class="edge"><title>Fe2Tf_BM_intermediate_r&#45;&gt;Fe2Tf_BM</title>
<path fill="none" stroke="black" d="M892.12,-322.997C893.968,-322.953 916.602,-322.414 927.803,-322.148"/>
</g>
<!-- Fe2Tf_BM_intermediate_p&#45;&gt;FeBM -->
<g id="edge19" class="edge"><title>Fe2Tf_BM_intermediate_p&#45;&gt;FeBM</title>
<path fill="none" stroke="black" d="M1006.07,-294.993C1007.78,-294.822 1042.84,-291.316 1068.67,-288.733"/>
<polygon fill="black" stroke="black" points="1069.1,-292.207 1078.71,-287.729 1068.41,-285.242 1069.1,-292.207"/>
</g>
<!-- Fe2Tf_BM_intermediate_p&#45;&gt;Tf -->
<g id="edge20" class="edge"><title>Fe2Tf_BM_intermediate_p&#45;&gt;Tf</title>
<path fill="none" stroke="black" d="M1006.04,-294.992C1006.96,-294.821 1021.78,-291.993 1032,-286 1046.6,-277.438 1060.86,-265.231 1072.2,-254.308"/>
<polygon fill="black" stroke="black" points="1074.92,-256.541 1079.55,-247.013 1069.99,-251.571 1074.92,-256.541"/>
</g>
<!-- RBC_Spleen -->
<g id="node29" class="node"><title>RBC_Spleen</title>
<polygon fill="none" stroke="black" points="1540,-307 1526,-307 1526,-293 1540,-293 1540,-307"/>
</g>
<!-- RBC_Spleen_intermediate_p -->
<g id="node31" class="node"><title>RBC_Spleen_intermediate_p</title>
<ellipse fill="black" stroke="black" cx="1577" cy="-300" rx="0.036" ry="0.036"/>
</g>
<!-- RBC_Spleen&#45;&gt;RBC_Spleen_intermediate_p -->
<g id="edge23" class="edge"><title>RBC_Spleen&#45;&gt;RBC_Spleen_intermediate_p</title>
<path fill="none" stroke="black" d="M1540.2,-300C1551.52,-300 1574.5,-300 1575.93,-300"/>
</g>
<!-- RBC_Spleen_intermediate_r&#45;&gt;RBC_Spleen -->
<g id="edge21" class="edge"><title>RBC_Spleen_intermediate_r&#45;&gt;RBC_Spleen</title>
<path fill="none" stroke="black" d="M1464.05,-300.999C1465.72,-300.975 1509.53,-300.33 1525.91,-300.09"/>
</g>
<!-- RBC_Spleen_intermediate_p&#45;&gt;FeSpleen -->
<g id="edge24" class="edge"><title>RBC_Spleen_intermediate_p&#45;&gt;FeSpleen</title>
<path fill="none" stroke="black" d="M1578.05,-299.988C1578.94,-299.775 1592.08,-296.638 1606.48,-293.199"/>
<polygon fill="black" stroke="black" points="1607.61,-296.528 1616.52,-290.801 1605.98,-289.72 1607.61,-296.528"/>
</g>
<!-- Spleen_NTBI -->
<g id="node32" class="node"><title>Spleen_NTBI</title>
<polygon fill="none" stroke="black" points="1766,-291 1752,-291 1752,-277 1766,-277 1766,-291"/>
</g>
<!-- Spleen_NTBI_intermediate_p -->
<g id="node34" class="node"><title>Spleen_NTBI_intermediate_p</title>
<ellipse fill="black" stroke="black" cx="1802" cy="-220" rx="0.036" ry="0.036"/>
</g>
<!-- Spleen_NTBI&#45;&gt;Spleen_NTBI_intermediate_p -->
<g id="edge27" class="edge"><title>Spleen_NTBI&#45;&gt;Spleen_NTBI_intermediate_p</title>
<path fill="none" stroke="black" d="M1764.7,-276.658C1775.14,-260.373 1799.42,-222.468 1800.93,-220.115"/>
</g>
<!-- Spleen_NTBI&#45;&gt;Spleen_NTBI_intermediate_m -->
<g id="edge29" class="edge"><title>Spleen_NTBI&#45;&gt;Spleen_NTBI_intermediate_m</title>
<path fill="none" stroke="black" d="M1764.7,-291.342C1775.14,-307.627 1799.42,-345.532 1800.93,-347.885"/>
</g>
<!-- Spleen_NTBI_intermediate_r&#45;&gt;Spleen_NTBI -->
<g id="edge25" class="edge"><title>Spleen_NTBI_intermediate_r&#45;&gt;Spleen_NTBI</title>
<path fill="none" stroke="black" d="M1716.12,-284C1717.97,-284 1740.6,-284 1751.8,-284"/>
</g>
<!-- Spleen_NTBI_intermediate_p&#45;&gt;NTBI -->
<g id="edge28" class="edge"><title>Spleen_NTBI_intermediate_p&#45;&gt;NTBI</title>
<path fill="none" stroke="black" d="M1801,-219.873C1801.02,-214.574 1801.12,-45 1716,-45 1004,-45 1004,-45 1004,-45 532.798,-45 583.166,-99.1289 496,-171 451.111,-208.013 424.789,-273.214 412.822,-309.92"/>
<polygon fill="black" stroke="black" points="409.344,-309.314 409.693,-319.903 416.023,-311.407 409.344,-309.314"/>
</g>
<!-- Liver_NTBI -->
<g id="node36" class="node"><title>Liver_NTBI</title>
<polygon fill="none" stroke="black" points="1235,-501 1221,-501 1221,-487 1235,-487 1235,-501"/>
</g>
<!-- Liver_NTBI_intermediate_p -->
<g id="node38" class="node"><title>Liver_NTBI_intermediate_p</title>
<ellipse fill="black" stroke="black" cx="1293" cy="-467" rx="0.036" ry="0.036"/>
</g>
<!-- Liver_NTBI&#45;&gt;Liver_NTBI_intermediate_p -->
<g id="edge33" class="edge"><title>Liver_NTBI&#45;&gt;Liver_NTBI_intermediate_p</title>
<path fill="none" stroke="black" d="M1235.27,-491.312C1250.71,-484.697 1289.47,-468.082 1291.88,-467.05"/>
</g>
<!-- Liver_NTBI&#45;&gt;Liver_NTBI_intermediate_m -->
<g id="edge35" class="edge"><title>Liver_NTBI&#45;&gt;Liver_NTBI_intermediate_m</title>
<path fill="none" stroke="black" d="M1235.27,-494C1250.71,-494 1289.47,-494 1291.88,-494"/>
</g>
<!-- Liver_NTBI_intermediate_r&#45;&gt;Liver_NTBI -->
<g id="edge31" class="edge"><title>Liver_NTBI_intermediate_r&#45;&gt;Liver_NTBI</title>
<path fill="none" stroke="black" d="M1164.05,-491.002C1165.58,-491.075 1205.41,-492.972 1220.91,-493.71"/>
</g>
<!-- Liver_NTBI_intermediate_p&#45;&gt;NTBI -->
<g id="edge34" class="edge"><title>Liver_NTBI_intermediate_p&#45;&gt;NTBI</title>
<path fill="none" stroke="black" d="M1291.95,-466.994C1289.78,-466.752 1220.11,-459 1164,-459 502,-459 502,-459 502,-459 453.852,-459 425.774,-400.061 413.127,-364.115"/>
<polygon fill="black" stroke="black" points="416.311,-362.601 409.828,-354.221 409.671,-364.815 416.311,-362.601"/>
</g>
<!-- NTBI_Fe1Tf -->
<g id="node40" class="node"><title>NTBI_Fe1Tf</title>
<polygon fill="none" stroke="black" points="510,-298 496,-298 496,-284 510,-284 510,-298"/>
</g>
<!-- NTBI_Fe1Tf_intermediate_p -->
<g id="node42" class="node"><title>NTBI_Fe1Tf_intermediate_p</title>
<ellipse fill="black" stroke="black" cx="547" cy="-291" rx="0.036" ry="0.036"/>
</g>
<!-- NTBI_Fe1Tf&#45;&gt;NTBI_Fe1Tf_intermediate_p -->
<g id="edge40" class="edge"><title>NTBI_Fe1Tf&#45;&gt;NTBI_Fe1Tf_intermediate_p</title>
<path fill="none" stroke="black" d="M510.197,-291C521.515,-291 544.505,-291 545.93,-291"/>
</g>
<!-- NTBI_Fe1Tf_intermediate_r&#45;&gt;NTBI_Fe1Tf -->
<g id="edge37" class="edge"><title>NTBI_Fe1Tf_intermediate_r&#45;&gt;NTBI_Fe1Tf</title>
<path fill="none" stroke="black" d="M460.12,-291C461.968,-291 484.602,-291 495.803,-291"/>
</g>
<!-- NTBI_Fe1Tf_intermediate_p&#45;&gt;Fe1Tf -->
<g id="edge41" class="edge"><title>NTBI_Fe1Tf_intermediate_p&#45;&gt;Fe1Tf</title>
<path fill="none" stroke="black" d="M548.045,-291C548.863,-291 560.734,-291 573.87,-291"/>
<polygon fill="black" stroke="black" points="573.998,-294.5 583.998,-291 573.998,-287.5 573.998,-294.5"/>
</g>
<!-- DuoLoss -->
<g id="node43" class="node"><title>DuoLoss</title>
<polygon fill="none" stroke="black" points="350,-14 336,-14 336,-0 350,-0 350,-14"/>
</g>
<!-- DuoLoss_intermediate_p -->
<g id="node45" class="node"><title>DuoLoss_intermediate_p</title>
<ellipse fill="black" stroke="black" cx="404" cy="-7" rx="0.036" ry="0.036"/>
</g>
<!-- DuoLoss&#45;&gt;DuoLoss_intermediate_p -->
<g id="edge44" class="edge"><title>DuoLoss&#45;&gt;DuoLoss_intermediate_p</title>
<path fill="none" stroke="black" d="M350.314,-7C365.059,-7 400.68,-7 402.892,-7"/>
</g>
<!-- DuoLoss_intermediate_r&#45;&gt;DuoLoss -->
<g id="edge42" class="edge"><title>DuoLoss_intermediate_r&#45;&gt;DuoLoss</title>
<path fill="none" stroke="black" d="M294.138,-7C296.293,-7 323.204,-7 335.7,-7"/>
</g>
<!-- DuoLoss_intermediate_p&#45;&gt;FeOutside -->
<g id="edge45" class="edge"><title>DuoLoss_intermediate_p&#45;&gt;FeOutside</title>
<path fill="none" stroke="black" d="M405.156,-7C408.358,-7 460.236,-7 502,-7 502,-7 502,-7 1098,-7 1187.83,-7 1285.31,-55.6478 1333.49,-83.3187"/>
<polygon fill="black" stroke="black" points="1331.78,-86.3703 1342.18,-88.3888 1335.3,-80.3249 1331.78,-86.3703"/>
</g>
<!-- Fe2Tf_Liver -->
<g id="node46" class="node"><title>Fe2Tf_Liver</title>
<polygon fill="none" stroke="black" points="942,-361 928,-361 928,-347 942,-347 942,-361"/>
</g>
<!-- Fe2Tf_Liver_intermediate_p -->
<g id="node48" class="node"><title>Fe2Tf_Liver_intermediate_p</title>
<ellipse fill="black" stroke="black" cx="1005" cy="-354" rx="0.036" ry="0.036"/>
</g>
<!-- Fe2Tf_Liver&#45;&gt;Fe2Tf_Liver_intermediate_p -->
<g id="edge48" class="edge"><title>Fe2Tf_Liver&#45;&gt;Fe2Tf_Liver_intermediate_p</title>
<path fill="none" stroke="black" d="M942.275,-354C958.583,-354 1001.22,-354 1003.87,-354"/>
</g>
<!-- Fe2Tf_Liver_intermediate_r&#45;&gt;Fe2Tf_Liver -->
<g id="edge46" class="edge"><title>Fe2Tf_Liver_intermediate_r&#45;&gt;Fe2Tf_Liver</title>
<path fill="none" stroke="black" d="M892.12,-348.017C893.968,-348.281 916.602,-351.515 927.803,-353.115"/>
</g>
<!-- Fe2Tf_Liver_intermediate_p&#45;&gt;FeLiver -->
<g id="edge49" class="edge"><title>Fe2Tf_Liver_intermediate_p&#45;&gt;FeLiver</title>
<path fill="none" stroke="black" d="M1006.07,-354.014C1007.6,-354.355 1035.92,-360.648 1060.37,-366.083"/>
<polygon fill="black" stroke="black" points="1059.66,-369.509 1070.18,-368.262 1061.18,-362.676 1059.66,-369.509"/>
</g>
<!-- Fe2Tf_Liver_intermediate_p&#45;&gt;Tf -->
<g id="edge50" class="edge"><title>Fe2Tf_Liver_intermediate_p&#45;&gt;Tf</title>
<path fill="none" stroke="black" d="M1006.09,-353.84C1007.93,-350.558 1037.88,-297.448 1068,-259 1069.06,-257.651 1070.16,-256.29 1071.3,-254.932"/>
<polygon fill="black" stroke="black" points="1074.05,-257.107 1078.01,-247.28 1068.78,-252.493 1074.05,-257.107"/>
</g>
<!-- Fe2Tf_Rest -->
<g id="node49" class="node"><title>Fe2Tf_Rest</title>
<polygon fill="none" stroke="black" points="942,-157 928,-157 928,-143 942,-143 942,-157"/>
</g>
<!-- Fe2Tf_Rest_intermediate_p -->
<g id="node51" class="node"><title>Fe2Tf_Rest_intermediate_p</title>
<ellipse fill="black" stroke="black" cx="1005" cy="-118" rx="0.036" ry="0.036"/>
</g>
<!-- Fe2Tf_Rest&#45;&gt;Fe2Tf_Rest_intermediate_p -->
<g id="edge53" class="edge"><title>Fe2Tf_Rest&#45;&gt;Fe2Tf_Rest_intermediate_p</title>
<path fill="none" stroke="black" d="M942.275,-147.047C958.583,-139.373 1001.22,-119.307 1003.87,-118.061"/>
</g>
<!-- Fe2Tf_Rest_intermediate_r&#45;&gt;Fe2Tf_Rest -->
<g id="edge51" class="edge"><title>Fe2Tf_Rest_intermediate_r&#45;&gt;Fe2Tf_Rest</title>
<path fill="none" stroke="black" d="M892.03,-246.93C893.089,-244.486 921.44,-179.007 930.935,-157.079"/>
</g>
<!-- Fe2Tf_Rest_intermediate_p&#45;&gt;FeRest -->
<g id="edge54" class="edge"><title>Fe2Tf_Rest_intermediate_p&#45;&gt;FeRest</title>
<path fill="none" stroke="black" d="M1006.07,-118C1007.58,-118 1035.33,-118 1059.6,-118"/>
<polygon fill="black" stroke="black" points="1059.7,-121.5 1069.7,-118 1059.7,-114.5 1059.7,-121.5"/>
</g>
<!-- Fe2Tf_Rest_intermediate_p&#45;&gt;Tf -->
<g id="edge55" class="edge"><title>Fe2Tf_Rest_intermediate_p&#45;&gt;Tf</title>
<path fill="none" stroke="black" d="M1006.05,-118.015C1007.01,-118.325 1022.62,-123.42 1032,-132 1053.82,-151.954 1071.63,-180.851 1082.87,-201.913"/>
<polygon fill="black" stroke="black" points="1079.86,-203.707 1087.57,-210.978 1086.08,-200.489 1079.86,-203.707"/>
</g>
<!-- RestLoss -->
<g id="node52" class="node"><title>RestLoss</title>
<polygon fill="none" stroke="black" points="1235,-125 1221,-125 1221,-111 1235,-111 1235,-125"/>
</g>
<!-- RestLoss_intermediate_p -->
<g id="node54" class="node"><title>RestLoss_intermediate_p</title>
<ellipse fill="black" stroke="black" cx="1293" cy="-114" rx="0.036" ry="0.036"/>
</g>
<!-- RestLoss&#45;&gt;RestLoss_intermediate_p -->
<g id="edge58" class="edge"><title>RestLoss&#45;&gt;RestLoss_intermediate_p</title>
<path fill="none" stroke="black" d="M1235.27,-117.602C1250.71,-116.622 1289.47,-114.16 1291.88,-114.007"/>
</g>
<!-- RestLoss_intermediate_r&#45;&gt;RestLoss -->
<g id="edge56" class="edge"><title>RestLoss_intermediate_r&#45;&gt;RestLoss</title>
<path fill="none" stroke="black" d="M1164.05,-118C1165.58,-118 1205.41,-118 1220.91,-118"/>
</g>
<!-- RestLoss_intermediate_p&#45;&gt;FeOutside -->
<g id="edge59" class="edge"><title>RestLoss_intermediate_p&#45;&gt;FeOutside</title>
<path fill="none" stroke="black" d="M1294.05,-113.991C1294.95,-113.838 1307.55,-111.677 1321.82,-109.231"/>
<polygon fill="black" stroke="black" points="1322.57,-112.653 1331.84,-107.514 1321.39,-105.754 1322.57,-112.653"/>
</g>
<!-- Fe2Tf_Duo -->
<g id="node55" class="node"><title>Fe2Tf_Duo</title>
<polygon fill="none" stroke="black" points="942,-265 928,-265 928,-251 942,-251 942,-265"/>
</g>
<!-- Fe2Tf_Duo_intermediate_p -->
<g id="node57" class="node"><title>Fe2Tf_Duo_intermediate_p</title>
<ellipse fill="black" stroke="black" cx="1005" cy="-229" rx="0.036" ry="0.036"/>
</g>
<!-- Fe2Tf_Duo&#45;&gt;Fe2Tf_Duo_intermediate_p -->
<g id="edge62" class="edge"><title>Fe2Tf_Duo&#45;&gt;Fe2Tf_Duo_intermediate_p</title>
<path fill="none" stroke="black" d="M942.275,-255.324C958.583,-248.369 1001.22,-230.185 1003.87,-229.055"/>
</g>
<!-- Fe2Tf_Duo_intermediate_r&#45;&gt;Fe2Tf_Duo -->
<g id="edge60" class="edge"><title>Fe2Tf_Duo_intermediate_r&#45;&gt;Fe2Tf_Duo</title>
<path fill="none" stroke="black" d="M892.12,-264.98C893.968,-264.672 916.602,-260.9 927.803,-259.033"/>
</g>
<!-- Fe2Tf_Duo_intermediate_p&#45;&gt;FeDuo -->
<g id="edge63" class="edge"><title>Fe2Tf_Duo_intermediate_p&#45;&gt;FeDuo</title>
<path fill="none" stroke="black" d="M1003.92,-228.994C1000.44,-228.744 888.496,-220.632 800,-205 782.908,-201.981 778.46,-201.504 762,-196 643.278,-156.303 629.183,-83 504,-83 292,-83 292,-83 292,-83 267.563,-83 240.297,-77.1206 220.912,-71.903"/>
<polygon fill="black" stroke="black" points="221.86,-68.5339 211.286,-69.1918 219.963,-75.2718 221.86,-68.5339"/>
</g>
<!-- Fe2Tf_Duo_intermediate_p&#45;&gt;Tf -->
<g id="edge64" class="edge"><title>Fe2Tf_Duo_intermediate_p&#45;&gt;Tf</title>
<path fill="none" stroke="black" d="M1006.07,-229C1007.58,-229 1035.33,-229 1059.6,-229"/>
<polygon fill="black" stroke="black" points="1059.7,-232.5 1069.7,-229 1059.7,-225.5 1059.7,-232.5"/>
</g>
<!-- Rest_NTBI -->
<g id="node58" class="node"><title>Rest_NTBI</title>
<polygon fill="none" stroke="black" points="1235,-393 1221,-393 1221,-379 1235,-379 1235,-393"/>
</g>
<!-- Rest_NTBI_intermediate_p -->
<g id="node60" class="node"><title>Rest_NTBI_intermediate_p</title>
<ellipse fill="black" stroke="black" cx="1293" cy="-399" rx="0.036" ry="0.036"/>
</g>
<!-- Rest_NTBI&#45;&gt;Rest_NTBI_intermediate_p -->
<g id="edge67" class="edge"><title>Rest_NTBI&#45;&gt;Rest_NTBI_intermediate_p</title>
<path fill="none" stroke="black" d="M1235.27,-387.294C1250.71,-390.479 1289.47,-398.479 1291.88,-398.976"/>
</g>
<!-- Rest_NTBI&#45;&gt;Rest_NTBI_intermediate_m -->
<g id="edge69" class="edge"><title>Rest_NTBI&#45;&gt;Rest_NTBI_intermediate_m</title>
<path fill="none" stroke="black" d="M1235.27,-390.877C1250.71,-402.884 1289.47,-433.036 1291.88,-434.909"/>
</g>
<!-- Rest_NTBI_intermediate_r&#45;&gt;Rest_NTBI -->
<g id="edge65" class="edge"><title>Rest_NTBI_intermediate_r&#45;&gt;Rest_NTBI</title>
<path fill="none" stroke="black" d="M1164.01,-199.05C1164.54,-201.143 1181.42,-268.541 1200,-321 1207.59,-342.425 1218.4,-367.03 1223.75,-378.884"/>
</g>
<!-- Rest_NTBI_intermediate_p&#45;&gt;NTBI -->
<g id="edge68" class="edge"><title>Rest_NTBI_intermediate_p&#45;&gt;NTBI</title>
<path fill="none" stroke="black" d="M1291.95,-399.016C1289.81,-399.682 1220.82,-421 1164,-421 502,-421 502,-421 502,-421 465.097,-421 435.336,-385.827 418.927,-361.001"/>
<polygon fill="black" stroke="black" points="421.798,-358.991 413.497,-352.407 415.88,-362.73 421.798,-358.991"/>
</g>
<!-- Fe1Tf_Fe2Tf -->
<g id="node62" class="node"><title>Fe1Tf_Fe2Tf</title>
<polygon fill="none" stroke="black" points="726,-344 712,-344 712,-330 726,-330 726,-344"/>
</g>
<!-- Fe1Tf_Fe2Tf_intermediate_p -->
<g id="node64" class="node"><title>Fe1Tf_Fe2Tf_intermediate_p</title>
<ellipse fill="black" stroke="black" cx="763" cy="-337" rx="0.036" ry="0.036"/>
</g>
<!-- Fe1Tf_Fe2Tf&#45;&gt;Fe1Tf_Fe2Tf_intermediate_p -->
<g id="edge74" class="edge"><title>Fe1Tf_Fe2Tf&#45;&gt;Fe1Tf_Fe2Tf_intermediate_p</title>
<path fill="none" stroke="black" d="M726.197,-337C737.515,-337 760.505,-337 761.93,-337"/>
</g>
<!-- Fe1Tf_Fe2Tf_intermediate_r&#45;&gt;Fe1Tf_Fe2Tf -->
<g id="edge71" class="edge"><title>Fe1Tf_Fe2Tf_intermediate_r&#45;&gt;Fe1Tf_Fe2Tf</title>
<path fill="none" stroke="black" d="M676.12,-337C677.968,-337 700.602,-337 711.803,-337"/>
</g>
<!-- Fe1Tf_Fe2Tf_intermediate_p&#45;&gt;Fe2Tf -->
<g id="edge75" class="edge"><title>Fe1Tf_Fe2Tf_intermediate_p&#45;&gt;Fe2Tf</title>
<path fill="none" stroke="black" d="M764.045,-337C764.863,-337 776.734,-337 789.87,-337"/>
<polygon fill="black" stroke="black" points="789.998,-340.5 799.998,-337 789.998,-333.5 789.998,-340.5"/>
</g>
<!-- Fe1Tf_Liver -->
<g id="node65" class="node"><title>Fe1Tf_Liver</title>
<polygon fill="none" stroke="black" points="942,-393 928,-393 928,-379 942,-379 942,-393"/>
</g>
<!-- Fe1Tf_Liver_intermediate_p -->
<g id="node67" class="node"><title>Fe1Tf_Liver_intermediate_p</title>
<ellipse fill="black" stroke="black" cx="1005" cy="-374" rx="0.036" ry="0.036"/>
</g>
<!-- Fe1Tf_Liver&#45;&gt;Fe1Tf_Liver_intermediate_p -->
<g id="edge78" class="edge"><title>Fe1Tf_Liver&#45;&gt;Fe1Tf_Liver_intermediate_p</title>
<path fill="none" stroke="black" d="M942.275,-384.893C958.583,-382.015 1001.22,-374.49 1003.87,-374.023"/>
</g>
<!-- Fe1Tf_Liver_intermediate_r&#45;&gt;Fe1Tf_Liver -->
<g id="edge76" class="edge"><title>Fe1Tf_Liver_intermediate_r&#45;&gt;Fe1Tf_Liver</title>
<path fill="none" stroke="black" d="M676.028,-319.046C677.201,-320.984 715.1,-383 762,-383 762,-383 762,-383 828,-383 865.925,-383 911.452,-384.943 927.789,-385.701"/>
</g>
<!-- Fe1Tf_Liver_intermediate_p&#45;&gt;FeLiver -->
<g id="edge79" class="edge"><title>Fe1Tf_Liver_intermediate_p&#45;&gt;FeLiver</title>
<path fill="none" stroke="black" d="M1006.07,-374C1007.56,-374 1034.31,-374 1058.26,-374"/>
<polygon fill="black" stroke="black" points="1058.26,-377.5 1068.26,-374 1058.26,-370.5 1058.26,-377.5"/>
</g>
<!-- Fe1Tf_Liver_intermediate_p&#45;&gt;Tf -->
<g id="edge80" class="edge"><title>Fe1Tf_Liver_intermediate_p&#45;&gt;Tf</title>
<path fill="none" stroke="black" d="M1006.05,-373.994C1007.08,-373.878 1023.7,-371.878 1032,-363 1065.41,-327.274 1042.76,-300.901 1068,-259 1068.78,-257.703 1069.63,-256.415 1070.52,-255.143"/>
<polygon fill="black" stroke="black" points="1073.45,-257.072 1076.92,-247.06 1067.97,-252.724 1073.45,-257.072"/>
</g>
<!-- Fe1Tf_BM -->
<g id="node68" class="node"><title>Fe1Tf_BM</title>
<polygon fill="none" stroke="black" points="942,-297 928,-297 928,-283 942,-283 942,-297"/>
</g>
<!-- Fe1Tf_BM_intermediate_p -->
<g id="node70" class="node"><title>Fe1Tf_BM_intermediate_p</title>
<ellipse fill="black" stroke="black" cx="1005" cy="-277" rx="0.036" ry="0.036"/>
</g>
<!-- Fe1Tf_BM&#45;&gt;Fe1Tf_BM_intermediate_p -->
<g id="edge83" class="edge"><title>Fe1Tf_BM&#45;&gt;Fe1Tf_BM_intermediate_p</title>
<path fill="none" stroke="black" d="M942.275,-288.8C958.583,-285.683 1001.22,-277.531 1003.87,-277.025"/>
</g>
<!-- Fe1Tf_BM_intermediate_r&#45;&gt;Fe1Tf_BM -->
<g id="edge81" class="edge"><title>Fe1Tf_BM_intermediate_r&#45;&gt;Fe1Tf_BM</title>
<path fill="none" stroke="black" d="M720.155,-290.999C725.952,-290.972 892.494,-290.194 927.559,-290.03"/>
</g>
<!-- Fe1Tf_BM_intermediate_p&#45;&gt;FeBM -->
<g id="edge84" class="edge"><title>Fe1Tf_BM_intermediate_p&#45;&gt;FeBM</title>
<path fill="none" stroke="black" d="M1006.07,-277.007C1007.78,-277.178 1042.84,-280.684 1068.67,-283.267"/>
<polygon fill="black" stroke="black" points="1068.41,-286.758 1078.71,-284.271 1069.1,-279.793 1068.41,-286.758"/>
</g>
<!-- Fe1Tf_BM_intermediate_p&#45;&gt;Tf -->
<g id="edge85" class="edge"><title>Fe1Tf_BM_intermediate_p&#45;&gt;Tf</title>
<path fill="none" stroke="black" d="M1006.07,-276.965C1007.6,-276.145 1036.07,-260.961 1060.57,-247.895"/>
<polygon fill="black" stroke="black" points="1062.53,-250.819 1069.7,-243.025 1059.23,-244.642 1062.53,-250.819"/>
</g>
<!-- Fe1Tf_Rest -->
<g id="node71" class="node"><title>Fe1Tf_Rest</title>
<polygon fill="none" stroke="black" points="942,-87 928,-87 928,-73 942,-73 942,-87"/>
</g>
<!-- Fe1Tf_Rest_intermediate_p -->
<g id="node73" class="node"><title>Fe1Tf_Rest_intermediate_p</title>
<ellipse fill="black" stroke="black" cx="1005" cy="-100" rx="0.036" ry="0.036"/>
</g>
<!-- Fe1Tf_Rest&#45;&gt;Fe1Tf_Rest_intermediate_p -->
<g id="edge88" class="edge"><title>Fe1Tf_Rest&#45;&gt;Fe1Tf_Rest_intermediate_p</title>
<path fill="none" stroke="black" d="M942.275,-81.8457C958.583,-86.6422 1001.22,-99.1829 1003.87,-99.962"/>
</g>
<!-- Fe1Tf_Rest_intermediate_r&#45;&gt;Fe1Tf_Rest -->
<g id="edge86" class="edge"><title>Fe1Tf_Rest_intermediate_r&#45;&gt;Fe1Tf_Rest</title>
<path fill="none" stroke="black" d="M828.077,-109.978C830.81,-109.205 905.699,-88.0096 927.872,-81.7344"/>
</g>
<!-- Fe1Tf_Rest_intermediate_p&#45;&gt;FeRest -->
<g id="edge89" class="edge"><title>Fe1Tf_Rest_intermediate_p&#45;&gt;FeRest</title>
<path fill="none" stroke="black" d="M1006.07,-100.013C1007.61,-100.322 1036.26,-106.053 1060.82,-110.964"/>
<polygon fill="black" stroke="black" points="1060.16,-114.401 1070.65,-112.931 1061.53,-107.537 1060.16,-114.401"/>
</g>
<!-- Fe1Tf_Rest_intermediate_p&#45;&gt;Tf -->
<g id="edge90" class="edge"><title>Fe1Tf_Rest_intermediate_p&#45;&gt;Tf</title>
<path fill="none" stroke="black" d="M1006.05,-100.003C1007.04,-100.073 1022.99,-101.305 1032,-109 1060.65,-133.48 1078.45,-174.081 1087.8,-201.185"/>
<polygon fill="black" stroke="black" points="1084.53,-202.441 1090.97,-210.851 1091.18,-200.258 1084.53,-202.441"/>
</g>
<!-- Fe1Tf_Duo -->
<g id="node74" class="node"><title>Fe1Tf_Duo</title>
<polygon fill="none" stroke="black" points="726,-247 712,-247 712,-233 726,-233 726,-247"/>
</g>
<!-- Fe1Tf_Duo_intermediate_p -->
<g id="node76" class="node"><title>Fe1Tf_Duo_intermediate_p</title>
<ellipse fill="black" stroke="black" cx="763" cy="-187" rx="0.036" ry="0.036"/>
</g>
<!-- Fe1Tf_Duo&#45;&gt;Fe1Tf_Duo_intermediate_p -->
<g id="edge93" class="edge"><title>Fe1Tf_Duo&#45;&gt;Fe1Tf_Duo_intermediate_p</title>
<path fill="none" stroke="black" d="M725.84,-232.631C737.02,-218.523 760.474,-188.926 761.929,-187.09"/>
</g>
<!-- Fe1Tf_Duo_intermediate_r&#45;&gt;Fe1Tf_Duo -->
<g id="edge91" class="edge"><title>Fe1Tf_Duo_intermediate_r&#45;&gt;Fe1Tf_Duo</title>
<path fill="none" stroke="black" d="M676.12,-254.957C677.968,-254.297 700.602,-246.214 711.803,-242.213"/>
</g>
<!-- Fe1Tf_Duo_intermediate_p&#45;&gt;FeDuo -->
<g id="edge94" class="edge"><title>Fe1Tf_Duo_intermediate_p&#45;&gt;FeDuo</title>
<path fill="none" stroke="black" d="M761.991,-186.897C761.603,-182.597 748.63,-45 676,-45 292,-45 292,-45 292,-45 267.563,-45 240.297,-50.8794 220.912,-56.097"/>
<polygon fill="black" stroke="black" points="219.963,-52.7282 211.286,-58.8082 221.86,-59.4661 219.963,-52.7282"/>
</g>
<!-- Fe1Tf_Duo_intermediate_p&#45;&gt;Tf -->
<g id="edge95" class="edge"><title>Fe1Tf_Duo_intermediate_p&#45;&gt;Tf</title>
<path fill="none" stroke="black" d="M764.108,-187.013C768.65,-187.541 914.878,-204.555 1032,-220 1041.05,-221.194 1050.82,-222.538 1059.92,-223.816"/>
<polygon fill="black" stroke="black" points="1059.47,-227.286 1069.86,-225.22 1060.45,-220.355 1059.47,-227.286"/>
</g>
<!-- BM_RBC -->
<g id="node77" class="node"><title>BM_RBC</title>
<polygon fill="none" stroke="black" points="1235,-312 1221,-312 1221,-298 1235,-298 1235,-312"/>
</g>
<!-- BM_RBC_intermediate_p -->
<g id="node79" class="node"><title>BM_RBC_intermediate_p</title>
<ellipse fill="black" stroke="black" cx="1293" cy="-305" rx="0.036" ry="0.036"/>
</g>
<!-- BM_RBC&#45;&gt;BM_RBC_intermediate_p -->
<g id="edge98" class="edge"><title>BM_RBC&#45;&gt;BM_RBC_intermediate_p</title>
<path fill="none" stroke="black" d="M1235.27,-305C1250.71,-305 1289.47,-305 1291.88,-305"/>
</g>
<!-- BM_RBC_intermediate_r&#45;&gt;BM_RBC -->
<g id="edge96" class="edge"><title>BM_RBC_intermediate_r&#45;&gt;BM_RBC</title>
<path fill="none" stroke="black" d="M1164.05,-302.002C1165.58,-302.075 1205.41,-303.972 1220.91,-304.71"/>
</g>
<!-- BM_RBC_intermediate_p&#45;&gt;FeRBC -->
<g id="edge99" class="edge"><title>BM_RBC_intermediate_p&#45;&gt;FeRBC</title>
<path fill="none" stroke="black" d="M1294.05,-305C1295.25,-305 1317.57,-305 1336.68,-305"/>
<polygon fill="black" stroke="black" points="1336.81,-308.5 1346.81,-305 1336.81,-301.5 1336.81,-308.5"/>
</g>
<!-- BM_Spleen -->
<g id="node80" class="node"><title>BM_Spleen</title>
<polygon fill="none" stroke="black" points="1470,-276 1456,-276 1456,-262 1470,-262 1470,-276"/>
</g>
<!-- BM_Spleen_intermediate_p -->
<g id="node82" class="node"><title>BM_Spleen_intermediate_p</title>
<ellipse fill="black" stroke="black" cx="1533" cy="-269" rx="0.036" ry="0.036"/>
</g>
<!-- BM_Spleen&#45;&gt;BM_Spleen_intermediate_p -->
<g id="edge102" class="edge"><title>BM_Spleen&#45;&gt;BM_Spleen_intermediate_p</title>
<path fill="none" stroke="black" d="M1470.28,-269C1486.58,-269 1529.22,-269 1531.87,-269"/>
</g>
<!-- BM_Spleen_intermediate_r&#45;&gt;BM_Spleen -->
<g id="edge100" class="edge"><title>BM_Spleen_intermediate_r&#45;&gt;BM_Spleen</title>
<path fill="none" stroke="black" d="M1366.07,-269C1368.52,-269 1435.13,-269 1455.89,-269"/>
</g>
<!-- BM_Spleen_intermediate_p&#45;&gt;FeSpleen -->
<g id="edge103" class="edge"><title>BM_Spleen_intermediate_p&#45;&gt;FeSpleen</title>
<path fill="none" stroke="black" d="M1534.08,-269.011C1536.05,-269.277 1573.81,-274.38 1604.73,-278.559"/>
<polygon fill="black" stroke="black" points="1604.52,-282.061 1614.9,-279.932 1605.46,-275.124 1604.52,-282.061"/>
</g>
</g>
</svg>
