<?xml version="1.0" encoding="UTF-8" standalone="no"?>
<!DOCTYPE svg PUBLIC "-//W3C//DTD SVG 1.1//EN"
 "http://www.w3.org/Graphics/SVG/1.1/DTD/svg11.dtd">
<!-- Generated by graphviz version 2.30.1 (20140821.0912)
 -->
<!-- Title: G Pages: 1 -->
<svg width="3168pt" height="732pt"
 viewBox="0.00 0.00 3168.00 732.00" xmlns="http://www.w3.org/2000/svg" xmlns:xlink="http://www.w3.org/1999/xlink">
<g id="graph0" class="graph" transform="scale(1 1) rotate(0) translate(4 728)">
<title>G</title>
<polygon fill="white" stroke="white" points="-4,5 -4,-728 3165,-728 3165,5 -4,5"/>
<!-- species_1 -->
<g id="species_1 [CHEBI:32816]" class="node"><title>species_1</title>
<ellipse fill="none" stroke="black" cx="899" cy="-706" rx="31.3996" ry="18"/>
<text text-anchor="middle" x="899" y="-703.5" font-family="Times,serif" font-size="10.00">pyruvate</text>
</g>
<!-- vPT_intermediate_r -->
<g id="node57" class="node"><title>vPT_intermediate_r</title>
<ellipse fill="black" stroke="black" cx="993" cy="-706" rx="0.036" ry="0.036"/>
</g>
<!-- species_1&#45;&gt;vPT_intermediate_r -->
<g id="edge51" class="edge"><title>species_1&#45;&gt;vPT_intermediate_r</title>
<path fill="none" stroke="black" d="M930.379,-706C956.339,-706 989.831,-706 991.899,-706"/>
</g>
<!-- species_2 -->
<g id="species_2 [CHEBI:16761]" class="node"><title>species_2</title>
<ellipse fill="none" stroke="black" cx="1207" cy="-609" rx="18" ry="18"/>
<text text-anchor="middle" x="1207" y="-606.5" font-family="Times,serif" font-size="10.00">adpc</text>
</g>
<!-- vPK_intermediate_r -->
<g id="node63" class="node"><title>vPK_intermediate_r</title>
<ellipse fill="black" stroke="black" cx="1311" cy="-609" rx="0.036" ry="0.036"/>
</g>
<!-- species_2&#45;&gt;vPK_intermediate_r -->
<g id="edge62" class="edge"><title>species_2&#45;&gt;vPK_intermediate_r</title>
<path fill="none" stroke="black" d="M1225.3,-609C1253.49,-609 1306.55,-609 1309.84,-609"/>
</g>
<!-- species_3 -->
<g id="species_3 [CHEBI:15422]" class="node"><title>species_3</title>
<ellipse fill="none" stroke="black" cx="899" cy="-614" rx="18" ry="18"/>
<text text-anchor="middle" x="899" y="-611.5" font-family="Times,serif" font-size="10.00">atpc</text>
</g>
<!-- vAU_intermediate_r -->
<g id="node66" class="node"><title>vAU_intermediate_r</title>
<ellipse fill="black" stroke="black" cx="993" cy="-614" rx="0.036" ry="0.036"/>
</g>
<!-- species_3&#45;&gt;vAU_intermediate_r -->
<g id="edge67" class="edge"><title>species_3&#45;&gt;vAU_intermediate_r</title>
<path fill="none" stroke="black" d="M917.304,-614C943.122,-614 989.018,-614 991.861,-614"/>
</g>
<!-- vAKc_intermediate_r -->
<g id="node78" class="node"><title>vAKc_intermediate_r</title>
<ellipse fill="black" stroke="black" cx="993" cy="-582" rx="0.036" ry="0.036"/>
</g>
<!-- species_3&#45;&gt;vAKc_intermediate_r -->
<g id="edge85" class="edge"><title>species_3&#45;&gt;vAKc_intermediate_r</title>
<path fill="none" stroke="black" d="M916.448,-608.279C942.083,-599.362 988.954,-583.059 991.858,-582.049"/>
</g>
<!-- species_4 -->
<g id="species_4 [CHEBI:18021]" class="node"><title>species_4</title>
<ellipse fill="none" stroke="black" cx="1207" cy="-531" rx="62.2967" ry="18"/>
<text text-anchor="middle" x="1207" y="-528.5" font-family="Times,serif" font-size="10.00">phosphoenolpyruvate</text>
</g>
<!-- species_4&#45;&gt;vPK_intermediate_r -->
<g id="edge61" class="edge"><title>species_4&#45;&gt;vPK_intermediate_r</title>
<path fill="none" stroke="black" d="M1230.13,-547.925C1259.19,-570.148 1306.9,-606.631 1309.86,-608.89"/>
</g>
<!-- species_5 -->
<g id="species_5 [CHEBI:17835]" class="node"><title>species_5</title>
<ellipse fill="none" stroke="black" cx="899" cy="-506" rx="55.8461" ry="18"/>
<text text-anchor="middle" x="899" y="-503.5" font-family="Times,serif" font-size="10.00">2phosphoglycerate</text>
</g>
<!-- vENO_intermediate_r -->
<g id="node75" class="node"><title>vENO_intermediate_r</title>
<ellipse fill="black" stroke="black" cx="993" cy="-517" rx="0.036" ry="0.036"/>
</g>
<!-- species_5&#45;&gt;vENO_intermediate_r -->
<g id="edge81" class="edge"><title>species_5&#45;&gt;vENO_intermediate_r</title>
<path fill="none" stroke="black" d="M951.647,-512.175C971.963,-514.604 990.787,-516.855 991.944,-516.993"/>
</g>
<!-- species_6 -->
<g id="species_6 [CHEBI:16027]" class="node"><title>species_6</title>
<ellipse fill="none" stroke="black" cx="899" cy="-560" rx="18" ry="18"/>
<text text-anchor="middle" x="899" y="-557.5" font-family="Times,serif" font-size="10.00">ampc</text>
</g>
<!-- species_6&#45;&gt;vAKc_intermediate_r -->
<g id="edge86" class="edge"><title>species_6&#45;&gt;vAKc_intermediate_r</title>
<path fill="none" stroke="black" d="M916.874,-564.035C942.604,-570.188 988.986,-581.279 991.86,-581.966"/>
</g>
<!-- species_7 -->
<g id="species_7 [CHEBI:16108] [CHEBI:17794]" class="node"><title>species_7</title>
<ellipse fill="none" stroke="black" cx="605" cy="-506" rx="74.5212" ry="18"/>
<text text-anchor="middle" x="605" y="-503.5" font-family="Times,serif" font-size="10.00">3phosphoglycerate cytosol</text>
</g>
<!-- vPGM_intermediate_r -->
<g id="node72" class="node"><title>vPGM_intermediate_r</title>
<ellipse fill="black" stroke="black" cx="717" cy="-506" rx="0.036" ry="0.036"/>
</g>
<!-- species_7&#45;&gt;vPGM_intermediate_r -->
<g id="edge77" class="edge"><title>species_7&#45;&gt;vPGM_intermediate_r</title>
<path fill="none" stroke="black" d="M679.982,-506C699.258,-506 714.989,-506 715.953,-506"/>
</g>
<!-- species_8 -->
<g id="species_8 [CHEBI:16108]" class="node"><title>species_8</title>
<ellipse fill="none" stroke="black" cx="3063" cy="-52" rx="97.2589" ry="18"/>
<text text-anchor="middle" x="3063" y="-49.5" font-family="Times,serif" font-size="10.00">dihydroxyacetonephosphate cytosol</text>
</g>
<!-- vANTI_intermediate_r -->
<g id="node87" class="node"><title>vANTI_intermediate_r</title>
<ellipse fill="black" stroke="black" cx="2525" cy="-70" rx="0.036" ry="0.036"/>
</g>
<!-- species_8&#45;&gt;vANTI_intermediate_r -->
<g id="edge100" class="edge"><title>species_8&#45;&gt;vANTI_intermediate_r</title>
<path fill="none" stroke="black" d="M2986.37,-63.1436C2955.34,-66.826 2919.02,-70 2886,-70 2612,-70 2612,-70 2612,-70 2574.97,-70 2528.98,-70 2526.14,-70"/>
</g>
<!-- species_9 -->
<g id="species_9 [CHEBI:15978]" class="node"><title>species_9</title>
<ellipse fill="none" stroke="black" cx="2727" cy="-24" rx="76.5524" ry="18"/>
<text text-anchor="middle" x="2727" y="-21.5" font-family="Times,serif" font-size="10.00">glycerol3phosphate cytosol</text>
</g>
<!-- vGPO_intermediate_r -->
<g id="node54" class="node"><title>vGPO_intermediate_r</title>
<ellipse fill="black" stroke="black" cx="2841" cy="-29" rx="0.036" ry="0.036"/>
</g>
<!-- species_9&#45;&gt;vGPO_intermediate_r -->
<g id="edge47" class="edge"><title>species_9&#45;&gt;vGPO_intermediate_r</title>
<path fill="none" stroke="black" d="M2802.39,-27.3212C2822.43,-28.2158 2838.94,-28.9526 2839.95,-28.9978"/>
</g>
<!-- species_10 -->
<g id="species_10 [CHEBI:4167]" class="node"><title>species_10</title>
<ellipse fill="none" stroke="black" cx="312" cy="-400" rx="28.0137" ry="18"/>
<text text-anchor="middle" x="312" y="-397.5" font-family="Times,serif" font-size="10.00">glucose</text>
</g>
<!-- vHK_intermediate_r -->
<g id="node32" class="node"><title>vHK_intermediate_r</title>
<ellipse fill="black" stroke="black" cx="405" cy="-400" rx="0.036" ry="0.036"/>
</g>
<!-- species_10&#45;&gt;vHK_intermediate_r -->
<g id="edge6" class="edge"><title>species_10&#45;&gt;vHK_intermediate_r</title>
<path fill="none" stroke="black" d="M340.303,-400C366.27,-400 401.704,-400 403.893,-400"/>
</g>
<!-- species_11 -->
<g id="species_11 [CHEBI:15422]" class="node"><title>species_11</title>
<ellipse fill="none" stroke="black" cx="312" cy="-311" rx="18" ry="18"/>
<text text-anchor="middle" x="312" y="-308.5" font-family="Times,serif" font-size="10.00">atpg</text>
</g>
<!-- species_11&#45;&gt;vHK_intermediate_r -->
<g id="edge7" class="edge"><title>species_11&#45;&gt;vHK_intermediate_r</title>
<path fill="none" stroke="black" d="M325.653,-323.375C349.876,-347.066 400.694,-396.766 403.846,-399.85"/>
</g>
<!-- vPFK_intermediate_r -->
<g id="node38" class="node"><title>vPFK_intermediate_r</title>
<ellipse fill="black" stroke="black" cx="993" cy="-322" rx="0.036" ry="0.036"/>
</g>
<!-- species_11&#45;&gt;vPFK_intermediate_r -->
<g id="edge17" class="edge"><title>species_11&#45;&gt;vPFK_intermediate_r</title>
<path fill="none" stroke="black" d="M327.147,-321.455C350.856,-337.91 400.68,-368 448,-368 448,-368 448,-368 806,-368 873.199,-368 893.713,-374.222 956,-349 973.959,-341.728 990.908,-323.207 991.949,-322.056"/>
</g>
<!-- vALD_intermediate_m -->
<g id="node43" class="node"><title>vALD_intermediate_m</title>
<ellipse fill="black" stroke="black" cx="1421" cy="-172" rx="0.036" ry="0.036"/>
</g>
<!-- species_11&#45;&gt;vALD_intermediate_m -->
<g id="edge27" class="edge"><title>species_11&#45;&gt;vALD_intermediate_m</title>
<path fill="none" stroke="black" d="M320.574,-294.915C337.909,-260.741 383.965,-184 448,-184 448,-184 448,-184 1312,-184 1359.54,-184 1418.14,-172.372 1419.96,-172.009"/>
</g>
<!-- vAKg_intermediate_r -->
<g id="node81" class="node"><title>vAKg_intermediate_r</title>
<ellipse fill="black" stroke="black" cx="1103" cy="-276" rx="0.036" ry="0.036"/>
</g>
<!-- species_11&#45;&gt;vAKg_intermediate_r -->
<g id="edge90" class="edge"><title>species_11&#45;&gt;vAKg_intermediate_r</title>
<path fill="none" stroke="black" d="M328.863,-304.085C353.745,-293.885 403.691,-276 448,-276 448,-276 448,-276 994,-276 1041.25,-276 1100.13,-276 1101.96,-276"/>
</g>
<!-- species_12 -->
<g id="species_12 [CHEBI:16761]" class="node"><title>species_12</title>
<ellipse fill="none" stroke="black" cx="1366" cy="-300" rx="18" ry="18"/>
<text text-anchor="middle" x="1366" y="-297.5" font-family="Times,serif" font-size="10.00">adpg</text>
</g>
<!-- species_12&#45;&gt;vALD_intermediate_m -->
<g id="edge28" class="edge"><title>species_12&#45;&gt;vALD_intermediate_m</title>
<path fill="none" stroke="black" d="M1373.82,-283.528C1387.91,-249.498 1419.01,-174.395 1419.98,-172.056"/>
</g>
<!-- vPGK_intermediate_r -->
<g id="node60" class="node"><title>vPGK_intermediate_r</title>
<ellipse fill="black" stroke="black" cx="2247" cy="-422" rx="0.036" ry="0.036"/>
</g>
<!-- species_12&#45;&gt;vPGK_intermediate_r -->
<g id="edge56" class="edge"><title>species_12&#45;&gt;vPGK_intermediate_r</title>
<path fill="none" stroke="black" d="M1376.98,-314.474C1400.56,-346.791 1463.26,-422 1536,-422 1536,-422 1536,-422 2054,-422 2138,-422 2242.67,-422 2245.92,-422"/>
</g>
<!-- vGK_intermediate_r -->
<g id="node69" class="node"><title>vGK_intermediate_r</title>
<ellipse fill="black" stroke="black" cx="2525" cy="-154" rx="0.036" ry="0.036"/>
</g>
<!-- species_12&#45;&gt;vGK_intermediate_r -->
<g id="edge72" class="edge"><title>species_12&#45;&gt;vGK_intermediate_r</title>
<path fill="none" stroke="black" d="M1376.68,-285.17C1386.32,-271.294 1402.23,-250.703 1420,-237 1462.85,-203.955 1481.89,-200 1536,-200 1536,-200 1536,-200 2336,-200 2404.08,-200 2424.87,-206.501 2488,-181 2505.96,-173.743 2522.91,-155.208 2523.95,-154.056"/>
</g>
<!-- species_13 -->
<g id="species_13 [CHEBI:16027]" class="node"><title>species_13</title>
<ellipse fill="none" stroke="black" cx="1048" cy="-230" rx="18" ry="18"/>
<text text-anchor="middle" x="1048" y="-227.5" font-family="Times,serif" font-size="10.00">ampg</text>
</g>
<!-- species_13&#45;&gt;vALD_intermediate_m -->
<g id="edge29" class="edge"><title>species_13&#45;&gt;vALD_intermediate_m</title>
<path fill="none" stroke="black" d="M1061.61,-217.606C1086.79,-194.24 1146.03,-146 1206,-146 1206,-146 1206,-146 1312,-146 1360.6,-146 1418.17,-171.194 1419.96,-171.981"/>
</g>
<!-- species_13&#45;&gt;vAKg_intermediate_r -->
<g id="edge91" class="edge"><title>species_13&#45;&gt;vAKg_intermediate_r</title>
<path fill="none" stroke="black" d="M1062.1,-241.371C1077.31,-254.567 1100.5,-274.694 1101.93,-275.939"/>
</g>
<!-- species_14 -->
<g id="species_14 [CHEBI:4170]" class="node"><title>species_14</title>
<ellipse fill="none" stroke="black" cx="605" cy="-322" rx="55.8461" ry="18"/>
<text text-anchor="middle" x="605" y="-319.5" font-family="Times,serif" font-size="10.00">glucose6phosphate</text>
</g>
<!-- vPGI_intermediate_r -->
<g id="node35" class="node"><title>vPGI_intermediate_r</title>
<ellipse fill="black" stroke="black" cx="717" cy="-322" rx="0.036" ry="0.036"/>
</g>
<!-- species_14&#45;&gt;vPGI_intermediate_r -->
<g id="edge12" class="edge"><title>species_14&#45;&gt;vPGI_intermediate_r</title>
<path fill="none" stroke="black" d="M661,-322C687.641,-322 714.281,-322 715.92,-322"/>
</g>
<!-- species_15 -->
<g id="species_15 [CHEBI:16084]" class="node"><title>species_15</title>
<ellipse fill="none" stroke="black" cx="899" cy="-322" rx="56.5233" ry="18"/>
<text text-anchor="middle" x="899" y="-319.5" font-family="Times,serif" font-size="10.00">fructose6phosphate</text>
</g>
<!-- species_15&#45;&gt;vPFK_intermediate_r -->
<g id="edge16" class="edge"><title>species_15&#45;&gt;vPFK_intermediate_r</title>
<path fill="none" stroke="black" d="M955.639,-322C974.408,-322 990.936,-322 991.951,-322"/>
</g>
<!-- species_16 -->
<g id="species_16 [CHEBI:28013]" class="node"><title>species_16</title>
<ellipse fill="none" stroke="black" cx="1207" cy="-238" rx="66.5378" ry="18"/>
<text text-anchor="middle" x="1207" y="-235.5" font-family="Times,serif" font-size="10.00">fructose16bisphosphate</text>
</g>
<!-- vALD_intermediate_r -->
<g id="node41" class="node"><title>vALD_intermediate_r</title>
<ellipse fill="black" stroke="black" cx="1311" cy="-238" rx="0.036" ry="0.036"/>
</g>
<!-- species_16&#45;&gt;vALD_intermediate_r -->
<g id="edge22" class="edge"><title>species_16&#45;&gt;vALD_intermediate_r</title>
<path fill="none" stroke="black" d="M1273.75,-238C1292.87,-238 1308.96,-238 1309.95,-238"/>
</g>
<!-- species_17 -->
<g id="species_17 [CHEBI:16108]" class="node"><title>species_17</title>
<ellipse fill="none" stroke="black" cx="1537" cy="-246" rx="78.0849" ry="18"/>
<text text-anchor="middle" x="1537" y="-243.5" font-family="Times,serif" font-size="10.00">dihydroxyacetonephosphate</text>
</g>
<!-- vTPI_intermediate_r -->
<g id="node45" class="node"><title>vTPI_intermediate_r</title>
<ellipse fill="black" stroke="black" cx="1653" cy="-270" rx="0.036" ry="0.036"/>
</g>
<!-- species_17&#45;&gt;vTPI_intermediate_r -->
<g id="edge31" class="edge"><title>species_17&#45;&gt;vTPI_intermediate_r</title>
<path fill="none" stroke="black" d="M1595.33,-258.07C1622.84,-263.86 1650.23,-269.628 1651.92,-269.983"/>
</g>
<!-- vGPDH_intermediate_r -->
<g id="node51" class="node"><title>vGPDH_intermediate_r</title>
<ellipse fill="black" stroke="black" cx="2247" cy="-261" rx="0.036" ry="0.036"/>
</g>
<!-- species_17&#45;&gt;vGPDH_intermediate_r -->
<g id="edge41" class="edge"><title>species_17&#45;&gt;vGPDH_intermediate_r</title>
<path fill="none" stroke="black" d="M1611.91,-240.708C1638.42,-239.221 1668.53,-238 1696,-238 1696,-238 1696,-238 2054,-238 2138.6,-238 2242.69,-260.287 2245.92,-260.983"/>
</g>
<!-- species_18 -->
<g id="species_18 [CHEBI:29052]" class="node"><title>species_18</title>
<ellipse fill="none" stroke="black" cx="1853" cy="-308" rx="74.5212" ry="18"/>
<text text-anchor="middle" x="1853" y="-305.5" font-family="Times,serif" font-size="10.00">glyceraldehyde3phosphate</text>
</g>
<!-- vGAPDH_intermediate_r -->
<g id="node48" class="node"><title>vGAPDH_intermediate_r</title>
<ellipse fill="black" stroke="black" cx="1965" cy="-330" rx="0.036" ry="0.036"/>
</g>
<!-- species_18&#45;&gt;vGAPDH_intermediate_r -->
<g id="edge35" class="edge"><title>species_18&#45;&gt;vGAPDH_intermediate_r</title>
<path fill="none" stroke="black" d="M1910.93,-319.387C1936.94,-324.587 1962.36,-329.672 1963.92,-329.985"/>
</g>
<!-- species_19 -->
<g id="species_19 [CHEBI:15846]" class="node"><title>species_19</title>
<ellipse fill="none" stroke="black" cx="2430" cy="-284" rx="18" ry="18"/>
<text text-anchor="middle" x="2430" y="-281.5" font-family="Times,serif" font-size="10.00">nad</text>
</g>
<!-- species_19&#45;&gt;vGAPDH_intermediate_r -->
<g id="edge36" class="edge"><title>species_19&#45;&gt;vGAPDH_intermediate_r</title>
<path fill="none" stroke="black" d="M2413.94,-292.652C2389.29,-305.977 2338.42,-330 2292,-330 2052,-330 2052,-330 2052,-330 2014.97,-330 1968.98,-330 1966.14,-330"/>
</g>
<!-- species_20 -->
<g id="species_20 [CHEBI:16908]" class="node"><title>species_20</title>
<ellipse fill="none" stroke="black" cx="2150" cy="-284" rx="18" ry="18"/>
<text text-anchor="middle" x="2150" y="-281.5" font-family="Times,serif" font-size="10.00">nadh</text>
</g>
<!-- species_20&#45;&gt;vGPDH_intermediate_r -->
<g id="edge42" class="edge"><title>species_20&#45;&gt;vGPDH_intermediate_r</title>
<path fill="none" stroke="black" d="M2167.98,-279.888C2194.46,-273.479 2242.85,-261.762 2245.85,-261.035"/>
</g>
<!-- species_21 -->
<g id="species_21 [CHEBI:16001]" class="node"><title>species_21</title>
<ellipse fill="none" stroke="black" cx="2150" cy="-376" rx="59.4099" ry="18"/>
<text text-anchor="middle" x="2150" y="-373.5" font-family="Times,serif" font-size="10.00">bisphosphoglycerate</text>
</g>
<!-- species_21&#45;&gt;vPGK_intermediate_r -->
<g id="edge55" class="edge"><title>species_21&#45;&gt;vPGK_intermediate_r</title>
<path fill="none" stroke="black" d="M2182.37,-391.19C2209.18,-404.17 2243.76,-420.916 2245.9,-421.95"/>
</g>
<!-- species_22 -->
<g id="species_22 [CHEBI:15978]" class="node"><title>species_22</title>
<ellipse fill="none" stroke="black" cx="2430" cy="-154" rx="57.8786" ry="18"/>
<text text-anchor="middle" x="2430" y="-151.5" font-family="Times,serif" font-size="10.00">glycerol3phosphate</text>
</g>
<!-- species_22&#45;&gt;vGK_intermediate_r -->
<g id="edge71" class="edge"><title>species_22&#45;&gt;vGK_intermediate_r</title>
<path fill="none" stroke="black" d="M2487.78,-154C2506.53,-154 2522.94,-154 2523.95,-154"/>
</g>
<!-- species_22&#45;&gt;vANTI_intermediate_r -->
<g id="edge99" class="edge"><title>species_22&#45;&gt;vANTI_intermediate_r</title>
<path fill="none" stroke="black" d="M2449.82,-137.001C2476.15,-113.223 2521.08,-72.636 2523.86,-70.1225"/>
</g>
<!-- species_23 -->
<g id="species_23 [CHEBI:17794]" class="node"><title>species_23</title>
<ellipse fill="none" stroke="black" cx="312" cy="-506" rx="55.8461" ry="18"/>
<text text-anchor="middle" x="312" y="-503.5" font-family="Times,serif" font-size="10.00">3phosphoglycerate</text>
</g>
<!-- vPGT_intermediate_r -->
<g id="node84" class="node"><title>vPGT_intermediate_r</title>
<ellipse fill="black" stroke="black" cx="405" cy="-506" rx="0.036" ry="0.036"/>
</g>
<!-- species_23&#45;&gt;vPGT_intermediate_r -->
<g id="edge95" class="edge"><title>species_23&#45;&gt;vPGT_intermediate_r</title>
<path fill="none" stroke="black" d="M368.034,-506C386.6,-506 402.948,-506 403.951,-506"/>
</g>
<!-- species_24 -->
<g id="species_24 [CHEBI:17754]" class="node"><title>species_24</title>
<ellipse fill="none" stroke="black" cx="2727" cy="-120" rx="29.3664" ry="18"/>
<text text-anchor="middle" x="2727" y="-117.5" font-family="Times,serif" font-size="10.00">glycerol</text>
</g>
<!-- vGlyT_intermediate_r -->
<g id="node90" class="node"><title>vGlyT_intermediate_r</title>
<ellipse fill="black" stroke="black" cx="2841" cy="-120" rx="0.036" ry="0.036"/>
</g>
<!-- species_24&#45;&gt;vGlyT_intermediate_r -->
<g id="edge105" class="edge"><title>species_24&#45;&gt;vGlyT_intermediate_r</title>
<path fill="none" stroke="black" d="M2756.55,-120C2788.7,-120 2836.88,-120 2839.85,-120"/>
</g>
<!-- species_25 -->
<g id="species_25 [CHEBI:4167]" class="node"><title>species_25</title>
<ellipse fill="none" stroke="black" cx="49" cy="-400" rx="48.7185" ry="18"/>
<text text-anchor="middle" x="49" y="-397.5" font-family="Times,serif" font-size="10.00">glucose external</text>
</g>
<!-- vGT_intermediate_r -->
<g id="node29" class="node"><title>vGT_intermediate_r</title>
<ellipse fill="black" stroke="black" cx="134" cy="-400" rx="0.036" ry="0.036"/>
</g>
<!-- species_25&#45;&gt;vGT_intermediate_r -->
<g id="edge2" class="edge"><title>species_25&#45;&gt;vGT_intermediate_r</title>
<path fill="none" stroke="black" d="M98.2814,-400C115.97,-400 131.97,-400 132.952,-400"/>
</g>
<!-- species_26 -->
<g id="species_26 [CHEBI:32816]" class="node"><title>species_26</title>
<ellipse fill="none" stroke="black" cx="1207" cy="-706" rx="51.6054" ry="18"/>
<text text-anchor="middle" x="1207" y="-703.5" font-family="Times,serif" font-size="10.00">pyruvate external</text>
</g>
<!-- species_27 -->
<g id="species_27 [CHEBI:17754]" class="node"><title>species_27</title>
<ellipse fill="none" stroke="black" cx="3063" cy="-120" rx="50.7503" ry="18"/>
<text text-anchor="middle" x="3063" y="-117.5" font-family="Times,serif" font-size="10.00">glycerol external</text>
</g>
<!-- vGT -->
<g id="node28" class="node"><title>vGT</title>
<polygon fill="none" stroke="black" points="184,-407 170,-407 170,-393 184,-393 184,-407"/>
</g>
<!-- vGT_intermediate_p -->
<g id="node30" class="node"><title>vGT_intermediate_p</title>
<ellipse fill="black" stroke="black" cx="220" cy="-400" rx="0.036" ry="0.036"/>
</g>
<!-- vGT&#45;&gt;vGT_intermediate_p -->
<g id="edge3" class="edge"><title>vGT&#45;&gt;vGT_intermediate_p</title>
<path fill="none" stroke="black" d="M184.05,-400C195.098,-400 217.54,-400 218.932,-400"/>
</g>
<!-- vGT_intermediate_r&#45;&gt;vGT -->
<g id="edge1" class="edge"><title>vGT_intermediate_r&#45;&gt;vGT</title>
<path fill="none" stroke="black" d="M135.118,-400C136.921,-400 159.016,-400 169.95,-400"/>
</g>
<!-- vGT_intermediate_p&#45;&gt;species_10 -->
<g id="edge4" class="edge"><title>vGT_intermediate_p&#45;&gt;species_10</title>
<path fill="none" stroke="black" d="M221.065,-400C222.556,-400 249.313,-400 273.256,-400"/>
<polygon fill="black" stroke="black" points="273.263,-403.5 283.263,-400 273.263,-396.5 273.263,-403.5"/>
</g>
<!-- vHK -->
<g id="node31" class="node"><title>vHK</title>
<polygon fill="none" stroke="black" points="456,-410 442,-410 442,-396 456,-396 456,-410"/>
</g>
<!-- vHK_intermediate_p -->
<g id="node33" class="node"><title>vHK_intermediate_p</title>
<ellipse fill="black" stroke="black" cx="493" cy="-403" rx="0.036" ry="0.036"/>
</g>
<!-- vHK&#45;&gt;vHK_intermediate_p -->
<g id="edge8" class="edge"><title>vHK&#45;&gt;vHK_intermediate_p</title>
<path fill="none" stroke="black" d="M456.197,-403C467.515,-403 490.505,-403 491.93,-403"/>
</g>
<!-- vHK_intermediate_r&#45;&gt;vHK -->
<g id="edge5" class="edge"><title>vHK_intermediate_r&#45;&gt;vHK</title>
<path fill="none" stroke="black" d="M406.12,-400.009C407.968,-400.141 430.602,-401.757 441.803,-402.557"/>
</g>
<!-- vHK_intermediate_p&#45;&gt;species_14 -->
<g id="edge9" class="edge"><title>vHK_intermediate_p&#45;&gt;species_14</title>
<path fill="none" stroke="black" d="M494.08,-402.941C496.236,-401.354 541.648,-367.913 573.42,-344.518"/>
<polygon fill="black" stroke="black" points="575.593,-347.265 581.57,-338.517 571.442,-341.628 575.593,-347.265"/>
</g>
<!-- vHK_intermediate_p&#45;&gt;species_12 -->
<g id="edge10" class="edge"><title>vHK_intermediate_p&#45;&gt;species_12</title>
<path fill="none" stroke="black" d="M494.09,-403.002C497.848,-403.093 618.866,-406 716,-406 716,-406 716,-406 1208,-406 1267.78,-406 1321.81,-352.567 1348.13,-321.574"/>
<polygon fill="black" stroke="black" points="1350.83,-323.796 1354.5,-313.858 1345.44,-319.338 1350.83,-323.796"/>
</g>
<!-- vPGI -->
<g id="node34" class="node"><title>vPGI</title>
<polygon fill="none" stroke="black" points="768,-329 754,-329 754,-315 768,-315 768,-329"/>
</g>
<!-- vPGI_intermediate_p -->
<g id="node36" class="node"><title>vPGI_intermediate_p</title>
<ellipse fill="black" stroke="black" cx="805" cy="-322" rx="0.036" ry="0.036"/>
</g>
<!-- vPGI&#45;&gt;vPGI_intermediate_p -->
<g id="edge13" class="edge"><title>vPGI&#45;&gt;vPGI_intermediate_p</title>
<path fill="none" stroke="black" d="M768.197,-322C779.515,-322 802.505,-322 803.93,-322"/>
</g>
<!-- vPGI_intermediate_r&#45;&gt;vPGI -->
<g id="edge11" class="edge"><title>vPGI_intermediate_r&#45;&gt;vPGI</title>
<path fill="none" stroke="black" d="M718.12,-322C719.968,-322 742.602,-322 753.803,-322"/>
</g>
<!-- vPGI_intermediate_p&#45;&gt;species_15 -->
<g id="edge14" class="edge"><title>vPGI_intermediate_p&#45;&gt;species_15</title>
<path fill="none" stroke="black" d="M806.067,-322C807.017,-322 818.021,-322 832.107,-322"/>
<polygon fill="black" stroke="black" points="832.266,-325.5 842.266,-322 832.266,-318.5 832.266,-325.5"/>
</g>
<!-- vPFK -->
<g id="node37" class="node"><title>vPFK</title>
<polygon fill="none" stroke="black" points="1055,-326 1041,-326 1041,-312 1055,-312 1055,-326"/>
</g>
<!-- vPFK_intermediate_p -->
<g id="node39" class="node"><title>vPFK_intermediate_p</title>
<ellipse fill="black" stroke="black" cx="1103" cy="-316" rx="0.036" ry="0.036"/>
</g>
<!-- vPFK&#45;&gt;vPFK_intermediate_p -->
<g id="edge18" class="edge"><title>vPFK&#45;&gt;vPFK_intermediate_p</title>
<path fill="none" stroke="black" d="M1055.08,-318.656C1068.57,-317.892 1099.96,-316.116 1101.9,-316.005"/>
</g>
<!-- vPFK_intermediate_r&#45;&gt;vPFK -->
<g id="edge15" class="edge"><title>vPFK_intermediate_r&#45;&gt;vPFK</title>
<path fill="none" stroke="black" d="M994.152,-321.991C996.581,-321.854 1027.47,-320.105 1040.87,-319.347"/>
</g>
<!-- vPFK_intermediate_p&#45;&gt;species_16 -->
<g id="edge19" class="edge"><title>vPFK_intermediate_p&#45;&gt;species_16</title>
<path fill="none" stroke="black" d="M1104.04,-315.903C1104.9,-313.908 1118.97,-281.738 1140,-265 1144.24,-261.627 1148.95,-258.619 1153.86,-255.948"/>
<polygon fill="black" stroke="black" points="1155.44,-259.075 1162.84,-251.501 1152.33,-252.802 1155.44,-259.075"/>
</g>
<!-- vPFK_intermediate_p&#45;&gt;species_12 -->
<g id="edge20" class="edge"><title>vPFK_intermediate_p&#45;&gt;species_12</title>
<path fill="none" stroke="black" d="M1104.05,-315.997C1107.25,-315.801 1271.27,-305.746 1337.6,-301.68"/>
<polygon fill="black" stroke="black" points="1337.96,-305.164 1347.73,-301.059 1337.53,-298.177 1337.96,-305.164"/>
</g>
<!-- vALD -->
<g id="node40" class="node"><title>vALD</title>
<polygon fill="none" stroke="black" points="1373,-245 1359,-245 1359,-231 1373,-231 1373,-245"/>
</g>
<!-- vALD_intermediate_p -->
<g id="node42" class="node"><title>vALD_intermediate_p</title>
<ellipse fill="black" stroke="black" cx="1421" cy="-246" rx="0.036" ry="0.036"/>
</g>
<!-- vALD&#45;&gt;vALD_intermediate_p -->
<g id="edge23" class="edge"><title>vALD&#45;&gt;vALD_intermediate_p</title>
<path fill="none" stroke="black" d="M1373.08,-238.918C1386.57,-240.953 1417.96,-245.692 1419.9,-245.986"/>
</g>
<!-- vALD&#45;&gt;vALD_intermediate_m -->
<g id="edge26" class="edge"><title>vALD&#45;&gt;vALD_intermediate_m</title>
<path fill="none" stroke="black" d="M1372.67,-230.937C1385.92,-214.443 1417.92,-174.595 1419.9,-172.121"/>
</g>
<!-- vALD_intermediate_r&#45;&gt;vALD -->
<g id="edge21" class="edge"><title>vALD_intermediate_r&#45;&gt;vALD</title>
<path fill="none" stroke="black" d="M1312.15,-238C1314.58,-238 1345.47,-238 1358.87,-238"/>
</g>
<!-- vALD_intermediate_p&#45;&gt;species_17 -->
<g id="edge24" class="edge"><title>vALD_intermediate_p&#45;&gt;species_17</title>
<path fill="none" stroke="black" d="M1422.08,-246C1423.12,-246 1433.87,-246 1448.39,-246"/>
<polygon fill="black" stroke="black" points="1448.4,-249.5 1458.4,-246 1448.4,-242.5 1448.4,-249.5"/>
</g>
<!-- vALD_intermediate_p&#45;&gt;species_18 -->
<g id="edge25" class="edge"><title>vALD_intermediate_p&#45;&gt;species_18</title>
<path fill="none" stroke="black" d="M1422.05,-246.055C1423.1,-247.177 1440.24,-265.259 1458,-273 1538.32,-308.004 1564.39,-308 1652,-308 1652,-308 1652,-308 1698,-308 1720.61,-308 1745.08,-308 1767.72,-308"/>
<polygon fill="black" stroke="black" points="1767.98,-311.5 1777.98,-308 1767.98,-304.5 1767.98,-311.5"/>
</g>
<!-- vTPI -->
<g id="node44" class="node"><title>vTPI</title>
<polygon fill="none" stroke="black" points="1704,-280 1690,-280 1690,-266 1704,-266 1704,-280"/>
</g>
<!-- vTPI_intermediate_p -->
<g id="node46" class="node"><title>vTPI_intermediate_p</title>
<ellipse fill="black" stroke="black" cx="1741" cy="-276" rx="0.036" ry="0.036"/>
</g>
<!-- vTPI&#45;&gt;vTPI_intermediate_p -->
<g id="edge32" class="edge"><title>vTPI&#45;&gt;vTPI_intermediate_p</title>
<path fill="none" stroke="black" d="M1704.2,-273.443C1715.52,-274.251 1738.5,-275.893 1739.93,-275.995"/>
</g>
<!-- vTPI_intermediate_r&#45;&gt;vTPI -->
<g id="edge30" class="edge"><title>vTPI_intermediate_r&#45;&gt;vTPI</title>
<path fill="none" stroke="black" d="M1654.12,-270.009C1655.97,-270.141 1678.6,-271.757 1689.8,-272.557"/>
</g>
<!-- vTPI_intermediate_p&#45;&gt;species_18 -->
<g id="edge33" class="edge"><title>vTPI_intermediate_p&#45;&gt;species_18</title>
<path fill="none" stroke="black" d="M1742.08,-276.023C1743.67,-276.486 1768.86,-283.813 1794.72,-291.336"/>
<polygon fill="black" stroke="black" points="1794.03,-294.782 1804.61,-294.214 1795.99,-288.06 1794.03,-294.782"/>
</g>
<!-- vGAPDH -->
<g id="node47" class="node"><title>vGAPDH</title>
<polygon fill="none" stroke="black" points="2016,-372 2002,-372 2002,-358 2016,-358 2016,-372"/>
</g>
<!-- vGAPDH_intermediate_p -->
<g id="node49" class="node"><title>vGAPDH_intermediate_p</title>
<ellipse fill="black" stroke="black" cx="2053" cy="-365" rx="0.036" ry="0.036"/>
</g>
<!-- vGAPDH&#45;&gt;vGAPDH_intermediate_p -->
<g id="edge37" class="edge"><title>vGAPDH&#45;&gt;vGAPDH_intermediate_p</title>
<path fill="none" stroke="black" d="M2016.2,-365C2027.52,-365 2050.5,-365 2051.93,-365"/>
</g>
<!-- vGAPDH_intermediate_r&#45;&gt;vGAPDH -->
<g id="edge34" class="edge"><title>vGAPDH_intermediate_r&#45;&gt;vGAPDH</title>
<path fill="none" stroke="black" d="M1966.12,-330.1C1967.97,-331.64 1990.6,-350.501 2001.8,-359.836"/>
</g>
<!-- vGAPDH_intermediate_p&#45;&gt;species_21 -->
<g id="edge38" class="edge"><title>vGAPDH_intermediate_p&#45;&gt;species_21</title>
<path fill="none" stroke="black" d="M2054.07,-365.008C2055.12,-365.129 2067.97,-366.618 2083.91,-368.463"/>
<polygon fill="black" stroke="black" points="2083.81,-371.975 2094.15,-369.649 2084.62,-365.021 2083.81,-371.975"/>
</g>
<!-- vGAPDH_intermediate_p&#45;&gt;species_20 -->
<g id="edge39" class="edge"><title>vGAPDH_intermediate_p&#45;&gt;species_20</title>
<path fill="none" stroke="black" d="M2054.07,-364.941C2056.05,-363.248 2100.54,-325.322 2127.9,-301.994"/>
<polygon fill="black" stroke="black" points="2130.43,-304.43 2135.77,-295.279 2125.89,-299.103 2130.43,-304.43"/>
</g>
<!-- vGPDH -->
<g id="node50" class="node"><title>vGPDH</title>
<polygon fill="none" stroke="black" points="2298,-268 2284,-268 2284,-254 2298,-254 2298,-268"/>
</g>
<!-- vGPDH_intermediate_p -->
<g id="node52" class="node"><title>vGPDH_intermediate_p</title>
<ellipse fill="black" stroke="black" cx="2335" cy="-261" rx="0.036" ry="0.036"/>
</g>
<!-- vGPDH&#45;&gt;vGPDH_intermediate_p -->
<g id="edge43" class="edge"><title>vGPDH&#45;&gt;vGPDH_intermediate_p</title>
<path fill="none" stroke="black" d="M2298.2,-261C2309.52,-261 2332.5,-261 2333.93,-261"/>
</g>
<!-- vGPDH_intermediate_r&#45;&gt;vGPDH -->
<g id="edge40" class="edge"><title>vGPDH_intermediate_r&#45;&gt;vGPDH</title>
<path fill="none" stroke="black" d="M2248.12,-261C2249.97,-261 2272.6,-261 2283.8,-261"/>
</g>
<!-- vGPDH_intermediate_p&#45;&gt;species_19 -->
<g id="edge44" class="edge"><title>vGPDH_intermediate_p&#45;&gt;species_19</title>
<path fill="none" stroke="black" d="M2336.07,-261.017C2337.87,-261.463 2375.6,-270.793 2402.42,-277.426"/>
<polygon fill="black" stroke="black" points="2401.87,-280.895 2412.41,-279.898 2403.55,-274.1 2401.87,-280.895"/>
</g>
<!-- vGPDH_intermediate_p&#45;&gt;species_22 -->
<g id="edge45" class="edge"><title>vGPDH_intermediate_p&#45;&gt;species_22</title>
<path fill="none" stroke="black" d="M2336.07,-260.922C2337.98,-258.727 2379.98,-210.397 2406.86,-179.474"/>
<polygon fill="black" stroke="black" points="2409.74,-181.49 2413.66,-171.646 2404.46,-176.898 2409.74,-181.49"/>
</g>
<!-- vGPO -->
<g id="node53" class="node"><title>vGPO</title>
<polygon fill="none" stroke="black" points="2892,-39 2878,-39 2878,-25 2892,-25 2892,-39"/>
</g>
<!-- vGPO_intermediate_p -->
<g id="node55" class="node"><title>vGPO_intermediate_p</title>
<ellipse fill="black" stroke="black" cx="2929" cy="-37" rx="0.036" ry="0.036"/>
</g>
<!-- vGPO&#45;&gt;vGPO_intermediate_p -->
<g id="edge48" class="edge"><title>vGPO&#45;&gt;vGPO_intermediate_p</title>
<path fill="none" stroke="black" d="M2892.2,-32.7378C2903.52,-34.0851 2926.5,-36.822 2927.93,-36.9917"/>
</g>
<!-- vGPO_intermediate_r&#45;&gt;vGPO -->
<g id="edge46" class="edge"><title>vGPO_intermediate_r&#45;&gt;vGPO</title>
<path fill="none" stroke="black" d="M2842.12,-29.0086C2843.97,-29.1406 2866.6,-30.7573 2877.8,-31.5573"/>
</g>
<!-- vGPO_intermediate_p&#45;&gt;species_8 -->
<g id="edge49" class="edge"><title>vGPO_intermediate_p&#45;&gt;species_8</title>
<path fill="none" stroke="black" d="M2930.1,-37.0109C2931.51,-37.1717 2948.45,-39.0969 2969.75,-41.5172"/>
<polygon fill="black" stroke="black" points="2969.47,-45.0079 2979.8,-42.6595 2970.26,-38.0527 2969.47,-45.0079"/>
</g>
<!-- vPT -->
<g id="node56" class="node"><title>vPT</title>
<polygon fill="none" stroke="black" points="1055,-713 1041,-713 1041,-699 1055,-699 1055,-713"/>
</g>
<!-- vPT_intermediate_p -->
<g id="node58" class="node"><title>vPT_intermediate_p</title>
<ellipse fill="black" stroke="black" cx="1103" cy="-706" rx="0.036" ry="0.036"/>
</g>
<!-- vPT&#45;&gt;vPT_intermediate_p -->
<g id="edge52" class="edge"><title>vPT&#45;&gt;vPT_intermediate_p</title>
<path fill="none" stroke="black" d="M1055.08,-706C1068.57,-706 1099.96,-706 1101.9,-706"/>
</g>
<!-- vPT_intermediate_r&#45;&gt;vPT -->
<g id="edge50" class="edge"><title>vPT_intermediate_r&#45;&gt;vPT</title>
<path fill="none" stroke="black" d="M994.152,-706C996.581,-706 1027.47,-706 1040.87,-706"/>
</g>
<!-- vPT_intermediate_p&#45;&gt;species_26 -->
<g id="edge53" class="edge"><title>vPT_intermediate_p&#45;&gt;species_26</title>
<path fill="none" stroke="black" d="M1104.07,-706C1105.39,-706 1123.98,-706 1144.94,-706"/>
<polygon fill="black" stroke="black" points="1145.02,-709.5 1155.02,-706 1145.02,-702.5 1145.02,-709.5"/>
</g>
<!-- vPGK -->
<g id="node59" class="node"><title>vPGK</title>
<polygon fill="none" stroke="black" points="2298,-448 2284,-448 2284,-434 2298,-434 2298,-448"/>
</g>
<!-- vPGK_intermediate_p -->
<g id="node61" class="node"><title>vPGK_intermediate_p</title>
<ellipse fill="black" stroke="black" cx="220" cy="-460" rx="0.036" ry="0.036"/>
</g>
<!-- vPGK&#45;&gt;vPGK_intermediate_p -->
<g id="edge57" class="edge"><title>vPGK&#45;&gt;vPGK_intermediate_p</title>
<path fill="none" stroke="black" d="M2283.94,-442.428C2264.65,-446.847 2202.88,-460 2151,-460 404,-460 404,-460 404,-460 323.938,-460 224.172,-460 221.074,-460"/>
</g>
<!-- vPGK_intermediate_r&#45;&gt;vPGK -->
<g id="edge54" class="edge"><title>vPGK_intermediate_r&#45;&gt;vPGK</title>
<path fill="none" stroke="black" d="M2248.12,-422.055C2249.97,-422.89 2272.6,-433.129 2283.8,-438.196"/>
</g>
<!-- vPGK_intermediate_p&#45;&gt;species_23 -->
<g id="edge58" class="edge"><title>vPGK_intermediate_p&#45;&gt;species_23</title>
<path fill="none" stroke="black" d="M221.065,-460.033C222.538,-460.786 248.677,-474.146 272.397,-486.269"/>
<polygon fill="black" stroke="black" points="270.815,-489.392 281.312,-490.826 274.001,-483.159 270.815,-489.392"/>
</g>
<!-- vPGK_intermediate_p&#45;&gt;species_11 -->
<g id="edge59" class="edge"><title>vPGK_intermediate_p&#45;&gt;species_11</title>
<path fill="none" stroke="black" d="M221.038,-459.851C221.826,-456.793 234.756,-407.335 256,-373 265.719,-357.292 279.521,-341.747 290.867,-330.152"/>
<polygon fill="black" stroke="black" points="293.632,-332.337 298.25,-322.802 288.694,-327.377 293.632,-332.337"/>
</g>
<!-- vPK -->
<g id="node62" class="node"><title>vPK</title>
<polygon fill="none" stroke="black" points="1373,-639 1359,-639 1359,-625 1373,-625 1373,-639"/>
</g>
<!-- vPK_intermediate_p -->
<g id="node64" class="node"><title>vPK_intermediate_p</title>
<ellipse fill="black" stroke="black" cx="805" cy="-660" rx="0.036" ry="0.036"/>
</g>
<!-- vPK&#45;&gt;vPK_intermediate_p -->
<g id="edge63" class="edge"><title>vPK&#45;&gt;vPK_intermediate_p</title>
<path fill="none" stroke="black" d="M1358.79,-633.925C1337.81,-640.251 1267.53,-660 1208,-660 992,-660 992,-660 992,-660 910.625,-660 809.224,-660 806.075,-660"/>
</g>
<!-- vPK_intermediate_r&#45;&gt;vPK -->
<g id="edge60" class="edge"><title>vPK_intermediate_r&#45;&gt;vPK</title>
<path fill="none" stroke="black" d="M1312.15,-609.066C1314.58,-610.12 1345.47,-623.525 1358.87,-629.339"/>
</g>
<!-- vPK_intermediate_p&#45;&gt;species_1 -->
<g id="edge64" class="edge"><title>vPK_intermediate_p&#45;&gt;species_1</title>
<path fill="none" stroke="black" d="M806.067,-660.033C807.724,-660.862 839.946,-676.973 865.78,-689.89"/>
<polygon fill="black" stroke="black" points="864.431,-693.128 874.94,-694.47 867.561,-686.867 864.431,-693.128"/>
</g>
<!-- vPK_intermediate_p&#45;&gt;species_3 -->
<g id="edge65" class="edge"><title>vPK_intermediate_p&#45;&gt;species_3</title>
<path fill="none" stroke="black" d="M806.067,-659.967C807.889,-659.056 846.655,-639.672 873.259,-626.37"/>
<polygon fill="black" stroke="black" points="875.04,-629.393 882.419,-621.79 871.91,-623.132 875.04,-629.393"/>
</g>
<!-- vAU -->
<g id="node65" class="node"><title>vAU</title>
<polygon fill="none" stroke="black" points="1055,-621 1041,-621 1041,-607 1055,-607 1055,-621"/>
</g>
<!-- vAU_intermediate_p -->
<g id="node67" class="node"><title>vAU_intermediate_p</title>
<ellipse fill="black" stroke="black" cx="1103" cy="-611" rx="0.036" ry="0.036"/>
</g>
<!-- vAU&#45;&gt;vAU_intermediate_p -->
<g id="edge68" class="edge"><title>vAU&#45;&gt;vAU_intermediate_p</title>
<path fill="none" stroke="black" d="M1055.08,-613.656C1068.57,-612.892 1099.96,-611.116 1101.9,-611.005"/>
</g>
<!-- vAU_intermediate_r&#45;&gt;vAU -->
<g id="edge66" class="edge"><title>vAU_intermediate_r&#45;&gt;vAU</title>
<path fill="none" stroke="black" d="M994.152,-614C996.581,-614 1027.47,-614 1040.87,-614"/>
</g>
<!-- vAU_intermediate_p&#45;&gt;species_2 -->
<g id="edge69" class="edge"><title>vAU_intermediate_p&#45;&gt;species_2</title>
<path fill="none" stroke="black" d="M1104.07,-610.999C1106.09,-610.959 1149.07,-610.116 1178.57,-609.538"/>
<polygon fill="black" stroke="black" points="1178.8,-613.034 1188.73,-609.339 1178.66,-606.036 1178.8,-613.034"/>
</g>
<!-- vGK -->
<g id="node68" class="node"><title>vGK</title>
<polygon fill="none" stroke="black" points="2576,-156 2562,-156 2562,-142 2576,-142 2576,-156"/>
</g>
<!-- vGK_intermediate_p -->
<g id="node70" class="node"><title>vGK_intermediate_p</title>
<ellipse fill="black" stroke="black" cx="2613" cy="-120" rx="0.036" ry="0.036"/>
</g>
<!-- vGK&#45;&gt;vGK_intermediate_p -->
<g id="edge73" class="edge"><title>vGK&#45;&gt;vGK_intermediate_p</title>
<path fill="none" stroke="black" d="M2576.2,-144.721C2587.52,-136.906 2610.5,-121.032 2611.93,-120.048"/>
</g>
<!-- vGK_intermediate_r&#45;&gt;vGK -->
<g id="edge70" class="edge"><title>vGK_intermediate_r&#45;&gt;vGK</title>
<path fill="none" stroke="black" d="M2526.12,-153.986C2527.97,-153.766 2550.6,-151.071 2561.8,-149.738"/>
</g>
<!-- vGK_intermediate_p&#45;&gt;species_24 -->
<g id="edge74" class="edge"><title>vGK_intermediate_p&#45;&gt;species_24</title>
<path fill="none" stroke="black" d="M2614.08,-120C2616.1,-120 2655.55,-120 2687.05,-120"/>
<polygon fill="black" stroke="black" points="2687.36,-123.5 2697.36,-120 2687.36,-116.5 2687.36,-123.5"/>
</g>
<!-- vGK_intermediate_p&#45;&gt;species_11 -->
<g id="edge75" class="edge"><title>vGK_intermediate_p&#45;&gt;species_11</title>
<path fill="none" stroke="black" d="M2611.86,-119.966C2609.05,-119.262 2563.39,-108 2526,-108 448,-108 448,-108 448,-108 364.698,-108 329.689,-227.987 317.953,-283.467"/>
<polygon fill="black" stroke="black" points="314.508,-282.846 315.968,-293.34 321.371,-284.227 314.508,-282.846"/>
</g>
<!-- vPGM -->
<g id="node71" class="node"><title>vPGM</title>
<polygon fill="none" stroke="black" points="768,-513 754,-513 754,-499 768,-499 768,-513"/>
</g>
<!-- vPGM_intermediate_p -->
<g id="node73" class="node"><title>vPGM_intermediate_p</title>
<ellipse fill="black" stroke="black" cx="805" cy="-506" rx="0.036" ry="0.036"/>
</g>
<!-- vPGM&#45;&gt;vPGM_intermediate_p -->
<g id="edge78" class="edge"><title>vPGM&#45;&gt;vPGM_intermediate_p</title>
<path fill="none" stroke="black" d="M768.197,-506C779.515,-506 802.505,-506 803.93,-506"/>
</g>
<!-- vPGM_intermediate_r&#45;&gt;vPGM -->
<g id="edge76" class="edge"><title>vPGM_intermediate_r&#45;&gt;vPGM</title>
<path fill="none" stroke="black" d="M718.12,-506C719.968,-506 742.602,-506 753.803,-506"/>
</g>
<!-- vPGM_intermediate_p&#45;&gt;species_5 -->
<g id="edge79" class="edge"><title>vPGM_intermediate_p&#45;&gt;species_5</title>
<path fill="none" stroke="black" d="M806.067,-506C807.03,-506 818.33,-506 832.699,-506"/>
<polygon fill="black" stroke="black" points="833.047,-509.5 843.047,-506 833.047,-502.5 833.047,-509.5"/>
</g>
<!-- vENO -->
<g id="node74" class="node"><title>vENO</title>
<polygon fill="none" stroke="black" points="1055,-535 1041,-535 1041,-521 1055,-521 1055,-535"/>
</g>
<!-- vENO_intermediate_p -->
<g id="node76" class="node"><title>vENO_intermediate_p</title>
<ellipse fill="black" stroke="black" cx="1103" cy="-530" rx="0.036" ry="0.036"/>
</g>
<!-- vENO&#45;&gt;vENO_intermediate_p -->
<g id="edge82" class="edge"><title>vENO&#45;&gt;vENO_intermediate_p</title>
<path fill="none" stroke="black" d="M1055.08,-528.229C1068.57,-528.738 1099.96,-529.923 1101.9,-529.996"/>
</g>
<!-- vENO_intermediate_r&#45;&gt;vENO -->
<g id="edge80" class="edge"><title>vENO_intermediate_r&#45;&gt;vENO</title>
<path fill="none" stroke="black" d="M994.152,-517.032C996.581,-517.536 1027.47,-523.947 1040.87,-526.727"/>
</g>
<!-- vENO_intermediate_p&#45;&gt;species_4 -->
<g id="edge83" class="edge"><title>vENO_intermediate_p&#45;&gt;species_4</title>
<path fill="none" stroke="black" d="M1104.07,-530.001C1105.15,-530.011 1117.92,-530.136 1134.07,-530.295"/>
<polygon fill="black" stroke="black" points="1134.46,-533.799 1144.5,-530.397 1134.53,-526.799 1134.46,-533.799"/>
</g>
<!-- vAKc -->
<g id="node77" class="node"><title>vAKc</title>
<polygon fill="none" stroke="black" points="1055,-589 1041,-589 1041,-575 1055,-575 1055,-589"/>
</g>
<!-- vAKc_intermediate_p -->
<g id="node79" class="node"><title>vAKc_intermediate_p</title>
<ellipse fill="black" stroke="black" cx="1103" cy="-587" rx="0.036" ry="0.036"/>
</g>
<!-- vAKc&#45;&gt;vAKc_intermediate_p -->
<g id="edge87" class="edge"><title>vAKc&#45;&gt;vAKc_intermediate_p</title>
<path fill="none" stroke="black" d="M1055.08,-582.574C1068.57,-583.846 1099.96,-586.807 1101.9,-586.991"/>
</g>
<!-- vAKc_intermediate_r&#45;&gt;vAKc -->
<g id="edge84" class="edge"><title>vAKc_intermediate_r&#45;&gt;vAKc</title>
<path fill="none" stroke="black" d="M994.152,-582C996.581,-582 1027.47,-582 1040.87,-582"/>
</g>
<!-- vAKc_intermediate_p&#45;&gt;species_2 -->
<g id="edge88" class="edge"><title>vAKc_intermediate_p&#45;&gt;species_2</title>
<path fill="none" stroke="black" d="M1104.07,-587.016C1106.1,-587.454 1149.53,-596.821 1179.04,-603.185"/>
<polygon fill="black" stroke="black" points="1178.67,-606.685 1189.18,-605.372 1180.14,-599.842 1178.67,-606.685"/>
</g>
<!-- vAKg -->
<g id="node80" class="node"><title>vAKg</title>
<polygon fill="none" stroke="black" points="1214,-288 1200,-288 1200,-274 1214,-274 1214,-288"/>
</g>
<!-- vAKg_intermediate_p -->
<g id="node82" class="node"><title>vAKg_intermediate_p</title>
<ellipse fill="black" stroke="black" cx="1311" cy="-284" rx="0.036" ry="0.036"/>
</g>
<!-- vAKg&#45;&gt;vAKg_intermediate_p -->
<g id="edge92" class="edge"><title>vAKg&#45;&gt;vAKg_intermediate_p</title>
<path fill="none" stroke="black" d="M1214.08,-281.179C1235.69,-281.814 1307.7,-283.932 1309.95,-283.998"/>
</g>
<!-- vAKg_intermediate_r&#45;&gt;vAKg -->
<g id="edge89" class="edge"><title>vAKg_intermediate_r&#45;&gt;vAKg</title>
<path fill="none" stroke="black" d="M1104.07,-276.004C1106.69,-276.132 1178.11,-279.633 1199.81,-280.696"/>
</g>
<!-- vAKg_intermediate_p&#45;&gt;species_12 -->
<g id="edge93" class="edge"><title>vAKg_intermediate_p&#45;&gt;species_12</title>
<path fill="none" stroke="black" d="M1312.15,-284.046C1313.67,-284.503 1326.24,-288.299 1338.74,-292.073"/>
<polygon fill="black" stroke="black" points="1337.95,-295.491 1348.54,-295.031 1339.98,-288.79 1337.95,-295.491"/>
</g>
<!-- vPGT -->
<g id="node83" class="node"><title>vPGT</title>
<polygon fill="none" stroke="black" points="456,-513 442,-513 442,-499 456,-499 456,-513"/>
</g>
<!-- vPGT_intermediate_p -->
<g id="node85" class="node"><title>vPGT_intermediate_p</title>
<ellipse fill="black" stroke="black" cx="493" cy="-506" rx="0.036" ry="0.036"/>
</g>
<!-- vPGT&#45;&gt;vPGT_intermediate_p -->
<g id="edge96" class="edge"><title>vPGT&#45;&gt;vPGT_intermediate_p</title>
<path fill="none" stroke="black" d="M456.197,-506C467.515,-506 490.505,-506 491.93,-506"/>
</g>
<!-- vPGT_intermediate_r&#45;&gt;vPGT -->
<g id="edge94" class="edge"><title>vPGT_intermediate_r&#45;&gt;vPGT</title>
<path fill="none" stroke="black" d="M406.12,-506C407.968,-506 430.602,-506 441.803,-506"/>
</g>
<!-- vPGT_intermediate_p&#45;&gt;species_7 -->
<g id="edge97" class="edge"><title>vPGT_intermediate_p&#45;&gt;species_7</title>
<path fill="none" stroke="black" d="M494.08,-506C495.089,-506 505.585,-506 519.724,-506"/>
<polygon fill="black" stroke="black" points="520.023,-509.5 530.023,-506 520.023,-502.5 520.023,-509.5"/>
</g>
<!-- vANTI -->
<g id="node86" class="node"><title>vANTI</title>
<polygon fill="none" stroke="black" points="2576,-42 2562,-42 2562,-28 2576,-28 2576,-42"/>
</g>
<!-- vANTI_intermediate_p -->
<g id="node88" class="node"><title>vANTI_intermediate_p</title>
<ellipse fill="black" stroke="black" cx="2613" cy="-24" rx="0.036" ry="0.036"/>
</g>
<!-- vANTI&#45;&gt;vANTI_intermediate_p -->
<g id="edge101" class="edge"><title>vANTI&#45;&gt;vANTI_intermediate_p</title>
<path fill="none" stroke="black" d="M2576.2,-33.3769C2587.52,-30.4127 2610.5,-24.3916 2611.93,-24.0182"/>
</g>
<!-- vANTI_intermediate_r&#45;&gt;vANTI -->
<g id="edge98" class="edge"><title>vANTI_intermediate_r&#45;&gt;vANTI</title>
<path fill="none" stroke="black" d="M2526.12,-69.8996C2527.97,-68.3599 2550.6,-49.4987 2561.8,-40.1644"/>
</g>
<!-- vANTI_intermediate_p&#45;&gt;species_9 -->
<g id="edge102" class="edge"><title>vANTI_intermediate_p&#45;&gt;species_9</title>
<path fill="none" stroke="black" d="M2614.08,-24C2615.1,-24 2625.68,-24 2639.97,-24"/>
<polygon fill="black" stroke="black" points="2640.37,-27.5001 2650.37,-24 2640.37,-20.5001 2640.37,-27.5001"/>
</g>
<!-- vANTI_intermediate_p&#45;&gt;species_17 -->
<g id="edge103" class="edge"><title>vANTI_intermediate_p&#45;&gt;species_17</title>
<path fill="none" stroke="black" d="M2611.87,-23.9312C2609.11,-22.5234 2564.44,-0 2526,-0 1696,-0 1696,-0 1696,-0 1593.35,-0 1554.28,-153.53 1542.4,-218.012"/>
<polygon fill="black" stroke="black" points="1538.94,-217.456 1540.66,-227.911 1545.83,-218.667 1538.94,-217.456"/>
</g>
<!-- vGlyT -->
<g id="node89" class="node"><title>vGlyT</title>
<polygon fill="none" stroke="black" points="2892,-127 2878,-127 2878,-113 2892,-113 2892,-127"/>
</g>
<!-- vGlyT_intermediate_p -->
<g id="node91" class="node"><title>vGlyT_intermediate_p</title>
<ellipse fill="black" stroke="black" cx="2929" cy="-120" rx="0.036" ry="0.036"/>
</g>
<!-- vGlyT&#45;&gt;vGlyT_intermediate_p -->
<g id="edge106" class="edge"><title>vGlyT&#45;&gt;vGlyT_intermediate_p</title>
<path fill="none" stroke="black" d="M2892.2,-120C2903.52,-120 2926.5,-120 2927.93,-120"/>
</g>
<!-- vGlyT_intermediate_r&#45;&gt;vGlyT -->
<g id="edge104" class="edge"><title>vGlyT_intermediate_r&#45;&gt;vGlyT</title>
<path fill="none" stroke="black" d="M2842.12,-120C2843.97,-120 2866.6,-120 2877.8,-120"/>
</g>
<!-- vGlyT_intermediate_p&#45;&gt;species_27 -->
<g id="edge107" class="edge"><title>vGlyT_intermediate_p&#45;&gt;species_27</title>
<path fill="none" stroke="black" d="M2930.1,-120C2932.18,-120 2968.05,-120 3001.86,-120"/>
<polygon fill="black" stroke="black" points="3002.24,-123.5 3012.24,-120 3002.24,-116.5 3002.24,-123.5"/>
</g>
</g>
</svg>
