<?xml version="1.0" encoding="UTF-8" standalone="no"?>
<!DOCTYPE svg PUBLIC "-//W3C//DTD SVG 1.1//EN"
 "http://www.w3.org/Graphics/SVG/1.1/DTD/svg11.dtd">
<!-- Generated by graphviz version 2.30.1 (20140821.0912)
 -->
<!-- Title: G Pages: 1 -->
<svg width="1964pt" height="182pt"
 viewBox="0.00 0.00 1964.00 182.00" xmlns="http://www.w3.org/2000/svg" xmlns:xlink="http://www.w3.org/1999/xlink">
<g id="graph0" class="graph" transform="scale(1 1) rotate(0) translate(4 178)">
<title>G</title>
<polygon fill="white" stroke="white" points="-4,5 -4,-178 1961,-178 1961,5 -4,5"/>
<!-- s1 -->
<g id="s1 [CHEBI:17234]" class="node"><title>s1</title>
<ellipse fill="none" stroke="black" cx="206" cy="-18" rx="29.3664" ry="18"/>
<text text-anchor="middle" x="206" y="-15.5" font-family="Times,serif" font-size="10.00">Glucose</text>
</g>
<!-- v1_intermediate_r -->
<g id="node11" class="node"><title>v1_intermediate_r</title>
<ellipse fill="black" stroke="black" cx="272" cy="-18" rx="0.036" ry="0.036"/>
</g>
<!-- s1&#45;&gt;v1_intermediate_r -->
<g id="edge2" class="edge"><title>s1&#45;&gt;v1_intermediate_r</title>
<path fill="none" stroke="black" d="M235.631,-18C252.138,-18 269.856,-18 270.947,-18"/>
</g>
<!-- at -->
<g id="at [CHEBI:15422]" class="node"><title>at</title>
<ellipse fill="none" stroke="black" cx="1139" cy="-85" rx="18" ry="18"/>
<text text-anchor="middle" x="1139" y="-82.5" font-family="Times,serif" font-size="10.00">ATP</text>
</g>
<!-- at&#45;&gt;v1_intermediate_r -->
<g id="edge3" class="edge"><title>at&#45;&gt;v1_intermediate_r</title>
<path fill="none" stroke="black" d="M1124.65,-73.3202C1098,-50.2393 1039.77,-1 1028,-1 358,-1 358,-1 358,-1 320.678,-1 275.897,-16.9541 273.134,-17.9512"/>
</g>
<!-- v7_intermediate_r -->
<g id="node26" class="node"><title>v7_intermediate_r</title>
<ellipse fill="black" stroke="black" cx="1207" cy="-85" rx="0.036" ry="0.036"/>
</g>
<!-- at&#45;&gt;v7_intermediate_r -->
<g id="edge26" class="edge"><title>at&#45;&gt;v7_intermediate_r</title>
<path fill="none" stroke="black" d="M1157.34,-85C1176.28,-85 1204.19,-85 1205.92,-85"/>
</g>
<!-- s2 -->
<g id="s2 [CHEBI:16905]" class="node"><title>s2</title>
<ellipse fill="none" stroke="black" cx="414" cy="-70" rx="18" ry="18"/>
<text text-anchor="middle" x="414" y="-67.5" font-family="Times,serif" font-size="10.00">F16P</text>
</g>
<!-- v2_intermediate_r -->
<g id="node14" class="node"><title>v2_intermediate_r</title>
<ellipse fill="black" stroke="black" cx="469" cy="-76" rx="0.036" ry="0.036"/>
</g>
<!-- s2&#45;&gt;v2_intermediate_r -->
<g id="edge7" class="edge"><title>s2&#45;&gt;v2_intermediate_r</title>
<path fill="none" stroke="black" d="M432.061,-71.9315C447.071,-73.6306 466.727,-75.8559 467.941,-75.9933"/>
</g>
<!-- s3 -->
<g id="s3 [CHEBI:16108] [CHEBI:29052]" class="node"><title>s3</title>
<ellipse fill="none" stroke="black" cx="665" cy="-105" rx="71.4572" ry="18"/>
<text text-anchor="middle" x="665" y="-102.5" font-family="Times,serif" font-size="10.00">Triose_Gly3Phos_DHAP</text>
</g>
<!-- v3_intermediate_r -->
<g id="node17" class="node"><title>v3_intermediate_r</title>
<ellipse fill="black" stroke="black" cx="773" cy="-105" rx="0.036" ry="0.036"/>
</g>
<!-- s3&#45;&gt;v3_intermediate_r -->
<g id="edge11" class="edge"><title>s3&#45;&gt;v3_intermediate_r</title>
<path fill="none" stroke="black" d="M736.409,-105C755.375,-105 770.996,-105 771.953,-105"/>
</g>
<!-- v8_intermediate_r -->
<g id="node29" class="node"><title>v8_intermediate_r</title>
<ellipse fill="black" stroke="black" cx="817" cy="-163" rx="0.036" ry="0.036"/>
</g>
<!-- s3&#45;&gt;v8_intermediate_r -->
<g id="edge29" class="edge"><title>s3&#45;&gt;v8_intermediate_r</title>
<path fill="none" stroke="black" d="M705.019,-120.087C748.769,-137.004 813.926,-162.198 815.952,-162.981"/>
</g>
<!-- na -->
<g id="na [CHEBI:15846]" class="node"><title>na</title>
<ellipse fill="none" stroke="black" cx="1707" cy="-131" rx="18" ry="18"/>
<text text-anchor="middle" x="1707" y="-128.5" font-family="Times,serif" font-size="10.00">NAD</text>
</g>
<!-- na&#45;&gt;v3_intermediate_r -->
<g id="edge12" class="edge"><title>na&#45;&gt;v3_intermediate_r</title>
<path fill="none" stroke="black" d="M1688.68,-131C1660.46,-131 1602.82,-131 1554,-131 866,-131 866,-131 866,-131 824.837,-131 777.087,-106.6 774.143,-105.075"/>
</g>
<!-- s4 -->
<g id="s4 [CHEBI:17794]" class="node"><title>s4</title>
<ellipse fill="none" stroke="black" cx="928" cy="-47" rx="18" ry="18"/>
<text text-anchor="middle" x="928" y="-44.5" font-family="Times,serif" font-size="10.00">3PG</text>
</g>
<!-- v4_intermediate_r -->
<g id="node20" class="node"><title>v4_intermediate_r</title>
<ellipse fill="black" stroke="black" cx="983" cy="-47" rx="0.036" ry="0.036"/>
</g>
<!-- s4&#45;&gt;v4_intermediate_r -->
<g id="edge17" class="edge"><title>s4&#45;&gt;v4_intermediate_r</title>
<path fill="none" stroke="black" d="M946.061,-47C961.071,-47 980.727,-47 981.941,-47"/>
</g>
<!-- s5 -->
<g id="s5 [CHEBI:32816] [CHEBI:15361]" class="node"><title>s5</title>
<ellipse fill="none" stroke="black" cx="1139" cy="-31" rx="31.3996" ry="18"/>
<text text-anchor="middle" x="1139" y="-28.5" font-family="Times,serif" font-size="10.00">Pyruvate</text>
</g>
<!-- v5_intermediate_r -->
<g id="node23" class="node"><title>v5_intermediate_r</title>
<ellipse fill="black" stroke="black" cx="1207" cy="-40" rx="0.036" ry="0.036"/>
</g>
<!-- s5&#45;&gt;v5_intermediate_r -->
<g id="edge22" class="edge"><title>s5&#45;&gt;v5_intermediate_r</title>
<path fill="none" stroke="black" d="M1169.53,-35.0262C1186.55,-37.3476 1204.82,-39.8391 1205.95,-39.9925"/>
</g>
<!-- s6 -->
<g id="s6 [CHEBI:15343]" class="node"><title>s6</title>
<ellipse fill="none" stroke="black" cx="1428" cy="-52" rx="43.6222" ry="18"/>
<text text-anchor="middle" x="1428" y="-49.5" font-family="Times,serif" font-size="10.00">Acetaldehyde</text>
</g>
<!-- v10_intermediate_r -->
<g id="node35" class="node"><title>v10_intermediate_r</title>
<ellipse fill="black" stroke="black" cx="1509" cy="-52" rx="0.036" ry="0.036"/>
</g>
<!-- s6&#45;&gt;v10_intermediate_r -->
<g id="edge36" class="edge"><title>s6&#45;&gt;v10_intermediate_r</title>
<path fill="none" stroke="black" d="M1471.74,-52C1489.77,-52 1506.9,-52 1507.95,-52"/>
</g>
<!-- v6_intermediate_r -->
<g id="node38" class="node"><title>v6_intermediate_r</title>
<ellipse fill="black" stroke="black" cx="1509" cy="-77" rx="0.036" ry="0.036"/>
</g>
<!-- s6&#45;&gt;v6_intermediate_r -->
<g id="edge40" class="edge"><title>s6&#45;&gt;v6_intermediate_r</title>
<path fill="none" stroke="black" d="M1462.96,-62.7473C1483.7,-69.3114 1506.53,-76.5334 1507.93,-76.9783"/>
</g>
<!-- s6o -->
<g id="s6o [CHEBI:15343]" class="node"><title>s6o</title>
<ellipse fill="none" stroke="black" cx="1707" cy="-52" rx="72.9884" ry="18"/>
<text text-anchor="middle" x="1707" y="-49.5" font-family="Times,serif" font-size="10.00">extracellular acetaldehyde</text>
</g>
<!-- v9_intermediate_r -->
<g id="node32" class="node"><title>v9_intermediate_r</title>
<ellipse fill="black" stroke="black" cx="1816" cy="-52" rx="0.036" ry="0.036"/>
</g>
<!-- s6o&#45;&gt;v9_intermediate_r -->
<g id="edge33" class="edge"><title>s6o&#45;&gt;v9_intermediate_r</title>
<path fill="none" stroke="black" d="M1780.26,-52C1798.88,-52 1814.03,-52 1814.95,-52"/>
</g>
<!-- v1 -->
<g id="node10" class="node"><title>v1</title>
<polygon fill="none" stroke="black" points="322,-48 308,-48 308,-34 322,-34 322,-48"/>
</g>
<!-- v1_intermediate_p -->
<g id="node12" class="node"><title>v1_intermediate_p</title>
<ellipse fill="black" stroke="black" cx="359" cy="-44" rx="0.036" ry="0.036"/>
</g>
<!-- v1&#45;&gt;v1_intermediate_p -->
<g id="edge4" class="edge"><title>v1&#45;&gt;v1_intermediate_p</title>
<path fill="none" stroke="black" d="M322.197,-41.4427C333.515,-42.2511 356.505,-43.8932 357.93,-43.995"/>
</g>
<!-- v1_intermediate_r&#45;&gt;v1 -->
<g id="edge1" class="edge"><title>v1_intermediate_r&#45;&gt;v1</title>
<path fill="none" stroke="black" d="M273.118,-18.066C274.921,-19.0778 297.016,-31.4723 307.95,-37.6063"/>
</g>
<!-- v1_intermediate_p&#45;&gt;s2 -->
<g id="edge5" class="edge"><title>v1_intermediate_p&#45;&gt;s2</title>
<path fill="none" stroke="black" d="M360.152,-44.0746C361.725,-44.8464 375.241,-51.4767 388.209,-57.8383"/>
<polygon fill="black" stroke="black" points="386.857,-61.0733 397.376,-62.3354 389.94,-54.7888 386.857,-61.0733"/>
</g>
<!-- v2 -->
<g id="node13" class="node"><title>v2</title>
<polygon fill="none" stroke="black" points="520,-94 506,-94 506,-80 520,-80 520,-94"/>
</g>
<!-- v2_intermediate_p -->
<g id="node15" class="node"><title>v2_intermediate_p</title>
<ellipse fill="black" stroke="black" cx="557" cy="-90" rx="0.036" ry="0.036"/>
</g>
<!-- v2&#45;&gt;v2_intermediate_p -->
<g id="edge8" class="edge"><title>v2&#45;&gt;v2_intermediate_p</title>
<path fill="none" stroke="black" d="M520.197,-87.4427C531.515,-88.2511 554.505,-89.8932 555.93,-89.995"/>
</g>
<!-- v2_intermediate_r&#45;&gt;v2 -->
<g id="edge6" class="edge"><title>v2_intermediate_r&#45;&gt;v2</title>
<path fill="none" stroke="black" d="M470.12,-76.0316C471.968,-76.5155 494.602,-82.4433 505.803,-85.3769"/>
</g>
<!-- v2_intermediate_p&#45;&gt;s3 -->
<g id="edge9" class="edge"><title>v2_intermediate_p&#45;&gt;s3</title>
<path fill="none" stroke="black" d="M558.077,-90.0109C559.267,-90.1793 574.142,-92.2843 592.388,-94.8663"/>
<polygon fill="black" stroke="black" points="592.101,-98.3604 602.493,-96.2962 593.082,-91.4295 592.101,-98.3604"/>
</g>
<!-- v3 -->
<g id="node16" class="node"><title>v3</title>
<polygon fill="none" stroke="black" points="824,-101 810,-101 810,-87 824,-87 824,-101"/>
</g>
<!-- v3_intermediate_p -->
<g id="node18" class="node"><title>v3_intermediate_p</title>
<ellipse fill="black" stroke="black" cx="867" cy="-93" rx="0.036" ry="0.036"/>
</g>
<!-- v3&#45;&gt;v3_intermediate_p -->
<g id="edge13" class="edge"><title>v3&#45;&gt;v3_intermediate_p</title>
<path fill="none" stroke="black" d="M824.275,-93.8693C836.88,-93.6067 864.221,-93.0371 865.917,-93.0017"/>
</g>
<!-- v3_intermediate_r&#45;&gt;v3 -->
<g id="edge10" class="edge"><title>v3_intermediate_r&#45;&gt;v3</title>
<path fill="none" stroke="black" d="M774.12,-104.968C775.968,-104.485 798.602,-98.5567 809.803,-95.6231"/>
</g>
<!-- v3_intermediate_p&#45;&gt;s4 -->
<g id="edge14" class="edge"><title>v3_intermediate_p&#45;&gt;s4</title>
<path fill="none" stroke="black" d="M868.169,-92.868C870.161,-91.3154 889.343,-76.3598 905.271,-63.9415"/>
<polygon fill="black" stroke="black" points="907.461,-66.6721 913.195,-57.7632 903.157,-61.1516 907.461,-66.6721"/>
</g>
<!-- v3_intermediate_p&#45;&gt;at -->
<g id="edge15" class="edge"><title>v3_intermediate_p&#45;&gt;at</title>
<path fill="none" stroke="black" d="M868.046,-93C869.976,-93 932.125,-93 982,-93 982,-93 982,-93 1028,-93 1056.3,-93 1088.59,-90.3329 1110.83,-88.0787"/>
<polygon fill="black" stroke="black" points="1111.3,-91.5486 1120.88,-87.0187 1110.57,-84.5872 1111.3,-91.5486"/>
</g>
<!-- v4 -->
<g id="node19" class="node"><title>v4</title>
<polygon fill="none" stroke="black" points="1034,-54 1020,-54 1020,-40 1034,-40 1034,-54"/>
</g>
<!-- v4_intermediate_p -->
<g id="node21" class="node"><title>v4_intermediate_p</title>
<ellipse fill="black" stroke="black" cx="1071" cy="-47" rx="0.036" ry="0.036"/>
</g>
<!-- v4&#45;&gt;v4_intermediate_p -->
<g id="edge18" class="edge"><title>v4&#45;&gt;v4_intermediate_p</title>
<path fill="none" stroke="black" d="M1034.2,-47C1045.52,-47 1068.5,-47 1069.93,-47"/>
</g>
<!-- v4_intermediate_r&#45;&gt;v4 -->
<g id="edge16" class="edge"><title>v4_intermediate_r&#45;&gt;v4</title>
<path fill="none" stroke="black" d="M984.12,-47C985.968,-47 1008.6,-47 1019.8,-47"/>
</g>
<!-- v4_intermediate_p&#45;&gt;s5 -->
<g id="edge19" class="edge"><title>v4_intermediate_p&#45;&gt;s5</title>
<path fill="none" stroke="black" d="M1072.05,-46.9884C1072.93,-46.7747 1085.87,-43.6378 1100.06,-40.1985"/>
<polygon fill="black" stroke="black" points="1101.05,-43.5589 1109.94,-37.8014 1099.4,-36.756 1101.05,-43.5589"/>
</g>
<!-- v4_intermediate_p&#45;&gt;at -->
<g id="edge20" class="edge"><title>v4_intermediate_p&#45;&gt;at</title>
<path fill="none" stroke="black" d="M1072.05,-47.0275C1073.22,-47.7043 1095.83,-60.7198 1114.25,-71.3262"/>
<polygon fill="black" stroke="black" points="1112.69,-74.4682 1123.11,-76.4247 1116.19,-68.4018 1112.69,-74.4682"/>
</g>
<!-- v5 -->
<g id="node22" class="node"><title>v5</title>
<polygon fill="none" stroke="black" points="1258,-51 1244,-51 1244,-37 1258,-37 1258,-51"/>
</g>
<!-- v5_intermediate_p -->
<g id="node24" class="node"><title>v5_intermediate_p</title>
<ellipse fill="black" stroke="black" cx="1321" cy="-47" rx="0.036" ry="0.036"/>
</g>
<!-- v5&#45;&gt;v5_intermediate_p -->
<g id="edge23" class="edge"><title>v5&#45;&gt;v5_intermediate_p</title>
<path fill="none" stroke="black" d="M1258.28,-44.2769C1274.58,-44.9963 1317.22,-46.8774 1319.87,-46.9943"/>
</g>
<!-- v5_intermediate_r&#45;&gt;v5 -->
<g id="edge21" class="edge"><title>v5_intermediate_r&#45;&gt;v5</title>
<path fill="none" stroke="black" d="M1208.12,-40.0115C1209.97,-40.1874 1232.6,-42.343 1243.8,-43.4098"/>
</g>
<!-- v5_intermediate_p&#45;&gt;s6 -->
<g id="edge24" class="edge"><title>v5_intermediate_p&#45;&gt;s6</title>
<path fill="none" stroke="black" d="M1322.08,-47.0036C1323.64,-47.078 1349,-48.2858 1374.4,-49.4952"/>
<polygon fill="black" stroke="black" points="1374.3,-52.9945 1384.46,-49.9742 1374.64,-46.0024 1374.3,-52.9945"/>
</g>
<!-- v7 -->
<g id="node25" class="node"><title>v7</title>
<polygon fill="none" stroke="black" points="1258,-92 1244,-92 1244,-78 1258,-78 1258,-92"/>
</g>
<!-- v7_empty -->
<g id="node27" class="node"><title>v7_empty</title>
<text text-anchor="middle" x="1321" y="-81.5" font-family="Times,serif" font-size="15.00" fill="blue">Ø</text>
</g>
<!-- v7&#45;&gt;v7_empty -->
<g id="edge27" class="edge"><title>v7&#45;&gt;v7_empty</title>
<path fill="none" stroke="black" d="M1258.28,-85C1264.28,-85 1273.85,-85 1283.68,-85"/>
<polygon fill="black" stroke="black" points="1283.88,-88.5001 1293.88,-85 1283.88,-81.5001 1283.88,-88.5001"/>
</g>
<!-- v7_intermediate_r&#45;&gt;v7 -->
<g id="edge25" class="edge"><title>v7_intermediate_r&#45;&gt;v7</title>
<path fill="none" stroke="black" d="M1208.12,-85C1209.97,-85 1232.6,-85 1243.8,-85"/>
</g>
<!-- v8 -->
<g id="node28" class="node"><title>v8</title>
<polygon fill="none" stroke="black" points="874,-174 860,-174 860,-160 874,-160 874,-174"/>
</g>
<!-- v8_intermediate_p -->
<g id="node30" class="node"><title>v8_intermediate_p</title>
<ellipse fill="black" stroke="black" cx="928" cy="-168" rx="0.036" ry="0.036"/>
</g>
<!-- v8&#45;&gt;v8_intermediate_p -->
<g id="edge30" class="edge"><title>v8&#45;&gt;v8_intermediate_p</title>
<path fill="none" stroke="black" d="M874.314,-167.107C889.059,-167.357 924.68,-167.961 926.892,-167.998"/>
</g>
<!-- v8_intermediate_r&#45;&gt;v8 -->
<g id="edge28" class="edge"><title>v8_intermediate_r&#45;&gt;v8</title>
<path fill="none" stroke="black" d="M818.138,-163.011C820.293,-163.191 847.204,-165.434 859.7,-166.475"/>
</g>
<!-- v8_intermediate_p&#45;&gt;na -->
<g id="edge31" class="edge"><title>v8_intermediate_p&#45;&gt;na</title>
<path fill="none" stroke="black" d="M929.156,-168.003C932.357,-168.062 984.234,-169 1026,-169 1026,-169 1026,-169 1554,-169 1599.5,-169 1650.44,-152.775 1680.28,-141.529"/>
<polygon fill="black" stroke="black" points="1681.85,-144.673 1689.91,-137.794 1679.32,-138.146 1681.85,-144.673"/>
</g>
<!-- v9 -->
<g id="node31" class="node"><title>v9</title>
<polygon fill="none" stroke="black" points="1866,-59 1852,-59 1852,-45 1866,-45 1866,-59"/>
</g>
<!-- v9_empty -->
<g id="node33" class="node"><title>v9_empty</title>
<text text-anchor="middle" x="1929" y="-48.5" font-family="Times,serif" font-size="15.00" fill="blue">Ø</text>
</g>
<!-- v9&#45;&gt;v9_empty -->
<g id="edge34" class="edge"><title>v9&#45;&gt;v9_empty</title>
<path fill="none" stroke="black" d="M1866.28,-52C1872.28,-52 1881.85,-52 1891.68,-52"/>
<polygon fill="black" stroke="black" points="1891.88,-55.5001 1901.88,-52 1891.88,-48.5001 1891.88,-55.5001"/>
</g>
<!-- v9_intermediate_r&#45;&gt;v9 -->
<g id="edge32" class="edge"><title>v9_intermediate_r&#45;&gt;v9</title>
<path fill="none" stroke="black" d="M1817.12,-52C1818.92,-52 1841.02,-52 1851.95,-52"/>
</g>
<!-- v10 -->
<g id="node34" class="node"><title>v10</title>
<polygon fill="none" stroke="black" points="1560,-59 1546,-59 1546,-45 1560,-45 1560,-59"/>
</g>
<!-- v10_intermediate_p -->
<g id="node36" class="node"><title>v10_intermediate_p</title>
<ellipse fill="black" stroke="black" cx="1597" cy="-52" rx="0.036" ry="0.036"/>
</g>
<!-- v10&#45;&gt;v10_intermediate_p -->
<g id="edge37" class="edge"><title>v10&#45;&gt;v10_intermediate_p</title>
<path fill="none" stroke="black" d="M1560.2,-52C1571.52,-52 1594.5,-52 1595.93,-52"/>
</g>
<!-- v10_intermediate_r&#45;&gt;v10 -->
<g id="edge35" class="edge"><title>v10_intermediate_r&#45;&gt;v10</title>
<path fill="none" stroke="black" d="M1510.12,-52C1511.97,-52 1534.6,-52 1545.8,-52"/>
</g>
<!-- v10_intermediate_p&#45;&gt;s6o -->
<g id="edge38" class="edge"><title>v10_intermediate_p&#45;&gt;s6o</title>
<path fill="none" stroke="black" d="M1598.08,-52C1599.08,-52 1609.59,-52 1623.69,-52"/>
<polygon fill="black" stroke="black" points="1623.96,-55.5001 1633.96,-52 1623.96,-48.5001 1623.96,-55.5001"/>
</g>
<!-- v6 -->
<g id="node37" class="node"><title>v6</title>
<polygon fill="none" stroke="black" points="1560,-99 1546,-99 1546,-85 1560,-85 1560,-99"/>
</g>
<!-- v6_intermediate_p -->
<g id="node39" class="node"><title>v6_intermediate_p</title>
<ellipse fill="black" stroke="black" cx="1597" cy="-97" rx="0.036" ry="0.036"/>
</g>
<!-- v6&#45;&gt;v6_intermediate_p -->
<g id="edge41" class="edge"><title>v6&#45;&gt;v6_intermediate_p</title>
<path fill="none" stroke="black" d="M1560.2,-92.7378C1571.52,-94.0851 1594.5,-96.822 1595.93,-96.9917"/>
</g>
<!-- v6_intermediate_r&#45;&gt;v6 -->
<g id="edge39" class="edge"><title>v6_intermediate_r&#45;&gt;v6</title>
<path fill="none" stroke="black" d="M1510.12,-77.043C1511.97,-77.7029 1534.6,-85.7863 1545.8,-89.7867"/>
</g>
<!-- v6_intermediate_p&#45;&gt;na -->
<g id="edge42" class="edge"><title>v6_intermediate_p&#45;&gt;na</title>
<path fill="none" stroke="black" d="M1598.08,-97.0246C1600.28,-97.7184 1648.52,-112.904 1679.75,-122.736"/>
<polygon fill="black" stroke="black" points="1679.01,-126.172 1689.6,-125.836 1681.11,-119.495 1679.01,-126.172"/>
</g>
<!-- v0 -->
<g id="node40" class="node"><title>v0</title>
<polygon fill="none" stroke="black" points="104,-25 90,-25 90,-11 104,-11 104,-25"/>
</g>
<!-- v0_intermediate_p -->
<g id="node42" class="node"><title>v0_intermediate_p</title>
<ellipse fill="black" stroke="black" cx="140" cy="-18" rx="0.036" ry="0.036"/>
</g>
<!-- v0&#45;&gt;v0_intermediate_p -->
<g id="edge44" class="edge"><title>v0&#45;&gt;v0_intermediate_p</title>
<path fill="none" stroke="black" d="M104.05,-18C115.098,-18 137.54,-18 138.932,-18"/>
</g>
<!-- v0_empty -->
<g id="node41" class="node"><title>v0_empty</title>
<text text-anchor="middle" x="27" y="-14.5" font-family="Times,serif" font-size="15.00" fill="blue">Ø</text>
</g>
<!-- v0_empty&#45;&gt;v0 -->
<g id="edge43" class="edge"><title>v0_empty&#45;&gt;v0</title>
<path fill="none" stroke="black" d="M54.0961,-18C67.13,-18 81.8045,-18 89.8681,-18"/>
</g>
<!-- v0_intermediate_p&#45;&gt;s1 -->
<g id="edge45" class="edge"><title>v0_intermediate_p&#45;&gt;s1</title>
<path fill="none" stroke="black" d="M141.046,-18C141.861,-18 153.284,-18 166.257,-18"/>
<polygon fill="black" stroke="black" points="166.329,-21.5001 176.329,-18 166.329,-14.5001 166.329,-21.5001"/>
</g>
</g>
</svg>
