<?xml version="1.0" encoding="UTF-8" standalone="no"?>
<!DOCTYPE svg PUBLIC "-//W3C//DTD SVG 1.1//EN"
 "http://www.w3.org/Graphics/SVG/1.1/DTD/svg11.dtd">
<!-- Generated by graphviz version 2.24.0 (20090616.2323)
 -->
<!-- Title: G Pages: 1 -->
<svg width="2030pt" height="496pt"
 viewBox="0.00 0.00 2030.00 496.00" xmlns="http://www.w3.org/2000/svg" xmlns:xlink="http://www.w3.org/1999/xlink">
<g id="graph1" class="graph" transform="scale(1 1) rotate(0) translate(4 492)">
<title>G</title>
<polygon fill="white" stroke="white" points="-4,5 -4,-492 2027,-492 2027,5 -4,5"/>
<!-- species_0 -->
<g id="node1" class="node"><title>species_0</title>
<polyline fill="none" stroke="black" points="492,-118 462,-118 "/>
<path fill="none" stroke="black" d="M462,-118C456,-118 450,-112 450,-106"/>
<polyline fill="none" stroke="black" points="450,-106 450,-94 "/>
<path fill="none" stroke="black" d="M450,-94C450,-88 456,-82 462,-82"/>
<polyline fill="none" stroke="black" points="462,-82 492,-82 "/>
<path fill="none" stroke="black" d="M492,-82C498,-82 504,-88 504,-94"/>
<polyline fill="none" stroke="black" points="504,-94 504,-106 "/>
<path fill="none" stroke="black" d="M504,-106C504,-112 498,-118 492,-118"/>
<text text-anchor="middle" x="477" y="-97.5" font-family="Times Roman,serif" font-size="10.00">A</text>
</g>
<!-- reaction_7_intermediate_r -->
<g id="node59" class="node"><title>reaction_7_intermediate_r</title>
<ellipse fill="black" stroke="black" cx="541" cy="-139" rx="0.036" ry="0.036"/>
</g>
<!-- species_0&#45;&gt;reaction_7_intermediate_r -->
<g id="edge56" class="edge"><title>species_0&#45;&gt;reaction_7_intermediate_r</title>
<path fill="none" stroke="black" d="M512.92,-121.889C526.965,-130.447 539.987,-138.383 540.944,-138.966"/>
<polygon fill="black" stroke="black" points="514.502,-118.754 504.142,-116.54 510.86,-124.732 514.502,-118.754"/>
</g>
<!-- reaction_8_intermediate_r -->
<g id="node67" class="node"><title>reaction_8_intermediate_r</title>
<ellipse fill="black" stroke="black" cx="541" cy="-62" rx="0.036" ry="0.036"/>
</g>
<!-- species_0&#45;&gt;reaction_8_intermediate_r -->
<g id="edge66" class="edge"><title>species_0&#45;&gt;reaction_8_intermediate_r</title>
<path fill="none" stroke="black" d="M512.92,-78.6724C526.965,-70.3333 539.987,-62.6014 540.944,-62.0334"/>
<polygon fill="black" stroke="black" points="510.953,-75.7696 504.142,-83.8846 514.527,-81.7886 510.953,-75.7696"/>
</g>
<!-- reaction_19_intermediate_r -->
<g id="node131" class="node"><title>reaction_19_intermediate_r</title>
<ellipse fill="black" stroke="black" cx="769" cy="-100" rx="0.036" ry="0.036"/>
</g>
<!-- species_0&#45;&gt;reaction_19_intermediate_r -->
<g id="edge146" class="edge"><title>species_0&#45;&gt;reaction_19_intermediate_r</title>
<path fill="none" stroke="black" d="M514.111,-100C534.947,-100 561.421,-100 585,-100 585,-100 585,-100 635,-100 693.625,-100 766.677,-100 768.946,-100"/>
<polygon fill="black" stroke="black" points="514.075,-96.5001 504.074,-100 514.074,-103.5 514.075,-96.5001"/>
</g>
<!-- species_1 -->
<g id="node2" class="node"><title>species_1</title>
<ellipse fill="none" stroke="black" cx="261" cy="-156" rx="27" ry="18"/>
<text text-anchor="middle" x="261" y="-153.5" font-family="Times Roman,serif" font-size="10.00">G</text>
</g>
<!-- reaction_1_intermediate_r -->
<g id="node19" class="node"><title>reaction_1_intermediate_r</title>
<ellipse fill="black" stroke="black" cx="325" cy="-160" rx="0.036" ry="0.036"/>
</g>
<!-- species_1&#45;&gt;reaction_1_intermediate_r -->
<g id="edge4" class="edge"><title>species_1&#45;&gt;reaction_1_intermediate_r</title>
<path fill="none" stroke="black" d="M298.505,-158.344C311.931,-159.183 324.023,-159.939 324.944,-159.996"/>
<polygon fill="black" stroke="black" points="298.341,-154.827 288.142,-157.696 297.904,-161.813 298.341,-154.827"/>
</g>
<!-- species_2 -->
<g id="node3" class="node"><title>species_2</title>
<polyline fill="none" stroke="black" points="1164,-140 1134,-140 "/>
<path fill="none" stroke="black" d="M1134,-140C1128,-140 1122,-134 1122,-128"/>
<polyline fill="none" stroke="black" points="1122,-128 1122,-116 "/>
<path fill="none" stroke="black" d="M1122,-116C1122,-110 1128,-104 1134,-104"/>
<polyline fill="none" stroke="black" points="1134,-104 1164,-104 "/>
<path fill="none" stroke="black" d="M1164,-104C1170,-104 1176,-110 1176,-116"/>
<polyline fill="none" stroke="black" points="1176,-116 1176,-128 "/>
<path fill="none" stroke="black" d="M1176,-128C1176,-134 1170,-140 1164,-140"/>
<text text-anchor="middle" x="1149" y="-119.5" font-family="Times Roman,serif" font-size="10.00">GA</text>
</g>
<!-- reaction_16_intermediate_r -->
<g id="node115" class="node"><title>reaction_16_intermediate_r</title>
<ellipse fill="black" stroke="black" cx="1213" cy="-244" rx="0.036" ry="0.036"/>
</g>
<!-- species_2&#45;&gt;reaction_16_intermediate_r -->
<g id="edge124" class="edge"><title>species_2&#45;&gt;reaction_16_intermediate_r</title>
<path fill="none" stroke="black" d="M1163.1,-148.873C1181.62,-184.185 1211.95,-241.994 1212.97,-243.949"/>
<polygon fill="black" stroke="black" points="1166.19,-147.231 1158.44,-140.002 1159.99,-150.483 1166.19,-147.231"/>
</g>
<!-- species_3 -->
<g id="node4" class="node"><title>species_3</title>
<ellipse fill="none" stroke="black" cx="261" cy="-210" rx="18" ry="18"/>
<text text-anchor="middle" x="261" y="-207.5" font-family="Times Roman,serif" font-size="10.00">T</text>
</g>
<!-- species_3&#45;&gt;reaction_1_intermediate_r -->
<g id="edge6" class="edge"><title>species_3&#45;&gt;reaction_1_intermediate_r</title>
<path fill="none" stroke="black" d="M283.474,-192.442C301.248,-178.557 323.336,-161.3 324.911,-160.07"/>
<polygon fill="black" stroke="black" points="280.929,-189.989 275.204,-198.903 285.239,-195.505 280.929,-189.989"/>
</g>
<!-- reaction_5_intermediate_r -->
<g id="node43" class="node"><title>reaction_5_intermediate_r</title>
<ellipse fill="black" stroke="black" cx="1213" cy="-366" rx="0.036" ry="0.036"/>
</g>
<!-- species_3&#45;&gt;reaction_5_intermediate_r -->
<g id="edge36" class="edge"><title>species_3&#45;&gt;reaction_5_intermediate_r</title>
<path fill="none" stroke="black" d="M279.126,-231.888C298.83,-253.071 332.433,-282 369,-282 369,-282 369,-282 1041,-282 1124.74,-282 1210.28,-363.396 1212.94,-365.939"/>
<polygon fill="black" stroke="black" points="281.551,-229.349 272.278,-224.225 276.332,-234.013 281.551,-229.349"/>
</g>
<!-- reaction_17_intermediate_r -->
<g id="node123" class="node"><title>reaction_17_intermediate_r</title>
<ellipse fill="black" stroke="black" cx="1429" cy="-206" rx="0.036" ry="0.036"/>
</g>
<!-- species_3&#45;&gt;reaction_17_intermediate_r -->
<g id="edge136" class="edge"><title>species_3&#45;&gt;reaction_17_intermediate_r</title>
<path fill="none" stroke="black" d="M289.541,-208.367C311.307,-207.261 342.034,-206 369,-206 369,-206 369,-206 1301,-206 1357,-206 1426.78,-206 1428.95,-206"/>
<polygon fill="black" stroke="black" points="289.138,-204.883 279.337,-208.907 289.508,-211.873 289.138,-204.883"/>
</g>
<!-- species_4 -->
<g id="node5" class="node"><title>species_4</title>
<polyline fill="none" stroke="black" points="492,-346 462,-346 "/>
<path fill="none" stroke="black" d="M462,-346C456,-346 450,-340 450,-334"/>
<polyline fill="none" stroke="black" points="450,-334 450,-322 "/>
<path fill="none" stroke="black" d="M450,-322C450,-316 456,-310 462,-310"/>
<polyline fill="none" stroke="black" points="462,-310 492,-310 "/>
<path fill="none" stroke="black" d="M492,-310C498,-310 504,-316 504,-322"/>
<polyline fill="none" stroke="black" points="504,-322 504,-334 "/>
<path fill="none" stroke="black" d="M504,-334C504,-340 498,-346 492,-346"/>
<text text-anchor="middle" x="477" y="-325.5" font-family="Times Roman,serif" font-size="10.00">R</text>
</g>
<!-- reaction_6_intermediate_r -->
<g id="node51" class="node"><title>reaction_6_intermediate_r</title>
<ellipse fill="black" stroke="black" cx="541" cy="-328" rx="0.036" ry="0.036"/>
</g>
<!-- species_4&#45;&gt;reaction_6_intermediate_r -->
<g id="edge46" class="edge"><title>species_4&#45;&gt;reaction_6_intermediate_r</title>
<path fill="none" stroke="black" d="M514.505,-328C527.931,-328 540.023,-328 540.944,-328"/>
<polygon fill="black" stroke="black" points="514.142,-324.5 504.142,-328 514.142,-331.5 514.142,-324.5"/>
</g>
<!-- reaction_9_intermediate_r -->
<g id="node75" class="node"><title>reaction_9_intermediate_r</title>
<ellipse fill="black" stroke="black" cx="541" cy="-404" rx="0.036" ry="0.036"/>
</g>
<!-- species_4&#45;&gt;reaction_9_intermediate_r -->
<g id="edge76" class="edge"><title>species_4&#45;&gt;reaction_9_intermediate_r</title>
<path fill="none" stroke="black" d="M498.96,-354.019C500.665,-356.042 502.361,-358.054 504,-360 519.946,-378.931 539.72,-402.476 540.941,-403.929"/>
<polygon fill="black" stroke="black" points="501.548,-351.659 492.426,-346.272 496.197,-356.172 501.548,-351.659"/>
</g>
<!-- species_4&#45;&gt;reaction_16_intermediate_r -->
<g id="edge126" class="edge"><title>species_4&#45;&gt;reaction_16_intermediate_r</title>
<path fill="none" stroke="black" d="M510.447,-351.496C530.98,-363.661 558.368,-376 585,-376 585,-376 585,-376 705,-376 759.567,-376 772.443,-359.756 820,-333 875.716,-301.653 869.071,-244 933,-244 933,-244 933,-244 1085,-244 1141,-244 1210.78,-244 1212.95,-244"/>
<polygon fill="black" stroke="black" points="512.152,-348.435 501.807,-346.147 508.467,-354.386 512.152,-348.435"/>
</g>
<!-- species_5 -->
<g id="node6" class="node"><title>species_5</title>
<ellipse fill="none" stroke="black" cx="477" cy="-160" rx="18" ry="18"/>
<text text-anchor="middle" x="477" y="-157.5" font-family="Times Roman,serif" font-size="10.00">G*T</text>
</g>
<!-- reaction_3_intermediate_r -->
<g id="node27" class="node"><title>reaction_3_intermediate_r</title>
<ellipse fill="black" stroke="black" cx="541" cy="-166" rx="0.036" ry="0.036"/>
</g>
<!-- species_5&#45;&gt;reaction_3_intermediate_r -->
<g id="edge14" class="edge"><title>species_5&#45;&gt;reaction_3_intermediate_r</title>
<path fill="none" stroke="black" d="M505.592,-162.68C521.998,-164.219 539.613,-165.87 540.922,-165.993"/>
<polygon fill="black" stroke="black" points="505.452,-159.152 495.169,-161.703 504.798,-166.122 505.452,-159.152"/>
</g>
<!-- species_5&#45;&gt;reaction_6_intermediate_r -->
<g id="edge44" class="edge"><title>species_5&#45;&gt;reaction_6_intermediate_r</title>
<path fill="none" stroke="black" d="M487.093,-186.493C504.821,-233.03 539.803,-324.858 540.97,-327.921"/>
<polygon fill="black" stroke="black" points="490.32,-185.132 483.489,-177.033 483.778,-187.624 490.32,-185.132"/>
</g>
<!-- species_5&#45;&gt;reaction_7_intermediate_r -->
<g id="edge54" class="edge"><title>species_5&#45;&gt;reaction_7_intermediate_r</title>
<path fill="none" stroke="black" d="M503.719,-151.233C520.618,-145.688 539.537,-139.48 540.919,-139.026"/>
<polygon fill="black" stroke="black" points="502.561,-147.929 494.151,-154.372 504.744,-154.58 502.561,-147.929"/>
</g>
<!-- species_6 -->
<g id="node7" class="node"><title>species_6</title>
<ellipse fill="none" stroke="black" cx="54" cy="-284" rx="18" ry="18"/>
<text text-anchor="middle" x="54" y="-281.5" font-family="Times Roman,serif" font-size="10.00">GD</text>
</g>
<!-- reaction_4_intermediate_r -->
<g id="node35" class="node"><title>reaction_4_intermediate_r</title>
<ellipse fill="black" stroke="black" cx="109" cy="-256" rx="0.036" ry="0.036"/>
</g>
<!-- species_6&#45;&gt;reaction_4_intermediate_r -->
<g id="edge24" class="edge"><title>species_6&#45;&gt;reaction_4_intermediate_r</title>
<path fill="none" stroke="black" d="M79.5,-271.018C93.334,-263.975 107.847,-256.587 108.935,-256.033"/>
<polygon fill="black" stroke="black" points="77.5281,-268.095 70.2043,-275.751 80.7039,-274.333 77.5281,-268.095"/>
</g>
<!-- species_6&#45;&gt;reaction_8_intermediate_r -->
<g id="edge64" class="edge"><title>species_6&#45;&gt;reaction_8_intermediate_r</title>
<path fill="none" stroke="black" d="M59.1049,-256.012C71.6616,-191.53 106.447,-38 153,-38 153,-38 153,-38 413,-38 469.976,-38 538.812,-61.2559 540.949,-61.9826"/>
<polygon fill="black" stroke="black" points="55.6524,-255.432 57.2163,-265.911 62.5284,-256.744 55.6524,-255.432"/>
</g>
<!-- species_6&#45;&gt;reaction_9_intermediate_r -->
<g id="edge74" class="edge"><title>species_6&#45;&gt;reaction_9_intermediate_r</title>
<path fill="none" stroke="black" d="M78.3001,-298.209C97.8166,-308.276 126.282,-320 153,-320 153,-320 153,-320 325,-320 375.697,-320 535.887,-401.396 540.881,-403.939"/>
<polygon fill="black" stroke="black" points="79.9486,-295.121 69.485,-293.459 76.6279,-301.284 79.9486,-295.121"/>
</g>
<!-- species_7 -->
<g id="node8" class="node"><title>species_7</title>
<ellipse fill="none" stroke="black" cx="1797" cy="-296" rx="18" ry="18"/>
<text text-anchor="middle" x="1797" y="-293.5" font-family="Times Roman,serif" font-size="10.00">Pi</text>
</g>
<!-- species_8 -->
<g id="node9" class="node"><title>species_8</title>
<ellipse fill="none" stroke="black" cx="2004" cy="-106" rx="18" ry="18"/>
<text text-anchor="middle" x="2004" y="-103.5" font-family="Times Roman,serif" font-size="10.00">D</text>
</g>
<!-- species_9 -->
<g id="node10" class="node"><title>species_9</title>
<ellipse fill="none" stroke="black" cx="1149" cy="-366" rx="27" ry="18"/>
<text text-anchor="middle" x="1149" y="-363.5" font-family="Times Roman,serif" font-size="10.00">RG</text>
</g>
<!-- species_9&#45;&gt;reaction_5_intermediate_r -->
<g id="edge34" class="edge"><title>species_9&#45;&gt;reaction_5_intermediate_r</title>
<path fill="none" stroke="black" d="M1186.51,-366C1199.93,-366 1212.02,-366 1212.94,-366"/>
<polygon fill="black" stroke="black" points="1186.14,-362.5 1176.14,-366 1186.14,-369.5 1186.14,-362.5"/>
</g>
<!-- species_10 -->
<g id="node11" class="node"><title>species_10</title>
<ellipse fill="none" stroke="black" cx="705" cy="-328" rx="18" ry="18"/>
<text text-anchor="middle" x="705" y="-325.5" font-family="Times Roman,serif" font-size="10.00">RG*T</text>
</g>
<!-- reaction_10_intermediate_r -->
<g id="node83" class="node"><title>reaction_10_intermediate_r</title>
<ellipse fill="black" stroke="black" cx="769" cy="-310" rx="0.036" ry="0.036"/>
</g>
<!-- species_10&#45;&gt;reaction_10_intermediate_r -->
<g id="edge84" class="edge"><title>species_10&#45;&gt;reaction_10_intermediate_r</title>
<path fill="none" stroke="black" d="M732.503,-320.265C749.201,-315.568 767.567,-310.403 768.92,-310.022"/>
<polygon fill="black" stroke="black" points="731.167,-317.005 722.488,-323.081 733.062,-323.743 731.167,-317.005"/>
</g>
<!-- species_10&#45;&gt;reaction_19_intermediate_r -->
<g id="edge144" class="edge"><title>species_10&#45;&gt;reaction_19_intermediate_r</title>
<path fill="none" stroke="black" d="M712.681,-300.636C729.401,-241.071 767.705,-104.614 768.968,-100.114"/>
<polygon fill="black" stroke="black" points="709.249,-299.914 709.916,-310.488 715.988,-301.806 709.249,-299.914"/>
</g>
<!-- species_11 -->
<g id="node12" class="node"><title>species_11</title>
<polyline fill="none" stroke="black" points="720,-164 690,-164 "/>
<path fill="none" stroke="black" d="M690,-164C684,-164 678,-158 678,-152"/>
<polyline fill="none" stroke="black" points="678,-152 678,-140 "/>
<path fill="none" stroke="black" d="M678,-140C678,-134 684,-128 690,-128"/>
<polyline fill="none" stroke="black" points="690,-128 720,-128 "/>
<path fill="none" stroke="black" d="M720,-128C726,-128 732,-134 732,-140"/>
<polyline fill="none" stroke="black" points="732,-140 732,-152 "/>
<path fill="none" stroke="black" d="M732,-152C732,-158 726,-164 720,-164"/>
<text text-anchor="middle" x="705" y="-143.5" font-family="Times Roman,serif" font-size="10.00">G*AT</text>
</g>
<!-- reaction_13_intermediate_r -->
<g id="node99" class="node"><title>reaction_13_intermediate_r</title>
<ellipse fill="black" stroke="black" cx="769" cy="-146" rx="0.036" ry="0.036"/>
</g>
<!-- species_11&#45;&gt;reaction_13_intermediate_r -->
<g id="edge104" class="edge"><title>species_11&#45;&gt;reaction_13_intermediate_r</title>
<path fill="none" stroke="black" d="M742.505,-146C755.931,-146 768.023,-146 768.944,-146"/>
<polygon fill="black" stroke="black" points="742.142,-142.5 732.142,-146 742.142,-149.5 742.142,-142.5"/>
</g>
<!-- species_12 -->
<g id="node13" class="node"><title>species_12</title>
<polyline fill="none" stroke="black" points="948,-139 918,-139 "/>
<path fill="none" stroke="black" d="M918,-139C912,-139 906,-133 906,-127"/>
<polyline fill="none" stroke="black" points="906,-127 906,-115 "/>
<path fill="none" stroke="black" d="M906,-115C906,-109 912,-103 918,-103"/>
<polyline fill="none" stroke="black" points="918,-103 948,-103 "/>
<path fill="none" stroke="black" d="M948,-103C954,-103 960,-109 960,-115"/>
<polyline fill="none" stroke="black" points="960,-115 960,-127 "/>
<path fill="none" stroke="black" d="M960,-127C960,-133 954,-139 948,-139"/>
<text text-anchor="middle" x="933" y="-118.5" font-family="Times Roman,serif" font-size="10.00">GAD</text>
</g>
<!-- reaction_14_intermediate_r -->
<g id="node107" class="node"><title>reaction_14_intermediate_r</title>
<ellipse fill="black" stroke="black" cx="997" cy="-121" rx="0.036" ry="0.036"/>
</g>
<!-- species_12&#45;&gt;reaction_14_intermediate_r -->
<g id="edge114" class="edge"><title>species_12&#45;&gt;reaction_14_intermediate_r</title>
<path fill="none" stroke="black" d="M970.505,-121C983.931,-121 996.023,-121 996.944,-121"/>
<polygon fill="black" stroke="black" points="970.142,-117.5 960.142,-121 970.142,-124.5 970.142,-117.5"/>
</g>
<!-- species_13 -->
<g id="node14" class="node"><title>species_13</title>
<ellipse fill="none" stroke="black" cx="933" cy="-436" rx="18" ry="18"/>
<text text-anchor="middle" x="933" y="-433.5" font-family="Times Roman,serif" font-size="10.00">RGD</text>
</g>
<!-- reaction_11_intermediate_r -->
<g id="node91" class="node"><title>reaction_11_intermediate_r</title>
<ellipse fill="black" stroke="black" cx="997" cy="-436" rx="0.036" ry="0.036"/>
</g>
<!-- species_13&#45;&gt;reaction_11_intermediate_r -->
<g id="edge94" class="edge"><title>species_13&#45;&gt;reaction_11_intermediate_r</title>
<path fill="none" stroke="black" d="M961.592,-436C977.998,-436 995.613,-436 996.922,-436"/>
<polygon fill="black" stroke="black" points="961.169,-432.5 951.169,-436 961.169,-439.5 961.169,-432.5"/>
</g>
<!-- species_14 -->
<g id="node15" class="node"><title>species_14</title>
<polyline fill="none" stroke="black" points="1380,-270 1350,-270 "/>
<path fill="none" stroke="black" d="M1350,-270C1344,-270 1338,-264 1338,-258"/>
<polyline fill="none" stroke="black" points="1338,-258 1338,-246 "/>
<path fill="none" stroke="black" d="M1338,-246C1338,-240 1344,-234 1350,-234"/>
<polyline fill="none" stroke="black" points="1350,-234 1380,-234 "/>
<path fill="none" stroke="black" d="M1380,-234C1386,-234 1392,-240 1392,-246"/>
<polyline fill="none" stroke="black" points="1392,-246 1392,-258 "/>
<path fill="none" stroke="black" d="M1392,-258C1392,-264 1386,-270 1380,-270"/>
<text text-anchor="middle" x="1365" y="-249.5" font-family="Times Roman,serif" font-size="10.00">RGA</text>
</g>
<!-- species_14&#45;&gt;reaction_17_intermediate_r -->
<g id="edge134" class="edge"><title>species_14&#45;&gt;reaction_17_intermediate_r</title>
<path fill="none" stroke="black" d="M1398.54,-227.895C1413.44,-217.185 1427.9,-206.794 1428.94,-206.043"/>
<polygon fill="black" stroke="black" points="1396.37,-225.141 1390.29,-233.82 1400.46,-230.825 1396.37,-225.141"/>
</g>
<!-- species_15 -->
<g id="node16" class="node"><title>species_15</title>
<polyline fill="none" stroke="black" points="1596,-142 1566,-142 "/>
<path fill="none" stroke="black" d="M1566,-142C1560,-142 1554,-136 1554,-130"/>
<polyline fill="none" stroke="black" points="1554,-130 1554,-118 "/>
<path fill="none" stroke="black" d="M1554,-118C1554,-112 1560,-106 1566,-106"/>
<polyline fill="none" stroke="black" points="1566,-106 1596,-106 "/>
<path fill="none" stroke="black" d="M1596,-106C1602,-106 1608,-112 1608,-118"/>
<polyline fill="none" stroke="black" points="1608,-118 1608,-130 "/>
<path fill="none" stroke="black" d="M1608,-130C1608,-136 1602,-142 1596,-142"/>
<text text-anchor="middle" x="1581" y="-121.5" font-family="Times Roman,serif" font-size="10.00">RG*AT</text>
</g>
<!-- reaction_20_intermediate_r -->
<g id="node139" class="node"><title>reaction_20_intermediate_r</title>
<ellipse fill="black" stroke="black" cx="1645" cy="-129" rx="0.036" ry="0.036"/>
</g>
<!-- species_15&#45;&gt;reaction_20_intermediate_r -->
<g id="edge154" class="edge"><title>species_15&#45;&gt;reaction_20_intermediate_r</title>
<path fill="none" stroke="black" d="M1618.51,-126.93C1631.93,-127.979 1644.02,-128.924 1644.94,-128.996"/>
<polygon fill="black" stroke="black" points="1618.38,-123.41 1608.14,-126.12 1617.84,-130.389 1618.38,-123.41"/>
</g>
<!-- species_16 -->
<g id="node17" class="node"><title>species_16</title>
<polyline fill="none" stroke="black" points="1812,-155 1782,-155 "/>
<path fill="none" stroke="black" d="M1782,-155C1776,-155 1770,-149 1770,-143"/>
<polyline fill="none" stroke="black" points="1770,-143 1770,-131 "/>
<path fill="none" stroke="black" d="M1770,-131C1770,-125 1776,-119 1782,-119"/>
<polyline fill="none" stroke="black" points="1782,-119 1812,-119 "/>
<path fill="none" stroke="black" d="M1812,-119C1818,-119 1824,-125 1824,-131"/>
<polyline fill="none" stroke="black" points="1824,-131 1824,-143 "/>
<path fill="none" stroke="black" d="M1824,-143C1824,-149 1818,-155 1812,-155"/>
<text text-anchor="middle" x="1797" y="-134.5" font-family="Times Roman,serif" font-size="10.00">RGAD</text>
</g>
<!-- reaction_23_intermediate_r -->
<g id="node147" class="node"><title>reaction_23_intermediate_r</title>
<ellipse fill="black" stroke="black" cx="1861" cy="-137" rx="0.036" ry="0.036"/>
</g>
<!-- species_16&#45;&gt;reaction_23_intermediate_r -->
<g id="edge164" class="edge"><title>species_16&#45;&gt;reaction_23_intermediate_r</title>
<path fill="none" stroke="black" d="M1834.51,-137C1847.93,-137 1860.02,-137 1860.94,-137"/>
<polygon fill="black" stroke="black" points="1834.14,-133.5 1824.14,-137 1834.14,-140.5 1834.14,-133.5"/>
</g>
<!-- reaction_1 -->
<g id="node18" class="node"><title>reaction_1</title>
<polygon fill="none" stroke="black" points="376,-167 362,-167 362,-153 376,-153 376,-167"/>
</g>
<!-- reaction_1_intermediate_p -->
<g id="node23" class="node"><title>reaction_1_intermediate_p</title>
<ellipse fill="black" stroke="black" cx="413" cy="-160" rx="0.036" ry="0.036"/>
</g>
<!-- reaction_1&#45;&gt;reaction_1_intermediate_p -->
<g id="edge8" class="edge"><title>reaction_1&#45;&gt;reaction_1_intermediate_p</title>
<path fill="none" stroke="black" d="M376.266,-160C388.372,-160 411.497,-160 412.93,-160"/>
</g>
<!-- reaction_1_intermediate_r&#45;&gt;reaction_1 -->
<g id="edge2" class="edge"><title>reaction_1_intermediate_r&#45;&gt;reaction_1</title>
<path fill="none" stroke="black" d="M325.126,-160C327.022,-160 349.795,-160 361.759,-160"/>
</g>
<!-- reaction_1_intermediate_p&#45;&gt;species_5 -->
<g id="edge10" class="edge"><title>reaction_1_intermediate_p&#45;&gt;species_5</title>
<path fill="none" stroke="black" d="M413.046,-160C414.081,-160 432.231,-160 448.931,-160"/>
<polygon fill="black" stroke="black" points="448.975,-163.5 458.975,-160 448.975,-156.5 448.975,-163.5"/>
</g>
<!-- reaction_3 -->
<g id="node26" class="node"><title>reaction_3</title>
<polygon fill="none" stroke="black" points="592,-178 578,-178 578,-164 592,-164 592,-178"/>
</g>
<!-- reaction_3_intermediate_p -->
<g id="node30" class="node"><title>reaction_3_intermediate_p</title>
<ellipse fill="black" stroke="black" cx="0" cy="-358" rx="0.036" ry="0.036"/>
</g>
<!-- reaction_3&#45;&gt;reaction_3_intermediate_p -->
<g id="edge16" class="edge"><title>reaction_3&#45;&gt;reaction_3_intermediate_p</title>
<path fill="none" stroke="black" d="M577.714,-178.102C542.359,-212.26 387.83,-358 325,-358 109,-358 109,-358 109,-358 61.3125,-358 1.8894,-358 0.044075,-358"/>
</g>
<!-- reaction_3_intermediate_r&#45;&gt;reaction_3 -->
<g id="edge12" class="edge"><title>reaction_3_intermediate_r&#45;&gt;reaction_3</title>
<path fill="none" stroke="black" d="M541.126,-166.014C543.022,-166.23 565.795,-168.818 577.759,-170.177"/>
</g>
<!-- reaction_3_intermediate_p&#45;&gt;species_6 -->
<g id="edge18" class="edge"><title>reaction_3_intermediate_p&#45;&gt;species_6</title>
<path fill="none" stroke="black" d="M0.0391388,-357.946C1.06088,-356.546 21.8739,-328.025 37.3463,-306.822"/>
<polygon fill="black" stroke="black" points="40.3042,-308.706 43.3716,-298.565 34.6496,-304.58 40.3042,-308.706"/>
</g>
<!-- reaction_3_intermediate_p&#45;&gt;species_7 -->
<g id="edge20" class="edge"><title>reaction_3_intermediate_p&#45;&gt;species_7</title>
<path fill="none" stroke="black" d="M0.0246408,-358.094C1.06021,-362.031 34.7783,-488 109,-488 109,-488 109,-488 1645,-488 1727.9,-488 1772.7,-376.599 1789.34,-323.509"/>
<polygon fill="black" stroke="black" points="1792.76,-324.304 1792.3,-313.719 1786.06,-322.28 1792.76,-324.304"/>
</g>
<!-- reaction_4 -->
<g id="node34" class="node"><title>reaction_4</title>
<polygon fill="none" stroke="black" points="160,-227 146,-227 146,-213 160,-213 160,-227"/>
</g>
<!-- reaction_4_intermediate_p -->
<g id="node38" class="node"><title>reaction_4_intermediate_p</title>
<ellipse fill="black" stroke="black" cx="197" cy="-156" rx="0.036" ry="0.036"/>
</g>
<!-- reaction_4&#45;&gt;reaction_4_intermediate_p -->
<g id="edge26" class="edge"><title>reaction_4&#45;&gt;reaction_4_intermediate_p</title>
<path fill="none" stroke="black" d="M158.047,-212.658C169.244,-196.373 195.303,-158.468 196.921,-156.115"/>
</g>
<!-- reaction_4_intermediate_r&#45;&gt;reaction_4 -->
<g id="edge22" class="edge"><title>reaction_4_intermediate_r&#45;&gt;reaction_4</title>
<path fill="none" stroke="black" d="M109.126,-255.897C111.022,-254.346 133.795,-235.714 145.759,-225.924"/>
</g>
<!-- reaction_4_intermediate_p&#45;&gt;species_1 -->
<g id="edge28" class="edge"><title>reaction_4_intermediate_p&#45;&gt;species_1</title>
<path fill="none" stroke="black" d="M197.046,-156C197.885,-156 209.971,-156 223.414,-156"/>
<polygon fill="black" stroke="black" points="223.794,-159.5 233.794,-156 223.794,-152.5 223.794,-159.5"/>
</g>
<!-- reaction_4_intermediate_p&#45;&gt;species_8 -->
<g id="edge30" class="edge"><title>reaction_4_intermediate_p&#45;&gt;species_8</title>
<path fill="none" stroke="black" d="M197.044,-155.942C198.905,-153.52 258.962,-76 325,-76 325,-76 325,-76 369,-76 452.574,-76 457.426,-0 541,-0 541,-0 541,-0 1905,-0 1948.59,-0 1978.49,-48.4606 1993.29,-79.8488"/>
<polygon fill="black" stroke="black" points="1990.1,-81.2875 1997.4,-88.9693 1996.48,-78.4139 1990.1,-81.2875"/>
</g>
<!-- reaction_5 -->
<g id="node42" class="node"><title>reaction_5</title>
<polygon fill="none" stroke="black" points="1264,-379 1250,-379 1250,-365 1264,-365 1264,-379"/>
</g>
<!-- reaction_5_intermediate_p -->
<g id="node47" class="node"><title>reaction_5_intermediate_p</title>
<ellipse fill="black" stroke="black" cx="1301" cy="-392" rx="0.036" ry="0.036"/>
</g>
<!-- reaction_5&#45;&gt;reaction_5_intermediate_p -->
<g id="edge38" class="edge"><title>reaction_5&#45;&gt;reaction_5_intermediate_p</title>
<path fill="none" stroke="black" d="M1264.27,-375.303C1276.37,-380.806 1299.5,-391.317 1300.93,-391.968"/>
</g>
<!-- reaction_5_intermediate_r&#45;&gt;reaction_5 -->
<g id="edge32" class="edge"><title>reaction_5_intermediate_r&#45;&gt;reaction_5</title>
<path fill="none" stroke="black" d="M1213.13,-366.017C1215.02,-366.276 1237.79,-369.381 1249.76,-371.013"/>
</g>
<!-- reaction_5_intermediate_p&#45;&gt;species_10 -->
<g id="edge40" class="edge"><title>reaction_5_intermediate_p&#45;&gt;species_10</title>
<path fill="none" stroke="black" d="M1300.95,-392.001C1298.83,-392.024 1230.69,-392.781 1176,-393 1152,-393.096 1145.93,-394.854 1122,-393 974.26,-381.555 799.698,-347.626 732.898,-333.881"/>
<polygon fill="black" stroke="black" points="733.27,-330.384 722.767,-331.781 731.848,-337.238 733.27,-330.384"/>
</g>
<!-- reaction_6 -->
<g id="node50" class="node"><title>reaction_6</title>
<polygon fill="none" stroke="black" points="592,-335 578,-335 578,-321 592,-321 592,-335"/>
</g>
<!-- reaction_6_intermediate_p -->
<g id="node55" class="node"><title>reaction_6_intermediate_p</title>
<ellipse fill="black" stroke="black" cx="635" cy="-328" rx="0.036" ry="0.036"/>
</g>
<!-- reaction_6&#45;&gt;reaction_6_intermediate_p -->
<g id="edge48" class="edge"><title>reaction_6&#45;&gt;reaction_6_intermediate_p</title>
<path fill="none" stroke="black" d="M592.378,-328C605.851,-328 633.22,-328 634.917,-328"/>
</g>
<!-- reaction_6_intermediate_r&#45;&gt;reaction_6 -->
<g id="edge42" class="edge"><title>reaction_6_intermediate_r&#45;&gt;reaction_6</title>
<path fill="none" stroke="black" d="M541.126,-328C543.022,-328 565.795,-328 577.759,-328"/>
</g>
<!-- reaction_6_intermediate_p&#45;&gt;species_10 -->
<g id="edge50" class="edge"><title>reaction_6_intermediate_p&#45;&gt;species_10</title>
<path fill="none" stroke="black" d="M635.051,-328C636.231,-328 657.799,-328 676.676,-328"/>
<polygon fill="black" stroke="black" points="676.74,-331.5 686.74,-328 676.74,-324.5 676.74,-331.5"/>
</g>
<!-- reaction_7 -->
<g id="node58" class="node"><title>reaction_7</title>
<polygon fill="none" stroke="black" points="592,-146 578,-146 578,-132 592,-132 592,-146"/>
</g>
<!-- reaction_7_intermediate_p -->
<g id="node63" class="node"><title>reaction_7_intermediate_p</title>
<ellipse fill="black" stroke="black" cx="635" cy="-144" rx="0.036" ry="0.036"/>
</g>
<!-- reaction_7&#45;&gt;reaction_7_intermediate_p -->
<g id="edge58" class="edge"><title>reaction_7&#45;&gt;reaction_7_intermediate_p</title>
<path fill="none" stroke="black" d="M592.378,-139.738C605.851,-141.085 633.22,-143.822 634.917,-143.992"/>
</g>
<!-- reaction_7_intermediate_r&#45;&gt;reaction_7 -->
<g id="edge52" class="edge"><title>reaction_7_intermediate_r&#45;&gt;reaction_7</title>
<path fill="none" stroke="black" d="M541.126,-139C543.022,-139 565.795,-139 577.759,-139"/>
</g>
<!-- reaction_7_intermediate_p&#45;&gt;species_11 -->
<g id="edge60" class="edge"><title>reaction_7_intermediate_p&#45;&gt;species_11</title>
<path fill="none" stroke="black" d="M635.051,-144.001C636.045,-144.03 651.496,-144.471 667.624,-144.932"/>
<polygon fill="black" stroke="black" points="667.533,-148.431 677.629,-145.218 667.733,-141.434 667.533,-148.431"/>
</g>
<!-- reaction_8 -->
<g id="node66" class="node"><title>reaction_8</title>
<polygon fill="none" stroke="black" points="642,-69 628,-69 628,-55 642,-55 642,-69"/>
</g>
<!-- reaction_8_intermediate_p -->
<g id="node71" class="node"><title>reaction_8_intermediate_p</title>
<ellipse fill="black" stroke="black" cx="813" cy="-65" rx="0.036" ry="0.036"/>
</g>
<!-- reaction_8&#45;&gt;reaction_8_intermediate_p -->
<g id="edge68" class="edge"><title>reaction_8&#45;&gt;reaction_8_intermediate_p</title>
<path fill="none" stroke="black" d="M642.198,-62.1213C674.979,-62.6738 808.729,-64.928 812.9,-64.9983"/>
</g>
<!-- reaction_8_intermediate_r&#45;&gt;reaction_8 -->
<g id="edge62" class="edge"><title>reaction_8_intermediate_r&#45;&gt;reaction_8</title>
<path fill="none" stroke="black" d="M541.068,-62C543.425,-62 606.296,-62 627.838,-62"/>
</g>
<!-- reaction_8_intermediate_p&#45;&gt;species_12 -->
<g id="edge70" class="edge"><title>reaction_8_intermediate_p&#45;&gt;species_12</title>
<path fill="none" stroke="black" d="M813.087,-65.0406C815.37,-66.1062 862.139,-87.9314 896.58,-104.004"/>
<polygon fill="black" stroke="black" points="895.378,-107.305 905.92,-108.363 898.338,-100.962 895.378,-107.305"/>
</g>
<!-- reaction_9 -->
<g id="node74" class="node"><title>reaction_9</title>
<polygon fill="none" stroke="black" points="592,-425 578,-425 578,-411 592,-411 592,-425"/>
</g>
<!-- reaction_9_intermediate_p -->
<g id="node79" class="node"><title>reaction_9_intermediate_p</title>
<ellipse fill="black" stroke="black" cx="705" cy="-428" rx="0.036" ry="0.036"/>
</g>
<!-- reaction_9&#45;&gt;reaction_9_intermediate_p -->
<g id="edge78" class="edge"><title>reaction_9&#45;&gt;reaction_9_intermediate_p</title>
<path fill="none" stroke="black" d="M592.147,-418.596C617.577,-420.715 702.296,-427.775 704.937,-427.995"/>
</g>
<!-- reaction_9_intermediate_r&#45;&gt;reaction_9 -->
<g id="edge72" class="edge"><title>reaction_9_intermediate_r&#45;&gt;reaction_9</title>
<path fill="none" stroke="black" d="M541.126,-404.04C543.022,-404.643 565.795,-411.889 577.759,-415.696"/>
</g>
<!-- reaction_9_intermediate_p&#45;&gt;species_13 -->
<g id="edge80" class="edge"><title>reaction_9_intermediate_p&#45;&gt;species_13</title>
<path fill="none" stroke="black" d="M705.165,-428.006C710.522,-428.194 844.736,-432.903 904.615,-435.004"/>
<polygon fill="black" stroke="black" points="904.766,-438.511 914.883,-435.364 905.012,-431.516 904.766,-438.511"/>
</g>
<!-- reaction_10 -->
<g id="node82" class="node"><title>reaction_10</title>
<polygon fill="none" stroke="black" points="820,-324 806,-324 806,-310 820,-310 820,-324"/>
</g>
<!-- reaction_10_intermediate_p -->
<g id="node86" class="node"><title>reaction_10_intermediate_p</title>
<ellipse fill="black" stroke="black" cx="863" cy="-320" rx="0.036" ry="0.036"/>
</g>
<!-- reaction_10&#45;&gt;reaction_10_intermediate_p -->
<g id="edge86" class="edge"><title>reaction_10&#45;&gt;reaction_10_intermediate_p</title>
<path fill="none" stroke="black" d="M820.378,-317.443C833.851,-318.251 861.22,-319.893 862.917,-319.995"/>
</g>
<!-- reaction_10_intermediate_r&#45;&gt;reaction_10 -->
<g id="edge82" class="edge"><title>reaction_10_intermediate_r&#45;&gt;reaction_10</title>
<path fill="none" stroke="black" d="M769.126,-310.02C771.022,-310.322 793.795,-313.945 805.759,-315.848"/>
</g>
<!-- reaction_10_intermediate_p&#45;&gt;species_7 -->
<g id="edge90" class="edge"><title>reaction_10_intermediate_p&#45;&gt;species_7</title>
<path fill="none" stroke="black" d="M863.054,-320C865.323,-320 938.375,-320 997,-320 997,-320 997,-320 1041,-320 1213.72,-320 1256.28,-298 1429,-298 1429,-298 1429,-298 1689,-298 1715.95,-298 1746.68,-297.37 1768.45,-296.817"/>
<polygon fill="black" stroke="black" points="1768.75,-300.31 1778.66,-296.547 1768.57,-293.313 1768.75,-300.31"/>
</g>
<!-- reaction_10_intermediate_p&#45;&gt;species_13 -->
<g id="edge88" class="edge"><title>reaction_10_intermediate_p&#45;&gt;species_13</title>
<path fill="none" stroke="black" d="M863.051,-320.084C864.534,-322.542 898.2,-378.331 918.277,-411.602"/>
<polygon fill="black" stroke="black" points="915.378,-413.572 923.541,-420.326 921.371,-409.955 915.378,-413.572"/>
</g>
<!-- reaction_11 -->
<g id="node90" class="node"><title>reaction_11</title>
<polygon fill="none" stroke="black" points="1048,-443 1034,-443 1034,-429 1048,-429 1048,-443"/>
</g>
<!-- reaction_11_intermediate_p -->
<g id="node94" class="node"><title>reaction_11_intermediate_p</title>
<ellipse fill="black" stroke="black" cx="1085" cy="-436" rx="0.036" ry="0.036"/>
</g>
<!-- reaction_11&#45;&gt;reaction_11_intermediate_p -->
<g id="edge96" class="edge"><title>reaction_11&#45;&gt;reaction_11_intermediate_p</title>
<path fill="none" stroke="black" d="M1048.27,-436C1060.37,-436 1083.5,-436 1084.93,-436"/>
</g>
<!-- reaction_11_intermediate_r&#45;&gt;reaction_11 -->
<g id="edge92" class="edge"><title>reaction_11_intermediate_r&#45;&gt;reaction_11</title>
<path fill="none" stroke="black" d="M997.126,-436C999.022,-436 1021.79,-436 1033.76,-436"/>
</g>
<!-- reaction_11_intermediate_p&#45;&gt;species_8 -->
<g id="edge100" class="edge"><title>reaction_11_intermediate_p&#45;&gt;species_8</title>
<path fill="none" stroke="black" d="M1085.05,-436.01C1087.21,-436.434 1156.67,-450 1213,-450 1213,-450 1213,-450 1905,-450 1970.57,-450 1995.31,-216.252 2001.98,-134.121"/>
<polygon fill="black" stroke="black" points="2005.48,-134.253 2002.77,-124.011 1998.5,-133.707 2005.48,-134.253"/>
</g>
<!-- reaction_11_intermediate_p&#45;&gt;species_9 -->
<g id="edge98" class="edge"><title>reaction_11_intermediate_p&#45;&gt;species_9</title>
<path fill="none" stroke="black" d="M1085.05,-435.949C1086.23,-434.655 1109.8,-408.88 1127.98,-388.992"/>
<polygon fill="black" stroke="black" points="1130.71,-391.196 1134.87,-381.454 1125.54,-386.472 1130.71,-391.196"/>
</g>
<!-- reaction_13 -->
<g id="node98" class="node"><title>reaction_13</title>
<polygon fill="none" stroke="black" points="820,-153 806,-153 806,-139 820,-139 820,-153"/>
</g>
<!-- reaction_13_intermediate_p -->
<g id="node102" class="node"><title>reaction_13_intermediate_p</title>
<ellipse fill="black" stroke="black" cx="863" cy="-146" rx="0.036" ry="0.036"/>
</g>
<!-- reaction_13&#45;&gt;reaction_13_intermediate_p -->
<g id="edge106" class="edge"><title>reaction_13&#45;&gt;reaction_13_intermediate_p</title>
<path fill="none" stroke="black" d="M820.378,-146C833.851,-146 861.22,-146 862.917,-146"/>
</g>
<!-- reaction_13_intermediate_r&#45;&gt;reaction_13 -->
<g id="edge102" class="edge"><title>reaction_13_intermediate_r&#45;&gt;reaction_13</title>
<path fill="none" stroke="black" d="M769.126,-146C771.022,-146 793.795,-146 805.759,-146"/>
</g>
<!-- reaction_13_intermediate_p&#45;&gt;species_7 -->
<g id="edge110" class="edge"><title>reaction_13_intermediate_p&#45;&gt;species_7</title>
<path fill="none" stroke="black" d="M863.054,-146.016C865.298,-146.682 937.59,-168 997,-168 997,-168 997,-168 1301,-168 1425.45,-168 1456.55,-170 1581,-170 1581,-170 1581,-170 1689,-170 1740.75,-170 1773.05,-232.025 1787.71,-269.04"/>
<polygon fill="black" stroke="black" points="1784.57,-270.63 1791.38,-278.744 1791.12,-268.153 1784.57,-270.63"/>
</g>
<!-- reaction_13_intermediate_p&#45;&gt;species_12 -->
<g id="edge108" class="edge"><title>reaction_13_intermediate_p&#45;&gt;species_12</title>
<path fill="none" stroke="black" d="M863.051,-145.982C864.054,-145.623 879.789,-140.004 896.08,-134.186"/>
<polygon fill="black" stroke="black" points="897.389,-137.435 905.629,-130.775 895.035,-130.843 897.389,-137.435"/>
</g>
<!-- reaction_14 -->
<g id="node106" class="node"><title>reaction_14</title>
<polygon fill="none" stroke="black" points="1048,-128 1034,-128 1034,-114 1048,-114 1048,-128"/>
</g>
<!-- reaction_14_intermediate_p -->
<g id="node110" class="node"><title>reaction_14_intermediate_p</title>
<ellipse fill="black" stroke="black" cx="1085" cy="-121" rx="0.036" ry="0.036"/>
</g>
<!-- reaction_14&#45;&gt;reaction_14_intermediate_p -->
<g id="edge116" class="edge"><title>reaction_14&#45;&gt;reaction_14_intermediate_p</title>
<path fill="none" stroke="black" d="M1048.27,-121C1060.37,-121 1083.5,-121 1084.93,-121"/>
</g>
<!-- reaction_14_intermediate_r&#45;&gt;reaction_14 -->
<g id="edge112" class="edge"><title>reaction_14_intermediate_r&#45;&gt;reaction_14</title>
<path fill="none" stroke="black" d="M997.126,-121C999.022,-121 1021.79,-121 1033.76,-121"/>
</g>
<!-- reaction_14_intermediate_p&#45;&gt;species_2 -->
<g id="edge118" class="edge"><title>reaction_14_intermediate_p&#45;&gt;species_2</title>
<path fill="none" stroke="black" d="M1085.05,-121.001C1085.88,-121.014 1097.97,-121.203 1111.41,-121.413"/>
<polygon fill="black" stroke="black" points="1111.74,-124.918 1121.79,-121.575 1111.85,-117.919 1111.74,-124.918"/>
</g>
<!-- reaction_14_intermediate_p&#45;&gt;species_8 -->
<g id="edge120" class="edge"><title>reaction_14_intermediate_p&#45;&gt;species_8</title>
<path fill="none" stroke="black" d="M1085.05,-120.948C1086.16,-119.885 1104.14,-102.747 1122,-95 1159.91,-78.5617 1171.68,-76 1213,-76 1213,-76 1213,-76 1905,-76 1930.81,-76 1958.84,-85.4551 1978.47,-93.7492"/>
<polygon fill="black" stroke="black" points="1977.08,-96.9631 1987.64,-97.8024 1979.91,-90.56 1977.08,-96.9631"/>
</g>
<!-- reaction_16 -->
<g id="node114" class="node"><title>reaction_16</title>
<polygon fill="none" stroke="black" points="1264,-253 1250,-253 1250,-239 1264,-239 1264,-253"/>
</g>
<!-- reaction_16_intermediate_p -->
<g id="node119" class="node"><title>reaction_16_intermediate_p</title>
<ellipse fill="black" stroke="black" cx="1301" cy="-250" rx="0.036" ry="0.036"/>
</g>
<!-- reaction_16&#45;&gt;reaction_16_intermediate_p -->
<g id="edge128" class="edge"><title>reaction_16&#45;&gt;reaction_16_intermediate_p</title>
<path fill="none" stroke="black" d="M1264.27,-246.661C1276.37,-247.761 1299.5,-249.863 1300.93,-249.994"/>
</g>
<!-- reaction_16_intermediate_r&#45;&gt;reaction_16 -->
<g id="edge122" class="edge"><title>reaction_16_intermediate_r&#45;&gt;reaction_16</title>
<path fill="none" stroke="black" d="M1213.13,-244.006C1215.02,-244.092 1237.79,-245.127 1249.76,-245.671"/>
</g>
<!-- reaction_16_intermediate_p&#45;&gt;species_14 -->
<g id="edge130" class="edge"><title>reaction_16_intermediate_p&#45;&gt;species_14</title>
<path fill="none" stroke="black" d="M1301.05,-250.001C1301.88,-250.028 1313.97,-250.405 1327.41,-250.825"/>
<polygon fill="black" stroke="black" points="1327.69,-254.336 1337.79,-251.15 1327.91,-247.339 1327.69,-254.336"/>
</g>
<!-- reaction_17 -->
<g id="node122" class="node"><title>reaction_17</title>
<polygon fill="none" stroke="black" points="1480,-212 1466,-212 1466,-198 1480,-198 1480,-212"/>
</g>
<!-- reaction_17_intermediate_p -->
<g id="node127" class="node"><title>reaction_17_intermediate_p</title>
<ellipse fill="black" stroke="black" cx="1517" cy="-142" rx="0.036" ry="0.036"/>
</g>
<!-- reaction_17&#45;&gt;reaction_17_intermediate_p -->
<g id="edge138" class="edge"><title>reaction_17&#45;&gt;reaction_17_intermediate_p</title>
<path fill="none" stroke="black" d="M1478.05,-197.773C1489.24,-181.742 1515.3,-144.429 1516.92,-142.113"/>
</g>
<!-- reaction_17_intermediate_r&#45;&gt;reaction_17 -->
<g id="edge132" class="edge"><title>reaction_17_intermediate_r&#45;&gt;reaction_17</title>
<path fill="none" stroke="black" d="M1429.13,-205.997C1431.02,-205.954 1453.79,-205.436 1465.76,-205.165"/>
</g>
<!-- reaction_17_intermediate_p&#45;&gt;species_15 -->
<g id="edge140" class="edge"><title>reaction_17_intermediate_p&#45;&gt;species_15</title>
<path fill="none" stroke="black" d="M1517.05,-141.987C1517.89,-141.749 1530.21,-138.285 1543.81,-134.46"/>
<polygon fill="black" stroke="black" points="1545.12,-137.728 1553.79,-131.652 1543.22,-130.99 1545.12,-137.728"/>
</g>
<!-- reaction_19 -->
<g id="node130" class="node"><title>reaction_19</title>
<polygon fill="none" stroke="black" points="870,-66 856,-66 856,-52 870,-52 870,-66"/>
</g>
<!-- reaction_19_intermediate_p -->
<g id="node135" class="node"><title>reaction_19_intermediate_p</title>
<ellipse fill="black" stroke="black" cx="1365" cy="-38" rx="0.036" ry="0.036"/>
</g>
<!-- reaction_19&#45;&gt;reaction_19_intermediate_p -->
<g id="edge148" class="edge"><title>reaction_19&#45;&gt;reaction_19_intermediate_p</title>
<path fill="none" stroke="black" d="M870.2,-57.062C890.172,-51.8633 948.02,-38 997,-38 997,-38 997,-38 1257,-38 1304.25,-38 1363.13,-38 1364.96,-38"/>
</g>
<!-- reaction_19_intermediate_r&#45;&gt;reaction_19 -->
<g id="edge142" class="edge"><title>reaction_19_intermediate_r&#45;&gt;reaction_19</title>
<path fill="none" stroke="black" d="M769.068,-99.9703C771.425,-98.9421 834.296,-71.5198 855.838,-62.1238"/>
</g>
<!-- reaction_19_intermediate_p&#45;&gt;species_15 -->
<g id="edge150" class="edge"><title>reaction_19_intermediate_p&#45;&gt;species_15</title>
<path fill="none" stroke="black" d="M1365.16,-38.0623C1369.96,-39.9751 1484.15,-85.4407 1544.45,-109.448"/>
<polygon fill="black" stroke="black" points="1543.41,-112.799 1553.99,-113.247 1546,-106.296 1543.41,-112.799"/>
</g>
<!-- reaction_20 -->
<g id="node138" class="node"><title>reaction_20</title>
<polygon fill="none" stroke="black" points="1696,-139 1682,-139 1682,-125 1696,-125 1696,-139"/>
</g>
<!-- reaction_20_intermediate_p -->
<g id="node142" class="node"><title>reaction_20_intermediate_p</title>
<ellipse fill="black" stroke="black" cx="1733" cy="-137" rx="0.036" ry="0.036"/>
</g>
<!-- reaction_20&#45;&gt;reaction_20_intermediate_p -->
<g id="edge156" class="edge"><title>reaction_20&#45;&gt;reaction_20_intermediate_p</title>
<path fill="none" stroke="black" d="M1696.27,-132.826C1708.37,-134.201 1731.5,-136.829 1732.93,-136.992"/>
</g>
<!-- reaction_20_intermediate_r&#45;&gt;reaction_20 -->
<g id="edge152" class="edge"><title>reaction_20_intermediate_r&#45;&gt;reaction_20</title>
<path fill="none" stroke="black" d="M1645.13,-129.009C1647.02,-129.138 1669.79,-130.691 1681.76,-131.506"/>
</g>
<!-- reaction_20_intermediate_p&#45;&gt;species_7 -->
<g id="edge160" class="edge"><title>reaction_20_intermediate_p&#45;&gt;species_7</title>
<path fill="none" stroke="black" d="M1733.05,-137.115C1734.48,-140.666 1768.58,-225.392 1786.39,-269.633"/>
<polygon fill="black" stroke="black" points="1783.25,-271.207 1790.23,-279.177 1789.74,-268.593 1783.25,-271.207"/>
</g>
<!-- reaction_20_intermediate_p&#45;&gt;species_16 -->
<g id="edge158" class="edge"><title>reaction_20_intermediate_p&#45;&gt;species_16</title>
<path fill="none" stroke="black" d="M1733.05,-137C1733.88,-137 1745.97,-137 1759.41,-137"/>
<polygon fill="black" stroke="black" points="1759.79,-140.5 1769.79,-137 1759.79,-133.5 1759.79,-140.5"/>
</g>
<!-- reaction_23 -->
<g id="node146" class="node"><title>reaction_23</title>
<polygon fill="none" stroke="black" points="1912,-144 1898,-144 1898,-130 1912,-130 1912,-144"/>
</g>
<!-- reaction_23_intermediate_p -->
<g id="node150" class="node"><title>reaction_23_intermediate_p</title>
<ellipse fill="black" stroke="black" cx="1949" cy="-137" rx="0.036" ry="0.036"/>
</g>
<!-- reaction_23&#45;&gt;reaction_23_intermediate_p -->
<g id="edge166" class="edge"><title>reaction_23&#45;&gt;reaction_23_intermediate_p</title>
<path fill="none" stroke="black" d="M1912.27,-137C1924.37,-137 1947.5,-137 1948.93,-137"/>
</g>
<!-- reaction_23_intermediate_r&#45;&gt;reaction_23 -->
<g id="edge162" class="edge"><title>reaction_23_intermediate_r&#45;&gt;reaction_23</title>
<path fill="none" stroke="black" d="M1861.13,-137C1863.02,-137 1885.79,-137 1897.76,-137"/>
</g>
<!-- reaction_23_intermediate_p&#45;&gt;species_8 -->
<g id="edge170" class="edge"><title>reaction_23_intermediate_p&#45;&gt;species_8</title>
<path fill="none" stroke="black" d="M1949.16,-136.911C1950.83,-135.967 1965.55,-127.674 1979.31,-119.915"/>
<polygon fill="black" stroke="black" points="1981.08,-122.936 1988.07,-114.977 1977.64,-116.838 1981.08,-122.936"/>
</g>
<!-- reaction_23_intermediate_p&#45;&gt;species_14 -->
<g id="edge168" class="edge"><title>reaction_23_intermediate_p&#45;&gt;species_14</title>
<path fill="none" stroke="black" d="M1948.98,-137.08C1948.2,-140.411 1922.63,-247 1861,-247 1473,-247 1473,-247 1473,-247 1449.4,-247 1422.92,-248.207 1402.09,-249.434"/>
<polygon fill="black" stroke="black" points="1401.82,-245.944 1392.06,-250.053 1402.25,-252.931 1401.82,-245.944"/>
</g>
</g>
</svg>
