<?xml version="1.0" encoding="UTF-8" standalone="no"?>
<!DOCTYPE svg PUBLIC "-//W3C//DTD SVG 1.1//EN"
 "http://www.w3.org/Graphics/SVG/1.1/DTD/svg11.dtd">
<!-- Generated by graphviz version 2.30.1 (20140821.0912)
 -->
<!-- Title: G Pages: 1 -->
<svg width="704pt" height="903pt"
 viewBox="0.00 0.00 704.00 903.00" xmlns="http://www.w3.org/2000/svg" xmlns:xlink="http://www.w3.org/1999/xlink">
<g id="graph0" class="graph" transform="scale(1 1) rotate(0) translate(4 899)">
<title>G</title>
<polygon fill="white" stroke="white" points="-4,5 -4,-899 701,-899 701,5 -4,5"/>
<!-- T -->
<g id="T" class="node"><title>T</title>
<ellipse fill="none" stroke="black" cx="281" cy="-484" rx="34.9638" ry="18"/>
<text text-anchor="middle" x="281" y="-481.5" font-family="Times,serif" font-size="10.00">T&#45;cells (T)</text>
</g>
<!-- T_cell_degradation_intermediate_r -->
<g id="node9" class="node"><title>T_cell_degradation_intermediate_r</title>
<ellipse fill="black" stroke="black" cx="369" cy="-504" rx="0.036" ry="0.036"/>
</g>
<!-- T&#45;&gt;T_cell_degradation_intermediate_r -->
<g id="edge2" class="edge"><title>T&#45;&gt;T_cell_degradation_intermediate_r</title>
<path fill="none" stroke="black" d="M313.048,-491.22C336.912,-496.77 366.111,-503.561 367.912,-503.98"/>
</g>
<!-- Tumour_cell_degradation_intermediate_m -->
<g id="node15" class="node"><title>Tumour_cell_degradation_intermediate_m</title>
<ellipse fill="black" stroke="black" cx="529" cy="-469" rx="0.036" ry="0.036"/>
</g>
<!-- T&#45;&gt;Tumour_cell_degradation_intermediate_m -->
<g id="edge12" class="edge"><title>T&#45;&gt;Tumour_cell_degradation_intermediate_m</title>
<path fill="none" stroke="black" d="M315.689,-481.946C382.01,-477.902 523.49,-469.275 527.895,-469.006"/>
</g>
<!-- LT_synthesis_intermediate_m -->
<g id="node37" class="node"><title>LT_synthesis_intermediate_m</title>
<ellipse fill="black" stroke="black" cx="369" cy="-578" rx="0.036" ry="0.036"/>
</g>
<!-- T&#45;&gt;LT_synthesis_intermediate_m -->
<g id="edge37" class="edge"><title>T&#45;&gt;LT_synthesis_intermediate_m</title>
<path fill="none" stroke="black" d="M296.98,-500.374C320.85,-526.464 365.122,-574.855 367.866,-577.854"/>
</g>
<!-- LT_degradation__m__T_and_Rm_modifiers_intermediate_m -->
<g id="node55" class="node"><title>LT_degradation__m__T_and_Rm_modifiers_intermediate_m</title>
<ellipse fill="black" stroke="black" cx="529" cy="-328" rx="0.036" ry="0.036"/>
</g>
<!-- T&#45;&gt;LT_degradation__m__T_and_Rm_modifiers_intermediate_m -->
<g id="edge60" class="edge"><title>T&#45;&gt;LT_degradation__m__T_and_Rm_modifiers_intermediate_m</title>
<path fill="none" stroke="black" d="M308.395,-472.644C316.482,-468.432 325.065,-463.157 332,-457 374.695,-419.097 358.107,-383.075 406,-352 451.634,-322.391 525.643,-327.819 527.945,-327.996"/>
</g>
<!-- Lm_degradation__m__T_and_RT_modifiers_intermediate_m -->
<g id="node59" class="node"><title>Lm_degradation__m__T_and_RT_modifiers_intermediate_m</title>
<ellipse fill="black" stroke="black" cx="529" cy="-740" rx="0.036" ry="0.036"/>
</g>
<!-- T&#45;&gt;Lm_degradation__m__T_and_RT_modifiers_intermediate_m -->
<g id="edge67" class="edge"><title>T&#45;&gt;Lm_degradation__m__T_and_RT_modifiers_intermediate_m</title>
<path fill="none" stroke="black" d="M309.655,-494.186C317.272,-497.649 325.28,-501.946 332,-507 352.651,-522.53 353.991,-530.718 370,-551 386.966,-572.494 388.949,-579.574 406,-601 456.385,-664.312 525.792,-737.669 527.948,-739.946"/>
</g>
<!-- SL_synthesis_intermediate_m -->
<g id="node63" class="node"><title>SL_synthesis_intermediate_m</title>
<ellipse fill="black" stroke="black" cx="369" cy="-560" rx="0.036" ry="0.036"/>
</g>
<!-- T&#45;&gt;SL_synthesis_intermediate_m -->
<g id="edge76" class="edge"><title>T&#45;&gt;SL_synthesis_intermediate_m</title>
<path fill="none" stroke="black" d="M305.48,-496.911C314.24,-502.257 323.993,-508.875 332,-516 350.286,-532.272 366.928,-558.31 367.95,-559.921"/>
</g>
<!-- SL_degradation__Rm__m__RT__T_and_SL_modifiers_intermediate_m -->
<g id="node67" class="node"><title>SL_degradation__Rm__m__RT__T_and_SL_modifiers_intermediate_m</title>
<ellipse fill="black" stroke="black" cx="529" cy="-404" rx="0.036" ry="0.036"/>
</g>
<!-- T&#45;&gt;SL_degradation__Rm__m__RT__T_and_SL_modifiers_intermediate_m -->
<g id="edge84" class="edge"><title>T&#45;&gt;SL_degradation__Rm__m__RT__T_and_SL_modifiers_intermediate_m</title>
<path fill="none" stroke="black" d="M310.701,-474.666C374.579,-453.893 523.259,-405.542 527.889,-404.036"/>
</g>
<!-- LT -->
<g id="LT [CHEBI:17089]" class="node"><title>LT</title>
<path fill="none" stroke="black" d="M301,-448C301,-448 261,-448 261,-448 255,-448 249,-442 249,-436 249,-436 249,-424 249,-424 249,-418 255,-412 261,-412 261,-412 301,-412 301,-412 307,-412 313,-418 313,-424 313,-424 313,-436 313,-436 313,-442 307,-448 301,-448"/>
<text text-anchor="middle" x="281" y="-427.5" font-family="Times,serif" font-size="10.00">mFasL (LT)</text>
</g>
<!-- LT&#45;&gt;Tumour_cell_degradation_intermediate_m -->
<g id="edge13" class="edge"><title>LT&#45;&gt;Tumour_cell_degradation_intermediate_m</title>
<path fill="none" stroke="black" d="M313.156,-434.939C378.317,-445.27 523.375,-468.267 527.892,-468.983"/>
</g>
<!-- LT_degradation_intermediate_r -->
<g id="node47" class="node"><title>LT_degradation_intermediate_r</title>
<ellipse fill="black" stroke="black" cx="369" cy="-233" rx="0.036" ry="0.036"/>
</g>
<!-- LT&#45;&gt;LT_degradation_intermediate_r -->
<g id="edge50" class="edge"><title>LT&#45;&gt;LT_degradation_intermediate_r</title>
<path fill="none" stroke="black" d="M289.937,-411.82C310.894,-363.813 366.234,-237.044 367.959,-233.094"/>
</g>
<!-- LT_degradation__m__T_and_Rm_modifiers_intermediate_r -->
<g id="node53" class="node"><title>LT_degradation__m__T_and_Rm_modifiers_intermediate_r</title>
<ellipse fill="black" stroke="black" cx="369" cy="-300" rx="0.036" ry="0.036"/>
</g>
<!-- LT&#45;&gt;LT_degradation__m__T_and_Rm_modifiers_intermediate_r -->
<g id="edge56" class="edge"><title>LT&#45;&gt;LT_degradation__m__T_and_Rm_modifiers_intermediate_r</title>
<path fill="none" stroke="black" d="M293.958,-411.924C317.219,-376.762 366.431,-302.371 367.963,-300.055"/>
</g>
<!-- LT&#45;&gt;SL_synthesis_intermediate_m -->
<g id="edge75" class="edge"><title>LT&#45;&gt;SL_synthesis_intermediate_m</title>
<path fill="none" stroke="black" d="M313.143,-442.222C320.077,-446.105 326.88,-450.994 332,-457 362.969,-493.327 367.852,-557.942 367.997,-559.952"/>
</g>
<!-- RT -->
<g id="RT" class="node"><title>RT</title>
<path fill="none" stroke="black" d="M453,-802C453,-802 419,-802 419,-802 413,-802 407,-796 407,-790 407,-790 407,-778 407,-778 407,-772 413,-766 419,-766 419,-766 453,-766 453,-766 459,-766 465,-772 465,-778 465,-778 465,-790 465,-790 465,-796 459,-802 453,-802"/>
<text text-anchor="middle" x="436" y="-781.5" font-family="Times,serif" font-size="10.00">FasR (RT)</text>
</g>
<!-- T_cell_degradation_intermediate_m -->
<g id="node11" class="node"><title>T_cell_degradation_intermediate_m</title>
<ellipse fill="black" stroke="black" cx="529" cy="-681" rx="0.036" ry="0.036"/>
</g>
<!-- RT&#45;&gt;T_cell_degradation_intermediate_m -->
<g id="edge7" class="edge"><title>RT&#45;&gt;T_cell_degradation_intermediate_m</title>
<path fill="none" stroke="black" d="M453.269,-765.586C478.626,-736.885 524.987,-684.41 527.86,-681.159"/>
</g>
<!-- RT_degradation_intermediate_r -->
<g id="node29" class="node"><title>RT_degradation_intermediate_r</title>
<ellipse fill="black" stroke="black" cx="529" cy="-784" rx="0.036" ry="0.036"/>
</g>
<!-- RT&#45;&gt;RT_degradation_intermediate_r -->
<g id="edge28" class="edge"><title>RT&#45;&gt;RT_degradation_intermediate_r</title>
<path fill="none" stroke="black" d="M465.294,-784C491.173,-784 525.76,-784 527.896,-784"/>
</g>
<!-- RT_degradation__SL_modifier_intermediate_r -->
<g id="node39" class="node"><title>RT_degradation__SL_modifier_intermediate_r</title>
<ellipse fill="black" stroke="black" cx="529" cy="-761" rx="0.036" ry="0.036"/>
</g>
<!-- RT&#45;&gt;RT_degradation__SL_modifier_intermediate_r -->
<g id="edge40" class="edge"><title>RT&#45;&gt;RT_degradation__SL_modifier_intermediate_r</title>
<path fill="none" stroke="black" d="M465.294,-776.849C491.173,-770.308 525.76,-761.566 527.896,-761.026"/>
</g>
<!-- RT&#45;&gt;Lm_degradation__m__T_and_RT_modifiers_intermediate_m -->
<g id="edge68" class="edge"><title>RT&#45;&gt;Lm_degradation__m__T_and_RT_modifiers_intermediate_m</title>
<path fill="none" stroke="black" d="M465.08,-769.985C476.503,-764.333 489.852,-757.793 502,-752 512.77,-746.865 526.198,-740.811 527.834,-740.075"/>
</g>
<!-- RT&#45;&gt;SL_degradation__Rm__m__RT__T_and_SL_modifiers_intermediate_m -->
<g id="edge83" class="edge"><title>RT&#45;&gt;SL_degradation__Rm__m__RT__T_and_SL_modifiers_intermediate_m</title>
<path fill="none" stroke="black" d="M440.062,-765.827C450.16,-706.427 482.859,-518.477 502,-460 510.269,-434.736 526.917,-405.866 527.95,-404.087"/>
</g>
<!-- m -->
<g id="m" class="node"><title>m</title>
<ellipse fill="none" stroke="black" cx="281" cy="-644" rx="50.7503" ry="18"/>
<text text-anchor="middle" x="281" y="-641.5" font-family="Times,serif" font-size="10.00">Tumour cells (m)</text>
</g>
<!-- m&#45;&gt;T_cell_degradation_intermediate_m -->
<g id="edge5" class="edge"><title>m&#45;&gt;T_cell_degradation_intermediate_m</title>
<path fill="none" stroke="black" d="M309.334,-659.16C325.787,-667.408 347.464,-676.77 368,-681 402.28,-688.061 524.11,-681.221 527.909,-681.005"/>
</g>
<!-- Tumour_cell_degradation_intermediate_r -->
<g id="node13" class="node"><title>Tumour_cell_degradation_intermediate_r</title>
<ellipse fill="black" stroke="black" cx="369" cy="-672" rx="0.036" ry="0.036"/>
</g>
<!-- m&#45;&gt;Tumour_cell_degradation_intermediate_r -->
<g id="edge9" class="edge"><title>m&#45;&gt;Tumour_cell_degradation_intermediate_r</title>
<path fill="none" stroke="black" d="M318.971,-656.037C341.551,-663.389 366.395,-671.477 367.926,-671.976"/>
</g>
<!-- m&#45;&gt;LT_synthesis_intermediate_m -->
<g id="edge38" class="edge"><title>m&#45;&gt;LT_synthesis_intermediate_m</title>
<path fill="none" stroke="black" d="M303.258,-627.685C327.93,-608.752 365.559,-579.873 367.887,-578.087"/>
</g>
<!-- m&#45;&gt;LT_degradation__m__T_and_Rm_modifiers_intermediate_m -->
<g id="edge59" class="edge"><title>m&#45;&gt;LT_degradation__m__T_and_Rm_modifiers_intermediate_m</title>
<path fill="none" stroke="black" d="M314.321,-630.221C333.123,-620.658 355.834,-606.182 370,-587 404.854,-539.807 377.301,-511.17 406,-460 444.467,-391.413 525.419,-329.949 527.94,-328.045"/>
</g>
<!-- m&#45;&gt;Lm_degradation__m__T_and_RT_modifiers_intermediate_m -->
<g id="edge66" class="edge"><title>m&#45;&gt;Lm_degradation__m__T_and_RT_modifiers_intermediate_m</title>
<path fill="none" stroke="black" d="M305.211,-660.03C322.035,-671.075 345.661,-685.431 368,-695 434.841,-723.633 525.128,-739.5 527.933,-739.988"/>
</g>
<!-- m&#45;&gt;SL_synthesis_intermediate_m -->
<g id="edge74" class="edge"><title>m&#45;&gt;SL_synthesis_intermediate_m</title>
<path fill="none" stroke="black" d="M299.403,-627.001C323.748,-603.223 365.301,-562.636 367.875,-560.123"/>
</g>
<!-- m&#45;&gt;SL_degradation__Rm__m__RT__T_and_SL_modifiers_intermediate_m -->
<g id="edge82" class="edge"><title>m&#45;&gt;SL_degradation__Rm__m__RT__T_and_SL_modifiers_intermediate_m</title>
<path fill="none" stroke="black" d="M330.059,-638.929C344.212,-635.447 358.869,-629.643 370,-620 400.391,-593.671 384.107,-570.727 406,-537 448.992,-470.77 525.561,-406.054 527.943,-404.048"/>
</g>
<!-- Lm -->
<g id="Lm [CHEBI:17089]" class="node"><title>Lm</title>
<path fill="none" stroke="black" d="M301.5,-833C301.5,-833 260.5,-833 260.5,-833 254.5,-833 248.5,-827 248.5,-821 248.5,-821 248.5,-809 248.5,-809 248.5,-803 254.5,-797 260.5,-797 260.5,-797 301.5,-797 301.5,-797 307.5,-797 313.5,-803 313.5,-809 313.5,-809 313.5,-821 313.5,-821 313.5,-827 307.5,-833 301.5,-833"/>
<text text-anchor="middle" x="281" y="-812.5" font-family="Times,serif" font-size="10.00">mFasL (Lm)</text>
</g>
<!-- Lm&#45;&gt;T_cell_degradation_intermediate_m -->
<g id="edge6" class="edge"><title>Lm&#45;&gt;T_cell_degradation_intermediate_m</title>
<path fill="none" stroke="black" d="M313.764,-801.572C330.677,-794.17 351.707,-784.562 370,-775 441.282,-737.739 525.329,-682.75 527.938,-681.041"/>
</g>
<!-- Lm_degradation_intermediate_r -->
<g id="node50" class="node"><title>Lm_degradation_intermediate_r</title>
<ellipse fill="black" stroke="black" cx="369" cy="-858" rx="0.036" ry="0.036"/>
</g>
<!-- Lm&#45;&gt;Lm_degradation_intermediate_r -->
<g id="edge53" class="edge"><title>Lm&#45;&gt;Lm_degradation_intermediate_r</title>
<path fill="none" stroke="black" d="M313.535,-830.767C337.312,-842.656 366.135,-857.068 367.913,-857.957"/>
</g>
<!-- Lm_degradation__m__T_and_RT_modifiers_intermediate_r -->
<g id="node57" class="node"><title>Lm_degradation__m__T_and_RT_modifiers_intermediate_r</title>
<ellipse fill="black" stroke="black" cx="369" cy="-824" rx="0.036" ry="0.036"/>
</g>
<!-- Lm&#45;&gt;Lm_degradation__m__T_and_RT_modifiers_intermediate_r -->
<g id="edge63" class="edge"><title>Lm&#45;&gt;Lm_degradation__m__T_and_RT_modifiers_intermediate_r</title>
<path fill="none" stroke="black" d="M313.535,-818.3C337.312,-820.788 366.135,-823.805 367.913,-823.991"/>
</g>
<!-- Lm&#45;&gt;SL_synthesis_intermediate_m -->
<g id="edge73" class="edge"><title>Lm&#45;&gt;SL_synthesis_intermediate_m</title>
<path fill="none" stroke="black" d="M313.737,-799.738C320.739,-794.975 327.425,-789.074 332,-782 358.718,-740.69 367.719,-565.592 367.993,-560.131"/>
</g>
<!-- Rm -->
<g id="Rm" class="node"><title>Rm</title>
<path fill="none" stroke="black" d="M453.5,-300C453.5,-300 418.5,-300 418.5,-300 412.5,-300 406.5,-294 406.5,-288 406.5,-288 406.5,-276 406.5,-276 406.5,-270 412.5,-264 418.5,-264 418.5,-264 453.5,-264 453.5,-264 459.5,-264 465.5,-270 465.5,-276 465.5,-276 465.5,-288 465.5,-288 465.5,-294 459.5,-300 453.5,-300"/>
<text text-anchor="middle" x="436" y="-279.5" font-family="Times,serif" font-size="10.00">FasR (Rm)</text>
</g>
<!-- Rm&#45;&gt;Tumour_cell_degradation_intermediate_m -->
<g id="edge14" class="edge"><title>Rm&#45;&gt;Tumour_cell_degradation_intermediate_m</title>
<path fill="none" stroke="black" d="M445.891,-300.271C468.431,-346.59 526.159,-465.216 527.957,-468.912"/>
</g>
<!-- Rm_degradation_intermediate_r -->
<g id="node32" class="node"><title>Rm_degradation_intermediate_r</title>
<ellipse fill="black" stroke="black" cx="529" cy="-292" rx="0.036" ry="0.036"/>
</g>
<!-- Rm&#45;&gt;Rm_degradation_intermediate_r -->
<g id="edge31" class="edge"><title>Rm&#45;&gt;Rm_degradation_intermediate_r</title>
<path fill="none" stroke="black" d="M465.793,-285.164C491.62,-288.002 525.787,-291.757 527.897,-291.989"/>
</g>
<!-- Rm_degradation__SL_modifier_intermediate_r -->
<g id="node43" class="node"><title>Rm_degradation__SL_modifier_intermediate_r</title>
<ellipse fill="black" stroke="black" cx="529" cy="-310" rx="0.036" ry="0.036"/>
</g>
<!-- Rm&#45;&gt;Rm_degradation__SL_modifier_intermediate_r -->
<g id="edge45" class="edge"><title>Rm&#45;&gt;Rm_degradation__SL_modifier_intermediate_r</title>
<path fill="none" stroke="black" d="M465.793,-290.859C491.62,-298.806 525.787,-309.319 527.897,-309.968"/>
</g>
<!-- Rm&#45;&gt;LT_degradation__m__T_and_Rm_modifiers_intermediate_m -->
<g id="edge61" class="edge"><title>Rm&#45;&gt;LT_degradation__m__T_and_Rm_modifiers_intermediate_m</title>
<path fill="none" stroke="black" d="M465.524,-299.748C476.665,-306.276 489.699,-313.427 502,-319 512.442,-323.731 526.157,-327.501 527.83,-327.954"/>
</g>
<!-- Rm&#45;&gt;SL_degradation__Rm__m__RT__T_and_SL_modifiers_intermediate_m -->
<g id="edge81" class="edge"><title>Rm&#45;&gt;SL_degradation__Rm__m__RT__T_and_SL_modifiers_intermediate_m</title>
<path fill="none" stroke="black" d="M450.427,-300.002C475.345,-333.408 526.373,-401.819 527.962,-403.949"/>
</g>
<!-- SL -->
<g id="SL" class="node"><title>SL</title>
<ellipse fill="none" stroke="black" cx="281" cy="-116" rx="34.9638" ry="18"/>
<text text-anchor="middle" x="281" y="-113.5" font-family="Times,serif" font-size="10.00">sFasL (SL)</text>
</g>
<!-- SL_degradation_intermediate_r -->
<g id="node17" class="node"><title>SL_degradation_intermediate_r</title>
<ellipse fill="black" stroke="black" cx="369" cy="-27" rx="0.036" ry="0.036"/>
</g>
<!-- SL&#45;&gt;SL_degradation_intermediate_r -->
<g id="edge16" class="edge"><title>SL&#45;&gt;SL_degradation_intermediate_r</title>
<path fill="none" stroke="black" d="M297.375,-100.089C321.339,-75.289 365.153,-29.9467 367.868,-27.137"/>
</g>
<!-- RT_degradation__SL_modifier_intermediate_m -->
<g id="node41" class="node"><title>RT_degradation__SL_modifier_intermediate_m</title>
<ellipse fill="black" stroke="black" cx="669" cy="-316" rx="0.036" ry="0.036"/>
</g>
<!-- SL&#45;&gt;RT_degradation__SL_modifier_intermediate_m -->
<g id="edge43" class="edge"><title>SL&#45;&gt;RT_degradation__SL_modifier_intermediate_m</title>
<path fill="none" stroke="black" d="M314.882,-120.256C378.521,-128.946 515.801,-150.032 556,-175 622.922,-216.567 666.619,-312.927 667.968,-315.928"/>
</g>
<!-- Rm_degradation__SL_modifier_intermediate_m -->
<g id="node45" class="node"><title>Rm_degradation__SL_modifier_intermediate_m</title>
<ellipse fill="black" stroke="black" cx="669" cy="-64" rx="0.036" ry="0.036"/>
</g>
<!-- SL&#45;&gt;Rm_degradation__SL_modifier_intermediate_m -->
<g id="edge48" class="edge"><title>SL&#45;&gt;Rm_degradation__SL_modifier_intermediate_m</title>
<path fill="none" stroke="black" d="M305.022,-102.878C334.267,-87.4736 386.746,-64 435,-64 435,-64 435,-64 530,-64 590.375,-64 665.608,-64 667.944,-64"/>
</g>
<!-- SL_degradation__Rm__m__RT__T_and_SL_modifiers_intermediate_r -->
<g id="node65" class="node"><title>SL_degradation__Rm__m__RT__T_and_SL_modifiers_intermediate_r</title>
<ellipse fill="black" stroke="black" cx="369" cy="-116" rx="0.036" ry="0.036"/>
</g>
<!-- SL&#45;&gt;SL_degradation__Rm__m__RT__T_and_SL_modifiers_intermediate_r -->
<g id="edge78" class="edge"><title>SL&#45;&gt;SL_degradation__Rm__m__RT__T_and_SL_modifiers_intermediate_r</title>
<path fill="none" stroke="black" d="M315.989,-116C339.277,-116 366.256,-116 367.919,-116"/>
</g>
<!-- T_cell_degradation -->
<g id="node8" class="node"><title>T_cell_degradation</title>
<polygon fill="none" stroke="black" points="443,-592 429,-592 429,-578 443,-578 443,-592"/>
</g>
<!-- T_cell_degradation_empty -->
<g id="node10" class="node"><title>T_cell_degradation_empty</title>
<text text-anchor="middle" x="529" y="-592.5" font-family="Times,serif" font-size="15.00" fill="blue">Ø</text>
</g>
<!-- T_cell_degradation&#45;&gt;T_cell_degradation_empty -->
<g id="edge3" class="edge"><title>T_cell_degradation&#45;&gt;T_cell_degradation_empty</title>
<path fill="none" stroke="black" d="M443.255,-585.756C453.237,-586.963 473.504,-589.413 491.715,-591.614"/>
<polygon fill="black" stroke="black" points="491.476,-595.11 501.824,-592.836 492.316,-588.161 491.476,-595.11"/>
</g>
<!-- T_cell_degradation&#45;&gt;T_cell_degradation_intermediate_m -->
<g id="edge4" class="edge"><title>T_cell_degradation&#45;&gt;T_cell_degradation_intermediate_m</title>
<path fill="none" stroke="black" d="M443.115,-588.774C449.231,-592.694 458.746,-599.196 466,-606 496.559,-634.662 526.095,-678.177 527.912,-680.869"/>
</g>
<!-- T_cell_degradation_intermediate_r&#45;&gt;T_cell_degradation -->
<g id="edge1" class="edge"><title>T_cell_degradation_intermediate_r&#45;&gt;T_cell_degradation</title>
<path fill="none" stroke="black" d="M370.037,-504.12C370.8,-506.586 383.36,-546.397 406,-569 412.511,-575.5 422.211,-580.125 428.571,-582.68"/>
</g>
<!-- Tumour_cell_degradation -->
<g id="node12" class="node"><title>Tumour_cell_degradation</title>
<polygon fill="none" stroke="black" points="443,-560 429,-560 429,-546 443,-546 443,-560"/>
</g>
<!-- Tumour_cell_degradation_empty -->
<g id="node14" class="node"><title>Tumour_cell_degradation_empty</title>
<text text-anchor="middle" x="529" y="-538.5" font-family="Times,serif" font-size="15.00" fill="blue">Ø</text>
</g>
<!-- Tumour_cell_degradation&#45;&gt;Tumour_cell_degradation_empty -->
<g id="edge10" class="edge"><title>Tumour_cell_degradation&#45;&gt;Tumour_cell_degradation_empty</title>
<path fill="none" stroke="black" d="M443.255,-552.244C453.237,-551.037 473.504,-548.587 491.715,-546.386"/>
<polygon fill="black" stroke="black" points="492.316,-549.839 501.824,-545.164 491.476,-542.89 492.316,-549.839"/>
</g>
<!-- Tumour_cell_degradation&#45;&gt;Tumour_cell_degradation_intermediate_m -->
<g id="edge11" class="edge"><title>Tumour_cell_degradation&#45;&gt;Tumour_cell_degradation_intermediate_m</title>
<path fill="none" stroke="black" d="M443.452,-548.784C449.486,-544.737 458.646,-538.321 466,-532 494.859,-507.191 525.989,-471.325 527.907,-469.108"/>
</g>
<!-- Tumour_cell_degradation_intermediate_r&#45;&gt;Tumour_cell_degradation -->
<g id="edge8" class="edge"><title>Tumour_cell_degradation_intermediate_r&#45;&gt;Tumour_cell_degradation</title>
<path fill="none" stroke="black" d="M370.004,-671.952C370.154,-669.946 375.195,-605.466 406,-569 412.086,-561.796 422.276,-557.256 428.814,-554.923"/>
</g>
<!-- SL_degradation -->
<g id="node16" class="node"><title>SL_degradation</title>
<polygon fill="none" stroke="black" points="443,-29 429,-29 429,-15 443,-15 443,-29"/>
</g>
<!-- SL_degradation_empty -->
<g id="node18" class="node"><title>SL_degradation_empty</title>
<text text-anchor="middle" x="529" y="-14.5" font-family="Times,serif" font-size="15.00" fill="blue">Ø</text>
</g>
<!-- SL_degradation&#45;&gt;SL_degradation_empty -->
<g id="edge17" class="edge"><title>SL_degradation&#45;&gt;SL_degradation_empty</title>
<path fill="none" stroke="black" d="M443.255,-21.7251C453.237,-21.2863 473.504,-20.3954 491.715,-19.5949"/>
<polygon fill="black" stroke="black" points="491.987,-23.0864 501.824,-19.1506 491.68,-16.0932 491.987,-23.0864"/>
</g>
<!-- SL_degradation_intermediate_r&#45;&gt;SL_degradation -->
<g id="edge15" class="edge"><title>SL_degradation_intermediate_r&#45;&gt;SL_degradation</title>
<path fill="none" stroke="black" d="M370.047,-26.9964C371.631,-26.8745 412.724,-23.7135 428.716,-22.4834"/>
</g>
<!-- Lm_synthesis -->
<g id="node19" class="node"><title>Lm_synthesis</title>
<polygon fill="none" stroke="black" points="104,-822 90,-822 90,-808 104,-808 104,-822"/>
</g>
<!-- Lm_synthesis_intermediate_p -->
<g id="node21" class="node"><title>Lm_synthesis_intermediate_p</title>
<ellipse fill="black" stroke="black" cx="167" cy="-815" rx="0.036" ry="0.036"/>
</g>
<!-- Lm_synthesis&#45;&gt;Lm_synthesis_intermediate_p -->
<g id="edge19" class="edge"><title>Lm_synthesis&#45;&gt;Lm_synthesis_intermediate_p</title>
<path fill="none" stroke="black" d="M104.275,-815C120.583,-815 163.222,-815 165.871,-815"/>
</g>
<!-- Lm_synthesis_empty -->
<g id="node20" class="node"><title>Lm_synthesis_empty</title>
<text text-anchor="middle" x="27" y="-811.5" font-family="Times,serif" font-size="15.00" fill="blue">Ø</text>
</g>
<!-- Lm_synthesis_empty&#45;&gt;Lm_synthesis -->
<g id="edge18" class="edge"><title>Lm_synthesis_empty&#45;&gt;Lm_synthesis</title>
<path fill="none" stroke="black" d="M54.0961,-815C67.13,-815 81.8045,-815 89.8681,-815"/>
</g>
<!-- Lm_synthesis_intermediate_p&#45;&gt;Lm -->
<g id="edge20" class="edge"><title>Lm_synthesis_intermediate_p&#45;&gt;Lm</title>
<path fill="none" stroke="black" d="M168.081,-815C170.045,-815 207.263,-815 238.248,-815"/>
<polygon fill="black" stroke="black" points="238.457,-818.5 248.457,-815 238.457,-811.5 238.457,-818.5"/>
</g>
<!-- RT_synthesis -->
<g id="node22" class="node"><title>RT_synthesis</title>
<polygon fill="none" stroke="black" points="288,-773 274,-773 274,-759 288,-759 288,-773"/>
</g>
<!-- RT_synthesis_intermediate_p -->
<g id="node24" class="node"><title>RT_synthesis_intermediate_p</title>
<ellipse fill="black" stroke="black" cx="369" cy="-766" rx="0.036" ry="0.036"/>
</g>
<!-- RT_synthesis&#45;&gt;RT_synthesis_intermediate_p -->
<g id="edge22" class="edge"><title>RT_synthesis&#45;&gt;RT_synthesis_intermediate_p</title>
<path fill="none" stroke="black" d="M288.185,-766C307.596,-766 366.132,-766 367.956,-766"/>
</g>
<!-- RT_synthesis_empty -->
<g id="node23" class="node"><title>RT_synthesis_empty</title>
<text text-anchor="middle" x="167" y="-762.5" font-family="Times,serif" font-size="15.00" fill="blue">Ø</text>
</g>
<!-- RT_synthesis_empty&#45;&gt;RT_synthesis -->
<g id="edge21" class="edge"><title>RT_synthesis_empty&#45;&gt;RT_synthesis</title>
<path fill="none" stroke="black" d="M194.259,-766C220.38,-766 258.663,-766 273.651,-766"/>
</g>
<!-- RT_synthesis_intermediate_p&#45;&gt;RT -->
<g id="edge23" class="edge"><title>RT_synthesis_intermediate_p&#45;&gt;RT</title>
<path fill="none" stroke="black" d="M370.047,-766.013C370.909,-766.252 383.476,-769.732 397.33,-773.568"/>
<polygon fill="black" stroke="black" points="396.427,-776.95 406.998,-776.246 398.295,-770.204 396.427,-776.95"/>
</g>
<!-- Rm_synthesis -->
<g id="node25" class="node"><title>Rm_synthesis</title>
<polygon fill="none" stroke="black" points="288,-289 274,-289 274,-275 288,-275 288,-289"/>
</g>
<!-- Rm_synthesis_intermediate_p -->
<g id="node27" class="node"><title>Rm_synthesis_intermediate_p</title>
<ellipse fill="black" stroke="black" cx="369" cy="-282" rx="0.036" ry="0.036"/>
</g>
<!-- Rm_synthesis&#45;&gt;Rm_synthesis_intermediate_p -->
<g id="edge25" class="edge"><title>Rm_synthesis&#45;&gt;Rm_synthesis_intermediate_p</title>
<path fill="none" stroke="black" d="M288.185,-282C307.596,-282 366.132,-282 367.956,-282"/>
</g>
<!-- Rm_synthesis_empty -->
<g id="node26" class="node"><title>Rm_synthesis_empty</title>
<text text-anchor="middle" x="167" y="-278.5" font-family="Times,serif" font-size="15.00" fill="blue">Ø</text>
</g>
<!-- Rm_synthesis_empty&#45;&gt;Rm_synthesis -->
<g id="edge24" class="edge"><title>Rm_synthesis_empty&#45;&gt;Rm_synthesis</title>
<path fill="none" stroke="black" d="M194.259,-282C220.38,-282 258.663,-282 273.651,-282"/>
</g>
<!-- Rm_synthesis_intermediate_p&#45;&gt;Rm -->
<g id="edge26" class="edge"><title>Rm_synthesis_intermediate_p&#45;&gt;Rm</title>
<path fill="none" stroke="black" d="M370.047,-282C370.88,-282 382.649,-282 395.944,-282"/>
<polygon fill="black" stroke="black" points="396.254,-285.5 406.254,-282 396.253,-278.5 396.254,-285.5"/>
</g>
<!-- RT_degradation -->
<g id="node28" class="node"><title>RT_degradation</title>
<polygon fill="none" stroke="black" points="606,-791 592,-791 592,-777 606,-777 606,-791"/>
</g>
<!-- RT_degradation_empty -->
<g id="node30" class="node"><title>RT_degradation_empty</title>
<text text-anchor="middle" x="669" y="-780.5" font-family="Times,serif" font-size="15.00" fill="blue">Ø</text>
</g>
<!-- RT_degradation&#45;&gt;RT_degradation_empty -->
<g id="edge29" class="edge"><title>RT_degradation&#45;&gt;RT_degradation_empty</title>
<path fill="none" stroke="black" d="M606.275,-784C612.278,-784 621.849,-784 631.68,-784"/>
<polygon fill="black" stroke="black" points="631.88,-787.5 641.88,-784 631.88,-780.5 631.88,-787.5"/>
</g>
<!-- RT_degradation_intermediate_r&#45;&gt;RT_degradation -->
<g id="edge27" class="edge"><title>RT_degradation_intermediate_r&#45;&gt;RT_degradation</title>
<path fill="none" stroke="black" d="M530.049,-784C531.722,-784 575.535,-784 591.906,-784"/>
</g>
<!-- Rm_degradation -->
<g id="node31" class="node"><title>Rm_degradation</title>
<polygon fill="none" stroke="black" points="606,-106 592,-106 592,-92 606,-92 606,-106"/>
</g>
<!-- Rm_degradation_empty -->
<g id="node33" class="node"><title>Rm_degradation_empty</title>
<text text-anchor="middle" x="669" y="-96.5" font-family="Times,serif" font-size="15.00" fill="blue">Ø</text>
</g>
<!-- Rm_degradation&#45;&gt;Rm_degradation_empty -->
<g id="edge32" class="edge"><title>Rm_degradation&#45;&gt;Rm_degradation_empty</title>
<path fill="none" stroke="black" d="M606.275,-99.0923C612.278,-99.1806 621.849,-99.3213 631.68,-99.4659"/>
<polygon fill="black" stroke="black" points="631.829,-102.968 641.88,-99.6159 631.932,-95.9691 631.829,-102.968"/>
</g>
<!-- Rm_degradation_intermediate_r&#45;&gt;Rm_degradation -->
<g id="edge30" class="edge"><title>Rm_degradation_intermediate_r&#45;&gt;Rm_degradation</title>
<path fill="none" stroke="black" d="M530.052,-292C531.109,-292.001 548.15,-291.872 556,-283 606.599,-225.809 570.535,-188.283 592,-115 592.867,-112.039 594.02,-108.843 595.083,-106.092"/>
</g>
<!-- LT_synthesis -->
<g id="node34" class="node"><title>LT_synthesis</title>
<polygon fill="none" stroke="black" points="104,-579 90,-579 90,-565 104,-565 104,-579"/>
</g>
<!-- LT_synthesis_intermediate_p -->
<g id="node36" class="node"><title>LT_synthesis_intermediate_p</title>
<ellipse fill="black" stroke="black" cx="167" cy="-558" rx="0.036" ry="0.036"/>
</g>
<!-- LT_synthesis&#45;&gt;LT_synthesis_intermediate_p -->
<g id="edge34" class="edge"><title>LT_synthesis&#45;&gt;LT_synthesis_intermediate_p</title>
<path fill="none" stroke="black" d="M104.275,-570.708C120.583,-567.35 163.222,-558.572 165.871,-558.027"/>
</g>
<!-- LT_synthesis&#45;&gt;LT_synthesis_intermediate_m -->
<g id="edge36" class="edge"><title>LT_synthesis&#45;&gt;LT_synthesis_intermediate_m</title>
<path fill="none" stroke="black" d="M104.147,-572.137C143.708,-573.016 361.055,-577.846 367.838,-577.996"/>
</g>
<!-- LT_synthesis_empty -->
<g id="node35" class="node"><title>LT_synthesis_empty</title>
<text text-anchor="middle" x="27" y="-568.5" font-family="Times,serif" font-size="15.00" fill="blue">Ø</text>
</g>
<!-- LT_synthesis_empty&#45;&gt;LT_synthesis -->
<g id="edge33" class="edge"><title>LT_synthesis_empty&#45;&gt;LT_synthesis</title>
<path fill="none" stroke="black" d="M54.0961,-572C67.13,-572 81.8045,-572 89.8681,-572"/>
</g>
<!-- LT_synthesis_intermediate_p&#45;&gt;LT -->
<g id="edge35" class="edge"><title>LT_synthesis_intermediate_p&#45;&gt;LT</title>
<path fill="none" stroke="black" d="M168.017,-557.953C168.745,-555.982 192.336,-492.633 230,-457 233.104,-454.063 236.589,-451.348 240.237,-448.862"/>
<polygon fill="black" stroke="black" points="242.274,-451.717 248.943,-443.484 238.596,-445.762 242.274,-451.717"/>
</g>
<!-- RT_degradation__SL_modifier -->
<g id="node38" class="node"><title>RT_degradation__SL_modifier</title>
<polygon fill="none" stroke="black" points="606,-611 592,-611 592,-597 606,-597 606,-611"/>
</g>
<!-- RT_degradation__SL_modifier_empty -->
<g id="node40" class="node"><title>RT_degradation__SL_modifier_empty</title>
<text text-anchor="middle" x="669" y="-600.5" font-family="Times,serif" font-size="15.00" fill="blue">Ø</text>
</g>
<!-- RT_degradation__SL_modifier&#45;&gt;RT_degradation__SL_modifier_empty -->
<g id="edge41" class="edge"><title>RT_degradation__SL_modifier&#45;&gt;RT_degradation__SL_modifier_empty</title>
<path fill="none" stroke="black" d="M606.275,-604C612.278,-604 621.849,-604 631.68,-604"/>
<polygon fill="black" stroke="black" points="631.88,-607.5 641.88,-604 631.88,-600.5 631.88,-607.5"/>
</g>
<!-- RT_degradation__SL_modifier&#45;&gt;RT_degradation__SL_modifier_intermediate_m -->
<g id="edge42" class="edge"><title>RT_degradation__SL_modifier&#45;&gt;RT_degradation__SL_modifier_intermediate_m</title>
<path fill="none" stroke="black" d="M601.681,-596.881C612.071,-552.878 667.13,-319.684 667.99,-316.043"/>
</g>
<!-- RT_degradation__SL_modifier_intermediate_r&#45;&gt;RT_degradation__SL_modifier -->
<g id="edge39" class="edge"><title>RT_degradation__SL_modifier_intermediate_r&#45;&gt;RT_degradation__SL_modifier</title>
<path fill="none" stroke="black" d="M530.051,-760.993C531.097,-760.846 547.962,-758.349 556,-749 592.395,-706.671 597.302,-634.4 597.924,-611.316"/>
</g>
<!-- Rm_degradation__SL_modifier -->
<g id="node42" class="node"><title>Rm_degradation__SL_modifier</title>
<polygon fill="none" stroke="black" points="606,-138 592,-138 592,-124 606,-124 606,-138"/>
</g>
<!-- Rm_degradation__SL_modifier_empty -->
<g id="node44" class="node"><title>Rm_degradation__SL_modifier_empty</title>
<text text-anchor="middle" x="669" y="-150.5" font-family="Times,serif" font-size="15.00" fill="blue">Ø</text>
</g>
<!-- Rm_degradation__SL_modifier&#45;&gt;Rm_degradation__SL_modifier_empty -->
<g id="edge46" class="edge"><title>Rm_degradation__SL_modifier&#45;&gt;Rm_degradation__SL_modifier_empty</title>
<path fill="none" stroke="black" d="M606.275,-133.123C612.405,-135.196 622.254,-138.527 632.301,-141.925"/>
<polygon fill="black" stroke="black" points="631.285,-145.277 641.88,-145.165 633.528,-138.646 631.285,-145.277"/>
</g>
<!-- Rm_degradation__SL_modifier&#45;&gt;Rm_degradation__SL_modifier_intermediate_m -->
<g id="edge47" class="edge"><title>Rm_degradation__SL_modifier&#45;&gt;Rm_degradation__SL_modifier_intermediate_m</title>
<path fill="none" stroke="black" d="M603.344,-123.846C609.38,-111.682 623.234,-86.9327 642,-73 651.511,-65.9384 666.995,-64.1124 667.953,-64.0051"/>
</g>
<!-- Rm_degradation__SL_modifier_intermediate_r&#45;&gt;Rm_degradation__SL_modifier -->
<g id="edge44" class="edge"><title>Rm_degradation__SL_modifier_intermediate_r&#45;&gt;Rm_degradation__SL_modifier</title>
<path fill="none" stroke="black" d="M530.051,-310C531.1,-309.993 548.013,-309.749 556,-301 600.477,-252.277 599.73,-164.006 598.469,-138.242"/>
</g>
<!-- LT_degradation -->
<g id="node46" class="node"><title>LT_degradation</title>
<polygon fill="none" stroke="black" points="443,-211 429,-211 429,-197 443,-197 443,-211"/>
</g>
<!-- LT_degradation_empty -->
<g id="node48" class="node"><title>LT_degradation_empty</title>
<text text-anchor="middle" x="529" y="-198.5" font-family="Times,serif" font-size="15.00" fill="blue">Ø</text>
</g>
<!-- LT_degradation&#45;&gt;LT_degradation_empty -->
<g id="edge51" class="edge"><title>LT_degradation&#45;&gt;LT_degradation_empty</title>
<path fill="none" stroke="black" d="M443.255,-203.863C453.237,-203.643 473.504,-203.198 491.715,-202.797"/>
<polygon fill="black" stroke="black" points="491.903,-206.294 501.824,-202.575 491.749,-199.296 491.903,-206.294"/>
</g>
<!-- LT_degradation_intermediate_r&#45;&gt;LT_degradation -->
<g id="edge49" class="edge"><title>LT_degradation_intermediate_r&#45;&gt;LT_degradation</title>
<path fill="none" stroke="black" d="M370.047,-232.979C371.631,-232.272 412.724,-213.938 428.716,-206.804"/>
</g>
<!-- Lm_degradation -->
<g id="node49" class="node"><title>Lm_degradation</title>
<polygon fill="none" stroke="black" points="443,-875 429,-875 429,-861 443,-861 443,-875"/>
</g>
<!-- Lm_degradation_empty -->
<g id="node51" class="node"><title>Lm_degradation_empty</title>
<text text-anchor="middle" x="529" y="-873.5" font-family="Times,serif" font-size="15.00" fill="blue">Ø</text>
</g>
<!-- Lm_degradation&#45;&gt;Lm_degradation_empty -->
<g id="edge54" class="edge"><title>Lm_degradation&#45;&gt;Lm_degradation_empty</title>
<path fill="none" stroke="black" d="M443.255,-868.619C453.237,-869.606 473.504,-871.61 491.715,-873.411"/>
<polygon fill="black" stroke="black" points="491.528,-876.91 501.824,-874.411 492.217,-869.944 491.528,-876.91"/>
</g>
<!-- Lm_degradation_intermediate_r&#45;&gt;Lm_degradation -->
<g id="edge52" class="edge"><title>Lm_degradation_intermediate_r&#45;&gt;Lm_degradation</title>
<path fill="none" stroke="black" d="M370.047,-858.007C371.631,-858.251 412.724,-864.573 428.716,-867.033"/>
</g>
<!-- LT_degradation__m__T_and_Rm_modifiers -->
<g id="node52" class="node"><title>LT_degradation__m__T_and_Rm_modifiers</title>
<polygon fill="none" stroke="black" points="443,-246 429,-246 429,-232 443,-232 443,-246"/>
</g>
<!-- LT_degradation__m__T_and_Rm_modifiers_empty -->
<g id="node54" class="node"><title>LT_degradation__m__T_and_Rm_modifiers_empty</title>
<text text-anchor="middle" x="529" y="-252.5" font-family="Times,serif" font-size="15.00" fill="blue">Ø</text>
</g>
<!-- LT_degradation__m__T_and_Rm_modifiers&#45;&gt;LT_degradation__m__T_and_Rm_modifiers_empty -->
<g id="edge57" class="edge"><title>LT_degradation__m__T_and_Rm_modifiers&#45;&gt;LT_degradation__m__T_and_Rm_modifiers_empty</title>
<path fill="none" stroke="black" d="M443.255,-240.168C453.284,-242.042 473.693,-245.855 491.969,-249.269"/>
<polygon fill="black" stroke="black" points="491.351,-252.714 501.824,-251.11 492.637,-245.833 491.351,-252.714"/>
</g>
<!-- LT_degradation__m__T_and_Rm_modifiers&#45;&gt;LT_degradation__m__T_and_Rm_modifiers_intermediate_m -->
<g id="edge58" class="edge"><title>LT_degradation__m__T_and_Rm_modifiers&#45;&gt;LT_degradation__m__T_and_Rm_modifiers_intermediate_m</title>
<path fill="none" stroke="black" d="M443.42,-241.329C449.773,-243.891 459.468,-248.521 466,-255 489.172,-277.982 476.951,-298.08 502,-319 511.092,-326.594 526.969,-327.921 527.952,-327.996"/>
</g>
<!-- LT_degradation__m__T_and_Rm_modifiers_intermediate_r&#45;&gt;LT_degradation__m__T_and_Rm_modifiers -->
<g id="edge55" class="edge"><title>LT_degradation__m__T_and_Rm_modifiers_intermediate_r&#45;&gt;LT_degradation__m__T_and_Rm_modifiers</title>
<path fill="none" stroke="black" d="M370.048,-299.918C371.029,-298.231 387.024,-270.986 406,-255 413.036,-249.072 422.605,-244.304 428.793,-241.562"/>
</g>
<!-- Lm_degradation__m__T_and_RT_modifiers -->
<g id="node56" class="node"><title>Lm_degradation__m__T_and_RT_modifiers</title>
<polygon fill="none" stroke="black" points="443,-834 429,-834 429,-820 443,-820 443,-834"/>
</g>
<!-- Lm_degradation__m__T_and_RT_modifiers_empty -->
<g id="node58" class="node"><title>Lm_degradation__m__T_and_RT_modifiers_empty</title>
<text text-anchor="middle" x="529" y="-819.5" font-family="Times,serif" font-size="15.00" fill="blue">Ø</text>
</g>
<!-- Lm_degradation__m__T_and_RT_modifiers&#45;&gt;Lm_degradation__m__T_and_RT_modifiers_empty -->
<g id="edge64" class="edge"><title>Lm_degradation__m__T_and_RT_modifiers&#45;&gt;Lm_degradation__m__T_and_RT_modifiers_empty</title>
<path fill="none" stroke="black" d="M443.255,-826.725C453.237,-826.286 473.504,-825.395 491.715,-824.595"/>
<polygon fill="black" stroke="black" points="491.987,-828.086 501.824,-824.151 491.68,-821.093 491.987,-828.086"/>
</g>
<!-- Lm_degradation__m__T_and_RT_modifiers&#45;&gt;Lm_degradation__m__T_and_RT_modifiers_intermediate_m -->
<g id="edge65" class="edge"><title>Lm_degradation__m__T_and_RT_modifiers&#45;&gt;Lm_degradation__m__T_and_RT_modifiers_intermediate_m</title>
<path fill="none" stroke="black" d="M443.372,-824.621C449.687,-822.021 459.354,-817.362 466,-811 488.19,-789.759 479.062,-772.432 502,-752 511.207,-743.799 526.976,-740.226 527.952,-740.01"/>
</g>
<!-- Lm_degradation__m__T_and_RT_modifiers_intermediate_r&#45;&gt;Lm_degradation__m__T_and_RT_modifiers -->
<g id="edge62" class="edge"><title>Lm_degradation__m__T_and_RT_modifiers_intermediate_r&#45;&gt;Lm_degradation__m__T_and_RT_modifiers</title>
<path fill="none" stroke="black" d="M370.047,-824.002C371.631,-824.075 412.724,-825.972 428.716,-826.71"/>
</g>
<!-- SL_synthesis -->
<g id="node60" class="node"><title>SL_synthesis</title>
<polygon fill="none" stroke="black" points="104,-345 90,-345 90,-331 104,-331 104,-345"/>
</g>
<!-- SL_synthesis_intermediate_p -->
<g id="node62" class="node"><title>SL_synthesis_intermediate_p</title>
<ellipse fill="black" stroke="black" cx="167" cy="-184" rx="0.036" ry="0.036"/>
</g>
<!-- SL_synthesis&#45;&gt;SL_synthesis_intermediate_p -->
<g id="edge70" class="edge"><title>SL_synthesis&#45;&gt;SL_synthesis_intermediate_p</title>
<path fill="none" stroke="black" d="M101.099,-330.983C114.193,-301.327 164.397,-187.631 165.963,-184.085"/>
</g>
<!-- SL_synthesis&#45;&gt;SL_synthesis_intermediate_m -->
<g id="edge72" class="edge"><title>SL_synthesis&#45;&gt;SL_synthesis_intermediate_m</title>
<path fill="none" stroke="black" d="M101.463,-345.096C114.524,-371.141 163.457,-462.472 230,-511 281.765,-548.751 365.339,-559.66 367.938,-559.992"/>
</g>
<!-- SL_synthesis_empty -->
<g id="node61" class="node"><title>SL_synthesis_empty</title>
<text text-anchor="middle" x="27" y="-334.5" font-family="Times,serif" font-size="15.00" fill="blue">Ø</text>
</g>
<!-- SL_synthesis_empty&#45;&gt;SL_synthesis -->
<g id="edge69" class="edge"><title>SL_synthesis_empty&#45;&gt;SL_synthesis</title>
<path fill="none" stroke="black" d="M54.0961,-338C67.13,-338 81.8045,-338 89.8681,-338"/>
</g>
<!-- SL_synthesis_intermediate_p&#45;&gt;SL -->
<g id="edge71" class="edge"><title>SL_synthesis_intermediate_p&#45;&gt;SL</title>
<path fill="none" stroke="black" d="M168.081,-183.951C170.279,-182.616 216.632,-154.474 248.986,-134.83"/>
<polygon fill="black" stroke="black" points="250.961,-137.725 257.692,-129.544 247.328,-131.742 250.961,-137.725"/>
</g>
<!-- SL_degradation__Rm__m__RT__T_and_SL_modifiers -->
<g id="node64" class="node"><title>SL_degradation__Rm__m__RT__T_and_SL_modifiers</title>
<polygon fill="none" stroke="black" points="443,-123 429,-123 429,-109 443,-109 443,-123"/>
</g>
<!-- SL_degradation__Rm__m__RT__T_and_SL_modifiers_empty -->
<g id="node66" class="node"><title>SL_degradation__Rm__m__RT__T_and_SL_modifiers_empty</title>
<text text-anchor="middle" x="529" y="-106.5" font-family="Times,serif" font-size="15.00" fill="blue">Ø</text>
</g>
<!-- SL_degradation__Rm__m__RT__T_and_SL_modifiers&#45;&gt;SL_degradation__Rm__m__RT__T_and_SL_modifiers_empty -->
<g id="edge79" class="edge"><title>SL_degradation__Rm__m__RT__T_and_SL_modifiers&#45;&gt;SL_degradation__Rm__m__RT__T_and_SL_modifiers_empty</title>
<path fill="none" stroke="black" d="M443.255,-115.588C453.237,-114.929 473.504,-113.593 491.715,-112.392"/>
<polygon fill="black" stroke="black" points="492.076,-115.876 501.824,-111.726 491.615,-108.891 492.076,-115.876"/>
</g>
<!-- SL_degradation__Rm__m__RT__T_and_SL_modifiers&#45;&gt;SL_degradation__Rm__m__RT__T_and_SL_modifiers_intermediate_m -->
<g id="edge80" class="edge"><title>SL_degradation__Rm__m__RT__T_and_SL_modifiers&#45;&gt;SL_degradation__Rm__m__RT__T_and_SL_modifiers_intermediate_m</title>
<path fill="none" stroke="black" d="M440.231,-123.027C445.998,-135.766 458.19,-163.616 466,-188 486.782,-252.881 481.631,-271.988 502,-337 511.251,-366.528 526.979,-401.723 527.953,-403.894"/>
</g>
<!-- SL_degradation__Rm__m__RT__T_and_SL_modifiers_intermediate_r&#45;&gt;SL_degradation__Rm__m__RT__T_and_SL_modifiers -->
<g id="edge77" class="edge"><title>SL_degradation__Rm__m__RT__T_and_SL_modifiers_intermediate_r&#45;&gt;SL_degradation__Rm__m__RT__T_and_SL_modifiers</title>
<path fill="none" stroke="black" d="M370.047,-116C371.631,-116 412.724,-116 428.716,-116"/>
</g>
</g>
</svg>
