<?xml version="1.0" encoding="UTF-8" standalone="no"?>
<!DOCTYPE svg PUBLIC "-//W3C//DTD SVG 1.1//EN"
 "http://www.w3.org/Graphics/SVG/1.1/DTD/svg11.dtd">
<!-- Generated by graphviz version 2.30.1 (20140821.0912)
 -->
<!-- Title: G Pages: 1 -->
<svg width="1110pt" height="578pt"
 viewBox="0.00 0.00 1110.00 578.00" xmlns="http://www.w3.org/2000/svg" xmlns:xlink="http://www.w3.org/1999/xlink">
<g id="graph0" class="graph" transform="scale(1 1) rotate(0) translate(4 574)">
<title>G</title>
<polygon fill="white" stroke="white" points="-4,5 -4,-574 1107,-574 1107,5 -4,5"/>
<!-- S1__Cell_1_ -->
<g id="S1__Cell_1_ [CHEBI:17234]" class="node"><title>S1__Cell_1_</title>
<ellipse fill="none" stroke="black" cx="203" cy="-104" rx="18" ry="18"/>
<text text-anchor="middle" x="203" y="-101.5" font-family="Times,serif" font-size="10.00">S1</text>
</g>
<!-- v1_cell_1_intermediate_r -->
<g id="node21" class="node"><title>v1_cell_1_intermediate_r</title>
<ellipse fill="black" stroke="black" cx="266" cy="-104" rx="0.036" ry="0.036"/>
</g>
<!-- S1__Cell_1_&#45;&gt;v1_cell_1_intermediate_r -->
<g id="edge2" class="edge"><title>S1__Cell_1_&#45;&gt;v1_cell_1_intermediate_r</title>
<path fill="none" stroke="black" d="M221.317,-104C238.788,-104 263.404,-104 264.926,-104"/>
</g>
<!-- S1__Cell_2_ -->
<g id="S1__Cell_2_ [CHEBI:17234]" class="node"><title>S1__Cell_2_</title>
<ellipse fill="none" stroke="black" cx="203" cy="-258" rx="18" ry="18"/>
<text text-anchor="middle" x="203" y="-255.5" font-family="Times,serif" font-size="10.00">S1</text>
</g>
<!-- v1_cell_2_intermediate_r -->
<g id="node24" class="node"><title>v1_cell_2_intermediate_r</title>
<ellipse fill="black" stroke="black" cx="266" cy="-258" rx="0.036" ry="0.036"/>
</g>
<!-- S1__Cell_2_&#45;&gt;v1_cell_2_intermediate_r -->
<g id="edge7" class="edge"><title>S1__Cell_2_&#45;&gt;v1_cell_2_intermediate_r</title>
<path fill="none" stroke="black" d="M221.317,-258C238.788,-258 263.404,-258 264.926,-258"/>
</g>
<!-- S2__Cell_1_ -->
<g id="S2__Cell_1_" class="node"><title>S2__Cell_1_</title>
<ellipse fill="none" stroke="black" cx="460" cy="-192" rx="18" ry="18"/>
<text text-anchor="middle" x="460" y="-189.5" font-family="Times,serif" font-size="10.00">S2</text>
</g>
<!-- v2_cell_1_intermediate_r -->
<g id="node27" class="node"><title>v2_cell_1_intermediate_r</title>
<ellipse fill="black" stroke="black" cx="515" cy="-152" rx="0.036" ry="0.036"/>
</g>
<!-- S2__Cell_1_&#45;&gt;v2_cell_1_intermediate_r -->
<g id="edge12" class="edge"><title>S2__Cell_1_&#45;&gt;v2_cell_1_intermediate_r</title>
<path fill="none" stroke="black" d="M474.925,-181.49C490.137,-170.01 512.547,-153.097 513.932,-152.051"/>
</g>
<!-- v6_cell_1_intermediate_r -->
<g id="node51" class="node"><title>v6_cell_1_intermediate_r</title>
<ellipse fill="black" stroke="black" cx="713" cy="-183" rx="0.036" ry="0.036"/>
</g>
<!-- S2__Cell_1_&#45;&gt;v6_cell_1_intermediate_r -->
<g id="edge50" class="edge"><title>S2__Cell_1_&#45;&gt;v6_cell_1_intermediate_r</title>
<path fill="none" stroke="black" d="M477.685,-196.457C496.903,-201.191 529.497,-208 558,-208 558,-208 558,-208 604,-208 652.499,-208 710.167,-183.775 711.957,-183.018"/>
</g>
<!-- S2__Cell_2_ -->
<g id="S2__Cell_2_" class="node"><title>S2__Cell_2_</title>
<ellipse fill="none" stroke="black" cx="460" cy="-429" rx="18" ry="18"/>
<text text-anchor="middle" x="460" y="-426.5" font-family="Times,serif" font-size="10.00">S2</text>
</g>
<!-- v2_cell_2_intermediate_r -->
<g id="node30" class="node"><title>v2_cell_2_intermediate_r</title>
<ellipse fill="black" stroke="black" cx="515" cy="-400" rx="0.036" ry="0.036"/>
</g>
<!-- S2__Cell_2_&#45;&gt;v2_cell_2_intermediate_r -->
<g id="edge18" class="edge"><title>S2__Cell_2_&#45;&gt;v2_cell_2_intermediate_r</title>
<path fill="none" stroke="black" d="M476.046,-420.767C491.225,-412.462 512.614,-400.759 513.936,-400.035"/>
</g>
<!-- v6_cell_2_intermediate_r -->
<g id="node54" class="node"><title>v6_cell_2_intermediate_r</title>
<ellipse fill="black" stroke="black" cx="713" cy="-448" rx="0.036" ry="0.036"/>
</g>
<!-- S2__Cell_2_&#45;&gt;v6_cell_2_intermediate_r -->
<g id="edge54" class="edge"><title>S2__Cell_2_&#45;&gt;v6_cell_2_intermediate_r</title>
<path fill="none" stroke="black" d="M477.244,-434.738C496.324,-440.956 529.053,-450 558,-450 558,-450 558,-450 604,-450 651.258,-450 710.128,-448.062 711.956,-448.001"/>
</g>
<!-- S3__Cell_1_ -->
<g id="S3__Cell_1_ [CHEBI:89363]" class="node"><title>S3__Cell_1_</title>
<ellipse fill="none" stroke="black" cx="658" cy="-54" rx="18" ry="18"/>
<text text-anchor="middle" x="658" y="-51.5" font-family="Times,serif" font-size="10.00">S3</text>
</g>
<!-- v3_cell_1_intermediate_r -->
<g id="node33" class="node"><title>v3_cell_1_intermediate_r</title>
<ellipse fill="black" stroke="black" cx="713" cy="-73" rx="0.036" ry="0.036"/>
</g>
<!-- S3__Cell_1_&#45;&gt;v3_cell_1_intermediate_r -->
<g id="edge24" class="edge"><title>S3__Cell_1_&#45;&gt;v3_cell_1_intermediate_r</title>
<path fill="none" stroke="black" d="M675.19,-59.8039C690.289,-65.2168 710.679,-72.5264 711.939,-72.978"/>
</g>
<!-- S3__Cell_2_ -->
<g id="S3__Cell_2_ [CHEBI:89363]" class="node"><title>S3__Cell_2_</title>
<ellipse fill="none" stroke="black" cx="658" cy="-296" rx="18" ry="18"/>
<text text-anchor="middle" x="658" y="-293.5" font-family="Times,serif" font-size="10.00">S3</text>
</g>
<!-- v3_cell_2_intermediate_r -->
<g id="node36" class="node"><title>v3_cell_2_intermediate_r</title>
<ellipse fill="black" stroke="black" cx="713" cy="-300" rx="0.036" ry="0.036"/>
</g>
<!-- S3__Cell_2_&#45;&gt;v3_cell_2_intermediate_r -->
<g id="edge30" class="edge"><title>S3__Cell_2_&#45;&gt;v3_cell_2_intermediate_r</title>
<path fill="none" stroke="black" d="M676.061,-297.288C691.071,-298.42 710.727,-299.904 711.941,-299.996"/>
</g>
<!-- S4__Cell_1_ -->
<g id="S4__Cell_1_" class="node"><title>S4__Cell_1_</title>
<ellipse fill="none" stroke="black" cx="908" cy="-77" rx="18" ry="18"/>
<text text-anchor="middle" x="908" y="-74.5" font-family="Times,serif" font-size="10.00">S4</text>
</g>
<!-- v4_cell_1_intermediate_r -->
<g id="node39" class="node"><title>v4_cell_1_intermediate_r</title>
<ellipse fill="black" stroke="black" cx="962" cy="-132" rx="0.036" ry="0.036"/>
</g>
<!-- S4__Cell_1_&#45;&gt;v4_cell_1_intermediate_r -->
<g id="edge36" class="edge"><title>S4__Cell_1_&#45;&gt;v4_cell_1_intermediate_r</title>
<path fill="none" stroke="black" d="M921.061,-89.7563C935.942,-105.496 959.473,-130.385 960.929,-131.925"/>
</g>
<!-- S4_cell_1_export_intermediate_r -->
<g id="node66" class="node"><title>S4_cell_1_export_intermediate_r</title>
<ellipse fill="black" stroke="black" cx="962" cy="-77" rx="0.036" ry="0.036"/>
</g>
<!-- S4__Cell_1_&#45;&gt;S4_cell_1_export_intermediate_r -->
<g id="edge67" class="edge"><title>S4__Cell_1_&#45;&gt;S4_cell_1_export_intermediate_r</title>
<path fill="none" stroke="black" d="M926.027,-77C940.718,-77 959.767,-77 960.943,-77"/>
</g>
<!-- S4__Cell_2_ -->
<g id="S4__Cell_2_" class="node"><title>S4__Cell_2_</title>
<ellipse fill="none" stroke="black" cx="908" cy="-333" rx="18" ry="18"/>
<text text-anchor="middle" x="908" y="-330.5" font-family="Times,serif" font-size="10.00">S4</text>
</g>
<!-- v4_cell_2_intermediate_r -->
<g id="node42" class="node"><title>v4_cell_2_intermediate_r</title>
<ellipse fill="black" stroke="black" cx="962" cy="-388" rx="0.036" ry="0.036"/>
</g>
<!-- S4__Cell_2_&#45;&gt;v4_cell_2_intermediate_r -->
<g id="edge40" class="edge"><title>S4__Cell_2_&#45;&gt;v4_cell_2_intermediate_r</title>
<path fill="none" stroke="black" d="M921.061,-345.756C935.942,-361.496 959.473,-386.385 960.929,-387.925"/>
</g>
<!-- S4_cell_2_export_intermediate_r -->
<g id="node69" class="node"><title>S4_cell_2_export_intermediate_r</title>
<ellipse fill="black" stroke="black" cx="962" cy="-333" rx="0.036" ry="0.036"/>
</g>
<!-- S4__Cell_2_&#45;&gt;S4_cell_2_export_intermediate_r -->
<g id="edge70" class="edge"><title>S4__Cell_2_&#45;&gt;S4_cell_2_export_intermediate_r</title>
<path fill="none" stroke="black" d="M926.027,-333C940.718,-333 959.767,-333 960.943,-333"/>
</g>
<!-- N2__Cell_1_ -->
<g id="N2__Cell_1_ [CHEBI:16908]" class="node"><title>N2__Cell_1_</title>
<ellipse fill="none" stroke="black" cx="658" cy="-162" rx="18" ry="18"/>
<text text-anchor="middle" x="658" y="-159.5" font-family="Times,serif" font-size="10.00">N2</text>
</g>
<!-- N2__Cell_1_&#45;&gt;v4_cell_1_intermediate_r -->
<g id="edge37" class="edge"><title>N2__Cell_1_&#45;&gt;v4_cell_1_intermediate_r</title>
<path fill="none" stroke="black" d="M674.758,-154.764C693.647,-146.767 726.458,-135 756,-135 756,-135 756,-135 828,-135 886.202,-135 958.695,-132.093 960.946,-132.002"/>
</g>
<!-- N2__Cell_1_&#45;&gt;v6_cell_1_intermediate_r -->
<g id="edge51" class="edge"><title>N2__Cell_1_&#45;&gt;v6_cell_1_intermediate_r</title>
<path fill="none" stroke="black" d="M674.902,-168.301C690.025,-174.293 710.663,-182.47 711.938,-182.975"/>
</g>
<!-- N2__Cell_2_ -->
<g id="N2__Cell_2_ [CHEBI:16908]" class="node"><title>N2__Cell_2_</title>
<ellipse fill="none" stroke="black" cx="658" cy="-404" rx="18" ry="18"/>
<text text-anchor="middle" x="658" y="-401.5" font-family="Times,serif" font-size="10.00">N2</text>
</g>
<!-- N2__Cell_2_&#45;&gt;v4_cell_2_intermediate_r -->
<g id="edge41" class="edge"><title>N2__Cell_2_&#45;&gt;v4_cell_2_intermediate_r</title>
<path fill="none" stroke="black" d="M675.731,-400.379C694.992,-396.532 727.625,-391 756,-391 756,-391 756,-391 828,-391 886.202,-391 958.695,-388.093 960.946,-388.002"/>
</g>
<!-- N2__Cell_2_&#45;&gt;v6_cell_2_intermediate_r -->
<g id="edge55" class="edge"><title>N2__Cell_2_&#45;&gt;v6_cell_2_intermediate_r</title>
<path fill="none" stroke="black" d="M672.374,-415.103C687.584,-427.73 710.513,-446.765 711.931,-447.943"/>
</g>
<!-- A3__Cell_1_ -->
<g id="A3__Cell_1_ [CHEBI:15422]" class="node"><title>A3__Cell_1_</title>
<ellipse fill="none" stroke="black" cx="908" cy="-18" rx="18" ry="18"/>
<text text-anchor="middle" x="908" y="-15.5" font-family="Times,serif" font-size="10.00">A3</text>
</g>
<!-- A3__Cell_1_&#45;&gt;v1_cell_1_intermediate_r -->
<g id="edge3" class="edge"><title>A3__Cell_1_&#45;&gt;v1_cell_1_intermediate_r</title>
<path fill="none" stroke="black" d="M890.042,-16.1191C862.417,-13.2223 805.964,-8 758,-8 378,-8 378,-8 378,-8 313.795,-8 268.435,-101.023 267.033,-103.93"/>
</g>
<!-- v5_cell_1_intermediate_r -->
<g id="node45" class="node"><title>v5_cell_1_intermediate_r</title>
<ellipse fill="black" stroke="black" cx="962" cy="-18" rx="0.036" ry="0.036"/>
</g>
<!-- A3__Cell_1_&#45;&gt;v5_cell_1_intermediate_r -->
<g id="edge44" class="edge"><title>A3__Cell_1_&#45;&gt;v5_cell_1_intermediate_r</title>
<path fill="none" stroke="black" d="M926.027,-18C940.718,-18 959.767,-18 960.943,-18"/>
</g>
<!-- A3__Cell_2_ -->
<g id="A3__Cell_2_ [CHEBI:15422]" class="node"><title>A3__Cell_2_</title>
<ellipse fill="none" stroke="black" cx="908" cy="-256" rx="18" ry="18"/>
<text text-anchor="middle" x="908" y="-253.5" font-family="Times,serif" font-size="10.00">A3</text>
</g>
<!-- A3__Cell_2_&#45;&gt;v1_cell_2_intermediate_r -->
<g id="edge8" class="edge"><title>A3__Cell_2_&#45;&gt;v1_cell_2_intermediate_r</title>
<path fill="none" stroke="black" d="M890.026,-254.871C862.379,-253.133 805.895,-250 758,-250 378,-250 378,-250 378,-250 329.312,-250 268.92,-257.752 267.045,-257.994"/>
</g>
<!-- v5_cell_2_intermediate_r -->
<g id="node48" class="node"><title>v5_cell_2_intermediate_r</title>
<ellipse fill="black" stroke="black" cx="962" cy="-256" rx="0.036" ry="0.036"/>
</g>
<!-- A3__Cell_2_&#45;&gt;v5_cell_2_intermediate_r -->
<g id="edge47" class="edge"><title>A3__Cell_2_&#45;&gt;v5_cell_2_intermediate_r</title>
<path fill="none" stroke="black" d="M926.027,-256C940.718,-256 959.767,-256 960.943,-256"/>
</g>
<!-- S4_ex -->
<g id="S4_ex" class="node"><title>S4_ex</title>
<ellipse fill="none" stroke="black" cx="203" cy="-444" rx="27" ry="18"/>
<text text-anchor="middle" x="203" y="-441.5" font-family="Times,serif" font-size="10.00">S4_ex</text>
</g>
<!-- v7_intermediate_r -->
<g id="node57" class="node"><title>v7_intermediate_r</title>
<ellipse fill="black" stroke="black" cx="266" cy="-444" rx="0.036" ry="0.036"/>
</g>
<!-- S4_ex&#45;&gt;v7_intermediate_r -->
<g id="edge58" class="edge"><title>S4_ex&#45;&gt;v7_intermediate_r</title>
<path fill="none" stroke="black" d="M230.224,-444C246.24,-444 263.861,-444 264.947,-444"/>
</g>
<!-- A -->
<g id="A" class="node"><title>A</title>
<ellipse fill="none" stroke="black" cx="27" cy="-498" rx="18" ry="18"/>
<text text-anchor="middle" x="27" y="-495.5" font-family="Times,serif" font-size="10.00">A</text>
</g>
<!-- N -->
<g id="N" class="node"><title>N</title>
<ellipse fill="none" stroke="black" cx="27" cy="-552" rx="18" ry="18"/>
<text text-anchor="middle" x="27" y="-549.5" font-family="Times,serif" font-size="10.00">N</text>
</g>
<!-- N1__Cell_1_ -->
<g id="N1__Cell_1_ [CHEBI:15846]" class="node"><title>N1__Cell_1_</title>
<ellipse fill="none" stroke="black" cx="460" cy="-138" rx="18" ry="18"/>
<text text-anchor="middle" x="460" y="-135.5" font-family="Times,serif" font-size="10.00">N1</text>
</g>
<!-- N1__Cell_1_&#45;&gt;v2_cell_1_intermediate_r -->
<g id="edge13" class="edge"><title>N1__Cell_1_&#45;&gt;v2_cell_1_intermediate_r</title>
<path fill="none" stroke="black" d="M477.479,-142.353C492.551,-146.334 512.695,-151.655 513.939,-151.984"/>
</g>
<!-- N1__Cell_2_ -->
<g id="N1__Cell_2_ [CHEBI:15846]" class="node"><title>N1__Cell_2_</title>
<ellipse fill="none" stroke="black" cx="460" cy="-375" rx="18" ry="18"/>
<text text-anchor="middle" x="460" y="-372.5" font-family="Times,serif" font-size="10.00">N1</text>
</g>
<!-- N1__Cell_2_&#45;&gt;v2_cell_2_intermediate_r -->
<g id="edge19" class="edge"><title>N1__Cell_2_&#45;&gt;v2_cell_2_intermediate_r</title>
<path fill="none" stroke="black" d="M476.615,-382.366C491.76,-389.51 512.647,-399.362 513.937,-399.97"/>
</g>
<!-- A2__Cell_1_ -->
<g id="A2__Cell_1_ [CHEBI:16761]" class="node"><title>A2__Cell_1_</title>
<ellipse fill="none" stroke="black" cx="658" cy="-108" rx="18" ry="18"/>
<text text-anchor="middle" x="658" y="-105.5" font-family="Times,serif" font-size="10.00">A2</text>
</g>
<!-- A2__Cell_1_&#45;&gt;v3_cell_1_intermediate_r -->
<g id="edge25" class="edge"><title>A2__Cell_1_&#45;&gt;v3_cell_1_intermediate_r</title>
<path fill="none" stroke="black" d="M673.482,-98.4361C688.684,-88.3971 710.58,-73.9375 711.934,-73.0436"/>
</g>
<!-- A2__Cell_2_ -->
<g id="A2__Cell_2_ [CHEBI:16761]" class="node"><title>A2__Cell_2_</title>
<ellipse fill="none" stroke="black" cx="658" cy="-350" rx="18" ry="18"/>
<text text-anchor="middle" x="658" y="-347.5" font-family="Times,serif" font-size="10.00">A2</text>
</g>
<!-- A2__Cell_2_&#45;&gt;v3_cell_2_intermediate_r -->
<g id="edge31" class="edge"><title>A2__Cell_2_&#45;&gt;v3_cell_2_intermediate_r</title>
<path fill="none" stroke="black" d="M671.56,-338.151C686.743,-323.827 710.461,-301.452 711.928,-300.067"/>
</g>
<!-- v1_cell_1 -->
<g id="node20" class="node"><title>v1_cell_1</title>
<polygon fill="none" stroke="black" points="316,-127 302,-127 302,-113 316,-113 316,-127"/>
</g>
<!-- v1_cell_1_intermediate_p -->
<g id="node22" class="node"><title>v1_cell_1_intermediate_p</title>
<ellipse fill="black" stroke="black" cx="379" cy="-144" rx="0.036" ry="0.036"/>
</g>
<!-- v1_cell_1&#45;&gt;v1_cell_1_intermediate_p -->
<g id="edge4" class="edge"><title>v1_cell_1&#45;&gt;v1_cell_1_intermediate_p</title>
<path fill="none" stroke="black" d="M316.275,-122.215C332.583,-127.971 375.222,-143.019 377.871,-143.954"/>
</g>
<!-- v1_cell_1_intermediate_r&#45;&gt;v1_cell_1 -->
<g id="edge1" class="edge"><title>v1_cell_1_intermediate_r&#45;&gt;v1_cell_1</title>
<path fill="none" stroke="black" d="M267.118,-104.046C268.921,-104.75 291.016,-113.372 301.95,-117.639"/>
</g>
<!-- v1_cell_1_intermediate_p&#45;&gt;S2__Cell_1_ -->
<g id="edge5" class="edge"><title>v1_cell_1_intermediate_p&#45;&gt;S2__Cell_1_</title>
<path fill="none" stroke="black" d="M380.057,-144.035C381.568,-144.953 412.673,-163.852 435.38,-177.648"/>
<polygon fill="black" stroke="black" points="433.823,-180.798 444.187,-183 437.458,-174.816 433.823,-180.798"/>
</g>
<!-- v1_cell_2 -->
<g id="node23" class="node"><title>v1_cell_2</title>
<polygon fill="none" stroke="black" points="316,-374 302,-374 302,-360 316,-360 316,-374"/>
</g>
<!-- v1_cell_2_intermediate_p -->
<g id="node25" class="node"><title>v1_cell_2_intermediate_p</title>
<ellipse fill="black" stroke="black" cx="379" cy="-408" rx="0.036" ry="0.036"/>
</g>
<!-- v1_cell_2&#45;&gt;v1_cell_2_intermediate_p -->
<g id="edge9" class="edge"><title>v1_cell_2&#45;&gt;v1_cell_2_intermediate_p</title>
<path fill="none" stroke="black" d="M316.275,-370.784C332.583,-380.616 375.222,-406.325 377.871,-407.922"/>
</g>
<!-- v1_cell_2_intermediate_r&#45;&gt;v1_cell_2 -->
<g id="edge6" class="edge"><title>v1_cell_2_intermediate_r&#45;&gt;v1_cell_2</title>
<path fill="none" stroke="black" d="M267.03,-258.079C268.072,-260.851 296.262,-335.793 305.264,-359.727"/>
</g>
<!-- v1_cell_2_intermediate_p&#45;&gt;S2__Cell_2_ -->
<g id="edge10" class="edge"><title>v1_cell_2_intermediate_p&#45;&gt;S2__Cell_2_</title>
<path fill="none" stroke="black" d="M380.057,-408.015C381.508,-408.401 410.224,-416.034 432.607,-421.984"/>
<polygon fill="black" stroke="black" points="431.761,-425.381 442.325,-424.567 433.559,-418.616 431.761,-425.381"/>
</g>
<!-- v2_cell_1 -->
<g id="node26" class="node"><title>v2_cell_1</title>
<polygon fill="none" stroke="black" points="566,-159 552,-159 552,-145 566,-145 566,-159"/>
</g>
<!-- v2_cell_1_intermediate_p -->
<g id="node28" class="node"><title>v2_cell_1_intermediate_p</title>
<ellipse fill="black" stroke="black" cx="603" cy="-152" rx="0.036" ry="0.036"/>
</g>
<!-- v2_cell_1&#45;&gt;v2_cell_1_intermediate_p -->
<g id="edge14" class="edge"><title>v2_cell_1&#45;&gt;v2_cell_1_intermediate_p</title>
<path fill="none" stroke="black" d="M566.197,-152C577.515,-152 600.505,-152 601.93,-152"/>
</g>
<!-- v2_cell_1_intermediate_r&#45;&gt;v2_cell_1 -->
<g id="edge11" class="edge"><title>v2_cell_1_intermediate_r&#45;&gt;v2_cell_1</title>
<path fill="none" stroke="black" d="M516.12,-152C517.968,-152 540.602,-152 551.803,-152"/>
</g>
<!-- v2_cell_1_intermediate_p&#45;&gt;S3__Cell_1_ -->
<g id="edge15" class="edge"><title>v2_cell_1_intermediate_p&#45;&gt;S3__Cell_1_</title>
<path fill="none" stroke="black" d="M604.054,-151.884C605.159,-149.496 623.101,-110.819 640,-81 640.645,-79.8615 641.316,-78.7031 642.003,-77.5384"/>
<polygon fill="black" stroke="black" points="645.172,-79.0633 647.397,-68.7046 639.198,-75.4152 645.172,-79.0633"/>
</g>
<!-- v2_cell_1_intermediate_p&#45;&gt;N2__Cell_1_ -->
<g id="edge16" class="edge"><title>v2_cell_1_intermediate_p&#45;&gt;N2__Cell_1_</title>
<path fill="none" stroke="black" d="M604.152,-152.029C605.641,-152.31 617.836,-154.61 630.135,-156.931"/>
<polygon fill="black" stroke="black" points="629.782,-160.426 640.258,-158.841 631.08,-153.548 629.782,-160.426"/>
</g>
<!-- v2_cell_2 -->
<g id="node29" class="node"><title>v2_cell_2</title>
<polygon fill="none" stroke="black" points="566,-407 552,-407 552,-393 566,-393 566,-407"/>
</g>
<!-- v2_cell_2_intermediate_p -->
<g id="node31" class="node"><title>v2_cell_2_intermediate_p</title>
<ellipse fill="black" stroke="black" cx="603" cy="-400" rx="0.036" ry="0.036"/>
</g>
<!-- v2_cell_2&#45;&gt;v2_cell_2_intermediate_p -->
<g id="edge20" class="edge"><title>v2_cell_2&#45;&gt;v2_cell_2_intermediate_p</title>
<path fill="none" stroke="black" d="M566.197,-400C577.515,-400 600.505,-400 601.93,-400"/>
</g>
<!-- v2_cell_2_intermediate_r&#45;&gt;v2_cell_2 -->
<g id="edge17" class="edge"><title>v2_cell_2_intermediate_r&#45;&gt;v2_cell_2</title>
<path fill="none" stroke="black" d="M516.12,-400C517.968,-400 540.602,-400 551.803,-400"/>
</g>
<!-- v2_cell_2_intermediate_p&#45;&gt;S3__Cell_2_ -->
<g id="edge21" class="edge"><title>v2_cell_2_intermediate_p&#45;&gt;S3__Cell_2_</title>
<path fill="none" stroke="black" d="M604.052,-399.873C605.119,-397.27 622.466,-355.124 640,-323 640.627,-321.851 641.283,-320.685 641.957,-319.513"/>
<polygon fill="black" stroke="black" points="645.133,-321.025 647.309,-310.656 639.142,-317.405 645.133,-321.025"/>
</g>
<!-- v2_cell_2_intermediate_p&#45;&gt;N2__Cell_2_ -->
<g id="edge22" class="edge"><title>v2_cell_2_intermediate_p&#45;&gt;N2__Cell_2_</title>
<path fill="none" stroke="black" d="M604.152,-400.011C605.632,-400.123 617.681,-401.033 629.9,-401.955"/>
<polygon fill="black" stroke="black" points="629.74,-405.453 639.975,-402.715 630.267,-398.472 629.74,-405.453"/>
</g>
<!-- v3_cell_1 -->
<g id="node32" class="node"><title>v3_cell_1</title>
<polygon fill="none" stroke="black" points="764,-80 750,-80 750,-66 764,-66 764,-80"/>
</g>
<!-- v3_cell_1_intermediate_p -->
<g id="node34" class="node"><title>v3_cell_1_intermediate_p</title>
<ellipse fill="black" stroke="black" cx="827" cy="-73" rx="0.036" ry="0.036"/>
</g>
<!-- v3_cell_1&#45;&gt;v3_cell_1_intermediate_p -->
<g id="edge26" class="edge"><title>v3_cell_1&#45;&gt;v3_cell_1_intermediate_p</title>
<path fill="none" stroke="black" d="M764.275,-73C780.583,-73 823.222,-73 825.871,-73"/>
</g>
<!-- v3_cell_1_intermediate_r&#45;&gt;v3_cell_1 -->
<g id="edge23" class="edge"><title>v3_cell_1_intermediate_r&#45;&gt;v3_cell_1</title>
<path fill="none" stroke="black" d="M714.12,-73C715.968,-73 738.602,-73 749.803,-73"/>
</g>
<!-- v3_cell_1_intermediate_p&#45;&gt;S4__Cell_1_ -->
<g id="edge27" class="edge"><title>v3_cell_1_intermediate_p&#45;&gt;S4__Cell_1_</title>
<path fill="none" stroke="black" d="M828.057,-73.0029C829.493,-73.0756 857.648,-74.5012 879.929,-75.6293"/>
<polygon fill="black" stroke="black" points="879.779,-79.1261 889.943,-76.1364 880.133,-72.1351 879.779,-79.1261"/>
</g>
<!-- v3_cell_1_intermediate_p&#45;&gt;A3__Cell_1_ -->
<g id="edge28" class="edge"><title>v3_cell_1_intermediate_p&#45;&gt;A3__Cell_1_</title>
<path fill="none" stroke="black" d="M828.057,-72.9601C829.583,-71.8976 861.292,-49.8217 884.052,-33.9767"/>
<polygon fill="black" stroke="black" points="886.343,-36.646 892.55,-28.0599 882.344,-30.9011 886.343,-36.646"/>
</g>
<!-- v3_cell_2 -->
<g id="node35" class="node"><title>v3_cell_2</title>
<polygon fill="none" stroke="black" points="764,-307 750,-307 750,-293 764,-293 764,-307"/>
</g>
<!-- v3_cell_2_intermediate_p -->
<g id="node37" class="node"><title>v3_cell_2_intermediate_p</title>
<ellipse fill="black" stroke="black" cx="827" cy="-300" rx="0.036" ry="0.036"/>
</g>
<!-- v3_cell_2&#45;&gt;v3_cell_2_intermediate_p -->
<g id="edge32" class="edge"><title>v3_cell_2&#45;&gt;v3_cell_2_intermediate_p</title>
<path fill="none" stroke="black" d="M764.275,-300C780.583,-300 823.222,-300 825.871,-300"/>
</g>
<!-- v3_cell_2_intermediate_r&#45;&gt;v3_cell_2 -->
<g id="edge29" class="edge"><title>v3_cell_2_intermediate_r&#45;&gt;v3_cell_2</title>
<path fill="none" stroke="black" d="M714.12,-300C715.968,-300 738.602,-300 749.803,-300"/>
</g>
<!-- v3_cell_2_intermediate_p&#45;&gt;S4__Cell_2_ -->
<g id="edge33" class="edge"><title>v3_cell_2_intermediate_p&#45;&gt;S4__Cell_2_</title>
<path fill="none" stroke="black" d="M828.057,-300.024C829.531,-300.639 859.134,-313.005 881.658,-322.414"/>
<polygon fill="black" stroke="black" points="880.502,-325.724 891.079,-326.349 883.2,-319.265 880.502,-325.724"/>
</g>
<!-- v3_cell_2_intermediate_p&#45;&gt;A3__Cell_2_ -->
<g id="edge34" class="edge"><title>v3_cell_2_intermediate_p&#45;&gt;A3__Cell_2_</title>
<path fill="none" stroke="black" d="M828.057,-299.968C829.56,-299.131 860.336,-281.99 883.009,-269.362"/>
<polygon fill="black" stroke="black" points="884.787,-272.378 891.821,-264.454 881.381,-266.262 884.787,-272.378"/>
</g>
<!-- v4_cell_1 -->
<g id="node38" class="node"><title>v4_cell_1</title>
<polygon fill="none" stroke="black" points="1012,-139 998,-139 998,-125 1012,-125 1012,-139"/>
</g>
<!-- v4_cell_1_empty -->
<g id="node40" class="node"><title>v4_cell_1_empty</title>
<text text-anchor="middle" x="1075" y="-128.5" font-family="Times,serif" font-size="15.00" fill="blue">Ø</text>
</g>
<!-- v4_cell_1&#45;&gt;v4_cell_1_empty -->
<g id="edge38" class="edge"><title>v4_cell_1&#45;&gt;v4_cell_1_empty</title>
<path fill="none" stroke="black" d="M1012.28,-132C1018.28,-132 1027.85,-132 1037.68,-132"/>
<polygon fill="black" stroke="black" points="1037.88,-135.5 1047.88,-132 1037.88,-128.5 1037.88,-135.5"/>
</g>
<!-- v4_cell_1_intermediate_r&#45;&gt;v4_cell_1 -->
<g id="edge35" class="edge"><title>v4_cell_1_intermediate_r&#45;&gt;v4_cell_1</title>
<path fill="none" stroke="black" d="M963.118,-132C964.921,-132 987.016,-132 997.95,-132"/>
</g>
<!-- v4_cell_2 -->
<g id="node41" class="node"><title>v4_cell_2</title>
<polygon fill="none" stroke="black" points="1012,-395 998,-395 998,-381 1012,-381 1012,-395"/>
</g>
<!-- v4_cell_2_empty -->
<g id="node43" class="node"><title>v4_cell_2_empty</title>
<text text-anchor="middle" x="1075" y="-384.5" font-family="Times,serif" font-size="15.00" fill="blue">Ø</text>
</g>
<!-- v4_cell_2&#45;&gt;v4_cell_2_empty -->
<g id="edge42" class="edge"><title>v4_cell_2&#45;&gt;v4_cell_2_empty</title>
<path fill="none" stroke="black" d="M1012.28,-388C1018.28,-388 1027.85,-388 1037.68,-388"/>
<polygon fill="black" stroke="black" points="1037.88,-391.5 1047.88,-388 1037.88,-384.5 1037.88,-391.5"/>
</g>
<!-- v4_cell_2_intermediate_r&#45;&gt;v4_cell_2 -->
<g id="edge39" class="edge"><title>v4_cell_2_intermediate_r&#45;&gt;v4_cell_2</title>
<path fill="none" stroke="black" d="M963.118,-388C964.921,-388 987.016,-388 997.95,-388"/>
</g>
<!-- v5_cell_1 -->
<g id="node44" class="node"><title>v5_cell_1</title>
<polygon fill="none" stroke="black" points="1012,-25 998,-25 998,-11 1012,-11 1012,-25"/>
</g>
<!-- v5_cell_1_empty -->
<g id="node46" class="node"><title>v5_cell_1_empty</title>
<text text-anchor="middle" x="1075" y="-14.5" font-family="Times,serif" font-size="15.00" fill="blue">Ø</text>
</g>
<!-- v5_cell_1&#45;&gt;v5_cell_1_empty -->
<g id="edge45" class="edge"><title>v5_cell_1&#45;&gt;v5_cell_1_empty</title>
<path fill="none" stroke="black" d="M1012.28,-18C1018.28,-18 1027.85,-18 1037.68,-18"/>
<polygon fill="black" stroke="black" points="1037.88,-21.5001 1047.88,-18 1037.88,-14.5001 1037.88,-21.5001"/>
</g>
<!-- v5_cell_1_intermediate_r&#45;&gt;v5_cell_1 -->
<g id="edge43" class="edge"><title>v5_cell_1_intermediate_r&#45;&gt;v5_cell_1</title>
<path fill="none" stroke="black" d="M963.118,-18C964.921,-18 987.016,-18 997.95,-18"/>
</g>
<!-- v5_cell_2 -->
<g id="node47" class="node"><title>v5_cell_2</title>
<polygon fill="none" stroke="black" points="1012,-263 998,-263 998,-249 1012,-249 1012,-263"/>
</g>
<!-- v5_cell_2_empty -->
<g id="node49" class="node"><title>v5_cell_2_empty</title>
<text text-anchor="middle" x="1075" y="-252.5" font-family="Times,serif" font-size="15.00" fill="blue">Ø</text>
</g>
<!-- v5_cell_2&#45;&gt;v5_cell_2_empty -->
<g id="edge48" class="edge"><title>v5_cell_2&#45;&gt;v5_cell_2_empty</title>
<path fill="none" stroke="black" d="M1012.28,-256C1018.28,-256 1027.85,-256 1037.68,-256"/>
<polygon fill="black" stroke="black" points="1037.88,-259.5 1047.88,-256 1037.88,-252.5 1037.88,-259.5"/>
</g>
<!-- v5_cell_2_intermediate_r&#45;&gt;v5_cell_2 -->
<g id="edge46" class="edge"><title>v5_cell_2_intermediate_r&#45;&gt;v5_cell_2</title>
<path fill="none" stroke="black" d="M963.118,-256C964.921,-256 987.016,-256 997.95,-256"/>
</g>
<!-- v6_cell_1 -->
<g id="node50" class="node"><title>v6_cell_1</title>
<polygon fill="none" stroke="black" points="764,-190 750,-190 750,-176 764,-176 764,-190"/>
</g>
<!-- v6_cell_1_empty -->
<g id="node52" class="node"><title>v6_cell_1_empty</title>
<text text-anchor="middle" x="827" y="-179.5" font-family="Times,serif" font-size="15.00" fill="blue">Ø</text>
</g>
<!-- v6_cell_1&#45;&gt;v6_cell_1_empty -->
<g id="edge52" class="edge"><title>v6_cell_1&#45;&gt;v6_cell_1_empty</title>
<path fill="none" stroke="black" d="M764.275,-183C770.278,-183 779.849,-183 789.68,-183"/>
<polygon fill="black" stroke="black" points="789.88,-186.5 799.88,-183 789.88,-179.5 789.88,-186.5"/>
</g>
<!-- v6_cell_1_intermediate_r&#45;&gt;v6_cell_1 -->
<g id="edge49" class="edge"><title>v6_cell_1_intermediate_r&#45;&gt;v6_cell_1</title>
<path fill="none" stroke="black" d="M714.12,-183C715.968,-183 738.602,-183 749.803,-183"/>
</g>
<!-- v6_cell_2 -->
<g id="node53" class="node"><title>v6_cell_2</title>
<polygon fill="none" stroke="black" points="764,-455 750,-455 750,-441 764,-441 764,-455"/>
</g>
<!-- v6_cell_2_empty -->
<g id="node55" class="node"><title>v6_cell_2_empty</title>
<text text-anchor="middle" x="827" y="-444.5" font-family="Times,serif" font-size="15.00" fill="blue">Ø</text>
</g>
<!-- v6_cell_2&#45;&gt;v6_cell_2_empty -->
<g id="edge56" class="edge"><title>v6_cell_2&#45;&gt;v6_cell_2_empty</title>
<path fill="none" stroke="black" d="M764.275,-448C770.278,-448 779.849,-448 789.68,-448"/>
<polygon fill="black" stroke="black" points="789.88,-451.5 799.88,-448 789.88,-444.5 789.88,-451.5"/>
</g>
<!-- v6_cell_2_intermediate_r&#45;&gt;v6_cell_2 -->
<g id="edge53" class="edge"><title>v6_cell_2_intermediate_r&#45;&gt;v6_cell_2</title>
<path fill="none" stroke="black" d="M714.12,-448C715.968,-448 738.602,-448 749.803,-448"/>
</g>
<!-- v7 -->
<g id="node56" class="node"><title>v7</title>
<polygon fill="none" stroke="black" points="316,-451 302,-451 302,-437 316,-437 316,-451"/>
</g>
<!-- v7_empty -->
<g id="node58" class="node"><title>v7_empty</title>
<text text-anchor="middle" x="379" y="-440.5" font-family="Times,serif" font-size="15.00" fill="blue">Ø</text>
</g>
<!-- v7&#45;&gt;v7_empty -->
<g id="edge59" class="edge"><title>v7&#45;&gt;v7_empty</title>
<path fill="none" stroke="black" d="M316.275,-444C322.278,-444 331.849,-444 341.68,-444"/>
<polygon fill="black" stroke="black" points="341.88,-447.5 351.88,-444 341.88,-440.5 341.88,-447.5"/>
</g>
<!-- v7_intermediate_r&#45;&gt;v7 -->
<g id="edge57" class="edge"><title>v7_intermediate_r&#45;&gt;v7</title>
<path fill="none" stroke="black" d="M267.118,-444C268.921,-444 291.016,-444 301.95,-444"/>
</g>
<!-- S1_cell_1_glucose_influx -->
<g id="node59" class="node"><title>S1_cell_1_glucose_influx</title>
<polygon fill="none" stroke="black" points="104,-111 90,-111 90,-97 104,-97 104,-111"/>
</g>
<!-- S1_cell_1_glucose_influx_intermediate_p -->
<g id="node61" class="node"><title>S1_cell_1_glucose_influx_intermediate_p</title>
<ellipse fill="black" stroke="black" cx="140" cy="-104" rx="0.036" ry="0.036"/>
</g>
<!-- S1_cell_1_glucose_influx&#45;&gt;S1_cell_1_glucose_influx_intermediate_p -->
<g id="edge61" class="edge"><title>S1_cell_1_glucose_influx&#45;&gt;S1_cell_1_glucose_influx_intermediate_p</title>
<path fill="none" stroke="black" d="M104.05,-104C115.098,-104 137.54,-104 138.932,-104"/>
</g>
<!-- S1_cell_1_glucose_influx_empty -->
<g id="node60" class="node"><title>S1_cell_1_glucose_influx_empty</title>
<text text-anchor="middle" x="27" y="-100.5" font-family="Times,serif" font-size="15.00" fill="blue">Ø</text>
</g>
<!-- S1_cell_1_glucose_influx_empty&#45;&gt;S1_cell_1_glucose_influx -->
<g id="edge60" class="edge"><title>S1_cell_1_glucose_influx_empty&#45;&gt;S1_cell_1_glucose_influx</title>
<path fill="none" stroke="black" d="M54.0961,-104C67.13,-104 81.8045,-104 89.8681,-104"/>
</g>
<!-- S1_cell_1_glucose_influx_intermediate_p&#45;&gt;S1__Cell_1_ -->
<g id="edge62" class="edge"><title>S1_cell_1_glucose_influx_intermediate_p&#45;&gt;S1__Cell_1_</title>
<path fill="none" stroke="black" d="M141.044,-104C142.021,-104 159.004,-104 174.796,-104"/>
<polygon fill="black" stroke="black" points="174.82,-107.5 184.82,-104 174.82,-100.5 174.82,-107.5"/>
</g>
<!-- S1_cell_2_glucose_influx -->
<g id="node62" class="node"><title>S1_cell_2_glucose_influx</title>
<polygon fill="none" stroke="black" points="104,-265 90,-265 90,-251 104,-251 104,-265"/>
</g>
<!-- S1_cell_2_glucose_influx_intermediate_p -->
<g id="node64" class="node"><title>S1_cell_2_glucose_influx_intermediate_p</title>
<ellipse fill="black" stroke="black" cx="140" cy="-258" rx="0.036" ry="0.036"/>
</g>
<!-- S1_cell_2_glucose_influx&#45;&gt;S1_cell_2_glucose_influx_intermediate_p -->
<g id="edge64" class="edge"><title>S1_cell_2_glucose_influx&#45;&gt;S1_cell_2_glucose_influx_intermediate_p</title>
<path fill="none" stroke="black" d="M104.05,-258C115.098,-258 137.54,-258 138.932,-258"/>
</g>
<!-- S1_cell_2_glucose_influx_empty -->
<g id="node63" class="node"><title>S1_cell_2_glucose_influx_empty</title>
<text text-anchor="middle" x="27" y="-254.5" font-family="Times,serif" font-size="15.00" fill="blue">Ø</text>
</g>
<!-- S1_cell_2_glucose_influx_empty&#45;&gt;S1_cell_2_glucose_influx -->
<g id="edge63" class="edge"><title>S1_cell_2_glucose_influx_empty&#45;&gt;S1_cell_2_glucose_influx</title>
<path fill="none" stroke="black" d="M54.0961,-258C67.13,-258 81.8045,-258 89.8681,-258"/>
</g>
<!-- S1_cell_2_glucose_influx_intermediate_p&#45;&gt;S1__Cell_2_ -->
<g id="edge65" class="edge"><title>S1_cell_2_glucose_influx_intermediate_p&#45;&gt;S1__Cell_2_</title>
<path fill="none" stroke="black" d="M141.044,-258C142.021,-258 159.004,-258 174.796,-258"/>
<polygon fill="black" stroke="black" points="174.82,-261.5 184.82,-258 174.82,-254.5 174.82,-261.5"/>
</g>
<!-- S4_cell_1_export -->
<g id="node65" class="node"><title>S4_cell_1_export</title>
<polygon fill="none" stroke="black" points="1012,-84 998,-84 998,-70 1012,-70 1012,-84"/>
</g>
<!-- S4_cell_1_export_empty -->
<g id="node67" class="node"><title>S4_cell_1_export_empty</title>
<text text-anchor="middle" x="1075" y="-73.5" font-family="Times,serif" font-size="15.00" fill="blue">Ø</text>
</g>
<!-- S4_cell_1_export&#45;&gt;S4_cell_1_export_empty -->
<g id="edge68" class="edge"><title>S4_cell_1_export&#45;&gt;S4_cell_1_export_empty</title>
<path fill="none" stroke="black" d="M1012.28,-77C1018.28,-77 1027.85,-77 1037.68,-77"/>
<polygon fill="black" stroke="black" points="1037.88,-80.5001 1047.88,-77 1037.88,-73.5001 1037.88,-80.5001"/>
</g>
<!-- S4_cell_1_export_intermediate_r&#45;&gt;S4_cell_1_export -->
<g id="edge66" class="edge"><title>S4_cell_1_export_intermediate_r&#45;&gt;S4_cell_1_export</title>
<path fill="none" stroke="black" d="M963.118,-77C964.921,-77 987.016,-77 997.95,-77"/>
</g>
<!-- S4_cell_2_export -->
<g id="node68" class="node"><title>S4_cell_2_export</title>
<polygon fill="none" stroke="black" points="1012,-340 998,-340 998,-326 1012,-326 1012,-340"/>
</g>
<!-- S4_cell_2_export_empty -->
<g id="node70" class="node"><title>S4_cell_2_export_empty</title>
<text text-anchor="middle" x="1075" y="-329.5" font-family="Times,serif" font-size="15.00" fill="blue">Ø</text>
</g>
<!-- S4_cell_2_export&#45;&gt;S4_cell_2_export_empty -->
<g id="edge71" class="edge"><title>S4_cell_2_export&#45;&gt;S4_cell_2_export_empty</title>
<path fill="none" stroke="black" d="M1012.28,-333C1018.28,-333 1027.85,-333 1037.68,-333"/>
<polygon fill="black" stroke="black" points="1037.88,-336.5 1047.88,-333 1037.88,-329.5 1037.88,-336.5"/>
</g>
<!-- S4_cell_2_export_intermediate_r&#45;&gt;S4_cell_2_export -->
<g id="edge69" class="edge"><title>S4_cell_2_export_intermediate_r&#45;&gt;S4_cell_2_export</title>
<path fill="none" stroke="black" d="M963.118,-333C964.921,-333 987.016,-333 997.95,-333"/>
</g>
<!-- S4_ex_import -->
<g id="node71" class="node"><title>S4_ex_import</title>
<polygon fill="none" stroke="black" points="104,-451 90,-451 90,-437 104,-437 104,-451"/>
</g>
<!-- S4_ex_import_intermediate_p -->
<g id="node73" class="node"><title>S4_ex_import_intermediate_p</title>
<ellipse fill="black" stroke="black" cx="140" cy="-444" rx="0.036" ry="0.036"/>
</g>
<!-- S4_ex_import&#45;&gt;S4_ex_import_intermediate_p -->
<g id="edge73" class="edge"><title>S4_ex_import&#45;&gt;S4_ex_import_intermediate_p</title>
<path fill="none" stroke="black" d="M104.05,-444C115.098,-444 137.54,-444 138.932,-444"/>
</g>
<!-- S4_ex_import_empty -->
<g id="node72" class="node"><title>S4_ex_import_empty</title>
<text text-anchor="middle" x="27" y="-440.5" font-family="Times,serif" font-size="15.00" fill="blue">Ø</text>
</g>
<!-- S4_ex_import_empty&#45;&gt;S4_ex_import -->
<g id="edge72" class="edge"><title>S4_ex_import_empty&#45;&gt;S4_ex_import</title>
<path fill="none" stroke="black" d="M54.0961,-444C67.13,-444 81.8045,-444 89.8681,-444"/>
</g>
<!-- S4_ex_import_intermediate_p&#45;&gt;S4_ex -->
<g id="edge74" class="edge"><title>S4_ex_import_intermediate_p&#45;&gt;S4_ex</title>
<path fill="none" stroke="black" d="M141.044,-444C141.83,-444 152.976,-444 165.526,-444"/>
<polygon fill="black" stroke="black" points="165.721,-447.5 175.721,-444 165.721,-440.5 165.721,-447.5"/>
</g>
</g>
</svg>
