<?xml version="1.0" encoding="UTF-8" standalone="no"?>
<!DOCTYPE svg PUBLIC "-//W3C//DTD SVG 1.1//EN"
 "http://www.w3.org/Graphics/SVG/1.1/DTD/svg11.dtd">
<!-- Generated by graphviz version 2.24.0 (20090616.2323)
 -->
<!-- Title: G Pages: 1 -->
<svg width="1034pt" height="344pt"
 viewBox="0.00 0.00 1034.00 344.00" xmlns="http://www.w3.org/2000/svg" xmlns:xlink="http://www.w3.org/1999/xlink">
<g id="graph1" class="graph" transform="scale(1 1) rotate(0) translate(4 340)">
<title>G</title>
<polygon fill="white" stroke="white" points="-4,5 -4,-340 1031,-340 1031,5 -4,5"/>
<!-- x1 -->
<g id="node1" class="node"><title>x1</title>
<ellipse fill="none" stroke="black" cx="709" cy="-207" rx="43.8243" ry="18"/>
<text text-anchor="middle" x="709" y="-204.5" font-family="Times Roman,serif" font-size="10.00">Osteoclast</text>
</g>
<!-- R2_intermediate_r -->
<g id="node18" class="node"><title>R2_intermediate_r</title>
<ellipse fill="black" stroke="black" cx="859" cy="-207" rx="0.036" ry="0.036"/>
</g>
<!-- x1&#45;&gt;R2_intermediate_r -->
<g id="edge14" class="edge"><title>x1&#45;&gt;R2_intermediate_r</title>
<path fill="none" stroke="black" d="M763.798,-207C805.923,-207 857.234,-207 858.955,-207"/>
<polygon fill="black" stroke="black" points="763.599,-203.5 753.599,-207 763.599,-210.5 763.599,-203.5"/>
</g>
<!-- R3_intermediate_m -->
<g id="node29" class="node"><title>R3_intermediate_m</title>
<ellipse fill="black" stroke="black" cx="859" cy="-239" rx="0.036" ry="0.036"/>
</g>
<!-- x1&#45;&gt;R3_intermediate_m -->
<g id="edge26" class="edge"><title>x1&#45;&gt;R3_intermediate_m</title>
<path fill="none" stroke="black" d="M748.411,-215.408C792.159,-224.741 856.938,-238.56 858.952,-238.99"/>
</g>
<!-- R5_intermediate_m -->
<g id="node44" class="node"><title>R5_intermediate_m</title>
<ellipse fill="black" stroke="black" cx="859" cy="-114" rx="0.036" ry="0.036"/>
</g>
<!-- x1&#45;&gt;R5_intermediate_m -->
<g id="edge42" class="edge"><title>x1&#45;&gt;R5_intermediate_m</title>
<path fill="none" stroke="black" d="M749.671,-199.505C765.058,-195.398 782.177,-189.202 796,-180 816.748,-166.188 814.451,-154.699 832,-137 842.752,-126.156 858.011,-114.737 858.954,-114.034"/>
</g>
<!-- x2 -->
<g id="node2" class="node"><title>x2</title>
<ellipse fill="none" stroke="black" cx="461" cy="-164" rx="43.8243" ry="18"/>
<text text-anchor="middle" x="461" y="-161.5" font-family="Times Roman,serif" font-size="10.00">Osteoblast</text>
</g>
<!-- R1_intermediate_m -->
<g id="node14" class="node"><title>R1_intermediate_m</title>
<ellipse fill="black" stroke="black" cx="585" cy="-185" rx="0.036" ry="0.036"/>
</g>
<!-- x2&#45;&gt;R1_intermediate_m -->
<g id="edge10" class="edge"><title>x2&#45;&gt;R1_intermediate_m</title>
<path fill="none" stroke="black" d="M502.29,-170.993C537.235,-176.911 582.095,-184.508 584.865,-184.977"/>
</g>
<!-- R4_intermediate_r -->
<g id="node33" class="node"><title>R4_intermediate_r</title>
<ellipse fill="black" stroke="black" cx="585" cy="-164" rx="0.036" ry="0.036"/>
</g>
<!-- x2&#45;&gt;R4_intermediate_r -->
<g id="edge30" class="edge"><title>x2&#45;&gt;R4_intermediate_r</title>
<path fill="none" stroke="black" d="M516.024,-164C548.021,-164 582.53,-164 584.874,-164"/>
<polygon fill="black" stroke="black" points="515.767,-160.5 505.767,-164 515.767,-167.5 515.767,-160.5"/>
</g>
<!-- R6_intermediate_m -->
<g id="node54" class="node"><title>R6_intermediate_m</title>
<ellipse fill="black" stroke="black" cx="585" cy="-110" rx="0.036" ry="0.036"/>
</g>
<!-- x2&#45;&gt;R6_intermediate_m -->
<g id="edge54" class="edge"><title>x2&#45;&gt;R6_intermediate_m</title>
<path fill="none" stroke="black" d="M499.743,-154.929C515.201,-150.562 532.88,-144.598 548,-137 565.621,-128.145 583.825,-111.108 584.945,-110.052"/>
</g>
<!-- x1_bar -->
<g id="node3" class="node"><title>x1_bar</title>
<ellipse fill="none" stroke="black" cx="709" cy="-114" rx="86.7978" ry="18"/>
<text text-anchor="middle" x="709" y="-111.5" font-family="Times Roman,serif" font-size="10.00">Steady state osteoclast</text>
</g>
<!-- x1_bar&#45;&gt;R5_intermediate_m -->
<g id="edge44" class="edge"><title>x1_bar&#45;&gt;R5_intermediate_m</title>
<path fill="none" stroke="black" d="M796.256,-114C828.223,-114 857.138,-114 858.914,-114"/>
</g>
<!-- x2_bar -->
<g id="node4" class="node"><title>x2_bar</title>
<ellipse fill="none" stroke="black" cx="461" cy="-110" rx="86.7978" ry="18"/>
<text text-anchor="middle" x="461" y="-107.5" font-family="Times Roman,serif" font-size="10.00">Steady state osteoblast</text>
</g>
<!-- x2_bar&#45;&gt;R6_intermediate_m -->
<g id="edge56" class="edge"><title>x2_bar&#45;&gt;R6_intermediate_m</title>
<path fill="none" stroke="black" d="M548.132,-110C568.165,-110 583.984,-110 584.953,-110"/>
</g>
<!-- z -->
<g id="node5" class="node"><title>z</title>
<ellipse fill="none" stroke="black" cx="461" cy="-18" rx="43.8243" ry="18"/>
<text text-anchor="middle" x="461" y="-15.5" font-family="Times Roman,serif" font-size="10.00">Bone mass</text>
</g>
<!-- R5_intermediate_r -->
<g id="node39" class="node"><title>R5_intermediate_r</title>
<ellipse fill="black" stroke="black" cx="585" cy="-26" rx="0.036" ry="0.036"/>
</g>
<!-- z&#45;&gt;R5_intermediate_r -->
<g id="edge36" class="edge"><title>z&#45;&gt;R5_intermediate_r</title>
<path fill="none" stroke="black" d="M515.37,-21.5077C547.542,-23.5834 582.497,-25.8385 584.872,-25.9917"/>
<polygon fill="black" stroke="black" points="515.272,-17.9942 505.067,-20.843 514.821,-24.9797 515.272,-17.9942"/>
</g>
<!-- y1 -->
<g id="node6" class="node"><title>y1</title>
<ellipse fill="none" stroke="black" cx="99" cy="-264" rx="97.994" ry="18"/>
<text text-anchor="middle" x="99" y="-261.5" font-family="Times Roman,serif" font-size="10.00">Cells actively resorbing bone</text>
</g>
<!-- y2 -->
<g id="node7" class="node"><title>y2</title>
<ellipse fill="none" stroke="black" cx="99" cy="-318" rx="93.0689" ry="18"/>
<text text-anchor="middle" x="99" y="-315.5" font-family="Times Roman,serif" font-size="10.00">Cells actively forming bone</text>
</g>
<!-- R1 -->
<g id="node8" class="node"><title>R1</title>
<polygon fill="none" stroke="black" points="468,-214 454,-214 454,-200 468,-200 468,-214"/>
</g>
<!-- R1_intermediate_p -->
<g id="node11" class="node"><title>R1_intermediate_p</title>
<ellipse fill="black" stroke="black" cx="585" cy="-207" rx="0.036" ry="0.036"/>
</g>
<!-- R1&#45;&gt;R1_intermediate_p -->
<g id="edge4" class="edge"><title>R1&#45;&gt;R1_intermediate_p</title>
<path fill="none" stroke="black" d="M468.022,-207C493.844,-207 582.18,-207 584.934,-207"/>
</g>
<!-- R1&#45;&gt;R1_intermediate_m -->
<g id="edge8" class="edge"><title>R1&#45;&gt;R1_intermediate_m</title>
<path fill="none" stroke="black" d="M479.89,-203.649C513.983,-197.6 582.513,-185.441 584.934,-185.012"/>
<polygon fill="none" stroke="black" points="479.838,-203.658 474.629,-208.644 468.022,-205.754 473.231,-200.767 479.838,-203.658"/>
</g>
<!-- R1_empty -->
<g id="node9" class="node"><title>R1_empty</title>
<text text-anchor="middle" x="311" y="-202.5" font-family="Times Roman,serif" font-size="15.00" fill="blue">Ø</text>
</g>
<!-- R1_empty&#45;&gt;R1 -->
<g id="edge2" class="edge"><title>R1_empty&#45;&gt;R1</title>
<path fill="none" stroke="black" d="M338.164,-207C373.623,-207 433.565,-207 453.962,-207"/>
</g>
<!-- R1_intermediate_p&#45;&gt;x1 -->
<g id="edge6" class="edge"><title>R1_intermediate_p&#45;&gt;x1</title>
<path fill="none" stroke="black" d="M585.09,-207C587.082,-207 621.83,-207 654.02,-207"/>
<polygon fill="black" stroke="black" points="654.337,-210.5 664.337,-207 654.337,-203.5 654.337,-210.5"/>
</g>
<!-- R2 -->
<g id="node17" class="node"><title>R2</title>
<polygon fill="none" stroke="black" points="936,-214 922,-214 922,-200 936,-200 936,-214"/>
</g>
<!-- R2_empty -->
<g id="node21" class="node"><title>R2_empty</title>
<text text-anchor="middle" x="999" y="-202.5" font-family="Times Roman,serif" font-size="15.00" fill="blue">Ø</text>
</g>
<!-- R2&#45;&gt;R2_empty -->
<g id="edge16" class="edge"><title>R2&#45;&gt;R2_empty</title>
<path fill="none" stroke="black" d="M936.228,-207C942.45,-207 951.94,-207 961.672,-207"/>
<polygon fill="black" stroke="black" points="961.773,-210.5 971.773,-207 961.773,-203.5 961.773,-210.5"/>
</g>
<!-- R2_intermediate_r&#45;&gt;R2 -->
<g id="edge12" class="edge"><title>R2_intermediate_r&#45;&gt;R2</title>
<path fill="none" stroke="black" d="M859.051,-207C860.748,-207 904.582,-207 921.98,-207"/>
</g>
<!-- R3 -->
<g id="node23" class="node"><title>R3</title>
<polygon fill="none" stroke="black" points="248,-217 234,-217 234,-203 248,-203 248,-217"/>
</g>
<!-- R3_intermediate_p -->
<g id="node26" class="node"><title>R3_intermediate_p</title>
<ellipse fill="black" stroke="black" cx="311" cy="-167" rx="0.036" ry="0.036"/>
</g>
<!-- R3&#45;&gt;R3_intermediate_p -->
<g id="edge20" class="edge"><title>R3&#45;&gt;R3_intermediate_p</title>
<path fill="none" stroke="black" d="M248.07,-204.538C256.405,-198.225 270.797,-187.717 284,-180 295.139,-173.489 310.035,-167.393 310.955,-167.018"/>
</g>
<!-- R3&#45;&gt;R3_intermediate_m -->
<g id="edge24" class="edge"><title>R3&#45;&gt;R3_intermediate_m</title>
<path fill="none" stroke="black" d="M258.481,-221.866C266.017,-226.41 275.125,-231.177 284,-234 359.395,-257.985 381.881,-253 461,-253 461,-253 461,-253 585,-253 705.031,-253 854.255,-239.434 858.889,-239.01"/>
<polygon fill="none" stroke="black" points="258.272,-221.73 251.061,-221.834 248.192,-215.218 255.403,-215.115 258.272,-221.73"/>
</g>
<!-- R3_empty -->
<g id="node24" class="node"><title>R3_empty</title>
<text text-anchor="middle" x="99" y="-205.5" font-family="Times Roman,serif" font-size="15.00" fill="blue">Ø</text>
</g>
<!-- R3_empty&#45;&gt;R3 -->
<g id="edge18" class="edge"><title>R3_empty&#45;&gt;R3</title>
<path fill="none" stroke="black" d="M126.043,-210C159.518,-210 214.486,-210 233.922,-210"/>
</g>
<!-- R3_intermediate_p&#45;&gt;x2 -->
<g id="edge22" class="edge"><title>R3_intermediate_p&#45;&gt;x2</title>
<path fill="none" stroke="black" d="M311.109,-166.998C313.764,-166.945 364.543,-165.929 406.271,-165.095"/>
<polygon fill="black" stroke="black" points="406.448,-168.592 416.376,-164.892 406.308,-161.593 406.448,-168.592"/>
</g>
<!-- R4 -->
<g id="node32" class="node"><title>R4</title>
<polygon fill="none" stroke="black" points="716,-171 702,-171 702,-157 716,-157 716,-171"/>
</g>
<!-- R4_empty -->
<g id="node36" class="node"><title>R4_empty</title>
<text text-anchor="middle" x="859" y="-159.5" font-family="Times Roman,serif" font-size="15.00" fill="blue">Ø</text>
</g>
<!-- R4&#45;&gt;R4_empty -->
<g id="edge32" class="edge"><title>R4&#45;&gt;R4_empty</title>
<path fill="none" stroke="black" d="M716.235,-164C734.984,-164 786.167,-164 821.854,-164"/>
<polygon fill="black" stroke="black" points="821.923,-167.5 831.923,-164 821.923,-160.5 821.923,-167.5"/>
</g>
<!-- R4_intermediate_r&#45;&gt;R4 -->
<g id="edge28" class="edge"><title>R4_intermediate_r&#45;&gt;R4</title>
<path fill="none" stroke="black" d="M585.09,-164C588.287,-164 675.894,-164 701.831,-164"/>
</g>
<!-- R5 -->
<g id="node38" class="node"><title>R5</title>
<polygon fill="none" stroke="black" points="716,-63 702,-63 702,-49 716,-49 716,-63"/>
</g>
<!-- R5_empty -->
<g id="node42" class="node"><title>R5_empty</title>
<text text-anchor="middle" x="859" y="-51.5" font-family="Times Roman,serif" font-size="15.00" fill="blue">Ø</text>
</g>
<!-- R5&#45;&gt;R5_empty -->
<g id="edge38" class="edge"><title>R5&#45;&gt;R5_empty</title>
<path fill="none" stroke="black" d="M716.235,-56C734.984,-56 786.167,-56 821.854,-56"/>
<polygon fill="black" stroke="black" points="821.923,-59.5001 831.923,-56 821.923,-52.5001 821.923,-59.5001"/>
</g>
<!-- R5&#45;&gt;R5_intermediate_m -->
<g id="edge40" class="edge"><title>R5&#45;&gt;R5_intermediate_m</title>
<path fill="none" stroke="black" d="M727.73,-62.2945C745.434,-68.3336 772.684,-77.86 796,-87 823.475,-97.7705 856.841,-113.012 858.9,-113.954"/>
<polygon fill="none" stroke="black" points="727.643,-62.265 720.677,-64.1318 716.275,-58.4202 723.24,-56.5535 727.643,-62.265"/>
</g>
<!-- R5_intermediate_r&#45;&gt;R5 -->
<g id="edge34" class="edge"><title>R5_intermediate_r&#45;&gt;R5</title>
<path fill="none" stroke="black" d="M585.09,-26.0217C588.287,-26.7953 675.894,-47.9904 701.831,-54.2656"/>
</g>
<!-- R6 -->
<g id="node48" class="node"><title>R6</title>
<polygon fill="none" stroke="black" points="248,-57 234,-57 234,-43 248,-43 248,-57"/>
</g>
<!-- R6_intermediate_p -->
<g id="node51" class="node"><title>R6_intermediate_p</title>
<ellipse fill="black" stroke="black" cx="311" cy="-27" rx="0.036" ry="0.036"/>
</g>
<!-- R6&#45;&gt;R6_intermediate_p -->
<g id="edge48" class="edge"><title>R6&#45;&gt;R6_intermediate_p</title>
<path fill="none" stroke="black" d="M248.228,-47.6252C265.554,-41.9324 308.221,-27.9131 310.871,-27.0425"/>
</g>
<!-- R6&#45;&gt;R6_intermediate_m -->
<g id="edge52" class="edge"><title>R6&#45;&gt;R6_intermediate_m</title>
<path fill="none" stroke="black" d="M259.99,-48.718C309.377,-46.0754 445.147,-43.2562 548,-83 566.396,-90.1083 583.873,-108.783 584.948,-109.943"/>
<polygon fill="none" stroke="black" points="259.982,-48.7184 254.238,-53.0788 248.004,-49.4543 253.748,-45.0939 259.982,-48.7184"/>
</g>
<!-- R6_empty -->
<g id="node49" class="node"><title>R6_empty</title>
<text text-anchor="middle" x="99" y="-45.5" font-family="Times Roman,serif" font-size="15.00" fill="blue">Ø</text>
</g>
<!-- R6_empty&#45;&gt;R6 -->
<g id="edge46" class="edge"><title>R6_empty&#45;&gt;R6</title>
<path fill="none" stroke="black" d="M126.043,-50C159.518,-50 214.486,-50 233.922,-50"/>
</g>
<!-- R6_intermediate_p&#45;&gt;z -->
<g id="edge50" class="edge"><title>R6_intermediate_p&#45;&gt;z</title>
<path fill="none" stroke="black" d="M311.109,-26.9935C313.772,-26.8337 364.857,-23.7686 406.657,-21.2606"/>
<polygon fill="black" stroke="black" points="407.002,-24.7462 416.775,-20.6535 406.583,-17.7588 407.002,-24.7462"/>
</g>
</g>
</svg>
