<?xml version="1.0" encoding="UTF-8" standalone="no"?>
<!DOCTYPE svg PUBLIC "-//W3C//DTD SVG 1.1//EN"
 "http://www.w3.org/Graphics/SVG/1.1/DTD/svg11.dtd">
<!-- Generated by graphviz version 2.30.1 (20140821.0912)
 -->
<!-- Title: G Pages: 1 -->
<svg width="1118pt" height="509pt"
 viewBox="0.00 0.00 1118.00 509.00" xmlns="http://www.w3.org/2000/svg" xmlns:xlink="http://www.w3.org/1999/xlink">
<g id="graph0" class="graph" transform="scale(1 1) rotate(0) translate(4 505)">
<title>G</title>
<polygon fill="white" stroke="white" points="-4,5 -4,-505 1115,-505 1115,5 -4,5"/>
<!-- CycE -->
<g id="CycE" class="node"><title>CycE</title>
<path fill="none" stroke="black" d="M272,-308C272,-308 242,-308 242,-308 236,-308 230,-302 230,-296 230,-296 230,-284 230,-284 230,-278 236,-272 242,-272 242,-272 272,-272 272,-272 278,-272 284,-278 284,-284 284,-284 284,-296 284,-296 284,-302 278,-308 272,-308"/>
<text text-anchor="middle" x="257" y="-287.5" font-family="Times,serif" font-size="10.00">CycE</text>
</g>
<!-- vb6_intermediate_r -->
<g id="node14" class="node"><title>vb6_intermediate_r</title>
<ellipse fill="black" stroke="black" cx="321" cy="-391" rx="0.036" ry="0.036"/>
</g>
<!-- CycE&#45;&gt;vb6_intermediate_r -->
<g id="edge5" class="edge"><title>CycE&#45;&gt;vb6_intermediate_r</title>
<path fill="none" stroke="black" d="M276.991,-308.219C279.496,-311.04 281.913,-314.012 284,-317 304.287,-346.048 319.053,-388.263 319.956,-390.873"/>
</g>
<!-- vb6_intermediate_m -->
<g id="node16" class="node"><title>vb6_intermediate_m</title>
<ellipse fill="black" stroke="black" cx="435" cy="-360" rx="0.036" ry="0.036"/>
</g>
<!-- CycE&#45;&gt;vb6_intermediate_m -->
<g id="edge8" class="edge"><title>CycE&#45;&gt;vb6_intermediate_m</title>
<path fill="none" stroke="black" d="M284.35,-303.222C304.292,-312.956 332.508,-326.156 358,-336 390.011,-348.361 431.325,-359.296 433.876,-359.967"/>
</g>
<!-- vb7_intermediate_r -->
<g id="node25" class="node"><title>vb7_intermediate_r</title>
<ellipse fill="black" stroke="black" cx="321" cy="-290" rx="0.036" ry="0.036"/>
</g>
<!-- CycE&#45;&gt;vb7_intermediate_r -->
<g id="edge18" class="edge"><title>CycE&#45;&gt;vb7_intermediate_r</title>
<path fill="none" stroke="black" d="M284.294,-290C300.664,-290 318.826,-290 319.946,-290"/>
</g>
<!-- vb7_intermediate_m -->
<g id="node27" class="node"><title>vb7_intermediate_m</title>
<ellipse fill="black" stroke="black" cx="943" cy="-38" rx="0.036" ry="0.036"/>
</g>
<!-- CycE&#45;&gt;vb7_intermediate_m -->
<g id="edge23" class="edge"><title>CycE&#45;&gt;vb7_intermediate_m</title>
<path fill="none" stroke="black" d="M260.581,-271.859C270.116,-208.371 305.838,-0 364,-0 364,-0 364,-0 778,-0 851.651,-0 939.217,-36.8218 941.935,-37.9725"/>
</g>
<!-- Cdk2 -->
<g id="Cdk2" class="node"><title>Cdk2</title>
<path fill="none" stroke="black" d="M862,-276C862,-276 832,-276 832,-276 826,-276 820,-270 820,-264 820,-264 820,-252 820,-252 820,-246 826,-240 832,-240 832,-240 862,-240 862,-240 868,-240 874,-246 874,-252 874,-252 874,-264 874,-264 874,-270 868,-276 862,-276"/>
<text text-anchor="middle" x="847" y="-255.5" font-family="Times,serif" font-size="10.00">Cdk2</text>
</g>
<!-- vb4_intermediate_r -->
<g id="node21" class="node"><title>vb4_intermediate_r</title>
<ellipse fill="black" stroke="black" cx="943" cy="-230" rx="0.036" ry="0.036"/>
</g>
<!-- Cdk2&#45;&gt;vb4_intermediate_r -->
<g id="edge13" class="edge"><title>Cdk2&#45;&gt;vb4_intermediate_r</title>
<path fill="none" stroke="black" d="M874.184,-250.2C901.129,-242.174 939.512,-230.741 941.884,-230.034"/>
</g>
<!-- vb4_intermediate_m -->
<g id="node23" class="node"><title>vb4_intermediate_m</title>
<ellipse fill="black" stroke="black" cx="1083" cy="-261" rx="0.036" ry="0.036"/>
</g>
<!-- Cdk2&#45;&gt;vb4_intermediate_m -->
<g id="edge16" class="edge"><title>Cdk2&#45;&gt;vb4_intermediate_m</title>
<path fill="none" stroke="black" d="M874.388,-258.338C934.629,-259.111 1077.45,-260.942 1081.89,-260.999"/>
</g>
<!-- Cdk2&#45;&gt;vb7_intermediate_r -->
<g id="edge19" class="edge"><title>Cdk2&#45;&gt;vb7_intermediate_r</title>
<path fill="none" stroke="black" d="M819.867,-275.494C799.177,-288.281 769.025,-304.626 740,-312 561.102,-357.45 325.71,-291.053 322.043,-290.012"/>
</g>
<!-- Cdk2&#45;&gt;vb7_intermediate_m -->
<g id="edge24" class="edge"><title>Cdk2&#45;&gt;vb7_intermediate_m</title>
<path fill="none" stroke="black" d="M855.692,-239.996C877.792,-188.275 940.015,-42.6468 941.954,-38.1085"/>
</g>
<!-- CycECdk2 -->
<g id="CycECdk2" class="node"><title>CycECdk2</title>
<path fill="none" stroke="black" d="M548,-174C548,-174 510,-174 510,-174 504,-174 498,-168 498,-162 498,-162 498,-150 498,-150 498,-144 504,-138 510,-138 510,-138 548,-138 548,-138 554,-138 560,-144 560,-150 560,-150 560,-162 560,-162 560,-168 554,-174 548,-174"/>
<text text-anchor="middle" x="529" y="-153.5" font-family="Times,serif" font-size="10.00">CycECdk2</text>
</g>
<!-- vb8_intermediate_r -->
<g id="node29" class="node"><title>vb8_intermediate_r</title>
<ellipse fill="black" stroke="black" cx="623" cy="-221" rx="0.036" ry="0.036"/>
</g>
<!-- CycECdk2&#45;&gt;vb8_intermediate_r -->
<g id="edge26" class="edge"><title>CycECdk2&#45;&gt;vb8_intermediate_r</title>
<path fill="none" stroke="black" d="M553.468,-174.198C565.918,-183.653 581.583,-195.239 596,-205 606.533,-212.131 620.168,-219.954 621.831,-220.904"/>
</g>
<!-- vb8_intermediate_m -->
<g id="node31" class="node"><title>vb8_intermediate_m</title>
<ellipse fill="black" stroke="black" cx="777" cy="-234" rx="0.036" ry="0.036"/>
</g>
<!-- CycECdk2&#45;&gt;vb8_intermediate_m -->
<g id="edge31" class="edge"><title>CycECdk2&#45;&gt;vb8_intermediate_m</title>
<path fill="none" stroke="black" d="M560.27,-160.494C602.059,-167.423 679.156,-182.84 740,-210 757.011,-217.593 774.848,-232.998 775.947,-233.953"/>
</g>
<!-- vb1_intermediate_r -->
<g id="node33" class="node"><title>vb1_intermediate_r</title>
<ellipse fill="black" stroke="black" cx="623" cy="-156" rx="0.036" ry="0.036"/>
</g>
<!-- CycECdk2&#45;&gt;vb1_intermediate_r -->
<g id="edge33" class="edge"><title>CycECdk2&#45;&gt;vb1_intermediate_r</title>
<path fill="none" stroke="black" d="M560.124,-156C586.117,-156 619.818,-156 621.899,-156"/>
</g>
<!-- vb1_intermediate_m -->
<g id="node35" class="node"><title>vb1_intermediate_m</title>
<ellipse fill="black" stroke="black" cx="943" cy="-206" rx="0.036" ry="0.036"/>
</g>
<!-- CycECdk2&#45;&gt;vb1_intermediate_m -->
<g id="edge38" class="edge"><title>CycECdk2&#45;&gt;vb1_intermediate_m</title>
<path fill="none" stroke="black" d="M560.306,-149.265C607.574,-139.955 701.38,-126.298 778,-145 852.369,-163.153 939.239,-204.676 941.936,-205.969"/>
</g>
<!-- CycECdk2a -->
<g id="CycECdk2a" class="node"><title>CycECdk2a</title>
<path fill="none" stroke="black" d="M868,-140C868,-140 826,-140 826,-140 820,-140 814,-134 814,-128 814,-128 814,-116 814,-116 814,-110 820,-104 826,-104 826,-104 868,-104 868,-104 874,-104 880,-110 880,-116 880,-116 880,-128 880,-128 880,-134 874,-140 868,-140"/>
<text text-anchor="middle" x="847" y="-119.5" font-family="Times,serif" font-size="10.00">CycECdk2a</text>
</g>
<!-- CycECdk2a&#45;&gt;vb1_intermediate_m -->
<g id="edge40" class="edge"><title>CycECdk2a&#45;&gt;vb1_intermediate_m</title>
<path fill="none" stroke="black" d="M868.397,-140.227C895.179,-164.16 939.146,-203.449 941.867,-205.881"/>
</g>
<!-- vb2_intermediate_r -->
<g id="node37" class="node"><title>vb2_intermediate_r</title>
<ellipse fill="black" stroke="black" cx="943" cy="-115" rx="0.036" ry="0.036"/>
</g>
<!-- CycECdk2a&#45;&gt;vb2_intermediate_r -->
<g id="edge42" class="edge"><title>CycECdk2a&#45;&gt;vb2_intermediate_r</title>
<path fill="none" stroke="black" d="M880.087,-119.611C906.467,-117.646 939.84,-115.161 941.9,-115.007"/>
</g>
<!-- vb2_intermediate_m -->
<g id="node39" class="node"><title>vb2_intermediate_m</title>
<ellipse fill="black" stroke="black" cx="1083" cy="-138" rx="0.036" ry="0.036"/>
</g>
<!-- CycECdk2a&#45;&gt;vb2_intermediate_m -->
<g id="edge46" class="edge"><title>CycECdk2a&#45;&gt;vb2_intermediate_m</title>
<path fill="none" stroke="black" d="M880.046,-124.191C943.131,-128.505 1077.71,-137.707 1081.9,-137.993"/>
</g>
<!-- p21 -->
<g id="p21" class="node"><title>p21</title>
<path fill="none" stroke="black" d="M862,-330C862,-330 832,-330 832,-330 826,-330 820,-324 820,-318 820,-318 820,-306 820,-306 820,-300 826,-294 832,-294 832,-294 862,-294 862,-294 868,-294 874,-300 874,-306 874,-306 874,-318 874,-318 874,-324 868,-330 862,-330"/>
<text text-anchor="middle" x="847" y="-309.5" font-family="Times,serif" font-size="10.00">p21</text>
</g>
<!-- p21&#45;&gt;vb1_intermediate_m -->
<g id="edge37" class="edge"><title>p21&#45;&gt;vb1_intermediate_m</title>
<path fill="none" stroke="black" d="M861.739,-293.982C867.794,-288.437 874.718,-282.385 880,-276 900.803,-250.854 893.049,-235.202 916,-212 925.235,-202.664 941.482,-197.173 941.988,-205.589"/>
</g>
<!-- p21&#45;&gt;vb1_intermediate_m -->
<g id="edge39" class="edge"><title>p21&#45;&gt;vb1_intermediate_m</title>
<path fill="none" stroke="black" d="M874.264,-300.209C876.296,-298.22 878.239,-296.128 880,-294 900.803,-268.854 893.049,-253.202 916,-230 925.235,-220.664 941.482,-215.173 941.988,-206.419"/>
</g>
<!-- va6_intermediate_r -->
<g id="node57" class="node"><title>va6_intermediate_r</title>
<ellipse fill="black" stroke="black" cx="943" cy="-308" rx="0.036" ry="0.036"/>
</g>
<!-- p21&#45;&gt;va6_intermediate_r -->
<g id="edge70" class="edge"><title>p21&#45;&gt;va6_intermediate_r</title>
<path fill="none" stroke="black" d="M874.184,-310.886C901.129,-309.739 939.512,-308.106 941.884,-308.005"/>
</g>
<!-- va6_intermediate_m -->
<g id="node59" class="node"><title>va6_intermediate_m</title>
<ellipse fill="black" stroke="black" cx="1083" cy="-340" rx="0.036" ry="0.036"/>
</g>
<!-- p21&#45;&gt;va6_intermediate_m -->
<g id="edge73" class="edge"><title>p21&#45;&gt;va6_intermediate_m</title>
<path fill="none" stroke="black" d="M874.388,-315.158C934.629,-322.366 1077.45,-339.455 1081.89,-339.987"/>
</g>
<!-- DNADamageC -->
<g id="DNADamageC" class="node"><title>DNADamageC</title>
<ellipse fill="none" stroke="black" cx="47" cy="-350" rx="47.1863" ry="18"/>
<text text-anchor="middle" x="47" y="-347.5" font-family="Times,serif" font-size="10.00">DNADamageC</text>
</g>
<!-- va2_intermediate_r -->
<g id="node45" class="node"><title>va2_intermediate_r</title>
<ellipse fill="black" stroke="black" cx="137" cy="-358" rx="0.036" ry="0.036"/>
</g>
<!-- DNADamageC&#45;&gt;va2_intermediate_r -->
<g id="edge54" class="edge"><title>DNADamageC&#45;&gt;va2_intermediate_r</title>
<path fill="none" stroke="black" d="M93.0312,-354.094C114.006,-356.001 134.667,-357.879 135.938,-357.994"/>
</g>
<!-- va2_intermediate_m -->
<g id="node47" class="node"><title>va2_intermediate_m</title>
<ellipse fill="black" stroke="black" cx="257" cy="-326" rx="0.036" ry="0.036"/>
</g>
<!-- DNADamageC&#45;&gt;va2_intermediate_m -->
<g id="edge57" class="edge"><title>DNADamageC&#45;&gt;va2_intermediate_m</title>
<path fill="none" stroke="black" d="M92.3661,-344.881C152.499,-337.942 252.806,-326.369 255.925,-326.009"/>
</g>
<!-- DNADamageS -->
<g id="DNADamageS" class="node"><title>DNADamageS</title>
<ellipse fill="none" stroke="black" cx="47" cy="-409" rx="45.8316" ry="18"/>
<text text-anchor="middle" x="47" y="-406.5" font-family="Times,serif" font-size="10.00">DNADamageS</text>
</g>
<!-- va1_intermediate_r -->
<g id="node49" class="node"><title>va1_intermediate_r</title>
<ellipse fill="black" stroke="black" cx="137" cy="-432" rx="0.036" ry="0.036"/>
</g>
<!-- DNADamageS&#45;&gt;va1_intermediate_r -->
<g id="edge59" class="edge"><title>DNADamageS&#45;&gt;va1_intermediate_r</title>
<path fill="none" stroke="black" d="M85.5752,-418.821C108.746,-424.877 134.346,-431.568 135.923,-431.98"/>
</g>
<!-- va1_intermediate_m -->
<g id="node51" class="node"><title>va1_intermediate_m</title>
<ellipse fill="black" stroke="black" cx="257" cy="-401" rx="0.036" ry="0.036"/>
</g>
<!-- DNADamageS&#45;&gt;va1_intermediate_m -->
<g id="edge62" class="edge"><title>DNADamageS&#45;&gt;va1_intermediate_m</title>
<path fill="none" stroke="black" d="M92.8768,-407.274C153.068,-404.959 252.823,-401.122 255.926,-401.003"/>
</g>
<!-- DDR -->
<g id="DDR" class="node"><title>DDR</title>
<ellipse fill="none" stroke="black" cx="529" cy="-483" rx="27" ry="18"/>
<text text-anchor="middle" x="529" y="-480.5" font-family="Times,serif" font-size="10.00">DDR</text>
</g>
<!-- va3_intermediate_m -->
<g id="node43" class="node"><title>va3_intermediate_m</title>
<ellipse fill="black" stroke="black" cx="623" cy="-483" rx="0.036" ry="0.036"/>
</g>
<!-- DDR&#45;&gt;va3_intermediate_m -->
<g id="edge51" class="edge"><title>DDR&#45;&gt;va3_intermediate_m</title>
<path fill="none" stroke="black" d="M554.654,-476.943C581.48,-475.069 620.75,-476.996 621.971,-482.724"/>
</g>
<!-- DDR&#45;&gt;va3_intermediate_m -->
<g id="edge52" class="edge"><title>DDR&#45;&gt;va3_intermediate_m</title>
<path fill="none" stroke="black" d="M554.654,-489.057C581.48,-490.931 620.75,-489.004 621.971,-483.276"/>
</g>
<!-- p53 -->
<g id="p53" class="node"><title>p53</title>
<path fill="none" stroke="black" d="M728,-452C728,-452 698,-452 698,-452 692,-452 686,-446 686,-440 686,-440 686,-428 686,-428 686,-422 692,-416 698,-416 698,-416 728,-416 728,-416 734,-416 740,-422 740,-428 740,-428 740,-440 740,-440 740,-446 734,-452 728,-452"/>
<text text-anchor="middle" x="713" y="-431.5" font-family="Times,serif" font-size="10.00">p53</text>
</g>
<!-- va5_intermediate_m -->
<g id="node55" class="node"><title>va5_intermediate_m</title>
<ellipse fill="black" stroke="black" cx="777" cy="-406" rx="0.036" ry="0.036"/>
</g>
<!-- p53&#45;&gt;va5_intermediate_m -->
<g id="edge67" class="edge"><title>p53&#45;&gt;va5_intermediate_m</title>
<path fill="none" stroke="black" d="M739.218,-415.967C755.846,-407.844 774.776,-401.354 775.943,-405.559"/>
</g>
<!-- p53&#45;&gt;va5_intermediate_m -->
<g id="edge68" class="edge"><title>p53&#45;&gt;va5_intermediate_m</title>
<path fill="none" stroke="black" d="M740.294,-428.806C756.928,-421.789 775.413,-411.291 775.986,-406.237"/>
</g>
<!-- va4_intermediate_r -->
<g id="node61" class="node"><title>va4_intermediate_r</title>
<ellipse fill="black" stroke="black" cx="777" cy="-466" rx="0.036" ry="0.036"/>
</g>
<!-- p53&#45;&gt;va4_intermediate_r -->
<g id="edge75" class="edge"><title>p53&#45;&gt;va4_intermediate_r</title>
<path fill="none" stroke="black" d="M740.294,-447.571C756.664,-456.02 774.826,-465.394 775.946,-465.972"/>
</g>
<!-- va4_intermediate_m -->
<g id="node63" class="node"><title>va4_intermediate_m</title>
<ellipse fill="black" stroke="black" cx="943" cy="-434" rx="0.036" ry="0.036"/>
</g>
<!-- p53&#45;&gt;va4_intermediate_m -->
<g id="edge78" class="edge"><title>p53&#45;&gt;va4_intermediate_m</title>
<path fill="none" stroke="black" d="M740.154,-434C799.107,-434 937.584,-434 941.897,-434"/>
</g>
<!-- vb5 -->
<g id="node10" class="node"><title>vb5</title>
<polygon fill="none" stroke="black" points="144,-297 130,-297 130,-283 144,-283 144,-297"/>
</g>
<!-- vb5_intermediate_p -->
<g id="node12" class="node"><title>vb5_intermediate_p</title>
<ellipse fill="black" stroke="black" cx="187" cy="-290" rx="0.036" ry="0.036"/>
</g>
<!-- vb5&#45;&gt;vb5_intermediate_p -->
<g id="edge2" class="edge"><title>vb5&#45;&gt;vb5_intermediate_p</title>
<path fill="none" stroke="black" d="M144.275,-290C156.88,-290 184.221,-290 185.917,-290"/>
</g>
<!-- vb5_empty -->
<g id="node11" class="node"><title>vb5_empty</title>
<text text-anchor="middle" x="47" y="-286.5" font-family="Times,serif" font-size="15.00" fill="blue">Ø</text>
</g>
<!-- vb5_empty&#45;&gt;vb5 -->
<g id="edge1" class="edge"><title>vb5_empty&#45;&gt;vb5</title>
<path fill="none" stroke="black" d="M74.4029,-290C93.6411,-290 118.253,-290 129.665,-290"/>
</g>
<!-- vb5_intermediate_p&#45;&gt;CycE -->
<g id="edge3" class="edge"><title>vb5_intermediate_p&#45;&gt;CycE</title>
<path fill="none" stroke="black" d="M188.049,-290C189.013,-290 203.947,-290 219.569,-290"/>
<polygon fill="black" stroke="black" points="219.795,-293.5 229.795,-290 219.795,-286.5 219.795,-293.5"/>
</g>
<!-- vb6 -->
<g id="node13" class="node"><title>vb6</title>
<polygon fill="none" stroke="black" points="372,-402 358,-402 358,-388 372,-388 372,-402"/>
</g>
<!-- vb6_empty -->
<g id="node15" class="node"><title>vb6_empty</title>
<text text-anchor="middle" x="435" y="-392.5" font-family="Times,serif" font-size="15.00" fill="blue">Ø</text>
</g>
<!-- vb6&#45;&gt;vb6_empty -->
<g id="edge6" class="edge"><title>vb6&#45;&gt;vb6_empty</title>
<path fill="none" stroke="black" d="M372.275,-395.092C378.278,-395.181 387.849,-395.321 397.68,-395.466"/>
<polygon fill="black" stroke="black" points="397.829,-398.968 407.88,-395.616 397.932,-391.969 397.829,-398.968"/>
</g>
<!-- vb6&#45;&gt;vb6_intermediate_m -->
<g id="edge7" class="edge"><title>vb6&#45;&gt;vb6_intermediate_m</title>
<path fill="none" stroke="black" d="M372.019,-390.678C379.964,-385.116 394.524,-375.407 408,-369 418.354,-364.078 432.146,-360.475 433.829,-360.043"/>
</g>
<!-- vb6_intermediate_r&#45;&gt;vb6 -->
<g id="edge4" class="edge"><title>vb6_intermediate_r&#45;&gt;vb6</title>
<path fill="none" stroke="black" d="M322.12,-391.011C323.968,-391.187 346.602,-393.343 357.803,-394.41"/>
</g>
<!-- vb3 -->
<g id="node17" class="node"><title>vb3</title>
<polygon fill="none" stroke="black" points="720,-303 706,-303 706,-289 720,-289 720,-303"/>
</g>
<!-- vb3_intermediate_p -->
<g id="node19" class="node"><title>vb3_intermediate_p</title>
<ellipse fill="black" stroke="black" cx="777" cy="-288" rx="0.036" ry="0.036"/>
</g>
<!-- vb3&#45;&gt;vb3_intermediate_p -->
<g id="edge10" class="edge"><title>vb3&#45;&gt;vb3_intermediate_p</title>
<path fill="none" stroke="black" d="M720.171,-295.204C735.364,-293.243 773.515,-288.321 775.884,-288.015"/>
</g>
<!-- vb3_empty -->
<g id="node18" class="node"><title>vb3_empty</title>
<text text-anchor="middle" x="623" y="-292.5" font-family="Times,serif" font-size="15.00" fill="blue">Ø</text>
</g>
<!-- vb3_empty&#45;&gt;vb3 -->
<g id="edge9" class="edge"><title>vb3_empty&#45;&gt;vb3</title>
<path fill="none" stroke="black" d="M650.403,-296C669.641,-296 694.253,-296 705.665,-296"/>
</g>
<!-- vb3_intermediate_p&#45;&gt;Cdk2 -->
<g id="edge11" class="edge"><title>vb3_intermediate_p&#45;&gt;Cdk2</title>
<path fill="none" stroke="black" d="M778.049,-287.978C779.031,-287.545 794.521,-280.711 810.462,-273.678"/>
<polygon fill="black" stroke="black" points="812.058,-276.8 819.795,-269.561 809.233,-270.395 812.058,-276.8"/>
</g>
<!-- vb4 -->
<g id="node20" class="node"><title>vb4</title>
<polygon fill="none" stroke="black" points="1020,-233 1006,-233 1006,-219 1020,-219 1020,-233"/>
</g>
<!-- vb4_empty -->
<g id="node22" class="node"><title>vb4_empty</title>
<text text-anchor="middle" x="1083" y="-221.5" font-family="Times,serif" font-size="15.00" fill="blue">Ø</text>
</g>
<!-- vb4&#45;&gt;vb4_empty -->
<g id="edge14" class="edge"><title>vb4&#45;&gt;vb4_empty</title>
<path fill="none" stroke="black" d="M1020.28,-225.908C1026.28,-225.819 1035.85,-225.679 1045.68,-225.534"/>
<polygon fill="black" stroke="black" points="1045.93,-229.031 1055.88,-225.384 1045.83,-222.032 1045.93,-229.031"/>
</g>
<!-- vb4&#45;&gt;vb4_intermediate_m -->
<g id="edge15" class="edge"><title>vb4&#45;&gt;vb4_intermediate_m</title>
<path fill="none" stroke="black" d="M1020.02,-230.322C1027.96,-235.884 1042.52,-245.593 1056,-252 1066.35,-256.922 1080.15,-260.525 1081.83,-260.957"/>
</g>
<!-- vb4_intermediate_r&#45;&gt;vb4 -->
<g id="edge12" class="edge"><title>vb4_intermediate_r&#45;&gt;vb4</title>
<path fill="none" stroke="black" d="M944.049,-229.997C945.722,-229.899 989.535,-227.321 1005.91,-226.358"/>
</g>
<!-- vb7 -->
<g id="node24" class="node"><title>vb7</title>
<polygon fill="none" stroke="black" points="372,-163 358,-163 358,-149 372,-149 372,-163"/>
</g>
<!-- vb7_intermediate_p -->
<g id="node26" class="node"><title>vb7_intermediate_p</title>
<ellipse fill="black" stroke="black" cx="435" cy="-156" rx="0.036" ry="0.036"/>
</g>
<!-- vb7&#45;&gt;vb7_intermediate_p -->
<g id="edge20" class="edge"><title>vb7&#45;&gt;vb7_intermediate_p</title>
<path fill="none" stroke="black" d="M372.275,-156C388.583,-156 431.222,-156 433.871,-156"/>
</g>
<!-- vb7&#45;&gt;vb7_intermediate_m -->
<g id="edge22" class="edge"><title>vb7&#45;&gt;vb7_intermediate_m</title>
<path fill="none" stroke="black" d="M370.635,-148.972C388.005,-123.569 452.147,-38 528,-38 528,-38 528,-38 778,-38 849.75,-38 939.157,-38 941.934,-38"/>
</g>
<!-- vb7_intermediate_r&#45;&gt;vb7 -->
<g id="edge17" class="edge"><title>vb7_intermediate_r&#45;&gt;vb7</title>
<path fill="none" stroke="black" d="M322.03,-289.903C323.118,-286.432 353.059,-190.906 361.691,-163.365"/>
</g>
<!-- vb7_intermediate_p&#45;&gt;CycECdk2 -->
<g id="edge21" class="edge"><title>vb7_intermediate_p&#45;&gt;CycECdk2</title>
<path fill="none" stroke="black" d="M436.067,-156C437.552,-156 463.591,-156 487.576,-156"/>
<polygon fill="black" stroke="black" points="487.653,-159.5 497.653,-156 487.653,-152.5 487.653,-159.5"/>
</g>
<!-- vb8 -->
<g id="node28" class="node"><title>vb8</title>
<polygon fill="none" stroke="black" points="720,-233 706,-233 706,-219 720,-219 720,-233"/>
</g>
<!-- vb8_intermediate_p -->
<g id="node30" class="node"><title>vb8_intermediate_p</title>
<ellipse fill="black" stroke="black" cx="777" cy="-258" rx="0.036" ry="0.036"/>
</g>
<!-- vb8&#45;&gt;vb8_intermediate_p -->
<g id="edge27" class="edge"><title>vb8&#45;&gt;vb8_intermediate_p</title>
<path fill="none" stroke="black" d="M720.171,-229.185C735.364,-237.026 773.515,-256.717 775.884,-257.94"/>
</g>
<!-- vb8&#45;&gt;vb8_intermediate_m -->
<g id="edge30" class="edge"><title>vb8&#45;&gt;vb8_intermediate_m</title>
<path fill="none" stroke="black" d="M720.171,-226.796C735.364,-228.757 773.515,-233.679 775.884,-233.985"/>
</g>
<!-- vb8_intermediate_r&#45;&gt;vb8 -->
<g id="edge25" class="edge"><title>vb8_intermediate_r&#45;&gt;vb8</title>
<path fill="none" stroke="black" d="M624.064,-221.004C626.291,-221.13 686.244,-224.537 705.856,-225.651"/>
</g>
<!-- vb8_intermediate_p&#45;&gt;CycE -->
<g id="edge28" class="edge"><title>vb8_intermediate_p&#45;&gt;CycE</title>
<path fill="none" stroke="black" d="M775.901,-257.994C771.738,-257.752 637.682,-250 530,-250 364,-250 364,-250 364,-250 339.379,-250 313.492,-259.564 293.464,-269.338"/>
<polygon fill="black" stroke="black" points="291.73,-266.294 284.418,-273.961 294.915,-272.527 291.73,-266.294"/>
</g>
<!-- vb8_intermediate_p&#45;&gt;Cdk2 -->
<g id="edge29" class="edge"><title>vb8_intermediate_p&#45;&gt;Cdk2</title>
<path fill="none" stroke="black" d="M778.049,-258C779.013,-258 793.947,-258 809.569,-258"/>
<polygon fill="black" stroke="black" points="809.795,-261.5 819.795,-258 809.795,-254.5 809.795,-261.5"/>
</g>
<!-- vb1 -->
<g id="node32" class="node"><title>vb1</title>
<polygon fill="none" stroke="black" points="720,-163 706,-163 706,-149 720,-149 720,-163"/>
</g>
<!-- vb1_intermediate_p -->
<g id="node34" class="node"><title>vb1_intermediate_p</title>
<ellipse fill="black" stroke="black" cx="777" cy="-154" rx="0.036" ry="0.036"/>
</g>
<!-- vb1&#45;&gt;vb1_intermediate_p -->
<g id="edge34" class="edge"><title>vb1&#45;&gt;vb1_intermediate_p</title>
<path fill="none" stroke="black" d="M720.171,-155.801C735.364,-155.311 773.515,-154.08 775.884,-154.004"/>
</g>
<!-- vb1&#45;&gt;vb1_intermediate_m -->
<g id="edge36" class="edge"><title>vb1&#45;&gt;vb1_intermediate_m</title>
<path fill="none" stroke="black" d="M720.281,-157.795C735.99,-162.248 778.287,-174.019 814,-182 869.604,-194.426 939.769,-205.644 941.948,-205.992"/>
</g>
<!-- vb1_intermediate_r&#45;&gt;vb1 -->
<g id="edge32" class="edge"><title>vb1_intermediate_r&#45;&gt;vb1</title>
<path fill="none" stroke="black" d="M624.064,-156C626.291,-156 686.244,-156 705.856,-156"/>
</g>
<!-- vb1_intermediate_p&#45;&gt;CycECdk2a -->
<g id="edge35" class="edge"><title>vb1_intermediate_p&#45;&gt;CycECdk2a</title>
<path fill="none" stroke="black" d="M778.049,-153.977C778.914,-153.57 791.026,-147.87 804.79,-141.393"/>
<polygon fill="black" stroke="black" points="806.415,-144.497 813.973,-137.072 803.434,-138.163 806.415,-144.497"/>
</g>
<!-- vb2 -->
<g id="node36" class="node"><title>vb2</title>
<polygon fill="none" stroke="black" points="1020,-118 1006,-118 1006,-104 1020,-104 1020,-118"/>
</g>
<!-- vb2_intermediate_p -->
<g id="node38" class="node"><title>vb2_intermediate_p</title>
<ellipse fill="black" stroke="black" cx="1083" cy="-94" rx="0.036" ry="0.036"/>
</g>
<!-- vb2&#45;&gt;vb2_intermediate_p -->
<g id="edge43" class="edge"><title>vb2&#45;&gt;vb2_intermediate_p</title>
<path fill="none" stroke="black" d="M1020.28,-109.431C1036.58,-105.354 1079.22,-94.6946 1081.87,-94.0323"/>
</g>
<!-- vb2&#45;&gt;vb2_intermediate_m -->
<g id="edge45" class="edge"><title>vb2&#45;&gt;vb2_intermediate_m</title>
<path fill="none" stroke="black" d="M1020.28,-113.492C1036.58,-119.967 1079.22,-136.897 1081.87,-137.949"/>
</g>
<!-- vb2_intermediate_r&#45;&gt;vb2 -->
<g id="edge41" class="edge"><title>vb2_intermediate_r&#45;&gt;vb2</title>
<path fill="none" stroke="black" d="M944.049,-114.997C945.722,-114.899 989.535,-112.321 1005.91,-111.358"/>
</g>
<!-- vb2_intermediate_p&#45;&gt;CycECdk2 -->
<g id="edge44" class="edge"><title>vb2_intermediate_p&#45;&gt;CycECdk2</title>
<path fill="none" stroke="black" d="M1081.94,-93.987C1079.62,-93.4419 1004.89,-76 944,-76 712,-76 712,-76 712,-76 655.681,-76 597.216,-108.501 562.221,-132.072"/>
<polygon fill="black" stroke="black" points="560.091,-129.289 553.845,-137.847 564.065,-135.052 560.091,-129.289"/>
</g>
<!-- va3 -->
<g id="node40" class="node"><title>va3</title>
<polygon fill="none" stroke="black" points="536,-447 522,-447 522,-433 536,-433 536,-447"/>
</g>
<!-- va3_intermediate_p -->
<g id="node42" class="node"><title>va3_intermediate_p</title>
<ellipse fill="black" stroke="black" cx="623" cy="-435" rx="0.036" ry="0.036"/>
</g>
<!-- va3&#45;&gt;va3_intermediate_p -->
<g id="edge48" class="edge"><title>va3&#45;&gt;va3_intermediate_p</title>
<path fill="none" stroke="black" d="M536.036,-439.672C556.184,-438.577 619.964,-435.111 621.952,-435.003"/>
</g>
<!-- va3&#45;&gt;va3_intermediate_m -->
<g id="edge50" class="edge"><title>va3&#45;&gt;va3_intermediate_m</title>
<path fill="none" stroke="black" d="M536.036,-442.821C556.184,-452.238 619.964,-482.049 621.952,-482.978"/>
</g>
<!-- va3_empty -->
<g id="node41" class="node"><title>va3_empty</title>
<text text-anchor="middle" x="435" y="-446.5" font-family="Times,serif" font-size="15.00" fill="blue">Ø</text>
</g>
<!-- va3_empty&#45;&gt;va3 -->
<g id="edge47" class="edge"><title>va3_empty&#45;&gt;va3</title>
<path fill="none" stroke="black" d="M462.117,-447.161C482.729,-444.921 509.936,-441.963 521.906,-440.662"/>
</g>
<!-- va3_intermediate_p&#45;&gt;p53 -->
<g id="edge49" class="edge"><title>va3_intermediate_p&#45;&gt;p53</title>
<path fill="none" stroke="black" d="M624.064,-434.999C625.533,-434.983 652.103,-434.681 675.654,-434.413"/>
<polygon fill="black" stroke="black" points="675.861,-437.911 685.82,-434.297 675.781,-430.911 675.861,-437.911"/>
</g>
<!-- va2 -->
<g id="node44" class="node"><title>va2</title>
<polygon fill="none" stroke="black" points="194,-368 180,-368 180,-354 194,-354 194,-368"/>
</g>
<!-- va2_empty -->
<g id="node46" class="node"><title>va2_empty</title>
<text text-anchor="middle" x="257" y="-358.5" font-family="Times,serif" font-size="15.00" fill="blue">Ø</text>
</g>
<!-- va2&#45;&gt;va2_empty -->
<g id="edge55" class="edge"><title>va2&#45;&gt;va2_empty</title>
<path fill="none" stroke="black" d="M194.275,-361.092C200.278,-361.181 209.849,-361.321 219.68,-361.466"/>
<polygon fill="black" stroke="black" points="219.829,-364.968 229.88,-361.616 219.932,-357.969 219.829,-364.968"/>
</g>
<!-- va2&#45;&gt;va2_intermediate_m -->
<g id="edge56" class="edge"><title>va2&#45;&gt;va2_intermediate_m</title>
<path fill="none" stroke="black" d="M194.019,-356.678C201.964,-351.116 216.524,-341.407 230,-335 240.354,-330.078 254.146,-326.475 255.829,-326.043"/>
</g>
<!-- va2_intermediate_r&#45;&gt;va2 -->
<g id="edge53" class="edge"><title>va2_intermediate_r&#45;&gt;va2</title>
<path fill="none" stroke="black" d="M138.138,-358.009C140.293,-358.143 167.204,-359.825 179.7,-360.606"/>
</g>
<!-- va1 -->
<g id="node48" class="node"><title>va1</title>
<polygon fill="none" stroke="black" points="194,-443 180,-443 180,-429 194,-429 194,-443"/>
</g>
<!-- va1_empty -->
<g id="node50" class="node"><title>va1_empty</title>
<text text-anchor="middle" x="257" y="-433.5" font-family="Times,serif" font-size="15.00" fill="blue">Ø</text>
</g>
<!-- va1&#45;&gt;va1_empty -->
<g id="edge60" class="edge"><title>va1&#45;&gt;va1_empty</title>
<path fill="none" stroke="black" d="M194.275,-436.092C200.278,-436.181 209.849,-436.321 219.68,-436.466"/>
<polygon fill="black" stroke="black" points="219.829,-439.968 229.88,-436.616 219.932,-432.969 219.829,-439.968"/>
</g>
<!-- va1&#45;&gt;va1_intermediate_m -->
<g id="edge61" class="edge"><title>va1&#45;&gt;va1_intermediate_m</title>
<path fill="none" stroke="black" d="M194.019,-431.678C201.964,-426.116 216.524,-416.407 230,-410 240.354,-405.078 254.146,-401.475 255.829,-401.043"/>
</g>
<!-- va1_intermediate_r&#45;&gt;va1 -->
<g id="edge58" class="edge"><title>va1_intermediate_r&#45;&gt;va1</title>
<path fill="none" stroke="black" d="M138.138,-432.011C140.293,-432.191 167.204,-434.434 179.7,-435.475"/>
</g>
<!-- va5 -->
<g id="node52" class="node"><title>va5</title>
<polygon fill="none" stroke="black" points="720,-397 706,-397 706,-383 720,-383 720,-397"/>
</g>
<!-- va5_intermediate_p -->
<g id="node54" class="node"><title>va5_intermediate_p</title>
<ellipse fill="black" stroke="black" cx="777" cy="-379" rx="0.036" ry="0.036"/>
</g>
<!-- va5&#45;&gt;va5_intermediate_p -->
<g id="edge64" class="edge"><title>va5&#45;&gt;va5_intermediate_p</title>
<path fill="none" stroke="black" d="M720.171,-388.905C735.364,-386.21 773.515,-379.441 775.884,-379.021"/>
</g>
<!-- va5&#45;&gt;va5_intermediate_m -->
<g id="edge66" class="edge"><title>va5&#45;&gt;va5_intermediate_m</title>
<path fill="none" stroke="black" d="M720.171,-391.593C735.364,-395.513 773.515,-405.359 775.884,-405.97"/>
</g>
<!-- va5_empty -->
<g id="node53" class="node"><title>va5_empty</title>
<text text-anchor="middle" x="623" y="-386.5" font-family="Times,serif" font-size="15.00" fill="blue">Ø</text>
</g>
<!-- va5_empty&#45;&gt;va5 -->
<g id="edge63" class="edge"><title>va5_empty&#45;&gt;va5</title>
<path fill="none" stroke="black" d="M650.403,-390C669.641,-390 694.253,-390 705.665,-390"/>
</g>
<!-- va5_intermediate_p&#45;&gt;p21 -->
<g id="edge65" class="edge"><title>va5_intermediate_p&#45;&gt;p21</title>
<path fill="none" stroke="black" d="M778.049,-378.951C779.235,-377.783 801.591,-355.755 820.341,-337.282"/>
<polygon fill="black" stroke="black" points="822.892,-339.681 827.559,-330.17 817.979,-334.695 822.892,-339.681"/>
</g>
<!-- va6 -->
<g id="node56" class="node"><title>va6</title>
<polygon fill="none" stroke="black" points="1020,-312 1006,-312 1006,-298 1020,-298 1020,-312"/>
</g>
<!-- va6_empty -->
<g id="node58" class="node"><title>va6_empty</title>
<text text-anchor="middle" x="1083" y="-300.5" font-family="Times,serif" font-size="15.00" fill="blue">Ø</text>
</g>
<!-- va6&#45;&gt;va6_empty -->
<g id="edge71" class="edge"><title>va6&#45;&gt;va6_empty</title>
<path fill="none" stroke="black" d="M1020.28,-304.908C1026.28,-304.819 1035.85,-304.679 1045.68,-304.534"/>
<polygon fill="black" stroke="black" points="1045.93,-308.031 1055.88,-304.384 1045.83,-301.032 1045.93,-308.031"/>
</g>
<!-- va6&#45;&gt;va6_intermediate_m -->
<g id="edge72" class="edge"><title>va6&#45;&gt;va6_intermediate_m</title>
<path fill="none" stroke="black" d="M1020.02,-309.322C1027.96,-314.884 1042.52,-324.593 1056,-331 1066.35,-335.922 1080.15,-339.525 1081.83,-339.957"/>
</g>
<!-- va6_intermediate_r&#45;&gt;va6 -->
<g id="edge69" class="edge"><title>va6_intermediate_r&#45;&gt;va6</title>
<path fill="none" stroke="black" d="M944.049,-307.998C945.722,-307.924 989.535,-305.991 1005.91,-305.269"/>
</g>
<!-- va4 -->
<g id="node60" class="node"><title>va4</title>
<polygon fill="none" stroke="black" points="854,-476 840,-476 840,-462 854,-462 854,-476"/>
</g>
<!-- va4_empty -->
<g id="node62" class="node"><title>va4_empty</title>
<text text-anchor="middle" x="943" y="-466.5" font-family="Times,serif" font-size="15.00" fill="blue">Ø</text>
</g>
<!-- va4&#45;&gt;va4_empty -->
<g id="edge76" class="edge"><title>va4&#45;&gt;va4_empty</title>
<path fill="none" stroke="black" d="M854.168,-469.066C864.554,-469.176 886.29,-469.407 905.54,-469.612"/>
<polygon fill="black" stroke="black" points="905.56,-473.112 915.597,-469.719 905.635,-466.113 905.56,-473.112"/>
</g>
<!-- va4&#45;&gt;va4_intermediate_m -->
<g id="edge77" class="edge"><title>va4&#45;&gt;va4_intermediate_m</title>
<path fill="none" stroke="black" d="M854.35,-466.494C866.349,-461.777 893.198,-451.303 916,-443 926.772,-439.077 940.198,-434.6 941.834,-434.055"/>
</g>
<!-- va4_intermediate_r&#45;&gt;va4 -->
<g id="edge74" class="edge"><title>va4_intermediate_r&#45;&gt;va4</title>
<path fill="none" stroke="black" d="M778.049,-466.002C779.722,-466.076 823.535,-468.009 839.906,-468.731"/>
</g>
</g>
</svg>
