<?xml version="1.0" encoding="UTF-8" standalone="no"?>
<!DOCTYPE svg PUBLIC "-//W3C//DTD SVG 1.1//EN"
 "http://www.w3.org/Graphics/SVG/1.1/DTD/svg11.dtd">
<!-- Generated by graphviz version 2.30.1 (20140821.0912)
 -->
<!-- Title: G Pages: 1 -->
<svg width="736pt" height="429pt"
 viewBox="0.00 0.00 736.00 429.00" xmlns="http://www.w3.org/2000/svg" xmlns:xlink="http://www.w3.org/1999/xlink">
<g id="graph0" class="graph" transform="scale(1 1) rotate(0) translate(4 425)">
<title>G</title>
<polygon fill="white" stroke="white" points="-4,5 -4,-425 733,-425 733,5 -4,5"/>
<!-- V -->
<g id="V" class="node"><title>V</title>
<ellipse fill="none" stroke="black" cx="203" cy="-260" rx="27" ry="18"/>
<text text-anchor="middle" x="203" y="-257.5" font-family="Times,serif" font-size="10.00">V</text>
</g>
<!-- Kv_intermediate_r -->
<g id="node7" class="node"><title>Kv_intermediate_r</title>
<ellipse fill="black" stroke="black" cx="293" cy="-243" rx="0.036" ry="0.036"/>
</g>
<!-- V&#45;&gt;Kv_intermediate_r -->
<g id="edge5" class="edge"><title>V&#45;&gt;Kv_intermediate_r</title>
<path fill="none" stroke="black" d="M229.453,-255.083C254.631,-250.219 289.726,-243.439 291.894,-243.02"/>
</g>
<!-- Kv_intermediate_m -->
<g id="node9" class="node"><title>Kv_intermediate_m</title>
<ellipse fill="black" stroke="black" cx="433" cy="-227" rx="0.036" ry="0.036"/>
</g>
<!-- V&#45;&gt;Kv_intermediate_m -->
<g id="edge9" class="edge"><title>V&#45;&gt;Kv_intermediate_m</title>
<path fill="none" stroke="black" d="M224.996,-249.422C236.765,-243.949 251.878,-237.664 266,-234 336.36,-215.744 429.052,-226.647 431.931,-226.992"/>
</g>
<!-- Kcv_intermediate_r -->
<g id="node11" class="node"><title>Kcv_intermediate_r</title>
<ellipse fill="black" stroke="black" cx="293" cy="-85" rx="0.036" ry="0.036"/>
</g>
<!-- V&#45;&gt;Kcv_intermediate_r -->
<g id="edge11" class="edge"><title>V&#45;&gt;Kcv_intermediate_r</title>
<path fill="none" stroke="black" d="M205.729,-242.062C209.919,-208.383 223.621,-135.365 266,-94 274.477,-85.7255 290.93,-85.0366 291.95,-85.0016"/>
</g>
<!-- Kcv_intermediate_m -->
<g id="node13" class="node"><title>Kcv_intermediate_m</title>
<ellipse fill="black" stroke="black" cx="587" cy="-38" rx="0.036" ry="0.036"/>
</g>
<!-- V&#45;&gt;Kcv_intermediate_m -->
<g id="edge16" class="edge"><title>V&#45;&gt;Kcv_intermediate_m</title>
<path fill="none" stroke="black" d="M206.178,-241.717C214.341,-182.536 248.701,-0 362,-0 362,-0 362,-0 434,-0 502.547,-0 583.429,-36.8218 585.94,-37.9725"/>
</g>
<!-- Kdv_intermediate_r -->
<g id="node15" class="node"><title>Kdv_intermediate_r</title>
<ellipse fill="black" stroke="black" cx="293" cy="-345" rx="0.036" ry="0.036"/>
</g>
<!-- V&#45;&gt;Kdv_intermediate_r -->
<g id="edge19" class="edge"><title>V&#45;&gt;Kdv_intermediate_r</title>
<path fill="none" stroke="black" d="M216.674,-275.539C228.633,-289.733 247.449,-310.898 266,-327 276.282,-335.925 291.043,-344.45 291.956,-344.975"/>
</g>
<!-- Kdv_intermediate_m -->
<g id="node17" class="node"><title>Kdv_intermediate_m</title>
<ellipse fill="black" stroke="black" cx="433" cy="-301" rx="0.036" ry="0.036"/>
</g>
<!-- V&#45;&gt;Kdv_intermediate_m -->
<g id="edge22" class="edge"><title>V&#45;&gt;Kdv_intermediate_m</title>
<path fill="none" stroke="black" d="M229.019,-264.95C240.308,-267.156 253.816,-269.757 266,-272 338.506,-285.349 429.119,-300.518 431.933,-300.989"/>
</g>
<!-- Kvc_intermediate_r -->
<g id="node22" class="node"><title>Kvc_intermediate_r</title>
<ellipse fill="black" stroke="black" cx="587" cy="-292" rx="0.036" ry="0.036"/>
</g>
<!-- V&#45;&gt;Kvc_intermediate_r -->
<g id="edge27" class="edge"><title>V&#45;&gt;Kvc_intermediate_r</title>
<path fill="none" stroke="black" d="M210.937,-277.229C220.32,-298.379 239.04,-333.904 266,-354 301.736,-380.637 317.429,-383 362,-383 362,-383 362,-383 434,-383 511.507,-383 583.709,-294.822 585.947,-292.066"/>
</g>
<!-- Kvc_intermediate_m -->
<g id="node24" class="node"><title>Kvc_intermediate_m</title>
<ellipse fill="black" stroke="black" cx="701" cy="-167" rx="0.036" ry="0.036"/>
</g>
<!-- V&#45;&gt;Kvc_intermediate_m -->
<g id="edge32" class="edge"><title>V&#45;&gt;Kvc_intermediate_m</title>
<path fill="none" stroke="black" d="M218.031,-244.643C243.784,-218.228 301.524,-167 362,-167 362,-167 362,-167 588,-167 637,-167 698.059,-167 699.955,-167"/>
</g>
<!-- C -->
<g id="C" class="node"><title>C</title>
<ellipse fill="none" stroke="black" cx="523" cy="-92" rx="27" ry="18"/>
<text text-anchor="middle" x="523" y="-89.5" font-family="Times,serif" font-size="10.00">C</text>
</g>
<!-- C&#45;&gt;Kcv_intermediate_r -->
<g id="edge12" class="edge"><title>C&#45;&gt;Kcv_intermediate_r</title>
<path fill="none" stroke="black" d="M495.72,-91.1932C436.948,-89.3888 299.586,-85.1715 294.165,-85.0051"/>
</g>
<!-- C&#45;&gt;Kcv_intermediate_m -->
<g id="edge17" class="edge"><title>C&#45;&gt;Kcv_intermediate_m</title>
<path fill="none" stroke="black" d="M540.29,-77.8121C558.085,-62.3128 584.3,-39.4807 585.921,-38.0688"/>
</g>
<!-- C&#45;&gt;Kvc_intermediate_r -->
<g id="edge28" class="edge"><title>C&#45;&gt;Kvc_intermediate_r</title>
<path fill="none" stroke="black" d="M529.502,-109.749C544.439,-157.931 584.715,-287.855 585.97,-291.903"/>
</g>
<!-- C&#45;&gt;Kvc_intermediate_m -->
<g id="edge33" class="edge"><title>C&#45;&gt;Kvc_intermediate_m</title>
<path fill="none" stroke="black" d="M546.291,-101.499C592.91,-121.365 696.691,-165.59 699.923,-166.967"/>
</g>
<!-- Kdc_intermediate_r -->
<g id="node26" class="node"><title>Kdc_intermediate_r</title>
<ellipse fill="black" stroke="black" cx="587" cy="-57" rx="0.036" ry="0.036"/>
</g>
<!-- C&#45;&gt;Kdc_intermediate_r -->
<g id="edge35" class="edge"><title>C&#45;&gt;Kdc_intermediate_r</title>
<path fill="none" stroke="black" d="M544.301,-80.5397C561.818,-70.6512 584.529,-57.8302 585.932,-57.0386"/>
</g>
<!-- Kdc_intermediate_m -->
<g id="node28" class="node"><title>Kdc_intermediate_m</title>
<ellipse fill="black" stroke="black" cx="701" cy="-91" rx="0.036" ry="0.036"/>
</g>
<!-- C&#45;&gt;Kdc_intermediate_m -->
<g id="edge38" class="edge"><title>C&#45;&gt;Kdc_intermediate_m</title>
<path fill="none" stroke="black" d="M550.349,-91.8503C598.68,-91.5757 696.87,-91.0178 699.927,-91.0004"/>
</g>
<!-- Kb -->
<g id="node3" class="node"><title>Kb</title>
<polygon fill="none" stroke="black" points="104,-267 90,-267 90,-253 104,-253 104,-267"/>
</g>
<!-- Kb_intermediate_p -->
<g id="node5" class="node"><title>Kb_intermediate_p</title>
<ellipse fill="black" stroke="black" cx="140" cy="-260" rx="0.036" ry="0.036"/>
</g>
<!-- Kb&#45;&gt;Kb_intermediate_p -->
<g id="edge2" class="edge"><title>Kb&#45;&gt;Kb_intermediate_p</title>
<path fill="none" stroke="black" d="M104.05,-260C115.098,-260 137.54,-260 138.932,-260"/>
</g>
<!-- Kb_empty -->
<g id="node4" class="node"><title>Kb_empty</title>
<text text-anchor="middle" x="27" y="-256.5" font-family="Times,serif" font-size="15.00" fill="blue">Ø</text>
</g>
<!-- Kb_empty&#45;&gt;Kb -->
<g id="edge1" class="edge"><title>Kb_empty&#45;&gt;Kb</title>
<path fill="none" stroke="black" d="M54.0961,-260C67.13,-260 81.8045,-260 89.8681,-260"/>
</g>
<!-- Kb_intermediate_p&#45;&gt;V -->
<g id="edge3" class="edge"><title>Kb_intermediate_p&#45;&gt;V</title>
<path fill="none" stroke="black" d="M141.044,-260C141.83,-260 152.976,-260 165.526,-260"/>
<polygon fill="black" stroke="black" points="165.721,-263.5 175.721,-260 165.721,-256.5 165.721,-263.5"/>
</g>
<!-- Kv -->
<g id="node6" class="node"><title>Kv</title>
<polygon fill="none" stroke="black" points="370,-247 356,-247 356,-233 370,-233 370,-247"/>
</g>
<!-- Kv_intermediate_p -->
<g id="node8" class="node"><title>Kv_intermediate_p</title>
<ellipse fill="black" stroke="black" cx="433" cy="-253" rx="0.036" ry="0.036"/>
</g>
<!-- Kv&#45;&gt;Kv_intermediate_p -->
<g id="edge6" class="edge"><title>Kv&#45;&gt;Kv_intermediate_p</title>
<path fill="none" stroke="black" d="M370.275,-241.2C386.583,-244.317 429.222,-252.469 431.871,-252.975"/>
</g>
<!-- Kv&#45;&gt;Kv_intermediate_m -->
<g id="edge8" class="edge"><title>Kv&#45;&gt;Kv_intermediate_m</title>
<path fill="none" stroke="black" d="M370.275,-238.8C386.583,-235.683 429.222,-227.531 431.871,-227.025"/>
</g>
<!-- Kv_intermediate_r&#45;&gt;Kv -->
<g id="edge4" class="edge"><title>Kv_intermediate_r&#45;&gt;Kv</title>
<path fill="none" stroke="black" d="M294.049,-242.998C295.722,-242.924 339.535,-240.991 355.906,-240.269"/>
</g>
<!-- Kv_intermediate_p&#45;&gt;V -->
<g id="edge7" class="edge"><title>Kv_intermediate_p&#45;&gt;V</title>
<path fill="none" stroke="black" d="M431.9,-253.006C429.855,-253.124 396.708,-255.032 370,-256 325.418,-257.616 274.076,-258.74 240.438,-259.376"/>
<polygon fill="black" stroke="black" points="240.103,-255.881 230.169,-259.565 240.232,-262.88 240.103,-255.881"/>
</g>
<!-- Kcv -->
<g id="node10" class="node"><title>Kcv</title>
<polygon fill="none" stroke="black" points="370,-66 356,-66 356,-52 370,-52 370,-66"/>
</g>
<!-- Kcv_intermediate_p -->
<g id="node12" class="node"><title>Kcv_intermediate_p</title>
<ellipse fill="black" stroke="black" cx="433" cy="-66" rx="0.036" ry="0.036"/>
</g>
<!-- Kcv&#45;&gt;Kcv_intermediate_p -->
<g id="edge13" class="edge"><title>Kcv&#45;&gt;Kcv_intermediate_p</title>
<path fill="none" stroke="black" d="M370.275,-59.646C386.583,-61.3248 429.222,-65.714 431.871,-65.9867"/>
</g>
<!-- Kcv&#45;&gt;Kcv_intermediate_m -->
<g id="edge15" class="edge"><title>Kcv&#45;&gt;Kcv_intermediate_m</title>
<path fill="none" stroke="black" d="M370.405,-58.3942C406.235,-55.0048 580.435,-38.5264 585.87,-38.0123"/>
</g>
<!-- Kcv_intermediate_r&#45;&gt;Kcv -->
<g id="edge10" class="edge"><title>Kcv_intermediate_r&#45;&gt;Kcv</title>
<path fill="none" stroke="black" d="M294.049,-84.9812C295.722,-84.3415 339.535,-67.5897 355.906,-61.3302"/>
</g>
<!-- Kcv_intermediate_p&#45;&gt;C -->
<g id="edge14" class="edge"><title>Kcv_intermediate_p&#45;&gt;C</title>
<path fill="none" stroke="black" d="M434.064,-66.0188C435.592,-66.4702 464.275,-74.9448 488.472,-82.094"/>
<polygon fill="black" stroke="black" points="487.553,-85.4721 498.135,-84.949 489.537,-78.7589 487.553,-85.4721"/>
</g>
<!-- Kdv -->
<g id="node14" class="node"><title>Kdv</title>
<polygon fill="none" stroke="black" points="370,-355 356,-355 356,-341 370,-341 370,-355"/>
</g>
<!-- Kdv_empty -->
<g id="node16" class="node"><title>Kdv_empty</title>
<text text-anchor="middle" x="433" y="-333.5" font-family="Times,serif" font-size="15.00" fill="blue">Ø</text>
</g>
<!-- Kdv&#45;&gt;Kdv_empty -->
<g id="edge20" class="edge"><title>Kdv&#45;&gt;Kdv_empty</title>
<path fill="none" stroke="black" d="M370.275,-346.985C376.342,-346.004 386.051,-344.433 395.99,-342.825"/>
<polygon fill="black" stroke="black" points="396.567,-346.277 405.88,-341.225 395.449,-339.367 396.567,-346.277"/>
</g>
<!-- Kdv&#45;&gt;Kdv_intermediate_m -->
<g id="edge21" class="edge"><title>Kdv&#45;&gt;Kdv_intermediate_m</title>
<path fill="none" stroke="black" d="M370.164,-340.898C377.813,-332.477 391.614,-318.513 406,-310 416.195,-303.967 431.038,-301.177 431.955,-301.008"/>
</g>
<!-- Kdv_intermediate_r&#45;&gt;Kdv -->
<g id="edge18" class="edge"><title>Kdv_intermediate_r&#45;&gt;Kdv</title>
<path fill="none" stroke="black" d="M294.049,-345.002C295.722,-345.076 339.535,-347.009 355.906,-347.731"/>
</g>
<!-- Kc -->
<g id="node18" class="node"><title>Kc</title>
<polygon fill="none" stroke="black" points="370,-136 356,-136 356,-122 370,-122 370,-136"/>
</g>
<!-- Kc_intermediate_p -->
<g id="node20" class="node"><title>Kc_intermediate_p</title>
<ellipse fill="black" stroke="black" cx="433" cy="-125" rx="0.036" ry="0.036"/>
</g>
<!-- Kc&#45;&gt;Kc_intermediate_p -->
<g id="edge24" class="edge"><title>Kc&#45;&gt;Kc_intermediate_p</title>
<path fill="none" stroke="black" d="M370.275,-128.631C386.583,-127.672 429.222,-125.163 431.871,-125.008"/>
</g>
<!-- Kc_empty -->
<g id="node19" class="node"><title>Kc_empty</title>
<text text-anchor="middle" x="293" y="-117.5" font-family="Times,serif" font-size="15.00" fill="blue">Ø</text>
</g>
<!-- Kc_empty&#45;&gt;Kc -->
<g id="edge23" class="edge"><title>Kc_empty&#45;&gt;Kc</title>
<path fill="none" stroke="black" d="M320.096,-124.07C333.13,-125.604 347.805,-127.33 355.868,-128.279"/>
</g>
<!-- Kc_intermediate_p&#45;&gt;C -->
<g id="edge25" class="edge"><title>Kc_intermediate_p&#45;&gt;C</title>
<path fill="none" stroke="black" d="M434.064,-124.976C435.617,-124.394 465.227,-113.29 489.664,-104.126"/>
<polygon fill="black" stroke="black" points="490.91,-107.397 499.044,-100.608 488.452,-100.843 490.91,-107.397"/>
</g>
<!-- Kvc -->
<g id="node21" class="node"><title>Kvc</title>
<polygon fill="none" stroke="black" points="638,-299 624,-299 624,-285 638,-285 638,-299"/>
</g>
<!-- Kvc_intermediate_p -->
<g id="node23" class="node"><title>Kvc_intermediate_p</title>
<ellipse fill="black" stroke="black" cx="701" cy="-356" rx="0.036" ry="0.036"/>
</g>
<!-- Kvc&#45;&gt;Kvc_intermediate_p -->
<g id="edge29" class="edge"><title>Kvc&#45;&gt;Kvc_intermediate_p</title>
<path fill="none" stroke="black" d="M638.275,-297.906C654.583,-313.255 697.222,-353.385 699.871,-355.878"/>
</g>
<!-- Kvc&#45;&gt;Kvc_intermediate_m -->
<g id="edge31" class="edge"><title>Kvc&#45;&gt;Kvc_intermediate_m</title>
<path fill="none" stroke="black" d="M635.851,-284.921C650.011,-258.892 698.454,-169.843 699.964,-167.066"/>
</g>
<!-- Kvc_intermediate_r&#45;&gt;Kvc -->
<g id="edge26" class="edge"><title>Kvc_intermediate_r&#45;&gt;Kvc</title>
<path fill="none" stroke="black" d="M588.12,-292C589.968,-292 612.602,-292 623.803,-292"/>
</g>
<!-- Kvc_intermediate_p&#45;&gt;V -->
<g id="edge30" class="edge"><title>Kvc_intermediate_p&#45;&gt;V</title>
<path fill="none" stroke="black" d="M699.96,-356.047C698.298,-358.015 644.654,-421 588,-421 362,-421 362,-421 362,-421 315.778,-421 299.945,-412.373 266,-381 238.179,-355.287 220.873,-314.256 211.832,-287.22"/>
<polygon fill="black" stroke="black" points="215.139,-286.069 208.768,-277.605 208.47,-288.195 215.139,-286.069"/>
</g>
<!-- Kdc -->
<g id="node25" class="node"><title>Kdc</title>
<polygon fill="none" stroke="black" points="638,-63 624,-63 624,-49 638,-49 638,-63"/>
</g>
<!-- Kdc_empty -->
<g id="node27" class="node"><title>Kdc_empty</title>
<text text-anchor="middle" x="701" y="-51.5" font-family="Times,serif" font-size="15.00" fill="blue">Ø</text>
</g>
<!-- Kdc&#45;&gt;Kdc_empty -->
<g id="edge36" class="edge"><title>Kdc&#45;&gt;Kdc_empty</title>
<path fill="none" stroke="black" d="M638.275,-55.9077C644.278,-55.8194 653.849,-55.6787 663.68,-55.5341"/>
<polygon fill="black" stroke="black" points="663.932,-59.0309 673.88,-55.3841 663.829,-52.0316 663.932,-59.0309"/>
</g>
<!-- Kdc&#45;&gt;Kdc_intermediate_m -->
<g id="edge37" class="edge"><title>Kdc&#45;&gt;Kdc_intermediate_m</title>
<path fill="none" stroke="black" d="M638.019,-60.3219C645.964,-65.8843 660.524,-75.5933 674,-82 684.354,-86.9221 698.146,-90.5254 699.829,-90.9566"/>
</g>
<!-- Kdc_intermediate_r&#45;&gt;Kdc -->
<g id="edge34" class="edge"><title>Kdc_intermediate_r&#45;&gt;Kdc</title>
<path fill="none" stroke="black" d="M588.12,-56.9971C589.968,-56.9531 612.602,-56.4142 623.803,-56.1476"/>
</g>
</g>
</svg>
