<?xml version="1.0" encoding="UTF-8" standalone="no"?>
<!DOCTYPE svg PUBLIC "-//W3C//DTD SVG 1.1//EN"
 "http://www.w3.org/Graphics/SVG/1.1/DTD/svg11.dtd">
<!-- Generated by graphviz version 2.24.0 (20090616.2323)
 -->
<!-- Title: G Pages: 1 -->
<svg width="658pt" height="319pt"
 viewBox="0.00 0.00 658.00 319.00" xmlns="http://www.w3.org/2000/svg" xmlns:xlink="http://www.w3.org/1999/xlink">
<g id="graph1" class="graph" transform="scale(1 1) rotate(0) translate(4 315)">
<title>G</title>
<polygon fill="white" stroke="white" points="-4,5 -4,-315 655,-315 655,5 -4,5"/>
<!-- ATP -->
<g id="node1" class="node"><title>ATP</title>
<ellipse fill="none" stroke="black" cx="194" cy="-219" rx="18" ry="18"/>
<text text-anchor="middle" x="194" y="-216.5" font-family="Times Roman,serif" font-size="10.00">ATP</text>
</g>
<!-- ATPase_intermediate_r -->
<g id="node11" class="node"><title>ATPase_intermediate_r</title>
<ellipse fill="black" stroke="black" cx="249" cy="-186" rx="0.036" ry="0.036"/>
</g>
<!-- ATP&#45;&gt;ATPase_intermediate_r -->
<g id="edge4" class="edge"><title>ATP&#45;&gt;ATPase_intermediate_r</title>
<path fill="none" stroke="black" d="M218.571,-204.257C232.67,-195.798 247.808,-186.715 248.933,-186.04"/>
<polygon fill="black" stroke="black" points="216.388,-201.486 209.614,-209.632 219.989,-207.488 216.388,-201.486"/>
</g>
<!-- PCr -->
<g id="node2" class="node"><title>PCr</title>
<ellipse fill="none" stroke="black" cx="414" cy="-265" rx="18" ry="18"/>
<text text-anchor="middle" x="414" y="-262.5" font-family="Times Roman,serif" font-size="10.00">PCr</text>
</g>
<!-- CreatineKinase_intermediate_r -->
<g id="node47" class="node"><title>CreatineKinase_intermediate_r</title>
<ellipse fill="black" stroke="black" cx="469" cy="-265" rx="0.036" ry="0.036"/>
</g>
<!-- PCr&#45;&gt;CreatineKinase_intermediate_r -->
<g id="edge50" class="edge"><title>PCr&#45;&gt;CreatineKinase_intermediate_r</title>
<path fill="none" stroke="black" d="M442.237,-265C455.207,-265 467.958,-265 468.939,-265"/>
<polygon fill="black" stroke="black" points="442.009,-261.5 432.009,-265 442.009,-268.5 442.009,-261.5"/>
</g>
<!-- ADP -->
<g id="node3" class="node"><title>ADP</title>
<ellipse fill="none" stroke="black" cx="414" cy="-173" rx="18" ry="18"/>
<text text-anchor="middle" x="414" y="-170.5" font-family="Times Roman,serif" font-size="10.00">ADP</text>
</g>
<!-- OxidativePhosphorylation_intermediate_r -->
<g id="node18" class="node"><title>OxidativePhosphorylation_intermediate_r</title>
<ellipse fill="black" stroke="black" cx="469" cy="-144" rx="0.036" ry="0.036"/>
</g>
<!-- ADP&#45;&gt;OxidativePhosphorylation_intermediate_r -->
<g id="edge12" class="edge"><title>ADP&#45;&gt;OxidativePhosphorylation_intermediate_r</title>
<path fill="none" stroke="black" d="M439.101,-159.765C453.054,-152.408 467.836,-144.614 468.935,-144.034"/>
<polygon fill="black" stroke="black" points="437.418,-156.696 430.204,-164.456 440.682,-162.888 437.418,-156.696"/>
</g>
<!-- ADP&#45;&gt;CreatineKinase_intermediate_r -->
<g id="edge48" class="edge"><title>ADP&#45;&gt;CreatineKinase_intermediate_r</title>
<path fill="none" stroke="black" d="M428.54,-197.321C444.268,-223.629 467.327,-262.202 468.914,-264.855"/>
<polygon fill="black" stroke="black" points="431.465,-195.394 423.33,-188.607 425.457,-198.986 431.465,-195.394"/>
</g>
<!-- Cr -->
<g id="node4" class="node"><title>Cr</title>
<ellipse fill="none" stroke="black" cx="632" cy="-290" rx="18" ry="18"/>
<text text-anchor="middle" x="632" y="-287.5" font-family="Times Roman,serif" font-size="10.00">Cr</text>
</g>
<!-- Pi -->
<g id="node5" class="node"><title>Pi</title>
<ellipse fill="none" stroke="black" cx="524" cy="-18" rx="18" ry="18"/>
<text text-anchor="middle" x="524" y="-15.5" font-family="Times Roman,serif" font-size="10.00">Pi</text>
</g>
<!-- OxidativePhosphorylation_intermediate_m -->
<g id="node25" class="node"><title>OxidativePhosphorylation_intermediate_m</title>
<ellipse fill="black" stroke="black" cx="578" cy="-64" rx="0.036" ry="0.036"/>
</g>
<!-- Pi&#45;&gt;OxidativePhosphorylation_intermediate_m -->
<g id="edge22" class="edge"><title>Pi&#45;&gt;OxidativePhosphorylation_intermediate_m</title>
<path fill="none" stroke="black" d="M537.906,-29.8461C553.406,-43.0497 576.502,-62.724 577.93,-63.9407"/>
</g>
<!-- CTcap -->
<g id="node6" class="node"><title>CTcap</title>
<ellipse fill="none" stroke="black" cx="194" cy="-141" rx="18" ry="18"/>
<text text-anchor="middle" x="194" y="-138.5" font-family="Times Roman,serif" font-size="10.00">CTcap</text>
</g>
<!-- DiffusionTransport_intermediate_r -->
<g id="node36" class="node"><title>DiffusionTransport_intermediate_r</title>
<ellipse fill="black" stroke="black" cx="249" cy="-141" rx="0.036" ry="0.036"/>
</g>
<!-- CTcap&#45;&gt;DiffusionTransport_intermediate_r -->
<g id="edge34" class="edge"><title>CTcap&#45;&gt;DiffusionTransport_intermediate_r</title>
<path fill="none" stroke="black" d="M222.237,-141C235.207,-141 247.958,-141 248.939,-141"/>
<polygon fill="black" stroke="black" points="222.009,-137.5 212.009,-141 222.009,-144.5 222.009,-137.5"/>
</g>
<!-- CTtis -->
<g id="node7" class="node"><title>CTtis</title>
<ellipse fill="none" stroke="black" cx="414" cy="-119" rx="18" ry="18"/>
<text text-anchor="middle" x="414" y="-116.5" font-family="Times Roman,serif" font-size="10.00">CTtis</text>
</g>
<!-- CTtis&#45;&gt;OxidativePhosphorylation_intermediate_r -->
<g id="edge14" class="edge"><title>CTtis&#45;&gt;OxidativePhosphorylation_intermediate_r</title>
<path fill="none" stroke="black" d="M439.763,-130.711C453.521,-136.964 467.86,-143.482 468.936,-143.971"/>
<polygon fill="black" stroke="black" points="441.054,-127.453 430.502,-126.501 438.157,-133.825 441.054,-127.453"/>
</g>
<!-- CFcap -->
<g id="node8" class="node"><title>CFcap</title>
<ellipse fill="none" stroke="black" cx="304" cy="-98" rx="18" ry="18"/>
<text text-anchor="middle" x="304" y="-95.5" font-family="Times Roman,serif" font-size="10.00">CFcap</text>
</g>
<!-- DiffusionTransport_intermediate_m -->
<g id="node42" class="node"><title>DiffusionTransport_intermediate_m</title>
<ellipse fill="black" stroke="black" cx="359" cy="-98" rx="0.036" ry="0.036"/>
</g>
<!-- CFcap&#45;&gt;DiffusionTransport_intermediate_m -->
<g id="edge42" class="edge"><title>CFcap&#45;&gt;DiffusionTransport_intermediate_m</title>
<path fill="none" stroke="black" d="M322.009,-98C337.548,-98 357.695,-98 358.939,-98"/>
</g>
<!-- CFtis -->
<g id="node9" class="node"><title>CFtis</title>
<ellipse fill="none" stroke="black" cx="304" cy="-44" rx="18" ry="18"/>
<text text-anchor="middle" x="304" y="-41.5" font-family="Times Roman,serif" font-size="10.00">CFtis</text>
</g>
<!-- CFtis&#45;&gt;OxidativePhosphorylation_intermediate_m -->
<g id="edge24" class="edge"><title>CFtis&#45;&gt;OxidativePhosphorylation_intermediate_m</title>
<path fill="none" stroke="black" d="M321.35,-49.1505C342.879,-55.0764 380.808,-64 414,-64 414,-64 414,-64 469,-64 516.688,-64 576.111,-64 577.956,-64"/>
</g>
<!-- CFtis&#45;&gt;DiffusionTransport_intermediate_m -->
<g id="edge44" class="edge"><title>CFtis&#45;&gt;DiffusionTransport_intermediate_m</title>
<path fill="none" stroke="black" d="M317.034,-56.7972C332.79,-72.2668 357.403,-96.4319 358.926,-97.9271"/>
</g>
<!-- ATPase -->
<g id="node10" class="node"><title>ATPase</title>
<polygon fill="none" stroke="black" points="311,-188 297,-188 297,-174 311,-174 311,-188"/>
</g>
<!-- ATPase_intermediate_p -->
<g id="node14" class="node"><title>ATPase_intermediate_p</title>
<ellipse fill="black" stroke="black" cx="359" cy="-178" rx="0.036" ry="0.036"/>
</g>
<!-- ATPase&#45;&gt;ATPase_intermediate_p -->
<g id="edge6" class="edge"><title>ATPase&#45;&gt;ATPase_intermediate_p</title>
<path fill="none" stroke="black" d="M311.19,-180.608C325.633,-179.82 356.961,-178.111 358.905,-178.005"/>
</g>
<!-- ATPase_intermediate_r&#45;&gt;ATPase -->
<g id="edge2" class="edge"><title>ATPase_intermediate_r&#45;&gt;ATPase</title>
<path fill="none" stroke="black" d="M249.158,-185.986C251.628,-185.761 282.463,-182.958 296.781,-181.656"/>
</g>
<!-- ATPase_intermediate_p&#45;&gt;ADP -->
<g id="edge8" class="edge"><title>ATPase_intermediate_p&#45;&gt;ADP</title>
<path fill="none" stroke="black" d="M359.158,-177.986C360.699,-177.846 373.285,-176.701 386.011,-175.544"/>
<polygon fill="black" stroke="black" points="386.396,-179.024 396.039,-174.633 385.763,-172.053 386.396,-179.024"/>
</g>
<!-- OxidativePhosphorylation -->
<g id="node17" class="node"><title>OxidativePhosphorylation</title>
<polygon fill="none" stroke="black" points="531,-151 517,-151 517,-137 531,-137 531,-151"/>
</g>
<!-- OxidativePhosphorylation_intermediate_p -->
<g id="node22" class="node"><title>OxidativePhosphorylation_intermediate_p</title>
<ellipse fill="black" stroke="black" cx="578" cy="-194" rx="0.036" ry="0.036"/>
</g>
<!-- OxidativePhosphorylation&#45;&gt;OxidativePhosphorylation_intermediate_p -->
<g id="edge16" class="edge"><title>OxidativePhosphorylation&#45;&gt;OxidativePhosphorylation_intermediate_p</title>
<path fill="none" stroke="black" d="M531.06,-150.537C545.239,-163.666 575.998,-192.147 577.907,-193.914"/>
</g>
<!-- OxidativePhosphorylation&#45;&gt;OxidativePhosphorylation_intermediate_m -->
<g id="edge20" class="edge"><title>OxidativePhosphorylation&#45;&gt;OxidativePhosphorylation_intermediate_m</title>
<path fill="none" stroke="black" d="M535.522,-126.931C550.805,-104.289 576.08,-66.8449 577.896,-64.1536"/>
<polygon fill="none" stroke="black" points="535.506,-126.954 535.464,-134.165 528.792,-136.901 528.834,-129.69 535.506,-126.954"/>
</g>
<!-- OxidativePhosphorylation_intermediate_r&#45;&gt;OxidativePhosphorylation -->
<g id="edge10" class="edge"><title>OxidativePhosphorylation_intermediate_r&#45;&gt;OxidativePhosphorylation</title>
<path fill="none" stroke="black" d="M469.158,-144C471.628,-144 502.463,-144 516.781,-144"/>
</g>
<!-- OxidativePhosphorylation_intermediate_p&#45;&gt;ATP -->
<g id="edge18" class="edge"><title>OxidativePhosphorylation_intermediate_p&#45;&gt;ATP</title>
<path fill="none" stroke="black" d="M577.957,-194.018C576.149,-194.775 517.926,-219 469,-219 304,-219 304,-219 304,-219 276.264,-219 244.595,-219 222.382,-219"/>
<polygon fill="black" stroke="black" points="222.296,-215.5 212.296,-219 222.296,-222.5 222.296,-215.5"/>
</g>
<!-- ConvectionTransport -->
<g id="node29" class="node"><title>ConvectionTransport</title>
<polygon fill="none" stroke="black" points="104,-148 90,-148 90,-134 104,-134 104,-148"/>
</g>
<!-- ConvectionTransport_intermediate_p -->
<g id="node32" class="node"><title>ConvectionTransport_intermediate_p</title>
<ellipse fill="black" stroke="black" cx="140" cy="-141" rx="0.036" ry="0.036"/>
</g>
<!-- ConvectionTransport&#45;&gt;ConvectionTransport_intermediate_p -->
<g id="edge28" class="edge"><title>ConvectionTransport&#45;&gt;ConvectionTransport_intermediate_p</title>
<path fill="none" stroke="black" d="M104.101,-141C115.932,-141 138.531,-141 139.932,-141"/>
</g>
<!-- ConvectionTransport_empty -->
<g id="node30" class="node"><title>ConvectionTransport_empty</title>
<text text-anchor="middle" x="27" y="-136.5" font-family="Times Roman,serif" font-size="15.00" fill="blue">Ø</text>
</g>
<!-- ConvectionTransport_empty&#45;&gt;ConvectionTransport -->
<g id="edge26" class="edge"><title>ConvectionTransport_empty&#45;&gt;ConvectionTransport</title>
<path fill="none" stroke="black" d="M54.2643,-141C67.1627,-141 81.5367,-141 89.8947,-141"/>
</g>
<!-- ConvectionTransport_intermediate_p&#45;&gt;CTcap -->
<g id="edge30" class="edge"><title>ConvectionTransport_intermediate_p&#45;&gt;CTcap</title>
<path fill="none" stroke="black" d="M140.155,-141C141.634,-141 153.471,-141 165.67,-141"/>
<polygon fill="black" stroke="black" points="165.784,-144.5 175.784,-141 165.784,-137.5 165.784,-144.5"/>
</g>
<!-- DiffusionTransport -->
<g id="node35" class="node"><title>DiffusionTransport</title>
<polygon fill="none" stroke="black" points="311,-148 297,-148 297,-134 311,-134 311,-148"/>
</g>
<!-- DiffusionTransport_intermediate_p -->
<g id="node39" class="node"><title>DiffusionTransport_intermediate_p</title>
<ellipse fill="black" stroke="black" cx="359" cy="-128" rx="0.036" ry="0.036"/>
</g>
<!-- DiffusionTransport&#45;&gt;DiffusionTransport_intermediate_p -->
<g id="edge36" class="edge"><title>DiffusionTransport&#45;&gt;DiffusionTransport_intermediate_p</title>
<path fill="none" stroke="black" d="M311.19,-139.3C325.633,-135.887 356.961,-128.482 358.905,-128.022"/>
</g>
<!-- DiffusionTransport&#45;&gt;DiffusionTransport_intermediate_m -->
<g id="edge40" class="edge"><title>DiffusionTransport&#45;&gt;DiffusionTransport_intermediate_m</title>
<path fill="none" stroke="black" d="M320.79,-127.873C336.348,-115.71 357.326,-99.309 358.905,-98.0741"/>
<polygon fill="none" stroke="black" points="320.644,-127.987 318.381,-134.834 311.19,-135.379 313.453,-128.532 320.644,-127.987"/>
</g>
<!-- DiffusionTransport_intermediate_r&#45;&gt;DiffusionTransport -->
<g id="edge32" class="edge"><title>DiffusionTransport_intermediate_r&#45;&gt;DiffusionTransport</title>
<path fill="none" stroke="black" d="M249.158,-141C251.628,-141 282.463,-141 296.781,-141"/>
</g>
<!-- DiffusionTransport_intermediate_p&#45;&gt;CTtis -->
<g id="edge38" class="edge"><title>DiffusionTransport_intermediate_p&#45;&gt;CTtis</title>
<path fill="none" stroke="black" d="M359.158,-127.974C360.699,-127.722 373.285,-125.662 386.011,-123.58"/>
<polygon fill="black" stroke="black" points="386.735,-127.008 396.039,-121.939 385.605,-120.1 386.735,-127.008"/>
</g>
<!-- CreatineKinase -->
<g id="node46" class="node"><title>CreatineKinase</title>
<polygon fill="none" stroke="black" points="531,-277 517,-277 517,-263 531,-263 531,-277"/>
</g>
<!-- CreatineKinase_intermediate_p -->
<g id="node51" class="node"><title>CreatineKinase_intermediate_p</title>
<ellipse fill="black" stroke="black" cx="578" cy="-290" rx="0.036" ry="0.036"/>
</g>
<!-- CreatineKinase&#45;&gt;CreatineKinase_intermediate_p -->
<g id="edge52" class="edge"><title>CreatineKinase&#45;&gt;CreatineKinase_intermediate_p</title>
<path fill="none" stroke="black" d="M531.06,-272.615C545.239,-277.866 575.998,-289.259 577.907,-289.966"/>
</g>
<!-- CreatineKinase_intermediate_r&#45;&gt;CreatineKinase -->
<g id="edge46" class="edge"><title>CreatineKinase_intermediate_r&#45;&gt;CreatineKinase</title>
<path fill="none" stroke="black" d="M469.158,-265.014C471.628,-265.239 502.463,-268.042 516.781,-269.344"/>
</g>
<!-- CreatineKinase_intermediate_p&#45;&gt;ATP -->
<g id="edge54" class="edge"><title>CreatineKinase_intermediate_p&#45;&gt;ATP</title>
<path fill="none" stroke="black" d="M577.957,-290.015C576.138,-290.651 517.564,-311 469,-311 304,-311 304,-311 304,-311 261.725,-311 227.136,-270.523 208.636,-243.266"/>
<polygon fill="black" stroke="black" points="211.384,-241.072 202.991,-234.607 205.52,-244.895 211.384,-241.072"/>
</g>
<!-- CreatineKinase_intermediate_p&#45;&gt;Cr -->
<g id="edge56" class="edge"><title>CreatineKinase_intermediate_p&#45;&gt;Cr</title>
<path fill="none" stroke="black" d="M578.155,-290C579.634,-290 591.471,-290 603.67,-290"/>
<polygon fill="black" stroke="black" points="603.784,-293.5 613.784,-290 603.784,-286.5 603.784,-293.5"/>
</g>
</g>
</svg>
