<?xml version="1.0" encoding="UTF-8" standalone="no"?>
<!DOCTYPE svg PUBLIC "-//W3C//DTD SVG 1.1//EN"
 "http://www.w3.org/Graphics/SVG/1.1/DTD/svg11.dtd">
<!-- Generated by graphviz version 2.24.0 (20090616.2323)
 -->
<!-- Title: G Pages: 1 -->
<svg width="2952pt" height="542pt"
 viewBox="0.00 0.00 2952.00 542.00" xmlns="http://www.w3.org/2000/svg" xmlns:xlink="http://www.w3.org/1999/xlink">
<g id="graph1" class="graph" transform="scale(1 1) rotate(0) translate(4 538)">
<title>G</title>
<polygon fill="white" stroke="white" points="-4,5 -4,-538 2949,-538 2949,5 -4,5"/>
<!-- x1 -->
<g id="node1" class="node"><title>x1</title>
<polyline fill="none" stroke="black" points="66,-234 36,-234 "/>
<path fill="none" stroke="black" d="M36,-234C30,-234 24,-228 24,-222"/>
<polyline fill="none" stroke="black" points="24,-222 24,-210 "/>
<path fill="none" stroke="black" d="M24,-210C24,-204 30,-198 36,-198"/>
<polyline fill="none" stroke="black" points="36,-198 66,-198 "/>
<path fill="none" stroke="black" d="M66,-198C72,-198 78,-204 78,-210"/>
<polyline fill="none" stroke="black" points="78,-210 78,-222 "/>
<path fill="none" stroke="black" d="M78,-222C78,-228 72,-234 66,-234"/>
<text text-anchor="middle" x="51" y="-213.5" font-family="Times Roman,serif" font-size="10.00">Insulin</text>
</g>
<!-- R1_intermediate_m -->
<g id="node29" class="node"><title>R1_intermediate_m</title>
<ellipse fill="black" stroke="black" cx="145" cy="-200" rx="0.036" ry="0.036"/>
</g>
<!-- x1&#45;&gt;R1_intermediate_m -->
<g id="edge12" class="edge"><title>x1&#45;&gt;R1_intermediate_m</title>
<path fill="none" stroke="black" d="M78.1887,-211.372C105.083,-206.794 142.57,-200.414 144.887,-200.019"/>
</g>
<!-- R3_intermediate_m -->
<g id="node46" class="node"><title>R3_intermediate_m</title>
<ellipse fill="black" stroke="black" cx="1313" cy="-243" rx="0.036" ry="0.036"/>
</g>
<!-- x1&#45;&gt;R3_intermediate_m -->
<g id="edge32" class="edge"><title>x1&#45;&gt;R3_intermediate_m</title>
<path fill="none" stroke="black" d="M78.2911,-221.944C123.235,-231.198 215.747,-248 295,-248 295,-248 295,-248 1053,-248 1166.77,-248 1308.49,-243.155 1312.89,-243.004"/>
</g>
<!-- x2 -->
<g id="node2" class="node"><title>x2</title>
<polyline fill="none" stroke="black" points="1541,-64 1423,-64 "/>
<path fill="none" stroke="black" d="M1423,-64C1417,-64 1411,-58 1411,-52"/>
<polyline fill="none" stroke="black" points="1411,-52 1411,-40 "/>
<path fill="none" stroke="black" d="M1411,-40C1411,-34 1417,-28 1423,-28"/>
<polyline fill="none" stroke="black" points="1423,-28 1541,-28 "/>
<path fill="none" stroke="black" d="M1541,-28C1547,-28 1553,-34 1553,-40"/>
<polyline fill="none" stroke="black" points="1553,-40 1553,-52 "/>
<path fill="none" stroke="black" d="M1553,-52C1553,-58 1547,-64 1541,-64"/>
<text text-anchor="middle" x="1482" y="-43.5" font-family="Times Roman,serif" font-size="10.00">Unbound Insulin Receptor</text>
</g>
<!-- R1_intermediate_r -->
<g id="node23" class="node"><title>R1_intermediate_r</title>
<ellipse fill="black" stroke="black" cx="1651" cy="-9" rx="0.036" ry="0.036"/>
</g>
<!-- x2&#45;&gt;R1_intermediate_r -->
<g id="edge4" class="edge"><title>x2&#45;&gt;R1_intermediate_r</title>
<path fill="none" stroke="black" d="M1563.67,-28.1204C1605.39,-18.9866 1648.03,-9.65084 1650.85,-9.03251"/>
<polygon fill="black" stroke="black" points="1562.69,-24.7509 1553.67,-30.3087 1564.19,-31.5889 1562.69,-24.7509"/>
</g>
<!-- R5_intermediate_r -->
<g id="node57" class="node"><title>R5_intermediate_r</title>
<ellipse fill="black" stroke="black" cx="1748" cy="-13" rx="0.036" ry="0.036"/>
</g>
<!-- x2&#45;&gt;R5_intermediate_r -->
<g id="edge44" class="edge"><title>x2&#45;&gt;R5_intermediate_r</title>
<path fill="none" stroke="black" d="M1563.82,-35.8499C1640.71,-26.31 1744.55,-13.4282 1747.92,-13.0104"/>
<polygon fill="black" stroke="black" points="1563.13,-32.4086 1553.63,-37.1132 1563.99,-39.3553 1563.13,-32.4086"/>
</g>
<!-- x3 -->
<g id="node3" class="node"><title>x3</title>
<polyline fill="none" stroke="black" points="390,-169 200,-169 "/>
<path fill="none" stroke="black" d="M200,-169C194,-169 188,-163 188,-157"/>
<polyline fill="none" stroke="black" points="188,-157 188,-145 "/>
<path fill="none" stroke="black" d="M188,-145C188,-139 194,-133 200,-133"/>
<polyline fill="none" stroke="black" points="200,-133 390,-133 "/>
<path fill="none" stroke="black" d="M390,-133C396,-133 402,-139 402,-145"/>
<polyline fill="none" stroke="black" points="402,-145 402,-157 "/>
<path fill="none" stroke="black" d="M402,-157C402,-163 396,-169 390,-169"/>
<text text-anchor="middle" x="295" y="-148.5" font-family="Times Roman,serif" font-size="10.00">Unphosphorylated once bound receptor</text>
</g>
<!-- R2_intermediate_r -->
<g id="node33" class="node"><title>R2_intermediate_r</title>
<ellipse fill="black" stroke="black" cx="493" cy="-151" rx="0.036" ry="0.036"/>
</g>
<!-- x3&#45;&gt;R2_intermediate_r -->
<g id="edge16" class="edge"><title>x3&#45;&gt;R2_intermediate_r</title>
<path fill="none" stroke="black" d="M402.113,-151C447.308,-151 490.233,-151 492.872,-151"/>
</g>
<!-- x5 -->
<g id="node4" class="node"><title>x5</title>
<polyline fill="none" stroke="black" points="950,-169 772,-169 "/>
<path fill="none" stroke="black" d="M772,-169C766,-169 760,-163 760,-157"/>
<polyline fill="none" stroke="black" points="760,-157 760,-145 "/>
<path fill="none" stroke="black" d="M760,-145C760,-139 766,-133 772,-133"/>
<polyline fill="none" stroke="black" points="772,-133 950,-133 "/>
<path fill="none" stroke="black" d="M950,-133C956,-133 962,-139 962,-145"/>
<polyline fill="none" stroke="black" points="962,-145 962,-157 "/>
<path fill="none" stroke="black" d="M962,-157C962,-163 956,-169 950,-169"/>
<text text-anchor="middle" x="861" y="-148.5" font-family="Times Roman,serif" font-size="10.00">Phosphorylated once bound receptor</text>
</g>
<!-- R3_intermediate_r -->
<g id="node40" class="node"><title>R3_intermediate_r</title>
<ellipse fill="black" stroke="black" cx="1053" cy="-210" rx="0.036" ry="0.036"/>
</g>
<!-- x5&#45;&gt;R3_intermediate_r -->
<g id="edge24" class="edge"><title>x5&#45;&gt;R3_intermediate_r</title>
<path fill="none" stroke="black" d="M929.268,-171.978C983.535,-188.654 1050.73,-209.304 1052.94,-209.983"/>
<polygon fill="black" stroke="black" points="930.237,-168.614 919.65,-169.023 928.18,-175.306 930.237,-168.614"/>
</g>
<!-- R4_intermediate_r -->
<g id="node50" class="node"><title>R4_intermediate_r</title>
<ellipse fill="black" stroke="black" cx="1053" cy="-85" rx="0.036" ry="0.036"/>
</g>
<!-- x5&#45;&gt;R4_intermediate_r -->
<g id="edge36" class="edge"><title>x5&#45;&gt;R4_intermediate_r</title>
<path fill="none" stroke="black" d="M913.465,-132.965C969.424,-113.729 1050.42,-85.8861 1052.94,-85.0207"/>
</g>
<!-- R7_intermediate_r -->
<g id="node71" class="node"><title>R7_intermediate_r</title>
<ellipse fill="black" stroke="black" cx="1053" cy="-141" rx="0.036" ry="0.036"/>
</g>
<!-- x5&#45;&gt;R7_intermediate_r -->
<g id="edge60" class="edge"><title>x5&#45;&gt;R7_intermediate_r</title>
<path fill="none" stroke="black" d="M972.257,-145.205C1013.24,-143.071 1050.41,-141.135 1052.87,-141.007"/>
<polygon fill="black" stroke="black" points="971.865,-141.721 962.06,-145.736 972.229,-148.711 971.865,-141.721"/>
</g>
<!-- R12_intermediate_m -->
<g id="node110" class="node"><title>R12_intermediate_m</title>
<ellipse fill="black" stroke="black" cx="1651" cy="-178" rx="0.036" ry="0.036"/>
</g>
<!-- x5&#45;&gt;R12_intermediate_m -->
<g id="edge106" class="edge"><title>x5&#45;&gt;R12_intermediate_m</title>
<path fill="none" stroke="black" d="M962.017,-162.961C1031.62,-170.183 1126.29,-178 1210,-178 1210,-178 1210,-178 1313,-178 1460.88,-178 1645.14,-178 1650.86,-178"/>
</g>
<!-- x4 -->
<g id="node5" class="node"><title>x4</title>
<polyline fill="none" stroke="black" points="1573,-242 1391,-242 "/>
<path fill="none" stroke="black" d="M1391,-242C1385,-242 1379,-236 1379,-230"/>
<polyline fill="none" stroke="black" points="1379,-230 1379,-218 "/>
<path fill="none" stroke="black" d="M1379,-218C1379,-212 1385,-206 1391,-206"/>
<polyline fill="none" stroke="black" points="1391,-206 1573,-206 "/>
<path fill="none" stroke="black" d="M1573,-206C1579,-206 1585,-212 1585,-218"/>
<polyline fill="none" stroke="black" points="1585,-218 1585,-230 "/>
<path fill="none" stroke="black" d="M1585,-230C1585,-236 1579,-242 1573,-242"/>
<text text-anchor="middle" x="1482" y="-221.5" font-family="Times Roman,serif" font-size="10.00">Phosphorylated twice bound receptor</text>
</g>
<!-- R6_intermediate_r -->
<g id="node64" class="node"><title>R6_intermediate_r</title>
<ellipse fill="black" stroke="black" cx="1651" cy="-210" rx="0.036" ry="0.036"/>
</g>
<!-- x4&#45;&gt;R6_intermediate_r -->
<g id="edge52" class="edge"><title>x4&#45;&gt;R6_intermediate_r</title>
<path fill="none" stroke="black" d="M1595.4,-214.606C1625.03,-212.151 1649.27,-210.144 1650.91,-210.007"/>
<polygon fill="black" stroke="black" points="1594.85,-211.139 1585.18,-215.453 1595.43,-218.115 1594.85,-211.139"/>
</g>
<!-- x4&#45;&gt;R12_intermediate_m -->
<g id="edge104" class="edge"><title>x4&#45;&gt;R12_intermediate_m</title>
<path fill="none" stroke="black" d="M1563.41,-205.94C1580.24,-201.739 1597.78,-197.014 1614,-192 1630.27,-186.97 1649.74,-178.547 1650.94,-178.025"/>
</g>
<!-- x6 -->
<g id="node6" class="node"><title>x6</title>
<polyline fill="none" stroke="black" points="2756,-116 2520,-116 "/>
<path fill="none" stroke="black" d="M2520,-116C2514,-116 2508,-110 2508,-104"/>
<polyline fill="none" stroke="black" points="2508,-104 2508,-92 "/>
<path fill="none" stroke="black" d="M2508,-92C2508,-86 2514,-80 2520,-80"/>
<polyline fill="none" stroke="black" points="2520,-80 2756,-80 "/>
<path fill="none" stroke="black" d="M2756,-80C2762,-80 2768,-86 2768,-92"/>
<polyline fill="none" stroke="black" points="2768,-92 2768,-104 "/>
<path fill="none" stroke="black" d="M2768,-104C2768,-110 2762,-116 2756,-116"/>
<text text-anchor="middle" x="2638" y="-95.5" font-family="Times Roman,serif" font-size="10.00">Unbound unphosphorylated intracellular receptor</text>
</g>
<!-- R9_intermediate_r -->
<g id="node84" class="node"><title>R9_intermediate_r</title>
<ellipse fill="black" stroke="black" cx="2804" cy="-98" rx="0.036" ry="0.036"/>
</g>
<!-- x6&#45;&gt;R9_intermediate_r -->
<g id="edge74" class="edge"><title>x6&#45;&gt;R9_intermediate_r</title>
<path fill="none" stroke="black" d="M2768.39,-98C2788.53,-98 2803.07,-98 2803.96,-98"/>
</g>
<!-- x7 -->
<g id="node7" class="node"><title>x7</title>
<polyline fill="none" stroke="black" points="2149,-212 1907,-212 "/>
<path fill="none" stroke="black" d="M1907,-212C1901,-212 1895,-206 1895,-200"/>
<polyline fill="none" stroke="black" points="1895,-200 1895,-188 "/>
<path fill="none" stroke="black" d="M1895,-188C1895,-182 1901,-176 1907,-176"/>
<polyline fill="none" stroke="black" points="1907,-176 2149,-176 "/>
<path fill="none" stroke="black" d="M2149,-176C2155,-176 2161,-182 2161,-188"/>
<polyline fill="none" stroke="black" points="2161,-188 2161,-200 "/>
<path fill="none" stroke="black" d="M2161,-200C2161,-206 2155,-212 2149,-212"/>
<text text-anchor="middle" x="2028" y="-191.5" font-family="Times Roman,serif" font-size="10.00">Phosphorylated twice bound intracellular receptor</text>
</g>
<!-- R10_intermediate_r -->
<g id="node90" class="node"><title>R10_intermediate_r</title>
<ellipse fill="black" stroke="black" cx="2225" cy="-188" rx="0.036" ry="0.036"/>
</g>
<!-- x7&#45;&gt;R10_intermediate_r -->
<g id="edge80" class="edge"><title>x7&#45;&gt;R10_intermediate_r</title>
<path fill="none" stroke="black" d="M2161.58,-189.931C2195.62,-188.895 2223.23,-188.054 2224.92,-188.003"/>
</g>
<!-- x8 -->
<g id="node8" class="node"><title>x8</title>
<polyline fill="none" stroke="black" points="1602,-150 1362,-150 "/>
<path fill="none" stroke="black" d="M1362,-150C1356,-150 1350,-144 1350,-138"/>
<polyline fill="none" stroke="black" points="1350,-138 1350,-126 "/>
<path fill="none" stroke="black" d="M1350,-126C1350,-120 1356,-114 1362,-114"/>
<polyline fill="none" stroke="black" points="1362,-114 1602,-114 "/>
<path fill="none" stroke="black" d="M1602,-114C1608,-114 1614,-120 1614,-126"/>
<polyline fill="none" stroke="black" points="1614,-126 1614,-138 "/>
<path fill="none" stroke="black" d="M1614,-138C1614,-144 1608,-150 1602,-150"/>
<text text-anchor="middle" x="1482" y="-129.5" font-family="Times Roman,serif" font-size="10.00">Phosphorylated once bound intracellular receptor</text>
</g>
<!-- R11_intermediate_r -->
<g id="node97" class="node"><title>R11_intermediate_r</title>
<ellipse fill="black" stroke="black" cx="1748" cy="-141" rx="0.036" ry="0.036"/>
</g>
<!-- x8&#45;&gt;R11_intermediate_r -->
<g id="edge88" class="edge"><title>x8&#45;&gt;R11_intermediate_r</title>
<path fill="none" stroke="black" d="M1614.22,-136.474C1679.94,-138.697 1745.91,-140.929 1747.95,-140.998"/>
</g>
<!-- x9 -->
<g id="node9" class="node"><title>x9</title>
<polyline fill="none" stroke="black" points="1264,-107 1156,-107 "/>
<path fill="none" stroke="black" d="M1156,-107C1150,-107 1144,-101 1144,-95"/>
<polyline fill="none" stroke="black" points="1144,-95 1144,-83 "/>
<path fill="none" stroke="black" d="M1144,-83C1144,-77 1150,-71 1156,-71"/>
<polyline fill="none" stroke="black" points="1156,-71 1264,-71 "/>
<path fill="none" stroke="black" d="M1264,-71C1270,-71 1276,-77 1276,-83"/>
<polyline fill="none" stroke="black" points="1276,-83 1276,-95 "/>
<path fill="none" stroke="black" d="M1276,-95C1276,-101 1270,-107 1264,-107"/>
<text text-anchor="middle" x="1210" y="-86.5" font-family="Times Roman,serif" font-size="10.00">Unphosphorylated IRS1</text>
</g>
<!-- R12_intermediate_r -->
<g id="node104" class="node"><title>R12_intermediate_r</title>
<ellipse fill="black" stroke="black" cx="1313" cy="-89" rx="0.036" ry="0.036"/>
</g>
<!-- x9&#45;&gt;R12_intermediate_r -->
<g id="edge96" class="edge"><title>x9&#45;&gt;R12_intermediate_r</title>
<path fill="none" stroke="black" d="M1286.22,-89C1300.94,-89 1312.13,-89 1312.95,-89"/>
<polygon fill="black" stroke="black" points="1286.11,-85.5001 1276.11,-89 1286.11,-92.5001 1286.11,-85.5001"/>
</g>
<!-- x10 -->
<g id="node10" class="node"><title>x10</title>
<polyline fill="none" stroke="black" points="1796,-121 1700,-121 "/>
<path fill="none" stroke="black" d="M1700,-121C1694,-121 1688,-115 1688,-109"/>
<polyline fill="none" stroke="black" points="1688,-109 1688,-97 "/>
<path fill="none" stroke="black" d="M1688,-97C1688,-91 1694,-85 1700,-85"/>
<polyline fill="none" stroke="black" points="1700,-85 1796,-85 "/>
<path fill="none" stroke="black" d="M1796,-85C1802,-85 1808,-91 1808,-97"/>
<polyline fill="none" stroke="black" points="1808,-97 1808,-109 "/>
<path fill="none" stroke="black" d="M1808,-109C1808,-115 1802,-121 1796,-121"/>
<text text-anchor="middle" x="1748" y="-100.5" font-family="Times Roman,serif" font-size="10.00">Phosphorylated IRS1</text>
</g>
<!-- R13_intermediate_r -->
<g id="node115" class="node"><title>R13_intermediate_r</title>
<ellipse fill="black" stroke="black" cx="1851" cy="-101" rx="0.036" ry="0.036"/>
</g>
<!-- x10&#45;&gt;R13_intermediate_r -->
<g id="edge112" class="edge"><title>x10&#45;&gt;R13_intermediate_r</title>
<path fill="none" stroke="black" d="M1818.23,-101.636C1835.75,-101.296 1849.92,-101.021 1850.94,-101.001"/>
<polygon fill="black" stroke="black" points="1818.14,-98.1372 1808.21,-101.831 1818.28,-105.136 1818.14,-98.1372"/>
</g>
<!-- x11 -->
<g id="node11" class="node"><title>x11</title>
<polyline fill="none" stroke="black" points="1770,-67 1726,-67 "/>
<path fill="none" stroke="black" d="M1726,-67C1720,-67 1714,-61 1714,-55"/>
<polyline fill="none" stroke="black" points="1714,-55 1714,-43 "/>
<path fill="none" stroke="black" d="M1714,-43C1714,-37 1720,-31 1726,-31"/>
<polyline fill="none" stroke="black" points="1726,-31 1770,-31 "/>
<path fill="none" stroke="black" d="M1770,-31C1776,-31 1782,-37 1782,-43"/>
<polyline fill="none" stroke="black" points="1782,-43 1782,-55 "/>
<path fill="none" stroke="black" d="M1782,-55C1782,-61 1776,-67 1770,-67"/>
<text text-anchor="middle" x="1748" y="-46.5" font-family="Times Roman,serif" font-size="10.00">PI3 Kinase</text>
</g>
<!-- x11&#45;&gt;R13_intermediate_r -->
<g id="edge110" class="edge"><title>x11&#45;&gt;R13_intermediate_r</title>
<path fill="none" stroke="black" d="M1791.55,-67.9546C1797.13,-70.5702 1802.73,-73.2906 1808,-76 1827.05,-85.7892 1849.54,-100.074 1850.93,-100.957"/>
<polygon fill="black" stroke="black" points="1792.79,-64.6733 1782.24,-63.6722 1789.87,-71.0322 1792.79,-64.6733"/>
</g>
<!-- x12 -->
<g id="node12" class="node"><title>x12</title>
<polyline fill="none" stroke="black" points="2421,-119 2301,-119 "/>
<path fill="none" stroke="black" d="M2301,-119C2295,-119 2289,-113 2289,-107"/>
<polyline fill="none" stroke="black" points="2289,-107 2289,-95 "/>
<path fill="none" stroke="black" d="M2289,-95C2289,-89 2295,-83 2301,-83"/>
<polyline fill="none" stroke="black" points="2301,-83 2421,-83 "/>
<path fill="none" stroke="black" d="M2421,-83C2427,-83 2433,-89 2433,-95"/>
<polyline fill="none" stroke="black" points="2433,-95 2433,-107 "/>
<path fill="none" stroke="black" d="M2433,-107C2433,-113 2427,-119 2421,-119"/>
<text text-anchor="middle" x="2361" y="-98.5" font-family="Times Roman,serif" font-size="10.00">IRS1&#45; PI3 Kinase Complex</text>
</g>
<!-- x13 -->
<g id="node13" class="node"><title>x13</title>
<ellipse fill="none" stroke="black" cx="629" cy="-309" rx="38.782" ry="18"/>
<text text-anchor="middle" x="629" y="-306.5" font-family="Times Roman,serif" font-size="10.00">PI3,4,5P3</text>
</g>
<!-- x14 -->
<g id="node14" class="node"><title>x14</title>
<ellipse fill="none" stroke="black" cx="51" cy="-331" rx="33.2417" ry="18"/>
<text text-anchor="middle" x="51" y="-328.5" font-family="Times Roman,serif" font-size="10.00">PI4,5P2</text>
</g>
<!-- R14_intermediate_r -->
<g id="node123" class="node"><title>R14_intermediate_r</title>
<ellipse fill="black" stroke="black" cx="145" cy="-329" rx="0.036" ry="0.036"/>
</g>
<!-- x14&#45;&gt;R14_intermediate_r -->
<g id="edge120" class="edge"><title>x14&#45;&gt;R14_intermediate_r</title>
<path fill="none" stroke="black" d="M94.1966,-330.081C118.015,-329.574 143.145,-329.039 144.902,-329.002"/>
<polygon fill="black" stroke="black" points="94.0641,-326.583 84.1409,-330.295 94.2131,-333.581 94.0641,-326.583"/>
</g>
<!-- x15 -->
<g id="node15" class="node"><title>x15</title>
<ellipse fill="none" stroke="black" cx="51" cy="-277" rx="33.2417" ry="18"/>
<text text-anchor="middle" x="51" y="-274.5" font-family="Times Roman,serif" font-size="10.00">PI3,4P2</text>
</g>
<!-- R15_intermediate_r -->
<g id="node130" class="node"><title>R15_intermediate_r</title>
<ellipse fill="black" stroke="black" cx="145" cy="-279" rx="0.036" ry="0.036"/>
</g>
<!-- x15&#45;&gt;R15_intermediate_r -->
<g id="edge128" class="edge"><title>x15&#45;&gt;R15_intermediate_r</title>
<path fill="none" stroke="black" d="M94.1966,-277.919C118.015,-278.426 143.145,-278.961 144.902,-278.998"/>
<polygon fill="black" stroke="black" points="94.2131,-274.419 84.1409,-277.705 94.0641,-281.417 94.2131,-274.419"/>
</g>
<!-- x16 -->
<g id="node16" class="node"><title>x16</title>
<polyline fill="none" stroke="black" points="88,-403 14,-403 "/>
<path fill="none" stroke="black" d="M14,-403C8,-403 2,-397 2,-391"/>
<polyline fill="none" stroke="black" points="2,-391 2,-379 "/>
<path fill="none" stroke="black" d="M2,-379C2,-373 8,-367 14,-367"/>
<polyline fill="none" stroke="black" points="14,-367 88,-367 "/>
<path fill="none" stroke="black" d="M88,-367C94,-367 100,-373 100,-379"/>
<polyline fill="none" stroke="black" points="100,-379 100,-391 "/>
<path fill="none" stroke="black" d="M100,-391C100,-397 94,-403 88,-403"/>
<text text-anchor="middle" x="51" y="-382.5" font-family="Times Roman,serif" font-size="10.00">Unactivated Akt</text>
</g>
<!-- R16_intermediate_r -->
<g id="node137" class="node"><title>R16_intermediate_r</title>
<ellipse fill="black" stroke="black" cx="145" cy="-385" rx="0.036" ry="0.036"/>
</g>
<!-- x16&#45;&gt;R16_intermediate_r -->
<g id="edge136" class="edge"><title>x16&#45;&gt;R16_intermediate_r</title>
<path fill="none" stroke="black" d="M110.861,-385C128.691,-385 143.845,-385 144.937,-385"/>
<polygon fill="black" stroke="black" points="110.753,-381.5 100.753,-385 110.752,-388.5 110.753,-381.5"/>
</g>
<!-- x17 -->
<g id="node17" class="node"><title>x17</title>
<polyline fill="none" stroke="black" points="660,-403 598,-403 "/>
<path fill="none" stroke="black" d="M598,-403C592,-403 586,-397 586,-391"/>
<polyline fill="none" stroke="black" points="586,-391 586,-379 "/>
<path fill="none" stroke="black" d="M586,-379C586,-373 592,-367 598,-367"/>
<polyline fill="none" stroke="black" points="598,-367 660,-367 "/>
<path fill="none" stroke="black" d="M660,-367C666,-367 672,-373 672,-379"/>
<polyline fill="none" stroke="black" points="672,-379 672,-391 "/>
<path fill="none" stroke="black" d="M672,-391C672,-397 666,-403 660,-403"/>
<text text-anchor="middle" x="629" y="-382.5" font-family="Times Roman,serif" font-size="10.00">Activated Akt</text>
</g>
<!-- x18 -->
<g id="node18" class="node"><title>x18</title>
<polyline fill="none" stroke="black" points="90,-457 12,-457 "/>
<path fill="none" stroke="black" d="M12,-457C6,-457 4.14483e-14,-451 3.31587e-14,-445"/>
<polyline fill="none" stroke="black" points="3.31587e-14,-445 1.65793e-14,-433 "/>
<path fill="none" stroke="black" d="M1.65793e-14,-433C8.28967e-15,-427 6,-421 12,-421"/>
<polyline fill="none" stroke="black" points="12,-421 90,-421 "/>
<path fill="none" stroke="black" d="M90,-421C96,-421 102,-427 102,-433"/>
<polyline fill="none" stroke="black" points="102,-433 102,-445 "/>
<path fill="none" stroke="black" d="M102,-445C102,-451 96,-457 90,-457"/>
<text text-anchor="middle" x="51" y="-436.5" font-family="Times Roman,serif" font-size="10.00">Unactivated PKC</text>
</g>
<!-- R17_intermediate_r -->
<g id="node144" class="node"><title>R17_intermediate_r</title>
<ellipse fill="black" stroke="black" cx="145" cy="-439" rx="0.036" ry="0.036"/>
</g>
<!-- x18&#45;&gt;R17_intermediate_r -->
<g id="edge144" class="edge"><title>x18&#45;&gt;R17_intermediate_r</title>
<path fill="none" stroke="black" d="M112.467,-439C129.606,-439 143.901,-439 144.94,-439"/>
<polygon fill="black" stroke="black" points="112.126,-435.5 102.126,-439 112.126,-442.5 112.126,-435.5"/>
</g>
<!-- x19 -->
<g id="node19" class="node"><title>x19</title>
<polyline fill="none" stroke="black" points="662,-457 596,-457 "/>
<path fill="none" stroke="black" d="M596,-457C590,-457 584,-451 584,-445"/>
<polyline fill="none" stroke="black" points="584,-445 584,-433 "/>
<path fill="none" stroke="black" d="M584,-433C584,-427 590,-421 596,-421"/>
<polyline fill="none" stroke="black" points="596,-421 662,-421 "/>
<path fill="none" stroke="black" d="M662,-421C668,-421 674,-427 674,-433"/>
<polyline fill="none" stroke="black" points="674,-433 674,-445 "/>
<path fill="none" stroke="black" d="M674,-445C674,-451 668,-457 662,-457"/>
<text text-anchor="middle" x="629" y="-436.5" font-family="Times Roman,serif" font-size="10.00">Activated PKC</text>
</g>
<!-- x20 -->
<g id="node20" class="node"><title>x20</title>
<polyline fill="none" stroke="black" points="536,-511 450,-511 "/>
<path fill="none" stroke="black" d="M450,-511C444,-511 438,-505 438,-499"/>
<polyline fill="none" stroke="black" points="438,-499 438,-487 "/>
<path fill="none" stroke="black" d="M438,-487C438,-481 444,-475 450,-475"/>
<polyline fill="none" stroke="black" points="450,-475 536,-475 "/>
<path fill="none" stroke="black" d="M536,-475C542,-475 548,-481 548,-487"/>
<polyline fill="none" stroke="black" points="548,-487 548,-499 "/>
<path fill="none" stroke="black" d="M548,-499C548,-505 542,-511 536,-511"/>
<text text-anchor="middle" x="493" y="-490.5" font-family="Times Roman,serif" font-size="10.00">Intracellular GLUT4</text>
</g>
<!-- R19_intermediate_r -->
<g id="node157" class="node"><title>R19_intermediate_r</title>
<ellipse fill="black" stroke="black" cx="629" cy="-511" rx="0.036" ry="0.036"/>
</g>
<!-- x20&#45;&gt;R19_intermediate_r -->
<g id="edge158" class="edge"><title>x20&#45;&gt;R19_intermediate_r</title>
<path fill="none" stroke="black" d="M548.316,-500.321C584.792,-505.149 626.316,-510.645 628.875,-510.984"/>
</g>
<!-- R20_intermediate_r -->
<g id="node163" class="node"><title>R20_intermediate_r</title>
<ellipse fill="black" stroke="black" cx="629" cy="-484" rx="0.036" ry="0.036"/>
</g>
<!-- x20&#45;&gt;R20_intermediate_r -->
<g id="edge164" class="edge"><title>x20&#45;&gt;R20_intermediate_r</title>
<path fill="none" stroke="black" d="M558.672,-488.654C592.235,-486.433 626.556,-484.162 628.875,-484.008"/>
<polygon fill="black" stroke="black" points="558.063,-485.187 548.316,-489.339 558.526,-492.171 558.063,-485.187"/>
</g>
<!-- x21 -->
<g id="node21" class="node"><title>x21</title>
<polyline fill="none" stroke="black" points="1096,-498 1010,-498 "/>
<path fill="none" stroke="black" d="M1010,-498C1004,-498 998,-492 998,-486"/>
<polyline fill="none" stroke="black" points="998,-486 998,-474 "/>
<path fill="none" stroke="black" d="M998,-474C998,-468 1004,-462 1010,-462"/>
<polyline fill="none" stroke="black" points="1010,-462 1096,-462 "/>
<path fill="none" stroke="black" d="M1096,-462C1102,-462 1108,-468 1108,-474"/>
<polyline fill="none" stroke="black" points="1108,-474 1108,-486 "/>
<path fill="none" stroke="black" d="M1108,-486C1108,-492 1102,-498 1096,-498"/>
<text text-anchor="middle" x="1053" y="-477.5" font-family="Times Roman,serif" font-size="10.00">Cell surface GLUT4</text>
</g>
<!-- R1 -->
<g id="node22" class="node"><title>R1</title>
<polygon fill="none" stroke="black" points="58,-158 44,-158 44,-144 58,-144 58,-158"/>
</g>
<!-- R1_intermediate_p -->
<g id="node26" class="node"><title>R1_intermediate_p</title>
<ellipse fill="black" stroke="black" cx="145" cy="-151" rx="0.036" ry="0.036"/>
</g>
<!-- R1&#45;&gt;R1_intermediate_p -->
<g id="edge6" class="edge"><title>R1&#45;&gt;R1_intermediate_p</title>
<path fill="none" stroke="black" d="M58.0653,-151C79.5845,-151 142.977,-151 144.953,-151"/>
</g>
<!-- R1&#45;&gt;R1_intermediate_m -->
<g id="edge10" class="edge"><title>R1&#45;&gt;R1_intermediate_m</title>
<path fill="none" stroke="black" d="M68.9756,-160.37C95.7704,-174.338 143.247,-199.086 144.953,-199.975"/>
<polygon fill="none" stroke="black" points="68.7063,-160.23 61.5368,-161.003 58.0653,-154.683 65.2348,-153.909 68.7063,-160.23"/>
</g>
<!-- R1_intermediate_r&#45;&gt;R1 -->
<g id="edge2" class="edge"><title>R1_intermediate_r&#45;&gt;R1</title>
<path fill="none" stroke="black" d="M1650.86,-8.99348C1645.14,-8.72095 1460.93,-0 1313,-0 295,-0 295,-0 295,-0 184.407,-0 82.1323,-113.554 56.9163,-143.717"/>
</g>
<!-- R1_intermediate_p&#45;&gt;x3 -->
<g id="edge8" class="edge"><title>R1_intermediate_p&#45;&gt;x3</title>
<path fill="none" stroke="black" d="M145.109,-151C146.425,-151 159.56,-151 177.556,-151"/>
<polygon fill="black" stroke="black" points="177.689,-154.5 187.689,-151 177.689,-147.5 177.689,-154.5"/>
</g>
<!-- R2 -->
<g id="node32" class="node"><title>R2</title>
<polygon fill="none" stroke="black" points="636,-158 622,-158 622,-144 636,-144 636,-158"/>
</g>
<!-- R2_intermediate_p -->
<g id="node36" class="node"><title>R2_intermediate_p</title>
<ellipse fill="black" stroke="black" cx="717" cy="-151" rx="0.036" ry="0.036"/>
</g>
<!-- R2&#45;&gt;R2_intermediate_p -->
<g id="edge18" class="edge"><title>R2&#45;&gt;R2_intermediate_p</title>
<path fill="none" stroke="black" d="M636.201,-151C656.89,-151 715.141,-151 716.957,-151"/>
</g>
<!-- R2_intermediate_r&#45;&gt;R2 -->
<g id="edge14" class="edge"><title>R2_intermediate_r&#45;&gt;R2</title>
<path fill="none" stroke="black" d="M493.099,-151C496.638,-151 594.461,-151 621.903,-151"/>
</g>
<!-- R2_intermediate_p&#45;&gt;x5 -->
<g id="edge20" class="edge"><title>R2_intermediate_p&#45;&gt;x5</title>
<path fill="none" stroke="black" d="M717.104,-151C718.404,-151 731.708,-151 749.746,-151"/>
<polygon fill="black" stroke="black" points="749.888,-154.5 759.888,-151 749.888,-147.5 749.888,-154.5"/>
</g>
<!-- R3 -->
<g id="node39" class="node"><title>R3</title>
<polygon fill="none" stroke="black" points="1217,-220 1203,-220 1203,-206 1217,-206 1217,-220"/>
</g>
<!-- R3_intermediate_p -->
<g id="node43" class="node"><title>R3_intermediate_p</title>
<ellipse fill="black" stroke="black" cx="1313" cy="-217" rx="0.036" ry="0.036"/>
</g>
<!-- R3&#45;&gt;R3_intermediate_p -->
<g id="edge26" class="edge"><title>R3&#45;&gt;R3_intermediate_p</title>
<path fill="none" stroke="black" d="M1217.08,-213.275C1239.99,-214.165 1310.74,-216.912 1312.95,-216.998"/>
</g>
<!-- R3&#45;&gt;R3_intermediate_m -->
<g id="edge30" class="edge"><title>R3&#45;&gt;R3_intermediate_m</title>
<path fill="none" stroke="black" d="M1228.86,-218.493C1258.05,-226.996 1311.04,-242.43 1312.95,-242.985"/>
<polygon fill="none" stroke="black" points="1228.6,-218.418 1221.72,-220.58 1217.08,-215.062 1223.96,-212.899 1228.6,-218.418"/>
</g>
<!-- R3_intermediate_r&#45;&gt;R3 -->
<g id="edge22" class="edge"><title>R3_intermediate_r&#45;&gt;R3</title>
<path fill="none" stroke="black" d="M1053.11,-210.002C1057.24,-210.081 1172.19,-212.278 1202.65,-212.86"/>
</g>
<!-- R3_intermediate_p&#45;&gt;x4 -->
<g id="edge28" class="edge"><title>R3_intermediate_p&#45;&gt;x4</title>
<path fill="none" stroke="black" d="M1313.12,-217.005C1315.04,-217.084 1339.11,-218.081 1368.51,-219.299"/>
<polygon fill="black" stroke="black" points="1368.53,-222.803 1378.66,-219.72 1368.82,-215.809 1368.53,-222.803"/>
</g>
<!-- R4 -->
<g id="node49" class="node"><title>R4</title>
<polygon fill="none" stroke="black" points="1217,-53 1203,-53 1203,-39 1217,-39 1217,-53"/>
</g>
<!-- R4_intermediate_p -->
<g id="node53" class="node"><title>R4_intermediate_p</title>
<ellipse fill="black" stroke="black" cx="1313" cy="-46" rx="0.036" ry="0.036"/>
</g>
<!-- R4&#45;&gt;R4_intermediate_p -->
<g id="edge38" class="edge"><title>R4&#45;&gt;R4_intermediate_p</title>
<path fill="none" stroke="black" d="M1217.08,-46C1239.99,-46 1310.74,-46 1312.95,-46"/>
</g>
<!-- R4_intermediate_r&#45;&gt;R4 -->
<g id="edge34" class="edge"><title>R4_intermediate_r&#45;&gt;R4</title>
<path fill="none" stroke="black" d="M1053.15,-84.9625C1056.15,-84.192 1104.77,-71.7121 1144,-62 1165.29,-56.7297 1190.48,-50.6715 1202.67,-47.7525"/>
</g>
<!-- R4_intermediate_p&#45;&gt;x2 -->
<g id="edge40" class="edge"><title>R4_intermediate_p&#45;&gt;x2</title>
<path fill="none" stroke="black" d="M1313.12,-46C1315.69,-46 1358.35,-46 1400.15,-46"/>
<polygon fill="black" stroke="black" points="1400.16,-49.5001 1410.16,-46 1400.16,-42.5001 1400.16,-49.5001"/>
</g>
<!-- R5 -->
<g id="node56" class="node"><title>R5</title>
<polygon fill="none" stroke="black" points="1858,-20 1844,-20 1844,-6 1858,-6 1858,-20"/>
</g>
<!-- R5_intermediate_p -->
<g id="node60" class="node"><title>R5_intermediate_p</title>
<ellipse fill="black" stroke="black" cx="2028" cy="-13" rx="0.036" ry="0.036"/>
</g>
<!-- R5&#45;&gt;R5_intermediate_p -->
<g id="edge46" class="edge"><title>R5&#45;&gt;R5_intermediate_p</title>
<path fill="none" stroke="black" d="M1858.16,-13C1890.75,-13 2023.75,-13 2027.9,-13"/>
</g>
<!-- R5_intermediate_r&#45;&gt;R5 -->
<g id="edge42" class="edge"><title>R5_intermediate_r&#45;&gt;R5</title>
<path fill="none" stroke="black" d="M1748.07,-13C1750.68,-13 1820.85,-13 1843.81,-13"/>
</g>
<!-- R5_intermediate_p&#45;&gt;x6 -->
<g id="edge48" class="edge"><title>R5_intermediate_p&#45;&gt;x6</title>
<path fill="none" stroke="black" d="M2028.17,-12.999C2035.1,-12.9598 2258.48,-11.9411 2434,-42 2481.66,-50.1612 2534.24,-64.7376 2574.09,-76.9731"/>
<polygon fill="black" stroke="black" points="2573.09,-80.3269 2583.68,-79.947 2575.16,-73.6412 2573.09,-80.3269"/>
</g>
<!-- R6 -->
<g id="node63" class="node"><title>R6</title>
<polygon fill="none" stroke="black" points="1755,-206 1741,-206 1741,-192 1755,-192 1755,-206"/>
</g>
<!-- R6_intermediate_p -->
<g id="node67" class="node"><title>R6_intermediate_p</title>
<ellipse fill="black" stroke="black" cx="1851" cy="-197" rx="0.036" ry="0.036"/>
</g>
<!-- R6&#45;&gt;R6_intermediate_p -->
<g id="edge54" class="edge"><title>R6&#45;&gt;R6_intermediate_p</title>
<path fill="none" stroke="black" d="M1755.08,-198.863C1777.99,-198.418 1848.74,-197.044 1850.95,-197.001"/>
</g>
<!-- R6_intermediate_r&#45;&gt;R6 -->
<g id="edge50" class="edge"><title>R6_intermediate_r&#45;&gt;R6</title>
<path fill="none" stroke="black" d="M1651.07,-209.992C1653.51,-209.715 1718.99,-202.289 1740.92,-199.803"/>
</g>
<!-- R6_intermediate_p&#45;&gt;x7 -->
<g id="edge56" class="edge"><title>R6_intermediate_p&#45;&gt;x7</title>
<path fill="none" stroke="black" d="M1851.13,-196.998C1852.55,-196.974 1865.58,-196.753 1883.99,-196.441"/>
<polygon fill="black" stroke="black" points="1884.14,-199.939 1894.08,-196.27 1884.02,-192.94 1884.14,-199.939"/>
</g>
<!-- R7 -->
<g id="node70" class="node"><title>R7</title>
<polygon fill="none" stroke="black" points="1217,-145 1203,-145 1203,-131 1217,-131 1217,-145"/>
</g>
<!-- R7_intermediate_p -->
<g id="node74" class="node"><title>R7_intermediate_p</title>
<ellipse fill="black" stroke="black" cx="1313" cy="-134" rx="0.036" ry="0.036"/>
</g>
<!-- R7&#45;&gt;R7_intermediate_p -->
<g id="edge62" class="edge"><title>R7&#45;&gt;R7_intermediate_p</title>
<path fill="none" stroke="black" d="M1217.08,-137.725C1239.99,-136.835 1310.74,-134.088 1312.95,-134.002"/>
</g>
<!-- R7_intermediate_r&#45;&gt;R7 -->
<g id="edge58" class="edge"><title>R7_intermediate_r&#45;&gt;R7</title>
<path fill="none" stroke="black" d="M1053.11,-140.998C1057.24,-140.919 1172.19,-138.722 1202.65,-138.14"/>
</g>
<!-- R7_intermediate_p&#45;&gt;x8 -->
<g id="edge64" class="edge"><title>R7_intermediate_p&#45;&gt;x8</title>
<path fill="none" stroke="black" d="M1313.12,-133.999C1314.34,-133.984 1324.61,-133.863 1339.52,-133.686"/>
<polygon fill="black" stroke="black" points="1339.99,-137.181 1349.95,-133.563 1339.91,-130.181 1339.99,-137.181"/>
</g>
<!-- R8 -->
<g id="node77" class="node"><title>R8</title>
<polygon fill="none" stroke="black" points="2368,-65 2354,-65 2354,-51 2368,-51 2368,-65"/>
</g>
<!-- R8_intermediate_p -->
<g id="node80" class="node"><title>R8_intermediate_p</title>
<ellipse fill="black" stroke="black" cx="2471" cy="-72" rx="0.036" ry="0.036"/>
</g>
<!-- R8&#45;&gt;R8_intermediate_p -->
<g id="edge68" class="edge"><title>R8&#45;&gt;R8_intermediate_p</title>
<path fill="none" stroke="black" d="M2368.22,-58.9186C2392.31,-61.9845 2468.57,-71.6902 2470.94,-71.9928"/>
</g>
<!-- R8_empty -->
<g id="node78" class="node"><title>R8_empty</title>
<text text-anchor="middle" x="2225" y="-54.5" font-family="Times Roman,serif" font-size="15.00" fill="blue">Ø</text>
</g>
<!-- R8_empty&#45;&gt;R8 -->
<g id="edge66" class="edge"><title>R8_empty&#45;&gt;R8</title>
<path fill="none" stroke="black" d="M2252.19,-58.8C2284.13,-58.5652 2335.12,-58.1903 2353.82,-58.0528"/>
</g>
<!-- R8_intermediate_p&#45;&gt;x6 -->
<g id="edge70" class="edge"><title>R8_intermediate_p&#45;&gt;x6</title>
<path fill="none" stroke="black" d="M2471.12,-72.0188C2472.7,-72.2651 2489.62,-74.8985 2512.12,-78.4018"/>
<polygon fill="black" stroke="black" points="2511.66,-81.872 2522.08,-79.9521 2512.73,-74.9553 2511.66,-81.872"/>
</g>
<!-- R9 -->
<g id="node83" class="node"><title>R9</title>
<polygon fill="none" stroke="black" points="2854,-105 2840,-105 2840,-91 2854,-91 2854,-105"/>
</g>
<!-- R9_empty -->
<g id="node87" class="node"><title>R9_empty</title>
<text text-anchor="middle" x="2917" y="-93.5" font-family="Times Roman,serif" font-size="15.00" fill="blue">Ø</text>
</g>
<!-- R9&#45;&gt;R9_empty -->
<g id="edge76" class="edge"><title>R9&#45;&gt;R9_empty</title>
<path fill="none" stroke="black" d="M2854.23,-98C2860.45,-98 2869.94,-98 2879.67,-98"/>
<polygon fill="black" stroke="black" points="2879.77,-101.5 2889.77,-98 2879.77,-94.5001 2879.77,-101.5"/>
</g>
<!-- R9_intermediate_r&#45;&gt;R9 -->
<g id="edge72" class="edge"><title>R9_intermediate_r&#45;&gt;R9</title>
<path fill="none" stroke="black" d="M2804.12,-98C2805.98,-98 2828.23,-98 2839.92,-98"/>
</g>
<!-- R10 -->
<g id="node89" class="node"><title>R10</title>
<polygon fill="none" stroke="black" points="2368,-192 2354,-192 2354,-178 2368,-178 2368,-192"/>
</g>
<!-- R10_intermediate_p -->
<g id="node93" class="node"><title>R10_intermediate_p</title>
<ellipse fill="black" stroke="black" cx="2471" cy="-171" rx="0.036" ry="0.036"/>
</g>
<!-- R10&#45;&gt;R10_intermediate_p -->
<g id="edge82" class="edge"><title>R10&#45;&gt;R10_intermediate_p</title>
<path fill="none" stroke="black" d="M2368.22,-184.081C2392.31,-181.015 2468.57,-171.31 2470.94,-171.007"/>
</g>
<!-- R10_intermediate_r&#45;&gt;R10 -->
<g id="edge78" class="edge"><title>R10_intermediate_r&#45;&gt;R10</title>
<path fill="none" stroke="black" d="M2225.1,-187.998C2228.64,-187.92 2326.46,-185.762 2353.9,-185.157"/>
</g>
<!-- R10_intermediate_p&#45;&gt;x6 -->
<g id="edge84" class="edge"><title>R10_intermediate_p&#45;&gt;x6</title>
<path fill="none" stroke="black" d="M2471.12,-170.947C2474.3,-169.559 2539.31,-141.14 2587.23,-120.192"/>
<polygon fill="black" stroke="black" points="2588.8,-123.325 2596.56,-116.112 2586,-116.911 2588.8,-123.325"/>
</g>
<!-- R11 -->
<g id="node96" class="node"><title>R11</title>
<polygon fill="none" stroke="black" points="1858,-150 1844,-150 1844,-136 1858,-136 1858,-150"/>
</g>
<!-- R11_intermediate_p -->
<g id="node100" class="node"><title>R11_intermediate_p</title>
<ellipse fill="black" stroke="black" cx="2471" cy="-125" rx="0.036" ry="0.036"/>
</g>
<!-- R11&#45;&gt;R11_intermediate_p -->
<g id="edge90" class="edge"><title>R11&#45;&gt;R11_intermediate_p</title>
<path fill="none" stroke="black" d="M1858.25,-142.965C1907.48,-142.694 2197.92,-140.598 2434,-128 2449.96,-127.148 2469.72,-125.131 2470.94,-125.006"/>
</g>
<!-- R11_intermediate_r&#45;&gt;R11 -->
<g id="edge86" class="edge"><title>R11_intermediate_r&#45;&gt;R11</title>
<path fill="none" stroke="black" d="M1748.07,-141.001C1750.68,-141.052 1820.85,-142.415 1843.81,-142.86"/>
</g>
<!-- R11_intermediate_p&#45;&gt;x6 -->
<g id="edge92" class="edge"><title>R11_intermediate_p&#45;&gt;x6</title>
<path fill="none" stroke="black" d="M2471.12,-124.98C2472.8,-124.708 2491.85,-121.629 2516.51,-117.642"/>
<polygon fill="black" stroke="black" points="2517.29,-121.062 2526.6,-116.011 2516.17,-114.152 2517.29,-121.062"/>
</g>
<!-- R12 -->
<g id="node103" class="node"><title>R12</title>
<polygon fill="none" stroke="black" points="1489,-96 1475,-96 1475,-82 1489,-82 1489,-96"/>
</g>
<!-- R12_intermediate_p -->
<g id="node107" class="node"><title>R12_intermediate_p</title>
<ellipse fill="black" stroke="black" cx="1651" cy="-98" rx="0.036" ry="0.036"/>
</g>
<!-- R12&#45;&gt;R12_intermediate_p -->
<g id="edge98" class="edge"><title>R12&#45;&gt;R12_intermediate_p</title>
<path fill="none" stroke="black" d="M1489.26,-89.3867C1521.1,-91.0825 1646.98,-97.7859 1650.91,-97.995"/>
</g>
<!-- R12&#45;&gt;R12_intermediate_m -->
<g id="edge102" class="edge"><title>R12&#45;&gt;R12_intermediate_m</title>
<path fill="none" stroke="black" d="M1501.14,-86.0722C1528.72,-82.9268 1580.03,-81.1994 1614,-105 1642.86,-125.22 1650.53,-174.773 1650.98,-177.85"/>
<polygon fill="none" stroke="black" points="1500.99,-86.0925 1495.59,-90.8686 1489.1,-87.7185 1494.51,-82.9424 1500.99,-86.0925"/>
</g>
<!-- R12_intermediate_r&#45;&gt;R12 -->
<g id="edge94" class="edge"><title>R12_intermediate_r&#45;&gt;R12</title>
<path fill="none" stroke="black" d="M1313.12,-89C1317.6,-89 1443.54,-89 1474.95,-89"/>
</g>
<!-- R12_intermediate_p&#45;&gt;x10 -->
<g id="edge100" class="edge"><title>R12_intermediate_p&#45;&gt;x10</title>
<path fill="none" stroke="black" d="M1651.07,-98.0036C1652.05,-98.0541 1663.14,-98.6258 1677.5,-99.3657"/>
<polygon fill="black" stroke="black" points="1677.7,-102.881 1687.87,-99.9005 1678.06,-95.8903 1677.7,-102.881"/>
</g>
<!-- R13 -->
<g id="node114" class="node"><title>R13</title>
<polygon fill="none" stroke="black" points="2035,-108 2021,-108 2021,-94 2035,-94 2035,-108"/>
</g>
<!-- R13_intermediate_p -->
<g id="node119" class="node"><title>R13_intermediate_p</title>
<ellipse fill="black" stroke="black" cx="2225" cy="-101" rx="0.036" ry="0.036"/>
</g>
<!-- R13&#45;&gt;R13_intermediate_p -->
<g id="edge114" class="edge"><title>R13&#45;&gt;R13_intermediate_p</title>
<path fill="none" stroke="black" d="M2035.01,-101C2069.56,-101 2220.19,-101 2224.89,-101"/>
</g>
<!-- R13_intermediate_r&#45;&gt;R13 -->
<g id="edge108" class="edge"><title>R13_intermediate_r&#45;&gt;R13</title>
<path fill="none" stroke="black" d="M1851.13,-101C1855.82,-101 1987.72,-101 2020.62,-101"/>
</g>
<!-- R13_intermediate_p&#45;&gt;x12 -->
<g id="edge116" class="edge"><title>R13_intermediate_p&#45;&gt;x12</title>
<path fill="none" stroke="black" d="M2225.1,-101C2226.82,-101 2250.79,-101 2278.13,-101"/>
<polygon fill="black" stroke="black" points="2278.32,-104.5 2288.32,-101 2278.32,-97.5001 2278.32,-104.5"/>
</g>
<!-- R14 -->
<g id="node122" class="node"><title>R14</title>
<polygon fill="none" stroke="black" points="302,-335 288,-335 288,-321 302,-321 302,-335"/>
</g>
<!-- R14_intermediate_p -->
<g id="node126" class="node"><title>R14_intermediate_p</title>
<ellipse fill="black" stroke="black" cx="493" cy="-319" rx="0.036" ry="0.036"/>
</g>
<!-- R14&#45;&gt;R14_intermediate_p -->
<g id="edge122" class="edge"><title>R14&#45;&gt;R14_intermediate_p</title>
<path fill="none" stroke="black" d="M302.047,-327.68C336.767,-326.101 488.164,-319.22 492.887,-319.005"/>
</g>
<!-- R14_intermediate_r&#45;&gt;R14 -->
<g id="edge118" class="edge"><title>R14_intermediate_r&#45;&gt;R14</title>
<path fill="none" stroke="black" d="M145.109,-328.999C149.048,-328.973 258.875,-328.241 287.979,-328.047"/>
</g>
<!-- R14_intermediate_p&#45;&gt;x13 -->
<g id="edge124" class="edge"><title>R14_intermediate_p&#45;&gt;x13</title>
<path fill="none" stroke="black" d="M493.099,-318.993C495.517,-318.815 541.979,-315.399 579.912,-312.609"/>
<polygon fill="black" stroke="black" points="580.624,-316.067 590.341,-311.843 580.111,-309.085 580.624,-316.067"/>
</g>
<!-- R15 -->
<g id="node129" class="node"><title>R15</title>
<polygon fill="none" stroke="black" points="302,-299 288,-299 288,-285 302,-285 302,-299"/>
</g>
<!-- R15_intermediate_p -->
<g id="node133" class="node"><title>R15_intermediate_p</title>
<ellipse fill="black" stroke="black" cx="493" cy="-296" rx="0.036" ry="0.036"/>
</g>
<!-- R15&#45;&gt;R15_intermediate_p -->
<g id="edge130" class="edge"><title>R15&#45;&gt;R15_intermediate_p</title>
<path fill="none" stroke="black" d="M302.047,-292.142C336.767,-292.844 488.164,-295.902 492.887,-295.998"/>
</g>
<!-- R15_intermediate_r&#45;&gt;R15 -->
<g id="edge126" class="edge"><title>R15_intermediate_r&#45;&gt;R15</title>
<path fill="none" stroke="black" d="M145.109,-279.009C149.048,-279.351 258.875,-288.869 287.979,-291.392"/>
</g>
<!-- R15_intermediate_p&#45;&gt;x13 -->
<g id="edge132" class="edge"><title>R15_intermediate_p&#45;&gt;x13</title>
<path fill="none" stroke="black" d="M493.099,-296.009C495.525,-296.241 542.262,-300.709 580.257,-304.341"/>
<polygon fill="black" stroke="black" points="580.41,-307.871 590.698,-305.339 581.076,-300.903 580.41,-307.871"/>
</g>
<!-- R16 -->
<g id="node136" class="node"><title>R16</title>
<polygon fill="none" stroke="black" points="302,-392 288,-392 288,-378 302,-378 302,-392"/>
</g>
<!-- R16_intermediate_p -->
<g id="node140" class="node"><title>R16_intermediate_p</title>
<ellipse fill="black" stroke="black" cx="493" cy="-385" rx="0.036" ry="0.036"/>
</g>
<!-- R16&#45;&gt;R16_intermediate_p -->
<g id="edge138" class="edge"><title>R16&#45;&gt;R16_intermediate_p</title>
<path fill="none" stroke="black" d="M302.047,-385C336.767,-385 488.164,-385 492.887,-385"/>
</g>
<!-- R16_intermediate_r&#45;&gt;R16 -->
<g id="edge134" class="edge"><title>R16_intermediate_r&#45;&gt;R16</title>
<path fill="none" stroke="black" d="M145.109,-385C149.048,-385 258.875,-385 287.979,-385"/>
</g>
<!-- R16_intermediate_p&#45;&gt;x17 -->
<g id="edge140" class="edge"><title>R16_intermediate_p&#45;&gt;x17</title>
<path fill="none" stroke="black" d="M493.099,-385C495.415,-385 538.105,-385 575.027,-385"/>
<polygon fill="black" stroke="black" points="575.249,-388.5 585.249,-385 575.249,-381.5 575.249,-388.5"/>
</g>
<!-- R17 -->
<g id="node143" class="node"><title>R17</title>
<polygon fill="none" stroke="black" points="302,-446 288,-446 288,-432 302,-432 302,-446"/>
</g>
<!-- R17_intermediate_p -->
<g id="node147" class="node"><title>R17_intermediate_p</title>
<ellipse fill="black" stroke="black" cx="493" cy="-439" rx="0.036" ry="0.036"/>
</g>
<!-- R17&#45;&gt;R17_intermediate_p -->
<g id="edge146" class="edge"><title>R17&#45;&gt;R17_intermediate_p</title>
<path fill="none" stroke="black" d="M302.047,-439C336.767,-439 488.164,-439 492.887,-439"/>
</g>
<!-- R17_intermediate_r&#45;&gt;R17 -->
<g id="edge142" class="edge"><title>R17_intermediate_r&#45;&gt;R17</title>
<path fill="none" stroke="black" d="M145.109,-439C149.048,-439 258.875,-439 287.979,-439"/>
</g>
<!-- R17_intermediate_p&#45;&gt;x19 -->
<g id="edge148" class="edge"><title>R17_intermediate_p&#45;&gt;x19</title>
<path fill="none" stroke="black" d="M493.099,-439C495.385,-439 537.027,-439 573.618,-439"/>
<polygon fill="black" stroke="black" points="573.767,-442.5 583.767,-439 573.767,-435.5 573.767,-442.5"/>
</g>
<!-- R18 -->
<g id="node150" class="node"><title>R18</title>
<polygon fill="none" stroke="black" points="152,-500 138,-500 138,-486 152,-486 152,-500"/>
</g>
<!-- R18_intermediate_p -->
<g id="node153" class="node"><title>R18_intermediate_p</title>
<ellipse fill="black" stroke="black" cx="295" cy="-493" rx="0.036" ry="0.036"/>
</g>
<!-- R18&#45;&gt;R18_intermediate_p -->
<g id="edge152" class="edge"><title>R18&#45;&gt;R18_intermediate_p</title>
<path fill="none" stroke="black" d="M152.235,-493C181.73,-493 291.495,-493 294.918,-493"/>
</g>
<!-- R18_empty -->
<g id="node151" class="node"><title>R18_empty</title>
<text text-anchor="middle" x="51" y="-488.5" font-family="Times Roman,serif" font-size="15.00" fill="blue">Ø</text>
</g>
<!-- R18_empty&#45;&gt;R18 -->
<g id="edge150" class="edge"><title>R18_empty&#45;&gt;R18</title>
<path fill="none" stroke="black" d="M78.1887,-493C98.5762,-493 125.051,-493 137.678,-493"/>
</g>
<!-- R18_intermediate_p&#45;&gt;x20 -->
<g id="edge154" class="edge"><title>R18_intermediate_p&#45;&gt;x20</title>
<path fill="none" stroke="black" d="M295.144,-493C298.792,-493 371.286,-493 427.474,-493"/>
<polygon fill="black" stroke="black" points="427.756,-496.5 437.755,-493 427.755,-489.5 427.756,-496.5"/>
</g>
<!-- R19 -->
<g id="node156" class="node"><title>R19</title>
<polygon fill="none" stroke="black" points="724,-521 710,-521 710,-507 724,-507 724,-521"/>
</g>
<!-- R19_empty -->
<g id="node160" class="node"><title>R19_empty</title>
<text text-anchor="middle" x="861" y="-511.5" font-family="Times Roman,serif" font-size="15.00" fill="blue">Ø</text>
</g>
<!-- R19&#45;&gt;R19_empty -->
<g id="edge160" class="edge"><title>R19&#45;&gt;R19_empty</title>
<path fill="none" stroke="black" d="M724.339,-514.102C742.362,-514.352 789.799,-515.011 823.72,-515.482"/>
<polygon fill="black" stroke="black" points="823.718,-518.982 833.765,-515.622 823.815,-511.983 823.718,-518.982"/>
</g>
<!-- R19_intermediate_r&#45;&gt;R19 -->
<g id="edge156" class="edge"><title>R19_intermediate_r&#45;&gt;R19</title>
<path fill="none" stroke="black" d="M629.064,-511.002C631.25,-511.077 689.023,-513.046 709.714,-513.752"/>
</g>
<!-- R20 -->
<g id="node162" class="node"><title>R20</title>
<polygon fill="none" stroke="black" points="724,-488 710,-488 710,-474 724,-474 724,-488"/>
</g>
<!-- R20_intermediate_p -->
<g id="node166" class="node"><title>R20_intermediate_p</title>
<ellipse fill="black" stroke="black" cx="861" cy="-480" rx="0.036" ry="0.036"/>
</g>
<!-- R20&#45;&gt;R20_intermediate_p -->
<g id="edge166" class="edge"><title>R20&#45;&gt;R20_intermediate_p</title>
<path fill="none" stroke="black" d="M724.339,-480.949C753.225,-480.748 857.665,-480.023 860.922,-480.001"/>
</g>
<!-- R20_intermediate_r&#45;&gt;R20 -->
<g id="edge162" class="edge"><title>R20_intermediate_r&#45;&gt;R20</title>
<path fill="none" stroke="black" d="M629.064,-483.998C631.25,-483.923 689.023,-481.954 709.714,-481.248"/>
</g>
<!-- R20_intermediate_p&#45;&gt;x21 -->
<g id="edge168" class="edge"><title>R20_intermediate_p&#45;&gt;x21</title>
<path fill="none" stroke="black" d="M861.139,-480C864.638,-480 933.419,-480 987.636,-480"/>
<polygon fill="black" stroke="black" points="987.916,-483.5 997.916,-480 987.916,-476.5 987.916,-483.5"/>
</g>
</g>
</svg>
