<?xml version="1.0" encoding="UTF-8" standalone="no"?>
<!DOCTYPE svg PUBLIC "-//W3C//DTD SVG 1.1//EN"
 "http://www.w3.org/Graphics/SVG/1.1/DTD/svg11.dtd">
<!-- Generated by graphviz version 2.24.0 (20090616.2323)
 -->
<!-- Title: G Pages: 1 -->
<svg width="924pt" height="397pt"
 viewBox="0.00 0.00 924.00 396.65" xmlns="http://www.w3.org/2000/svg" xmlns:xlink="http://www.w3.org/1999/xlink">
<g id="graph1" class="graph" transform="scale(1 1) rotate(0) translate(4 392.646)">
<title>G</title>
<polygon fill="white" stroke="white" points="-4,5 -4,-392.646 921,-392.646 921,5 -4,5"/>
<!-- APP -->
<g id="node1" class="node"><title>APP</title>
<polyline fill="none" stroke="black" points="218,-277 188,-277 "/>
<path fill="none" stroke="black" d="M188,-277C182,-277 176,-271 176,-265"/>
<polyline fill="none" stroke="black" points="176,-265 176,-253 "/>
<path fill="none" stroke="black" d="M176,-253C176,-247 182,-241 188,-241"/>
<polyline fill="none" stroke="black" points="188,-241 218,-241 "/>
<path fill="none" stroke="black" d="M218,-241C224,-241 230,-247 230,-253"/>
<polyline fill="none" stroke="black" points="230,-253 230,-265 "/>
<path fill="none" stroke="black" d="M230,-265C230,-271 224,-277 218,-277"/>
<text text-anchor="middle" x="203" y="-256.5" font-family="Times Roman,serif" font-size="10.00">APP</text>
</g>
<!-- r1_intermediate_r -->
<g id="node14" class="node"><title>r1_intermediate_r</title>
<ellipse fill="black" stroke="black" cx="267" cy="-356" rx="0.036" ry="0.036"/>
</g>
<!-- APP&#45;&gt;r1_intermediate_r -->
<g id="edge10" class="edge"><title>APP&#45;&gt;r1_intermediate_r</title>
<path fill="none" stroke="black" d="M215.038,-277.245C232.998,-304.465 264.926,-352.856 266.904,-355.854"/>
</g>
<!-- r1_intermediate_m -->
<g id="node20" class="node"><title>r1_intermediate_m</title>
<ellipse fill="black" stroke="black" cx="483" cy="-376" rx="0.036" ry="0.036"/>
</g>
<!-- APP&#45;&gt;r1_intermediate_m -->
<g id="edge20" class="edge"><title>APP&#45;&gt;r1_intermediate_m</title>
<path fill="none" stroke="black" d="M220.245,-277.169C240.15,-296.09 274.82,-323 311,-323 311,-323 311,-323 355,-323 415.611,-323 480.925,-374.357 482.952,-375.962"/>
</g>
<!-- r2_intermediate_r -->
<g id="node26" class="node"><title>r2_intermediate_r</title>
<ellipse fill="black" stroke="black" cx="267" cy="-274" rx="0.036" ry="0.036"/>
</g>
<!-- APP&#45;&gt;r2_intermediate_r -->
<g id="edge26" class="edge"><title>APP&#45;&gt;r2_intermediate_r</title>
<path fill="none" stroke="black" d="M230.142,-265.361C247.04,-269.322 265.788,-273.716 266.944,-273.987"/>
</g>
<!-- r2_intermediate_m -->
<g id="node32" class="node"><title>r2_intermediate_m</title>
<ellipse fill="black" stroke="black" cx="355" cy="-251" rx="0.036" ry="0.036"/>
</g>
<!-- APP&#45;&gt;r2_intermediate_m -->
<g id="edge34" class="edge"><title>APP&#45;&gt;r2_intermediate_m</title>
<path fill="none" stroke="black" d="M230.175,-257.57C273.212,-255.305 352.475,-251.133 354.941,-251.003"/>
</g>
<!-- r5_intermediate_m -->
<g id="node66" class="node"><title>r5_intermediate_m</title>
<ellipse fill="black" stroke="black" cx="611" cy="-141" rx="0.036" ry="0.036"/>
</g>
<!-- APP&#45;&gt;r5_intermediate_m -->
<g id="edge78" class="edge"><title>APP&#45;&gt;r5_intermediate_m</title>
<path fill="none" stroke="black" d="M204.422,-240.861C209.619,-192.16 231.651,-64 311,-64 311,-64 311,-64 483,-64 546.915,-64 610.006,-130.942 610.988,-140.778"/>
</g>
<!-- APP&#45;&gt;r5_intermediate_m -->
<g id="edge82" class="edge"><title>APP&#45;&gt;r5_intermediate_m</title>
<path fill="none" stroke="black" d="M205.522,-240.901C212.409,-195.525 236.319,-82 311,-82 311,-82 311,-82 483,-82 546.412,-82 609.013,-147.892 610.954,-141.366"/>
</g>
<!-- C83 -->
<g id="node2" class="node"><title>C83</title>
<polyline fill="none" stroke="black" points="690,-206 660,-206 "/>
<path fill="none" stroke="black" d="M660,-206C654,-206 648,-200 648,-194"/>
<polyline fill="none" stroke="black" points="648,-194 648,-182 "/>
<path fill="none" stroke="black" d="M648,-182C648,-176 654,-170 660,-170"/>
<polyline fill="none" stroke="black" points="660,-170 690,-170 "/>
<path fill="none" stroke="black" d="M690,-170C696,-170 702,-176 702,-182"/>
<polyline fill="none" stroke="black" points="702,-182 702,-194 "/>
<path fill="none" stroke="black" d="M702,-194C702,-200 696,-206 690,-206"/>
<text text-anchor="middle" x="675" y="-185.5" font-family="Times Roman,serif" font-size="10.00">C83</text>
</g>
<!-- r3__ND_intermediate_r -->
<g id="node36" class="node"><title>r3__ND_intermediate_r</title>
<ellipse fill="black" stroke="black" cx="739" cy="-180" rx="0.036" ry="0.036"/>
</g>
<!-- C83&#45;&gt;r3__ND_intermediate_r -->
<g id="edge38" class="edge"><title>C83&#45;&gt;r3__ND_intermediate_r</title>
<path fill="none" stroke="black" d="M702.142,-184.607C719.04,-182.495 737.788,-180.151 738.944,-180.007"/>
</g>
<!-- r3__ND_intermediate_m -->
<g id="node42" class="node"><title>r3__ND_intermediate_m</title>
<ellipse fill="black" stroke="black" cx="826" cy="-284" rx="0.036" ry="0.036"/>
</g>
<!-- C83&#45;&gt;r3__ND_intermediate_m -->
<g id="edge48" class="edge"><title>C83&#45;&gt;r3__ND_intermediate_m</title>
<path fill="none" stroke="black" d="M702.345,-205.385C745.179,-232.617 823.505,-282.413 825.942,-283.963"/>
</g>
<!-- r4__ND_intermediate_m -->
<g id="node54" class="node"><title>r4__ND_intermediate_m</title>
<ellipse fill="black" stroke="black" cx="739" cy="-240" rx="0.036" ry="0.036"/>
</g>
<!-- C83&#45;&gt;r4__ND_intermediate_m -->
<g id="edge62" class="edge"><title>C83&#45;&gt;r4__ND_intermediate_m</title>
<path fill="none" stroke="black" d="M702.142,-203.372C719.312,-216.828 738.394,-234.481 738.986,-239.758"/>
</g>
<!-- C83&#45;&gt;r4__ND_intermediate_m -->
<g id="edge66" class="edge"><title>C83&#45;&gt;r4__ND_intermediate_m</title>
<path fill="none" stroke="black" d="M690.167,-206.163C708.501,-223.248 737.142,-244.76 738.914,-240.494"/>
</g>
<!-- r3__D_intermediate_r -->
<g id="node72" class="node"><title>r3__D_intermediate_r</title>
<ellipse fill="black" stroke="black" cx="739" cy="-153" rx="0.036" ry="0.036"/>
</g>
<!-- C83&#45;&gt;r3__D_intermediate_r -->
<g id="edge86" class="edge"><title>C83&#45;&gt;r3__D_intermediate_r</title>
<path fill="none" stroke="black" d="M702.142,-173.157C719.04,-163.916 737.788,-153.663 738.944,-153.031"/>
</g>
<!-- r3__D_intermediate_m -->
<g id="node78" class="node"><title>r3__D_intermediate_m</title>
<ellipse fill="black" stroke="black" cx="826" cy="-59" rx="0.036" ry="0.036"/>
</g>
<!-- C83&#45;&gt;r3__D_intermediate_m -->
<g id="edge98" class="edge"><title>C83&#45;&gt;r3__D_intermediate_m</title>
<path fill="none" stroke="black" d="M696.314,-169.791C737.287,-134.788 823.259,-61.3413 825.936,-59.0547"/>
</g>
<!-- C99 -->
<g id="node3" class="node"><title>C99</title>
<polyline fill="none" stroke="black" points="434,-295 404,-295 "/>
<path fill="none" stroke="black" d="M404,-295C398,-295 392,-289 392,-283"/>
<polyline fill="none" stroke="black" points="392,-283 392,-271 "/>
<path fill="none" stroke="black" d="M392,-271C392,-265 398,-259 404,-259"/>
<polyline fill="none" stroke="black" points="404,-259 434,-259 "/>
<path fill="none" stroke="black" d="M434,-259C440,-259 446,-265 446,-271"/>
<polyline fill="none" stroke="black" points="446,-271 446,-283 "/>
<path fill="none" stroke="black" d="M446,-283C446,-289 440,-295 434,-295"/>
<text text-anchor="middle" x="419" y="-274.5" font-family="Times Roman,serif" font-size="10.00">C99</text>
</g>
<!-- C99&#45;&gt;r1_intermediate_m -->
<g id="edge22" class="edge"><title>C99&#45;&gt;r1_intermediate_m</title>
<path fill="none" stroke="black" d="M442.627,-295.316C443.796,-296.872 444.929,-298.443 446,-300 464.982,-327.585 482.446,-365.785 482.987,-375.556"/>
</g>
<!-- C99&#45;&gt;r1_intermediate_m -->
<g id="edge18" class="edge"><title>C99&#45;&gt;r1_intermediate_m</title>
<path fill="none" stroke="black" d="M428.544,-295.126C433.976,-302.335 440.726,-310.335 446,-318 464.681,-345.147 481.891,-382.575 482.949,-376.705"/>
</g>
<!-- C99&#45;&gt;r3__ND_intermediate_m -->
<g id="edge46" class="edge"><title>C99&#45;&gt;r3__ND_intermediate_m</title>
<path fill="none" stroke="black" d="M446.138,-290.192C482.048,-311.042 548.167,-348 611,-348 611,-348 611,-348 739,-348 787.898,-348 823.704,-279.491 825.894,-283.392"/>
</g>
<!-- C99&#45;&gt;r3__ND_intermediate_m -->
<g id="edge50" class="edge"><title>C99&#45;&gt;r3__ND_intermediate_m</title>
<path fill="none" stroke="black" d="M436.509,-295.116C469.097,-321.468 542.028,-366 611,-366 611,-366 611,-366 739,-366 789.081,-366 825.428,-294.136 825.993,-284.223"/>
</g>
<!-- r4__ND_intermediate_r -->
<g id="node48" class="node"><title>r4__ND_intermediate_r</title>
<ellipse fill="black" stroke="black" cx="483" cy="-261" rx="0.036" ry="0.036"/>
</g>
<!-- C99&#45;&gt;r4__ND_intermediate_r -->
<g id="edge54" class="edge"><title>C99&#45;&gt;r4__ND_intermediate_r</title>
<path fill="none" stroke="black" d="M446.142,-270.215C463.04,-265.99 481.788,-261.303 482.944,-261.014"/>
</g>
<!-- C99&#45;&gt;r4__ND_intermediate_m -->
<g id="edge64" class="edge"><title>C99&#45;&gt;r4__ND_intermediate_m</title>
<path fill="none" stroke="black" d="M446.282,-279.553C497.649,-283.453 611.672,-287.782 702,-260 719.309,-254.676 737.805,-240.898 738.945,-240.042"/>
</g>
<!-- r5_intermediate_r -->
<g id="node60" class="node"><title>r5_intermediate_r</title>
<ellipse fill="black" stroke="black" cx="483" cy="-234" rx="0.036" ry="0.036"/>
</g>
<!-- C99&#45;&gt;r5_intermediate_r -->
<g id="edge70" class="edge"><title>C99&#45;&gt;r5_intermediate_r</title>
<path fill="none" stroke="black" d="M446.142,-258.764C463.04,-247.411 481.788,-234.814 482.944,-234.038"/>
</g>
<!-- C99&#45;&gt;r5_intermediate_m -->
<g id="edge80" class="edge"><title>C99&#45;&gt;r5_intermediate_m</title>
<path fill="none" stroke="black" d="M427.962,-258.928C438.461,-239.442 457.57,-208.708 482,-190 529.932,-153.294 608.498,-141.372 610.942,-141.009"/>
</g>
<!-- r4__D_intermediate_r -->
<g id="node84" class="node"><title>r4__D_intermediate_r</title>
<ellipse fill="black" stroke="black" cx="483" cy="-199" rx="0.036" ry="0.036"/>
</g>
<!-- C99&#45;&gt;r4__D_intermediate_r -->
<g id="edge102" class="edge"><title>C99&#45;&gt;r4__D_intermediate_r</title>
<path fill="none" stroke="black" d="M433.844,-258.909C452.159,-236.587 481.12,-201.291 482.913,-199.106"/>
</g>
<!-- r4__D_intermediate_m -->
<g id="node90" class="node"><title>r4__D_intermediate_m</title>
<ellipse fill="black" stroke="black" cx="611" cy="-116" rx="0.036" ry="0.036"/>
</g>
<!-- C99&#45;&gt;r4__D_intermediate_m -->
<g id="edge114" class="edge"><title>C99&#45;&gt;r4__D_intermediate_m</title>
<path fill="none" stroke="black" d="M427.641,-258.921C442.361,-230.184 475.121,-174.434 520,-146 554.849,-123.921 607.579,-116.466 610.841,-116.021"/>
</g>
<!-- AB -->
<g id="node4" class="node"><title>AB</title>
<polyline fill="none" stroke="black" points="690,-152 660,-152 "/>
<path fill="none" stroke="black" d="M660,-152C654,-152 648,-146 648,-140"/>
<polyline fill="none" stroke="black" points="648,-140 648,-128 "/>
<path fill="none" stroke="black" d="M648,-128C648,-122 654,-116 660,-116"/>
<polyline fill="none" stroke="black" points="660,-116 690,-116 "/>
<path fill="none" stroke="black" d="M690,-116C696,-116 702,-122 702,-128"/>
<polyline fill="none" stroke="black" points="702,-128 702,-140 "/>
<path fill="none" stroke="black" d="M702,-140C702,-146 696,-152 690,-152"/>
<text text-anchor="middle" x="675" y="-131.5" font-family="Times Roman,serif" font-size="10.00">AB</text>
</g>
<!-- X -->
<g id="node5" class="node"><title>X</title>
<ellipse fill="none" stroke="black" cx="547" cy="-18" rx="27" ry="18"/>
<text text-anchor="middle" x="547" y="-15.5" font-family="Times Roman,serif" font-size="10.00">X</text>
</g>
<!-- X&#45;&gt;r3__D_intermediate_m -->
<g id="edge94" class="edge"><title>X&#45;&gt;r3__D_intermediate_m</title>
<path fill="none" stroke="black" d="M573.9,-15.0718C599.755,-16.4866 639.958,-21 675,-21 675,-21 675,-21 739,-21 779.121,-21 824.556,-49.1008 825.966,-58.5637"/>
</g>
<!-- X&#45;&gt;r3__D_intermediate_m -->
<g id="edge96" class="edge"><title>X&#45;&gt;r3__D_intermediate_m</title>
<path fill="none" stroke="black" d="M569.599,-27.9528C595.128,-33.9543 637.949,-39 675,-39 675,-39 675,-39 739,-39 779.121,-39 824.556,-67.1008 825.966,-59.3943"/>
</g>
<!-- X&#45;&gt;r4__D_intermediate_m -->
<g id="edge110" class="edge"><title>X&#45;&gt;r4__D_intermediate_m</title>
<path fill="none" stroke="black" d="M566.161,-30.702C568.9,-33.9968 571.599,-37.5345 574,-41 592.852,-68.2102 610.442,-105.804 610.987,-115.557"/>
</g>
<!-- X&#45;&gt;r4__D_intermediate_m -->
<g id="edge112" class="edge"><title>X&#45;&gt;r4__D_intermediate_m</title>
<path fill="none" stroke="black" d="M555.772,-35.13C561.315,-42.6013 568.453,-50.9936 574,-59 592.553,-85.7783 609.883,-122.613 610.948,-116.707"/>
</g>
<!-- p3 -->
<g id="node6" class="node"><title>p3</title>
<polyline fill="none" stroke="black" points="904,-178 874,-178 "/>
<path fill="none" stroke="black" d="M874,-178C868,-178 862,-172 862,-166"/>
<polyline fill="none" stroke="black" points="862,-166 862,-154 "/>
<path fill="none" stroke="black" d="M862,-154C862,-148 868,-142 874,-142"/>
<polyline fill="none" stroke="black" points="874,-142 904,-142 "/>
<path fill="none" stroke="black" d="M904,-142C910,-142 916,-148 916,-154"/>
<polyline fill="none" stroke="black" points="916,-154 916,-166 "/>
<path fill="none" stroke="black" d="M916,-166C916,-172 910,-178 904,-178"/>
<text text-anchor="middle" x="889" y="-157.5" font-family="Times Roman,serif" font-size="10.00">p3</text>
</g>
<!-- r0 -->
<g id="node7" class="node"><title>r0</title>
<polygon fill="none" stroke="black" points="104,-266 90,-266 90,-252 104,-252 104,-266"/>
</g>
<!-- r0_intermediate_p -->
<g id="node10" class="node"><title>r0_intermediate_p</title>
<ellipse fill="black" stroke="black" cx="140" cy="-259" rx="0.036" ry="0.036"/>
</g>
<!-- r0&#45;&gt;r0_intermediate_p -->
<g id="edge4" class="edge"><title>r0&#45;&gt;r0_intermediate_p</title>
<path fill="none" stroke="black" d="M104.101,-259C115.932,-259 138.531,-259 139.932,-259"/>
</g>
<!-- r0_empty -->
<g id="node8" class="node"><title>r0_empty</title>
<text text-anchor="middle" x="27" y="-254.5" font-family="Times Roman,serif" font-size="15.00" fill="blue">Ø</text>
</g>
<!-- r0_empty&#45;&gt;r0 -->
<g id="edge2" class="edge"><title>r0_empty&#45;&gt;r0</title>
<path fill="none" stroke="black" d="M54.2643,-259C67.1627,-259 81.5367,-259 89.8947,-259"/>
</g>
<!-- r0_intermediate_p&#45;&gt;APP -->
<g id="edge6" class="edge"><title>r0_intermediate_p&#45;&gt;APP</title>
<path fill="none" stroke="black" d="M140.046,-259C140.865,-259 152.597,-259 165.716,-259"/>
<polygon fill="black" stroke="black" points="165.86,-262.5 175.86,-259 165.859,-255.5 165.86,-262.5"/>
</g>
<!-- r1 -->
<g id="node13" class="node"><title>r1</title>
<polygon fill="none" stroke="black" points="426,-383 412,-383 412,-369 426,-369 426,-383"/>
</g>
<!-- r1_intermediate_p -->
<g id="node17" class="node"><title>r1_intermediate_p</title>
<ellipse fill="black" stroke="black" cx="547" cy="-320" rx="0.036" ry="0.036"/>
</g>
<!-- r1&#45;&gt;r1_intermediate_p -->
<g id="edge12" class="edge"><title>r1&#45;&gt;r1_intermediate_p</title>
<path fill="none" stroke="black" d="M426.147,-379.335C438.467,-384.582 464.277,-393.351 484,-385 519.89,-369.804 545.367,-323.049 546.924,-320.142"/>
</g>
<!-- r1&#45;&gt;r1_intermediate_m -->
<g id="edge16" class="edge"><title>r1&#45;&gt;r1_intermediate_m</title>
<path fill="none" stroke="black" d="M438.462,-376C456.559,-376 481.01,-376 482.885,-376"/>
<polygon fill="none" stroke="black" points="438.342,-376 432.342,-380 426.342,-376 432.342,-372 438.342,-376"/>
</g>
<!-- r1_intermediate_r&#45;&gt;r1 -->
<g id="edge8" class="edge"><title>r1_intermediate_r&#45;&gt;r1</title>
<path fill="none" stroke="black" d="M267.11,-356.014C271.102,-356.54 382.394,-371.183 411.885,-375.064"/>
</g>
<!-- r1_intermediate_p&#45;&gt;C83 -->
<g id="edge14" class="edge"><title>r1_intermediate_p&#45;&gt;C83</title>
<path fill="none" stroke="black" d="M547.093,-319.904C549.856,-317.055 613.696,-251.22 650.117,-213.66"/>
<polygon fill="black" stroke="black" points="652.992,-215.723 657.441,-206.107 647.967,-210.85 652.992,-215.723"/>
</g>
<!-- r2 -->
<g id="node25" class="node"><title>r2</title>
<polygon fill="none" stroke="black" points="318,-284 304,-284 304,-270 318,-270 318,-284"/>
</g>
<!-- r2_intermediate_p -->
<g id="node29" class="node"><title>r2_intermediate_p</title>
<ellipse fill="black" stroke="black" cx="355" cy="-277" rx="0.036" ry="0.036"/>
</g>
<!-- r2&#45;&gt;r2_intermediate_p -->
<g id="edge28" class="edge"><title>r2&#45;&gt;r2_intermediate_p</title>
<path fill="none" stroke="black" d="M318.266,-277C330.372,-277 353.497,-277 354.93,-277"/>
</g>
<!-- r2&#45;&gt;r2_intermediate_m -->
<g id="edge32" class="edge"><title>r2&#45;&gt;r2_intermediate_m</title>
<path fill="none" stroke="black" d="M328.9,-266.422C340.579,-259.522 353.855,-251.677 354.93,-251.041"/>
<polygon fill="none" stroke="black" points="328.597,-266.602 325.466,-273.098 318.266,-272.707 321.396,-266.211 328.597,-266.602"/>
</g>
<!-- r2_intermediate_r&#45;&gt;r2 -->
<g id="edge24" class="edge"><title>r2_intermediate_r&#45;&gt;r2</title>
<path fill="none" stroke="black" d="M267.126,-274.009C269.022,-274.138 291.795,-275.691 303.759,-276.506"/>
</g>
<!-- r2_intermediate_p&#45;&gt;C99 -->
<g id="edge30" class="edge"><title>r2_intermediate_p&#45;&gt;C99</title>
<path fill="none" stroke="black" d="M355.046,-277C355.885,-277 367.971,-277 381.414,-277"/>
<polygon fill="black" stroke="black" points="381.794,-280.5 391.794,-277 381.794,-273.5 381.794,-280.5"/>
</g>
<!-- r3__ND -->
<g id="node35" class="node"><title>r3__ND</title>
<polygon fill="none" stroke="black" points="790,-184 776,-184 776,-170 790,-170 790,-184"/>
</g>
<!-- r3__ND_intermediate_p -->
<g id="node39" class="node"><title>r3__ND_intermediate_p</title>
<ellipse fill="black" stroke="black" cx="826" cy="-170" rx="0.036" ry="0.036"/>
</g>
<!-- r3__ND&#45;&gt;r3__ND_intermediate_p -->
<g id="edge40" class="edge"><title>r3__ND&#45;&gt;r3__ND_intermediate_p</title>
<path fill="none" stroke="black" d="M790.101,-175.844C801.932,-173.918 824.531,-170.239 825.932,-170.011"/>
</g>
<!-- r3__ND&#45;&gt;r3__ND_intermediate_m -->
<g id="edge44" class="edge"><title>r3__ND&#45;&gt;r3__ND_intermediate_m</title>
<path fill="none" stroke="black" d="M790.374,-195.35C802.444,-225.383 825.168,-281.93 825.978,-283.945"/>
<polygon fill="none" stroke="black" points="790.296,-195.155 784.347,-191.079 785.821,-184.021 791.77,-188.096 790.296,-195.155"/>
</g>
<!-- r3__ND_intermediate_r&#45;&gt;r3__ND -->
<g id="edge36" class="edge"><title>r3__ND_intermediate_r&#45;&gt;r3__ND</title>
<path fill="none" stroke="black" d="M739.126,-179.991C741.022,-179.862 763.795,-178.309 775.759,-177.494"/>
</g>
<!-- r3__ND_intermediate_p&#45;&gt;p3 -->
<g id="edge42" class="edge"><title>r3__ND_intermediate_p&#45;&gt;p3</title>
<path fill="none" stroke="black" d="M826.046,-169.993C826.865,-169.863 838.597,-168 851.716,-165.918"/>
<polygon fill="black" stroke="black" points="852.532,-169.332 861.86,-164.308 851.434,-162.419 852.532,-169.332"/>
</g>
<!-- r4__ND -->
<g id="node47" class="node"><title>r4__ND</title>
<polygon fill="none" stroke="black" points="554,-264 540,-264 540,-250 554,-250 554,-264"/>
</g>
<!-- r4__ND_intermediate_p -->
<g id="node51" class="node"><title>r4__ND_intermediate_p</title>
<ellipse fill="black" stroke="black" cx="611" cy="-206" rx="0.036" ry="0.036"/>
</g>
<!-- r4__ND&#45;&gt;r4__ND_intermediate_p -->
<g id="edge56" class="edge"><title>r4__ND&#45;&gt;r4__ND_intermediate_p</title>
<path fill="none" stroke="black" d="M554.385,-253.205C559.976,-250.197 567.736,-245.725 574,-241 591.506,-227.794 609.818,-207.328 610.945,-206.062"/>
</g>
<!-- r4__ND&#45;&gt;r4__ND_intermediate_m -->
<g id="edge60" class="edge"><title>r4__ND&#45;&gt;r4__ND_intermediate_m</title>
<path fill="none" stroke="black" d="M566.411,-255.281C614.347,-251.037 734.769,-240.375 738.891,-240.01"/>
<polygon fill="none" stroke="black" points="566.245,-255.296 560.622,-259.81 554.292,-256.354 559.916,-251.841 566.245,-255.296"/>
</g>
<!-- r4__ND_intermediate_r&#45;&gt;r4__ND -->
<g id="edge52" class="edge"><title>r4__ND_intermediate_r&#45;&gt;r4__ND</title>
<path fill="none" stroke="black" d="M483.046,-260.997C484.576,-260.902 523.51,-258.468 539.868,-257.446"/>
</g>
<!-- r4__ND_intermediate_p&#45;&gt;AB -->
<g id="edge58" class="edge"><title>r4__ND_intermediate_p&#45;&gt;AB</title>
<path fill="none" stroke="black" d="M611.057,-205.925C612.223,-204.393 631.147,-179.578 648,-161 648.501,-160.448 649.01,-159.892 649.526,-159.334"/>
<polygon fill="black" stroke="black" points="652.088,-161.719 656.454,-152.065 647.021,-156.889 652.088,-161.719"/>
</g>
<!-- r5 -->
<g id="node59" class="node"><title>r5</title>
<polygon fill="none" stroke="black" points="554,-232 540,-232 540,-218 554,-218 554,-232"/>
</g>
<!-- r5_intermediate_p -->
<g id="node63" class="node"><title>r5_intermediate_p</title>
<ellipse fill="black" stroke="black" cx="611" cy="-188" rx="0.036" ry="0.036"/>
</g>
<!-- r5&#45;&gt;r5_intermediate_p -->
<g id="edge72" class="edge"><title>r5&#45;&gt;r5_intermediate_p</title>
<path fill="none" stroke="black" d="M554.342,-220.756C570.627,-211.341 608.532,-189.427 610.885,-188.066"/>
</g>
<!-- r5&#45;&gt;r5_intermediate_m -->
<g id="edge76" class="edge"><title>r5&#45;&gt;r5_intermediate_m</title>
<path fill="none" stroke="black" d="M564.943,-216.227C568.192,-214.143 571.377,-211.721 574,-209 597.133,-185.003 610.169,-143.684 610.962,-141.125"/>
<polygon fill="none" stroke="black" points="564.922,-216.239 561.555,-222.615 554.373,-221.96 557.741,-215.583 564.922,-216.239"/>
</g>
<!-- r5_intermediate_r&#45;&gt;r5 -->
<g id="edge68" class="edge"><title>r5_intermediate_r&#45;&gt;r5</title>
<path fill="none" stroke="black" d="M483.046,-233.993C484.576,-233.778 523.51,-228.303 539.868,-226.003"/>
</g>
<!-- r5_intermediate_p&#45;&gt;C83 -->
<g id="edge74" class="edge"><title>r5_intermediate_p&#45;&gt;C83</title>
<path fill="none" stroke="black" d="M611.046,-188C611.885,-188 623.971,-188 637.414,-188"/>
<polygon fill="black" stroke="black" points="637.794,-191.5 647.794,-188 637.794,-184.5 637.794,-191.5"/>
</g>
<!-- r3__D -->
<g id="node71" class="node"><title>r3__D</title>
<polygon fill="none" stroke="black" points="790,-152 776,-152 776,-138 790,-138 790,-152"/>
</g>
<!-- r3__D_intermediate_p -->
<g id="node75" class="node"><title>r3__D_intermediate_p</title>
<ellipse fill="black" stroke="black" cx="826" cy="-148" rx="0.036" ry="0.036"/>
</g>
<!-- r3__D&#45;&gt;r3__D_intermediate_p -->
<g id="edge88" class="edge"><title>r3__D&#45;&gt;r3__D_intermediate_p</title>
<path fill="none" stroke="black" d="M790.101,-145.495C801.932,-146.321 824.531,-147.897 825.932,-147.995"/>
</g>
<!-- r3__D&#45;&gt;r3__D_intermediate_m -->
<g id="edge92" class="edge"><title>r3__D&#45;&gt;r3__D_intermediate_m</title>
<path fill="none" stroke="black" d="M791.981,-127.038C804.126,-102.749 824.449,-62.1029 825.916,-59.1682"/>
<polygon fill="none" stroke="black" points="791.885,-127.229 792.78,-134.385 786.519,-137.962 785.624,-130.807 791.885,-127.229"/>
</g>
<!-- r3__D_intermediate_r&#45;&gt;r3__D -->
<g id="edge84" class="edge"><title>r3__D_intermediate_r&#45;&gt;r3__D</title>
<path fill="none" stroke="black" d="M739.126,-152.977C741.022,-152.632 763.795,-148.492 775.759,-146.317"/>
</g>
<!-- r3__D_intermediate_p&#45;&gt;p3 -->
<g id="edge90" class="edge"><title>r3__D_intermediate_p&#45;&gt;p3</title>
<path fill="none" stroke="black" d="M826.046,-148.009C826.865,-148.165 838.597,-150.399 851.716,-152.898"/>
<polygon fill="black" stroke="black" points="851.381,-156.397 861.86,-154.83 852.691,-149.521 851.381,-156.397"/>
</g>
<!-- r4__D -->
<g id="node83" class="node"><title>r4__D</title>
<polygon fill="none" stroke="black" points="554,-200 540,-200 540,-186 554,-186 554,-200"/>
</g>
<!-- r4__D_intermediate_p -->
<g id="node87" class="node"><title>r4__D_intermediate_p</title>
<ellipse fill="black" stroke="black" cx="611" cy="-162" rx="0.036" ry="0.036"/>
</g>
<!-- r4__D&#45;&gt;r4__D_intermediate_p -->
<g id="edge104" class="edge"><title>r4__D&#45;&gt;r4__D_intermediate_p</title>
<path fill="none" stroke="black" d="M554.342,-189.444C570.627,-181.556 608.532,-163.195 610.885,-162.056"/>
</g>
<!-- r4__D&#45;&gt;r4__D_intermediate_m -->
<g id="edge108" class="edge"><title>r4__D&#45;&gt;r4__D_intermediate_m</title>
<path fill="none" stroke="black" d="M560.678,-176.544C578.797,-154.744 608.736,-118.724 610.878,-116.146"/>
<polygon fill="none" stroke="black" points="560.577,-176.666 559.818,-183.837 552.906,-185.894 553.665,-178.723 560.577,-176.666"/>
</g>
<!-- r4__D_intermediate_r&#45;&gt;r4__D -->
<g id="edge100" class="edge"><title>r4__D_intermediate_r&#45;&gt;r4__D</title>
<path fill="none" stroke="black" d="M483.046,-198.996C484.576,-198.852 523.51,-195.202 539.868,-193.669"/>
</g>
<!-- r4__D_intermediate_p&#45;&gt;AB -->
<g id="edge106" class="edge"><title>r4__D_intermediate_p&#45;&gt;AB</title>
<path fill="none" stroke="black" d="M611.046,-161.98C611.91,-161.602 624.691,-156.01 638.603,-149.924"/>
<polygon fill="black" stroke="black" points="640.036,-153.117 647.794,-145.902 637.23,-146.704 640.036,-153.117"/>
</g>
</g>
</svg>
