<?xml version="1.0" encoding="UTF-8" standalone="no"?>
<!DOCTYPE svg PUBLIC "-//W3C//DTD SVG 1.1//EN"
 "http://www.w3.org/Graphics/SVG/1.1/DTD/svg11.dtd">
<!-- Generated by graphviz version 2.24.0 (20090616.2323)
 -->
<!-- Title: G Pages: 1 -->
<svg width="728pt" height="298pt"
 viewBox="0.00 0.00 728.00 298.00" xmlns="http://www.w3.org/2000/svg" xmlns:xlink="http://www.w3.org/1999/xlink">
<g id="graph1" class="graph" transform="scale(1 1) rotate(0) translate(4 294)">
<title>G</title>
<polygon fill="white" stroke="white" points="-4,5 -4,-294 725,-294 725,5 -4,5"/>
<!-- EC -->
<g id="node1" class="node"><title>EC</title>
<ellipse fill="none" stroke="black" cx="108" cy="-265" rx="18" ry="18"/>
<text text-anchor="middle" x="108" y="-262.5" font-family="Times Roman,serif" font-size="10.00">EC</text>
</g>
<!-- vin_intermediate_r -->
<g id="node6" class="node"><title>vin_intermediate_r</title>
<ellipse fill="black" stroke="black" cx="163" cy="-241" rx="0.036" ry="0.036"/>
</g>
<!-- EC&#45;&gt;vin_intermediate_r -->
<g id="edge4" class="edge"><title>EC&#45;&gt;vin_intermediate_r</title>
<path fill="none" stroke="black" d="M124.502,-257.799C140.196,-250.951 161.612,-241.606 162.936,-241.028"/>
</g>
<!-- Z -->
<g id="node2" class="node"><title>Z</title>
<ellipse fill="none" stroke="black" cx="328" cy="-201" rx="18" ry="18"/>
<text text-anchor="middle" x="328" y="-198.5" font-family="Times Roman,serif" font-size="10.00">Z</text>
</g>
<!-- v2_intermediate_r -->
<g id="node13" class="node"><title>v2_intermediate_r</title>
<ellipse fill="black" stroke="black" cx="409" cy="-154" rx="0.036" ry="0.036"/>
</g>
<!-- Z&#45;&gt;v2_intermediate_r -->
<g id="edge12" class="edge"><title>Z&#45;&gt;v2_intermediate_r</title>
<path fill="none" stroke="black" d="M343.424,-191.177C354.133,-184.455 368.793,-175.447 382,-168 393.406,-161.568 408.052,-154.459 408.956,-154.021"/>
</g>
<!-- v5_intermediate_r -->
<g id="node37" class="node"><title>v5_intermediate_r</title>
<ellipse fill="black" stroke="black" cx="409" cy="-252" rx="0.036" ry="0.036"/>
</g>
<!-- Z&#45;&gt;v5_intermediate_r -->
<g id="edge40" class="edge"><title>Z&#45;&gt;v5_intermediate_r</title>
<path fill="none" stroke="black" d="M343.235,-210.593C365.966,-224.904 406.375,-250.347 408.878,-251.923"/>
</g>
<!-- v7_intermediate_m -->
<g id="node55" class="node"><title>v7_intermediate_m</title>
<ellipse fill="black" stroke="black" cx="409" cy="-136" rx="0.036" ry="0.036"/>
</g>
<!-- Z&#45;&gt;v7_intermediate_m -->
<g id="edge60" class="edge"><title>Z&#45;&gt;v7_intermediate_m</title>
<path fill="none" stroke="black" d="M338.898,-186.205C348.854,-173.64 364.636,-155.951 382,-145 392.365,-138.463 407.987,-136.145 408.953,-136.007"/>
</g>
<!-- A -->
<g id="node3" class="node"><title>A</title>
<ellipse fill="none" stroke="black" cx="218" cy="-46" rx="18" ry="18"/>
<text text-anchor="middle" x="218" y="-43.5" font-family="Times Roman,serif" font-size="10.00">A</text>
</g>
<!-- v3_intermediate_m -->
<g id="node26" class="node"><title>v3_intermediate_m</title>
<ellipse fill="black" stroke="black" cx="720" cy="-74" rx="0.036" ry="0.036"/>
</g>
<!-- A&#45;&gt;v3_intermediate_m -->
<g id="edge28" class="edge"><title>A&#45;&gt;v3_intermediate_m</title>
<path fill="none" stroke="black" d="M232.839,-35.3311C253.238,-21.7422 291.568,-0 328,-0 328,-0 328,-0 633,-0 682.969,-0 718.864,-71.7056 719.974,-73.9464"/>
</g>
<!-- v7_intermediate_r -->
<g id="node50" class="node"><title>v7_intermediate_r</title>
<ellipse fill="black" stroke="black" cx="273" cy="-82" rx="0.036" ry="0.036"/>
</g>
<!-- A&#45;&gt;v7_intermediate_r -->
<g id="edge54" class="edge"><title>A&#45;&gt;v7_intermediate_r</title>
<path fill="none" stroke="black" d="M233.321,-56.028C249.086,-66.3472 271.544,-81.0471 272.932,-81.9557"/>
</g>
<!-- v8_intermediate_r -->
<g id="node59" class="node"><title>v8_intermediate_r</title>
<ellipse fill="black" stroke="black" cx="273" cy="-46" rx="0.036" ry="0.036"/>
</g>
<!-- A&#45;&gt;v8_intermediate_r -->
<g id="edge64" class="edge"><title>A&#45;&gt;v8_intermediate_r</title>
<path fill="none" stroke="black" d="M236.009,-46C251.548,-46 271.695,-46 272.939,-46"/>
</g>
<!-- Y -->
<g id="node4" class="node"><title>Y</title>
<ellipse fill="none" stroke="black" cx="578" cy="-136" rx="18" ry="18"/>
<text text-anchor="middle" x="578" y="-133.5" font-family="Times Roman,serif" font-size="10.00">Y</text>
</g>
<!-- v3_intermediate_r -->
<g id="node20" class="node"><title>v3_intermediate_r</title>
<ellipse fill="black" stroke="black" cx="633" cy="-119" rx="0.036" ry="0.036"/>
</g>
<!-- Y&#45;&gt;v3_intermediate_r -->
<g id="edge20" class="edge"><title>Y&#45;&gt;v3_intermediate_r</title>
<path fill="none" stroke="black" d="M595.402,-130.621C611.012,-125.796 631.662,-119.413 632.938,-119.019"/>
</g>
<!-- v4_intermediate_r -->
<g id="node30" class="node"><title>v4_intermediate_r</title>
<ellipse fill="black" stroke="black" cx="633" cy="-142" rx="0.036" ry="0.036"/>
</g>
<!-- Y&#45;&gt;v4_intermediate_r -->
<g id="edge32" class="edge"><title>Y&#45;&gt;v4_intermediate_r</title>
<path fill="none" stroke="black" d="M596.009,-137.965C611.548,-139.66 631.695,-141.858 632.939,-141.993"/>
</g>
<!-- vin -->
<g id="node5" class="node"><title>vin</title>
<polygon fill="none" stroke="black" points="225,-223 211,-223 211,-209 225,-209 225,-223"/>
</g>
<!-- vin_intermediate_p -->
<g id="node9" class="node"><title>vin_intermediate_p</title>
<ellipse fill="black" stroke="black" cx="273" cy="-206" rx="0.036" ry="0.036"/>
</g>
<!-- vin&#45;&gt;vin_intermediate_p -->
<g id="edge6" class="edge"><title>vin&#45;&gt;vin_intermediate_p</title>
<path fill="none" stroke="black" d="M225.19,-214.693C239.633,-212.067 270.961,-206.371 272.905,-206.017"/>
</g>
<!-- vin_intermediate_r&#45;&gt;vin -->
<g id="edge2" class="edge"><title>vin_intermediate_r&#45;&gt;vin</title>
<path fill="none" stroke="black" d="M163.158,-240.928C165.628,-239.806 196.463,-225.79 210.781,-219.281"/>
</g>
<!-- vin_intermediate_p&#45;&gt;Z -->
<g id="edge8" class="edge"><title>vin_intermediate_p&#45;&gt;Z</title>
<path fill="none" stroke="black" d="M273.158,-205.986C274.699,-205.846 287.285,-204.701 300.011,-203.544"/>
<polygon fill="black" stroke="black" points="300.396,-207.024 310.039,-202.633 299.763,-200.053 300.396,-207.024"/>
</g>
<!-- v2 -->
<g id="node12" class="node"><title>v2</title>
<polygon fill="none" stroke="black" points="486,-149 472,-149 472,-135 486,-135 486,-149"/>
</g>
<!-- v2_intermediate_p -->
<g id="node16" class="node"><title>v2_intermediate_p</title>
<ellipse fill="black" stroke="black" cx="523" cy="-139" rx="0.036" ry="0.036"/>
</g>
<!-- v2&#45;&gt;v2_intermediate_p -->
<g id="edge14" class="edge"><title>v2&#45;&gt;v2_intermediate_p</title>
<path fill="none" stroke="black" d="M486.266,-141.505C498.372,-140.679 521.497,-139.103 522.93,-139.005"/>
</g>
<!-- v2_intermediate_r&#45;&gt;v2 -->
<g id="edge10" class="edge"><title>v2_intermediate_r&#45;&gt;v2</title>
<path fill="none" stroke="black" d="M409.051,-153.991C410.748,-153.7 454.582,-146.186 471.98,-143.203"/>
</g>
<!-- v2_intermediate_p&#45;&gt;Y -->
<g id="edge16" class="edge"><title>v2_intermediate_p&#45;&gt;Y</title>
<path fill="none" stroke="black" d="M523.158,-138.991C524.674,-138.909 536.878,-138.243 549.389,-137.561"/>
<polygon fill="black" stroke="black" points="549.949,-141.035 559.743,-136.996 549.567,-134.046 549.949,-141.035"/>
</g>
<!-- v3 -->
<g id="node19" class="node"><title>v3</title>
<polygon fill="none" stroke="black" points="684,-122 670,-122 670,-108 684,-108 684,-122"/>
</g>
<!-- v3_intermediate_p -->
<g id="node23" class="node"><title>v3_intermediate_p</title>
<ellipse fill="black" stroke="black" cx="720" cy="-140" rx="0.036" ry="0.036"/>
</g>
<!-- v3&#45;&gt;v3_intermediate_p -->
<g id="edge22" class="edge"><title>v3&#45;&gt;v3_intermediate_p</title>
<path fill="none" stroke="black" d="M684.101,-119.128C695.932,-126.007 718.531,-139.146 719.932,-139.96"/>
</g>
<!-- v3&#45;&gt;v3_intermediate_m -->
<g id="edge26" class="edge"><title>v3&#45;&gt;v3_intermediate_m</title>
<path fill="none" stroke="black" d="M693.076,-99.6716C704.805,-88.4885 718.837,-75.1087 719.932,-74.0651"/>
<polygon fill="none" stroke="black" points="692.785,-99.9487 691.203,-106.984 684.101,-108.23 685.683,-101.194 692.785,-99.9487"/>
</g>
<!-- v3_intermediate_r&#45;&gt;v3 -->
<g id="edge18" class="edge"><title>v3_intermediate_r&#45;&gt;v3</title>
<path fill="none" stroke="black" d="M633.126,-118.989C635.022,-118.816 657.795,-116.746 669.759,-115.658"/>
</g>
<!-- v3_intermediate_p&#45;&gt;Z -->
<g id="edge24" class="edge"><title>v3_intermediate_p&#45;&gt;Z</title>
<path fill="none" stroke="black" d="M719.872,-140.12C717.247,-142.584 674.595,-182 633,-182 479,-182 479,-182 479,-182 435.747,-182 386.067,-189.769 355.865,-195.371"/>
<polygon fill="black" stroke="black" points="355.205,-191.934 346.038,-197.246 356.516,-198.81 355.205,-191.934"/>
</g>
<!-- v4 -->
<g id="node29" class="node"><title>v4</title>
<polygon fill="none" stroke="black" points="684,-154 670,-154 670,-140 684,-140 684,-154"/>
</g>
<!-- v4_intermediate_p -->
<g id="node33" class="node"><title>v4_intermediate_p</title>
<ellipse fill="black" stroke="black" cx="720" cy="-183" rx="0.036" ry="0.036"/>
</g>
<!-- v4&#45;&gt;v4_intermediate_p -->
<g id="edge34" class="edge"><title>v4&#45;&gt;v4_intermediate_p</title>
<path fill="none" stroke="black" d="M684.101,-152.945C695.932,-162.85 718.531,-181.77 719.932,-182.943"/>
</g>
<!-- v4_intermediate_r&#45;&gt;v4 -->
<g id="edge30" class="edge"><title>v4_intermediate_r&#45;&gt;v4</title>
<path fill="none" stroke="black" d="M633.126,-142.014C635.022,-142.23 657.795,-144.818 669.759,-146.177"/>
</g>
<!-- v4_intermediate_p&#45;&gt;Z -->
<g id="edge36" class="edge"><title>v4_intermediate_p&#45;&gt;Z</title>
<path fill="none" stroke="black" d="M719.87,-183.106C717.192,-185.276 673.705,-220 633,-220 479,-220 479,-220 479,-220 435.747,-220 386.067,-212.231 355.865,-206.629"/>
<polygon fill="black" stroke="black" points="356.516,-203.19 346.038,-204.754 355.205,-210.066 356.516,-203.19"/>
</g>
<!-- v5 -->
<g id="node36" class="node"><title>v5</title>
<polygon fill="none" stroke="black" points="486,-262 472,-262 472,-248 486,-248 486,-262"/>
</g>
<!-- v5_intermediate_p -->
<g id="node40" class="node"><title>v5_intermediate_p</title>
<ellipse fill="black" stroke="black" cx="523" cy="-272" rx="0.036" ry="0.036"/>
</g>
<!-- v5&#45;&gt;v5_intermediate_p -->
<g id="edge42" class="edge"><title>v5&#45;&gt;v5_intermediate_p</title>
<path fill="none" stroke="black" d="M486.266,-257.807C498.372,-262.485 521.497,-271.419 522.93,-271.973"/>
</g>
<!-- v5_intermediate_r&#45;&gt;v5 -->
<g id="edge38" class="edge"><title>v5_intermediate_r&#45;&gt;v5</title>
<path fill="none" stroke="black" d="M409.051,-252.002C410.748,-252.075 454.582,-253.954 471.98,-254.699"/>
</g>
<!-- v5_intermediate_p&#45;&gt;EC -->
<g id="edge44" class="edge"><title>v5_intermediate_p&#45;&gt;EC</title>
<path fill="none" stroke="black" d="M522.954,-272.013C521.043,-272.558 459.493,-290 409,-290 218,-290 218,-290 218,-290 188.92,-290 156.568,-281.59 134.522,-274.525"/>
<polygon fill="black" stroke="black" points="135.471,-271.152 124.877,-271.309 133.257,-277.792 135.471,-271.152"/>
</g>
<!-- v6 -->
<g id="node43" class="node"><title>v6</title>
<polygon fill="none" stroke="black" points="115,-53 101,-53 101,-39 115,-39 115,-53"/>
</g>
<!-- v6_intermediate_p -->
<g id="node46" class="node"><title>v6_intermediate_p</title>
<ellipse fill="black" stroke="black" cx="163" cy="-46" rx="0.036" ry="0.036"/>
</g>
<!-- v6&#45;&gt;v6_intermediate_p -->
<g id="edge48" class="edge"><title>v6&#45;&gt;v6_intermediate_p</title>
<path fill="none" stroke="black" d="M115.19,-46C129.633,-46 160.961,-46 162.905,-46"/>
</g>
<!-- v6_empty -->
<g id="node44" class="node"><title>v6_empty</title>
<text text-anchor="middle" x="27" y="-41.5" font-family="Times Roman,serif" font-size="15.00" fill="blue">Ø</text>
</g>
<!-- v6_empty&#45;&gt;v6 -->
<g id="edge46" class="edge"><title>v6_empty&#45;&gt;v6</title>
<path fill="none" stroke="black" d="M54.4229,-46C70.7619,-46 90.2818,-46 100.66,-46"/>
</g>
<!-- v6_intermediate_p&#45;&gt;A -->
<g id="edge50" class="edge"><title>v6_intermediate_p&#45;&gt;A</title>
<path fill="none" stroke="black" d="M163.158,-46C164.674,-46 176.878,-46 189.389,-46"/>
<polygon fill="black" stroke="black" points="189.743,-49.5001 199.743,-46 189.743,-42.5001 189.743,-49.5001"/>
</g>
<!-- v7 -->
<g id="node49" class="node"><title>v7</title>
<polygon fill="none" stroke="black" points="335,-107 321,-107 321,-93 335,-93 335,-107"/>
</g>
<!-- v7_empty -->
<g id="node53" class="node"><title>v7_empty</title>
<text text-anchor="middle" x="409" y="-95.5" font-family="Times Roman,serif" font-size="15.00" fill="blue">Ø</text>
</g>
<!-- v7&#45;&gt;v7_empty -->
<g id="edge56" class="edge"><title>v7&#45;&gt;v7_empty</title>
<path fill="none" stroke="black" d="M335.188,-100C343.457,-100 357.67,-100 371.429,-100"/>
<polygon fill="black" stroke="black" points="371.757,-103.5 381.757,-100 371.757,-96.5001 371.757,-103.5"/>
</g>
<!-- v7&#45;&gt;v7_intermediate_m -->
<g id="edge58" class="edge"><title>v7&#45;&gt;v7_intermediate_m</title>
<path fill="none" stroke="black" d="M346.059,-109.836C356.411,-115.269 369.746,-121.924 382,-127 393.321,-131.689 408.046,-135.739 408.956,-135.988"/>
<polygon fill="none" stroke="black" points="345.759,-109.675 338.581,-110.365 335.184,-104.004 342.362,-103.314 345.759,-109.675"/>
</g>
<!-- v7_intermediate_r&#45;&gt;v7 -->
<g id="edge52" class="edge"><title>v7_intermediate_r&#45;&gt;v7</title>
<path fill="none" stroke="black" d="M273.158,-82.0516C275.628,-82.86 306.463,-92.9515 320.781,-97.6376"/>
</g>
<!-- v8 -->
<g id="node58" class="node"><title>v8</title>
<polygon fill="none" stroke="black" points="335,-53 321,-53 321,-39 335,-39 335,-53"/>
</g>
<!-- v8_empty -->
<g id="node62" class="node"><title>v8_empty</title>
<text text-anchor="middle" x="409" y="-41.5" font-family="Times Roman,serif" font-size="15.00" fill="blue">Ø</text>
</g>
<!-- v8&#45;&gt;v8_empty -->
<g id="edge66" class="edge"><title>v8&#45;&gt;v8_empty</title>
<path fill="none" stroke="black" d="M335.188,-46C343.457,-46 357.67,-46 371.429,-46"/>
<polygon fill="black" stroke="black" points="371.757,-49.5001 381.757,-46 371.757,-42.5001 371.757,-49.5001"/>
</g>
<!-- v8_intermediate_r&#45;&gt;v8 -->
<g id="edge62" class="edge"><title>v8_intermediate_r&#45;&gt;v8</title>
<path fill="none" stroke="black" d="M273.158,-46C275.628,-46 306.463,-46 320.781,-46"/>
</g>
</g>
</svg>
