<?xml version="1.0" encoding="UTF-8" standalone="no"?>
<!DOCTYPE svg PUBLIC "-//W3C//DTD SVG 1.1//EN"
 "http://www.w3.org/Graphics/SVG/1.1/DTD/svg11.dtd">
<!-- Generated by graphviz version 2.24.0 (20090616.2323)
 -->
<!-- Title: G Pages: 1 -->
<svg width="1568pt" height="202pt"
 viewBox="0.00 0.00 1568.00 202.00" xmlns="http://www.w3.org/2000/svg" xmlns:xlink="http://www.w3.org/1999/xlink">
<g id="graph1" class="graph" transform="scale(1 1) rotate(0) translate(4 198)">
<title>G</title>
<polygon fill="white" stroke="white" points="-4,5 -4,-198 1565,-198 1565,5 -4,5"/>
<!-- M -->
<g id="node1" class="node"><title>M</title>
<ellipse fill="none" stroke="black" cx="311" cy="-46" rx="43.8243" ry="18"/>
<text text-anchor="middle" x="311" y="-43.5" font-family="Times Roman,serif" font-size="10.00">PER mRNA</text>
</g>
<!-- rTL_intermediate_m -->
<g id="node26" class="node"><title>rTL_intermediate_m</title>
<ellipse fill="black" stroke="black" cx="393" cy="-69" rx="0.036" ry="0.036"/>
</g>
<!-- M&#45;&gt;rTL_intermediate_m -->
<g id="edge24" class="edge"><title>M&#45;&gt;rTL_intermediate_m</title>
<path fill="none" stroke="black" d="M347.683,-56.2891C368.834,-62.2216 391.534,-68.5888 392.932,-68.9809"/>
</g>
<!-- rmRNAd_intermediate_r -->
<g id="node72" class="node"><title>rmRNAd_intermediate_r</title>
<ellipse fill="black" stroke="black" cx="393" cy="-46" rx="0.036" ry="0.036"/>
</g>
<!-- M&#45;&gt;rmRNAd_intermediate_r -->
<g id="edge76" class="edge"><title>M&#45;&gt;rmRNAd_intermediate_r</title>
<path fill="none" stroke="black" d="M355.839,-46C374.384,-46 391.873,-46 392.948,-46"/>
</g>
<!-- P0 -->
<g id="node2" class="node"><title>P0</title>
<polyline fill="none" stroke="black" points="547,-110 443,-110 "/>
<path fill="none" stroke="black" d="M443,-110C437,-110 431,-104 431,-98"/>
<polyline fill="none" stroke="black" points="431,-98 431,-86 "/>
<path fill="none" stroke="black" d="M431,-86C431,-80 437,-74 443,-74"/>
<polyline fill="none" stroke="black" points="443,-74 547,-74 "/>
<path fill="none" stroke="black" d="M547,-74C553,-74 559,-80 559,-86"/>
<polyline fill="none" stroke="black" points="559,-86 559,-98 "/>
<path fill="none" stroke="black" d="M559,-98C559,-104 553,-110 547,-110"/>
<text text-anchor="middle" x="495" y="-89.5" font-family="Times Roman,serif" font-size="10.00">unphosphorylated PER</text>
</g>
<!-- rP01_intermediate_r -->
<g id="node30" class="node"><title>rP01_intermediate_r</title>
<ellipse fill="black" stroke="black" cx="597" cy="-123" rx="0.036" ry="0.036"/>
</g>
<!-- P0&#45;&gt;rP01_intermediate_r -->
<g id="edge28" class="edge"><title>P0&#45;&gt;rP01_intermediate_r</title>
<path fill="none" stroke="black" d="M554.334,-110.033C576.072,-116.639 595.734,-122.615 596.941,-122.982"/>
</g>
<!-- P1 -->
<g id="node3" class="node"><title>P1</title>
<polyline fill="none" stroke="black" points="895,-171 775,-171 "/>
<path fill="none" stroke="black" d="M775,-171C769,-171 763,-165 763,-159"/>
<polyline fill="none" stroke="black" points="763,-159 763,-147 "/>
<path fill="none" stroke="black" d="M763,-147C763,-141 769,-135 775,-135"/>
<polyline fill="none" stroke="black" points="775,-135 895,-135 "/>
<path fill="none" stroke="black" d="M895,-135C901,-135 907,-141 907,-147"/>
<polyline fill="none" stroke="black" points="907,-147 907,-159 "/>
<path fill="none" stroke="black" d="M907,-159C907,-165 901,-171 895,-171"/>
<text text-anchor="middle" x="835" y="-150.5" font-family="Times Roman,serif" font-size="10.00">monophosphorylated PER</text>
</g>
<!-- rP10_intermediate_r -->
<g id="node37" class="node"><title>rP10_intermediate_r</title>
<ellipse fill="black" stroke="black" cx="945" cy="-132" rx="0.036" ry="0.036"/>
</g>
<!-- P1&#45;&gt;rP10_intermediate_r -->
<g id="edge36" class="edge"><title>P1&#45;&gt;rP10_intermediate_r</title>
<path fill="none" stroke="black" d="M907.759,-139.11C927.576,-135.326 943.947,-132.201 944.951,-132.009"/>
</g>
<!-- rP12_intermediate_r -->
<g id="node44" class="node"><title>rP12_intermediate_r</title>
<ellipse fill="black" stroke="black" cx="945" cy="-155" rx="0.036" ry="0.036"/>
</g>
<!-- P1&#45;&gt;rP12_intermediate_r -->
<g id="edge44" class="edge"><title>P1&#45;&gt;rP12_intermediate_r</title>
<path fill="none" stroke="black" d="M907.759,-154.323C927.576,-154.683 943.947,-154.981 944.951,-154.999"/>
</g>
<!-- P2 -->
<g id="node4" class="node"><title>P2</title>
<polyline fill="none" stroke="black" points="1184,-139 1082,-139 "/>
<path fill="none" stroke="black" d="M1082,-139C1076,-139 1070,-133 1070,-127"/>
<polyline fill="none" stroke="black" points="1070,-127 1070,-115 "/>
<path fill="none" stroke="black" d="M1070,-115C1070,-109 1076,-103 1082,-103"/>
<polyline fill="none" stroke="black" points="1082,-103 1184,-103 "/>
<path fill="none" stroke="black" d="M1184,-103C1190,-103 1196,-109 1196,-115"/>
<polyline fill="none" stroke="black" points="1196,-115 1196,-127 "/>
<path fill="none" stroke="black" d="M1196,-127C1196,-133 1190,-139 1184,-139"/>
<text text-anchor="middle" x="1133" y="-118.5" font-family="Times Roman,serif" font-size="10.00">biphosphorylated PER</text>
</g>
<!-- rP21_intermediate_r -->
<g id="node51" class="node"><title>rP21_intermediate_r</title>
<ellipse fill="black" stroke="black" cx="1233" cy="-121" rx="0.036" ry="0.036"/>
</g>
<!-- P2&#45;&gt;rP21_intermediate_r -->
<g id="edge52" class="edge"><title>P2&#45;&gt;rP21_intermediate_r</title>
<path fill="none" stroke="black" d="M1196.05,-121C1215.39,-121 1231.94,-121 1232.95,-121"/>
</g>
<!-- rP2n_intermediate_r -->
<g id="node58" class="node"><title>rP2n_intermediate_r</title>
<ellipse fill="black" stroke="black" cx="1233" cy="-96" rx="0.036" ry="0.036"/>
</g>
<!-- P2&#45;&gt;rP2n_intermediate_r -->
<g id="edge60" class="edge"><title>P2&#45;&gt;rP2n_intermediate_r</title>
<path fill="none" stroke="black" d="M1196.05,-105.238C1215.39,-100.402 1231.94,-96.2661 1232.95,-96.0123"/>
</g>
<!-- rVd_intermediate_r -->
<g id="node80" class="node"><title>rVd_intermediate_r</title>
<ellipse fill="black" stroke="black" cx="1233" cy="-67" rx="0.036" ry="0.036"/>
</g>
<!-- P2&#45;&gt;rVd_intermediate_r -->
<g id="edge84" class="edge"><title>P2&#45;&gt;rVd_intermediate_r</title>
<path fill="none" stroke="black" d="M1166.58,-102.869C1194.72,-87.6712 1230.67,-68.2569 1232.89,-67.0584"/>
</g>
<!-- Pn -->
<g id="node5" class="node"><title>Pn</title>
<polyline fill="none" stroke="black" points="1423,-123 1371,-123 "/>
<path fill="none" stroke="black" d="M1371,-123C1365,-123 1359,-117 1359,-111"/>
<polyline fill="none" stroke="black" points="1359,-111 1359,-99 "/>
<path fill="none" stroke="black" d="M1359,-99C1359,-93 1365,-87 1371,-87"/>
<polyline fill="none" stroke="black" points="1371,-87 1423,-87 "/>
<path fill="none" stroke="black" d="M1423,-87C1429,-87 1435,-93 1435,-99"/>
<polyline fill="none" stroke="black" points="1435,-99 1435,-111 "/>
<path fill="none" stroke="black" d="M1435,-111C1435,-117 1429,-123 1423,-123"/>
<text text-anchor="middle" x="1397" y="-102.5" font-family="Times Roman,serif" font-size="10.00">nuclear PER</text>
</g>
<!-- rM_intermediate_m -->
<g id="node15" class="node"><title>rM_intermediate_m</title>
<ellipse fill="black" stroke="black" cx="1473" cy="-48" rx="0.036" ry="0.036"/>
</g>
<!-- Pn&#45;&gt;rM_intermediate_m -->
<g id="edge12" class="edge"><title>Pn&#45;&gt;rM_intermediate_m</title>
<path fill="none" stroke="black" d="M1423.63,-86.9671C1427.8,-84.0223 1432.05,-80.9643 1436,-78 1452.41,-65.6959 1471.75,-49.0767 1472.94,-48.05"/>
</g>
<!-- rPn2_intermediate_r -->
<g id="node65" class="node"><title>rPn2_intermediate_r</title>
<ellipse fill="black" stroke="black" cx="1473" cy="-109" rx="0.036" ry="0.036"/>
</g>
<!-- Pn&#45;&gt;rPn2_intermediate_r -->
<g id="edge68" class="edge"><title>Pn&#45;&gt;rPn2_intermediate_r</title>
<path fill="none" stroke="black" d="M1435.89,-107.047C1454,-108 1471.85,-108.939 1472.95,-108.997"/>
</g>
<!-- Pt -->
<g id="node6" class="node"><title>Pt</title>
<polyline fill="none" stroke="black" points="53,-95 13,-95 "/>
<path fill="none" stroke="black" d="M13,-95C7,-95 1,-89 1,-83"/>
<polyline fill="none" stroke="black" points="1,-83 1,-71 "/>
<path fill="none" stroke="black" d="M1,-71C1,-65 7,-59 13,-59"/>
<polyline fill="none" stroke="black" points="13,-59 53,-59 "/>
<path fill="none" stroke="black" d="M53,-59C59,-59 65,-65 65,-71"/>
<polyline fill="none" stroke="black" points="65,-71 65,-83 "/>
<path fill="none" stroke="black" d="M65,-83C65,-89 59,-95 53,-95"/>
<text text-anchor="middle" x="33" y="-74.5" font-family="Times Roman,serif" font-size="10.00">total PER</text>
</g>
<!-- rM -->
<g id="node7" class="node"><title>rM</title>
<polygon fill="none" stroke="black" points="172,-30 158,-30 158,-16 172,-16 172,-30"/>
</g>
<!-- rM_intermediate_p -->
<g id="node12" class="node"><title>rM_intermediate_p</title>
<ellipse fill="black" stroke="black" cx="229" cy="-46" rx="0.036" ry="0.036"/>
</g>
<!-- rM&#45;&gt;rM_intermediate_p -->
<g id="edge6" class="edge"><title>rM&#45;&gt;rM_intermediate_p</title>
<path fill="none" stroke="black" d="M172.342,-25.6384C188.627,-31.491 226.532,-45.1131 228.885,-45.9587"/>
</g>
<!-- rM&#45;&gt;rM_intermediate_m -->
<g id="edge10" class="edge"><title>rM&#45;&gt;rM_intermediate_m</title>
<path fill="none" stroke="black" d="M183.913,-18.0827C211.605,-11.3265 264.903,-3.55271e-15 311,-0 311,-0 311,-0 1321,-0 1373.21,-3.55271e-15 1387.72,-4.12131 1436,-24 1453.56,-31.2294 1471.82,-46.9753 1472.95,-47.9523"/>
<polygon fill="none" stroke="black" points="183.862,-18.0955 179.026,-23.4451 172.228,-21.039 177.064,-15.6895 183.862,-18.0955"/>
</g>
<!-- rM_intermediate_r -->
<g id="node8" class="node"><title>rM_intermediate_r</title>
<ellipse fill="black" stroke="black" cx="102" cy="-23" rx="0.036" ry="0.036"/>
</g>
<!-- rM_intermediate_r&#45;&gt;rM -->
<g id="edge2" class="edge"><title>rM_intermediate_r&#45;&gt;rM</title>
<path fill="none" stroke="black" d="M102.046,-23C103.551,-23 141.877,-23 157.979,-23"/>
</g>
<!-- rM_empty -->
<g id="node10" class="node"><title>rM_empty</title>
<text text-anchor="middle" x="33" y="-18.5" font-family="Times Roman,serif" font-size="15.00" fill="blue">Ø</text>
</g>
<!-- rM_empty&#45;&gt;rM_intermediate_r -->
<g id="edge4" class="edge"><title>rM_empty&#45;&gt;rM_intermediate_r</title>
<path fill="none" stroke="black" d="M60.2706,-23C78.9546,-23 100.6,-23 101.935,-23"/>
</g>
<!-- rM_intermediate_p&#45;&gt;M -->
<g id="edge8" class="edge"><title>rM_intermediate_p&#45;&gt;M</title>
<path fill="none" stroke="black" d="M229.059,-46C229.989,-46 241.716,-46 256.021,-46"/>
<polygon fill="black" stroke="black" points="256.236,-49.5001 266.236,-46 256.236,-42.5001 256.236,-49.5001"/>
</g>
<!-- rTL -->
<g id="node18" class="node"><title>rTL</title>
<polygon fill="none" stroke="black" points="318,-96 304,-96 304,-82 318,-82 318,-96"/>
</g>
<!-- rTL_intermediate_p -->
<g id="node23" class="node"><title>rTL_intermediate_p</title>
<ellipse fill="black" stroke="black" cx="393" cy="-90" rx="0.036" ry="0.036"/>
</g>
<!-- rTL&#45;&gt;rTL_intermediate_p -->
<g id="edge18" class="edge"><title>rTL&#45;&gt;rTL_intermediate_p</title>
<path fill="none" stroke="black" d="M318.277,-89.0887C337.718,-89.3258 389.618,-89.9588 392.843,-89.9981"/>
</g>
<!-- rTL&#45;&gt;rTL_intermediate_m -->
<g id="edge22" class="edge"><title>rTL&#45;&gt;rTL_intermediate_m</title>
<path fill="none" stroke="black" d="M330.108,-84.3394C353.438,-78.6493 390.147,-69.6959 392.843,-69.0384"/>
<polygon fill="none" stroke="black" points="329.935,-84.3816 325.054,-89.6894 318.277,-87.2251 323.158,-81.9173 329.935,-84.3816"/>
</g>
<!-- rTL_intermediate_r -->
<g id="node19" class="node"><title>rTL_intermediate_r</title>
<ellipse fill="black" stroke="black" cx="229" cy="-89" rx="0.036" ry="0.036"/>
</g>
<!-- rTL_intermediate_r&#45;&gt;rTL -->
<g id="edge14" class="edge"><title>rTL_intermediate_r&#45;&gt;rTL</title>
<path fill="none" stroke="black" d="M229.059,-89C231.087,-89 284.419,-89 303.933,-89"/>
</g>
<!-- rTL_empty -->
<g id="node21" class="node"><title>rTL_empty</title>
<text text-anchor="middle" x="165" y="-84.5" font-family="Times Roman,serif" font-size="15.00" fill="blue">Ø</text>
</g>
<!-- rTL_empty&#45;&gt;rTL_intermediate_r -->
<g id="edge16" class="edge"><title>rTL_empty&#45;&gt;rTL_intermediate_r</title>
<path fill="none" stroke="black" d="M192.142,-89C209.04,-89 227.788,-89 228.944,-89"/>
</g>
<!-- rTL_intermediate_p&#45;&gt;P0 -->
<g id="edge20" class="edge"><title>rTL_intermediate_p&#45;&gt;P0</title>
<path fill="none" stroke="black" d="M393.074,-90.0014C394.088,-90.0213 405.432,-90.2438 420.21,-90.5335"/>
<polygon fill="black" stroke="black" points="420.276,-94.0354 430.343,-90.7322 420.414,-87.0368 420.276,-94.0354"/>
</g>
<!-- rP01 -->
<g id="node29" class="node"><title>rP01</title>
<polygon fill="none" stroke="black" points="668,-150 654,-150 654,-136 668,-136 668,-150"/>
</g>
<!-- rP01_intermediate_p -->
<g id="node33" class="node"><title>rP01_intermediate_p</title>
<ellipse fill="black" stroke="black" cx="725" cy="-151" rx="0.036" ry="0.036"/>
</g>
<!-- rP01&#45;&gt;rP01_intermediate_p -->
<g id="edge30" class="edge"><title>rP01&#45;&gt;rP01_intermediate_p</title>
<path fill="none" stroke="black" d="M668.342,-143.918C684.627,-145.953 722.532,-150.692 724.885,-150.986"/>
</g>
<!-- rP01_intermediate_r&#45;&gt;rP01 -->
<g id="edge26" class="edge"><title>rP01_intermediate_r&#45;&gt;rP01</title>
<path fill="none" stroke="black" d="M597.046,-123.014C598.576,-123.492 637.51,-135.659 653.868,-140.771"/>
</g>
<!-- rP01_intermediate_p&#45;&gt;P1 -->
<g id="edge32" class="edge"><title>rP01_intermediate_p&#45;&gt;P1</title>
<path fill="none" stroke="black" d="M725.08,-151.001C726.12,-151.02 737.24,-151.223 752.039,-151.492"/>
<polygon fill="black" stroke="black" points="752.165,-154.994 762.227,-151.677 752.292,-147.996 752.165,-154.994"/>
</g>
<!-- rP10 -->
<g id="node36" class="node"><title>rP10</title>
<polygon fill="none" stroke="black" points="996,-134 982,-134 982,-120 996,-120 996,-134"/>
</g>
<!-- rP10_intermediate_p -->
<g id="node40" class="node"><title>rP10_intermediate_p</title>
<ellipse fill="black" stroke="black" cx="1033" cy="-112" rx="0.036" ry="0.036"/>
</g>
<!-- rP10&#45;&gt;rP10_intermediate_p -->
<g id="edge38" class="edge"><title>rP10&#45;&gt;rP10_intermediate_p</title>
<path fill="none" stroke="black" d="M996.266,-124.523C1008.37,-120.396 1031.5,-112.513 1032.93,-112.024"/>
</g>
<!-- rP10_intermediate_r&#45;&gt;rP10 -->
<g id="edge34" class="edge"><title>rP10_intermediate_r&#45;&gt;rP10</title>
<path fill="none" stroke="black" d="M945.126,-131.986C947.022,-131.77 969.795,-129.182 981.759,-127.823"/>
</g>
<!-- rP10_intermediate_p&#45;&gt;P0 -->
<g id="edge40" class="edge"><title>rP10_intermediate_p&#45;&gt;P0</title>
<path fill="none" stroke="black" d="M1032.86,-111.943C1030.01,-110.77 983.855,-92 945,-92 661,-92 661,-92 661,-92 631.226,-92 598.448,-92 569.94,-92"/>
<polygon fill="black" stroke="black" points="569.643,-88.5001 559.643,-92 569.643,-95.5001 569.643,-88.5001"/>
</g>
<!-- rP12 -->
<g id="node43" class="node"><title>rP12</title>
<polygon fill="none" stroke="black" points="996,-166 982,-166 982,-152 996,-152 996,-166"/>
</g>
<!-- rP12_intermediate_p -->
<g id="node47" class="node"><title>rP12_intermediate_p</title>
<ellipse fill="black" stroke="black" cx="1033" cy="-137" rx="0.036" ry="0.036"/>
</g>
<!-- rP12&#45;&gt;rP12_intermediate_p -->
<g id="edge46" class="edge"><title>rP12&#45;&gt;rP12_intermediate_p</title>
<path fill="none" stroke="black" d="M996.266,-155.367C1008.37,-149.314 1031.5,-137.752 1032.93,-137.035"/>
</g>
<!-- rP12_intermediate_r&#45;&gt;rP12 -->
<g id="edge42" class="edge"><title>rP12_intermediate_r&#45;&gt;rP12</title>
<path fill="none" stroke="black" d="M945.126,-155.011C947.022,-155.184 969.795,-157.254 981.759,-158.342"/>
</g>
<!-- rP12_intermediate_p&#45;&gt;P2 -->
<g id="edge48" class="edge"><title>rP12_intermediate_p&#45;&gt;P2</title>
<path fill="none" stroke="black" d="M1033.07,-136.988C1034.07,-136.828 1045.3,-135.033 1059.89,-132.698"/>
<polygon fill="black" stroke="black" points="1060.57,-136.134 1069.89,-131.098 1059.46,-129.222 1060.57,-136.134"/>
</g>
<!-- rP21 -->
<g id="node50" class="node"><title>rP21</title>
<polygon fill="none" stroke="black" points="1284,-128 1270,-128 1270,-114 1284,-114 1284,-128"/>
</g>
<!-- rP21_intermediate_p -->
<g id="node54" class="node"><title>rP21_intermediate_p</title>
<ellipse fill="black" stroke="black" cx="1321" cy="-189" rx="0.036" ry="0.036"/>
</g>
<!-- rP21&#45;&gt;rP21_intermediate_p -->
<g id="edge54" class="edge"><title>rP21&#45;&gt;rP21_intermediate_p</title>
<path fill="none" stroke="black" d="M1281.54,-128.021C1292.43,-144.852 1319.25,-186.3 1320.92,-188.874"/>
</g>
<!-- rP21_intermediate_r&#45;&gt;rP21 -->
<g id="edge50" class="edge"><title>rP21_intermediate_r&#45;&gt;rP21</title>
<path fill="none" stroke="black" d="M1233.13,-121C1235.02,-121 1257.79,-121 1269.76,-121"/>
</g>
<!-- rP21_intermediate_p&#45;&gt;P1 -->
<g id="edge56" class="edge"><title>rP21_intermediate_p&#45;&gt;P1</title>
<path fill="none" stroke="black" d="M1320.86,-189.014C1317.96,-189.308 1270.95,-194 1233,-194 989,-194 989,-194 989,-194 954.697,-194 917.498,-184.383 888.255,-174.464"/>
<polygon fill="black" stroke="black" points="889.254,-171.106 878.659,-171.103 886.939,-177.712 889.254,-171.106"/>
</g>
<!-- rP2n -->
<g id="node57" class="node"><title>rP2n</title>
<polygon fill="none" stroke="black" points="1284,-96 1270,-96 1270,-82 1284,-82 1284,-96"/>
</g>
<!-- rP2n_intermediate_p -->
<g id="node61" class="node"><title>rP2n_intermediate_p</title>
<ellipse fill="black" stroke="black" cx="1321" cy="-99" rx="0.036" ry="0.036"/>
</g>
<!-- rP2n&#45;&gt;rP2n_intermediate_p -->
<g id="edge62" class="edge"><title>rP2n&#45;&gt;rP2n_intermediate_p</title>
<path fill="none" stroke="black" d="M1284.27,-90.6513C1296.37,-93.4028 1319.5,-98.6583 1320.93,-98.9841"/>
</g>
<!-- rP2n_intermediate_r&#45;&gt;rP2n -->
<g id="edge58" class="edge"><title>rP2n_intermediate_r&#45;&gt;rP2n</title>
<path fill="none" stroke="black" d="M1233.13,-95.9799C1235.02,-95.6784 1257.79,-92.0554 1269.76,-90.152"/>
</g>
<!-- rP2n_intermediate_p&#45;&gt;Pn -->
<g id="edge64" class="edge"><title>rP2n_intermediate_p&#45;&gt;Pn</title>
<path fill="none" stroke="black" d="M1321.06,-99.0043C1321.96,-99.0759 1333.92,-100.02 1348.08,-101.138"/>
<polygon fill="black" stroke="black" points="1347.89,-104.634 1358.14,-101.932 1348.44,-97.6556 1347.89,-104.634"/>
</g>
<!-- rPn2 -->
<g id="node64" class="node"><title>rPn2</title>
<polygon fill="none" stroke="black" points="1524,-124 1510,-124 1510,-110 1524,-110 1524,-124"/>
</g>
<!-- rPn2_intermediate_p -->
<g id="node68" class="node"><title>rPn2_intermediate_p</title>
<ellipse fill="black" stroke="black" cx="1560" cy="-138" rx="0.036" ry="0.036"/>
</g>
<!-- rPn2&#45;&gt;rPn2_intermediate_p -->
<g id="edge70" class="edge"><title>rPn2&#45;&gt;rPn2_intermediate_p</title>
<path fill="none" stroke="black" d="M1524.1,-120.468C1535.93,-126.246 1558.53,-137.282 1559.93,-137.967"/>
</g>
<!-- rPn2_intermediate_r&#45;&gt;rPn2 -->
<g id="edge66" class="edge"><title>rPn2_intermediate_r&#45;&gt;rPn2</title>
<path fill="none" stroke="black" d="M1473.13,-109.023C1475.02,-109.368 1497.79,-113.508 1509.76,-115.683"/>
</g>
<!-- rPn2_intermediate_p&#45;&gt;P2 -->
<g id="edge72" class="edge"><title>rPn2_intermediate_p&#45;&gt;P2</title>
<path fill="none" stroke="black" d="M1559.86,-138.052C1557.04,-139.107 1511.25,-156 1473,-156 1277,-156 1277,-156 1277,-156 1248.37,-156 1217.42,-149.386 1191.58,-141.909"/>
<polygon fill="black" stroke="black" points="1192.52,-138.538 1181.94,-139.013 1190.51,-145.242 1192.52,-138.538"/>
</g>
<!-- rmRNAd -->
<g id="node71" class="node"><title>rmRNAd</title>
<polygon fill="none" stroke="black" points="502,-53 488,-53 488,-39 502,-39 502,-53"/>
</g>
<!-- rmRNAd_intermediate_p -->
<g id="node75" class="node"><title>rmRNAd_intermediate_p</title>
<ellipse fill="black" stroke="black" cx="597" cy="-46" rx="0.036" ry="0.036"/>
</g>
<!-- rmRNAd&#45;&gt;rmRNAd_intermediate_p -->
<g id="edge78" class="edge"><title>rmRNAd&#45;&gt;rmRNAd_intermediate_p</title>
<path fill="none" stroke="black" d="M502.011,-46C524.695,-46 594.764,-46 596.948,-46"/>
</g>
<!-- rmRNAd_intermediate_r&#45;&gt;rmRNAd -->
<g id="edge74" class="edge"><title>rmRNAd_intermediate_r&#45;&gt;rmRNAd</title>
<path fill="none" stroke="black" d="M393.074,-46C395.656,-46 465.146,-46 487.878,-46"/>
</g>
<!-- rmRNAd_empty -->
<g id="node77" class="node"><title>rmRNAd_empty</title>
<text text-anchor="middle" x="661" y="-41.5" font-family="Times Roman,serif" font-size="15.00" fill="blue">Ø</text>
</g>
<!-- rmRNAd_intermediate_p&#45;&gt;rmRNAd_empty -->
<g id="edge80" class="edge"><title>rmRNAd_intermediate_p&#45;&gt;rmRNAd_empty</title>
<path fill="none" stroke="black" d="M597.046,-46C597.885,-46 609.971,-46 623.414,-46"/>
<polygon fill="black" stroke="black" points="623.794,-49.5001 633.794,-46 623.794,-42.5001 623.794,-49.5001"/>
</g>
<!-- rVd -->
<g id="node79" class="node"><title>rVd</title>
<polygon fill="none" stroke="black" points="1284,-64 1270,-64 1270,-50 1284,-50 1284,-64"/>
</g>
<!-- rVd_intermediate_p -->
<g id="node83" class="node"><title>rVd_intermediate_p</title>
<ellipse fill="black" stroke="black" cx="1321" cy="-51" rx="0.036" ry="0.036"/>
</g>
<!-- rVd&#45;&gt;rVd_intermediate_p -->
<g id="edge86" class="edge"><title>rVd&#45;&gt;rVd_intermediate_p</title>
<path fill="none" stroke="black" d="M1284.27,-56.0092C1296.37,-54.3583 1319.5,-51.205 1320.93,-51.0095"/>
</g>
<!-- rVd_intermediate_r&#45;&gt;rVd -->
<g id="edge82" class="edge"><title>rVd_intermediate_r&#45;&gt;rVd</title>
<path fill="none" stroke="black" d="M1233.13,-66.9713C1235.02,-66.5406 1257.79,-61.3649 1269.76,-58.6457"/>
</g>
<!-- rVd_empty -->
<g id="node85" class="node"><title>rVd_empty</title>
<text text-anchor="middle" x="1397" y="-46.5" font-family="Times Roman,serif" font-size="15.00" fill="blue">Ø</text>
</g>
<!-- rVd_intermediate_p&#45;&gt;rVd_empty -->
<g id="edge88" class="edge"><title>rVd_intermediate_p&#45;&gt;rVd_empty</title>
<path fill="none" stroke="black" d="M1321.06,-51C1322.2,-51 1341.02,-51 1359.63,-51"/>
<polygon fill="black" stroke="black" points="1359.84,-54.5001 1369.84,-51 1359.84,-47.5001 1359.84,-54.5001"/>
</g>
</g>
</svg>
