<?xml version="1.0" encoding="UTF-8" standalone="no"?>
<!DOCTYPE svg PUBLIC "-//W3C//DTD SVG 1.1//EN"
 "http://www.w3.org/Graphics/SVG/1.1/DTD/svg11.dtd">
<!-- Generated by graphviz version 2.30.1 (20140821.0912)
 -->
<!-- Title: G Pages: 1 -->
<svg width="770pt" height="1891pt"
 viewBox="0.00 0.00 770.00 1891.00" xmlns="http://www.w3.org/2000/svg" xmlns:xlink="http://www.w3.org/1999/xlink">
<g id="graph0" class="graph" transform="scale(1 1) rotate(0) translate(4 1887)">
<title>G</title>
<polygon fill="white" stroke="white" points="-4,5 -4,-1887 767,-1887 767,5 -4,5"/>
<!-- IL1b -->
<g id="IL1b" class="node"><title>IL1b</title>
<path fill="none" stroke="black" d="M328,-61C328,-61 298,-61 298,-61 292,-61 286,-55 286,-49 286,-49 286,-37 286,-37 286,-31 292,-25 298,-25 298,-25 328,-25 328,-25 334,-25 340,-31 340,-37 340,-37 340,-49 340,-49 340,-55 334,-61 328,-61"/>
<text text-anchor="middle" x="313" y="-40.5" font-family="Times,serif" font-size="10.00">IL1b</text>
</g>
<!-- IL1b_degradation_intermediate_r -->
<g id="node59" class="node"><title>IL1b_degradation_intermediate_r</title>
<ellipse fill="black" stroke="black" cx="409" cy="-43" rx="0.036" ry="0.036"/>
</g>
<!-- IL1b&#45;&gt;IL1b_degradation_intermediate_r -->
<g id="edge25" class="edge"><title>IL1b&#45;&gt;IL1b_degradation_intermediate_r</title>
<path fill="none" stroke="black" d="M340.184,-43C367.129,-43 405.512,-43 407.884,-43"/>
</g>
<!-- IL1Ra -->
<g id="IL1Ra" class="node"><title>IL1Ra</title>
<path fill="none" stroke="black" d="M42,-144C42,-144 12,-144 12,-144 6,-144 0,-138 0,-132 0,-132 0,-120 0,-120 0,-114 6,-108 12,-108 12,-108 42,-108 42,-108 48,-108 54,-114 54,-120 54,-120 54,-132 54,-132 54,-138 48,-144 42,-144"/>
<text text-anchor="middle" x="27" y="-123.5" font-family="Times,serif" font-size="10.00">IL1Ra</text>
</g>
<!-- Anakinra -->
<g id="Anakinra [CHEBI:52217]" class="node"><title>Anakinra</title>
<ellipse fill="none" stroke="black" cx="313" cy="-180" rx="32.2534" ry="18"/>
<text text-anchor="middle" x="313" y="-177.5" font-family="Times,serif" font-size="10.00">Anakinra</text>
</g>
<!-- Anakinra_elimination_intermediate_r -->
<g id="node72" class="node"><title>Anakinra_elimination_intermediate_r</title>
<ellipse fill="black" stroke="black" cx="409" cy="-180" rx="0.036" ry="0.036"/>
</g>
<!-- Anakinra&#45;&gt;Anakinra_elimination_intermediate_r -->
<g id="edge39" class="edge"><title>Anakinra&#45;&gt;Anakinra_elimination_intermediate_r</title>
<path fill="none" stroke="black" d="M345.562,-180C372.017,-180 405.812,-180 407.898,-180"/>
</g>
<!-- Proinsulin -->
<g id="Proinsulin" class="node"><title>Proinsulin</title>
<path fill="none" stroke="black" d="M519.5,-545C519.5,-545 484.5,-545 484.5,-545 478.5,-545 472.5,-539 472.5,-533 472.5,-533 472.5,-521 472.5,-521 472.5,-515 478.5,-509 484.5,-509 484.5,-509 519.5,-509 519.5,-509 525.5,-509 531.5,-515 531.5,-521 531.5,-521 531.5,-533 531.5,-533 531.5,-539 525.5,-545 519.5,-545"/>
<text text-anchor="middle" x="502" y="-524.5" font-family="Times,serif" font-size="10.00">Proinsulin</text>
</g>
<!-- Proinsulin_dependent_glucose_uptake_intermediate_m -->
<g id="node87" class="node"><title>Proinsulin_dependent_glucose_uptake_intermediate_m</title>
<ellipse fill="black" stroke="black" cx="595" cy="-522" rx="0.036" ry="0.036"/>
</g>
<!-- Proinsulin&#45;&gt;Proinsulin_dependent_glucose_uptake_intermediate_m -->
<g id="edge56" class="edge"><title>Proinsulin&#45;&gt;Proinsulin_dependent_glucose_uptake_intermediate_m</title>
<path fill="none" stroke="black" d="M531.793,-525.418C557.62,-523.999 591.787,-522.122 593.897,-522.006"/>
</g>
<!-- Proinsulin_elimination_intermediate_r -->
<g id="node100" class="node"><title>Proinsulin_elimination_intermediate_r</title>
<ellipse fill="black" stroke="black" cx="595" cy="-540" rx="0.036" ry="0.036"/>
</g>
<!-- Proinsulin&#45;&gt;Proinsulin_elimination_intermediate_r -->
<g id="edge76" class="edge"><title>Proinsulin&#45;&gt;Proinsulin_elimination_intermediate_r</title>
<path fill="none" stroke="black" d="M531.793,-531.113C557.62,-534.803 591.787,-539.684 593.897,-539.985"/>
</g>
<!-- Insulin -->
<g id="Insulin" class="node"><title>Insulin</title>
<path fill="none" stroke="black" d="M517,-281C517,-281 487,-281 487,-281 481,-281 475,-275 475,-269 475,-269 475,-257 475,-257 475,-251 481,-245 487,-245 487,-245 517,-245 517,-245 523,-245 529,-251 529,-257 529,-257 529,-269 529,-269 529,-275 523,-281 517,-281"/>
<text text-anchor="middle" x="502" y="-260.5" font-family="Times,serif" font-size="10.00">Insulin</text>
</g>
<!-- Insulin_dependent_glucose_uptake_intermediate_m -->
<g id="node83" class="node"><title>Insulin_dependent_glucose_uptake_intermediate_m</title>
<ellipse fill="black" stroke="black" cx="595" cy="-288" rx="0.036" ry="0.036"/>
</g>
<!-- Insulin&#45;&gt;Insulin_dependent_glucose_uptake_intermediate_m -->
<g id="edge51" class="edge"><title>Insulin&#45;&gt;Insulin_dependent_glucose_uptake_intermediate_m</title>
<path fill="none" stroke="black" d="M529.321,-270.231C555.357,-277.384 591.648,-287.354 593.891,-287.97"/>
</g>
<!-- Insulin_elimination_intermediate_r -->
<g id="node93" class="node"><title>Insulin_elimination_intermediate_r</title>
<ellipse fill="black" stroke="black" cx="595" cy="-216" rx="0.036" ry="0.036"/>
</g>
<!-- Insulin&#45;&gt;Insulin_elimination_intermediate_r -->
<g id="edge65" class="edge"><title>Insulin&#45;&gt;Insulin_elimination_intermediate_r</title>
<path fill="none" stroke="black" d="M529.25,-246.073C540.847,-239.013 554.818,-231.064 568,-225 578.415,-220.209 592.153,-216.491 593.83,-216.045"/>
</g>
<!-- TigB -->
<g id="TigB" class="node"><title>TigB</title>
<ellipse fill="none" stroke="black" cx="313" cy="-360" rx="27" ry="18"/>
<text text-anchor="middle" x="313" y="-357.5" font-family="Times,serif" font-size="10.00">TigB</text>
</g>
<!-- TigB_down_intermediate_r -->
<g id="node40" class="node"><title>TigB_down_intermediate_r</title>
<ellipse fill="black" stroke="black" cx="409" cy="-352" rx="0.036" ry="0.036"/>
</g>
<!-- TigB&#45;&gt;TigB_down_intermediate_r -->
<g id="edge5" class="edge"><title>TigB&#45;&gt;TigB_down_intermediate_r</title>
<path fill="none" stroke="black" d="M339.935,-357.793C366.889,-355.499 405.497,-352.213 407.884,-352.01"/>
</g>
<!-- Glucose_dependent_insulin_secretion_intermediate_m -->
<g id="node91" class="node"><title>Glucose_dependent_insulin_secretion_intermediate_m</title>
<ellipse fill="black" stroke="black" cx="409" cy="-325" rx="0.036" ry="0.036"/>
</g>
<!-- TigB&#45;&gt;Glucose_dependent_insulin_secretion_intermediate_m -->
<g id="edge61" class="edge"><title>TigB&#45;&gt;Glucose_dependent_insulin_secretion_intermediate_m</title>
<path fill="none" stroke="black" d="M337.236,-351.348C364.202,-341.308 405.332,-325.994 407.876,-325.046"/>
</g>
<!-- Glucose_dependent_proinsulin_secretion_intermediate_m -->
<g id="node98" class="node"><title>Glucose_dependent_proinsulin_secretion_intermediate_m</title>
<ellipse fill="black" stroke="black" cx="409" cy="-414" rx="0.036" ry="0.036"/>
</g>
<!-- TigB&#45;&gt;Glucose_dependent_proinsulin_secretion_intermediate_m -->
<g id="edge71" class="edge"><title>TigB&#45;&gt;Glucose_dependent_proinsulin_secretion_intermediate_m</title>
<path fill="none" stroke="black" d="M333.935,-371.452C360.666,-386.808 405.114,-412.342 407.866,-413.923"/>
</g>
<!-- B -->
<g id="B" class="node"><title>B</title>
<ellipse fill="none" stroke="black" cx="313" cy="-306" rx="27" ry="18"/>
<text text-anchor="middle" x="313" y="-303.5" font-family="Times,serif" font-size="10.00">B</text>
</g>
<!-- Bcell_apoptosis_intermediate_r -->
<g id="node46" class="node"><title>Bcell_apoptosis_intermediate_r</title>
<ellipse fill="black" stroke="black" cx="409" cy="-306" rx="0.036" ry="0.036"/>
</g>
<!-- B&#45;&gt;Bcell_apoptosis_intermediate_r -->
<g id="edge11" class="edge"><title>B&#45;&gt;Bcell_apoptosis_intermediate_r</title>
<path fill="none" stroke="black" d="M340.184,-306C367.129,-306 405.512,-306 407.884,-306"/>
</g>
<!-- B&#45;&gt;Glucose_dependent_insulin_secretion_intermediate_m -->
<g id="edge62" class="edge"><title>B&#45;&gt;Glucose_dependent_insulin_secretion_intermediate_m</title>
<path fill="none" stroke="black" d="M339.19,-311.092C366.164,-316.544 405.452,-324.485 407.882,-324.976"/>
</g>
<!-- B&#45;&gt;Glucose_dependent_proinsulin_secretion_intermediate_m -->
<g id="edge72" class="edge"><title>B&#45;&gt;Glucose_dependent_proinsulin_secretion_intermediate_m</title>
<path fill="none" stroke="black" d="M331.966,-319.272C336.845,-323.359 341.906,-328.085 346,-333 366.641,-357.778 360.203,-372.233 382,-396 391.203,-406.034 406.976,-413.52 407.952,-413.978"/>
</g>
<!-- f -->
<g id="f" class="node"><title>f</title>
<ellipse fill="none" stroke="black" cx="313" cy="-543" rx="27" ry="18"/>
<text text-anchor="middle" x="313" y="-540.5" font-family="Times,serif" font-size="10.00">f</text>
</g>
<!-- proinsulin_sec_down_intermediate_r -->
<g id="node53" class="node"><title>proinsulin_sec_down_intermediate_r</title>
<ellipse fill="black" stroke="black" cx="409" cy="-545" rx="0.036" ry="0.036"/>
</g>
<!-- f&#45;&gt;proinsulin_sec_down_intermediate_r -->
<g id="edge19" class="edge"><title>f&#45;&gt;proinsulin_sec_down_intermediate_r</title>
<path fill="none" stroke="black" d="M340.184,-543.557C367.129,-544.13 405.512,-544.947 407.884,-544.998"/>
</g>
<!-- f&#45;&gt;Glucose_dependent_proinsulin_secretion_intermediate_m -->
<g id="edge73" class="edge"><title>f&#45;&gt;Glucose_dependent_proinsulin_secretion_intermediate_m</title>
<path fill="none" stroke="black" d="M321.962,-525.619C335.833,-495.985 364.609,-437.478 382,-423 391.104,-415.421 406.969,-414.08 407.952,-414.004"/>
</g>
<!-- Anakinrasc -->
<g id="Anakinrasc" class="node"><title>Anakinrasc</title>
<path fill="none" stroke="black" d="M141.5,-241C141.5,-241 102.5,-241 102.5,-241 96.5,-241 90.5,-235 90.5,-229 90.5,-229 90.5,-217 90.5,-217 90.5,-211 96.5,-205 102.5,-205 102.5,-205 141.5,-205 141.5,-205 147.5,-205 153.5,-211 153.5,-217 153.5,-217 153.5,-229 153.5,-229 153.5,-235 147.5,-241 141.5,-241"/>
<text text-anchor="middle" x="122" y="-220.5" font-family="Times,serif" font-size="10.00">Anakinrasc</text>
</g>
<!-- AnakinraSC_elimination_intermediate_r -->
<g id="node65" class="node"><title>AnakinraSC_elimination_intermediate_r</title>
<ellipse fill="black" stroke="black" cx="217" cy="-223" rx="0.036" ry="0.036"/>
</g>
<!-- Anakinrasc&#45;&gt;AnakinraSC_elimination_intermediate_r -->
<g id="edge31" class="edge"><title>Anakinrasc&#45;&gt;AnakinraSC_elimination_intermediate_r</title>
<path fill="none" stroke="black" d="M153.709,-223C179.952,-223 213.808,-223 215.898,-223"/>
</g>
<!-- Anakinra_absorption_intermediate_m -->
<g id="node70" class="node"><title>Anakinra_absorption_intermediate_m</title>
<ellipse fill="black" stroke="black" cx="217" cy="-202" rx="0.036" ry="0.036"/>
</g>
<!-- Anakinrasc&#45;&gt;Anakinra_absorption_intermediate_m -->
<g id="edge37" class="edge"><title>Anakinrasc&#45;&gt;Anakinra_absorption_intermediate_m</title>
<path fill="none" stroke="black" d="M153.709,-216.066C179.952,-210.14 213.808,-202.495 215.898,-202.023"/>
</g>
<!-- Glucose -->
<g id="Glucose [CHEBI:17234]" class="node"><title>Glucose</title>
<ellipse fill="none" stroke="black" cx="313" cy="-414" rx="29.3664" ry="18"/>
<text text-anchor="middle" x="313" y="-411.5" font-family="Times,serif" font-size="10.00">Glucose</text>
</g>
<!-- proinsulin_sec_up_intermediate_m -->
<g id="node51" class="node"><title>proinsulin_sec_up_intermediate_m</title>
<ellipse fill="black" stroke="black" cx="409" cy="-483" rx="0.036" ry="0.036"/>
</g>
<!-- Glucose&#45;&gt;proinsulin_sec_up_intermediate_m -->
<g id="edge17" class="edge"><title>Glucose&#45;&gt;proinsulin_sec_up_intermediate_m</title>
<path fill="none" stroke="black" d="M331.211,-428.271C344.724,-439.263 364.172,-454.623 382,-467 392.449,-474.254 406.158,-481.969 407.83,-482.905"/>
</g>
<!-- Basal_glucose_uptake_intermediate_r -->
<g id="node78" class="node"><title>Basal_glucose_uptake_intermediate_r</title>
<ellipse fill="black" stroke="black" cx="409" cy="-432" rx="0.036" ry="0.036"/>
</g>
<!-- Glucose&#45;&gt;Basal_glucose_uptake_intermediate_r -->
<g id="edge45" class="edge"><title>Glucose&#45;&gt;Basal_glucose_uptake_intermediate_r</title>
<path fill="none" stroke="black" d="M341.189,-419.206C368.083,-424.356 405.57,-431.535 407.887,-431.978"/>
</g>
<!-- Insulin_dependent_glucose_uptake_intermediate_r -->
<g id="node81" class="node"><title>Insulin_dependent_glucose_uptake_intermediate_r</title>
<ellipse fill="black" stroke="black" cx="409" cy="-387" rx="0.036" ry="0.036"/>
</g>
<!-- Glucose&#45;&gt;Insulin_dependent_glucose_uptake_intermediate_r -->
<g id="edge48" class="edge"><title>Glucose&#45;&gt;Insulin_dependent_glucose_uptake_intermediate_r</title>
<path fill="none" stroke="black" d="M339.935,-406.551C366.889,-398.809 405.497,-387.719 407.884,-387.033"/>
</g>
<!-- Proinsulin_dependent_glucose_uptake_intermediate_r -->
<g id="node85" class="node"><title>Proinsulin_dependent_glucose_uptake_intermediate_r</title>
<ellipse fill="black" stroke="black" cx="409" cy="-458" rx="0.036" ry="0.036"/>
</g>
<!-- Glucose&#45;&gt;Proinsulin_dependent_glucose_uptake_intermediate_r -->
<g id="edge53" class="edge"><title>Glucose&#45;&gt;Proinsulin_dependent_glucose_uptake_intermediate_r</title>
<path fill="none" stroke="black" d="M336.755,-424.651C363.705,-437.266 405.301,-456.737 407.875,-457.941"/>
</g>
<!-- Glucose&#45;&gt;Glucose_dependent_insulin_secretion_intermediate_m -->
<g id="edge63" class="edge"><title>Glucose&#45;&gt;Glucose_dependent_insulin_secretion_intermediate_m</title>
<path fill="none" stroke="black" d="M331.789,-399.986C336.563,-395.962 341.613,-391.454 346,-387 363.731,-368.999 363.432,-360.136 382,-343 392.006,-333.766 407.026,-325.53 407.955,-325.025"/>
</g>
<!-- Glucose&#45;&gt;Glucose_dependent_proinsulin_secretion_intermediate_m -->
<g id="edge74" class="edge"><title>Glucose&#45;&gt;Glucose_dependent_proinsulin_secretion_intermediate_m</title>
<path fill="none" stroke="black" d="M342.458,-414C369.26,-414 405.643,-414 407.891,-414"/>
</g>
<!-- a1c1 -->
<g id="a1c1" class="node"><title>a1c1</title>
<ellipse fill="none" stroke="black" cx="27" cy="-569" rx="27" ry="18"/>
<text text-anchor="middle" x="27" y="-566.5" font-family="Times,serif" font-size="10.00">a1c1</text>
</g>
<!-- rbc1 -->
<g id="rbc1" class="node"><title>rbc1</title>
<ellipse fill="none" stroke="black" cx="27" cy="-623" rx="27" ry="18"/>
<text text-anchor="middle" x="27" y="-620.5" font-family="Times,serif" font-size="10.00">rbc1</text>
</g>
<!-- a1c2 -->
<g id="a1c2" class="node"><title>a1c2</title>
<ellipse fill="none" stroke="black" cx="27" cy="-677" rx="27" ry="18"/>
<text text-anchor="middle" x="27" y="-674.5" font-family="Times,serif" font-size="10.00">a1c2</text>
</g>
<!-- rbc2 -->
<g id="rbc2" class="node"><title>rbc2</title>
<ellipse fill="none" stroke="black" cx="27" cy="-731" rx="27" ry="18"/>
<text text-anchor="middle" x="27" y="-728.5" font-family="Times,serif" font-size="10.00">rbc2</text>
</g>
<!-- a1c3 -->
<g id="a1c3" class="node"><title>a1c3</title>
<ellipse fill="none" stroke="black" cx="27" cy="-785" rx="27" ry="18"/>
<text text-anchor="middle" x="27" y="-782.5" font-family="Times,serif" font-size="10.00">a1c3</text>
</g>
<!-- rbc3 -->
<g id="rbc3" class="node"><title>rbc3</title>
<ellipse fill="none" stroke="black" cx="27" cy="-839" rx="27" ry="18"/>
<text text-anchor="middle" x="27" y="-836.5" font-family="Times,serif" font-size="10.00">rbc3</text>
</g>
<!-- a1c4 -->
<g id="a1c4" class="node"><title>a1c4</title>
<ellipse fill="none" stroke="black" cx="27" cy="-893" rx="27" ry="18"/>
<text text-anchor="middle" x="27" y="-890.5" font-family="Times,serif" font-size="10.00">a1c4</text>
</g>
<!-- rbc4 -->
<g id="rbc4" class="node"><title>rbc4</title>
<ellipse fill="none" stroke="black" cx="27" cy="-947" rx="27" ry="18"/>
<text text-anchor="middle" x="27" y="-944.5" font-family="Times,serif" font-size="10.00">rbc4</text>
</g>
<!-- a1c5 -->
<g id="a1c5" class="node"><title>a1c5</title>
<ellipse fill="none" stroke="black" cx="27" cy="-1001" rx="27" ry="18"/>
<text text-anchor="middle" x="27" y="-998.5" font-family="Times,serif" font-size="10.00">a1c5</text>
</g>
<!-- rbc5 -->
<g id="rbc5" class="node"><title>rbc5</title>
<ellipse fill="none" stroke="black" cx="27" cy="-1055" rx="27" ry="18"/>
<text text-anchor="middle" x="27" y="-1052.5" font-family="Times,serif" font-size="10.00">rbc5</text>
</g>
<!-- a1c6 -->
<g id="a1c6" class="node"><title>a1c6</title>
<ellipse fill="none" stroke="black" cx="27" cy="-1109" rx="27" ry="18"/>
<text text-anchor="middle" x="27" y="-1106.5" font-family="Times,serif" font-size="10.00">a1c6</text>
</g>
<!-- rbc6 -->
<g id="rbc6" class="node"><title>rbc6</title>
<ellipse fill="none" stroke="black" cx="27" cy="-1163" rx="27" ry="18"/>
<text text-anchor="middle" x="27" y="-1160.5" font-family="Times,serif" font-size="10.00">rbc6</text>
</g>
<!-- a1c7 -->
<g id="a1c7" class="node"><title>a1c7</title>
<ellipse fill="none" stroke="black" cx="27" cy="-1217" rx="27" ry="18"/>
<text text-anchor="middle" x="27" y="-1214.5" font-family="Times,serif" font-size="10.00">a1c7</text>
</g>
<!-- rbc7 -->
<g id="rbc7" class="node"><title>rbc7</title>
<ellipse fill="none" stroke="black" cx="27" cy="-1271" rx="27" ry="18"/>
<text text-anchor="middle" x="27" y="-1268.5" font-family="Times,serif" font-size="10.00">rbc7</text>
</g>
<!-- a1c8 -->
<g id="a1c8" class="node"><title>a1c8</title>
<ellipse fill="none" stroke="black" cx="27" cy="-1325" rx="27" ry="18"/>
<text text-anchor="middle" x="27" y="-1322.5" font-family="Times,serif" font-size="10.00">a1c8</text>
</g>
<!-- rbc8 -->
<g id="rbc8" class="node"><title>rbc8</title>
<ellipse fill="none" stroke="black" cx="27" cy="-1379" rx="27" ry="18"/>
<text text-anchor="middle" x="27" y="-1376.5" font-family="Times,serif" font-size="10.00">rbc8</text>
</g>
<!-- a1c9 -->
<g id="a1c9" class="node"><title>a1c9</title>
<ellipse fill="none" stroke="black" cx="27" cy="-1433" rx="27" ry="18"/>
<text text-anchor="middle" x="27" y="-1430.5" font-family="Times,serif" font-size="10.00">a1c9</text>
</g>
<!-- rbc9 -->
<g id="rbc9" class="node"><title>rbc9</title>
<ellipse fill="none" stroke="black" cx="27" cy="-1487" rx="27" ry="18"/>
<text text-anchor="middle" x="27" y="-1484.5" font-family="Times,serif" font-size="10.00">rbc9</text>
</g>
<!-- a1c10 -->
<g id="a1c10" class="node"><title>a1c10</title>
<ellipse fill="none" stroke="black" cx="27" cy="-1541" rx="27" ry="18"/>
<text text-anchor="middle" x="27" y="-1538.5" font-family="Times,serif" font-size="10.00">a1c10</text>
</g>
<!-- rbc10 -->
<g id="rbc10" class="node"><title>rbc10</title>
<ellipse fill="none" stroke="black" cx="27" cy="-1595" rx="27" ry="18"/>
<text text-anchor="middle" x="27" y="-1592.5" font-family="Times,serif" font-size="10.00">rbc10</text>
</g>
<!-- a1c11 -->
<g id="a1c11" class="node"><title>a1c11</title>
<ellipse fill="none" stroke="black" cx="27" cy="-1649" rx="27" ry="18"/>
<text text-anchor="middle" x="27" y="-1646.5" font-family="Times,serif" font-size="10.00">a1c11</text>
</g>
<!-- rbc11 -->
<g id="rbc11" class="node"><title>rbc11</title>
<ellipse fill="none" stroke="black" cx="27" cy="-1703" rx="27" ry="18"/>
<text text-anchor="middle" x="27" y="-1700.5" font-family="Times,serif" font-size="10.00">rbc11</text>
</g>
<!-- a1c12 -->
<g id="a1c12" class="node"><title>a1c12</title>
<ellipse fill="none" stroke="black" cx="27" cy="-1757" rx="27" ry="18"/>
<text text-anchor="middle" x="27" y="-1754.5" font-family="Times,serif" font-size="10.00">a1c12</text>
</g>
<!-- rbc12 -->
<g id="rbc12" class="node"><title>rbc12</title>
<ellipse fill="none" stroke="black" cx="27" cy="-1811" rx="27" ry="18"/>
<text text-anchor="middle" x="27" y="-1808.5" font-family="Times,serif" font-size="10.00">rbc12</text>
</g>
<!-- hba1c -->
<g id="hba1c" class="node"><title>hba1c</title>
<ellipse fill="none" stroke="black" cx="27" cy="-1865" rx="27" ry="18"/>
<text text-anchor="middle" x="27" y="-1862.5" font-family="Times,serif" font-size="10.00">hba1c</text>
</g>
<!-- TigB_up -->
<g id="node36" class="node"><title>TigB_up</title>
<polygon fill="none" stroke="black" points="129,-367 115,-367 115,-353 129,-353 129,-367"/>
</g>
<!-- TigB_up_intermediate_p -->
<g id="node38" class="node"><title>TigB_up_intermediate_p</title>
<ellipse fill="black" stroke="black" cx="217" cy="-360" rx="0.036" ry="0.036"/>
</g>
<!-- TigB_up&#45;&gt;TigB_up_intermediate_p -->
<g id="edge2" class="edge"><title>TigB_up&#45;&gt;TigB_up_intermediate_p</title>
<path fill="none" stroke="black" d="M129.102,-360C149.469,-360 213.942,-360 215.952,-360"/>
</g>
<!-- TigB_up_empty -->
<g id="node37" class="node"><title>TigB_up_empty</title>
<text text-anchor="middle" x="27" y="-356.5" font-family="Times,serif" font-size="15.00" fill="blue">Ø</text>
</g>
<!-- TigB_up_empty&#45;&gt;TigB_up -->
<g id="edge1" class="edge"><title>TigB_up_empty&#45;&gt;TigB_up</title>
<path fill="none" stroke="black" d="M54.4013,-360C75.2373,-360 102.74,-360 114.84,-360"/>
</g>
<!-- TigB_up_intermediate_p&#45;&gt;TigB -->
<g id="edge3" class="edge"><title>TigB_up_intermediate_p&#45;&gt;TigB</title>
<path fill="none" stroke="black" d="M218.068,-360C219.681,-360 249.609,-360 275.255,-360"/>
<polygon fill="black" stroke="black" points="275.526,-363.5 285.526,-360 275.526,-356.5 275.526,-363.5"/>
</g>
<!-- TigB_down -->
<g id="node39" class="node"><title>TigB_down</title>
<polygon fill="none" stroke="black" points="509,-351 495,-351 495,-337 509,-337 509,-351"/>
</g>
<!-- TigB_down_empty -->
<g id="node41" class="node"><title>TigB_down_empty</title>
<text text-anchor="middle" x="595" y="-320.5" font-family="Times,serif" font-size="15.00" fill="blue">Ø</text>
</g>
<!-- TigB_down&#45;&gt;TigB_down_empty -->
<g id="edge6" class="edge"><title>TigB_down&#45;&gt;TigB_down_empty</title>
<path fill="none" stroke="black" d="M509.255,-342.625C519.284,-340.421 539.693,-335.936 557.969,-331.919"/>
<polygon fill="black" stroke="black" points="558.808,-335.318 567.824,-329.753 557.306,-328.481 558.808,-335.318"/>
</g>
<!-- TigB_down_intermediate_r&#45;&gt;TigB_down -->
<g id="edge4" class="edge"><title>TigB_down_intermediate_r&#45;&gt;TigB_down</title>
<path fill="none" stroke="black" d="M410.066,-351.994C412.38,-351.791 474.946,-346.29 494.928,-344.534"/>
</g>
<!-- Bcell_replication -->
<g id="node42" class="node"><title>Bcell_replication</title>
<polygon fill="none" stroke="black" points="129,-313 115,-313 115,-299 129,-299 129,-313"/>
</g>
<!-- Bcell_replication_intermediate_p -->
<g id="node44" class="node"><title>Bcell_replication_intermediate_p</title>
<ellipse fill="black" stroke="black" cx="217" cy="-306" rx="0.036" ry="0.036"/>
</g>
<!-- Bcell_replication&#45;&gt;Bcell_replication_intermediate_p -->
<g id="edge8" class="edge"><title>Bcell_replication&#45;&gt;Bcell_replication_intermediate_p</title>
<path fill="none" stroke="black" d="M129.102,-306C149.469,-306 213.942,-306 215.952,-306"/>
</g>
<!-- Bcell_replication_empty -->
<g id="node43" class="node"><title>Bcell_replication_empty</title>
<text text-anchor="middle" x="27" y="-302.5" font-family="Times,serif" font-size="15.00" fill="blue">Ø</text>
</g>
<!-- Bcell_replication_empty&#45;&gt;Bcell_replication -->
<g id="edge7" class="edge"><title>Bcell_replication_empty&#45;&gt;Bcell_replication</title>
<path fill="none" stroke="black" d="M54.4013,-306C75.2373,-306 102.74,-306 114.84,-306"/>
</g>
<!-- Bcell_replication_intermediate_p&#45;&gt;B -->
<g id="edge9" class="edge"><title>Bcell_replication_intermediate_p&#45;&gt;B</title>
<path fill="none" stroke="black" d="M218.068,-306C219.681,-306 249.609,-306 275.255,-306"/>
<polygon fill="black" stroke="black" points="275.526,-309.5 285.526,-306 275.526,-302.5 275.526,-309.5"/>
</g>
<!-- Bcell_apoptosis -->
<g id="node45" class="node"><title>Bcell_apoptosis</title>
<polygon fill="none" stroke="black" points="509,-313 495,-313 495,-299 509,-299 509,-313"/>
</g>
<!-- Bcell_apoptosis_empty -->
<g id="node47" class="node"><title>Bcell_apoptosis_empty</title>
<text text-anchor="middle" x="595" y="-248.5" font-family="Times,serif" font-size="15.00" fill="blue">Ø</text>
</g>
<!-- Bcell_apoptosis&#45;&gt;Bcell_apoptosis_empty -->
<g id="edge12" class="edge"><title>Bcell_apoptosis&#45;&gt;Bcell_apoptosis_empty</title>
<path fill="none" stroke="black" d="M509.269,-302.648C515.174,-299.466 524.247,-294.512 532,-290 540.92,-284.809 550.466,-279.059 559.328,-273.635"/>
<polygon fill="black" stroke="black" points="561.23,-276.574 567.914,-268.353 557.562,-270.612 561.23,-276.574"/>
</g>
<!-- Bcell_apoptosis_intermediate_r&#45;&gt;Bcell_apoptosis -->
<g id="edge10" class="edge"><title>Bcell_apoptosis_intermediate_r&#45;&gt;Bcell_apoptosis</title>
<path fill="none" stroke="black" d="M410.066,-306C412.38,-306 474.946,-306 494.928,-306"/>
</g>
<!-- proinsulin_sec_up -->
<g id="node48" class="node"><title>proinsulin_sec_up</title>
<polygon fill="none" stroke="black" points="129,-522 115,-522 115,-508 129,-508 129,-522"/>
</g>
<!-- proinsulin_sec_up_intermediate_p -->
<g id="node50" class="node"><title>proinsulin_sec_up_intermediate_p</title>
<ellipse fill="black" stroke="black" cx="217" cy="-534" rx="0.036" ry="0.036"/>
</g>
<!-- proinsulin_sec_up&#45;&gt;proinsulin_sec_up_intermediate_p -->
<g id="edge14" class="edge"><title>proinsulin_sec_up&#45;&gt;proinsulin_sec_up_intermediate_p</title>
<path fill="none" stroke="black" d="M129.102,-516.247C149.469,-520.408 213.942,-533.58 215.952,-533.99"/>
</g>
<!-- proinsulin_sec_up&#45;&gt;proinsulin_sec_up_intermediate_m -->
<g id="edge16" class="edge"><title>proinsulin_sec_up&#45;&gt;proinsulin_sec_up_intermediate_m</title>
<path fill="none" stroke="black" d="M129.218,-514.302C170.57,-509.659 404.307,-483.415 407.957,-483.005"/>
</g>
<!-- proinsulin_sec_up_empty -->
<g id="node49" class="node"><title>proinsulin_sec_up_empty</title>
<text text-anchor="middle" x="27" y="-511.5" font-family="Times,serif" font-size="15.00" fill="blue">Ø</text>
</g>
<!-- proinsulin_sec_up_empty&#45;&gt;proinsulin_sec_up -->
<g id="edge13" class="edge"><title>proinsulin_sec_up_empty&#45;&gt;proinsulin_sec_up</title>
<path fill="none" stroke="black" d="M54.4013,-515C75.2373,-515 102.74,-515 114.84,-515"/>
</g>
<!-- proinsulin_sec_up_intermediate_p&#45;&gt;f -->
<g id="edge15" class="edge"><title>proinsulin_sec_up_intermediate_p&#45;&gt;f</title>
<path fill="none" stroke="black" d="M218.068,-534.007C219.69,-534.162 249.973,-537.061 275.721,-539.526"/>
<polygon fill="black" stroke="black" points="275.73,-543.043 286.019,-540.512 276.398,-536.075 275.73,-543.043"/>
</g>
<!-- proinsulin_sec_down -->
<g id="node52" class="node"><title>proinsulin_sec_down</title>
<polygon fill="none" stroke="black" points="509,-581 495,-581 495,-567 509,-567 509,-581"/>
</g>
<!-- proinsulin_sec_down_empty -->
<g id="node54" class="node"><title>proinsulin_sec_down_empty</title>
<text text-anchor="middle" x="595" y="-572.5" font-family="Times,serif" font-size="15.00" fill="blue">Ø</text>
</g>
<!-- proinsulin_sec_down&#45;&gt;proinsulin_sec_down_empty -->
<g id="edge20" class="edge"><title>proinsulin_sec_down&#45;&gt;proinsulin_sec_down_empty</title>
<path fill="none" stroke="black" d="M509.255,-574.137C519.237,-574.357 539.504,-574.802 557.715,-575.203"/>
<polygon fill="black" stroke="black" points="557.749,-578.704 567.824,-575.425 557.903,-571.706 557.749,-578.704"/>
</g>
<!-- proinsulin_sec_down_intermediate_r&#45;&gt;proinsulin_sec_down -->
<g id="edge18" class="edge"><title>proinsulin_sec_down_intermediate_r&#45;&gt;proinsulin_sec_down</title>
<path fill="none" stroke="black" d="M410.066,-545.021C412.38,-545.759 474.946,-565.697 494.928,-572.065"/>
</g>
<!-- IL1b_treatment -->
<g id="node55" class="node"><title>IL1b_treatment</title>
<polygon fill="none" stroke="black" points="129,-74 115,-74 115,-60 129,-60 129,-74"/>
</g>
<!-- IL1b_treatment_intermediate_p -->
<g id="node57" class="node"><title>IL1b_treatment_intermediate_p</title>
<ellipse fill="black" stroke="black" cx="217" cy="-60" rx="0.036" ry="0.036"/>
</g>
<!-- IL1b_treatment&#45;&gt;IL1b_treatment_intermediate_p -->
<g id="edge22" class="edge"><title>IL1b_treatment&#45;&gt;IL1b_treatment_intermediate_p</title>
<path fill="none" stroke="black" d="M129.102,-66.5407C149.469,-65.0077 213.942,-60.1549 215.952,-60.0036"/>
</g>
<!-- IL1b_treatment_empty -->
<g id="node56" class="node"><title>IL1b_treatment_empty</title>
<text text-anchor="middle" x="27" y="-68.5" font-family="Times,serif" font-size="15.00" fill="blue">Ø</text>
</g>
<!-- IL1b_treatment_empty&#45;&gt;IL1b_treatment -->
<g id="edge21" class="edge"><title>IL1b_treatment_empty&#45;&gt;IL1b_treatment</title>
<path fill="none" stroke="black" d="M54.4013,-70.5806C75.2373,-69.4604 102.74,-67.9817 114.84,-67.3312"/>
</g>
<!-- IL1b_treatment_intermediate_p&#45;&gt;IL1b -->
<g id="edge23" class="edge"><title>IL1b_treatment_intermediate_p&#45;&gt;IL1b</title>
<path fill="none" stroke="black" d="M218.068,-59.9877C219.688,-59.6948 249.876,-54.2352 275.597,-49.5835"/>
<polygon fill="black" stroke="black" points="276.309,-53.0116 285.526,-47.7878 275.063,-46.1234 276.309,-53.0116"/>
</g>
<!-- IL1b_degradation -->
<g id="node58" class="node"><title>IL1b_degradation</title>
<polygon fill="none" stroke="black" points="509,-50 495,-50 495,-36 509,-36 509,-50"/>
</g>
<!-- IL1b_degradation_empty -->
<g id="node60" class="node"><title>IL1b_degradation_empty</title>
<text text-anchor="middle" x="595" y="-39.5" font-family="Times,serif" font-size="15.00" fill="blue">Ø</text>
</g>
<!-- IL1b_degradation&#45;&gt;IL1b_degradation_empty -->
<g id="edge26" class="edge"><title>IL1b_degradation&#45;&gt;IL1b_degradation_empty</title>
<path fill="none" stroke="black" d="M509.255,-43C519.237,-43 539.504,-43 557.715,-43"/>
<polygon fill="black" stroke="black" points="557.824,-46.5001 567.824,-43 557.824,-39.5001 557.824,-46.5001"/>
</g>
<!-- IL1b_degradation_intermediate_r&#45;&gt;IL1b_degradation -->
<g id="edge24" class="edge"><title>IL1b_degradation_intermediate_r&#45;&gt;IL1b_degradation</title>
<path fill="none" stroke="black" d="M410.066,-43C412.38,-43 474.946,-43 494.928,-43"/>
</g>
<!-- IL1b_placebo -->
<g id="node61" class="node"><title>IL1b_placebo</title>
<polygon fill="none" stroke="black" points="129,-31 115,-31 115,-17 129,-17 129,-31"/>
</g>
<!-- IL1b_placebo_intermediate_p -->
<g id="node63" class="node"><title>IL1b_placebo_intermediate_p</title>
<ellipse fill="black" stroke="black" cx="217" cy="-27" rx="0.036" ry="0.036"/>
</g>
<!-- IL1b_placebo&#45;&gt;IL1b_placebo_intermediate_p -->
<g id="edge28" class="edge"><title>IL1b_placebo&#45;&gt;IL1b_placebo_intermediate_p</title>
<path fill="none" stroke="black" d="M129.102,-24.1968C149.469,-24.8538 213.942,-26.9336 215.952,-26.9984"/>
</g>
<!-- IL1b_placebo_empty -->
<g id="node62" class="node"><title>IL1b_placebo_empty</title>
<text text-anchor="middle" x="27" y="-14.5" font-family="Times,serif" font-size="15.00" fill="blue">Ø</text>
</g>
<!-- IL1b_placebo_empty&#45;&gt;IL1b_placebo -->
<g id="edge27" class="edge"><title>IL1b_placebo_empty&#45;&gt;IL1b_placebo</title>
<path fill="none" stroke="black" d="M54.4013,-19.7033C75.2373,-21.0476 102.74,-22.8219 114.84,-23.6025"/>
</g>
<!-- IL1b_placebo_intermediate_p&#45;&gt;IL1b -->
<g id="edge29" class="edge"><title>IL1b_placebo_intermediate_p&#45;&gt;IL1b</title>
<path fill="none" stroke="black" d="M218.068,-27.0116C219.688,-27.2873 249.876,-32.4257 275.597,-36.8037"/>
<polygon fill="black" stroke="black" points="275.081,-40.2662 285.526,-38.4939 276.256,-33.3654 275.081,-40.2662"/>
</g>
<!-- AnakinraSC_elimination -->
<g id="node64" class="node"><title>AnakinraSC_elimination</title>
<polygon fill="none" stroke="black" points="320,-230 306,-230 306,-216 320,-216 320,-230"/>
</g>
<!-- AnakinraSC_elimination_empty -->
<g id="node66" class="node"><title>AnakinraSC_elimination_empty</title>
<text text-anchor="middle" x="409" y="-219.5" font-family="Times,serif" font-size="15.00" fill="blue">Ø</text>
</g>
<!-- AnakinraSC_elimination&#45;&gt;AnakinraSC_elimination_empty -->
<g id="edge32" class="edge"><title>AnakinraSC_elimination&#45;&gt;AnakinraSC_elimination_empty</title>
<path fill="none" stroke="black" d="M320.168,-223C330.554,-223 352.29,-223 371.54,-223"/>
<polygon fill="black" stroke="black" points="371.597,-226.5 381.597,-223 371.597,-219.5 371.597,-226.5"/>
</g>
<!-- AnakinraSC_elimination_intermediate_r&#45;&gt;AnakinraSC_elimination -->
<g id="edge30" class="edge"><title>AnakinraSC_elimination_intermediate_r&#45;&gt;AnakinraSC_elimination</title>
<path fill="none" stroke="black" d="M218.068,-223C220.459,-223 285.088,-223 305.728,-223"/>
</g>
<!-- Anakinra_absorption -->
<g id="node67" class="node"><title>Anakinra_absorption</title>
<polygon fill="none" stroke="black" points="129,-187 115,-187 115,-173 129,-173 129,-187"/>
</g>
<!-- Anakinra_absorption_intermediate_p -->
<g id="node69" class="node"><title>Anakinra_absorption_intermediate_p</title>
<ellipse fill="black" stroke="black" cx="217" cy="-180" rx="0.036" ry="0.036"/>
</g>
<!-- Anakinra_absorption&#45;&gt;Anakinra_absorption_intermediate_p -->
<g id="edge34" class="edge"><title>Anakinra_absorption&#45;&gt;Anakinra_absorption_intermediate_p</title>
<path fill="none" stroke="black" d="M129.102,-180C149.469,-180 213.942,-180 215.952,-180"/>
</g>
<!-- Anakinra_absorption&#45;&gt;Anakinra_absorption_intermediate_m -->
<g id="edge36" class="edge"><title>Anakinra_absorption&#45;&gt;Anakinra_absorption_intermediate_m</title>
<path fill="none" stroke="black" d="M129.102,-181.443C149.469,-186.261 213.942,-201.513 215.952,-201.989"/>
</g>
<!-- Anakinra_absorption_empty -->
<g id="node68" class="node"><title>Anakinra_absorption_empty</title>
<text text-anchor="middle" x="27" y="-176.5" font-family="Times,serif" font-size="15.00" fill="blue">Ø</text>
</g>
<!-- Anakinra_absorption_empty&#45;&gt;Anakinra_absorption -->
<g id="edge33" class="edge"><title>Anakinra_absorption_empty&#45;&gt;Anakinra_absorption</title>
<path fill="none" stroke="black" d="M54.4013,-180C75.2373,-180 102.74,-180 114.84,-180"/>
</g>
<!-- Anakinra_absorption_intermediate_p&#45;&gt;Anakinra -->
<g id="edge35" class="edge"><title>Anakinra_absorption_intermediate_p&#45;&gt;Anakinra</title>
<path fill="none" stroke="black" d="M218.068,-180C219.576,-180 245.85,-180 270.226,-180"/>
<polygon fill="black" stroke="black" points="270.479,-183.5 280.479,-180 270.479,-176.5 270.479,-183.5"/>
</g>
<!-- Anakinra_elimination -->
<g id="node71" class="node"><title>Anakinra_elimination</title>
<polygon fill="none" stroke="black" points="509,-187 495,-187 495,-173 509,-173 509,-187"/>
</g>
<!-- Anakinra_elimination_empty -->
<g id="node73" class="node"><title>Anakinra_elimination_empty</title>
<text text-anchor="middle" x="595" y="-176.5" font-family="Times,serif" font-size="15.00" fill="blue">Ø</text>
</g>
<!-- Anakinra_elimination&#45;&gt;Anakinra_elimination_empty -->
<g id="edge40" class="edge"><title>Anakinra_elimination&#45;&gt;Anakinra_elimination_empty</title>
<path fill="none" stroke="black" d="M509.255,-180C519.237,-180 539.504,-180 557.715,-180"/>
<polygon fill="black" stroke="black" points="557.824,-183.5 567.824,-180 557.824,-176.5 557.824,-183.5"/>
</g>
<!-- Anakinra_elimination_intermediate_r&#45;&gt;Anakinra_elimination -->
<g id="edge38" class="edge"><title>Anakinra_elimination_intermediate_r&#45;&gt;Anakinra_elimination</title>
<path fill="none" stroke="black" d="M410.066,-180C412.38,-180 474.946,-180 494.928,-180"/>
</g>
<!-- Glucose_production -->
<g id="node74" class="node"><title>Glucose_production</title>
<polygon fill="none" stroke="black" points="129,-421 115,-421 115,-407 129,-407 129,-421"/>
</g>
<!-- Glucose_production_intermediate_p -->
<g id="node76" class="node"><title>Glucose_production_intermediate_p</title>
<ellipse fill="black" stroke="black" cx="217" cy="-414" rx="0.036" ry="0.036"/>
</g>
<!-- Glucose_production&#45;&gt;Glucose_production_intermediate_p -->
<g id="edge42" class="edge"><title>Glucose_production&#45;&gt;Glucose_production_intermediate_p</title>
<path fill="none" stroke="black" d="M129.102,-414C149.469,-414 213.942,-414 215.952,-414"/>
</g>
<!-- Glucose_production_empty -->
<g id="node75" class="node"><title>Glucose_production_empty</title>
<text text-anchor="middle" x="27" y="-410.5" font-family="Times,serif" font-size="15.00" fill="blue">Ø</text>
</g>
<!-- Glucose_production_empty&#45;&gt;Glucose_production -->
<g id="edge41" class="edge"><title>Glucose_production_empty&#45;&gt;Glucose_production</title>
<path fill="none" stroke="black" d="M54.4013,-414C75.2373,-414 102.74,-414 114.84,-414"/>
</g>
<!-- Glucose_production_intermediate_p&#45;&gt;Glucose -->
<g id="edge43" class="edge"><title>Glucose_production_intermediate_p&#45;&gt;Glucose</title>
<path fill="none" stroke="black" d="M218.068,-414C219.641,-414 248.175,-414 273.383,-414"/>
<polygon fill="black" stroke="black" points="273.534,-417.5 283.534,-414 273.534,-410.5 273.534,-417.5"/>
</g>
<!-- Basal_glucose_uptake -->
<g id="node77" class="node"><title>Basal_glucose_uptake</title>
<polygon fill="none" stroke="black" points="509,-439 495,-439 495,-425 509,-425 509,-439"/>
</g>
<!-- Basal_glucose_uptake_empty -->
<g id="node79" class="node"><title>Basal_glucose_uptake_empty</title>
<text text-anchor="middle" x="595" y="-428.5" font-family="Times,serif" font-size="15.00" fill="blue">Ø</text>
</g>
<!-- Basal_glucose_uptake&#45;&gt;Basal_glucose_uptake_empty -->
<g id="edge46" class="edge"><title>Basal_glucose_uptake&#45;&gt;Basal_glucose_uptake_empty</title>
<path fill="none" stroke="black" d="M509.255,-432C519.237,-432 539.504,-432 557.715,-432"/>
<polygon fill="black" stroke="black" points="557.824,-435.5 567.824,-432 557.824,-428.5 557.824,-435.5"/>
</g>
<!-- Basal_glucose_uptake_intermediate_r&#45;&gt;Basal_glucose_uptake -->
<g id="edge44" class="edge"><title>Basal_glucose_uptake_intermediate_r&#45;&gt;Basal_glucose_uptake</title>
<path fill="none" stroke="black" d="M410.066,-432C412.38,-432 474.946,-432 494.928,-432"/>
</g>
<!-- Insulin_dependent_glucose_uptake -->
<g id="node80" class="node"><title>Insulin_dependent_glucose_uptake</title>
<polygon fill="none" stroke="black" points="509,-385 495,-385 495,-371 509,-371 509,-385"/>
</g>
<!-- Insulin_dependent_glucose_uptake_empty -->
<g id="node82" class="node"><title>Insulin_dependent_glucose_uptake_empty</title>
<text text-anchor="middle" x="595" y="-374.5" font-family="Times,serif" font-size="15.00" fill="blue">Ø</text>
</g>
<!-- Insulin_dependent_glucose_uptake&#45;&gt;Insulin_dependent_glucose_uptake_empty -->
<g id="edge49" class="edge"><title>Insulin_dependent_glucose_uptake&#45;&gt;Insulin_dependent_glucose_uptake_empty</title>
<path fill="none" stroke="black" d="M509.255,-378C519.237,-378 539.504,-378 557.715,-378"/>
<polygon fill="black" stroke="black" points="557.824,-381.5 567.824,-378 557.824,-374.5 557.824,-381.5"/>
</g>
<!-- Insulin_dependent_glucose_uptake&#45;&gt;Insulin_dependent_glucose_uptake_intermediate_m -->
<g id="edge50" class="edge"><title>Insulin_dependent_glucose_uptake&#45;&gt;Insulin_dependent_glucose_uptake_intermediate_m</title>
<path fill="none" stroke="black" d="M509.399,-375.184C515.736,-372.15 525.419,-366.825 532,-360 554.385,-336.786 543.178,-317.589 568,-297 577.118,-289.437 592.97,-288.081 593.952,-288.004"/>
</g>
<!-- Insulin_dependent_glucose_uptake_intermediate_r&#45;&gt;Insulin_dependent_glucose_uptake -->
<g id="edge47" class="edge"><title>Insulin_dependent_glucose_uptake_intermediate_r&#45;&gt;Insulin_dependent_glucose_uptake</title>
<path fill="none" stroke="black" d="M410.066,-386.993C412.38,-386.765 474.946,-380.577 494.928,-378.601"/>
</g>
<!-- Proinsulin_dependent_glucose_uptake -->
<g id="node84" class="node"><title>Proinsulin_dependent_glucose_uptake</title>
<polygon fill="none" stroke="black" points="509,-491 495,-491 495,-477 509,-477 509,-491"/>
</g>
<!-- Proinsulin_dependent_glucose_uptake_empty -->
<g id="node86" class="node"><title>Proinsulin_dependent_glucose_uptake_empty</title>
<text text-anchor="middle" x="595" y="-482.5" font-family="Times,serif" font-size="15.00" fill="blue">Ø</text>
</g>
<!-- Proinsulin_dependent_glucose_uptake&#45;&gt;Proinsulin_dependent_glucose_uptake_empty -->
<g id="edge54" class="edge"><title>Proinsulin_dependent_glucose_uptake&#45;&gt;Proinsulin_dependent_glucose_uptake_empty</title>
<path fill="none" stroke="black" d="M509.255,-484.137C519.237,-484.357 539.504,-484.802 557.715,-485.203"/>
<polygon fill="black" stroke="black" points="557.749,-488.704 567.824,-485.425 557.903,-481.706 557.749,-488.704"/>
</g>
<!-- Proinsulin_dependent_glucose_uptake&#45;&gt;Proinsulin_dependent_glucose_uptake_intermediate_m -->
<g id="edge55" class="edge"><title>Proinsulin_dependent_glucose_uptake&#45;&gt;Proinsulin_dependent_glucose_uptake_intermediate_m</title>
<path fill="none" stroke="black" d="M509.019,-486.896C520.406,-492.327 545.936,-504.278 568,-513 578.661,-517.214 592.184,-521.437 593.833,-521.948"/>
</g>
<!-- Proinsulin_dependent_glucose_uptake_intermediate_r&#45;&gt;Proinsulin_dependent_glucose_uptake -->
<g id="edge52" class="edge"><title>Proinsulin_dependent_glucose_uptake_intermediate_r&#45;&gt;Proinsulin_dependent_glucose_uptake</title>
<path fill="none" stroke="black" d="M410.066,-458.019C412.38,-458.68 474.946,-476.556 494.928,-482.265"/>
</g>
<!-- Glucose_dependent_insulin_secretion -->
<g id="node88" class="node"><title>Glucose_dependent_insulin_secretion</title>
<polygon fill="none" stroke="black" points="320,-270 306,-270 306,-256 320,-256 320,-270"/>
</g>
<!-- Glucose_dependent_insulin_secretion_intermediate_p -->
<g id="node90" class="node"><title>Glucose_dependent_insulin_secretion_intermediate_p</title>
<ellipse fill="black" stroke="black" cx="409" cy="-263" rx="0.036" ry="0.036"/>
</g>
<!-- Glucose_dependent_insulin_secretion&#45;&gt;Glucose_dependent_insulin_secretion_intermediate_p -->
<g id="edge58" class="edge"><title>Glucose_dependent_insulin_secretion&#45;&gt;Glucose_dependent_insulin_secretion_intermediate_p</title>
<path fill="none" stroke="black" d="M320.168,-263C340.753,-263 405.92,-263 407.951,-263"/>
</g>
<!-- Glucose_dependent_insulin_secretion&#45;&gt;Glucose_dependent_insulin_secretion_intermediate_m -->
<g id="edge60" class="edge"><title>Glucose_dependent_insulin_secretion&#45;&gt;Glucose_dependent_insulin_secretion_intermediate_m</title>
<path fill="none" stroke="black" d="M320.226,-265.406C326.928,-268.153 337.736,-273.044 346,-279 364.356,-292.23 363.027,-302.67 382,-315 392.057,-321.536 407.029,-324.793 407.955,-324.99"/>
</g>
<!-- Glucose_dependent_insulin_secretion_empty -->
<g id="node89" class="node"><title>Glucose_dependent_insulin_secretion_empty</title>
<text text-anchor="middle" x="217" y="-259.5" font-family="Times,serif" font-size="15.00" fill="blue">Ø</text>
</g>
<!-- Glucose_dependent_insulin_secretion_empty&#45;&gt;Glucose_dependent_insulin_secretion -->
<g id="edge57" class="edge"><title>Glucose_dependent_insulin_secretion_empty&#45;&gt;Glucose_dependent_insulin_secretion</title>
<path fill="none" stroke="black" d="M244.184,-263C265.262,-263 293.339,-263 305.702,-263"/>
</g>
<!-- Glucose_dependent_insulin_secretion_intermediate_p&#45;&gt;Insulin -->
<g id="edge59" class="edge"><title>Glucose_dependent_insulin_secretion_intermediate_p&#45;&gt;Insulin</title>
<path fill="none" stroke="black" d="M410.066,-263C411.611,-263 439.996,-263 464.646,-263"/>
<polygon fill="black" stroke="black" points="464.893,-266.5 474.893,-263 464.893,-259.5 464.893,-266.5"/>
</g>
<!-- Insulin_elimination -->
<g id="node92" class="node"><title>Insulin_elimination</title>
<polygon fill="none" stroke="black" points="672,-223 658,-223 658,-209 672,-209 672,-223"/>
</g>
<!-- Insulin_elimination_empty -->
<g id="node94" class="node"><title>Insulin_elimination_empty</title>
<text text-anchor="middle" x="735" y="-212.5" font-family="Times,serif" font-size="15.00" fill="blue">Ø</text>
</g>
<!-- Insulin_elimination&#45;&gt;Insulin_elimination_empty -->
<g id="edge66" class="edge"><title>Insulin_elimination&#45;&gt;Insulin_elimination_empty</title>
<path fill="none" stroke="black" d="M672.275,-216C678.278,-216 687.849,-216 697.68,-216"/>
<polygon fill="black" stroke="black" points="697.88,-219.5 707.88,-216 697.88,-212.5 697.88,-219.5"/>
</g>
<!-- Insulin_elimination_intermediate_r&#45;&gt;Insulin_elimination -->
<g id="edge64" class="edge"><title>Insulin_elimination_intermediate_r&#45;&gt;Insulin_elimination</title>
<path fill="none" stroke="black" d="M596.049,-216C597.722,-216 641.535,-216 657.906,-216"/>
</g>
<!-- Glucose_dependent_proinsulin_secretion -->
<g id="node95" class="node"><title>Glucose_dependent_proinsulin_secretion</title>
<polygon fill="none" stroke="black" points="320,-464 306,-464 306,-450 320,-450 320,-464"/>
</g>
<!-- Glucose_dependent_proinsulin_secretion_intermediate_p -->
<g id="node97" class="node"><title>Glucose_dependent_proinsulin_secretion_intermediate_p</title>
<ellipse fill="black" stroke="black" cx="409" cy="-525" rx="0.036" ry="0.036"/>
</g>
<!-- Glucose_dependent_proinsulin_secretion&#45;&gt;Glucose_dependent_proinsulin_secretion_intermediate_p -->
<g id="edge68" class="edge"><title>Glucose_dependent_proinsulin_secretion&#45;&gt;Glucose_dependent_proinsulin_secretion_intermediate_p</title>
<path fill="none" stroke="black" d="M320.168,-461.462C340.753,-476.353 405.92,-523.495 407.951,-524.965"/>
</g>
<!-- Glucose_dependent_proinsulin_secretion&#45;&gt;Glucose_dependent_proinsulin_secretion_intermediate_m -->
<g id="edge70" class="edge"><title>Glucose_dependent_proinsulin_secretion&#45;&gt;Glucose_dependent_proinsulin_secretion_intermediate_m</title>
<path fill="none" stroke="black" d="M320.234,-453.88C336.961,-445.508 381.605,-423.166 382,-423 392.566,-418.552 406.172,-414.534 407.832,-414.049"/>
</g>
<!-- Glucose_dependent_proinsulin_secretion_empty -->
<g id="node96" class="node"><title>Glucose_dependent_proinsulin_secretion_empty</title>
<text text-anchor="middle" x="217" y="-447.5" font-family="Times,serif" font-size="15.00" fill="blue">Ø</text>
</g>
<!-- Glucose_dependent_proinsulin_secretion_empty&#45;&gt;Glucose_dependent_proinsulin_secretion -->
<g id="edge67" class="edge"><title>Glucose_dependent_proinsulin_secretion_empty&#45;&gt;Glucose_dependent_proinsulin_secretion</title>
<path fill="none" stroke="black" d="M244.184,-452.671C265.262,-454.017 293.339,-455.809 305.702,-456.598"/>
</g>
<!-- Glucose_dependent_proinsulin_secretion_intermediate_p&#45;&gt;Proinsulin -->
<g id="edge69" class="edge"><title>Glucose_dependent_proinsulin_secretion_intermediate_p&#45;&gt;Proinsulin</title>
<path fill="none" stroke="black" d="M410.066,-525.001C411.563,-525.034 438.29,-525.622 462.382,-526.151"/>
<polygon fill="black" stroke="black" points="462.39,-529.652 472.465,-526.373 462.544,-522.654 462.39,-529.652"/>
</g>
<!-- Proinsulin_elimination -->
<g id="node99" class="node"><title>Proinsulin_elimination</title>
<polygon fill="none" stroke="black" points="672,-547 658,-547 658,-533 672,-533 672,-547"/>
</g>
<!-- Proinsulin_elimination_empty -->
<g id="node101" class="node"><title>Proinsulin_elimination_empty</title>
<text text-anchor="middle" x="735" y="-536.5" font-family="Times,serif" font-size="15.00" fill="blue">Ø</text>
</g>
<!-- Proinsulin_elimination&#45;&gt;Proinsulin_elimination_empty -->
<g id="edge77" class="edge"><title>Proinsulin_elimination&#45;&gt;Proinsulin_elimination_empty</title>
<path fill="none" stroke="black" d="M672.275,-540C678.278,-540 687.849,-540 697.68,-540"/>
<polygon fill="black" stroke="black" points="697.88,-543.5 707.88,-540 697.88,-536.5 697.88,-543.5"/>
</g>
<!-- Proinsulin_elimination_intermediate_r&#45;&gt;Proinsulin_elimination -->
<g id="edge75" class="edge"><title>Proinsulin_elimination_intermediate_r&#45;&gt;Proinsulin_elimination</title>
<path fill="none" stroke="black" d="M596.049,-540C597.722,-540 641.535,-540 657.906,-540"/>
</g>
</g>
</svg>
