<?xml version="1.0" encoding="UTF-8" standalone="no"?>
<!DOCTYPE svg PUBLIC "-//W3C//DTD SVG 1.1//EN"
 "http://www.w3.org/Graphics/SVG/1.1/DTD/svg11.dtd">
<!-- Generated by graphviz version 2.30.1 (20140821.0912)
 -->
<!-- Title: G Pages: 1 -->
<svg width="846pt" height="297pt"
 viewBox="0.00 0.00 846.00 297.00" xmlns="http://www.w3.org/2000/svg" xmlns:xlink="http://www.w3.org/1999/xlink">
<g id="graph0" class="graph" transform="scale(1 1) rotate(0) translate(4 293)">
<title>G</title>
<polygon fill="white" stroke="white" points="-4,5 -4,-293 843,-293 843,5 -4,5"/>
<!-- x1 -->
<g id="x1 [CHEBI:63836]" class="node"><title>x1</title>
<ellipse fill="none" stroke="black" cx="58" cy="-119" rx="57.8786" ry="18"/>
<text text-anchor="middle" x="58" y="-116.5" font-family="Times,serif" font-size="10.00">free basolateral BSP</text>
</g>
<!-- OATP1B3_intermediate_r -->
<g id="node9" class="node"><title>OATP1B3_intermediate_r</title>
<ellipse fill="black" stroke="black" cx="153" cy="-136" rx="0.036" ry="0.036"/>
</g>
<!-- x1&#45;&gt;OATP1B3_intermediate_r -->
<g id="edge2" class="edge"><title>x1&#45;&gt;OATP1B3_intermediate_r</title>
<path fill="none" stroke="black" d="M108.223,-127.998C129.834,-131.948 150.657,-135.755 151.938,-135.989"/>
</g>
<!-- endo_in_bl_intermediate_r -->
<g id="node15" class="node"><title>endo_in_bl_intermediate_r</title>
<ellipse fill="black" stroke="black" cx="153" cy="-163" rx="0.036" ry="0.036"/>
</g>
<!-- x1&#45;&gt;endo_in_bl_intermediate_r -->
<g id="edge10" class="edge"><title>x1&#45;&gt;endo_in_bl_intermediate_r</title>
<path fill="none" stroke="black" d="M90.4856,-133.896C116.622,-146.262 149.849,-161.982 151.9,-162.953"/>
</g>
<!-- bl_BSP_binding_intermediate_r -->
<g id="node24" class="node"><title>bl_BSP_binding_intermediate_r</title>
<ellipse fill="black" stroke="black" cx="153" cy="-27" rx="0.036" ry="0.036"/>
</g>
<!-- x1&#45;&gt;bl_BSP_binding_intermediate_r -->
<g id="edge22" class="edge"><title>x1&#45;&gt;bl_BSP_binding_intermediate_r</title>
<path fill="none" stroke="black" d="M76.4926,-101.696C102.591,-75.8782 148.986,-29.9819 151.86,-27.1386"/>
</g>
<!-- paracell_transp_intermediate_r -->
<g id="node36" class="node"><title>paracell_transp_intermediate_r</title>
<ellipse fill="black" stroke="black" cx="197" cy="-202" rx="0.036" ry="0.036"/>
</g>
<!-- x1&#45;&gt;paracell_transp_intermediate_r -->
<g id="edge38" class="edge"><title>x1&#45;&gt;paracell_transp_intermediate_r</title>
<path fill="none" stroke="black" d="M92.3867,-133.56C100.275,-137.341 108.554,-141.598 116,-146 132.989,-156.044 135.845,-160.662 152,-172 170.768,-185.172 194.466,-200.978 195.929,-201.953"/>
</g>
<!-- x2 -->
<g id="x2 [CHEBI:63836]" class="node"><title>x2</title>
<ellipse fill="none" stroke="black" cx="354" cy="-18" rx="64.3289" ry="18"/>
<text text-anchor="middle" x="354" y="-15.5" font-family="Times,serif" font-size="10.00">basolateral bound BSP</text>
</g>
<!-- bl_BSP_dissoc_intermediate_r -->
<g id="node27" class="node"><title>bl_BSP_dissoc_intermediate_r</title>
<ellipse fill="black" stroke="black" cx="455" cy="-23" rx="0.036" ry="0.036"/>
</g>
<!-- x2&#45;&gt;bl_BSP_dissoc_intermediate_r -->
<g id="edge26" class="edge"><title>x2&#45;&gt;bl_BSP_dissoc_intermediate_r</title>
<path fill="none" stroke="black" d="M417.417,-21.1524C436.569,-22.1196 452.946,-22.9468 453.951,-22.9975"/>
</g>
<!-- x3 -->
<g id="x3 [CHEBI:63836]" class="node"><title>x3</title>
<ellipse fill="none" stroke="black" cx="354" cy="-175" rx="60.7649" ry="18"/>
<text text-anchor="middle" x="354" y="-172.5" font-family="Times,serif" font-size="10.00">free intracellular BSP</text>
</g>
<!-- ABCC2_intermediate_r -->
<g id="node12" class="node"><title>ABCC2_intermediate_r</title>
<ellipse fill="black" stroke="black" cx="455" cy="-229" rx="0.036" ry="0.036"/>
</g>
<!-- x3&#45;&gt;ABCC2_intermediate_r -->
<g id="edge6" class="edge"><title>x3&#45;&gt;ABCC2_intermediate_r</title>
<path fill="none" stroke="black" d="M383.901,-190.764C412.209,-206.205 451.457,-227.613 453.882,-228.936"/>
</g>
<!-- endo_ex_bl_intermediate_r -->
<g id="node18" class="node"><title>endo_ex_bl_intermediate_r</title>
<ellipse fill="black" stroke="black" cx="455" cy="-175" rx="0.036" ry="0.036"/>
</g>
<!-- x3&#45;&gt;endo_ex_bl_intermediate_r -->
<g id="edge14" class="edge"><title>x3&#45;&gt;endo_ex_bl_intermediate_r</title>
<path fill="none" stroke="black" d="M414.873,-175C435.07,-175 452.855,-175 453.947,-175"/>
</g>
<!-- endo_ex_ap_intermediate_r -->
<g id="node21" class="node"><title>endo_ex_ap_intermediate_r</title>
<ellipse fill="black" stroke="black" cx="455" cy="-259" rx="0.036" ry="0.036"/>
</g>
<!-- x3&#45;&gt;endo_ex_ap_intermediate_r -->
<g id="edge18" class="edge"><title>x3&#45;&gt;endo_ex_ap_intermediate_r</title>
<path fill="none" stroke="black" d="M375.034,-191.999C403.058,-215.777 450.893,-256.364 453.856,-258.877"/>
</g>
<!-- cellular_BSP_binding_intermediate_r -->
<g id="node30" class="node"><title>cellular_BSP_binding_intermediate_r</title>
<ellipse fill="black" stroke="black" cx="455" cy="-200" rx="0.036" ry="0.036"/>
</g>
<!-- x3&#45;&gt;cellular_BSP_binding_intermediate_r -->
<g id="edge30" class="edge"><title>x3&#45;&gt;cellular_BSP_binding_intermediate_r</title>
<path fill="none" stroke="black" d="M400.733,-186.549C425.862,-192.894 452.293,-199.569 453.921,-199.98"/>
</g>
<!-- x4 -->
<g id="x4 [CHEBI:63836]" class="node"><title>x4</title>
<ellipse fill="none" stroke="black" cx="647" cy="-191" rx="67.2153" ry="18"/>
<text text-anchor="middle" x="647" y="-188.5" font-family="Times,serif" font-size="10.00">bound intracellular BSP</text>
</g>
<!-- cellular_BSP_dissoc_intermediate_r -->
<g id="node33" class="node"><title>cellular_BSP_dissoc_intermediate_r</title>
<ellipse fill="black" stroke="black" cx="751" cy="-187" rx="0.036" ry="0.036"/>
</g>
<!-- x4&#45;&gt;cellular_BSP_dissoc_intermediate_r -->
<g id="edge34" class="edge"><title>x4&#45;&gt;cellular_BSP_dissoc_intermediate_r</title>
<path fill="none" stroke="black" d="M713.464,-188.433C732.707,-187.678 748.955,-187.041 749.952,-187.002"/>
</g>
<!-- x5 -->
<g id="x5 [CHEBI:63836]" class="node"><title>x5</title>
<ellipse fill="none" stroke="black" cx="647" cy="-271" rx="35.8171" ry="18"/>
<text text-anchor="middle" x="647" y="-268.5" font-family="Times,serif" font-size="10.00">apical BSP</text>
</g>
<!-- BSP_tot -->
<g id="BSP_tot [CHEBI:63836]" class="node"><title>BSP_tot</title>
<ellipse fill="none" stroke="black" cx="58" cy="-173" rx="32.2534" ry="18"/>
<text text-anchor="middle" x="58" y="-170.5" font-family="Times,serif" font-size="10.00">total BSP</text>
</g>
<!-- BSP_cell -->
<g id="BSP_cell [CHEBI:63836]" class="node"><title>BSP_cell</title>
<ellipse fill="none" stroke="black" cx="58" cy="-227" rx="50.7503" ry="18"/>
<text text-anchor="middle" x="58" y="-224.5" font-family="Times,serif" font-size="10.00">intracellular BSP</text>
</g>
<!-- OATP1B3 -->
<g id="node8" class="node"><title>OATP1B3</title>
<polygon fill="none" stroke="black" points="204,-145 190,-145 190,-131 204,-131 204,-145"/>
</g>
<!-- OATP1B3_intermediate_p -->
<g id="node10" class="node"><title>OATP1B3_intermediate_p</title>
<ellipse fill="black" stroke="black" cx="247" cy="-147" rx="0.036" ry="0.036"/>
</g>
<!-- OATP1B3&#45;&gt;OATP1B3_intermediate_p -->
<g id="edge3" class="edge"><title>OATP1B3&#45;&gt;OATP1B3_intermediate_p</title>
<path fill="none" stroke="black" d="M204.275,-139.177C216.88,-141.54 244.221,-146.666 245.917,-146.984"/>
</g>
<!-- OATP1B3_intermediate_r&#45;&gt;OATP1B3 -->
<g id="edge1" class="edge"><title>OATP1B3_intermediate_r&#45;&gt;OATP1B3</title>
<path fill="none" stroke="black" d="M154.12,-136.006C155.968,-136.094 178.602,-137.172 189.803,-137.705"/>
</g>
<!-- OATP1B3_intermediate_p&#45;&gt;x3 -->
<g id="edge4" class="edge"><title>OATP1B3_intermediate_p&#45;&gt;x3</title>
<path fill="none" stroke="black" d="M248.076,-147.02C249.6,-147.427 273.771,-153.872 298.528,-160.474"/>
<polygon fill="black" stroke="black" points="297.802,-163.903 308.366,-163.098 299.605,-157.139 297.802,-163.903"/>
</g>
<!-- ABCC2 -->
<g id="node11" class="node"><title>ABCC2</title>
<polygon fill="none" stroke="black" points="506,-246 492,-246 492,-232 506,-232 506,-246"/>
</g>
<!-- ABCC2_intermediate_p -->
<g id="node13" class="node"><title>ABCC2_intermediate_p</title>
<ellipse fill="black" stroke="black" cx="543" cy="-246" rx="0.036" ry="0.036"/>
</g>
<!-- ABCC2&#45;&gt;ABCC2_intermediate_p -->
<g id="edge7" class="edge"><title>ABCC2&#45;&gt;ABCC2_intermediate_p</title>
<path fill="none" stroke="black" d="M506.197,-240.033C517.515,-241.919 540.505,-245.751 541.93,-245.988"/>
</g>
<!-- ABCC2_intermediate_r&#45;&gt;ABCC2 -->
<g id="edge5" class="edge"><title>ABCC2_intermediate_r&#45;&gt;ABCC2</title>
<path fill="none" stroke="black" d="M456.12,-229.029C457.968,-229.469 480.602,-234.858 491.803,-237.524"/>
</g>
<!-- ABCC2_intermediate_p&#45;&gt;x5 -->
<g id="edge8" class="edge"><title>ABCC2_intermediate_p&#45;&gt;x5</title>
<path fill="none" stroke="black" d="M544.074,-246.018C545.788,-246.438 576.984,-254.084 604.416,-260.808"/>
<polygon fill="black" stroke="black" points="603.744,-264.247 614.29,-263.228 605.411,-257.448 603.744,-264.247"/>
</g>
<!-- endo_in_bl -->
<g id="node14" class="node"><title>endo_in_bl</title>
<polygon fill="none" stroke="black" points="204,-180 190,-180 190,-166 204,-166 204,-180"/>
</g>
<!-- endo_in_bl_intermediate_p -->
<g id="node16" class="node"><title>endo_in_bl_intermediate_p</title>
<ellipse fill="black" stroke="black" cx="247" cy="-174" rx="0.036" ry="0.036"/>
</g>
<!-- endo_in_bl&#45;&gt;endo_in_bl_intermediate_p -->
<g id="edge11" class="edge"><title>endo_in_bl&#45;&gt;endo_in_bl_intermediate_p</title>
<path fill="none" stroke="black" d="M204.275,-173.131C216.88,-173.393 244.221,-173.963 245.917,-173.998"/>
</g>
<!-- endo_in_bl_intermediate_r&#45;&gt;endo_in_bl -->
<g id="edge9" class="edge"><title>endo_in_bl_intermediate_r&#45;&gt;endo_in_bl</title>
<path fill="none" stroke="black" d="M154.12,-163.029C155.968,-163.469 178.602,-168.858 189.803,-171.524"/>
</g>
<!-- endo_in_bl_intermediate_p&#45;&gt;x3 -->
<g id="edge12" class="edge"><title>endo_in_bl_intermediate_p&#45;&gt;x3</title>
<path fill="none" stroke="black" d="M248.076,-174.001C249.276,-174.012 264.52,-174.157 283.035,-174.334"/>
<polygon fill="black" stroke="black" points="283.239,-177.836 293.272,-174.431 283.306,-170.836 283.239,-177.836"/>
</g>
<!-- endo_ex_bl -->
<g id="node17" class="node"><title>endo_ex_bl</title>
<polygon fill="none" stroke="black" points="506,-182 492,-182 492,-168 506,-168 506,-182"/>
</g>
<!-- endo_ex_bl_intermediate_p -->
<g id="node19" class="node"><title>endo_ex_bl_intermediate_p</title>
<ellipse fill="black" stroke="black" cx="543" cy="-107" rx="0.036" ry="0.036"/>
</g>
<!-- endo_ex_bl&#45;&gt;endo_ex_bl_intermediate_p -->
<g id="edge15" class="edge"><title>endo_ex_bl&#45;&gt;endo_ex_bl_intermediate_p</title>
<path fill="none" stroke="black" d="M504.337,-167.979C514.732,-151.148 540.333,-109.7 541.922,-107.126"/>
</g>
<!-- endo_ex_bl_intermediate_r&#45;&gt;endo_ex_bl -->
<g id="edge13" class="edge"><title>endo_ex_bl_intermediate_r&#45;&gt;endo_ex_bl</title>
<path fill="none" stroke="black" d="M456.12,-175C457.968,-175 480.602,-175 491.803,-175"/>
</g>
<!-- endo_ex_bl_intermediate_p&#45;&gt;x1 -->
<g id="edge16" class="edge"><title>endo_ex_bl_intermediate_p&#45;&gt;x1</title>
<path fill="none" stroke="black" d="M541.862,-106.986C539.027,-106.692 493.09,-102 456,-102 196,-102 196,-102 196,-102 170.31,-102 142.116,-104.98 118.017,-108.445"/>
<polygon fill="black" stroke="black" points="117.33,-105.009 107.96,-109.952 118.368,-111.932 117.33,-105.009"/>
</g>
<!-- endo_ex_ap -->
<g id="node20" class="node"><title>endo_ex_ap</title>
<polygon fill="none" stroke="black" points="506,-278 492,-278 492,-264 506,-264 506,-278"/>
</g>
<!-- endo_ex_ap_intermediate_p -->
<g id="node22" class="node"><title>endo_ex_ap_intermediate_p</title>
<ellipse fill="black" stroke="black" cx="543" cy="-271" rx="0.036" ry="0.036"/>
</g>
<!-- endo_ex_ap&#45;&gt;endo_ex_ap_intermediate_p -->
<g id="edge19" class="edge"><title>endo_ex_ap&#45;&gt;endo_ex_ap_intermediate_p</title>
<path fill="none" stroke="black" d="M506.197,-271C517.515,-271 540.505,-271 541.93,-271"/>
</g>
<!-- endo_ex_ap_intermediate_r&#45;&gt;endo_ex_ap -->
<g id="edge17" class="edge"><title>endo_ex_ap_intermediate_r&#45;&gt;endo_ex_ap</title>
<path fill="none" stroke="black" d="M456.12,-259.034C457.968,-259.562 480.602,-266.029 491.803,-269.229"/>
</g>
<!-- endo_ex_ap_intermediate_p&#45;&gt;x5 -->
<g id="edge20" class="edge"><title>endo_ex_ap_intermediate_p&#45;&gt;x5</title>
<path fill="none" stroke="black" d="M544.074,-271C545.716,-271 574.425,-271 600.955,-271"/>
<polygon fill="black" stroke="black" points="600.955,-274.5 610.955,-271 600.955,-267.5 600.955,-274.5"/>
</g>
<!-- bl_BSP_binding -->
<g id="node23" class="node"><title>bl_BSP_binding</title>
<polygon fill="none" stroke="black" points="204,-31 190,-31 190,-17 204,-17 204,-31"/>
</g>
<!-- bl_BSP_binding_intermediate_p -->
<g id="node25" class="node"><title>bl_BSP_binding_intermediate_p</title>
<ellipse fill="black" stroke="black" cx="247" cy="-20" rx="0.036" ry="0.036"/>
</g>
<!-- bl_BSP_binding&#45;&gt;bl_BSP_binding_intermediate_p -->
<g id="edge23" class="edge"><title>bl_BSP_binding&#45;&gt;bl_BSP_binding_intermediate_p</title>
<path fill="none" stroke="black" d="M204.275,-23.4771C216.88,-22.4267 244.221,-20.1483 245.917,-20.0069"/>
</g>
<!-- bl_BSP_binding_intermediate_r&#45;&gt;bl_BSP_binding -->
<g id="edge21" class="edge"><title>bl_BSP_binding_intermediate_r&#45;&gt;bl_BSP_binding</title>
<path fill="none" stroke="black" d="M154.12,-26.9914C155.968,-26.8594 178.602,-25.2427 189.803,-24.4427"/>
</g>
<!-- bl_BSP_binding_intermediate_p&#45;&gt;x2 -->
<g id="edge24" class="edge"><title>bl_BSP_binding_intermediate_p&#45;&gt;x2</title>
<path fill="none" stroke="black" d="M248.076,-19.9986C249.197,-19.9772 262.577,-19.7223 279.43,-19.4013"/>
<polygon fill="black" stroke="black" points="279.756,-22.8959 289.687,-19.206 279.622,-15.8971 279.756,-22.8959"/>
</g>
<!-- bl_BSP_dissoc -->
<g id="node26" class="node"><title>bl_BSP_dissoc</title>
<polygon fill="none" stroke="black" points="506,-33 492,-33 492,-19 506,-19 506,-33"/>
</g>
<!-- bl_BSP_dissoc_intermediate_p -->
<g id="node28" class="node"><title>bl_BSP_dissoc_intermediate_p</title>
<ellipse fill="black" stroke="black" cx="543" cy="-45" rx="0.036" ry="0.036"/>
</g>
<!-- bl_BSP_dissoc&#45;&gt;bl_BSP_dissoc_intermediate_p -->
<g id="edge27" class="edge"><title>bl_BSP_dissoc&#45;&gt;bl_BSP_dissoc_intermediate_p</title>
<path fill="none" stroke="black" d="M506.197,-28.8035C517.515,-33.9235 540.505,-44.3235 541.93,-44.9685"/>
</g>
<!-- bl_BSP_dissoc_intermediate_r&#45;&gt;bl_BSP_dissoc -->
<g id="edge25" class="edge"><title>bl_BSP_dissoc_intermediate_r&#45;&gt;bl_BSP_dissoc</title>
<path fill="none" stroke="black" d="M456.12,-23.0086C457.968,-23.1406 480.602,-24.7573 491.803,-25.5573"/>
</g>
<!-- bl_BSP_dissoc_intermediate_p&#45;&gt;x1 -->
<g id="edge28" class="edge"><title>bl_BSP_dissoc_intermediate_p&#45;&gt;x1</title>
<path fill="none" stroke="black" d="M541.864,-45.0545C539.079,-46.1689 493.921,-64 456,-64 196,-64 196,-64 196,-64 158.466,-64 119.043,-81.9984 92.1741,-97.4031"/>
<polygon fill="black" stroke="black" points="90.3878,-94.3932 83.5643,-102.498 93.9528,-100.417 90.3878,-94.3932"/>
</g>
<!-- cellular_BSP_binding -->
<g id="node29" class="node"><title>cellular_BSP_binding</title>
<polygon fill="none" stroke="black" points="506,-214 492,-214 492,-200 506,-200 506,-214"/>
</g>
<!-- cellular_BSP_binding_intermediate_p -->
<g id="node31" class="node"><title>cellular_BSP_binding_intermediate_p</title>
<ellipse fill="black" stroke="black" cx="543" cy="-197" rx="0.036" ry="0.036"/>
</g>
<!-- cellular_BSP_binding&#45;&gt;cellular_BSP_binding_intermediate_p -->
<g id="edge31" class="edge"><title>cellular_BSP_binding&#45;&gt;cellular_BSP_binding_intermediate_p</title>
<path fill="none" stroke="black" d="M506.197,-205.524C517.515,-202.83 540.505,-197.356 541.93,-197.017"/>
</g>
<!-- cellular_BSP_binding_intermediate_r&#45;&gt;cellular_BSP_binding -->
<g id="edge29" class="edge"><title>cellular_BSP_binding_intermediate_r&#45;&gt;cellular_BSP_binding</title>
<path fill="none" stroke="black" d="M456.12,-200.02C457.968,-200.328 480.602,-204.1 491.803,-205.967"/>
</g>
<!-- cellular_BSP_binding_intermediate_p&#45;&gt;x4 -->
<g id="edge32" class="edge"><title>cellular_BSP_binding_intermediate_p&#45;&gt;x4</title>
<path fill="none" stroke="black" d="M544.074,-196.996C545.088,-196.936 556.432,-196.269 571.21,-195.399"/>
<polygon fill="black" stroke="black" points="571.566,-198.885 581.343,-194.803 571.155,-191.897 571.566,-198.885"/>
</g>
<!-- cellular_BSP_dissoc -->
<g id="node32" class="node"><title>cellular_BSP_dissoc</title>
<polygon fill="none" stroke="black" points="802,-186 788,-186 788,-172 802,-172 802,-186"/>
</g>
<!-- cellular_BSP_dissoc_intermediate_p -->
<g id="node34" class="node"><title>cellular_BSP_dissoc_intermediate_p</title>
<ellipse fill="black" stroke="black" cx="838" cy="-159" rx="0.036" ry="0.036"/>
</g>
<!-- cellular_BSP_dissoc&#45;&gt;cellular_BSP_dissoc_intermediate_p -->
<g id="edge35" class="edge"><title>cellular_BSP_dissoc&#45;&gt;cellular_BSP_dissoc_intermediate_p</title>
<path fill="none" stroke="black" d="M802.05,-176.049C813.098,-170.659 835.54,-159.712 836.932,-159.033"/>
</g>
<!-- cellular_BSP_dissoc_intermediate_r&#45;&gt;cellular_BSP_dissoc -->
<g id="edge33" class="edge"><title>cellular_BSP_dissoc_intermediate_r&#45;&gt;cellular_BSP_dissoc</title>
<path fill="none" stroke="black" d="M752.12,-186.977C753.968,-186.625 776.602,-182.314 787.803,-180.18"/>
</g>
<!-- cellular_BSP_dissoc_intermediate_p&#45;&gt;x3 -->
<g id="edge36" class="edge"><title>cellular_BSP_dissoc_intermediate_p&#45;&gt;x3</title>
<path fill="none" stroke="black" d="M836.866,-158.945C834.114,-157.831 789.5,-140 752,-140 498,-140 498,-140 498,-140 465.107,-140 429.146,-148.845 401.515,-157.643"/>
<polygon fill="black" stroke="black" points="400.135,-154.412 391.733,-160.865 402.326,-161.06 400.135,-154.412"/>
</g>
<!-- paracell_transp -->
<g id="node35" class="node"><title>paracell_transp</title>
<polygon fill="none" stroke="black" points="254,-212 240,-212 240,-198 254,-198 254,-212"/>
</g>
<!-- paracell_transp_intermediate_p -->
<g id="node37" class="node"><title>paracell_transp_intermediate_p</title>
<ellipse fill="black" stroke="black" cx="354" cy="-258" rx="0.036" ry="0.036"/>
</g>
<!-- paracell_transp&#45;&gt;paracell_transp_intermediate_p -->
<g id="edge39" class="edge"><title>paracell_transp&#45;&gt;paracell_transp_intermediate_p</title>
<path fill="none" stroke="black" d="M254.254,-208.157C276.505,-219.388 350.634,-256.806 352.945,-257.972"/>
</g>
<!-- paracell_transp_intermediate_r&#45;&gt;paracell_transp -->
<g id="edge37" class="edge"><title>paracell_transp_intermediate_r&#45;&gt;paracell_transp</title>
<path fill="none" stroke="black" d="M198.138,-202.009C200.293,-202.143 227.204,-203.825 239.7,-204.606"/>
</g>
<!-- paracell_transp_intermediate_p&#45;&gt;x5 -->
<g id="edge40" class="edge"><title>paracell_transp_intermediate_p&#45;&gt;x5</title>
<path fill="none" stroke="black" d="M355.055,-258.016C357.344,-258.7 431.067,-280.622 492,-287 529.83,-290.96 572.891,-285.654 603.841,-280.115"/>
<polygon fill="black" stroke="black" points="604.664,-283.522 613.849,-278.241 603.375,-276.642 604.664,-283.522"/>
</g>
</g>
</svg>
