<?xml version="1.0" encoding="UTF-8" standalone="no"?>
<!DOCTYPE svg PUBLIC "-//W3C//DTD SVG 1.1//EN"
 "http://www.w3.org/Graphics/SVG/1.1/DTD/svg11.dtd">
<!-- Generated by graphviz version 2.39.20141118.0545 (20141118.0545)
 -->
<!-- Title: %3 Pages: 1 -->
<svg width="417pt" height="692pt"
 viewBox="0.00 0.00 417.00 692.00" xmlns="http://www.w3.org/2000/svg" xmlns:xlink="http://www.w3.org/1999/xlink">
<g id="graph0" class="graph" transform="scale(1 1) rotate(0) translate(4 688)">
<title>%3</title>
<polygon fill="white" stroke="transparent" points="-4,4 -4,-688 413,-688 413,4 -4,4"/>
<!-- gsk3 -->
<g id="node1" class="node"><title>gsk3</title>
<polygon fill="lightblue" stroke="black" stroke-width="2" points="239,-36 185,-36 185,-0 239,-0 239,-36"/>
<text text-anchor="middle" x="212" y="-14.3" font-family="bold" font-size="14.00">gsk3</text>
</g>
<!-- p38 -->
<g id="node2" class="node"><title>p38</title>
<polygon fill="lightblue" stroke="black" stroke-width="2" points="311,-36 257,-36 257,-0 311,-0 311,-36"/>
<text text-anchor="middle" x="284" y="-14.3" font-family="bold" font-size="14.00">p38</text>
</g>
<!-- gsk3&#45;&gt;p38 -->
<!-- ap1 -->
<g id="node3" class="node"><title>ap1</title>
<polygon fill="lightblue" stroke="black" stroke-width="2" points="167,-36 113,-36 113,-0 167,-0 167,-36"/>
<text text-anchor="middle" x="140" y="-14.3" font-family="bold" font-size="14.00">ap1</text>
</g>
<!-- ap1&#45;&gt;gsk3 -->
<!-- tnfa -->
<g id="node4" class="node"><title>tnfa</title>
<polygon fill="#9acd32" stroke="black" stroke-width="2" points="296,-684 242,-684 242,-648 296,-648 296,-684"/>
<text text-anchor="middle" x="269" y="-662.3" font-family="bold" font-size="14.00">tnfa</text>
</g>
<!-- tnfr -->
<g id="node17" class="node"><title>tnfr</title>
<polygon fill="none" stroke="black" stroke-width="2" stroke-dasharray="5,2" points="296,-612 242,-612 242,-576 296,-576 296,-612"/>
<text text-anchor="middle" x="269" y="-590.3" font-family="bold" font-size="14.00">tnfr</text>
</g>
<!-- tnfa&#45;&gt;tnfr -->
<g id="edge14" class="edge"><title>tnfa&#45;&gt;tnfr</title>
<path fill="none" stroke="black" d="M269,-647.831C269,-640.131 269,-630.974 269,-622.417"/>
<polygon fill="black" stroke="black" points="272.5,-622.413 269,-612.413 265.5,-622.413 272.5,-622.413"/>
</g>
<!-- egf -->
<g id="node5" class="node"><title>egf</title>
<polygon fill="#9acd32" stroke="black" stroke-width="2" points="224,-684 170,-684 170,-648 224,-648 224,-684"/>
<text text-anchor="middle" x="197" y="-662.3" font-family="bold" font-size="14.00">egf</text>
</g>
<!-- egf&#45;&gt;tnfa -->
<!-- egfr -->
<g id="node9" class="node"><title>egfr</title>
<polygon fill="none" stroke="black" stroke-width="2" stroke-dasharray="5,2" points="224,-612 170,-612 170,-576 224,-576 224,-612"/>
<text text-anchor="middle" x="197" y="-590.3" font-family="bold" font-size="14.00">egfr</text>
</g>
<!-- egf&#45;&gt;egfr -->
<g id="edge34" class="edge"><title>egf&#45;&gt;egfr</title>
<path fill="none" stroke="black" d="M197,-647.831C197,-640.131 197,-630.974 197,-622.417"/>
<polygon fill="black" stroke="black" points="200.5,-622.413 197,-612.413 193.5,-622.413 200.5,-622.413"/>
</g>
<!-- map3k1 -->
<g id="node6" class="node"><title>map3k1</title>
<polygon fill="none" stroke="black" stroke-width="2" stroke-dasharray="5,2" points="183,-324 103,-324 103,-288 183,-288 183,-324"/>
<text text-anchor="middle" x="143" y="-302.3" font-family="bold" font-size="14.00">map3k1</text>
</g>
<!-- map3k1^map3k7=mkk4 -->
<g id="node7" class="node"><title>map3k1^map3k7=mkk4</title>
<ellipse fill="white" stroke="black" cx="284" cy="-234" rx="3.5" ry="3.5"/>
</g>
<!-- map3k1&#45;&gt;map3k1^map3k7=mkk4 -->
<g id="edge4" class="edge"><title>map3k1&#45;&gt;map3k1^map3k7=mkk4</title>
<path fill="none" stroke="black" d="M178.58,-287.831C209.143,-272.225 251.419,-250.637 271.906,-240.176"/>
<polygon fill="black" stroke="black" points="273.518,-243.283 280.832,-235.618 270.334,-237.048 273.518,-243.283"/>
</g>
<!-- mkk7 -->
<g id="node8" class="node"><title>mkk7</title>
<polygon fill="none" stroke="black" stroke-width="2" stroke-dasharray="5,2" points="173.5,-252 112.5,-252 112.5,-216 173.5,-216 173.5,-252"/>
<text text-anchor="middle" x="143" y="-230.3" font-family="bold" font-size="14.00">mkk7</text>
</g>
<!-- map3k1&#45;&gt;mkk7 -->
<g id="edge5" class="edge"><title>map3k1&#45;&gt;mkk7</title>
<path fill="none" stroke="black" d="M143,-287.831C143,-280.131 143,-270.974 143,-262.417"/>
<polygon fill="black" stroke="black" points="146.5,-262.413 143,-252.413 139.5,-262.413 146.5,-262.413"/>
</g>
<!-- mkk4 -->
<g id="node19" class="node"><title>mkk4</title>
<polygon fill="none" stroke="black" stroke-width="2" stroke-dasharray="5,2" points="314.5,-108 253.5,-108 253.5,-72 314.5,-72 314.5,-108"/>
<text text-anchor="middle" x="284" y="-86.3" font-family="bold" font-size="14.00">mkk4</text>
</g>
<!-- map3k1^map3k7=mkk4&#45;&gt;mkk4 -->
<g id="edge22" class="edge"><title>map3k1^map3k7=mkk4&#45;&gt;mkk4</title>
<path fill="none" stroke="black" d="M284,-230.44C284,-215.185 284,-154.453 284,-118.035"/>
<polygon fill="black" stroke="black" points="287.5,-118.028 284,-108.028 280.5,-118.028 287.5,-118.028"/>
</g>
<!-- jnk -->
<g id="node15" class="node"><title>jnk</title>
<polygon fill="none" stroke="black" stroke-width="2" stroke-dasharray="5,2" points="168,-180 114,-180 114,-144 168,-144 168,-180"/>
<text text-anchor="middle" x="141" y="-158.3" font-family="bold" font-size="14.00">jnk</text>
</g>
<!-- mkk7&#45;&gt;jnk -->
<g id="edge35" class="edge"><title>mkk7&#45;&gt;jnk</title>
<path fill="none" stroke="black" d="M142.495,-215.831C142.281,-208.131 142.027,-198.974 141.789,-190.417"/>
<polygon fill="black" stroke="black" points="145.288,-190.312 141.511,-180.413 138.291,-190.507 145.288,-190.312"/>
</g>
<!-- egfr^!ph=sos -->
<g id="node10" class="node"><title>egfr^!ph=sos</title>
<ellipse fill="white" stroke="black" cx="90" cy="-522" rx="3.5" ry="3.5"/>
</g>
<!-- egfr&#45;&gt;egfr^!ph=sos -->
<g id="edge6" class="edge"><title>egfr&#45;&gt;egfr^!ph=sos</title>
<path fill="none" stroke="black" d="M169.999,-575.831C147.857,-560.932 117.612,-540.58 101.39,-529.664"/>
<polygon fill="black" stroke="black" points="103.231,-526.685 92.9805,-524.006 99.3231,-532.492 103.231,-526.685"/>
</g>
<!-- pi3k -->
<g id="node11" class="node"><title>pi3k</title>
<polygon fill="orangered" stroke="black" stroke-width="2" points="224,-540 170,-540 170,-504 224,-504 224,-540"/>
<text text-anchor="middle" x="197" y="-518.3" font-family="bold" font-size="14.00">pi3k</text>
</g>
<!-- egfr&#45;&gt;pi3k -->
<g id="edge7" class="edge"><title>egfr&#45;&gt;pi3k</title>
<path fill="none" stroke="black" d="M197,-575.831C197,-568.131 197,-558.974 197,-550.417"/>
<polygon fill="black" stroke="black" points="200.5,-550.413 197,-540.413 193.5,-550.413 200.5,-550.413"/>
</g>
<!-- sos -->
<g id="node12" class="node"><title>sos</title>
<polygon fill="none" stroke="black" stroke-width="2" stroke-dasharray="5,2" points="117,-468 63,-468 63,-432 117,-432 117,-468"/>
<text text-anchor="middle" x="90" y="-446.3" font-family="bold" font-size="14.00">sos</text>
</g>
<!-- egfr^!ph=sos&#45;&gt;sos -->
<g id="edge20" class="edge"><title>egfr^!ph=sos&#45;&gt;sos</title>
<path fill="none" stroke="black" d="M90,-518.129C90,-510.629 90,-493.519 90,-478.323"/>
<polygon fill="black" stroke="black" points="93.5001,-478.25 90,-468.25 86.5001,-478.25 93.5001,-478.25"/>
</g>
<!-- akt -->
<g id="node29" class="node"><title>akt</title>
<polygon fill="none" stroke="black" stroke-width="2" stroke-dasharray="5,2" points="229,-468 175,-468 175,-432 229,-432 229,-468"/>
<text text-anchor="middle" x="202" y="-446.3" font-family="bold" font-size="14.00">akt</text>
</g>
<!-- pi3k&#45;&gt;akt -->
<g id="edge27" class="edge"><title>pi3k&#45;&gt;akt</title>
<path fill="none" stroke="black" d="M198.262,-503.831C198.796,-496.131 199.432,-486.974 200.027,-478.417"/>
<polygon fill="black" stroke="black" points="203.52,-478.632 200.721,-468.413 196.537,-478.147 203.52,-478.632"/>
</g>
<!-- ras -->
<g id="node13" class="node"><title>ras</title>
<polygon fill="none" stroke="black" stroke-width="2" stroke-dasharray="5,2" points="117,-396 63,-396 63,-360 117,-360 117,-396"/>
<text text-anchor="middle" x="90" y="-374.3" font-family="bold" font-size="14.00">ras</text>
</g>
<!-- sos&#45;&gt;ras -->
<g id="edge8" class="edge"><title>sos&#45;&gt;ras</title>
<path fill="none" stroke="black" d="M90,-431.831C90,-424.131 90,-414.974 90,-406.417"/>
<polygon fill="black" stroke="black" points="93.5001,-406.413 90,-396.413 86.5001,-406.413 93.5001,-406.413"/>
</g>
<!-- ras&#45;&gt;map3k1 -->
<g id="edge9" class="edge"><title>ras&#45;&gt;map3k1</title>
<path fill="none" stroke="black" d="M103.374,-359.831C109.416,-351.623 116.676,-341.761 123.322,-332.732"/>
<polygon fill="black" stroke="black" points="126.336,-334.542 129.446,-324.413 120.699,-330.392 126.336,-334.542"/>
</g>
<!-- raf1 -->
<g id="node14" class="node"><title>raf1</title>
<polygon fill="lightblue" stroke="red" stroke-width="2" points="85,-324 31,-324 31,-288 85,-288 85,-324"/>
<polyline fill="none" stroke="red" stroke-width="2" points="43,-324 31,-312 "/>
<polyline fill="none" stroke="red" stroke-width="2" points="31,-300 43,-288 "/>
<polyline fill="none" stroke="red" stroke-width="2" points="73,-288 85,-300 "/>
<polyline fill="none" stroke="red" stroke-width="2" points="85,-312 73,-324 "/>
<text text-anchor="middle" x="58" y="-302.3" font-family="bold" font-size="14.00">raf1</text>
</g>
<!-- ras&#45;&gt;raf1 -->
<g id="edge10" class="edge"><title>ras&#45;&gt;raf1</title>
<path fill="none" stroke="black" d="M81.925,-359.831C78.3898,-351.877 74.164,-342.369 70.2544,-333.572"/>
<polygon fill="black" stroke="black" points="73.4435,-332.13 66.1837,-324.413 67.0468,-334.973 73.4435,-332.13"/>
</g>
<!-- mek -->
<g id="node25" class="node"><title>mek</title>
<polygon fill="none" stroke="black" stroke-width="2" stroke-dasharray="5,2" points="85,-252 31,-252 31,-216 85,-216 85,-252"/>
<text text-anchor="middle" x="58" y="-230.3" font-family="bold" font-size="14.00">mek</text>
</g>
<!-- raf1&#45;&gt;mek -->
<g id="edge33" class="edge"><title>raf1&#45;&gt;mek</title>
<path fill="none" stroke="black" d="M58,-287.831C58,-280.131 58,-270.974 58,-262.417"/>
<polygon fill="black" stroke="black" points="61.5001,-262.413 58,-252.413 54.5001,-262.413 61.5001,-262.413"/>
</g>
<!-- cjun -->
<g id="node16" class="node"><title>cjun</title>
<polygon fill="none" stroke="black" stroke-width="2" stroke-dasharray="5,2" points="167,-108 113,-108 113,-72 167,-72 167,-108"/>
<text text-anchor="middle" x="140" y="-86.3" font-family="bold" font-size="14.00">cjun</text>
</g>
<!-- jnk&#45;&gt;cjun -->
<g id="edge11" class="edge"><title>jnk&#45;&gt;cjun</title>
<path fill="none" stroke="black" d="M140.748,-143.831C140.641,-136.131 140.514,-126.974 140.395,-118.417"/>
<polygon fill="black" stroke="black" points="143.894,-118.364 140.256,-108.413 136.895,-118.461 143.894,-118.364"/>
</g>
<!-- cjun&#45;&gt;ap1 -->
<g id="edge25" class="edge"><title>cjun&#45;&gt;ap1</title>
<path fill="none" stroke="black" d="M140,-71.8314C140,-64.131 140,-54.9743 140,-46.4166"/>
<polygon fill="black" stroke="black" points="143.5,-46.4132 140,-36.4133 136.5,-46.4133 143.5,-46.4132"/>
</g>
<!-- traf2 -->
<g id="node18" class="node"><title>traf2</title>
<polygon fill="none" stroke="black" stroke-width="2" stroke-dasharray="5,2" points="298,-540 242,-540 242,-504 298,-504 298,-540"/>
<text text-anchor="middle" x="270" y="-518.3" font-family="bold" font-size="14.00">traf2</text>
</g>
<!-- tnfr&#45;&gt;traf2 -->
<g id="edge12" class="edge"><title>tnfr&#45;&gt;traf2</title>
<path fill="none" stroke="black" d="M269.252,-575.831C269.359,-568.131 269.486,-558.974 269.605,-550.417"/>
<polygon fill="black" stroke="black" points="273.105,-550.461 269.744,-540.413 266.106,-550.364 273.105,-550.461"/>
</g>
<!-- ask1 -->
<g id="node23" class="node"><title>ask1</title>
<polygon fill="none" stroke="black" stroke-width="2" stroke-dasharray="5,2" points="293,-396 239,-396 239,-360 293,-360 293,-396"/>
<text text-anchor="middle" x="266" y="-374.3" font-family="bold" font-size="14.00">ask1</text>
</g>
<!-- traf2&#45;&gt;ask1 -->
<g id="edge18" class="edge"><title>traf2&#45;&gt;ask1</title>
<path fill="none" stroke="black" d="M269.493,-503.762C268.811,-479.201 267.59,-435.247 266.788,-406.354"/>
<polygon fill="black" stroke="black" points="270.279,-405.989 266.502,-396.09 263.282,-406.183 270.279,-405.989"/>
</g>
<!-- map3k7 -->
<g id="node24" class="node"><title>map3k7</title>
<polygon fill="none" stroke="black" stroke-width="2" stroke-dasharray="5,2" points="374,-468 294,-468 294,-432 374,-432 374,-468"/>
<text text-anchor="middle" x="334" y="-446.3" font-family="bold" font-size="14.00">map3k7</text>
</g>
<!-- traf2&#45;&gt;map3k7 -->
<g id="edge19" class="edge"><title>traf2&#45;&gt;map3k7</title>
<path fill="none" stroke="black" d="M286.15,-503.831C293.672,-495.369 302.757,-485.149 310.98,-475.897"/>
<polygon fill="black" stroke="black" points="313.605,-478.213 317.633,-468.413 308.373,-473.562 313.605,-478.213"/>
</g>
<!-- mkk4&#45;&gt;p38 -->
<g id="edge13" class="edge"><title>mkk4&#45;&gt;p38</title>
<path fill="none" stroke="black" d="M284,-71.8314C284,-64.131 284,-54.9743 284,-46.4166"/>
<polygon fill="black" stroke="black" points="287.5,-46.4132 284,-36.4133 280.5,-46.4133 287.5,-46.4132"/>
</g>
<!-- ph -->
<g id="node20" class="node"><title>ph</title>
<polygon fill="white" stroke="black" stroke-width="2" points="54,-108 0,-108 0,-72 54,-72 54,-108"/>
<text text-anchor="middle" x="27" y="-86.3" font-family="bold" font-size="14.00">ph</text>
</g>
<!-- ph&#45;&gt;egfr^!ph=sos -->
<g id="edge16" class="edge"><title>ph&#45;&gt;egfr^!ph=sos</title>
<path fill="none" stroke="red" d="M22.0272,-108.025C14.9974,-135.136 3,-188.126 3,-234 3,-378 3,-378 3,-378 3,-439.913 62.6462,-498.022 83.1642,-516.18"/>
<polygon fill="red" stroke="red" points="89.6262,-515.167 83.0736,-522.721 81.5628,-521.41 88.1154,-513.856 89.6262,-515.167"/>
<polyline fill="none" stroke="red" points="87.1054,-519.599 83.3283,-516.323 "/>
</g>
<!-- ph&#45;&gt;ph -->
<g id="edge15" class="edge"><title>ph&#45;&gt;ph</title>
<path fill="none" stroke="black" d="M54.2408,-103.487C64.0239,-103.777 72,-99.2812 72,-90 72,-84.1992 68.8843,-80.2678 64.1591,-78.2058"/>
<polygon fill="black" stroke="black" points="64.6871,-74.7454 54.2408,-76.5132 63.5094,-81.6456 64.6871,-74.7454"/>
</g>
<!-- nik -->
<g id="node21" class="node"><title>nik</title>
<polygon fill="none" stroke="black" stroke-width="2" stroke-dasharray="5,2" points="403,-396 349,-396 349,-360 403,-360 403,-396"/>
<text text-anchor="middle" x="376" y="-374.3" font-family="bold" font-size="14.00">nik</text>
</g>
<!-- ikk -->
<g id="node22" class="node"><title>ikk</title>
<polygon fill="none" stroke="black" stroke-width="2" stroke-dasharray="5,2" points="403,-324 349,-324 349,-288 403,-288 403,-324"/>
<text text-anchor="middle" x="376" y="-302.3" font-family="bold" font-size="14.00">ikk</text>
</g>
<!-- nik&#45;&gt;ikk -->
<g id="edge17" class="edge"><title>nik&#45;&gt;ikk</title>
<path fill="none" stroke="black" d="M376,-359.831C376,-352.131 376,-342.974 376,-334.417"/>
<polygon fill="black" stroke="black" points="379.5,-334.413 376,-324.413 372.5,-334.413 379.5,-334.413"/>
</g>
<!-- ikb -->
<g id="node27" class="node"><title>ikb</title>
<polygon fill="white" stroke="black" stroke-width="2" points="403,-252 349,-252 349,-216 403,-216 403,-252"/>
<text text-anchor="middle" x="376" y="-230.3" font-family="bold" font-size="14.00">ikb</text>
</g>
<!-- ikk&#45;&gt;ikb -->
<g id="edge24" class="edge"><title>ikk&#45;&gt;ikb</title>
<path fill="none" stroke="red" d="M376,-287.831C376,-278.608 376,-267.295 376,-257.425"/>
<polygon fill="red" stroke="red" points="371,-253.413 381,-253.413 381,-255.413 371,-255.413 371,-253.413"/>
<polyline fill="none" stroke="red" points="376,-252.413 376,-257.413 "/>
</g>
<!-- ask1&#45;&gt;mkk7 -->
<g id="edge26" class="edge"><title>ask1&#45;&gt;mkk7</title>
<path fill="none" stroke="black" d="M251.512,-359.856C236.775,-341.525 213.159,-312.492 192,-288 183.935,-278.664 174.909,-268.611 166.823,-259.739"/>
<polygon fill="black" stroke="black" points="169.342,-257.307 160.007,-252.295 164.179,-262.034 169.342,-257.307"/>
</g>
<!-- map3k7&#45;&gt;map3k1^map3k7=mkk4 -->
<g id="edge30" class="edge"><title>map3k7&#45;&gt;map3k1^map3k7=mkk4</title>
<path fill="none" stroke="black" d="M329.823,-431.955C320.039,-389.687 295.81,-285.017 287.144,-247.583"/>
<polygon fill="black" stroke="black" points="290.511,-246.606 284.846,-237.653 283.691,-248.185 290.511,-246.606"/>
</g>
<!-- map3k7&#45;&gt;nik -->
<g id="edge29" class="edge"><title>map3k7&#45;&gt;nik</title>
<path fill="none" stroke="black" d="M344.598,-431.831C349.288,-423.792 354.903,-414.167 360.08,-405.292"/>
<polygon fill="black" stroke="black" points="363.243,-406.815 365.259,-396.413 357.197,-403.288 363.243,-406.815"/>
</g>
<!-- erk -->
<g id="node26" class="node"><title>erk</title>
<polygon fill="lightblue" stroke="black" stroke-width="2" points="85,-180 31,-180 31,-144 85,-144 85,-180"/>
<text text-anchor="middle" x="58" y="-158.3" font-family="bold" font-size="14.00">erk</text>
</g>
<!-- mek&#45;&gt;erk -->
<g id="edge21" class="edge"><title>mek&#45;&gt;erk</title>
<path fill="none" stroke="black" d="M58,-215.831C58,-208.131 58,-198.974 58,-190.417"/>
<polygon fill="black" stroke="black" points="61.5001,-190.413 58,-180.413 54.5001,-190.413 61.5001,-190.413"/>
</g>
<!-- erk&#45;&gt;ph -->
<g id="edge32" class="edge"><title>erk&#45;&gt;ph</title>
<path fill="none" stroke="black" d="M50.1774,-143.831C46.7891,-135.962 42.7459,-126.571 38.9924,-117.853"/>
<polygon fill="black" stroke="black" points="42.0973,-116.214 34.9279,-108.413 35.6679,-118.982 42.0973,-116.214"/>
</g>
<!-- nfkb -->
<g id="node28" class="node"><title>nfkb</title>
<polygon fill="lightblue" stroke="black" stroke-width="2" points="376,-180 322,-180 322,-144 376,-144 376,-180"/>
<text text-anchor="middle" x="349" y="-158.3" font-family="bold" font-size="14.00">nfkb</text>
</g>
<!-- ikb&#45;&gt;nfkb -->
<g id="edge23" class="edge"><title>ikb&#45;&gt;nfkb</title>
<path fill="none" stroke="red" d="M369.187,-215.831C365.696,-206.523 361.408,-195.087 357.683,-185.153"/>
<polygon fill="red" stroke="red" points="351.574,-183.105 360.938,-179.594 361.64,-181.467 352.277,-184.978 351.574,-183.105"/>
<polyline fill="none" stroke="red" points="355.905,-180.413 357.661,-185.095 "/>
</g>
<!-- ex -->
<g id="node30" class="node"><title>ex</title>
<polygon fill="none" stroke="black" stroke-width="2" stroke-dasharray="5,2" points="409,-108 355,-108 355,-72 409,-72 409,-108"/>
<text text-anchor="middle" x="382" y="-86.3" font-family="bold" font-size="14.00">ex</text>
</g>
<!-- nfkb&#45;&gt;ex -->
<g id="edge28" class="edge"><title>nfkb&#45;&gt;ex</title>
<path fill="none" stroke="black" d="M357.327,-143.831C360.973,-135.877 365.331,-126.369 369.363,-117.572"/>
<polygon fill="black" stroke="black" points="372.576,-118.962 373.561,-108.413 366.212,-116.046 372.576,-118.962"/>
</g>
<!-- akt&#45;&gt;gsk3 -->
<g id="edge31" class="edge"><title>akt&#45;&gt;gsk3</title>
<path fill="none" stroke="red" d="M203.865,-431.837C206.501,-404.55 211,-351.338 211,-306 211,-306 211,-306 211,-162 211,-119.4 211.443,-69.7136 211.739,-41.247"/>
<polygon fill="red" stroke="red" points="206.782,-37.1321 216.782,-37.238 216.761,-39.2378 206.761,-39.132 206.782,-37.1321"/>
<polyline fill="none" stroke="red" points="211.793,-36.1851 211.74,-41.1848 "/>
</g>
<!-- ex&#45;&gt;ikb -->
<g id="edge36" class="edge"><title>ex&#45;&gt;ikb</title>
<path fill="none" stroke="black" d="M383.849,-108.302C385.396,-126.509 387.05,-155.227 385,-180 384.305,-188.392 383.014,-197.442 381.621,-205.691"/>
<polygon fill="black" stroke="black" points="378.165,-205.139 379.841,-215.6 385.054,-206.377 378.165,-205.139"/>
</g>
</g>
</svg>
