<?xml version="1.0" encoding="UTF-8" standalone="no"?>
<!DOCTYPE svg PUBLIC "-//W3C//DTD SVG 1.1//EN"
 "http://www.w3.org/Graphics/SVG/1.1/DTD/svg11.dtd">
<!-- Generated by graphviz version 2.24.0 (20090616.2323)
 -->
<!-- Title: G Pages: 1 -->
<svg width="1360pt" height="580pt"
 viewBox="0.00 0.00 1360.00 580.00" xmlns="http://www.w3.org/2000/svg" xmlns:xlink="http://www.w3.org/1999/xlink">
<g id="graph1" class="graph" transform="scale(1 1) rotate(0) translate(4 576)">
<title>G</title>
<polygon fill="white" stroke="white" points="-4,5 -4,-576 1357,-576 1357,5 -4,5"/>
<!-- s14 -->
<g id="node1" class="node"><title>s14</title>
<polyline fill="none" stroke="black" points="176,-496 146,-496 "/>
<path fill="none" stroke="black" d="M146,-496C140,-496 134,-490 134,-484"/>
<polyline fill="none" stroke="black" points="134,-484 134,-472 "/>
<path fill="none" stroke="black" d="M134,-472C134,-466 140,-460 146,-460"/>
<polyline fill="none" stroke="black" points="146,-460 176,-460 "/>
<path fill="none" stroke="black" d="M176,-460C182,-460 188,-466 188,-472"/>
<polyline fill="none" stroke="black" points="188,-472 188,-484 "/>
<path fill="none" stroke="black" d="M188,-484C188,-490 182,-496 176,-496"/>
<text text-anchor="middle" x="161" y="-475.5" font-family="Times Roman,serif" font-size="10.00">PDK1</text>
</g>
<!-- re61_intermediate_m -->
<g id="node73" class="node"><title>re61_intermediate_m</title>
<ellipse fill="black" stroke="black" cx="225" cy="-400" rx="0.036" ry="0.036"/>
</g>
<!-- s14&#45;&gt;re61_intermediate_m -->
<g id="edge78" class="edge"><title>s14&#45;&gt;re61_intermediate_m</title>
<path fill="none" stroke="black" d="M171.568,-459.954C189.178,-435.357 222.813,-395.883 224.898,-399.512"/>
</g>
<!-- s14&#45;&gt;re61_intermediate_m -->
<g id="edge82" class="edge"><title>s14&#45;&gt;re61_intermediate_m</title>
<path fill="none" stroke="black" d="M181.25,-459.648C199.707,-438.538 224.22,-406.64 224.982,-400.283"/>
</g>
<!-- re67_intermediate_r -->
<g id="node140" class="node"><title>re67_intermediate_r</title>
<ellipse fill="black" stroke="black" cx="225" cy="-478" rx="0.036" ry="0.036"/>
</g>
<!-- s14&#45;&gt;re67_intermediate_r -->
<g id="edge168" class="edge"><title>s14&#45;&gt;re67_intermediate_r</title>
<path fill="none" stroke="black" d="M188.142,-478C205.04,-478 223.788,-478 224.944,-478"/>
</g>
<!-- re67_intermediate_m -->
<g id="node146" class="node"><title>re67_intermediate_m</title>
<ellipse fill="black" stroke="black" cx="371" cy="-505" rx="0.036" ry="0.036"/>
</g>
<!-- s14&#45;&gt;re67_intermediate_m -->
<g id="edge176" class="edge"><title>s14&#45;&gt;re67_intermediate_m</title>
<path fill="none" stroke="black" d="M188.375,-482.766C208.658,-486.192 236.999,-490.761 262,-494 309.532,-500.158 369.106,-504.851 370.956,-504.997"/>
</g>
<!-- s15 -->
<g id="node2" class="node"><title>s15</title>
<ellipse fill="none" stroke="black" cx="733" cy="-324" rx="27" ry="18"/>
<text text-anchor="middle" x="733" y="-321.5" font-family="Times Roman,serif" font-size="10.00">PP2A</text>
</g>
<!-- re63_intermediate_m -->
<g id="node97" class="node"><title>re63_intermediate_m</title>
<ellipse fill="black" stroke="black" cx="797" cy="-217" rx="0.036" ry="0.036"/>
</g>
<!-- s15&#45;&gt;re63_intermediate_m -->
<g id="edge110" class="edge"><title>s15&#45;&gt;re63_intermediate_m</title>
<path fill="none" stroke="black" d="M740.848,-306.265C757.403,-274.755 794.58,-213.924 796.887,-216.545"/>
</g>
<!-- s15&#45;&gt;re63_intermediate_m -->
<g id="edge114" class="edge"><title>s15&#45;&gt;re63_intermediate_m</title>
<path fill="none" stroke="black" d="M745.951,-307.896C764.36,-279.776 795.992,-225.14 796.976,-217.336"/>
</g>
<!-- re64_intermediate_m -->
<g id="node109" class="node"><title>re64_intermediate_m</title>
<ellipse fill="black" stroke="black" cx="797" cy="-347" rx="0.036" ry="0.036"/>
</g>
<!-- s15&#45;&gt;re64_intermediate_m -->
<g id="edge126" class="edge"><title>s15&#45;&gt;re64_intermediate_m</title>
<path fill="none" stroke="black" d="M759.771,-326.952C777.035,-332.618 796.385,-341.718 796.986,-346.763"/>
</g>
<!-- s15&#45;&gt;re64_intermediate_m -->
<g id="edge130" class="edge"><title>s15&#45;&gt;re64_intermediate_m</title>
<path fill="none" stroke="black" d="M751.856,-336.992C770.144,-345.136 795.366,-352.304 796.924,-347.502"/>
</g>
<!-- re65_intermediate_m -->
<g id="node122" class="node"><title>re65_intermediate_m</title>
<ellipse fill="black" stroke="black" cx="797" cy="-301" rx="0.036" ry="0.036"/>
</g>
<!-- s15&#45;&gt;re65_intermediate_m -->
<g id="edge144" class="edge"><title>s15&#45;&gt;re65_intermediate_m</title>
<path fill="none" stroke="black" d="M751.856,-311.008C770.144,-302.864 795.366,-295.696 796.924,-300.498"/>
</g>
<!-- s15&#45;&gt;re65_intermediate_m -->
<g id="edge148" class="edge"><title>s15&#45;&gt;re65_intermediate_m</title>
<path fill="none" stroke="black" d="M759.771,-321.048C777.035,-315.382 796.385,-306.282 796.986,-301.237"/>
</g>
<!-- s16 -->
<g id="node3" class="node"><title>s16</title>
<polyline fill="none" stroke="black" points="876,-218 846,-218 "/>
<path fill="none" stroke="black" d="M846,-218C840,-218 834,-212 834,-206"/>
<polyline fill="none" stroke="black" points="834,-206 834,-194 "/>
<path fill="none" stroke="black" d="M834,-194C834,-188 840,-182 846,-182"/>
<polyline fill="none" stroke="black" points="846,-182 876,-182 "/>
<path fill="none" stroke="black" d="M876,-182C882,-182 888,-188 888,-194"/>
<polyline fill="none" stroke="black" points="888,-194 888,-206 "/>
<path fill="none" stroke="black" d="M888,-206C888,-212 882,-218 876,-218"/>
<text text-anchor="middle" x="861" y="-197.5" font-family="Times Roman,serif" font-size="10.00">AKT</text>
</g>
<!-- re60_intermediate_r -->
<g id="node54" class="node"><title>re60_intermediate_r</title>
<ellipse fill="black" stroke="black" cx="925" cy="-200" rx="0.036" ry="0.036"/>
</g>
<!-- s16&#45;&gt;re60_intermediate_r -->
<g id="edge54" class="edge"><title>s16&#45;&gt;re60_intermediate_r</title>
<path fill="none" stroke="black" d="M898.505,-200C911.931,-200 924.023,-200 924.944,-200"/>
<polygon fill="black" stroke="black" points="898.142,-196.5 888.142,-200 898.142,-203.5 898.142,-196.5"/>
</g>
<!-- re60_intermediate_m -->
<g id="node61" class="node"><title>re60_intermediate_m</title>
<ellipse fill="black" stroke="black" cx="1053" cy="-154" rx="0.036" ry="0.036"/>
</g>
<!-- s16&#45;&gt;re60_intermediate_m -->
<g id="edge64" class="edge"><title>s16&#45;&gt;re60_intermediate_m</title>
<path fill="none" stroke="black" d="M888.102,-193.507C940.2,-181.025 1049.52,-154.835 1052.92,-154.019"/>
</g>
<!-- s17 -->
<g id="node4" class="node"><title>s17</title>
<ellipse fill="none" stroke="black" cx="861" cy="-312" rx="27" ry="18"/>
<text text-anchor="middle" x="861" y="-309.5" font-family="Times Roman,serif" font-size="10.00">PI3P</text>
</g>
<!-- re59_intermediate_r -->
<g id="node42" class="node"><title>re59_intermediate_r</title>
<ellipse fill="black" stroke="black" cx="925" cy="-416" rx="0.036" ry="0.036"/>
</g>
<!-- s17&#45;&gt;re59_intermediate_r -->
<g id="edge36" class="edge"><title>s17&#45;&gt;re59_intermediate_r</title>
<path fill="none" stroke="black" d="M871.283,-328.709C888.809,-357.189 922.791,-412.41 924.897,-415.833"/>
</g>
<!-- re59_intermediate_m -->
<g id="node48" class="node"><title>re59_intermediate_m</title>
<ellipse fill="black" stroke="black" cx="1053" cy="-404" rx="0.036" ry="0.036"/>
</g>
<!-- s17&#45;&gt;re59_intermediate_m -->
<g id="edge46" class="edge"><title>s17&#45;&gt;re59_intermediate_m</title>
<path fill="none" stroke="black" d="M885.18,-320.149C916.386,-331.108 971.908,-352.12 1016,-377 1033.18,-386.692 1051.8,-402.945 1052.94,-403.951"/>
</g>
<!-- s17&#45;&gt;re60_intermediate_r -->
<g id="edge52" class="edge"><title>s17&#45;&gt;re60_intermediate_r</title>
<path fill="none" stroke="black" d="M875.866,-285.985C894.45,-253.463 923.967,-201.808 924.974,-200.046"/>
<polygon fill="black" stroke="black" points="872.643,-284.571 870.72,-294.99 878.721,-288.044 872.643,-284.571"/>
</g>
<!-- s17&#45;&gt;re60_intermediate_m -->
<g id="edge62" class="edge"><title>s17&#45;&gt;re60_intermediate_m</title>
<path fill="none" stroke="black" d="M875.814,-296.935C888.297,-284.478 906.82,-266.537 924,-252 963.018,-218.985 975.44,-214.1 1016,-183 1032.06,-170.684 1051.73,-155.014 1052.94,-154.047"/>
</g>
<!-- re66_intermediate_m -->
<g id="node134" class="node"><title>re66_intermediate_m</title>
<ellipse fill="black" stroke="black" cx="925" cy="-456" rx="0.036" ry="0.036"/>
</g>
<!-- s17&#45;&gt;re66_intermediate_m -->
<g id="edge160" class="edge"><title>s17&#45;&gt;re66_intermediate_m</title>
<path fill="none" stroke="black" d="M870.72,-328.861C888.344,-365.124 923.868,-446.616 924.974,-455.626"/>
</g>
<!-- s17&#45;&gt;re66_intermediate_m -->
<g id="edge162" class="edge"><title>s17&#45;&gt;re66_intermediate_m</title>
<path fill="none" stroke="black" d="M867.021,-329.693C882.455,-368.809 922.398,-457.52 924.879,-456.394"/>
</g>
<!-- s18 -->
<g id="node5" class="node"><title>s18</title>
<polyline fill="none" stroke="black" points="1004,-422 974,-422 "/>
<path fill="none" stroke="black" d="M974,-422C968,-422 962,-416 962,-410"/>
<polyline fill="none" stroke="black" points="962,-410 962,-398 "/>
<path fill="none" stroke="black" d="M962,-398C962,-392 968,-386 974,-386"/>
<polyline fill="none" stroke="black" points="974,-386 1004,-386 "/>
<path fill="none" stroke="black" d="M1004,-386C1010,-386 1016,-392 1016,-398"/>
<polyline fill="none" stroke="black" points="1016,-398 1016,-410 "/>
<path fill="none" stroke="black" d="M1016,-410C1016,-416 1010,-422 1004,-422"/>
<text text-anchor="middle" x="989" y="-401.5" font-family="Times Roman,serif" font-size="10.00">PTEN</text>
</g>
<!-- s18&#45;&gt;re59_intermediate_m -->
<g id="edge44" class="edge"><title>s18&#45;&gt;re59_intermediate_m</title>
<path fill="none" stroke="black" d="M1016.14,-397.32C1033.04,-396.832 1051.79,-398.906 1052.94,-403.543"/>
</g>
<!-- s18&#45;&gt;re59_intermediate_m -->
<g id="edge48" class="edge"><title>s18&#45;&gt;re59_intermediate_m</title>
<path fill="none" stroke="black" d="M1016.14,-410.68C1033.04,-411.168 1051.79,-409.094 1052.94,-404.457"/>
</g>
<!-- s19 -->
<g id="node6" class="node"><title>s19</title>
<ellipse fill="none" stroke="black" cx="1139" cy="-390" rx="18" ry="18"/>
<text text-anchor="middle" x="1139" y="-387.5" font-family="Times Roman,serif" font-size="10.00">PIP2</text>
</g>
<!-- re58_intermediate_r -->
<g id="node30" class="node"><title>re58_intermediate_r</title>
<ellipse fill="black" stroke="black" cx="1225" cy="-307" rx="0.036" ry="0.036"/>
</g>
<!-- s19&#45;&gt;re58_intermediate_r -->
<g id="edge20" class="edge"><title>s19&#45;&gt;re58_intermediate_r</title>
<path fill="none" stroke="black" d="M1152.06,-377.394C1175.37,-354.901 1221.97,-309.925 1224.86,-307.136"/>
</g>
<!-- re58_intermediate_m -->
<g id="node36" class="node"><title>re58_intermediate_m</title>
<ellipse fill="black" stroke="black" cx="1352" cy="-344" rx="0.036" ry="0.036"/>
</g>
<!-- s19&#45;&gt;re58_intermediate_m -->
<g id="edge30" class="edge"><title>s19&#45;&gt;re58_intermediate_m</title>
<path fill="none" stroke="black" d="M1157.07,-391.142C1189.96,-392.562 1261.22,-392.576 1316,-371 1334.03,-363.9 1350.91,-345.217 1351.95,-344.057"/>
</g>
<!-- s20 -->
<g id="node7" class="node"><title>s20</title>
<polyline fill="none" stroke="black" points="1304,-362 1274,-362 "/>
<path fill="none" stroke="black" d="M1274,-362C1268,-362 1262,-356 1262,-350"/>
<polyline fill="none" stroke="black" points="1262,-350 1262,-338 "/>
<path fill="none" stroke="black" d="M1262,-338C1262,-332 1268,-326 1274,-326"/>
<polyline fill="none" stroke="black" points="1274,-326 1304,-326 "/>
<path fill="none" stroke="black" d="M1304,-326C1310,-326 1316,-332 1316,-338"/>
<polyline fill="none" stroke="black" points="1316,-338 1316,-350 "/>
<path fill="none" stroke="black" d="M1316,-350C1316,-356 1310,-362 1304,-362"/>
<text text-anchor="middle" x="1289" y="-341.5" font-family="Times Roman,serif" font-size="10.00">p&#45;PI3K</text>
</g>
<!-- s20&#45;&gt;re58_intermediate_m -->
<g id="edge28" class="edge"><title>s20&#45;&gt;re58_intermediate_m</title>
<path fill="none" stroke="black" d="M1316.08,-337.309C1332.62,-336.862 1350.82,-338.941 1351.95,-343.546"/>
</g>
<!-- s20&#45;&gt;re58_intermediate_m -->
<g id="edge32" class="edge"><title>s20&#45;&gt;re58_intermediate_m</title>
<path fill="none" stroke="black" d="M1316.08,-350.691C1332.62,-351.138 1350.82,-349.059 1351.95,-344.454"/>
</g>
<!-- s21 -->
<g id="node8" class="node"><title>s21</title>
<ellipse fill="none" stroke="black" cx="861" cy="-18" rx="27" ry="18"/>
<text text-anchor="middle" x="861" y="-15.5" font-family="Times Roman,serif" font-size="10.00">s3</text>
</g>
<!-- re68_intermediate_r -->
<g id="node150" class="node"><title>re68_intermediate_r</title>
<ellipse fill="black" stroke="black" cx="925" cy="-21" rx="0.036" ry="0.036"/>
</g>
<!-- s21&#45;&gt;re68_intermediate_r -->
<g id="edge180" class="edge"><title>s21&#45;&gt;re68_intermediate_r</title>
<path fill="none" stroke="black" d="M888.142,-19.2723C905.04,-20.0644 923.788,-20.9432 924.944,-20.9974"/>
</g>
<!-- s22 -->
<g id="node9" class="node"><title>s22</title>
<polyline fill="none" stroke="black" points="1004,-330 974,-330 "/>
<path fill="none" stroke="black" d="M974,-330C968,-330 962,-324 962,-318"/>
<polyline fill="none" stroke="black" points="962,-318 962,-306 "/>
<path fill="none" stroke="black" d="M962,-306C962,-300 968,-294 974,-294"/>
<polyline fill="none" stroke="black" points="974,-294 1004,-294 "/>
<path fill="none" stroke="black" d="M1004,-294C1010,-294 1016,-300 1016,-306"/>
<polyline fill="none" stroke="black" points="1016,-306 1016,-318 "/>
<path fill="none" stroke="black" d="M1016,-318C1016,-324 1010,-330 1004,-330"/>
<text text-anchor="middle" x="989" y="-309.5" font-family="Times Roman,serif" font-size="10.00">PI3K</text>
</g>
<!-- re57_intermediate_r -->
<g id="node18" class="node"><title>re57_intermediate_r</title>
<ellipse fill="black" stroke="black" cx="1053" cy="-312" rx="0.036" ry="0.036"/>
</g>
<!-- s22&#45;&gt;re57_intermediate_r -->
<g id="edge4" class="edge"><title>s22&#45;&gt;re57_intermediate_r</title>
<path fill="none" stroke="black" d="M1026.51,-312C1039.93,-312 1052.02,-312 1052.94,-312"/>
<polygon fill="black" stroke="black" points="1026.14,-308.5 1016.14,-312 1026.14,-315.5 1026.14,-308.5"/>
</g>
<!-- s23 -->
<g id="node10" class="node"><title>s23</title>
<ellipse fill="none" stroke="black" cx="1139" cy="-133" rx="27" ry="18"/>
<text text-anchor="middle" x="1139" y="-130.5" font-family="Times Roman,serif" font-size="10.00">Time</text>
</g>
<!-- re57_intermediate_m -->
<g id="node24" class="node"><title>re57_intermediate_m</title>
<ellipse fill="black" stroke="black" cx="1225" cy="-133" rx="0.036" ry="0.036"/>
</g>
<!-- s23&#45;&gt;re57_intermediate_m -->
<g id="edge12" class="edge"><title>s23&#45;&gt;re57_intermediate_m</title>
<path fill="none" stroke="black" d="M1164.8,-126.755C1189.74,-125.212 1223.91,-127.205 1224.97,-132.734"/>
</g>
<!-- s23&#45;&gt;re57_intermediate_m -->
<g id="edge16" class="edge"><title>s23&#45;&gt;re57_intermediate_m</title>
<path fill="none" stroke="black" d="M1164.8,-139.245C1189.74,-140.788 1223.91,-138.795 1224.97,-133.266"/>
</g>
<!-- s24 -->
<g id="node11" class="node"><title>s24</title>
<polyline fill="none" stroke="black" points="459,-274 429,-274 "/>
<path fill="none" stroke="black" d="M429,-274C423,-274 417,-268 417,-262"/>
<polyline fill="none" stroke="black" points="417,-262 417,-250 "/>
<path fill="none" stroke="black" d="M417,-250C417,-244 423,-238 429,-238"/>
<polyline fill="none" stroke="black" points="429,-238 459,-238 "/>
<path fill="none" stroke="black" d="M459,-238C465,-238 471,-244 471,-250"/>
<polyline fill="none" stroke="black" points="471,-250 471,-262 "/>
<path fill="none" stroke="black" d="M471,-262C471,-268 465,-274 459,-274"/>
<text text-anchor="middle" x="444" y="-253.5" font-family="Times Roman,serif" font-size="10.00">PDK2</text>
</g>
<!-- re62_intermediate_m -->
<g id="node85" class="node"><title>re62_intermediate_m</title>
<ellipse fill="black" stroke="black" cx="517" cy="-279" rx="0.036" ry="0.036"/>
</g>
<!-- s24&#45;&gt;re62_intermediate_m -->
<g id="edge94" class="edge"><title>s24&#45;&gt;re62_intermediate_m</title>
<path fill="none" stroke="black" d="M471.183,-258.014C491.613,-263.559 516.218,-273.413 516.982,-278.749"/>
</g>
<!-- s24&#45;&gt;re62_intermediate_m -->
<g id="edge98" class="edge"><title>s24&#45;&gt;re62_intermediate_m</title>
<path fill="none" stroke="black" d="M471.183,-271.115C491.289,-278.328 515.438,-283.915 516.927,-279.462"/>
</g>
<!-- s25 -->
<g id="node12" class="node"><title>s25</title>
<polyline fill="none" stroke="black" points="468,-511 420,-511 "/>
<path fill="none" stroke="black" d="M420,-511C414,-511 408,-505 408,-499"/>
<polyline fill="none" stroke="black" points="408,-499 408,-487 "/>
<path fill="none" stroke="black" d="M408,-487C408,-481 414,-475 420,-475"/>
<polyline fill="none" stroke="black" points="420,-475 468,-475 "/>
<path fill="none" stroke="black" d="M468,-475C474,-475 480,-481 480,-487"/>
<polyline fill="none" stroke="black" points="480,-487 480,-499 "/>
<path fill="none" stroke="black" d="M480,-499C480,-505 474,-511 468,-511"/>
<text text-anchor="middle" x="444" y="-490.5" font-family="Times Roman,serif" font-size="10.00">PDK1_cyto</text>
</g>
<!-- re66_intermediate_r -->
<g id="node128" class="node"><title>re66_intermediate_r</title>
<ellipse fill="black" stroke="black" cx="517" cy="-493" rx="0.036" ry="0.036"/>
</g>
<!-- s25&#45;&gt;re66_intermediate_r -->
<g id="edge152" class="edge"><title>s25&#45;&gt;re66_intermediate_r</title>
<path fill="none" stroke="black" d="M480.072,-493C497.889,-493 515.842,-493 516.946,-493"/>
</g>
<!-- s25&#45;&gt;re66_intermediate_m -->
<g id="edge164" class="edge"><title>s25&#45;&gt;re66_intermediate_m</title>
<path fill="none" stroke="black" d="M480.281,-508.852C509.991,-520.389 553.426,-534 593,-534 593,-534 593,-534 797,-534 862.578,-534 923.081,-458.418 924.955,-456.057"/>
</g>
<!-- s26 -->
<g id="node13" class="node"><title>s26</title>
<polyline fill="none" stroke="black" points="321,-320 275,-320 "/>
<path fill="none" stroke="black" d="M275,-320C269,-320 263,-314 263,-308"/>
<polyline fill="none" stroke="black" points="263,-308 263,-296 "/>
<path fill="none" stroke="black" d="M263,-296C263,-290 269,-284 275,-284"/>
<polyline fill="none" stroke="black" points="275,-284 321,-284 "/>
<path fill="none" stroke="black" d="M321,-284C327,-284 333,-290 333,-296"/>
<polyline fill="none" stroke="black" points="333,-296 333,-308 "/>
<path fill="none" stroke="black" d="M333,-308C333,-314 327,-320 321,-320"/>
<text text-anchor="middle" x="298" y="-299.5" font-family="Times Roman,serif" font-size="10.00">p&#45;AKT:PI3P</text>
</g>
<!-- re62_intermediate_r -->
<g id="node79" class="node"><title>re62_intermediate_r</title>
<ellipse fill="black" stroke="black" cx="371" cy="-334" rx="0.036" ry="0.036"/>
</g>
<!-- s26&#45;&gt;re62_intermediate_r -->
<g id="edge86" class="edge"><title>s26&#45;&gt;re62_intermediate_r</title>
<path fill="none" stroke="black" d="M333.645,-317.625C351.596,-325.494 369.824,-333.484 370.945,-333.976"/>
</g>
<!-- s26&#45;&gt;re62_intermediate_m -->
<g id="edge96" class="edge"><title>s26&#45;&gt;re62_intermediate_m</title>
<path fill="none" stroke="black" d="M333.576,-298.325C370.266,-294.526 429.138,-288.404 480,-283 495.934,-281.307 515.719,-279.14 516.941,-279.007"/>
</g>
<!-- re63_intermediate_r -->
<g id="node91" class="node"><title>re63_intermediate_r</title>
<ellipse fill="black" stroke="black" cx="371" cy="-178" rx="0.036" ry="0.036"/>
</g>
<!-- s26&#45;&gt;re63_intermediate_r -->
<g id="edge102" class="edge"><title>s26&#45;&gt;re63_intermediate_r</title>
<path fill="none" stroke="black" d="M308.615,-283.969C328.545,-250.116 369.689,-180.228 370.969,-178.052"/>
</g>
<!-- s26&#45;&gt;re63_intermediate_m -->
<g id="edge112" class="edge"><title>s26&#45;&gt;re63_intermediate_m</title>
<path fill="none" stroke="black" d="M317.676,-283.929C338.397,-266.185 372.84,-240.2 408,-229 570.237,-177.322 790.009,-215.757 796.837,-216.971"/>
</g>
<!-- s27 -->
<g id="node14" class="node"><title>s27</title>
<polyline fill="none" stroke="black" points="619,-355 567,-355 "/>
<path fill="none" stroke="black" d="M567,-355C561,-355 555,-349 555,-343"/>
<polyline fill="none" stroke="black" points="555,-343 555,-331 "/>
<path fill="none" stroke="black" d="M555,-331C555,-325 561,-319 567,-319"/>
<polyline fill="none" stroke="black" points="567,-319 619,-319 "/>
<path fill="none" stroke="black" d="M619,-319C625,-319 631,-325 631,-331"/>
<polyline fill="none" stroke="black" points="631,-331 631,-343 "/>
<path fill="none" stroke="black" d="M631,-343C631,-349 625,-355 619,-355"/>
<text text-anchor="middle" x="593" y="-334.5" font-family="Times Roman,serif" font-size="10.00">pp&#45;AKT:PI3P</text>
</g>
<!-- re64_intermediate_r -->
<g id="node103" class="node"><title>re64_intermediate_r</title>
<ellipse fill="black" stroke="black" cx="669" cy="-402" rx="0.036" ry="0.036"/>
</g>
<!-- s27&#45;&gt;re64_intermediate_r -->
<g id="edge118" class="edge"><title>s27&#45;&gt;re64_intermediate_r</title>
<path fill="none" stroke="black" d="M614.17,-355.106C635.955,-373.738 666.988,-400.279 668.907,-401.92"/>
</g>
<!-- s27&#45;&gt;re64_intermediate_m -->
<g id="edge128" class="edge"><title>s27&#45;&gt;re64_intermediate_m</title>
<path fill="none" stroke="black" d="M631.592,-342.977C653.377,-346.05 681.14,-349.466 706,-351 729.954,-352.478 736.035,-352.292 760,-351 776,-350.138 795.724,-347.192 796.941,-347.009"/>
</g>
<!-- re65_intermediate_r -->
<g id="node115" class="node"><title>re65_intermediate_r</title>
<ellipse fill="black" stroke="black" cx="669" cy="-246" rx="0.036" ry="0.036"/>
</g>
<!-- s27&#45;&gt;re65_intermediate_r -->
<g id="edge134" class="edge"><title>s27&#45;&gt;re65_intermediate_r</title>
<path fill="none" stroke="black" d="M608.38,-318.585C629.893,-292.825 666.615,-248.856 668.889,-246.133"/>
</g>
<!-- s27&#45;&gt;re65_intermediate_m -->
<g id="edge146" class="edge"><title>s27&#45;&gt;re65_intermediate_m</title>
<path fill="none" stroke="black" d="M631.603,-319.652C653.04,-310.967 680.464,-301.386 706,-297 729.654,-292.937 736.035,-295.708 760,-297 776,-297.862 795.724,-300.808 796.941,-300.991"/>
</g>
<!-- s28 -->
<g id="node15" class="node"><title>s28</title>
<polyline fill="none" stroke="black" points="48,-158 12,-158 "/>
<path fill="none" stroke="black" d="M12,-158C6,-158 2.07242e-14,-152 1.65793e-14,-146"/>
<polyline fill="none" stroke="black" points="1.65793e-14,-146 8.28967e-15,-134 "/>
<path fill="none" stroke="black" d="M8.28967e-15,-134C4.14483e-15,-128 6,-122 12,-122"/>
<polyline fill="none" stroke="black" points="12,-122 48,-122 "/>
<path fill="none" stroke="black" d="M48,-122C54,-122 60,-128 60,-134"/>
<polyline fill="none" stroke="black" points="60,-134 60,-146 "/>
<path fill="none" stroke="black" d="M60,-146C60,-152 54,-158 48,-158"/>
<text text-anchor="middle" x="30" y="-137.5" font-family="Times Roman,serif" font-size="10.00">AKT:PI3P</text>
</g>
<!-- s28&#45;&gt;re60_intermediate_m -->
<g id="edge66" class="edge"><title>s28&#45;&gt;re60_intermediate_m</title>
<path fill="none" stroke="black" d="M60.2491,-125.958C86.3498,-115.133 125.361,-102 161,-102 161,-102 161,-102 925,-102 966.317,-102 979.109,-102.396 1016,-121 1035.06,-130.612 1051.91,-152.57 1052.95,-153.933"/>
</g>
<!-- re61_intermediate_r -->
<g id="node67" class="node"><title>re61_intermediate_r</title>
<ellipse fill="black" stroke="black" cx="97" cy="-235" rx="0.036" ry="0.036"/>
</g>
<!-- s28&#45;&gt;re61_intermediate_r -->
<g id="edge70" class="edge"><title>s28&#45;&gt;re61_intermediate_r</title>
<path fill="none" stroke="black" d="M42.9183,-158.317C61.7793,-185.06 94.8515,-231.954 96.9001,-234.858"/>
</g>
<!-- s28&#45;&gt;re61_intermediate_m -->
<g id="edge80" class="edge"><title>s28&#45;&gt;re61_intermediate_m</title>
<path fill="none" stroke="black" d="M38.2405,-158.08C54.0049,-191.607 90.7393,-264.838 134,-318 167.289,-358.908 221.482,-397.512 224.836,-399.885"/>
</g>
<!-- s119 -->
<g id="node16" class="node"><title>s119</title>
<ellipse fill="none" stroke="black" cx="1139" cy="-79" rx="49.247" ry="18"/>
<text text-anchor="middle" x="1139" y="-76.5" font-family="Times Roman,serif" font-size="10.00">Shear Stress</text>
</g>
<!-- s119&#45;&gt;re57_intermediate_m -->
<g id="edge14" class="edge"><title>s119&#45;&gt;re57_intermediate_m</title>
<path fill="none" stroke="black" d="M1167.34,-93.8198C1174.2,-97.6246 1181.45,-101.826 1188,-106 1204.63,-116.593 1223.76,-132.001 1224.94,-132.954"/>
</g>
<!-- re57 -->
<g id="node17" class="node"><title>re57</title>
<polygon fill="none" stroke="black" points="1146,-319 1132,-319 1132,-305 1146,-305 1146,-319"/>
</g>
<!-- re57_intermediate_p -->
<g id="node21" class="node"><title>re57_intermediate_p</title>
<ellipse fill="black" stroke="black" cx="1225" cy="-337" rx="0.036" ry="0.036"/>
</g>
<!-- re57&#45;&gt;re57_intermediate_p -->
<g id="edge6" class="edge"><title>re57&#45;&gt;re57_intermediate_p</title>
<path fill="none" stroke="black" d="M1146.04,-314.046C1165.94,-319.83 1221.39,-335.949 1224.83,-336.951"/>
</g>
<!-- re57&#45;&gt;re57_intermediate_m -->
<g id="edge10" class="edge"><title>re57&#45;&gt;re57_intermediate_m</title>
<path fill="none" stroke="black" d="M1147.71,-293.874C1169.19,-249.16 1223.11,-136.927 1224.95,-133.1"/>
<polygon fill="none" stroke="black" points="1147.67,-293.945 1148.68,-301.085 1142.48,-304.761 1141.47,-297.621 1147.67,-293.945"/>
</g>
<!-- re57_intermediate_r&#45;&gt;re57 -->
<g id="edge2" class="edge"><title>re57_intermediate_r&#45;&gt;re57</title>
<path fill="none" stroke="black" d="M1053.06,-312C1055.2,-312 1111.66,-312 1131.88,-312"/>
</g>
<!-- re57_intermediate_p&#45;&gt;s20 -->
<g id="edge8" class="edge"><title>re57_intermediate_p&#45;&gt;s20</title>
<path fill="none" stroke="black" d="M1225.05,-337.005C1225.89,-337.098 1238.21,-338.445 1251.81,-339.932"/>
<polygon fill="black" stroke="black" points="1251.47,-343.416 1261.79,-341.024 1252.23,-336.458 1251.47,-343.416"/>
</g>
<!-- re58 -->
<g id="node29" class="node"><title>re58</title>
<polygon fill="none" stroke="black" points="1296,-308 1282,-308 1282,-294 1296,-294 1296,-308"/>
</g>
<!-- re58_intermediate_p -->
<g id="node33" class="node"><title>re58_intermediate_p</title>
<ellipse fill="black" stroke="black" cx="1352" cy="-284" rx="0.036" ry="0.036"/>
</g>
<!-- re58&#45;&gt;re58_intermediate_p -->
<g id="edge22" class="edge"><title>re58&#45;&gt;re58_intermediate_p</title>
<path fill="none" stroke="black" d="M1296.23,-299.05C1312.26,-294.724 1349.57,-284.656 1351.89,-284.03"/>
</g>
<!-- re58&#45;&gt;re58_intermediate_m -->
<g id="edge26" class="edge"><title>re58&#45;&gt;re58_intermediate_m</title>
<path fill="none" stroke="black" d="M1306.71,-311.121C1309.84,-313.016 1313.04,-315.024 1316,-317 1332.11,-327.767 1350.79,-343.012 1351.94,-343.954"/>
<polygon fill="none" stroke="black" points="1306.6,-311.056 1299.4,-311.484 1296.24,-305.004 1303.43,-304.576 1306.6,-311.056"/>
</g>
<!-- re58_intermediate_r&#45;&gt;re58 -->
<g id="edge18" class="edge"><title>re58_intermediate_r&#45;&gt;re58</title>
<path fill="none" stroke="black" d="M1225.05,-306.996C1226.58,-306.852 1265.51,-303.202 1281.87,-301.669"/>
</g>
<!-- re58_intermediate_p&#45;&gt;s17 -->
<g id="edge24" class="edge"><title>re58_intermediate_p&#45;&gt;s17</title>
<path fill="none" stroke="black" d="M1351.95,-283.987C1349.82,-283.442 1281.12,-266 1225,-266 989,-266 989,-266 989,-266 953.404,-266 915.347,-281.95 890.07,-295.065"/>
<polygon fill="black" stroke="black" points="888.194,-292.1 881.04,-299.914 891.506,-298.267 888.194,-292.1"/>
</g>
<!-- re59 -->
<g id="node41" class="node"><title>re59</title>
<polygon fill="none" stroke="black" points="996,-454 982,-454 982,-440 996,-440 996,-454"/>
</g>
<!-- re59_intermediate_p -->
<g id="node45" class="node"><title>re59_intermediate_p</title>
<ellipse fill="black" stroke="black" cx="1053" cy="-434" rx="0.036" ry="0.036"/>
</g>
<!-- re59&#45;&gt;re59_intermediate_p -->
<g id="edge38" class="edge"><title>re59&#45;&gt;re59_intermediate_p</title>
<path fill="none" stroke="black" d="M996.342,-445.509C1012.63,-442.201 1050.53,-434.501 1052.89,-434.023"/>
</g>
<!-- re59&#45;&gt;re59_intermediate_m -->
<g id="edge42" class="edge"><title>re59&#45;&gt;re59_intermediate_m</title>
<path fill="none" stroke="black" d="M1006.69,-436.847C1009.82,-434.955 1013.03,-432.956 1016,-431 1032.47,-420.148 1051.75,-404.983 1052.94,-404.046"/>
<polygon fill="none" stroke="black" points="1006.58,-436.911 1003.42,-443.394 996.22,-442.971 999.379,-436.489 1006.58,-436.911"/>
</g>
<!-- re59_intermediate_r&#45;&gt;re59 -->
<g id="edge34" class="edge"><title>re59_intermediate_r&#45;&gt;re59</title>
<path fill="none" stroke="black" d="M925.046,-416.022C926.576,-416.763 965.51,-435.622 981.868,-443.545"/>
</g>
<!-- re59_intermediate_p&#45;&gt;s19 -->
<g id="edge40" class="edge"><title>re59_intermediate_p&#45;&gt;s19</title>
<path fill="none" stroke="black" d="M1053.06,-433.968C1054.72,-433.119 1089.17,-415.493 1113.94,-402.82"/>
<polygon fill="black" stroke="black" points="1115.57,-405.921 1122.87,-398.25 1112.38,-399.689 1115.57,-405.921"/>
</g>
<!-- re60 -->
<g id="node53" class="node"><title>re60</title>
<polygon fill="none" stroke="black" points="996,-144 982,-144 982,-130 996,-130 996,-144"/>
</g>
<!-- re60_intermediate_p -->
<g id="node58" class="node"><title>re60_intermediate_p</title>
<ellipse fill="black" stroke="black" cx="1053" cy="-117" rx="0.036" ry="0.036"/>
</g>
<!-- re60&#45;&gt;re60_intermediate_p -->
<g id="edge56" class="edge"><title>re60&#45;&gt;re60_intermediate_p</title>
<path fill="none" stroke="black" d="M996.342,-134.706C1012.63,-129.617 1050.53,-117.771 1052.89,-117.036"/>
</g>
<!-- re60&#45;&gt;re60_intermediate_m -->
<g id="edge60" class="edge"><title>re60&#45;&gt;re60_intermediate_m</title>
<path fill="none" stroke="black" d="M1008.2,-142.099C1026.32,-146.913 1051,-153.469 1052.89,-153.97"/>
<polygon fill="none" stroke="black" points="1007.94,-142.031 1001.11,-144.356 996.342,-138.95 1003.17,-136.625 1007.94,-142.031"/>
</g>
<!-- re60_intermediate_r&#45;&gt;re60 -->
<g id="edge50" class="edge"><title>re60_intermediate_r&#45;&gt;re60</title>
<path fill="none" stroke="black" d="M925.046,-199.954C926.576,-198.449 965.51,-160.123 981.868,-144.021"/>
</g>
<!-- re60_intermediate_p&#45;&gt;s28 -->
<g id="edge58" class="edge"><title>re60_intermediate_p&#45;&gt;s28</title>
<path fill="none" stroke="black" d="M1052.95,-116.962C1050.93,-115.357 985.611,-64 925,-64 161,-64 161,-64 161,-64 119.48,-64 79.3384,-92.917 54.6724,-115.077"/>
<polygon fill="black" stroke="black" points="52.1738,-112.621 47.2256,-121.989 56.936,-117.751 52.1738,-112.621"/>
</g>
<!-- re61 -->
<g id="node66" class="node"><title>re61</title>
<polygon fill="none" stroke="black" points="168,-309 154,-309 154,-295 168,-295 168,-309"/>
</g>
<!-- re61_intermediate_p -->
<g id="node70" class="node"><title>re61_intermediate_p</title>
<ellipse fill="black" stroke="black" cx="225" cy="-302" rx="0.036" ry="0.036"/>
</g>
<!-- re61&#45;&gt;re61_intermediate_p -->
<g id="edge72" class="edge"><title>re61&#45;&gt;re61_intermediate_p</title>
<path fill="none" stroke="black" d="M168.342,-302C184.627,-302 222.532,-302 224.885,-302"/>
</g>
<!-- re61&#45;&gt;re61_intermediate_m -->
<g id="edge76" class="edge"><title>re61&#45;&gt;re61_intermediate_m</title>
<path fill="none" stroke="black" d="M172.245,-319.219C190.279,-346.834 223.779,-398.131 224.968,-399.95"/>
<polygon fill="none" stroke="black" points="172.164,-319.095 165.534,-316.259 165.603,-309.048 172.233,-311.884 172.164,-319.095"/>
</g>
<!-- re61_intermediate_r&#45;&gt;re61 -->
<g id="edge68" class="edge"><title>re61_intermediate_r&#45;&gt;re61</title>
<path fill="none" stroke="black" d="M97.0464,-235.049C98.5832,-236.657 137.897,-277.814 154.109,-294.786"/>
</g>
<!-- re61_intermediate_p&#45;&gt;s26 -->
<g id="edge74" class="edge"><title>re61_intermediate_p&#45;&gt;s26</title>
<path fill="none" stroke="black" d="M225.053,-302C225.951,-302 238.158,-302 252.338,-302"/>
<polygon fill="black" stroke="black" points="252.355,-305.5 262.355,-302 252.355,-298.5 252.355,-305.5"/>
</g>
<!-- re62 -->
<g id="node78" class="node"><title>re62</title>
<polygon fill="none" stroke="black" points="451,-344 437,-344 437,-330 451,-330 451,-344"/>
</g>
<!-- re62_intermediate_p -->
<g id="node82" class="node"><title>re62_intermediate_p</title>
<ellipse fill="black" stroke="black" cx="517" cy="-337" rx="0.036" ry="0.036"/>
</g>
<!-- re62&#45;&gt;re62_intermediate_p -->
<g id="edge88" class="edge"><title>re62&#45;&gt;re62_intermediate_p</title>
<path fill="none" stroke="black" d="M451.266,-337C469.154,-337 514.074,-337 516.864,-337"/>
</g>
<!-- re62&#45;&gt;re62_intermediate_m -->
<g id="edge92" class="edge"><title>re62&#45;&gt;re62_intermediate_m</title>
<path fill="none" stroke="black" d="M462.128,-327.634C468.036,-324.27 474.488,-320.249 480,-316 497.843,-302.245 515.839,-280.417 516.946,-279.066"/>
<polygon fill="none" stroke="black" points="461.814,-327.803 458.42,-334.165 451.242,-333.48 454.635,-327.117 461.814,-327.803"/>
</g>
<!-- re62_intermediate_r&#45;&gt;re62 -->
<g id="edge84" class="edge"><title>re62_intermediate_r&#45;&gt;re62</title>
<path fill="none" stroke="black" d="M371.053,-334.002C372.832,-334.075 418.983,-335.972 436.942,-336.71"/>
</g>
<!-- re62_intermediate_p&#45;&gt;s27 -->
<g id="edge90" class="edge"><title>re62_intermediate_p&#45;&gt;s27</title>
<path fill="none" stroke="black" d="M517.055,-337C517.961,-337 529.916,-337 544.084,-337"/>
<polygon fill="black" stroke="black" points="544.137,-340.5 554.137,-337 544.137,-333.5 544.137,-340.5"/>
</g>
<!-- re63 -->
<g id="node90" class="node"><title>re63</title>
<polygon fill="none" stroke="black" points="451,-182 437,-182 437,-168 451,-168 451,-182"/>
</g>
<!-- re63_intermediate_p -->
<g id="node94" class="node"><title>re63_intermediate_p</title>
<ellipse fill="black" stroke="black" cx="517" cy="-140" rx="0.036" ry="0.036"/>
</g>
<!-- re63&#45;&gt;re63_intermediate_p -->
<g id="edge104" class="edge"><title>re63&#45;&gt;re63_intermediate_p</title>
<path fill="none" stroke="black" d="M451.266,-171.516C469.154,-162.94 514.074,-141.403 516.864,-140.065"/>
</g>
<!-- re63&#45;&gt;re63_intermediate_m -->
<g id="edge108" class="edge"><title>re63&#45;&gt;re63_intermediate_m</title>
<path fill="none" stroke="black" d="M463.433,-173.932C491.869,-172.463 546.494,-170 593,-170 593,-170 593,-170 669,-170 710.827,-170 721.59,-177.442 760,-194 777.225,-201.426 795.8,-216.049 796.944,-216.956"/>
<polygon fill="none" stroke="black" points="463.114,-173.949 457.336,-178.264 451.131,-174.591 456.908,-170.276 463.114,-173.949"/>
</g>
<!-- re63_intermediate_r&#45;&gt;re63 -->
<g id="edge100" class="edge"><title>re63_intermediate_r&#45;&gt;re63</title>
<path fill="none" stroke="black" d="M371.053,-177.998C372.832,-177.925 418.983,-176.028 436.942,-175.29"/>
</g>
<!-- re63_intermediate_p&#45;&gt;s28 -->
<g id="edge106" class="edge"><title>re63_intermediate_p&#45;&gt;s28</title>
<path fill="none" stroke="black" d="M516.941,-140C514.469,-140 434.875,-140 371,-140 161,-140 161,-140 161,-140 130.617,-140 96.2695,-140 70.3698,-140"/>
<polygon fill="black" stroke="black" points="70.1781,-136.5 60.1781,-140 70.178,-143.5 70.1781,-136.5"/>
</g>
<!-- re64 -->
<g id="node102" class="node"><title>re64</title>
<polygon fill="none" stroke="black" points="740,-412 726,-412 726,-398 740,-398 740,-412"/>
</g>
<!-- re64_intermediate_p -->
<g id="node106" class="node"><title>re64_intermediate_p</title>
<ellipse fill="black" stroke="black" cx="797" cy="-422" rx="0.036" ry="0.036"/>
</g>
<!-- re64&#45;&gt;re64_intermediate_p -->
<g id="edge120" class="edge"><title>re64&#45;&gt;re64_intermediate_p</title>
<path fill="none" stroke="black" d="M740.342,-406.95C756.627,-411.276 794.532,-421.344 796.885,-421.97"/>
</g>
<!-- re64&#45;&gt;re64_intermediate_m -->
<g id="edge124" class="edge"><title>re64&#45;&gt;re64_intermediate_m</title>
<path fill="none" stroke="black" d="M750.148,-392.18C753.477,-389.548 756.895,-386.741 760,-384 776.89,-369.09 795.779,-348.344 796.943,-347.062"/>
<polygon fill="none" stroke="black" points="749.834,-392.42 747.497,-399.242 740.301,-399.708 742.638,-392.886 749.834,-392.42"/>
</g>
<!-- re64_intermediate_r&#45;&gt;re64 -->
<g id="edge116" class="edge"><title>re64_intermediate_r&#45;&gt;re64</title>
<path fill="none" stroke="black" d="M669.046,-402.002C670.576,-402.074 709.51,-403.899 725.868,-404.666"/>
</g>
<!-- re64_intermediate_p&#45;&gt;s26 -->
<g id="edge122" class="edge"><title>re64_intermediate_p&#45;&gt;s26</title>
<path fill="none" stroke="black" d="M796.949,-422.013C794.798,-422.558 725.551,-440 669,-440 444,-440 444,-440 444,-440 380.067,-440 332.835,-369.247 311.167,-329.064"/>
<polygon fill="black" stroke="black" points="314.185,-327.284 306.452,-320.041 307.981,-330.525 314.185,-327.284"/>
</g>
<!-- re65 -->
<g id="node114" class="node"><title>re65</title>
<polygon fill="none" stroke="black" points="740,-250 726,-250 726,-236 740,-236 740,-250"/>
</g>
<!-- re65_intermediate_p -->
<g id="node118" class="node"><title>re65_intermediate_p</title>
<ellipse fill="black" stroke="black" cx="797" cy="-243" rx="0.036" ry="0.036"/>
</g>
<!-- re65&#45;&gt;re65_intermediate_p -->
<g id="edge136" class="edge"><title>re65&#45;&gt;re65_intermediate_p</title>
<path fill="none" stroke="black" d="M740.342,-243C756.627,-243 794.532,-243 796.885,-243"/>
</g>
<!-- re65&#45;&gt;re65_intermediate_m -->
<g id="edge142" class="edge"><title>re65&#45;&gt;re65_intermediate_m</title>
<path fill="none" stroke="black" d="M750.148,-255.82C753.477,-258.452 756.895,-261.259 760,-264 776.89,-278.91 795.779,-299.656 796.943,-300.938"/>
<polygon fill="none" stroke="black" points="749.834,-255.58 742.638,-255.114 740.301,-248.292 747.497,-248.758 749.834,-255.58"/>
</g>
<!-- re65_intermediate_r&#45;&gt;re65 -->
<g id="edge132" class="edge"><title>re65_intermediate_r&#45;&gt;re65</title>
<path fill="none" stroke="black" d="M669.046,-245.998C670.576,-245.926 709.51,-244.101 725.868,-243.334"/>
</g>
<!-- re65_intermediate_p&#45;&gt;s16 -->
<g id="edge140" class="edge"><title>re65_intermediate_p&#45;&gt;s16</title>
<path fill="none" stroke="black" d="M797.046,-242.969C797.932,-242.374 811.374,-233.343 825.706,-223.713"/>
<polygon fill="black" stroke="black" points="827.811,-226.516 834.16,-218.033 823.907,-220.705 827.811,-226.516"/>
</g>
<!-- re65_intermediate_p&#45;&gt;s17 -->
<g id="edge138" class="edge"><title>re65_intermediate_p&#45;&gt;s17</title>
<path fill="none" stroke="black" d="M797.046,-243.05C798.223,-244.318 821.53,-269.446 839.67,-289.004"/>
<polygon fill="black" stroke="black" points="837.191,-291.477 846.557,-296.429 842.323,-286.717 837.191,-291.477"/>
</g>
<!-- re66 -->
<g id="node127" class="node"><title>re66</title>
<polygon fill="none" stroke="black" points="600,-500 586,-500 586,-486 600,-486 600,-500"/>
</g>
<!-- re66_intermediate_p -->
<g id="node131" class="node"><title>re66_intermediate_p</title>
<ellipse fill="black" stroke="black" cx="669" cy="-506" rx="0.036" ry="0.036"/>
</g>
<!-- re66&#45;&gt;re66_intermediate_p -->
<g id="edge154" class="edge"><title>re66&#45;&gt;re66_intermediate_p</title>
<path fill="none" stroke="black" d="M600.014,-494.2C618.24,-497.317 665.895,-505.469 668.856,-505.975"/>
</g>
<!-- re66&#45;&gt;re66_intermediate_m -->
<g id="edge158" class="edge"><title>re66&#45;&gt;re66_intermediate_m</title>
<path fill="none" stroke="black" d="M612.334,-489.608C639.279,-485.184 689.694,-478 733,-478 733,-478 733,-478 797,-478 853.821,-478 922.807,-456.682 924.949,-456.016"/>
<polygon fill="none" stroke="black" points="612.087,-489.65 606.845,-494.603 600.258,-491.669 605.5,-486.717 612.087,-489.65"/>
</g>
<!-- re66_intermediate_r&#45;&gt;re66 -->
<g id="edge150" class="edge"><title>re66_intermediate_r&#45;&gt;re66</title>
<path fill="none" stroke="black" d="M517.055,-493C518.916,-493 567.422,-493 585.923,-493"/>
</g>
<!-- re66_intermediate_p&#45;&gt;s14 -->
<g id="edge156" class="edge"><title>re66_intermediate_p&#45;&gt;s14</title>
<path fill="none" stroke="black" d="M668.943,-506.048C666.553,-508.046 589.498,-572 517,-572 298,-572 298,-572 298,-572 249.694,-572 205.96,-531.773 181.49,-503.95"/>
<polygon fill="black" stroke="black" points="183.97,-501.465 174.82,-496.124 178.642,-506.005 183.97,-501.465"/>
</g>
<!-- re67 -->
<g id="node139" class="node"><title>re67</title>
<polygon fill="none" stroke="black" points="305,-485 291,-485 291,-471 305,-471 305,-485"/>
</g>
<!-- re67_intermediate_p -->
<g id="node143" class="node"><title>re67_intermediate_p</title>
<ellipse fill="black" stroke="black" cx="371" cy="-483" rx="0.036" ry="0.036"/>
</g>
<!-- re67&#45;&gt;re67_intermediate_p -->
<g id="edge170" class="edge"><title>re67&#45;&gt;re67_intermediate_p</title>
<path fill="none" stroke="black" d="M305.266,-478.498C323.154,-479.723 368.074,-482.8 370.864,-482.991"/>
</g>
<!-- re67&#45;&gt;re67_intermediate_m -->
<g id="edge174" class="edge"><title>re67&#45;&gt;re67_intermediate_m</title>
<path fill="none" stroke="black" d="M316.534,-484.855C337.351,-492.554 368.553,-504.095 370.864,-504.95"/>
<polygon fill="none" stroke="black" points="316.521,-484.85 309.506,-486.521 305.266,-480.688 312.281,-479.017 316.521,-484.85"/>
</g>
<!-- re67_intermediate_r&#45;&gt;re67 -->
<g id="edge166" class="edge"><title>re67_intermediate_r&#45;&gt;re67</title>
<path fill="none" stroke="black" d="M225.053,-478C226.832,-478 272.983,-478 290.942,-478"/>
</g>
<!-- re67_intermediate_p&#45;&gt;s25 -->
<g id="edge172" class="edge"><title>re67_intermediate_p&#45;&gt;s25</title>
<path fill="none" stroke="black" d="M371.053,-483.007C371.944,-483.129 383.968,-484.776 398.006,-486.699"/>
<polygon fill="black" stroke="black" points="397.552,-490.17 407.934,-488.06 398.502,-483.235 397.552,-490.17"/>
</g>
<!-- re68 -->
<g id="node149" class="node"><title>re68</title>
<polygon fill="none" stroke="black" points="996,-33 982,-33 982,-19 996,-19 996,-33"/>
</g>
<!-- re68_intermediate_p -->
<g id="node153" class="node"><title>re68_intermediate_p</title>
<ellipse fill="black" stroke="black" cx="1053" cy="-62" rx="0.036" ry="0.036"/>
</g>
<!-- re68&#45;&gt;re68_intermediate_p -->
<g id="edge182" class="edge"><title>re68&#45;&gt;re68_intermediate_p</title>
<path fill="none" stroke="black" d="M996.342,-30.1297C1012.63,-39.2902 1050.53,-60.6118 1052.89,-61.9354"/>
</g>
<!-- re68_intermediate_r&#45;&gt;re68 -->
<g id="edge178" class="edge"><title>re68_intermediate_r&#45;&gt;re68</title>
<path fill="none" stroke="black" d="M925.046,-21.0036C926.576,-21.1231 965.51,-24.1649 981.868,-25.4428"/>
</g>
<!-- re68_intermediate_p&#45;&gt;s23 -->
<g id="edge184" class="edge"><title>re68_intermediate_p&#45;&gt;s23</title>
<path fill="none" stroke="black" d="M1053.05,-62.0802C1054.08,-63.7251 1070.87,-90.2898 1090,-106 1095.35,-110.39 1101.51,-114.428 1107.62,-117.969"/>
<polygon fill="black" stroke="black" points="1105.99,-121.063 1116.44,-122.784 1109.34,-114.92 1105.99,-121.063"/>
</g>
</g>
</svg>
