<?xml version="1.0" encoding="UTF-8" standalone="no"?>
<!DOCTYPE svg PUBLIC "-//W3C//DTD SVG 1.1//EN"
 "http://www.w3.org/Graphics/SVG/1.1/DTD/svg11.dtd">
<!-- Generated by graphviz version 2.30.1 (20140821.0912)
 -->
<!-- Title: G Pages: 1 -->
<svg width="650pt" height="761pt"
 viewBox="0.00 0.00 650.00 761.00" xmlns="http://www.w3.org/2000/svg" xmlns:xlink="http://www.w3.org/1999/xlink">
<g id="graph0" class="graph" transform="scale(1 1) rotate(0) translate(4 757)">
<title>G</title>
<polygon fill="white" stroke="white" points="-4,5 -4,-757 647,-757 647,5 -4,5"/>
<!-- U -->
<g id="U" class="node"><title>U</title>
<ellipse fill="none" stroke="black" cx="257" cy="-395" rx="27" ry="18"/>
<text text-anchor="middle" x="257" y="-392.5" font-family="Times,serif" font-size="10.00">U</text>
</g>
<!-- A6_syn_intermediate_m -->
<g id="node29" class="node"><title>A6_syn_intermediate_m</title>
<ellipse fill="black" stroke="black" cx="475" cy="-653" rx="0.036" ry="0.036"/>
</g>
<!-- U&#45;&gt;A6_syn_intermediate_m -->
<g id="edge24" class="edge"><title>U&#45;&gt;A6_syn_intermediate_m</title>
<path fill="none" stroke="black" d="M273.86,-409.147C277.56,-413.034 281.225,-417.442 284,-422 335.468,-506.521 282.299,-568.265 358,-632 397.454,-665.217 471.636,-653.387 473.945,-653.009"/>
</g>
<!-- U_degr_intermediate_r -->
<g id="node31" class="node"><title>U_degr_intermediate_r</title>
<ellipse fill="black" stroke="black" cx="321" cy="-395" rx="0.036" ry="0.036"/>
</g>
<!-- U&#45;&gt;U_degr_intermediate_r -->
<g id="edge27" class="edge"><title>U&#45;&gt;U_degr_intermediate_r</title>
<path fill="none" stroke="black" d="M284.294,-395C300.664,-395 318.826,-395 319.946,-395"/>
</g>
<!-- A4_syn_intermediate_m -->
<g id="node37" class="node"><title>A4_syn_intermediate_m</title>
<ellipse fill="black" stroke="black" cx="321" cy="-377" rx="0.036" ry="0.036"/>
</g>
<!-- U&#45;&gt;A4_syn_intermediate_m -->
<g id="edge35" class="edge"><title>U&#45;&gt;A4_syn_intermediate_m</title>
<path fill="none" stroke="black" d="M282.148,-387.989C299.013,-383.093 318.725,-377.37 319.941,-377.017"/>
</g>
<!-- U_syn_intermediate_m -->
<g id="node78" class="node"><title>U_syn_intermediate_m</title>
<ellipse fill="black" stroke="black" cx="321" cy="-349" rx="0.036" ry="0.036"/>
</g>
<!-- U&#45;&gt;U_syn_intermediate_m -->
<g id="edge91" class="edge"><title>U&#45;&gt;U_syn_intermediate_m</title>
<path fill="none" stroke="black" d="M275.601,-381.941C293.358,-368.767 318.378,-350.203 319.925,-349.056"/>
</g>
<!-- A6 -->
<g id="A6" class="node"><title>A6</title>
<path fill="none" stroke="black" d="M400,-623C400,-623 370,-623 370,-623 364,-623 358,-617 358,-611 358,-611 358,-599 358,-599 358,-593 364,-587 370,-587 370,-587 400,-587 400,-587 406,-587 412,-593 412,-599 412,-599 412,-611 412,-611 412,-617 406,-623 400,-623"/>
<text text-anchor="middle" x="385" y="-602.5" font-family="Times,serif" font-size="10.00">A6</text>
</g>
<!-- b_syn_intermediate_m -->
<g id="node18" class="node"><title>b_syn_intermediate_m</title>
<ellipse fill="black" stroke="black" cx="475" cy="-483" rx="0.036" ry="0.036"/>
</g>
<!-- A6&#45;&gt;b_syn_intermediate_m -->
<g id="edge9" class="edge"><title>A6&#45;&gt;b_syn_intermediate_m</title>
<path fill="none" stroke="black" d="M405.073,-586.838C407.566,-584.009 409.958,-581.019 412,-578 433.844,-545.704 421.849,-526.919 448,-498 456.668,-488.414 472.942,-483.324 473.951,-483.015"/>
</g>
<!-- b_degr_intermediate_m -->
<g id="node22" class="node"><title>b_degr_intermediate_m</title>
<ellipse fill="black" stroke="black" cx="475" cy="-525" rx="0.036" ry="0.036"/>
</g>
<!-- A6&#45;&gt;b_degr_intermediate_m -->
<g id="edge16" class="edge"><title>A6&#45;&gt;b_degr_intermediate_m</title>
<path fill="none" stroke="black" d="M403.826,-586.888C406.602,-583.954 409.407,-580.92 412,-578 428.777,-559.107 427.278,-548.457 448,-534 457.715,-527.222 473.008,-525.13 473.954,-525.006"/>
</g>
<!-- A6_degr_intermediate_r -->
<g id="node24" class="node"><title>A6_degr_intermediate_r</title>
<ellipse fill="black" stroke="black" cx="475" cy="-635" rx="0.036" ry="0.036"/>
</g>
<!-- A6&#45;&gt;A6_degr_intermediate_r -->
<g id="edge18" class="edge"><title>A6&#45;&gt;A6_degr_intermediate_r</title>
<path fill="none" stroke="black" d="M412.403,-614.001C437.514,-622.562 471.78,-634.243 473.897,-634.965"/>
</g>
<!-- A6&#45;&gt;A6_syn_intermediate_m -->
<g id="edge25" class="edge"><title>A6&#45;&gt;A6_syn_intermediate_m</title>
<path fill="none" stroke="black" d="M411.791,-623.076C422.649,-630.189 435.618,-638.059 448,-644 458.336,-648.959 472.144,-652.53 473.829,-652.957"/>
</g>
<!-- c_syn_intermediate_m -->
<g id="node44" class="node"><title>c_syn_intermediate_m</title>
<ellipse fill="black" stroke="black" cx="475" cy="-330" rx="0.036" ry="0.036"/>
</g>
<!-- A6&#45;&gt;c_syn_intermediate_m -->
<g id="edge44" class="edge"><title>A6&#45;&gt;c_syn_intermediate_m</title>
<path fill="none" stroke="black" d="M406.08,-586.967C408.361,-584.161 410.427,-581.143 412,-578 456.537,-489.005 403.463,-445.995 448,-357 455.223,-342.568 472.852,-330.759 473.947,-330.035"/>
</g>
<!-- x_degr_intermediate_m -->
<g id="node89" class="node"><title>x_degr_intermediate_m</title>
<ellipse fill="black" stroke="black" cx="615" cy="-590" rx="0.036" ry="0.036"/>
</g>
<!-- A6&#45;&gt;x_degr_intermediate_m -->
<g id="edge104" class="edge"><title>A6&#45;&gt;x_degr_intermediate_m</title>
<path fill="none" stroke="black" d="M412.154,-603.279C471.107,-599.401 609.584,-590.291 613.897,-590.007"/>
</g>
<!-- b -->
<g id="b" class="node"><title>b</title>
<ellipse fill="none" stroke="black" cx="257" cy="-607" rx="27" ry="18"/>
<text text-anchor="middle" x="257" y="-604.5" font-family="Times,serif" font-size="10.00">b</text>
</g>
<!-- b_degr_intermediate_r -->
<g id="node20" class="node"><title>b_degr_intermediate_r</title>
<ellipse fill="black" stroke="black" cx="321" cy="-625" rx="0.036" ry="0.036"/>
</g>
<!-- b&#45;&gt;b_degr_intermediate_r -->
<g id="edge12" class="edge"><title>b&#45;&gt;b_degr_intermediate_r</title>
<path fill="none" stroke="black" d="M282.148,-614.011C299.013,-618.907 318.725,-624.63 319.941,-624.983"/>
</g>
<!-- Btot_syn_intermediate_m -->
<g id="node82" class="node"><title>Btot_syn_intermediate_m</title>
<ellipse fill="black" stroke="black" cx="321" cy="-643" rx="0.036" ry="0.036"/>
</g>
<!-- b&#45;&gt;Btot_syn_intermediate_m -->
<g id="edge96" class="edge"><title>b&#45;&gt;Btot_syn_intermediate_m</title>
<path fill="none" stroke="black" d="M277.958,-618.589C295.517,-628.784 318.511,-642.135 319.931,-642.96"/>
</g>
<!-- Btot -->
<g id="Btot" class="node"><title>Btot</title>
<ellipse fill="none" stroke="black" cx="385" cy="-735" rx="27" ry="18"/>
<text text-anchor="middle" x="385" y="-732.5" font-family="Times,serif" font-size="10.00">Btot</text>
</g>
<!-- Btot_degr_intermediate_r -->
<g id="node13" class="node"><title>Btot_degr_intermediate_r</title>
<ellipse fill="black" stroke="black" cx="475" cy="-735" rx="0.036" ry="0.036"/>
</g>
<!-- Btot&#45;&gt;Btot_degr_intermediate_r -->
<g id="edge2" class="edge"><title>Btot&#45;&gt;Btot_degr_intermediate_r</title>
<path fill="none" stroke="black" d="M412.403,-735C437.514,-735 471.78,-735 473.897,-735"/>
</g>
<!-- A4 -->
<g id="A4" class="node"><title>A4</title>
<path fill="none" stroke="black" d="M400,-445C400,-445 370,-445 370,-445 364,-445 358,-439 358,-433 358,-433 358,-421 358,-421 358,-415 364,-409 370,-409 370,-409 400,-409 400,-409 406,-409 412,-415 412,-421 412,-421 412,-433 412,-433 412,-439 406,-445 400,-445"/>
<text text-anchor="middle" x="385" y="-424.5" font-family="Times,serif" font-size="10.00">A4</text>
</g>
<!-- A4&#45;&gt;b_syn_intermediate_m -->
<g id="edge8" class="edge"><title>A4&#45;&gt;b_syn_intermediate_m</title>
<path fill="none" stroke="black" d="M412.167,-444.057C423.194,-451.199 436.187,-459.556 448,-467 458.762,-473.782 472.197,-481.91 473.834,-482.9"/>
</g>
<!-- A4&#45;&gt;b_degr_intermediate_m -->
<g id="edge15" class="edge"><title>A4&#45;&gt;b_degr_intermediate_m</title>
<path fill="none" stroke="black" d="M394.358,-445.272C404.404,-465.315 423.073,-497.137 448,-516 457.446,-523.148 472.991,-524.893 473.953,-524.995"/>
</g>
<!-- A4_degr_intermediate_r -->
<g id="node39" class="node"><title>A4_degr_intermediate_r</title>
<ellipse fill="black" stroke="black" cx="475" cy="-427" rx="0.036" ry="0.036"/>
</g>
<!-- A4&#45;&gt;A4_degr_intermediate_r -->
<g id="edge38" class="edge"><title>A4&#45;&gt;A4_degr_intermediate_r</title>
<path fill="none" stroke="black" d="M412.403,-427C437.514,-427 471.78,-427 473.897,-427"/>
</g>
<!-- A4&#45;&gt;c_syn_intermediate_m -->
<g id="edge45" class="edge"><title>A4&#45;&gt;c_syn_intermediate_m</title>
<path fill="none" stroke="black" d="M403.797,-408.863C406.577,-405.931 409.391,-402.905 412,-400 428.654,-381.456 431.346,-375.544 448,-357 458.436,-345.38 472.156,-331.817 473.83,-330.167"/>
</g>
<!-- g_syn_intermediate_m -->
<g id="node59" class="node"><title>g_syn_intermediate_m</title>
<ellipse fill="black" stroke="black" cx="475" cy="-206" rx="0.036" ry="0.036"/>
</g>
<!-- A4&#45;&gt;g_syn_intermediate_m -->
<g id="edge65" class="edge"><title>A4&#45;&gt;g_syn_intermediate_m</title>
<path fill="none" stroke="black" d="M405.984,-408.918C408.28,-406.119 410.376,-403.116 412,-400 450.306,-326.49 395.724,-281.329 448,-217 455.666,-207.567 472.879,-206.087 473.948,-206.004"/>
</g>
<!-- c -->
<g id="c" class="node"><title>c</title>
<path fill="none" stroke="black" d="M272,-283C272,-283 242,-283 242,-283 236,-283 230,-277 230,-271 230,-271 230,-259 230,-259 230,-253 236,-247 242,-247 242,-247 272,-247 272,-247 278,-247 284,-253 284,-259 284,-259 284,-271 284,-271 284,-277 278,-283 272,-283"/>
<text text-anchor="middle" x="257" y="-262.5" font-family="Times,serif" font-size="10.00">c</text>
</g>
<!-- c_degr_intermediate_r -->
<g id="node46" class="node"><title>c_degr_intermediate_r</title>
<ellipse fill="black" stroke="black" cx="321" cy="-264" rx="0.036" ry="0.036"/>
</g>
<!-- c&#45;&gt;c_degr_intermediate_r -->
<g id="edge48" class="edge"><title>c&#45;&gt;c_degr_intermediate_r</title>
<path fill="none" stroke="black" d="M284.294,-264.576C300.664,-264.312 318.826,-264.019 319.946,-264.001"/>
</g>
<!-- C_syn_intermediate_m -->
<g id="node52" class="node"><title>C_syn_intermediate_m</title>
<ellipse fill="black" stroke="black" cx="321" cy="-193" rx="0.036" ry="0.036"/>
</g>
<!-- c&#45;&gt;C_syn_intermediate_m -->
<g id="edge57" class="edge"><title>c&#45;&gt;C_syn_intermediate_m</title>
<path fill="none" stroke="black" d="M275.854,-246.913C278.627,-243.976 281.424,-240.934 284,-238 300.373,-219.357 318.808,-194.603 319.945,-193.074"/>
</g>
<!-- C -->
<g id="C" class="node"><title>C</title>
<path fill="none" stroke="black" d="M400,-209C400,-209 370,-209 370,-209 364,-209 358,-203 358,-197 358,-197 358,-185 358,-185 358,-179 364,-173 370,-173 370,-173 400,-173 400,-173 406,-173 412,-179 412,-185 412,-185 412,-197 412,-197 412,-203 406,-209 400,-209"/>
<text text-anchor="middle" x="385" y="-188.5" font-family="Times,serif" font-size="10.00">C</text>
</g>
<!-- C&#45;&gt;c_syn_intermediate_m -->
<g id="edge46" class="edge"><title>C&#45;&gt;c_syn_intermediate_m</title>
<path fill="none" stroke="black" d="M397.335,-209.305C409.697,-229.218 430.11,-261.962 448,-290 459.049,-307.316 473.091,-328.621 473.958,-329.936"/>
</g>
<!-- c_degr_intermediate_m -->
<g id="node48" class="node"><title>c_degr_intermediate_m</title>
<ellipse fill="black" stroke="black" cx="475" cy="-226" rx="0.036" ry="0.036"/>
</g>
<!-- C&#45;&gt;c_degr_intermediate_m -->
<g id="edge51" class="edge"><title>C&#45;&gt;c_degr_intermediate_m</title>
<path fill="none" stroke="black" d="M412.403,-201.501C437.514,-211.488 471.78,-225.117 473.897,-225.959"/>
</g>
<!-- C_degr_intermediate_r -->
<g id="node54" class="node"><title>C_degr_intermediate_r</title>
<ellipse fill="black" stroke="black" cx="475" cy="-188" rx="0.036" ry="0.036"/>
</g>
<!-- C&#45;&gt;C_degr_intermediate_r -->
<g id="edge59" class="edge"><title>C&#45;&gt;C_degr_intermediate_r</title>
<path fill="none" stroke="black" d="M412.403,-190.1C437.514,-189.244 471.78,-188.076 473.897,-188.004"/>
</g>
<!-- C&#45;&gt;g_syn_intermediate_m -->
<g id="edge66" class="edge"><title>C&#45;&gt;g_syn_intermediate_m</title>
<path fill="none" stroke="black" d="M412.403,-195.5C437.514,-199.781 471.78,-205.622 473.897,-205.982"/>
</g>
<!-- g_degr_intermediate_m -->
<g id="node63" class="node"><title>g_degr_intermediate_m</title>
<ellipse fill="black" stroke="black" cx="475" cy="-167" rx="0.036" ry="0.036"/>
</g>
<!-- C&#45;&gt;g_degr_intermediate_m -->
<g id="edge71" class="edge"><title>C&#45;&gt;g_degr_intermediate_m</title>
<path fill="none" stroke="black" d="M412.403,-183.799C437.514,-176.951 471.78,-167.606 473.897,-167.028"/>
</g>
<!-- g -->
<g id="g" class="node"><title>g</title>
<path fill="none" stroke="black" d="M272,-105C272,-105 242,-105 242,-105 236,-105 230,-99 230,-93 230,-93 230,-81 230,-81 230,-75 236,-69 242,-69 242,-69 272,-69 272,-69 278,-69 284,-75 284,-81 284,-81 284,-93 284,-93 284,-99 278,-105 272,-105"/>
<text text-anchor="middle" x="257" y="-84.5" font-family="Times,serif" font-size="10.00">g</text>
</g>
<!-- g_degr_intermediate_r -->
<g id="node61" class="node"><title>g_degr_intermediate_r</title>
<ellipse fill="black" stroke="black" cx="321" cy="-104" rx="0.036" ry="0.036"/>
</g>
<!-- g&#45;&gt;g_degr_intermediate_r -->
<g id="edge68" class="edge"><title>g&#45;&gt;g_degr_intermediate_r</title>
<path fill="none" stroke="black" d="M284.294,-94.2095C300.664,-98.6981 318.826,-103.678 319.946,-103.985"/>
</g>
<!-- G_syn_intermediate_m -->
<g id="node67" class="node"><title>G_syn_intermediate_m</title>
<ellipse fill="black" stroke="black" cx="321" cy="-86" rx="0.036" ry="0.036"/>
</g>
<!-- g&#45;&gt;G_syn_intermediate_m -->
<g id="edge77" class="edge"><title>g&#45;&gt;G_syn_intermediate_m</title>
<path fill="none" stroke="black" d="M284.294,-86.5759C300.664,-86.3119 318.826,-86.0189 319.946,-86.0009"/>
</g>
<!-- G -->
<g id="G" class="node"><title>G</title>
<path fill="none" stroke="black" d="M400,-47C400,-47 370,-47 370,-47 364,-47 358,-41 358,-35 358,-35 358,-23 358,-23 358,-17 364,-11 370,-11 370,-11 400,-11 400,-11 406,-11 412,-17 412,-23 412,-23 412,-35 412,-35 412,-41 406,-47 400,-47"/>
<text text-anchor="middle" x="385" y="-26.5" font-family="Times,serif" font-size="10.00">G</text>
</g>
<!-- G_degr_intermediate_r -->
<g id="node69" class="node"><title>G_degr_intermediate_r</title>
<ellipse fill="black" stroke="black" cx="475" cy="-18" rx="0.036" ry="0.036"/>
</g>
<!-- G&#45;&gt;G_degr_intermediate_r -->
<g id="edge79" class="edge"><title>G&#45;&gt;G_degr_intermediate_r</title>
<path fill="none" stroke="black" d="M412.403,-25.6996C437.514,-22.5608 471.78,-18.2775 473.897,-18.0129"/>
</g>
<!-- Ep_degr_intermediate_m -->
<g id="node74" class="node"><title>Ep_degr_intermediate_m</title>
<ellipse fill="black" stroke="black" cx="475" cy="-36" rx="0.036" ry="0.036"/>
</g>
<!-- G&#45;&gt;Ep_degr_intermediate_m -->
<g id="edge85" class="edge"><title>G&#45;&gt;Ep_degr_intermediate_m</title>
<path fill="none" stroke="black" d="M412.403,-31.1002C437.514,-33.0977 471.78,-35.8234 473.897,-35.9918"/>
</g>
<!-- Ep -->
<g id="Ep" class="node"><title>Ep</title>
<path fill="none" stroke="black" d="M272,-229C272,-229 242,-229 242,-229 236,-229 230,-223 230,-217 230,-217 230,-205 230,-205 230,-199 236,-193 242,-193 242,-193 272,-193 272,-193 278,-193 284,-199 284,-205 284,-205 284,-217 284,-217 284,-223 278,-229 272,-229"/>
<text text-anchor="middle" x="257" y="-208.5" font-family="Times,serif" font-size="10.00">Ep</text>
</g>
<!-- Ep&#45;&gt;A4_syn_intermediate_m -->
<g id="edge36" class="edge"><title>Ep&#45;&gt;A4_syn_intermediate_m</title>
<path fill="none" stroke="black" d="M277.813,-229.174C280.136,-231.959 282.285,-234.933 284,-238 314.666,-292.826 319.842,-374.403 319.996,-376.939"/>
</g>
<!-- Ep&#45;&gt;C_syn_intermediate_m -->
<g id="edge56" class="edge"><title>Ep&#45;&gt;C_syn_intermediate_m</title>
<path fill="none" stroke="black" d="M284.294,-203.366C300.664,-198.614 318.826,-193.341 319.946,-193.016"/>
</g>
<!-- Ep&#45;&gt;G_syn_intermediate_m -->
<g id="edge76" class="edge"><title>Ep&#45;&gt;G_syn_intermediate_m</title>
<path fill="none" stroke="black" d="M277.271,-192.967C279.735,-190.118 282.066,-187.089 284,-184 307.85,-145.898 319.276,-89.6479 319.967,-86.1695"/>
</g>
<!-- Ep_degr_intermediate_r -->
<g id="node72" class="node"><title>Ep_degr_intermediate_r</title>
<ellipse fill="black" stroke="black" cx="321" cy="-211" rx="0.036" ry="0.036"/>
</g>
<!-- Ep&#45;&gt;Ep_degr_intermediate_r -->
<g id="edge82" class="edge"><title>Ep&#45;&gt;Ep_degr_intermediate_r</title>
<path fill="none" stroke="black" d="M284.294,-211C300.664,-211 318.826,-211 319.946,-211"/>
</g>
<!-- Ep&#45;&gt;U_syn_intermediate_m -->
<g id="edge90" class="edge"><title>Ep&#45;&gt;U_syn_intermediate_m</title>
<path fill="none" stroke="black" d="M277.642,-229.273C279.992,-232.042 282.193,-234.986 284,-238 310.251,-281.786 319.704,-346.927 319.993,-348.952"/>
</g>
<!-- x -->
<g id="x" class="node"><title>x</title>
<path fill="none" stroke="black" d="M400,-537C400,-537 370,-537 370,-537 364,-537 358,-531 358,-525 358,-525 358,-513 358,-513 358,-507 364,-501 370,-501 370,-501 400,-501 400,-501 406,-501 412,-507 412,-513 412,-513 412,-525 412,-525 412,-531 406,-537 400,-537"/>
<text text-anchor="middle" x="385" y="-516.5" font-family="Times,serif" font-size="10.00">x</text>
</g>
<!-- x&#45;&gt;b_syn_intermediate_m -->
<g id="edge10" class="edge"><title>x&#45;&gt;b_syn_intermediate_m</title>
<path fill="none" stroke="black" d="M412.403,-508.199C437.514,-497.926 471.78,-483.908 473.897,-483.042"/>
</g>
<!-- U_degr_intermediate_m -->
<g id="node33" class="node"><title>U_degr_intermediate_m</title>
<ellipse fill="black" stroke="black" cx="475" cy="-458" rx="0.036" ry="0.036"/>
</g>
<!-- x&#45;&gt;U_degr_intermediate_m -->
<g id="edge30" class="edge"><title>x&#45;&gt;U_degr_intermediate_m</title>
<path fill="none" stroke="black" d="M410.138,-500.826C421.486,-492.451 435.288,-482.506 448,-474 458.572,-466.926 472.173,-459.053 473.832,-458.097"/>
</g>
<!-- x_degr_intermediate_r -->
<g id="node87" class="node"><title>x_degr_intermediate_r</title>
<ellipse fill="black" stroke="black" cx="475" cy="-507" rx="0.036" ry="0.036"/>
</g>
<!-- x&#45;&gt;x_degr_intermediate_r -->
<g id="edge101" class="edge"><title>x&#45;&gt;x_degr_intermediate_r</title>
<path fill="none" stroke="black" d="M412.403,-515.4C437.514,-511.975 471.78,-507.303 473.897,-507.014"/>
</g>
<!-- Btot_degr -->
<g id="node12" class="node"><title>Btot_degr</title>
<polygon fill="none" stroke="black" points="552,-742 538,-742 538,-728 552,-728 552,-742"/>
</g>
<!-- Btot_degr_empty -->
<g id="node14" class="node"><title>Btot_degr_empty</title>
<text text-anchor="middle" x="615" y="-731.5" font-family="Times,serif" font-size="15.00" fill="blue">Ø</text>
</g>
<!-- Btot_degr&#45;&gt;Btot_degr_empty -->
<g id="edge3" class="edge"><title>Btot_degr&#45;&gt;Btot_degr_empty</title>
<path fill="none" stroke="black" d="M552.275,-735C558.278,-735 567.849,-735 577.68,-735"/>
<polygon fill="black" stroke="black" points="577.88,-738.5 587.88,-735 577.88,-731.5 577.88,-738.5"/>
</g>
<!-- Btot_degr_intermediate_r&#45;&gt;Btot_degr -->
<g id="edge1" class="edge"><title>Btot_degr_intermediate_r&#45;&gt;Btot_degr</title>
<path fill="none" stroke="black" d="M476.049,-735C477.722,-735 521.535,-735 537.906,-735"/>
</g>
<!-- b_syn -->
<g id="node15" class="node"><title>b_syn</title>
<polygon fill="none" stroke="black" points="104,-532 90,-532 90,-518 104,-518 104,-532"/>
</g>
<!-- b_syn_intermediate_p -->
<g id="node17" class="node"><title>b_syn_intermediate_p</title>
<ellipse fill="black" stroke="black" cx="167" cy="-577" rx="0.036" ry="0.036"/>
</g>
<!-- b_syn&#45;&gt;b_syn_intermediate_p -->
<g id="edge5" class="edge"><title>b_syn&#45;&gt;b_syn_intermediate_p</title>
<path fill="none" stroke="black" d="M104.275,-529.799C120.583,-542.27 163.222,-574.875 165.871,-576.901"/>
</g>
<!-- b_syn&#45;&gt;b_syn_intermediate_m -->
<g id="edge7" class="edge"><title>b_syn&#45;&gt;b_syn_intermediate_m</title>
<path fill="none" stroke="black" d="M104.149,-518.477C111.783,-510.815 125.568,-498.344 140,-492 187.826,-470.976 203.757,-473 256,-473 256,-473 256,-473 322,-473 388.644,-473 471.37,-482.69 473.939,-482.993"/>
</g>
<!-- b_syn_empty -->
<g id="node16" class="node"><title>b_syn_empty</title>
<text text-anchor="middle" x="27" y="-521.5" font-family="Times,serif" font-size="15.00" fill="blue">Ø</text>
</g>
<!-- b_syn_empty&#45;&gt;b_syn -->
<g id="edge4" class="edge"><title>b_syn_empty&#45;&gt;b_syn</title>
<path fill="none" stroke="black" d="M54.0961,-525C67.13,-525 81.8045,-525 89.8681,-525"/>
</g>
<!-- b_syn_intermediate_p&#45;&gt;b -->
<g id="edge6" class="edge"><title>b_syn_intermediate_p&#45;&gt;b</title>
<path fill="none" stroke="black" d="M168.064,-577.022C169.601,-577.546 198.619,-587.438 222.906,-595.718"/>
<polygon fill="black" stroke="black" points="221.996,-599.106 232.591,-599.02 224.255,-592.48 221.996,-599.106"/>
</g>
<!-- b_degr -->
<g id="node19" class="node"><title>b_degr</title>
<polygon fill="none" stroke="black" points="392,-569 378,-569 378,-555 392,-555 392,-569"/>
</g>
<!-- b_degr_empty -->
<g id="node21" class="node"><title>b_degr_empty</title>
<text text-anchor="middle" x="475" y="-557.5" font-family="Times,serif" font-size="15.00" fill="blue">Ø</text>
</g>
<!-- b_degr&#45;&gt;b_degr_empty -->
<g id="edge13" class="edge"><title>b_degr&#45;&gt;b_degr_empty</title>
<path fill="none" stroke="black" d="M392.049,-561.931C401.439,-561.825 420.239,-561.611 437.466,-561.415"/>
<polygon fill="black" stroke="black" points="437.932,-564.91 447.891,-561.297 437.852,-557.911 437.932,-564.91"/>
</g>
<!-- b_degr&#45;&gt;b_degr_intermediate_m -->
<g id="edge14" class="edge"><title>b_degr&#45;&gt;b_degr_intermediate_m</title>
<path fill="none" stroke="black" d="M392.08,-559.031C403.097,-553.702 427.15,-542.297 448,-534 458.652,-529.761 472.183,-525.56 473.833,-525.051"/>
</g>
<!-- b_degr_intermediate_r&#45;&gt;b_degr -->
<g id="edge11" class="edge"><title>b_degr_intermediate_r&#45;&gt;b_degr</title>
<path fill="none" stroke="black" d="M322.048,-624.915C323.032,-623.176 339.08,-595.082 358,-578 363.98,-572.601 372.024,-567.973 377.574,-565.103"/>
</g>
<!-- A6_degr -->
<g id="node23" class="node"><title>A6_degr</title>
<polygon fill="none" stroke="black" points="552,-649 538,-649 538,-635 552,-635 552,-649"/>
</g>
<!-- A6_degr_empty -->
<g id="node25" class="node"><title>A6_degr_empty</title>
<text text-anchor="middle" x="615" y="-638.5" font-family="Times,serif" font-size="15.00" fill="blue">Ø</text>
</g>
<!-- A6_degr&#45;&gt;A6_degr_empty -->
<g id="edge19" class="edge"><title>A6_degr&#45;&gt;A6_degr_empty</title>
<path fill="none" stroke="black" d="M552.275,-642C558.278,-642 567.849,-642 577.68,-642"/>
<polygon fill="black" stroke="black" points="577.88,-645.5 587.88,-642 577.88,-638.5 577.88,-645.5"/>
</g>
<!-- A6_degr_intermediate_r&#45;&gt;A6_degr -->
<g id="edge17" class="edge"><title>A6_degr_intermediate_r&#45;&gt;A6_degr</title>
<path fill="none" stroke="black" d="M476.049,-635.005C477.722,-635.177 521.535,-639.687 537.906,-641.373"/>
</g>
<!-- A6_syn -->
<g id="node26" class="node"><title>A6_syn</title>
<polygon fill="none" stroke="black" points="264,-696 250,-696 250,-682 264,-682 264,-696"/>
</g>
<!-- A6_syn_intermediate_p -->
<g id="node28" class="node"><title>A6_syn_intermediate_p</title>
<ellipse fill="black" stroke="black" cx="321" cy="-661" rx="0.036" ry="0.036"/>
</g>
<!-- A6_syn&#45;&gt;A6_syn_intermediate_p -->
<g id="edge21" class="edge"><title>A6_syn&#45;&gt;A6_syn_intermediate_p</title>
<path fill="none" stroke="black" d="M264.171,-686.213C279.364,-679.352 317.515,-662.122 319.884,-661.052"/>
</g>
<!-- A6_syn&#45;&gt;A6_syn_intermediate_m -->
<g id="edge23" class="edge"><title>A6_syn&#45;&gt;A6_syn_intermediate_m</title>
<path fill="none" stroke="black" d="M264.175,-688.121C285.021,-685.134 354.691,-675.008 412,-665 438.784,-660.322 471.86,-653.446 473.901,-653.021"/>
</g>
<!-- A6_syn_empty -->
<g id="node27" class="node"><title>A6_syn_empty</title>
<text text-anchor="middle" x="167" y="-692.5" font-family="Times,serif" font-size="15.00" fill="blue">Ø</text>
</g>
<!-- A6_syn_empty&#45;&gt;A6_syn -->
<g id="edge20" class="edge"><title>A6_syn_empty&#45;&gt;A6_syn</title>
<path fill="none" stroke="black" d="M194.403,-693.9C213.641,-692.369 238.253,-690.412 249.665,-689.504"/>
</g>
<!-- A6_syn_intermediate_p&#45;&gt;A6 -->
<g id="edge22" class="edge"><title>A6_syn_intermediate_p&#45;&gt;A6</title>
<path fill="none" stroke="black" d="M322.045,-660.959C323.034,-660.066 340.19,-644.57 356.197,-630.113"/>
<polygon fill="black" stroke="black" points="358.811,-632.467 363.886,-623.167 354.119,-627.273 358.811,-632.467"/>
</g>
<!-- U_degr -->
<g id="node30" class="node"><title>U_degr</title>
<polygon fill="none" stroke="black" points="392,-391 378,-391 378,-377 392,-377 392,-391"/>
</g>
<!-- U_degr_empty -->
<g id="node32" class="node"><title>U_degr_empty</title>
<text text-anchor="middle" x="475" y="-380.5" font-family="Times,serif" font-size="15.00" fill="blue">Ø</text>
</g>
<!-- U_degr&#45;&gt;U_degr_empty -->
<g id="edge28" class="edge"><title>U_degr&#45;&gt;U_degr_empty</title>
<path fill="none" stroke="black" d="M392.049,-384C401.439,-384 420.239,-384 437.466,-384"/>
<polygon fill="black" stroke="black" points="437.891,-387.5 447.891,-384 437.891,-380.5 437.891,-387.5"/>
</g>
<!-- U_degr&#45;&gt;U_degr_intermediate_m -->
<g id="edge29" class="edge"><title>U_degr&#45;&gt;U_degr_intermediate_m</title>
<path fill="none" stroke="black" d="M392.256,-387.304C397.697,-390.302 405.678,-395.007 412,-400 429.757,-414.025 431.349,-420.679 448,-436 458.443,-445.609 472.157,-456.537 473.83,-457.866"/>
</g>
<!-- U_degr_intermediate_r&#45;&gt;U_degr -->
<g id="edge26" class="edge"><title>U_degr_intermediate_r&#45;&gt;U_degr</title>
<path fill="none" stroke="black" d="M322.045,-394.992C323.541,-394.727 361.995,-387.904 377.555,-385.143"/>
</g>
<!-- A4_syn -->
<g id="node34" class="node"><title>A4_syn</title>
<polygon fill="none" stroke="black" points="264,-445 250,-445 250,-431 264,-431 264,-445"/>
</g>
<!-- A4_syn_intermediate_p -->
<g id="node36" class="node"><title>A4_syn_intermediate_p</title>
<ellipse fill="black" stroke="black" cx="321" cy="-433" rx="0.036" ry="0.036"/>
</g>
<!-- A4_syn&#45;&gt;A4_syn_intermediate_p -->
<g id="edge32" class="edge"><title>A4_syn&#45;&gt;A4_syn_intermediate_p</title>
<path fill="none" stroke="black" d="M264.171,-437.502C279.364,-436.277 317.515,-433.2 319.884,-433.009"/>
</g>
<!-- A4_syn&#45;&gt;A4_syn_intermediate_m -->
<g id="edge34" class="edge"><title>A4_syn&#45;&gt;A4_syn_intermediate_m</title>
<path fill="none" stroke="black" d="M264.398,-434.865C269.93,-431.976 277.964,-427.335 284,-422 302.591,-405.567 318.947,-378.742 319.951,-377.081"/>
</g>
<!-- A4_syn_empty -->
<g id="node35" class="node"><title>A4_syn_empty</title>
<text text-anchor="middle" x="167" y="-423.5" font-family="Times,serif" font-size="15.00" fill="blue">Ø</text>
</g>
<!-- A4_syn_empty&#45;&gt;A4_syn -->
<g id="edge31" class="edge"><title>A4_syn_empty&#45;&gt;A4_syn</title>
<path fill="none" stroke="black" d="M194.403,-430.3C213.641,-432.705 238.253,-435.782 249.665,-437.208"/>
</g>
<!-- A4_syn_intermediate_p&#45;&gt;A4 -->
<g id="edge33" class="edge"><title>A4_syn_intermediate_p&#45;&gt;A4</title>
<path fill="none" stroke="black" d="M322.045,-432.996C322.863,-432.916 334.734,-431.768 347.87,-430.496"/>
<polygon fill="black" stroke="black" points="348.382,-433.963 357.998,-429.516 347.708,-426.996 348.382,-433.963"/>
</g>
<!-- A4_degr -->
<g id="node38" class="node"><title>A4_degr</title>
<polygon fill="none" stroke="black" points="552,-434 538,-434 538,-420 552,-420 552,-434"/>
</g>
<!-- A4_degr_empty -->
<g id="node40" class="node"><title>A4_degr_empty</title>
<text text-anchor="middle" x="615" y="-423.5" font-family="Times,serif" font-size="15.00" fill="blue">Ø</text>
</g>
<!-- A4_degr&#45;&gt;A4_degr_empty -->
<g id="edge39" class="edge"><title>A4_degr&#45;&gt;A4_degr_empty</title>
<path fill="none" stroke="black" d="M552.275,-427C558.278,-427 567.849,-427 577.68,-427"/>
<polygon fill="black" stroke="black" points="577.88,-430.5 587.88,-427 577.88,-423.5 577.88,-430.5"/>
</g>
<!-- A4_degr_intermediate_r&#45;&gt;A4_degr -->
<g id="edge37" class="edge"><title>A4_degr_intermediate_r&#45;&gt;A4_degr</title>
<path fill="none" stroke="black" d="M476.049,-427C477.722,-427 521.535,-427 537.906,-427"/>
</g>
<!-- c_syn -->
<g id="node41" class="node"><title>c_syn</title>
<polygon fill="none" stroke="black" points="104,-300 90,-300 90,-286 104,-286 104,-300"/>
</g>
<!-- c_syn_intermediate_p -->
<g id="node43" class="node"><title>c_syn_intermediate_p</title>
<ellipse fill="black" stroke="black" cx="167" cy="-274" rx="0.036" ry="0.036"/>
</g>
<!-- c_syn&#45;&gt;c_syn_intermediate_p -->
<g id="edge41" class="edge"><title>c_syn&#45;&gt;c_syn_intermediate_p</title>
<path fill="none" stroke="black" d="M104.275,-291.247C120.583,-286.69 163.222,-274.776 165.871,-274.036"/>
</g>
<!-- c_syn&#45;&gt;c_syn_intermediate_m -->
<g id="edge43" class="edge"><title>c_syn&#45;&gt;c_syn_intermediate_m</title>
<path fill="none" stroke="black" d="M104.292,-294.237C125.544,-298.304 196.643,-311 256,-311 256,-311 256,-311 322,-311 389.018,-311 471.381,-329.411 473.939,-329.986"/>
</g>
<!-- c_syn_empty -->
<g id="node42" class="node"><title>c_syn_empty</title>
<text text-anchor="middle" x="27" y="-289.5" font-family="Times,serif" font-size="15.00" fill="blue">Ø</text>
</g>
<!-- c_syn_empty&#45;&gt;c_syn -->
<g id="edge40" class="edge"><title>c_syn_empty&#45;&gt;c_syn</title>
<path fill="none" stroke="black" d="M54.0961,-293C67.13,-293 81.8045,-293 89.8681,-293"/>
</g>
<!-- c_syn_intermediate_p&#45;&gt;c -->
<g id="edge42" class="edge"><title>c_syn_intermediate_p&#45;&gt;c</title>
<path fill="none" stroke="black" d="M168.064,-273.993C169.533,-273.843 196.103,-271.126 219.654,-268.717"/>
<polygon fill="black" stroke="black" points="220.229,-272.177 229.82,-267.677 219.516,-265.213 220.229,-272.177"/>
</g>
<!-- c_degr -->
<g id="node45" class="node"><title>c_degr</title>
<polygon fill="none" stroke="black" points="392,-270 378,-270 378,-256 392,-256 392,-270"/>
</g>
<!-- c_degr_empty -->
<g id="node47" class="node"><title>c_degr_empty</title>
<text text-anchor="middle" x="475" y="-259.5" font-family="Times,serif" font-size="15.00" fill="blue">Ø</text>
</g>
<!-- c_degr&#45;&gt;c_degr_empty -->
<g id="edge49" class="edge"><title>c_degr&#45;&gt;c_degr_empty</title>
<path fill="none" stroke="black" d="M392.049,-263C401.439,-263 420.239,-263 437.466,-263"/>
<polygon fill="black" stroke="black" points="437.891,-266.5 447.891,-263 437.891,-259.5 437.891,-266.5"/>
</g>
<!-- c_degr&#45;&gt;c_degr_intermediate_m -->
<g id="edge50" class="edge"><title>c_degr&#45;&gt;c_degr_intermediate_m</title>
<path fill="none" stroke="black" d="M392.122,-260.228C403.205,-255.234 427.36,-244.459 448,-236 458.74,-231.598 472.194,-226.661 473.834,-226.061"/>
</g>
<!-- c_degr_intermediate_r&#45;&gt;c_degr -->
<g id="edge47" class="edge"><title>c_degr_intermediate_r&#45;&gt;c_degr</title>
<path fill="none" stroke="black" d="M322.045,-263.999C323.541,-263.975 361.995,-263.355 377.555,-263.104"/>
</g>
<!-- C_syn -->
<g id="node49" class="node"><title>C_syn</title>
<polygon fill="none" stroke="black" points="264,-175 250,-175 250,-161 264,-161 264,-175"/>
</g>
<!-- C_syn_intermediate_p -->
<g id="node51" class="node"><title>C_syn_intermediate_p</title>
<ellipse fill="black" stroke="black" cx="321" cy="-169" rx="0.036" ry="0.036"/>
</g>
<!-- C_syn&#45;&gt;C_syn_intermediate_p -->
<g id="edge53" class="edge"><title>C_syn&#45;&gt;C_syn_intermediate_p</title>
<path fill="none" stroke="black" d="M264.171,-168.1C279.364,-168.345 317.515,-168.96 319.884,-168.998"/>
</g>
<!-- C_syn&#45;&gt;C_syn_intermediate_m -->
<g id="edge55" class="edge"><title>C_syn&#45;&gt;C_syn_intermediate_m</title>
<path fill="none" stroke="black" d="M264.171,-170.488C279.364,-176.614 317.515,-191.998 319.884,-192.953"/>
</g>
<!-- C_syn_empty -->
<g id="node50" class="node"><title>C_syn_empty</title>
<text text-anchor="middle" x="167" y="-175.5" font-family="Times,serif" font-size="15.00" fill="blue">Ø</text>
</g>
<!-- C_syn_empty&#45;&gt;C_syn -->
<g id="edge52" class="edge"><title>C_syn_empty&#45;&gt;C_syn</title>
<path fill="none" stroke="black" d="M194.403,-175.7C213.641,-173.295 238.253,-170.218 249.665,-168.792"/>
</g>
<!-- C_syn_intermediate_p&#45;&gt;C -->
<g id="edge54" class="edge"><title>C_syn_intermediate_p&#45;&gt;C</title>
<path fill="none" stroke="black" d="M322.045,-169.016C322.871,-169.309 334.968,-173.602 348.256,-178.317"/>
<polygon fill="black" stroke="black" points="347.404,-181.728 357.998,-181.774 349.745,-175.131 347.404,-181.728"/>
</g>
<!-- C_degr -->
<g id="node53" class="node"><title>C_degr</title>
<polygon fill="none" stroke="black" points="552,-195 538,-195 538,-181 552,-181 552,-195"/>
</g>
<!-- C_degr_empty -->
<g id="node55" class="node"><title>C_degr_empty</title>
<text text-anchor="middle" x="615" y="-184.5" font-family="Times,serif" font-size="15.00" fill="blue">Ø</text>
</g>
<!-- C_degr&#45;&gt;C_degr_empty -->
<g id="edge60" class="edge"><title>C_degr&#45;&gt;C_degr_empty</title>
<path fill="none" stroke="black" d="M552.275,-188C558.278,-188 567.849,-188 577.68,-188"/>
<polygon fill="black" stroke="black" points="577.88,-191.5 587.88,-188 577.88,-184.5 577.88,-191.5"/>
</g>
<!-- C_degr_intermediate_r&#45;&gt;C_degr -->
<g id="edge58" class="edge"><title>C_degr_intermediate_r&#45;&gt;C_degr</title>
<path fill="none" stroke="black" d="M476.049,-188C477.722,-188 521.535,-188 537.906,-188"/>
</g>
<!-- g_syn -->
<g id="node56" class="node"><title>g_syn</title>
<polygon fill="none" stroke="black" points="104,-122 90,-122 90,-108 104,-108 104,-122"/>
</g>
<!-- g_syn_intermediate_p -->
<g id="node58" class="node"><title>g_syn_intermediate_p</title>
<ellipse fill="black" stroke="black" cx="167" cy="-96" rx="0.036" ry="0.036"/>
</g>
<!-- g_syn&#45;&gt;g_syn_intermediate_p -->
<g id="edge62" class="edge"><title>g_syn&#45;&gt;g_syn_intermediate_p</title>
<path fill="none" stroke="black" d="M104.275,-113.247C120.583,-108.69 163.222,-96.7763 165.871,-96.0361"/>
</g>
<!-- g_syn&#45;&gt;g_syn_intermediate_m -->
<g id="edge64" class="edge"><title>g_syn&#45;&gt;g_syn_intermediate_m</title>
<path fill="none" stroke="black" d="M104.379,-114.673C138.133,-113.204 298.639,-109.467 412,-164 431.56,-173.409 429.357,-185.885 448,-197 458.175,-203.066 473.036,-205.825 473.955,-205.992"/>
</g>
<!-- g_syn_empty -->
<g id="node57" class="node"><title>g_syn_empty</title>
<text text-anchor="middle" x="27" y="-111.5" font-family="Times,serif" font-size="15.00" fill="blue">Ø</text>
</g>
<!-- g_syn_empty&#45;&gt;g_syn -->
<g id="edge61" class="edge"><title>g_syn_empty&#45;&gt;g_syn</title>
<path fill="none" stroke="black" d="M54.0961,-115C67.13,-115 81.8045,-115 89.8681,-115"/>
</g>
<!-- g_syn_intermediate_p&#45;&gt;g -->
<g id="edge63" class="edge"><title>g_syn_intermediate_p&#45;&gt;g</title>
<path fill="none" stroke="black" d="M168.064,-95.9935C169.533,-95.8432 196.103,-93.1258 219.654,-90.7172"/>
<polygon fill="black" stroke="black" points="220.229,-94.1768 229.82,-89.6775 219.516,-87.2131 220.229,-94.1768"/>
</g>
<!-- g_degr -->
<g id="node60" class="node"><title>g_degr</title>
<polygon fill="none" stroke="black" points="392,-111 378,-111 378,-97 392,-97 392,-111"/>
</g>
<!-- g_degr_empty -->
<g id="node62" class="node"><title>g_degr_empty</title>
<text text-anchor="middle" x="475" y="-122.5" font-family="Times,serif" font-size="15.00" fill="blue">Ø</text>
</g>
<!-- g_degr&#45;&gt;g_degr_empty -->
<g id="edge69" class="edge"><title>g_degr&#45;&gt;g_degr_empty</title>
<path fill="none" stroke="black" d="M392.049,-105.512C401.527,-107.882 420.594,-112.649 437.953,-116.988"/>
<polygon fill="black" stroke="black" points="437.341,-120.443 447.891,-119.473 439.039,-113.652 437.341,-120.443"/>
</g>
<!-- g_degr&#45;&gt;g_degr_intermediate_m -->
<g id="edge70" class="edge"><title>g_degr&#45;&gt;g_degr_intermediate_m</title>
<path fill="none" stroke="black" d="M392.339,-109.113C406.955,-120.886 442.21,-149.195 448,-153 458.283,-159.757 472.137,-166.149 473.829,-166.922"/>
</g>
<!-- g_degr_intermediate_r&#45;&gt;g_degr -->
<g id="edge67" class="edge"><title>g_degr_intermediate_r&#45;&gt;g_degr</title>
<path fill="none" stroke="black" d="M322.045,-104C323.541,-104 361.995,-104 377.555,-104"/>
</g>
<!-- G_syn -->
<g id="node64" class="node"><title>G_syn</title>
<polygon fill="none" stroke="black" points="264,-44 250,-44 250,-30 264,-30 264,-44"/>
</g>
<!-- G_syn_intermediate_p -->
<g id="node66" class="node"><title>G_syn_intermediate_p</title>
<ellipse fill="black" stroke="black" cx="321" cy="-34" rx="0.036" ry="0.036"/>
</g>
<!-- G_syn&#45;&gt;G_syn_intermediate_p -->
<g id="edge73" class="edge"><title>G_syn&#45;&gt;G_syn_intermediate_p</title>
<path fill="none" stroke="black" d="M264.171,-36.7014C279.364,-35.9663 317.515,-34.1203 319.884,-34.0056"/>
</g>
<!-- G_syn&#45;&gt;G_syn_intermediate_m -->
<g id="edge75" class="edge"><title>G_syn&#45;&gt;G_syn_intermediate_m</title>
<path fill="none" stroke="black" d="M264.171,-41.8774C279.364,-53.8841 317.515,-84.0358 319.884,-85.9086"/>
</g>
<!-- G_syn_empty -->
<g id="node65" class="node"><title>G_syn_empty</title>
<text text-anchor="middle" x="167" y="-33.5" font-family="Times,serif" font-size="15.00" fill="blue">Ø</text>
</g>
<!-- G_syn_empty&#45;&gt;G_syn -->
<g id="edge72" class="edge"><title>G_syn_empty&#45;&gt;G_syn</title>
<path fill="none" stroke="black" d="M194.403,-37C213.641,-37 238.253,-37 249.665,-37"/>
</g>
<!-- G_syn_intermediate_p&#45;&gt;G -->
<g id="edge74" class="edge"><title>G_syn_intermediate_p&#45;&gt;G</title>
<path fill="none" stroke="black" d="M322.045,-33.9964C322.863,-33.9304 334.734,-32.973 347.87,-31.9137"/>
<polygon fill="black" stroke="black" points="348.312,-35.3895 357.998,-31.0969 347.749,-28.4122 348.312,-35.3895"/>
</g>
<!-- G_degr -->
<g id="node68" class="node"><title>G_degr</title>
<polygon fill="none" stroke="black" points="552,-25 538,-25 538,-11 552,-11 552,-25"/>
</g>
<!-- G_degr_empty -->
<g id="node70" class="node"><title>G_degr_empty</title>
<text text-anchor="middle" x="615" y="-14.5" font-family="Times,serif" font-size="15.00" fill="blue">Ø</text>
</g>
<!-- G_degr&#45;&gt;G_degr_empty -->
<g id="edge80" class="edge"><title>G_degr&#45;&gt;G_degr_empty</title>
<path fill="none" stroke="black" d="M552.275,-18C558.278,-18 567.849,-18 577.68,-18"/>
<polygon fill="black" stroke="black" points="577.88,-21.5001 587.88,-18 577.88,-14.5001 577.88,-21.5001"/>
</g>
<!-- G_degr_intermediate_r&#45;&gt;G_degr -->
<g id="edge78" class="edge"><title>G_degr_intermediate_r&#45;&gt;G_degr</title>
<path fill="none" stroke="black" d="M476.049,-18C477.722,-18 521.535,-18 537.906,-18"/>
</g>
<!-- Ep_degr -->
<g id="node71" class="node"><title>Ep_degr</title>
<polygon fill="none" stroke="black" points="392,-79 378,-79 378,-65 392,-65 392,-79"/>
</g>
<!-- Ep_degr_empty -->
<g id="node73" class="node"><title>Ep_degr_empty</title>
<text text-anchor="middle" x="475" y="-68.5" font-family="Times,serif" font-size="15.00" fill="blue">Ø</text>
</g>
<!-- Ep_degr&#45;&gt;Ep_degr_empty -->
<g id="edge83" class="edge"><title>Ep_degr&#45;&gt;Ep_degr_empty</title>
<path fill="none" stroke="black" d="M392.049,-72C401.439,-72 420.239,-72 437.466,-72"/>
<polygon fill="black" stroke="black" points="437.891,-75.5001 447.891,-72 437.891,-68.5001 437.891,-75.5001"/>
</g>
<!-- Ep_degr&#45;&gt;Ep_degr_intermediate_m -->
<g id="edge84" class="edge"><title>Ep_degr&#45;&gt;Ep_degr_intermediate_m</title>
<path fill="none" stroke="black" d="M392.094,-69.1582C403.133,-64.0532 427.219,-53.1076 448,-45 458.68,-40.8333 472.187,-36.569 473.833,-36.0522"/>
</g>
<!-- Ep_degr_intermediate_r&#45;&gt;Ep_degr -->
<g id="edge81" class="edge"><title>Ep_degr_intermediate_r&#45;&gt;Ep_degr</title>
<path fill="none" stroke="black" d="M322.001,-210.943C322.053,-208.579 323.981,-132.571 358,-88 363.145,-81.259 372.015,-76.6943 377.944,-74.2186"/>
</g>
<!-- U_syn -->
<g id="node75" class="node"><title>U_syn</title>
<polygon fill="none" stroke="black" points="104,-374 90,-374 90,-360 104,-360 104,-374"/>
</g>
<!-- U_syn_intermediate_p -->
<g id="node77" class="node"><title>U_syn_intermediate_p</title>
<ellipse fill="black" stroke="black" cx="167" cy="-384" rx="0.036" ry="0.036"/>
</g>
<!-- U_syn&#45;&gt;U_syn_intermediate_p -->
<g id="edge87" class="edge"><title>U_syn&#45;&gt;U_syn_intermediate_p</title>
<path fill="none" stroke="black" d="M104.275,-368.569C120.583,-372.646 163.222,-383.305 165.871,-383.968"/>
</g>
<!-- U_syn&#45;&gt;U_syn_intermediate_m -->
<g id="edge89" class="edge"><title>U_syn&#45;&gt;U_syn_intermediate_m</title>
<path fill="none" stroke="black" d="M104.405,-366.481C140.235,-363.576 314.435,-349.451 319.87,-349.011"/>
</g>
<!-- U_syn_empty -->
<g id="node76" class="node"><title>U_syn_empty</title>
<text text-anchor="middle" x="27" y="-363.5" font-family="Times,serif" font-size="15.00" fill="blue">Ø</text>
</g>
<!-- U_syn_empty&#45;&gt;U_syn -->
<g id="edge86" class="edge"><title>U_syn_empty&#45;&gt;U_syn</title>
<path fill="none" stroke="black" d="M54.0961,-367C67.13,-367 81.8045,-367 89.8681,-367"/>
</g>
<!-- U_syn_intermediate_p&#45;&gt;U -->
<g id="edge88" class="edge"><title>U_syn_intermediate_p&#45;&gt;U</title>
<path fill="none" stroke="black" d="M168.064,-384.008C169.542,-384.193 196.432,-387.554 220.09,-390.511"/>
<polygon fill="black" stroke="black" points="219.931,-394.019 230.288,-391.786 220.799,-387.073 219.931,-394.019"/>
</g>
<!-- Btot_syn -->
<g id="node79" class="node"><title>Btot_syn</title>
<polygon fill="none" stroke="black" points="264,-657 250,-657 250,-643 264,-643 264,-657"/>
</g>
<!-- Btot_syn_intermediate_p -->
<g id="node81" class="node"><title>Btot_syn_intermediate_p</title>
<ellipse fill="black" stroke="black" cx="321" cy="-726" rx="0.036" ry="0.036"/>
</g>
<!-- Btot_syn&#45;&gt;Btot_syn_intermediate_p -->
<g id="edge93" class="edge"><title>Btot_syn&#45;&gt;Btot_syn_intermediate_p</title>
<path fill="none" stroke="black" d="M264.391,-654.899C269.917,-659.304 277.949,-666.123 284,-673 302.223,-693.71 318.924,-724.034 319.95,-725.909"/>
</g>
<!-- Btot_syn&#45;&gt;Btot_syn_intermediate_m -->
<g id="edge95" class="edge"><title>Btot_syn&#45;&gt;Btot_syn_intermediate_m</title>
<path fill="none" stroke="black" d="M264.171,-649.303C279.364,-647.588 317.515,-643.281 319.884,-643.013"/>
</g>
<!-- Btot_syn_empty -->
<g id="node80" class="node"><title>Btot_syn_empty</title>
<text text-anchor="middle" x="167" y="-638.5" font-family="Times,serif" font-size="15.00" fill="blue">Ø</text>
</g>
<!-- Btot_syn_empty&#45;&gt;Btot_syn -->
<g id="edge92" class="edge"><title>Btot_syn_empty&#45;&gt;Btot_syn</title>
<path fill="none" stroke="black" d="M194.403,-644.4C213.641,-646.149 238.253,-648.387 249.665,-649.424"/>
</g>
<!-- Btot_syn_intermediate_p&#45;&gt;Btot -->
<g id="edge94" class="edge"><title>Btot_syn_intermediate_p&#45;&gt;Btot</title>
<path fill="none" stroke="black" d="M322.045,-726.007C322.869,-726.126 334.904,-727.873 348.151,-729.796"/>
<polygon fill="black" stroke="black" points="347.952,-733.304 358.351,-731.277 348.958,-726.376 347.952,-733.304"/>
</g>
<!-- Ep_syn -->
<g id="node83" class="node"><title>Ep_syn</title>
<polygon fill="none" stroke="black" points="104,-222 90,-222 90,-208 104,-208 104,-222"/>
</g>
<!-- Ep_syn_intermediate_p -->
<g id="node85" class="node"><title>Ep_syn_intermediate_p</title>
<ellipse fill="black" stroke="black" cx="167" cy="-215" rx="0.036" ry="0.036"/>
</g>
<!-- Ep_syn&#45;&gt;Ep_syn_intermediate_p -->
<g id="edge98" class="edge"><title>Ep_syn&#45;&gt;Ep_syn_intermediate_p</title>
<path fill="none" stroke="black" d="M104.275,-215C120.583,-215 163.222,-215 165.871,-215"/>
</g>
<!-- Ep_syn_empty -->
<g id="node84" class="node"><title>Ep_syn_empty</title>
<text text-anchor="middle" x="27" y="-211.5" font-family="Times,serif" font-size="15.00" fill="blue">Ø</text>
</g>
<!-- Ep_syn_empty&#45;&gt;Ep_syn -->
<g id="edge97" class="edge"><title>Ep_syn_empty&#45;&gt;Ep_syn</title>
<path fill="none" stroke="black" d="M54.0961,-215C67.13,-215 81.8045,-215 89.8681,-215"/>
</g>
<!-- Ep_syn_intermediate_p&#45;&gt;Ep -->
<g id="edge99" class="edge"><title>Ep_syn_intermediate_p&#45;&gt;Ep</title>
<path fill="none" stroke="black" d="M168.064,-214.997C169.533,-214.93 196.103,-213.723 219.654,-212.652"/>
<polygon fill="black" stroke="black" points="219.99,-216.141 229.82,-212.19 219.672,-209.148 219.99,-216.141"/>
</g>
<!-- x_degr -->
<g id="node86" class="node"><title>x_degr</title>
<polygon fill="none" stroke="black" points="552,-530 538,-530 538,-516 552,-516 552,-530"/>
</g>
<!-- x_degr_empty -->
<g id="node88" class="node"><title>x_degr_empty</title>
<text text-anchor="middle" x="615" y="-519.5" font-family="Times,serif" font-size="15.00" fill="blue">Ø</text>
</g>
<!-- x_degr&#45;&gt;x_degr_empty -->
<g id="edge102" class="edge"><title>x_degr&#45;&gt;x_degr_empty</title>
<path fill="none" stroke="black" d="M552.275,-523C558.278,-523 567.849,-523 577.68,-523"/>
<polygon fill="black" stroke="black" points="577.88,-526.5 587.88,-523 577.88,-519.5 577.88,-526.5"/>
</g>
<!-- x_degr&#45;&gt;x_degr_intermediate_m -->
<g id="edge103" class="edge"><title>x_degr&#45;&gt;x_degr_intermediate_m</title>
<path fill="none" stroke="black" d="M552.275,-529.183C568.583,-545.251 611.222,-587.263 613.871,-589.873"/>
</g>
<!-- x_degr_intermediate_r&#45;&gt;x_degr -->
<g id="edge100" class="edge"><title>x_degr_intermediate_r&#45;&gt;x_degr</title>
<path fill="none" stroke="black" d="M476.049,-507.012C477.722,-507.405 521.535,-517.714 537.906,-521.566"/>
</g>
<!-- x_syn -->
<g id="node90" class="node"><title>x_syn</title>
<polygon fill="none" stroke="black" points="264,-526 250,-526 250,-512 264,-512 264,-526"/>
</g>
<!-- x_syn_intermediate_p -->
<g id="node92" class="node"><title>x_syn_intermediate_p</title>
<ellipse fill="black" stroke="black" cx="321" cy="-519" rx="0.036" ry="0.036"/>
</g>
<!-- x_syn&#45;&gt;x_syn_intermediate_p -->
<g id="edge106" class="edge"><title>x_syn&#45;&gt;x_syn_intermediate_p</title>
<path fill="none" stroke="black" d="M264.171,-519C279.364,-519 317.515,-519 319.884,-519"/>
</g>
<!-- x_syn_empty -->
<g id="node91" class="node"><title>x_syn_empty</title>
<text text-anchor="middle" x="167" y="-515.5" font-family="Times,serif" font-size="15.00" fill="blue">Ø</text>
</g>
<!-- x_syn_empty&#45;&gt;x_syn -->
<g id="edge105" class="edge"><title>x_syn_empty&#45;&gt;x_syn</title>
<path fill="none" stroke="black" d="M194.403,-519C213.641,-519 238.253,-519 249.665,-519"/>
</g>
<!-- x_syn_intermediate_p&#45;&gt;x -->
<g id="edge107" class="edge"><title>x_syn_intermediate_p&#45;&gt;x</title>
<path fill="none" stroke="black" d="M322.045,-519C322.863,-519 334.734,-519 347.87,-519"/>
<polygon fill="black" stroke="black" points="347.998,-522.5 357.998,-519 347.998,-515.5 347.998,-522.5"/>
</g>
</g>
</svg>
