<?xml version="1.0" encoding="UTF-8" standalone="no"?>
<!DOCTYPE svg PUBLIC "-//W3C//DTD SVG 1.1//EN"
 "http://www.w3.org/Graphics/SVG/1.1/DTD/svg11.dtd">
<!-- Generated by graphviz version 2.30.1 (20140821.0912)
 -->
<!-- Title: G Pages: 1 -->
<svg width="1914pt" height="570pt"
 viewBox="0.00 0.00 1914.00 570.00" xmlns="http://www.w3.org/2000/svg" xmlns:xlink="http://www.w3.org/1999/xlink">
<g id="graph0" class="graph" transform="scale(1 1) rotate(0) translate(4 566)">
<title>G</title>
<polygon fill="white" stroke="white" points="-4,5 -4,-566 1911,-566 1911,5 -4,5"/>
<!-- R -->
<g id="R" class="node"><title>R</title>
<path fill="none" stroke="black" d="M42,-75C42,-75 12,-75 12,-75 6,-75 0,-69 0,-63 0,-63 0,-51 0,-51 0,-45 6,-39 12,-39 12,-39 42,-39 42,-39 48,-39 54,-45 54,-51 54,-51 54,-63 54,-63 54,-69 48,-75 42,-75"/>
<text text-anchor="middle" x="27" y="-54.5" font-family="Times,serif" font-size="10.00">R</text>
</g>
<!-- binding_R_G_intermediate_r -->
<g id="node14" class="node"><title>binding_R_G_intermediate_r</title>
<ellipse fill="black" stroke="black" cx="91" cy="-76" rx="0.036" ry="0.036"/>
</g>
<!-- R&#45;&gt;binding_R_G_intermediate_r -->
<g id="edge2" class="edge"><title>R&#45;&gt;binding_R_G_intermediate_r</title>
<path fill="none" stroke="black" d="M54.2936,-65.0577C70.6636,-70.0743 88.8263,-75.6403 89.9455,-75.9833"/>
</g>
<!-- binding_L_R_intermediate_r -->
<g id="node17" class="node"><title>binding_L_R_intermediate_r</title>
<ellipse fill="black" stroke="black" cx="91" cy="-179" rx="0.036" ry="0.036"/>
</g>
<!-- R&#45;&gt;binding_L_R_intermediate_r -->
<g id="edge7" class="edge"><title>R&#45;&gt;binding_L_R_intermediate_r</title>
<path fill="none" stroke="black" d="M37.1483,-75.0015C54.1252,-108.408 88.8918,-176.819 89.9741,-178.949"/>
</g>
<!-- binding_R_Gt_intermediate_r -->
<g id="node20" class="node"><title>binding_R_Gt_intermediate_r</title>
<ellipse fill="black" stroke="black" cx="1171" cy="-77" rx="0.036" ry="0.036"/>
</g>
<!-- R&#45;&gt;binding_R_Gt_intermediate_r -->
<g id="edge11" class="edge"><title>R&#45;&gt;binding_R_Gt_intermediate_r</title>
<path fill="none" stroke="black" d="M54.3386,-49.5997C75.6452,-44.2648 106.517,-38 134,-38 134,-38 134,-38 1044,-38 1101.71,-38 1167.9,-75.7908 1169.95,-76.9717"/>
</g>
<!-- binding_R_Gd_intermediate_r -->
<g id="node23" class="node"><title>binding_R_Gd_intermediate_r</title>
<ellipse fill="black" stroke="black" cx="1387" cy="-57" rx="0.036" ry="0.036"/>
</g>
<!-- R&#45;&gt;binding_R_Gd_intermediate_r -->
<g id="edge16" class="edge"><title>R&#45;&gt;binding_R_Gd_intermediate_r</title>
<path fill="none" stroke="black" d="M47.4351,-38.9648C67.5201,-22.2656 100.568,-0 134,-0 134,-0 134,-0 1260,-0 1320.5,-0 1383.98,-55.2327 1385.95,-56.9587"/>
</g>
<!-- LR -->
<g id="LR" class="node"><title>LR</title>
<path fill="none" stroke="black" d="M906,-272C906,-272 876,-272 876,-272 870,-272 864,-266 864,-260 864,-260 864,-248 864,-248 864,-242 870,-236 876,-236 876,-236 906,-236 906,-236 912,-236 918,-242 918,-248 918,-248 918,-260 918,-260 918,-266 912,-272 906,-272"/>
<text text-anchor="middle" x="891" y="-251.5" font-family="Times,serif" font-size="10.00">LR</text>
</g>
<!-- binding_LR_G_intermediate_r -->
<g id="node26" class="node"><title>binding_LR_G_intermediate_r</title>
<ellipse fill="black" stroke="black" cx="955" cy="-198" rx="0.036" ry="0.036"/>
</g>
<!-- LR&#45;&gt;binding_LR_G_intermediate_r -->
<g id="edge21" class="edge"><title>LR&#45;&gt;binding_LR_G_intermediate_r</title>
<path fill="none" stroke="black" d="M911.958,-235.973C929.517,-220.114 952.511,-199.345 953.931,-198.062"/>
</g>
<!-- binding_LR_Gt_intermediate_r -->
<g id="node29" class="node"><title>binding_LR_Gt_intermediate_r</title>
<ellipse fill="black" stroke="black" cx="1171" cy="-286" rx="0.036" ry="0.036"/>
</g>
<!-- LR&#45;&gt;binding_LR_Gt_intermediate_r -->
<g id="edge26" class="edge"><title>LR&#45;&gt;binding_LR_Gt_intermediate_r</title>
<path fill="none" stroke="black" d="M918.154,-257.01C986.277,-264.852 1164.32,-285.346 1169.87,-285.985"/>
</g>
<!-- binding_LR_Gd_intermediate_r -->
<g id="node32" class="node"><title>binding_LR_Gd_intermediate_r</title>
<ellipse fill="black" stroke="black" cx="1387" cy="-170" rx="0.036" ry="0.036"/>
</g>
<!-- LR&#45;&gt;binding_LR_Gd_intermediate_r -->
<g id="edge31" class="edge"><title>LR&#45;&gt;binding_LR_Gd_intermediate_r</title>
<path fill="none" stroke="black" d="M918.131,-243.612C941.449,-234.144 976.385,-219.467 1006,-205 1051.58,-182.737 1055.28,-150 1106,-150 1106,-150 1106,-150 1260,-150 1315.82,-150 1383.84,-169.38 1385.95,-169.986"/>
</g>
<!-- G -->
<g id="G" class="node"><title>G</title>
<path fill="none" stroke="black" d="M906,-216C906,-216 876,-216 876,-216 870,-216 864,-210 864,-204 864,-204 864,-192 864,-192 864,-186 870,-180 876,-180 876,-180 906,-180 906,-180 912,-180 918,-186 918,-192 918,-192 918,-204 918,-204 918,-210 912,-216 906,-216"/>
<text text-anchor="middle" x="891" y="-195.5" font-family="Times,serif" font-size="10.00">G</text>
</g>
<!-- G&#45;&gt;binding_R_G_intermediate_r -->
<g id="edge3" class="edge"><title>G&#45;&gt;binding_R_G_intermediate_r</title>
<path fill="none" stroke="black" d="M883.938,-179.998C871.24,-146.062 838.433,-76 784,-76 178,-76 178,-76 178,-76 140.972,-76 94.9768,-76 92.1382,-76"/>
</g>
<!-- G&#45;&gt;binding_LR_G_intermediate_r -->
<g id="edge22" class="edge"><title>G&#45;&gt;binding_LR_G_intermediate_r</title>
<path fill="none" stroke="black" d="M918.294,-198C934.664,-198 952.826,-198 953.946,-198"/>
</g>
<!-- exchange_G_intermediate_r -->
<g id="node41" class="node"><title>exchange_G_intermediate_r</title>
<ellipse fill="black" stroke="black" cx="955" cy="-180" rx="0.036" ry="0.036"/>
</g>
<!-- G&#45;&gt;exchange_G_intermediate_r -->
<g id="edge44" class="edge"><title>G&#45;&gt;exchange_G_intermediate_r</title>
<path fill="none" stroke="black" d="M918.294,-190.366C934.664,-185.614 952.826,-180.341 953.946,-180.016"/>
</g>
<!-- Gt -->
<g id="Gt [CHEBI:15996]" class="node"><title>Gt</title>
<path fill="none" stroke="black" d="M1122,-252C1122,-252 1092,-252 1092,-252 1086,-252 1080,-246 1080,-240 1080,-240 1080,-228 1080,-228 1080,-222 1086,-216 1092,-216 1092,-216 1122,-216 1122,-216 1128,-216 1134,-222 1134,-228 1134,-228 1134,-240 1134,-240 1134,-246 1128,-252 1122,-252"/>
<text text-anchor="middle" x="1107" y="-231.5" font-family="Times,serif" font-size="10.00">Gt</text>
</g>
<!-- Gt&#45;&gt;binding_R_Gt_intermediate_r -->
<g id="edge12" class="edge"><title>Gt&#45;&gt;binding_R_Gt_intermediate_r</title>
<path fill="none" stroke="black" d="M1115.11,-215.99C1131.14,-175.396 1168.8,-80.0409 1169.97,-77.071"/>
</g>
<!-- Gt&#45;&gt;binding_LR_Gt_intermediate_r -->
<g id="edge27" class="edge"><title>Gt&#45;&gt;binding_LR_Gt_intermediate_r</title>
<path fill="none" stroke="black" d="M1129.68,-252.187C1147,-266.714 1168.6,-284.828 1169.94,-285.946"/>
</g>
<!-- hydrolysis_Gt_intermediate_r -->
<g id="node44" class="node"><title>hydrolysis_Gt_intermediate_r</title>
<ellipse fill="black" stroke="black" cx="1171" cy="-227" rx="0.036" ry="0.036"/>
</g>
<!-- Gt&#45;&gt;hydrolysis_Gt_intermediate_r -->
<g id="edge49" class="edge"><title>Gt&#45;&gt;hydrolysis_Gt_intermediate_r</title>
<path fill="none" stroke="black" d="M1134.29,-231.031C1150.66,-229.183 1168.83,-227.133 1169.95,-227.006"/>
</g>
<!-- Gd -->
<g id="Gd [CHEBI:17552]" class="node"><title>Gd</title>
<path fill="none" stroke="black" d="M1338,-214C1338,-214 1308,-214 1308,-214 1302,-214 1296,-208 1296,-202 1296,-202 1296,-190 1296,-190 1296,-184 1302,-178 1308,-178 1308,-178 1338,-178 1338,-178 1344,-178 1350,-184 1350,-190 1350,-190 1350,-202 1350,-202 1350,-208 1344,-214 1338,-214"/>
<text text-anchor="middle" x="1323" y="-193.5" font-family="Times,serif" font-size="10.00">Gd</text>
</g>
<!-- Gd&#45;&gt;binding_R_Gd_intermediate_r -->
<g id="edge17" class="edge"><title>Gd&#45;&gt;binding_R_Gd_intermediate_r</title>
<path fill="none" stroke="black" d="M1332.11,-177.828C1348.65,-140.739 1384.85,-59.5874 1385.97,-57.0604"/>
</g>
<!-- Gd&#45;&gt;binding_LR_Gd_intermediate_r -->
<g id="edge32" class="edge"><title>Gd&#45;&gt;binding_LR_Gd_intermediate_r</title>
<path fill="none" stroke="black" d="M1350.29,-184.974C1366.66,-178.109 1384.83,-170.492 1385.95,-170.023"/>
</g>
<!-- association_Gd_intermediate_r -->
<g id="node47" class="node"><title>association_Gd_intermediate_r</title>
<ellipse fill="black" stroke="black" cx="739" cy="-198" rx="0.036" ry="0.036"/>
</g>
<!-- Gd&#45;&gt;association_Gd_intermediate_r -->
<g id="edge53" class="edge"><title>Gd&#45;&gt;association_Gd_intermediate_r</title>
<path fill="none" stroke="black" d="M1295.9,-192.93C1274.47,-190.674 1243.31,-188 1216,-188 1106,-188 1106,-188 1106,-188 1009.55,-188 988.448,-152 892,-152 826,-152 826,-152 826,-152 784.008,-152 742.667,-195.17 740.124,-197.868"/>
</g>
<!-- exchange_Gd_intermediate_r -->
<g id="node71" class="node"><title>exchange_Gd_intermediate_r</title>
<ellipse fill="black" stroke="black" cx="1387" cy="-209" rx="0.036" ry="0.036"/>
</g>
<!-- Gd&#45;&gt;exchange_Gd_intermediate_r -->
<g id="edge90" class="edge"><title>Gd&#45;&gt;exchange_Gd_intermediate_r</title>
<path fill="none" stroke="black" d="M1350.29,-201.513C1366.66,-204.946 1384.83,-208.754 1385.95,-208.989"/>
</g>
<!-- RG -->
<g id="RG" class="node"><title>RG</title>
<path fill="none" stroke="black" d="M258,-207C258,-207 228,-207 228,-207 222,-207 216,-201 216,-195 216,-195 216,-183 216,-183 216,-177 222,-171 228,-171 228,-171 258,-171 258,-171 264,-171 270,-177 270,-183 270,-183 270,-195 270,-195 270,-201 264,-207 258,-207"/>
<text text-anchor="middle" x="243" y="-186.5" font-family="Times,serif" font-size="10.00">RG</text>
</g>
<!-- binding_L_RG_intermediate_r -->
<g id="node35" class="node"><title>binding_L_RG_intermediate_r</title>
<ellipse fill="black" stroke="black" cx="307" cy="-198" rx="0.036" ry="0.036"/>
</g>
<!-- RG&#45;&gt;binding_L_RG_intermediate_r -->
<g id="edge36" class="edge"><title>RG&#45;&gt;binding_L_RG_intermediate_r</title>
<path fill="none" stroke="black" d="M270.294,-192.817C286.664,-195.193 304.826,-197.83 305.946,-197.992"/>
</g>
<!-- exchange_RG_intermediate_r -->
<g id="node50" class="node"><title>exchange_RG_intermediate_r</title>
<ellipse fill="black" stroke="black" cx="307" cy="-180" rx="0.036" ry="0.036"/>
</g>
<!-- RG&#45;&gt;exchange_RG_intermediate_r -->
<g id="edge58" class="edge"><title>RG&#45;&gt;exchange_RG_intermediate_r</title>
<path fill="none" stroke="black" d="M270.294,-185.183C286.664,-182.807 304.826,-180.17 305.946,-180.008"/>
</g>
<!-- Gbg -->
<g id="Gbg" class="node"><title>Gbg</title>
<path fill="none" stroke="black" d="M690,-343C690,-343 660,-343 660,-343 654,-343 648,-337 648,-331 648,-331 648,-319 648,-319 648,-313 654,-307 660,-307 660,-307 690,-307 690,-307 696,-307 702,-313 702,-319 702,-319 702,-331 702,-331 702,-337 696,-343 690,-343"/>
<text text-anchor="middle" x="675" y="-322.5" font-family="Times,serif" font-size="10.00">Gbg</text>
</g>
<!-- Gbg&#45;&gt;association_Gd_intermediate_r -->
<g id="edge54" class="edge"><title>Gbg&#45;&gt;association_Gd_intermediate_r</title>
<path fill="none" stroke="black" d="M684.883,-306.804C701.759,-272.236 736.88,-200.293 737.974,-198.054"/>
</g>
<!-- association_RGd_intermediate_r -->
<g id="node62" class="node"><title>association_RGd_intermediate_r</title>
<ellipse fill="black" stroke="black" cx="1603" cy="-372" rx="0.036" ry="0.036"/>
</g>
<!-- Gbg&#45;&gt;association_RGd_intermediate_r -->
<g id="edge77" class="edge"><title>Gbg&#45;&gt;association_RGd_intermediate_r</title>
<path fill="none" stroke="black" d="M702.427,-330.842C723.783,-335.054 754.678,-340 782,-340 782,-340 782,-340 956,-340 1090.41,-340 1123.59,-356 1258,-356 1258,-356 1258,-356 1388,-356 1481.89,-356 1598.3,-371.504 1601.91,-371.988"/>
</g>
<!-- association_LRGd_intermediate_r -->
<g id="node65" class="node"><title>association_LRGd_intermediate_r</title>
<ellipse fill="black" stroke="black" cx="1819" cy="-410" rx="0.036" ry="0.036"/>
</g>
<!-- Gbg&#45;&gt;association_LRGd_intermediate_r -->
<g id="edge82" class="edge"><title>Gbg&#45;&gt;association_LRGd_intermediate_r</title>
<path fill="none" stroke="black" d="M687.253,-343.026C704.385,-367.977 739.54,-410 782,-410 782,-410 782,-410 1692,-410 1747.12,-410 1815.82,-410 1817.95,-410"/>
</g>
<!-- LRG -->
<g id="LRG" class="node"><title>LRG</title>
<path fill="none" stroke="black" d="M474,-489C474,-489 444,-489 444,-489 438,-489 432,-483 432,-477 432,-477 432,-465 432,-465 432,-459 438,-453 444,-453 444,-453 474,-453 474,-453 480,-453 486,-459 486,-465 486,-465 486,-477 486,-477 486,-483 480,-489 474,-489"/>
<text text-anchor="middle" x="459" y="-468.5" font-family="Times,serif" font-size="10.00">LRG</text>
</g>
<!-- exchange_LRG_intermediate_r -->
<g id="node53" class="node"><title>exchange_LRG_intermediate_r</title>
<ellipse fill="black" stroke="black" cx="523" cy="-454" rx="0.036" ry="0.036"/>
</g>
<!-- LRG&#45;&gt;exchange_LRG_intermediate_r -->
<g id="edge63" class="edge"><title>LRG&#45;&gt;exchange_LRG_intermediate_r</title>
<path fill="none" stroke="black" d="M486.294,-463.79C502.664,-459.302 520.826,-454.322 521.946,-454.015"/>
</g>
<!-- LRGt -->
<g id="LRGt [CHEBI:15996]" class="node"><title>LRGt</title>
<path fill="none" stroke="black" d="M1554,-282C1554,-282 1524,-282 1524,-282 1518,-282 1512,-276 1512,-270 1512,-270 1512,-258 1512,-258 1512,-252 1518,-246 1524,-246 1524,-246 1554,-246 1554,-246 1560,-246 1566,-252 1566,-258 1566,-258 1566,-270 1566,-270 1566,-276 1560,-282 1554,-282"/>
<text text-anchor="middle" x="1539" y="-261.5" font-family="Times,serif" font-size="10.00">LRGt</text>
</g>
<!-- hydrolysis_LRGt_intermediate_r -->
<g id="node59" class="node"><title>hydrolysis_LRGt_intermediate_r</title>
<ellipse fill="black" stroke="black" cx="1603" cy="-230" rx="0.036" ry="0.036"/>
</g>
<!-- LRGt&#45;&gt;hydrolysis_LRGt_intermediate_r -->
<g id="edge72" class="edge"><title>LRGt&#45;&gt;hydrolysis_LRGt_intermediate_r</title>
<path fill="none" stroke="black" d="M1566.29,-249.581C1582.66,-240.604 1600.83,-230.644 1601.95,-230.03"/>
</g>
<!-- RGd -->
<g id="RGd [CHEBI:17552]" class="node"><title>RGd</title>
<path fill="none" stroke="black" d="M1554,-96C1554,-96 1524,-96 1524,-96 1518,-96 1512,-90 1512,-84 1512,-84 1512,-72 1512,-72 1512,-66 1518,-60 1524,-60 1524,-60 1554,-60 1554,-60 1560,-60 1566,-66 1566,-72 1566,-72 1566,-84 1566,-84 1566,-90 1560,-96 1554,-96"/>
<text text-anchor="middle" x="1539" y="-75.5" font-family="Times,serif" font-size="10.00">RGd</text>
</g>
<!-- RGd&#45;&gt;association_RGd_intermediate_r -->
<g id="edge76" class="edge"><title>RGd&#45;&gt;association_RGd_intermediate_r</title>
<path fill="none" stroke="black" d="M1547.3,-96.2264C1553.08,-111.252 1560.99,-133.23 1566,-153 1589.86,-247.12 1601.63,-368.151 1601.99,-371.91"/>
</g>
<!-- binding_L_RGd_intermediate_r -->
<g id="node68" class="node"><title>binding_L_RGd_intermediate_r</title>
<ellipse fill="black" stroke="black" cx="1603" cy="-61" rx="0.036" ry="0.036"/>
</g>
<!-- RGd&#45;&gt;binding_L_RGd_intermediate_r -->
<g id="edge86" class="edge"><title>RGd&#45;&gt;binding_L_RGd_intermediate_r</title>
<path fill="none" stroke="black" d="M1566.29,-70.7905C1582.66,-66.3019 1600.83,-61.3218 1601.95,-61.0149"/>
</g>
<!-- exchange_RGd_intermediate_r -->
<g id="node74" class="node"><title>exchange_RGd_intermediate_r</title>
<ellipse fill="black" stroke="black" cx="1603" cy="-83" rx="0.036" ry="0.036"/>
</g>
<!-- RGd&#45;&gt;exchange_RGd_intermediate_r -->
<g id="edge94" class="edge"><title>RGd&#45;&gt;exchange_RGd_intermediate_r</title>
<path fill="none" stroke="black" d="M1566.29,-80.1205C1582.66,-81.4406 1600.83,-82.9054 1601.95,-82.9956"/>
</g>
<!-- RGt -->
<g id="RGt [CHEBI:15996]" class="node"><title>RGt</title>
<path fill="none" stroke="black" d="M1338,-122C1338,-122 1308,-122 1308,-122 1302,-122 1296,-116 1296,-110 1296,-110 1296,-98 1296,-98 1296,-92 1302,-86 1308,-86 1308,-86 1338,-86 1338,-86 1344,-86 1350,-92 1350,-98 1350,-98 1350,-110 1350,-110 1350,-116 1344,-122 1338,-122"/>
<text text-anchor="middle" x="1323" y="-101.5" font-family="Times,serif" font-size="10.00">RGt</text>
</g>
<!-- binding_L_RGt_intermediate_r -->
<g id="node38" class="node"><title>binding_L_RGt_intermediate_r</title>
<ellipse fill="black" stroke="black" cx="1387" cy="-152" rx="0.036" ry="0.036"/>
</g>
<!-- RGt&#45;&gt;binding_L_RGt_intermediate_r -->
<g id="edge40" class="edge"><title>RGt&#45;&gt;binding_L_RGt_intermediate_r</title>
<path fill="none" stroke="black" d="M1347.44,-122.147C1364.45,-135.315 1384.69,-150.986 1385.94,-151.953"/>
</g>
<!-- hydrolysis_RGt_intermediate_r -->
<g id="node56" class="node"><title>hydrolysis_RGt_intermediate_r</title>
<ellipse fill="black" stroke="black" cx="1387" cy="-92" rx="0.036" ry="0.036"/>
</g>
<!-- RGt&#45;&gt;hydrolysis_RGt_intermediate_r -->
<g id="edge68" class="edge"><title>RGt&#45;&gt;hydrolysis_RGt_intermediate_r</title>
<path fill="none" stroke="black" d="M1350.29,-98.9109C1366.66,-95.7425 1384.83,-92.2272 1385.95,-92.0105"/>
</g>
<!-- LRGd -->
<g id="LRGd [CHEBI:17552]" class="node"><title>LRGd</title>
<path fill="none" stroke="black" d="M1770,-236C1770,-236 1740,-236 1740,-236 1734,-236 1728,-230 1728,-224 1728,-224 1728,-212 1728,-212 1728,-206 1734,-200 1740,-200 1740,-200 1770,-200 1770,-200 1776,-200 1782,-206 1782,-212 1782,-212 1782,-224 1782,-224 1782,-230 1776,-236 1770,-236"/>
<text text-anchor="middle" x="1755" y="-215.5" font-family="Times,serif" font-size="10.00">LRGd</text>
</g>
<!-- LRGd&#45;&gt;association_LRGd_intermediate_r -->
<g id="edge81" class="edge"><title>LRGd&#45;&gt;association_LRGd_intermediate_r</title>
<path fill="none" stroke="black" d="M1761.83,-236.063C1777.03,-283.112 1816.73,-406.077 1817.97,-409.908"/>
</g>
<!-- exchange_LRGd_intermediate_r -->
<g id="node77" class="node"><title>exchange_LRGd_intermediate_r</title>
<ellipse fill="black" stroke="black" cx="1819" cy="-221" rx="0.036" ry="0.036"/>
</g>
<!-- LRGd&#45;&gt;exchange_LRGd_intermediate_r -->
<g id="edge98" class="edge"><title>LRGd&#45;&gt;exchange_LRGd_intermediate_r</title>
<path fill="none" stroke="black" d="M1782.29,-219.272C1798.66,-220.064 1816.83,-220.943 1817.95,-220.997"/>
</g>
<!-- binding_R_G -->
<g id="node13" class="node"><title>binding_R_G</title>
<polygon fill="none" stroke="black" points="142,-138 128,-138 128,-124 142,-124 142,-138"/>
</g>
<!-- binding_R_G_intermediate_p -->
<g id="node15" class="node"><title>binding_R_G_intermediate_p</title>
<ellipse fill="black" stroke="black" cx="179" cy="-170" rx="0.036" ry="0.036"/>
</g>
<!-- binding_R_G&#45;&gt;binding_R_G_intermediate_p -->
<g id="edge4" class="edge"><title>binding_R_G&#45;&gt;binding_R_G_intermediate_p</title>
<path fill="none" stroke="black" d="M142.197,-136.755C153.515,-147.264 176.505,-168.611 177.93,-169.935"/>
</g>
<!-- binding_R_G_intermediate_r&#45;&gt;binding_R_G -->
<g id="edge1" class="edge"><title>binding_R_G_intermediate_r&#45;&gt;binding_R_G</title>
<path fill="none" stroke="black" d="M92.1205,-76.1578C94.0066,-78.6277 117.554,-109.463 128.488,-123.781"/>
</g>
<!-- binding_R_G_intermediate_p&#45;&gt;RG -->
<g id="edge5" class="edge"><title>binding_R_G_intermediate_p&#45;&gt;RG</title>
<path fill="none" stroke="black" d="M180.045,-170.014C180.871,-170.267 192.968,-173.974 206.256,-178.046"/>
<polygon fill="black" stroke="black" points="205.412,-181.448 215.998,-181.032 207.463,-174.755 205.412,-181.448"/>
</g>
<!-- binding_L_R -->
<g id="node16" class="node"><title>binding_L_R</title>
<polygon fill="none" stroke="black" points="790,-268 776,-268 776,-254 790,-254 790,-268"/>
</g>
<!-- binding_L_R_intermediate_p -->
<g id="node18" class="node"><title>binding_L_R_intermediate_p</title>
<ellipse fill="black" stroke="black" cx="827" cy="-258" rx="0.036" ry="0.036"/>
</g>
<!-- binding_L_R&#45;&gt;binding_L_R_intermediate_p -->
<g id="edge8" class="edge"><title>binding_L_R&#45;&gt;binding_L_R_intermediate_p</title>
<path fill="none" stroke="black" d="M790.197,-260.557C801.515,-259.749 824.505,-258.107 825.93,-258.005"/>
</g>
<!-- binding_L_R_intermediate_r&#45;&gt;binding_L_R -->
<g id="edge6" class="edge"><title>binding_L_R_intermediate_r&#45;&gt;binding_L_R</title>
<path fill="none" stroke="black" d="M92.0236,-179.062C93.0133,-181.635 125.099,-264 178,-264 178,-264 178,-264 676,-264 713.925,-264 759.452,-262.057 775.789,-261.299"/>
</g>
<!-- binding_L_R_intermediate_p&#45;&gt;LR -->
<g id="edge9" class="edge"><title>binding_L_R_intermediate_p&#45;&gt;LR</title>
<path fill="none" stroke="black" d="M828.045,-257.997C828.863,-257.944 840.734,-257.178 853.87,-256.331"/>
<polygon fill="black" stroke="black" points="854.244,-259.814 863.998,-255.678 853.794,-252.829 854.244,-259.814"/>
</g>
<!-- binding_R_Gt -->
<g id="node19" class="node"><title>binding_R_Gt</title>
<polygon fill="none" stroke="black" points="1222,-84 1208,-84 1208,-70 1222,-70 1222,-84"/>
</g>
<!-- binding_R_Gt_intermediate_p -->
<g id="node21" class="node"><title>binding_R_Gt_intermediate_p</title>
<ellipse fill="black" stroke="black" cx="1259" cy="-80" rx="0.036" ry="0.036"/>
</g>
<!-- binding_R_Gt&#45;&gt;binding_R_Gt_intermediate_p -->
<g id="edge13" class="edge"><title>binding_R_Gt&#45;&gt;binding_R_Gt_intermediate_p</title>
<path fill="none" stroke="black" d="M1222.2,-77.4427C1233.52,-78.2511 1256.5,-79.8932 1257.93,-79.995"/>
</g>
<!-- binding_R_Gt_intermediate_r&#45;&gt;binding_R_Gt -->
<g id="edge10" class="edge"><title>binding_R_Gt_intermediate_r&#45;&gt;binding_R_Gt</title>
<path fill="none" stroke="black" d="M1172.12,-77C1173.97,-77 1196.6,-77 1207.8,-77"/>
</g>
<!-- binding_R_Gt_intermediate_p&#45;&gt;RGt -->
<g id="edge14" class="edge"><title>binding_R_Gt_intermediate_p&#45;&gt;RGt</title>
<path fill="none" stroke="black" d="M1260.04,-80.0174C1260.88,-80.3403 1273.2,-85.1113 1286.64,-90.3136"/>
<polygon fill="black" stroke="black" points="1285.41,-93.5888 1296,-93.9348 1287.94,-87.0608 1285.41,-93.5888"/>
</g>
<!-- binding_R_Gd -->
<g id="node22" class="node"><title>binding_R_Gd</title>
<polygon fill="none" stroke="black" points="1438,-64 1424,-64 1424,-50 1438,-50 1438,-64"/>
</g>
<!-- binding_R_Gd_intermediate_p -->
<g id="node24" class="node"><title>binding_R_Gd_intermediate_p</title>
<ellipse fill="black" stroke="black" cx="1475" cy="-61" rx="0.036" ry="0.036"/>
</g>
<!-- binding_R_Gd&#45;&gt;binding_R_Gd_intermediate_p -->
<g id="edge18" class="edge"><title>binding_R_Gd&#45;&gt;binding_R_Gd_intermediate_p</title>
<path fill="none" stroke="black" d="M1438.2,-57.5902C1449.52,-58.6681 1472.5,-60.8576 1473.93,-60.9934"/>
</g>
<!-- binding_R_Gd_intermediate_r&#45;&gt;binding_R_Gd -->
<g id="edge15" class="edge"><title>binding_R_Gd_intermediate_r&#45;&gt;binding_R_Gd</title>
<path fill="none" stroke="black" d="M1388.12,-57C1389.97,-57 1412.6,-57 1423.8,-57"/>
</g>
<!-- binding_R_Gd_intermediate_p&#45;&gt;RGd -->
<g id="edge19" class="edge"><title>binding_R_Gd_intermediate_p&#45;&gt;RGd</title>
<path fill="none" stroke="black" d="M1476.04,-61.0123C1476.87,-61.2389 1488.97,-64.5558 1502.26,-68.1993"/>
<polygon fill="black" stroke="black" points="1501.43,-71.6015 1512,-70.8705 1503.28,-64.8507 1501.43,-71.6015"/>
</g>
<!-- binding_LR_G -->
<g id="node25" class="node"><title>binding_LR_G</title>
<polygon fill="none" stroke="black" points="1006,-382 992,-382 992,-368 1006,-368 1006,-382"/>
</g>
<!-- binding_LR_G_intermediate_p -->
<g id="node27" class="node"><title>binding_LR_G_intermediate_p</title>
<ellipse fill="black" stroke="black" cx="1043" cy="-378" rx="0.036" ry="0.036"/>
</g>
<!-- binding_LR_G&#45;&gt;binding_LR_G_intermediate_p -->
<g id="edge23" class="edge"><title>binding_LR_G&#45;&gt;binding_LR_G_intermediate_p</title>
<path fill="none" stroke="black" d="M1006.2,-375.443C1017.52,-376.251 1040.5,-377.893 1041.93,-377.995"/>
</g>
<!-- binding_LR_G_intermediate_r&#45;&gt;binding_LR_G -->
<g id="edge20" class="edge"><title>binding_LR_G_intermediate_r&#45;&gt;binding_LR_G</title>
<path fill="none" stroke="black" d="M956.03,-198.128C957.143,-202.818 988.442,-334.718 996.249,-367.62"/>
</g>
<!-- binding_LR_G_intermediate_p&#45;&gt;LRG -->
<g id="edge24" class="edge"><title>binding_LR_G_intermediate_p&#45;&gt;LRG</title>
<path fill="none" stroke="black" d="M1041.95,-378.078C1039.88,-381.349 972.865,-486 892,-486 566,-486 566,-486 566,-486 542.734,-486 516.876,-482.413 496.524,-478.748"/>
<polygon fill="black" stroke="black" points="496.902,-475.257 486.427,-476.842 495.604,-482.136 496.902,-475.257"/>
</g>
<!-- binding_LR_Gt -->
<g id="node28" class="node"><title>binding_LR_Gt</title>
<polygon fill="none" stroke="black" points="1222,-301 1208,-301 1208,-287 1222,-287 1222,-301"/>
</g>
<!-- binding_LR_Gt_intermediate_p -->
<g id="node30" class="node"><title>binding_LR_Gt_intermediate_p</title>
<ellipse fill="black" stroke="black" cx="1323" cy="-296" rx="0.036" ry="0.036"/>
</g>
<!-- binding_LR_Gt&#45;&gt;binding_LR_Gt_intermediate_p -->
<g id="edge28" class="edge"><title>binding_LR_Gt&#45;&gt;binding_LR_Gt_intermediate_p</title>
<path fill="none" stroke="black" d="M1222,-294.113C1244.08,-294.53 1319.59,-295.955 1321.94,-295.999"/>
</g>
<!-- binding_LR_Gt_intermediate_r&#45;&gt;binding_LR_Gt -->
<g id="edge25" class="edge"><title>binding_LR_Gt_intermediate_r&#45;&gt;binding_LR_Gt</title>
<path fill="none" stroke="black" d="M1172.12,-286.023C1173.97,-286.375 1196.6,-290.686 1207.8,-292.82"/>
</g>
<!-- binding_LR_Gt_intermediate_p&#45;&gt;LRGt -->
<g id="edge29" class="edge"><title>binding_LR_Gt_intermediate_p&#45;&gt;LRGt</title>
<path fill="none" stroke="black" d="M1324.16,-295.977C1328.91,-295.266 1441.68,-278.402 1501.5,-269.458"/>
<polygon fill="black" stroke="black" points="1502.29,-272.878 1511.67,-267.938 1501.26,-265.955 1502.29,-272.878"/>
</g>
<!-- binding_LR_Gd -->
<g id="node31" class="node"><title>binding_LR_Gd</title>
<polygon fill="none" stroke="black" points="1438,-166 1424,-166 1424,-152 1438,-152 1438,-166"/>
</g>
<!-- binding_LR_Gd_intermediate_p -->
<g id="node33" class="node"><title>binding_LR_Gd_intermediate_p</title>
<ellipse fill="black" stroke="black" cx="1539" cy="-162" rx="0.036" ry="0.036"/>
</g>
<!-- binding_LR_Gd&#45;&gt;binding_LR_Gd_intermediate_p -->
<g id="edge33" class="edge"><title>binding_LR_Gd&#45;&gt;binding_LR_Gd_intermediate_p</title>
<path fill="none" stroke="black" d="M1438,-159.17C1460.08,-159.795 1535.59,-161.932 1537.94,-161.998"/>
</g>
<!-- binding_LR_Gd_intermediate_r&#45;&gt;binding_LR_Gd -->
<g id="edge30" class="edge"><title>binding_LR_Gd_intermediate_r&#45;&gt;binding_LR_Gd</title>
<path fill="none" stroke="black" d="M1388.12,-169.968C1389.97,-169.485 1412.6,-163.557 1423.8,-160.623"/>
</g>
<!-- binding_LR_Gd_intermediate_p&#45;&gt;LRGd -->
<g id="edge34" class="edge"><title>binding_LR_Gd_intermediate_p&#45;&gt;LRGd</title>
<path fill="none" stroke="black" d="M1540.16,-162.041C1544.92,-163.287 1658.15,-192.918 1717.87,-208.545"/>
<polygon fill="black" stroke="black" points="1717.11,-211.963 1727.67,-211.109 1718.88,-205.191 1717.11,-211.963"/>
</g>
<!-- binding_L_RG -->
<g id="node34" class="node"><title>binding_L_RG</title>
<polygon fill="none" stroke="black" points="358,-229 344,-229 344,-215 358,-215 358,-229"/>
</g>
<!-- binding_L_RG_intermediate_p -->
<g id="node36" class="node"><title>binding_L_RG_intermediate_p</title>
<ellipse fill="black" stroke="black" cx="395" cy="-381" rx="0.036" ry="0.036"/>
</g>
<!-- binding_L_RG&#45;&gt;binding_L_RG_intermediate_p -->
<g id="edge37" class="edge"><title>binding_L_RG&#45;&gt;binding_L_RG_intermediate_p</title>
<path fill="none" stroke="black" d="M353.914,-229.245C362.002,-259.864 393.01,-377.252 393.977,-380.912"/>
</g>
<!-- binding_L_RG_intermediate_r&#45;&gt;binding_L_RG -->
<g id="edge35" class="edge"><title>binding_L_RG_intermediate_r&#45;&gt;binding_L_RG</title>
<path fill="none" stroke="black" d="M308.12,-198.069C309.968,-199.125 332.602,-212.058 343.803,-218.459"/>
</g>
<!-- binding_L_RG_intermediate_p&#45;&gt;LRG -->
<g id="edge38" class="edge"><title>binding_L_RG_intermediate_p&#45;&gt;LRG</title>
<path fill="none" stroke="black" d="M396.045,-381.065C397.238,-382.796 421.914,-418.618 439.759,-444.521"/>
<polygon fill="black" stroke="black" points="436.949,-446.612 445.505,-452.862 442.714,-442.641 436.949,-446.612"/>
</g>
<!-- binding_L_RGt -->
<g id="node37" class="node"><title>binding_L_RGt</title>
<polygon fill="none" stroke="black" points="1438,-198 1424,-198 1424,-184 1438,-184 1438,-198"/>
</g>
<!-- binding_L_RGt_intermediate_p -->
<g id="node39" class="node"><title>binding_L_RGt_intermediate_p</title>
<ellipse fill="black" stroke="black" cx="1475" cy="-204" rx="0.036" ry="0.036"/>
</g>
<!-- binding_L_RGt&#45;&gt;binding_L_RGt_intermediate_p -->
<g id="edge41" class="edge"><title>binding_L_RGt&#45;&gt;binding_L_RGt_intermediate_p</title>
<path fill="none" stroke="black" d="M1438.2,-192.918C1449.52,-196.421 1472.5,-203.537 1473.93,-203.978"/>
</g>
<!-- binding_L_RGt_intermediate_r&#45;&gt;binding_L_RGt -->
<g id="edge39" class="edge"><title>binding_L_RGt_intermediate_r&#45;&gt;binding_L_RGt</title>
<path fill="none" stroke="black" d="M1388.12,-152.112C1389.97,-153.828 1412.6,-174.844 1423.8,-185.245"/>
</g>
<!-- binding_L_RGt_intermediate_p&#45;&gt;LRGt -->
<g id="edge42" class="edge"><title>binding_L_RGt_intermediate_p&#45;&gt;LRGt</title>
<path fill="none" stroke="black" d="M1476.04,-204.043C1477.07,-205.034 1495.4,-222.778 1511.86,-238.706"/>
<polygon fill="black" stroke="black" points="1509.6,-241.391 1519.22,-245.83 1514.47,-236.361 1509.6,-241.391"/>
</g>
<!-- exchange_G -->
<g id="node40" class="node"><title>exchange_G</title>
<polygon fill="none" stroke="black" points="1006,-196 992,-196 992,-182 1006,-182 1006,-196"/>
</g>
<!-- exchange_G_intermediate_p -->
<g id="node42" class="node"><title>exchange_G_intermediate_p</title>
<ellipse fill="black" stroke="black" cx="1043" cy="-234" rx="0.036" ry="0.036"/>
</g>
<!-- exchange_G&#45;&gt;exchange_G_intermediate_p -->
<g id="edge45" class="edge"><title>exchange_G&#45;&gt;exchange_G_intermediate_p</title>
<path fill="none" stroke="black" d="M1006.2,-195.64C1017.52,-207.766 1040.5,-232.398 1041.93,-233.925"/>
</g>
<!-- exchange_G_intermediate_r&#45;&gt;exchange_G -->
<g id="edge43" class="edge"><title>exchange_G_intermediate_r&#45;&gt;exchange_G</title>
<path fill="none" stroke="black" d="M956.12,-180.026C957.968,-180.422 980.602,-185.272 991.803,-187.672"/>
</g>
<!-- exchange_G_intermediate_p&#45;&gt;Gt -->
<g id="edge46" class="edge"><title>exchange_G_intermediate_p&#45;&gt;Gt</title>
<path fill="none" stroke="black" d="M1044.04,-234C1044.86,-234 1056.73,-234 1069.87,-234"/>
<polygon fill="black" stroke="black" points="1070,-237.5 1080,-234 1070,-230.5 1070,-237.5"/>
</g>
<!-- exchange_G_intermediate_p&#45;&gt;Gbg -->
<g id="edge47" class="edge"><title>exchange_G_intermediate_p&#45;&gt;Gbg</title>
<path fill="none" stroke="black" d="M1041.97,-234.049C1040.83,-236.108 1003.97,-302 956,-302 782,-302 782,-302 782,-302 758.319,-302 732.326,-307.55 712.006,-313.197"/>
<polygon fill="black" stroke="black" points="710.855,-309.887 702.231,-316.042 712.81,-316.608 710.855,-309.887"/>
</g>
<!-- hydrolysis_Gt -->
<g id="node43" class="node"><title>hydrolysis_Gt</title>
<polygon fill="none" stroke="black" points="1222,-230 1208,-230 1208,-216 1222,-216 1222,-230"/>
</g>
<!-- hydrolysis_Gt_intermediate_p -->
<g id="node45" class="node"><title>hydrolysis_Gt_intermediate_p</title>
<ellipse fill="black" stroke="black" cx="1259" cy="-220" rx="0.036" ry="0.036"/>
</g>
<!-- hydrolysis_Gt&#45;&gt;hydrolysis_Gt_intermediate_p -->
<g id="edge50" class="edge"><title>hydrolysis_Gt&#45;&gt;hydrolysis_Gt_intermediate_p</title>
<path fill="none" stroke="black" d="M1222.2,-222.557C1233.52,-221.749 1256.5,-220.107 1257.93,-220.005"/>
</g>
<!-- hydrolysis_Gt_intermediate_r&#45;&gt;hydrolysis_Gt -->
<g id="edge48" class="edge"><title>hydrolysis_Gt_intermediate_r&#45;&gt;hydrolysis_Gt</title>
<path fill="none" stroke="black" d="M1172.12,-226.989C1173.97,-226.813 1196.6,-224.657 1207.8,-223.59"/>
</g>
<!-- hydrolysis_Gt_intermediate_p&#45;&gt;Gd -->
<g id="edge51" class="edge"><title>hydrolysis_Gt_intermediate_p&#45;&gt;Gd</title>
<path fill="none" stroke="black" d="M1260.04,-219.983C1260.88,-219.66 1273.2,-214.889 1286.64,-209.686"/>
<polygon fill="black" stroke="black" points="1287.94,-212.939 1296,-206.065 1285.41,-206.411 1287.94,-212.939"/>
</g>
<!-- association_Gd -->
<g id="node46" class="node"><title>association_Gd</title>
<polygon fill="none" stroke="black" points="790,-205 776,-205 776,-191 790,-191 790,-205"/>
</g>
<!-- association_Gd_intermediate_p -->
<g id="node48" class="node"><title>association_Gd_intermediate_p</title>
<ellipse fill="black" stroke="black" cx="827" cy="-198" rx="0.036" ry="0.036"/>
</g>
<!-- association_Gd&#45;&gt;association_Gd_intermediate_p -->
<g id="edge55" class="edge"><title>association_Gd&#45;&gt;association_Gd_intermediate_p</title>
<path fill="none" stroke="black" d="M790.197,-198C801.515,-198 824.505,-198 825.93,-198"/>
</g>
<!-- association_Gd_intermediate_r&#45;&gt;association_Gd -->
<g id="edge52" class="edge"><title>association_Gd_intermediate_r&#45;&gt;association_Gd</title>
<path fill="none" stroke="black" d="M740.12,-198C741.968,-198 764.602,-198 775.803,-198"/>
</g>
<!-- association_Gd_intermediate_p&#45;&gt;G -->
<g id="edge56" class="edge"><title>association_Gd_intermediate_p&#45;&gt;G</title>
<path fill="none" stroke="black" d="M828.045,-198C828.863,-198 840.734,-198 853.87,-198"/>
<polygon fill="black" stroke="black" points="853.998,-201.5 863.998,-198 853.998,-194.5 853.998,-201.5"/>
</g>
<!-- exchange_RG -->
<g id="node49" class="node"><title>exchange_RG</title>
<polygon fill="none" stroke="black" points="574,-187 560,-187 560,-173 574,-173 574,-187"/>
</g>
<!-- exchange_RG_intermediate_p -->
<g id="node51" class="node"><title>exchange_RG_intermediate_p</title>
<ellipse fill="black" stroke="black" cx="611" cy="-180" rx="0.036" ry="0.036"/>
</g>
<!-- exchange_RG&#45;&gt;exchange_RG_intermediate_p -->
<g id="edge59" class="edge"><title>exchange_RG&#45;&gt;exchange_RG_intermediate_p</title>
<path fill="none" stroke="black" d="M574.197,-180C585.515,-180 608.505,-180 609.93,-180"/>
</g>
<!-- exchange_RG_intermediate_r&#45;&gt;exchange_RG -->
<g id="edge57" class="edge"><title>exchange_RG_intermediate_r&#45;&gt;exchange_RG</title>
<path fill="none" stroke="black" d="M308.138,-180C310.977,-180 356.972,-180 394,-180 394,-180 394,-180 460,-180 497.91,-180 543.446,-180 559.787,-180"/>
</g>
<!-- exchange_RG_intermediate_p&#45;&gt;RGt -->
<g id="edge60" class="edge"><title>exchange_RG_intermediate_p&#45;&gt;RGt</title>
<path fill="none" stroke="black" d="M612.046,-179.952C613.962,-177.954 675.77,-114 738,-114 738,-114 738,-114 784,-114 927.114,-114 962.886,-112 1106,-112 1106,-112 1106,-112 1216,-112 1239.26,-112 1265.31,-110.061 1285.76,-108.092"/>
<polygon fill="black" stroke="black" points="1286.31,-111.555 1295.9,-107.07 1285.6,-104.591 1286.31,-111.555"/>
</g>
<!-- exchange_RG_intermediate_p&#45;&gt;Gbg -->
<g id="edge61" class="edge"><title>exchange_RG_intermediate_p&#45;&gt;Gbg</title>
<path fill="none" stroke="black" d="M612.045,-180.105C613.393,-183.257 644.731,-256.548 662.308,-297.656"/>
<polygon fill="black" stroke="black" points="659.098,-299.051 666.248,-306.869 665.534,-296.299 659.098,-299.051"/>
</g>
<!-- exchange_LRG -->
<g id="node52" class="node"><title>exchange_LRG</title>
<polygon fill="none" stroke="black" points="574,-457 560,-457 560,-443 574,-443 574,-457"/>
</g>
<!-- exchange_LRG_intermediate_p -->
<g id="node54" class="node"><title>exchange_LRG_intermediate_p</title>
<ellipse fill="black" stroke="black" cx="611" cy="-448" rx="0.036" ry="0.036"/>
</g>
<!-- exchange_LRG&#45;&gt;exchange_LRG_intermediate_p -->
<g id="edge64" class="edge"><title>exchange_LRG&#45;&gt;exchange_LRG_intermediate_p</title>
<path fill="none" stroke="black" d="M574.197,-449.705C585.515,-449.166 608.505,-448.071 609.93,-448.003"/>
</g>
<!-- exchange_LRG_intermediate_r&#45;&gt;exchange_LRG -->
<g id="edge62" class="edge"><title>exchange_LRG_intermediate_r&#45;&gt;exchange_LRG</title>
<path fill="none" stroke="black" d="M524.12,-453.989C525.968,-453.813 548.602,-451.657 559.803,-450.59"/>
</g>
<!-- exchange_LRG_intermediate_p&#45;&gt;LRGt -->
<g id="edge65" class="edge"><title>exchange_LRG_intermediate_p&#45;&gt;LRGt</title>
<path fill="none" stroke="black" d="M612.051,-448C614.184,-448 682.875,-448 738,-448 738,-448 738,-448 892,-448 987.485,-448 1010.51,-467 1106,-467 1106,-467 1106,-467 1260,-467 1378.56,-467 1480.32,-345.089 1520.11,-290.217"/>
<polygon fill="black" stroke="black" points="1523,-292.189 1525.96,-282.015 1517.3,-288.125 1523,-292.189"/>
</g>
<!-- exchange_LRG_intermediate_p&#45;&gt;Gbg -->
<g id="edge66" class="edge"><title>exchange_LRG_intermediate_p&#45;&gt;Gbg</title>
<path fill="none" stroke="black" d="M612.045,-447.911C613.339,-445.344 642.271,-387.947 660.135,-352.507"/>
<polygon fill="black" stroke="black" points="663.472,-353.662 664.848,-343.157 657.221,-350.512 663.472,-353.662"/>
</g>
<!-- hydrolysis_RGt -->
<g id="node55" class="node"><title>hydrolysis_RGt</title>
<polygon fill="none" stroke="black" points="1438,-96 1424,-96 1424,-82 1438,-82 1438,-96"/>
</g>
<!-- hydrolysis_RGt_intermediate_p -->
<g id="node57" class="node"><title>hydrolysis_RGt_intermediate_p</title>
<ellipse fill="black" stroke="black" cx="1475" cy="-83" rx="0.036" ry="0.036"/>
</g>
<!-- hydrolysis_RGt&#45;&gt;hydrolysis_RGt_intermediate_p -->
<g id="edge69" class="edge"><title>hydrolysis_RGt&#45;&gt;hydrolysis_RGt_intermediate_p</title>
<path fill="none" stroke="black" d="M1438.2,-88.1147C1449.52,-86.4978 1472.5,-83.2136 1473.93,-83.0099"/>
</g>
<!-- hydrolysis_RGt_intermediate_r&#45;&gt;hydrolysis_RGt -->
<g id="edge67" class="edge"><title>hydrolysis_RGt_intermediate_r&#45;&gt;hydrolysis_RGt</title>
<path fill="none" stroke="black" d="M1388.12,-91.9914C1389.97,-91.8594 1412.6,-90.2427 1423.8,-89.4427"/>
</g>
<!-- hydrolysis_RGt_intermediate_p&#45;&gt;RGd -->
<g id="edge70" class="edge"><title>hydrolysis_RGt_intermediate_p&#45;&gt;RGd</title>
<path fill="none" stroke="black" d="M1476.04,-82.9964C1476.86,-82.9304 1488.73,-81.973 1501.87,-80.9137"/>
<polygon fill="black" stroke="black" points="1502.31,-84.3895 1512,-80.0969 1501.75,-77.4122 1502.31,-84.3895"/>
</g>
<!-- hydrolysis_LRGt -->
<g id="node58" class="node"><title>hydrolysis_LRGt</title>
<polygon fill="none" stroke="black" points="1654,-231 1640,-231 1640,-217 1654,-217 1654,-231"/>
</g>
<!-- hydrolysis_LRGt_intermediate_p -->
<g id="node60" class="node"><title>hydrolysis_LRGt_intermediate_p</title>
<ellipse fill="black" stroke="black" cx="1691" cy="-221" rx="0.036" ry="0.036"/>
</g>
<!-- hydrolysis_LRGt&#45;&gt;hydrolysis_LRGt_intermediate_p -->
<g id="edge73" class="edge"><title>hydrolysis_LRGt&#45;&gt;hydrolysis_LRGt_intermediate_p</title>
<path fill="none" stroke="black" d="M1654.2,-223.557C1665.52,-222.749 1688.5,-221.107 1689.93,-221.005"/>
</g>
<!-- hydrolysis_LRGt_intermediate_r&#45;&gt;hydrolysis_LRGt -->
<g id="edge71" class="edge"><title>hydrolysis_LRGt_intermediate_r&#45;&gt;hydrolysis_LRGt</title>
<path fill="none" stroke="black" d="M1604.12,-229.983C1605.97,-229.719 1628.6,-226.485 1639.8,-224.885"/>
</g>
<!-- hydrolysis_LRGt_intermediate_p&#45;&gt;LRGd -->
<g id="edge74" class="edge"><title>hydrolysis_LRGt_intermediate_p&#45;&gt;LRGd</title>
<path fill="none" stroke="black" d="M1692.04,-220.998C1692.86,-220.958 1704.73,-220.384 1717.87,-219.748"/>
<polygon fill="black" stroke="black" points="1718.18,-223.237 1728,-219.258 1717.84,-216.246 1718.18,-223.237"/>
</g>
<!-- association_RGd -->
<g id="node61" class="node"><title>association_RGd</title>
<polygon fill="none" stroke="black" points="1654,-474 1640,-474 1640,-460 1654,-460 1654,-474"/>
</g>
<!-- association_RGd_intermediate_p -->
<g id="node63" class="node"><title>association_RGd_intermediate_p</title>
<ellipse fill="black" stroke="black" cx="1691" cy="-481" rx="0.036" ry="0.036"/>
</g>
<!-- association_RGd&#45;&gt;association_RGd_intermediate_p -->
<g id="edge78" class="edge"><title>association_RGd&#45;&gt;association_RGd_intermediate_p</title>
<path fill="none" stroke="black" d="M1654.2,-469.066C1665.52,-472.838 1688.5,-480.502 1689.93,-480.977"/>
</g>
<!-- association_RGd_intermediate_r&#45;&gt;association_RGd -->
<g id="edge75" class="edge"><title>association_RGd_intermediate_r&#45;&gt;association_RGd</title>
<path fill="none" stroke="black" d="M1604.03,-372.069C1605.08,-374.451 1633.17,-437.991 1642.8,-459.762"/>
</g>
<!-- association_RGd_intermediate_p&#45;&gt;RG -->
<g id="edge79" class="edge"><title>association_RGd_intermediate_p&#45;&gt;RG</title>
<path fill="none" stroke="black" d="M1689.98,-481.059C1688.95,-483.511 1655.69,-562 1604,-562 566,-562 566,-562 566,-562 383.706,-562 281.789,-303.568 252.743,-216.928"/>
<polygon fill="black" stroke="black" points="256.008,-215.651 249.562,-207.243 249.357,-217.836 256.008,-215.651"/>
</g>
<!-- association_LRGd -->
<g id="node64" class="node"><title>association_LRGd</title>
<polygon fill="none" stroke="black" points="1870,-456 1856,-456 1856,-442 1870,-442 1870,-456"/>
</g>
<!-- association_LRGd_intermediate_p -->
<g id="node66" class="node"><title>association_LRGd_intermediate_p</title>
<ellipse fill="black" stroke="black" cx="1906" cy="-486" rx="0.036" ry="0.036"/>
</g>
<!-- association_LRGd&#45;&gt;association_LRGd_intermediate_p -->
<g id="edge83" class="edge"><title>association_LRGd&#45;&gt;association_LRGd_intermediate_p</title>
<path fill="none" stroke="black" d="M1870.05,-454.459C1881.1,-464.43 1903.54,-484.683 1904.93,-485.939"/>
</g>
<!-- association_LRGd_intermediate_r&#45;&gt;association_LRGd -->
<g id="edge80" class="edge"><title>association_LRGd_intermediate_r&#45;&gt;association_LRGd</title>
<path fill="none" stroke="black" d="M1820.12,-410.112C1821.97,-411.828 1844.6,-432.844 1855.8,-443.245"/>
</g>
<!-- association_LRGd_intermediate_p&#45;&gt;LRG -->
<g id="edge84" class="edge"><title>association_LRGd_intermediate_p&#45;&gt;LRG</title>
<path fill="none" stroke="black" d="M1904.87,-486.109C1902.28,-488.338 1860.09,-524 1820,-524 566,-524 566,-524 566,-524 538.095,-524 510.006,-509.124 489.76,-495.135"/>
<polygon fill="black" stroke="black" points="491.745,-492.251 481.587,-489.24 487.65,-497.928 491.745,-492.251"/>
</g>
<!-- binding_L_RGd -->
<g id="node67" class="node"><title>binding_L_RGd</title>
<polygon fill="none" stroke="black" points="1654,-64 1640,-64 1640,-50 1654,-50 1654,-64"/>
</g>
<!-- binding_L_RGd_intermediate_p -->
<g id="node69" class="node"><title>binding_L_RGd_intermediate_p</title>
<ellipse fill="black" stroke="black" cx="1691" cy="-70" rx="0.036" ry="0.036"/>
</g>
<!-- binding_L_RGd&#45;&gt;binding_L_RGd_intermediate_p -->
<g id="edge87" class="edge"><title>binding_L_RGd&#45;&gt;binding_L_RGd_intermediate_p</title>
<path fill="none" stroke="black" d="M1654.2,-58.9182C1665.52,-62.4214 1688.5,-69.5372 1689.93,-69.9785"/>
</g>
<!-- binding_L_RGd_intermediate_r&#45;&gt;binding_L_RGd -->
<g id="edge85" class="edge"><title>binding_L_RGd_intermediate_r&#45;&gt;binding_L_RGd</title>
<path fill="none" stroke="black" d="M1604.12,-60.9885C1605.97,-60.8126 1628.6,-58.657 1639.8,-57.5902"/>
</g>
<!-- binding_L_RGd_intermediate_p&#45;&gt;LRGd -->
<g id="edge88" class="edge"><title>binding_L_RGd_intermediate_p&#45;&gt;LRGd</title>
<path fill="none" stroke="black" d="M1692.04,-70.1073C1693.4,-73.3325 1724.89,-148.509 1742.44,-190.407"/>
<polygon fill="black" stroke="black" points="1739.28,-191.916 1746.37,-199.787 1745.73,-189.212 1739.28,-191.916"/>
</g>
<!-- exchange_Gd -->
<g id="node70" class="node"><title>exchange_Gd</title>
<polygon fill="none" stroke="black" points="1438,-230 1424,-230 1424,-216 1438,-216 1438,-230"/>
</g>
<!-- exchange_Gd_intermediate_p -->
<g id="node72" class="node"><title>exchange_Gd_intermediate_p</title>
<ellipse fill="black" stroke="black" cx="1475" cy="-246" rx="0.036" ry="0.036"/>
</g>
<!-- exchange_Gd&#45;&gt;exchange_Gd_intermediate_p -->
<g id="edge91" class="edge"><title>exchange_Gd&#45;&gt;exchange_Gd_intermediate_p</title>
<path fill="none" stroke="black" d="M1438.2,-226.394C1449.52,-232.592 1472.5,-245.181 1473.93,-245.962"/>
</g>
<!-- exchange_Gd_intermediate_r&#45;&gt;exchange_Gd -->
<g id="edge89" class="edge"><title>exchange_Gd_intermediate_r&#45;&gt;exchange_Gd</title>
<path fill="none" stroke="black" d="M1388.12,-209.04C1389.97,-209.656 1412.6,-217.201 1423.8,-220.934"/>
</g>
<!-- exchange_Gd_intermediate_p&#45;&gt;Gt -->
<g id="edge92" class="edge"><title>exchange_Gd_intermediate_p&#45;&gt;Gt</title>
<path fill="none" stroke="black" d="M1473.86,-246.034C1471.05,-246.738 1425.39,-258 1388,-258 1214,-258 1214,-258 1214,-258 1190.27,-258 1164.28,-252.209 1143.97,-246.316"/>
<polygon fill="black" stroke="black" points="1144.79,-242.906 1134.2,-243.348 1142.75,-249.604 1144.79,-242.906"/>
</g>
<!-- exchange_RGd -->
<g id="node73" class="node"><title>exchange_RGd</title>
<polygon fill="none" stroke="black" points="1654,-96 1640,-96 1640,-82 1654,-82 1654,-96"/>
</g>
<!-- exchange_RGd_intermediate_p -->
<g id="node75" class="node"><title>exchange_RGd_intermediate_p</title>
<ellipse fill="black" stroke="black" cx="1691" cy="-112" rx="0.036" ry="0.036"/>
</g>
<!-- exchange_RGd&#45;&gt;exchange_RGd_intermediate_p -->
<g id="edge95" class="edge"><title>exchange_RGd&#45;&gt;exchange_RGd_intermediate_p</title>
<path fill="none" stroke="black" d="M1654.2,-92.3937C1665.52,-98.5916 1688.5,-111.181 1689.93,-111.962"/>
</g>
<!-- exchange_RGd_intermediate_r&#45;&gt;exchange_RGd -->
<g id="edge93" class="edge"><title>exchange_RGd_intermediate_r&#45;&gt;exchange_RGd</title>
<path fill="none" stroke="black" d="M1604.12,-83.0172C1605.97,-83.2812 1628.6,-86.5145 1639.8,-88.1147"/>
</g>
<!-- exchange_RGd_intermediate_p&#45;&gt;RGt -->
<g id="edge96" class="edge"><title>exchange_RGd_intermediate_p&#45;&gt;RGt</title>
<path fill="none" stroke="black" d="M1689.86,-112.034C1687.05,-112.738 1641.39,-124 1604,-124 1430,-124 1430,-124 1430,-124 1406.45,-124 1380.46,-119.174 1360.11,-114.263"/>
<polygon fill="black" stroke="black" points="1360.87,-110.845 1350.31,-111.79 1359.15,-117.632 1360.87,-110.845"/>
</g>
<!-- exchange_LRGd -->
<g id="node76" class="node"><title>exchange_LRGd</title>
<polygon fill="none" stroke="black" points="1870,-233 1856,-233 1856,-219 1870,-219 1870,-233"/>
</g>
<!-- exchange_LRGd_intermediate_p -->
<g id="node78" class="node"><title>exchange_LRGd_intermediate_p</title>
<ellipse fill="black" stroke="black" cx="1906" cy="-245" rx="0.036" ry="0.036"/>
</g>
<!-- exchange_LRGd&#45;&gt;exchange_LRGd_intermediate_p -->
<g id="edge99" class="edge"><title>exchange_LRGd&#45;&gt;exchange_LRGd_intermediate_p</title>
<path fill="none" stroke="black" d="M1870.05,-228.804C1881.1,-233.924 1903.54,-244.324 1904.93,-244.969"/>
</g>
<!-- exchange_LRGd_intermediate_r&#45;&gt;exchange_LRGd -->
<g id="edge97" class="edge"><title>exchange_LRGd_intermediate_r&#45;&gt;exchange_LRGd</title>
<path fill="none" stroke="black" d="M1820.12,-221.014C1821.97,-221.234 1844.6,-223.929 1855.8,-225.262"/>
</g>
<!-- exchange_LRGd_intermediate_p&#45;&gt;LRGt -->
<g id="edge100" class="edge"><title>exchange_LRGd_intermediate_p&#45;&gt;LRGt</title>
<path fill="none" stroke="black" d="M1904.87,-245.055C1902.11,-246.169 1857.5,-264 1820,-264 1646,-264 1646,-264 1646,-264 1622.81,-264 1596.76,-264 1576.29,-264"/>
<polygon fill="black" stroke="black" points="1576.14,-260.5 1566.14,-264 1576.14,-267.5 1576.14,-260.5"/>
</g>
</g>
</svg>
