<?xml version="1.0" encoding="UTF-8" standalone="no"?>
<!DOCTYPE svg PUBLIC "-//W3C//DTD SVG 1.1//EN"
 "http://www.w3.org/Graphics/SVG/1.1/DTD/svg11.dtd">
<!-- Generated by graphviz version 2.24.0 (20090616.2323)
 -->
<!-- Title: G Pages: 1 -->
<svg width="1892pt" height="314pt"
 viewBox="0.00 0.00 1892.00 314.00" xmlns="http://www.w3.org/2000/svg" xmlns:xlink="http://www.w3.org/1999/xlink">
<g id="graph1" class="graph" transform="scale(1 1) rotate(0) translate(4 310)">
<title>G</title>
<polygon fill="white" stroke="white" points="-4,5 -4,-310 1889,-310 1889,5 -4,5"/>
<!-- species_0000001 -->
<g id="node1" class="node"><title>species_0000001</title>
<polyline fill="none" stroke="black" points="1164,-111 1134,-111 "/>
<path fill="none" stroke="black" d="M1134,-111C1128,-111 1122,-105 1122,-99"/>
<polyline fill="none" stroke="black" points="1122,-99 1122,-87 "/>
<path fill="none" stroke="black" d="M1122,-87C1122,-81 1128,-75 1134,-75"/>
<polyline fill="none" stroke="black" points="1134,-75 1164,-75 "/>
<path fill="none" stroke="black" d="M1164,-75C1170,-75 1176,-81 1176,-87"/>
<polyline fill="none" stroke="black" points="1176,-87 1176,-99 "/>
<path fill="none" stroke="black" d="M1176,-99C1176,-105 1170,-111 1164,-111"/>
<text text-anchor="middle" x="1149" y="-90.5" font-family="Times Roman,serif" font-size="10.00">P0nuc</text>
</g>
<!-- reaction_0000011_intermediate_r -->
<g id="node78" class="node"><title>reaction_0000011_intermediate_r</title>
<ellipse fill="black" stroke="black" cx="1212" cy="-109" rx="0.036" ry="0.036"/>
</g>
<!-- species_0000001&#45;&gt;reaction_0000011_intermediate_r -->
<g id="edge76" class="edge"><title>species_0000001&#45;&gt;reaction_0000011_intermediate_r</title>
<path fill="none" stroke="black" d="M1176.08,-99.8783C1192.62,-104.079 1210.82,-108.701 1211.95,-108.986"/>
</g>
<!-- reaction_0000020_intermediate_r -->
<g id="node134" class="node"><title>reaction_0000020_intermediate_r</title>
<ellipse fill="black" stroke="black" cx="1212" cy="-84" rx="0.036" ry="0.036"/>
</g>
<!-- species_0000001&#45;&gt;reaction_0000020_intermediate_r -->
<g id="edge134" class="edge"><title>species_0000001&#45;&gt;reaction_0000020_intermediate_r</title>
<path fill="none" stroke="black" d="M1176.08,-89.131C1192.62,-86.7679 1210.82,-84.168 1211.95,-84.0078"/>
</g>
<!-- species_0000002 -->
<g id="node2" class="node"><title>species_0000002</title>
<polyline fill="none" stroke="black" points="1430,-134 1400,-134 "/>
<path fill="none" stroke="black" d="M1400,-134C1394,-134 1388,-128 1388,-122"/>
<polyline fill="none" stroke="black" points="1388,-122 1388,-110 "/>
<path fill="none" stroke="black" d="M1388,-110C1388,-104 1394,-98 1400,-98"/>
<polyline fill="none" stroke="black" points="1400,-98 1430,-98 "/>
<path fill="none" stroke="black" d="M1430,-98C1436,-98 1442,-104 1442,-110"/>
<polyline fill="none" stroke="black" points="1442,-110 1442,-122 "/>
<path fill="none" stroke="black" d="M1442,-122C1442,-128 1436,-134 1430,-134"/>
<text text-anchor="middle" x="1415" y="-113.5" font-family="Times Roman,serif" font-size="10.00">P1nuc</text>
</g>
<!-- reaction_0000012_intermediate_r -->
<g id="node85" class="node"><title>reaction_0000012_intermediate_r</title>
<ellipse fill="black" stroke="black" cx="1478" cy="-132" rx="0.036" ry="0.036"/>
</g>
<!-- species_0000002&#45;&gt;reaction_0000012_intermediate_r -->
<g id="edge84" class="edge"><title>species_0000002&#45;&gt;reaction_0000012_intermediate_r</title>
<path fill="none" stroke="black" d="M1442.08,-122.878C1458.62,-127.079 1476.82,-131.701 1477.95,-131.986"/>
</g>
<!-- reaction_0000021_intermediate_r -->
<g id="node140" class="node"><title>reaction_0000021_intermediate_r</title>
<ellipse fill="black" stroke="black" cx="1478" cy="-107" rx="0.036" ry="0.036"/>
</g>
<!-- species_0000002&#45;&gt;reaction_0000021_intermediate_r -->
<g id="edge140" class="edge"><title>species_0000002&#45;&gt;reaction_0000021_intermediate_r</title>
<path fill="none" stroke="black" d="M1442.08,-112.131C1458.62,-109.768 1476.82,-107.168 1477.95,-107.008"/>
</g>
<!-- species_0000003 -->
<g id="node3" class="node"><title>species_0000003</title>
<polyline fill="none" stroke="black" points="1696,-157 1666,-157 "/>
<path fill="none" stroke="black" d="M1666,-157C1660,-157 1654,-151 1654,-145"/>
<polyline fill="none" stroke="black" points="1654,-145 1654,-133 "/>
<path fill="none" stroke="black" d="M1654,-133C1654,-127 1660,-121 1666,-121"/>
<polyline fill="none" stroke="black" points="1666,-121 1696,-121 "/>
<path fill="none" stroke="black" d="M1696,-121C1702,-121 1708,-127 1708,-133"/>
<polyline fill="none" stroke="black" points="1708,-133 1708,-145 "/>
<path fill="none" stroke="black" d="M1708,-145C1708,-151 1702,-157 1696,-157"/>
<text text-anchor="middle" x="1681" y="-136.5" font-family="Times Roman,serif" font-size="10.00">P2nuc</text>
</g>
<!-- reaction_0000013_intermediate_r -->
<g id="node92" class="node"><title>reaction_0000013_intermediate_r</title>
<ellipse fill="black" stroke="black" cx="1744" cy="-155" rx="0.036" ry="0.036"/>
</g>
<!-- species_0000003&#45;&gt;reaction_0000013_intermediate_r -->
<g id="edge92" class="edge"><title>species_0000003&#45;&gt;reaction_0000013_intermediate_r</title>
<path fill="none" stroke="black" d="M1708.08,-145.878C1724.62,-150.079 1742.82,-154.701 1743.95,-154.986"/>
</g>
<!-- reaction_0000022_intermediate_r -->
<g id="node146" class="node"><title>reaction_0000022_intermediate_r</title>
<ellipse fill="black" stroke="black" cx="1744" cy="-130" rx="0.036" ry="0.036"/>
</g>
<!-- species_0000003&#45;&gt;reaction_0000022_intermediate_r -->
<g id="edge146" class="edge"><title>species_0000003&#45;&gt;reaction_0000022_intermediate_r</title>
<path fill="none" stroke="black" d="M1708.08,-135.131C1724.62,-132.768 1742.82,-130.168 1743.95,-130.008"/>
</g>
<!-- species_0000004 -->
<g id="node4" class="node"><title>species_0000004</title>
<polyline fill="none" stroke="black" points="272,-51 242,-51 "/>
<path fill="none" stroke="black" d="M242,-51C236,-51 230,-45 230,-39"/>
<polyline fill="none" stroke="black" points="230,-39 230,-27 "/>
<path fill="none" stroke="black" d="M230,-27C230,-21 236,-15 242,-15"/>
<polyline fill="none" stroke="black" points="242,-15 272,-15 "/>
<path fill="none" stroke="black" d="M272,-15C278,-15 284,-21 284,-27"/>
<polyline fill="none" stroke="black" points="284,-27 284,-39 "/>
<path fill="none" stroke="black" d="M284,-39C284,-45 278,-51 272,-51"/>
<text text-anchor="middle" x="257" y="-30.5" font-family="Times Roman,serif" font-size="10.00">P0cyt</text>
</g>
<!-- reaction_0000008_intermediate_r -->
<g id="node57" class="node"><title>reaction_0000008_intermediate_r</title>
<ellipse fill="black" stroke="black" cx="320" cy="-49" rx="0.036" ry="0.036"/>
</g>
<!-- species_0000004&#45;&gt;reaction_0000008_intermediate_r -->
<g id="edge52" class="edge"><title>species_0000004&#45;&gt;reaction_0000008_intermediate_r</title>
<path fill="none" stroke="black" d="M284.083,-39.8783C300.625,-44.0793 318.824,-48.7014 319.945,-48.9861"/>
</g>
<!-- reaction_0000017_intermediate_r -->
<g id="node116" class="node"><title>reaction_0000017_intermediate_r</title>
<ellipse fill="black" stroke="black" cx="320" cy="-26" rx="0.036" ry="0.036"/>
</g>
<!-- species_0000004&#45;&gt;reaction_0000017_intermediate_r -->
<g id="edge116" class="edge"><title>species_0000004&#45;&gt;reaction_0000017_intermediate_r</title>
<path fill="none" stroke="black" d="M284.083,-29.9907C300.625,-28.1528 318.824,-26.1307 319.945,-26.0061"/>
</g>
<!-- species_0000005 -->
<g id="node5" class="node"><title>species_0000005</title>
<polyline fill="none" stroke="black" points="578,-72 548,-72 "/>
<path fill="none" stroke="black" d="M548,-72C542,-72 536,-66 536,-60"/>
<polyline fill="none" stroke="black" points="536,-60 536,-48 "/>
<path fill="none" stroke="black" d="M536,-48C536,-42 542,-36 548,-36"/>
<polyline fill="none" stroke="black" points="548,-36 578,-36 "/>
<path fill="none" stroke="black" d="M578,-36C584,-36 590,-42 590,-48"/>
<polyline fill="none" stroke="black" points="590,-48 590,-60 "/>
<path fill="none" stroke="black" d="M590,-60C590,-66 584,-72 578,-72"/>
<text text-anchor="middle" x="563" y="-51.5" font-family="Times Roman,serif" font-size="10.00">P1cyt</text>
</g>
<!-- reaction_0000009_intermediate_r -->
<g id="node64" class="node"><title>reaction_0000009_intermediate_r</title>
<ellipse fill="black" stroke="black" cx="653" cy="-62" rx="0.036" ry="0.036"/>
</g>
<!-- species_0000005&#45;&gt;reaction_0000009_intermediate_r -->
<g id="edge60" class="edge"><title>species_0000005&#45;&gt;reaction_0000009_intermediate_r</title>
<path fill="none" stroke="black" d="M590.003,-56.4003C615.685,-58.6831 650.729,-61.7982 652.895,-61.9906"/>
</g>
<!-- reaction_0000018_intermediate_r -->
<g id="node122" class="node"><title>reaction_0000018_intermediate_r</title>
<ellipse fill="black" stroke="black" cx="653" cy="-38" rx="0.036" ry="0.036"/>
</g>
<!-- species_0000005&#45;&gt;reaction_0000018_intermediate_r -->
<g id="edge122" class="edge"><title>species_0000005&#45;&gt;reaction_0000018_intermediate_r</title>
<path fill="none" stroke="black" d="M590.003,-49.1995C615.685,-44.6339 650.729,-38.4037 652.895,-38.0188"/>
</g>
<!-- species_0000006 -->
<g id="node6" class="node"><title>species_0000006</title>
<polyline fill="none" stroke="black" points="898,-88 868,-88 "/>
<path fill="none" stroke="black" d="M868,-88C862,-88 856,-82 856,-76"/>
<polyline fill="none" stroke="black" points="856,-76 856,-64 "/>
<path fill="none" stroke="black" d="M856,-64C856,-58 862,-52 868,-52"/>
<polyline fill="none" stroke="black" points="868,-52 898,-52 "/>
<path fill="none" stroke="black" d="M898,-52C904,-52 910,-58 910,-64"/>
<polyline fill="none" stroke="black" points="910,-64 910,-76 "/>
<path fill="none" stroke="black" d="M910,-76C910,-82 904,-88 898,-88"/>
<text text-anchor="middle" x="883" y="-67.5" font-family="Times Roman,serif" font-size="10.00">P2cyt</text>
</g>
<!-- reaction_0000010_intermediate_r -->
<g id="node71" class="node"><title>reaction_0000010_intermediate_r</title>
<ellipse fill="black" stroke="black" cx="946" cy="-86" rx="0.036" ry="0.036"/>
</g>
<!-- species_0000006&#45;&gt;reaction_0000010_intermediate_r -->
<g id="edge68" class="edge"><title>species_0000006&#45;&gt;reaction_0000010_intermediate_r</title>
<path fill="none" stroke="black" d="M910.083,-76.8783C926.625,-81.0793 944.824,-85.7014 945.945,-85.9861"/>
</g>
<!-- reaction_0000019_intermediate_r -->
<g id="node128" class="node"><title>reaction_0000019_intermediate_r</title>
<ellipse fill="black" stroke="black" cx="946" cy="-61" rx="0.036" ry="0.036"/>
</g>
<!-- species_0000006&#45;&gt;reaction_0000019_intermediate_r -->
<g id="edge128" class="edge"><title>species_0000006&#45;&gt;reaction_0000019_intermediate_r</title>
<path fill="none" stroke="black" d="M910.083,-66.131C926.625,-63.7679 944.824,-61.168 945.945,-61.0078"/>
</g>
<!-- species_0000007 -->
<g id="node7" class="node"><title>species_0000007</title>
<polyline fill="none" stroke="black" points="272,-162 242,-162 "/>
<path fill="none" stroke="black" d="M242,-162C236,-162 230,-156 230,-150"/>
<polyline fill="none" stroke="black" points="230,-150 230,-138 "/>
<path fill="none" stroke="black" d="M230,-138C230,-132 236,-126 242,-126"/>
<polyline fill="none" stroke="black" points="242,-126 272,-126 "/>
<path fill="none" stroke="black" d="M272,-126C278,-126 284,-132 284,-138"/>
<polyline fill="none" stroke="black" points="284,-138 284,-150 "/>
<path fill="none" stroke="black" d="M284,-150C284,-156 278,-162 272,-162"/>
<text text-anchor="middle" x="257" y="-141.5" font-family="Times Roman,serif" font-size="10.00">VRI</text>
</g>
<!-- reaction_0000004_intermediate_m -->
<g id="node34" class="node"><title>reaction_0000004_intermediate_m</title>
<ellipse fill="black" stroke="black" cx="320" cy="-206" rx="0.036" ry="0.036"/>
</g>
<!-- species_0000007&#45;&gt;reaction_0000004_intermediate_m -->
<g id="edge30" class="edge"><title>species_0000007&#45;&gt;reaction_0000004_intermediate_m</title>
<path fill="none" stroke="black" d="M275.561,-162.267C293.564,-179.984 318.391,-204.417 319.925,-205.926"/>
</g>
<!-- reaction_0000007_intermediate_r -->
<g id="node51" class="node"><title>reaction_0000007_intermediate_r</title>
<ellipse fill="black" stroke="black" cx="320" cy="-144" rx="0.036" ry="0.036"/>
</g>
<!-- species_0000007&#45;&gt;reaction_0000007_intermediate_r -->
<g id="edge46" class="edge"><title>species_0000007&#45;&gt;reaction_0000007_intermediate_r</title>
<path fill="none" stroke="black" d="M284.083,-144C300.625,-144 318.824,-144 319.945,-144"/>
</g>
<!-- reaction_0000016_intermediate_r -->
<g id="node110" class="node"><title>reaction_0000016_intermediate_r</title>
<ellipse fill="black" stroke="black" cx="320" cy="-113" rx="0.036" ry="0.036"/>
</g>
<!-- species_0000007&#45;&gt;reaction_0000016_intermediate_r -->
<g id="edge110" class="edge"><title>species_0000007&#45;&gt;reaction_0000016_intermediate_r</title>
<path fill="none" stroke="black" d="M284.083,-130.673C300.625,-122.534 318.824,-113.579 319.945,-113.027"/>
</g>
<!-- species_0000008 -->
<g id="node8" class="node"><title>species_0000008</title>
<polyline fill="none" stroke="black" points="398,-206 368,-206 "/>
<path fill="none" stroke="black" d="M368,-206C362,-206 356,-200 356,-194"/>
<polyline fill="none" stroke="black" points="356,-194 356,-182 "/>
<path fill="none" stroke="black" d="M356,-182C356,-176 362,-170 368,-170"/>
<polyline fill="none" stroke="black" points="368,-170 398,-170 "/>
<path fill="none" stroke="black" d="M398,-170C404,-170 410,-176 410,-182"/>
<polyline fill="none" stroke="black" points="410,-182 410,-194 "/>
<path fill="none" stroke="black" d="M410,-194C410,-200 404,-206 398,-206"/>
<text text-anchor="middle" x="383" y="-185.5" font-family="Times Roman,serif" font-size="10.00">CLK</text>
</g>
<!-- reaction_0000005_intermediate_r -->
<g id="node39" class="node"><title>reaction_0000005_intermediate_r</title>
<ellipse fill="black" stroke="black" cx="473" cy="-198" rx="0.036" ry="0.036"/>
</g>
<!-- species_0000008&#45;&gt;reaction_0000005_intermediate_r -->
<g id="edge34" class="edge"><title>species_0000008&#45;&gt;reaction_0000005_intermediate_r</title>
<path fill="none" stroke="black" d="M410.003,-191C435.685,-193.854 470.729,-197.748 472.895,-197.988"/>
</g>
<!-- reaction_0000014_intermediate_r -->
<g id="node98" class="node"><title>reaction_0000014_intermediate_r</title>
<ellipse fill="black" stroke="black" cx="473" cy="-180" rx="0.036" ry="0.036"/>
</g>
<!-- species_0000008&#45;&gt;reaction_0000014_intermediate_r -->
<g id="edge98" class="edge"><title>species_0000008&#45;&gt;reaction_0000014_intermediate_r</title>
<path fill="none" stroke="black" d="M410.003,-185.6C435.685,-183.317 470.729,-180.202 472.895,-180.009"/>
</g>
<!-- species_0000009 -->
<g id="node9" class="node"><title>species_0000009</title>
<polyline fill="none" stroke="black" points="272,-252 242,-252 "/>
<path fill="none" stroke="black" d="M242,-252C236,-252 230,-246 230,-240"/>
<polyline fill="none" stroke="black" points="230,-240 230,-228 "/>
<path fill="none" stroke="black" d="M230,-228C230,-222 236,-216 242,-216"/>
<polyline fill="none" stroke="black" points="242,-216 272,-216 "/>
<path fill="none" stroke="black" d="M272,-216C278,-216 284,-222 284,-228"/>
<polyline fill="none" stroke="black" points="284,-228 284,-240 "/>
<path fill="none" stroke="black" d="M284,-240C284,-246 278,-252 272,-252"/>
<text text-anchor="middle" x="257" y="-231.5" font-family="Times Roman,serif" font-size="10.00">PDP</text>
</g>
<!-- species_0000009&#45;&gt;reaction_0000004_intermediate_m -->
<g id="edge28" class="edge"><title>species_0000009&#45;&gt;reaction_0000004_intermediate_m</title>
<path fill="none" stroke="black" d="M284.083,-221.963C300.625,-214.611 318.824,-206.523 319.945,-206.024"/>
</g>
<!-- reaction_0000006_intermediate_r -->
<g id="node45" class="node"><title>reaction_0000006_intermediate_r</title>
<ellipse fill="black" stroke="black" cx="320" cy="-259" rx="0.036" ry="0.036"/>
</g>
<!-- species_0000009&#45;&gt;reaction_0000006_intermediate_r -->
<g id="edge40" class="edge"><title>species_0000009&#45;&gt;reaction_0000006_intermediate_r</title>
<path fill="none" stroke="black" d="M284.083,-244.747C300.625,-251.311 318.824,-258.533 319.945,-258.978"/>
</g>
<!-- reaction_0000015_intermediate_r -->
<g id="node104" class="node"><title>reaction_0000015_intermediate_r</title>
<ellipse fill="black" stroke="black" cx="320" cy="-234" rx="0.036" ry="0.036"/>
</g>
<!-- species_0000009&#45;&gt;reaction_0000015_intermediate_r -->
<g id="edge104" class="edge"><title>species_0000009&#45;&gt;reaction_0000015_intermediate_r</title>
<path fill="none" stroke="black" d="M284.083,-234C300.625,-234 318.824,-234 319.945,-234"/>
</g>
<!-- reaction_0000001 -->
<g id="node10" class="node"><title>reaction_0000001</title>
<polygon fill="none" stroke="black" points="104,-40 90,-40 90,-26 104,-26 104,-40"/>
</g>
<!-- reaction_0000001_intermediate_p -->
<g id="node13" class="node"><title>reaction_0000001_intermediate_p</title>
<ellipse fill="black" stroke="black" cx="167" cy="-33" rx="0.036" ry="0.036"/>
</g>
<!-- reaction_0000001&#45;&gt;reaction_0000001_intermediate_p -->
<g id="edge4" class="edge"><title>reaction_0000001&#45;&gt;reaction_0000001_intermediate_p</title>
<path fill="none" stroke="black" d="M104.228,-33C121.554,-33 164.221,-33 166.871,-33"/>
</g>
<!-- reaction_0000001_empty -->
<g id="node11" class="node"><title>reaction_0000001_empty</title>
<text text-anchor="middle" x="27" y="-28.5" font-family="Times Roman,serif" font-size="15.00" fill="blue">Ø</text>
</g>
<!-- reaction_0000001_empty&#45;&gt;reaction_0000001 -->
<g id="edge2" class="edge"><title>reaction_0000001_empty&#45;&gt;reaction_0000001</title>
<path fill="none" stroke="black" d="M54.2643,-33C67.1627,-33 81.5367,-33 89.8947,-33"/>
</g>
<!-- reaction_0000001_intermediate_p&#45;&gt;species_0000004 -->
<g id="edge6" class="edge"><title>reaction_0000001_intermediate_p&#45;&gt;species_0000004</title>
<path fill="none" stroke="black" d="M167.065,-33C168.565,-33 195.648,-33 219.704,-33"/>
<polygon fill="black" stroke="black" points="219.745,-36.5001 229.745,-33 219.745,-29.5001 219.745,-36.5001"/>
</g>
<!-- reaction_0000002 -->
<g id="node16" class="node"><title>reaction_0000002</title>
<polygon fill="none" stroke="black" points="104,-151 90,-151 90,-137 104,-137 104,-151"/>
</g>
<!-- reaction_0000002_intermediate_p -->
<g id="node19" class="node"><title>reaction_0000002_intermediate_p</title>
<ellipse fill="black" stroke="black" cx="167" cy="-144" rx="0.036" ry="0.036"/>
</g>
<!-- reaction_0000002&#45;&gt;reaction_0000002_intermediate_p -->
<g id="edge10" class="edge"><title>reaction_0000002&#45;&gt;reaction_0000002_intermediate_p</title>
<path fill="none" stroke="black" d="M104.228,-144C121.554,-144 164.221,-144 166.871,-144"/>
</g>
<!-- reaction_0000002_empty -->
<g id="node17" class="node"><title>reaction_0000002_empty</title>
<text text-anchor="middle" x="27" y="-139.5" font-family="Times Roman,serif" font-size="15.00" fill="blue">Ø</text>
</g>
<!-- reaction_0000002_empty&#45;&gt;reaction_0000002 -->
<g id="edge8" class="edge"><title>reaction_0000002_empty&#45;&gt;reaction_0000002</title>
<path fill="none" stroke="black" d="M54.2643,-144C67.1627,-144 81.5367,-144 89.8947,-144"/>
</g>
<!-- reaction_0000002_intermediate_p&#45;&gt;species_0000007 -->
<g id="edge12" class="edge"><title>reaction_0000002_intermediate_p&#45;&gt;species_0000007</title>
<path fill="none" stroke="black" d="M167.065,-144C168.565,-144 195.648,-144 219.704,-144"/>
<polygon fill="black" stroke="black" points="219.745,-147.5 229.745,-144 219.745,-140.5 219.745,-147.5"/>
</g>
<!-- reaction_0000003 -->
<g id="node22" class="node"><title>reaction_0000003</title>
<polygon fill="none" stroke="black" points="104,-241 90,-241 90,-227 104,-227 104,-241"/>
</g>
<!-- reaction_0000003_intermediate_p -->
<g id="node25" class="node"><title>reaction_0000003_intermediate_p</title>
<ellipse fill="black" stroke="black" cx="167" cy="-234" rx="0.036" ry="0.036"/>
</g>
<!-- reaction_0000003&#45;&gt;reaction_0000003_intermediate_p -->
<g id="edge16" class="edge"><title>reaction_0000003&#45;&gt;reaction_0000003_intermediate_p</title>
<path fill="none" stroke="black" d="M104.228,-234C121.554,-234 164.221,-234 166.871,-234"/>
</g>
<!-- reaction_0000003_empty -->
<g id="node23" class="node"><title>reaction_0000003_empty</title>
<text text-anchor="middle" x="27" y="-229.5" font-family="Times Roman,serif" font-size="15.00" fill="blue">Ø</text>
</g>
<!-- reaction_0000003_empty&#45;&gt;reaction_0000003 -->
<g id="edge14" class="edge"><title>reaction_0000003_empty&#45;&gt;reaction_0000003</title>
<path fill="none" stroke="black" d="M54.2643,-234C67.1627,-234 81.5367,-234 89.8947,-234"/>
</g>
<!-- reaction_0000003_intermediate_p&#45;&gt;species_0000009 -->
<g id="edge18" class="edge"><title>reaction_0000003_intermediate_p&#45;&gt;species_0000009</title>
<path fill="none" stroke="black" d="M167.065,-234C168.565,-234 195.648,-234 219.704,-234"/>
<polygon fill="black" stroke="black" points="219.745,-237.5 229.745,-234 219.745,-230.5 219.745,-237.5"/>
</g>
<!-- reaction_0000004 -->
<g id="node28" class="node"><title>reaction_0000004</title>
<polygon fill="none" stroke="black" points="264,-197 250,-197 250,-183 264,-183 264,-197"/>
</g>
<!-- reaction_0000004_intermediate_p -->
<g id="node31" class="node"><title>reaction_0000004_intermediate_p</title>
<ellipse fill="black" stroke="black" cx="320" cy="-188" rx="0.036" ry="0.036"/>
</g>
<!-- reaction_0000004&#45;&gt;reaction_0000004_intermediate_p -->
<g id="edge22" class="edge"><title>reaction_0000004&#45;&gt;reaction_0000004_intermediate_p</title>
<path fill="none" stroke="black" d="M264.227,-189.771C280.258,-189.262 317.571,-188.077 319.887,-188.004"/>
</g>
<!-- reaction_0000004&#45;&gt;reaction_0000004_intermediate_m -->
<g id="edge26" class="edge"><title>reaction_0000004&#45;&gt;reaction_0000004_intermediate_m</title>
<path fill="none" stroke="black" d="M275.897,-194.799C293.736,-199.33 318.032,-205.5 319.887,-205.971"/>
<polygon fill="none" stroke="black" points="275.858,-194.789 269.058,-197.189 264.227,-191.835 271.027,-189.435 275.858,-194.789"/>
</g>
<!-- reaction_0000004_empty -->
<g id="node29" class="node"><title>reaction_0000004_empty</title>
<text text-anchor="middle" x="167" y="-185.5" font-family="Times Roman,serif" font-size="15.00" fill="blue">Ø</text>
</g>
<!-- reaction_0000004_empty&#45;&gt;reaction_0000004 -->
<g id="edge20" class="edge"><title>reaction_0000004_empty&#45;&gt;reaction_0000004</title>
<path fill="none" stroke="black" d="M194.003,-190C213.264,-190 237.792,-190 249.766,-190"/>
</g>
<!-- reaction_0000004_intermediate_p&#45;&gt;species_0000008 -->
<g id="edge24" class="edge"><title>reaction_0000004_intermediate_p&#45;&gt;species_0000008</title>
<path fill="none" stroke="black" d="M320.046,-188C320.865,-188 332.597,-188 345.716,-188"/>
<polygon fill="black" stroke="black" points="345.86,-191.5 355.86,-188 345.859,-184.5 345.86,-191.5"/>
</g>
<!-- reaction_0000005 -->
<g id="node38" class="node"><title>reaction_0000005</title>
<polygon fill="none" stroke="black" points="570,-217 556,-217 556,-203 570,-203 570,-217"/>
</g>
<!-- reaction_0000005_empty -->
<g id="node42" class="node"><title>reaction_0000005_empty</title>
<text text-anchor="middle" x="653" y="-216.5" font-family="Times Roman,serif" font-size="15.00" fill="blue">Ø</text>
</g>
<!-- reaction_0000005&#45;&gt;reaction_0000005_empty -->
<g id="edge36" class="edge"><title>reaction_0000005&#45;&gt;reaction_0000005_empty</title>
<path fill="none" stroke="black" d="M570.062,-210.863C579.877,-212.063 598.359,-214.322 615.389,-216.403"/>
<polygon fill="black" stroke="black" points="615.364,-219.926 625.715,-217.665 616.213,-212.978 615.364,-219.926"/>
</g>
<!-- reaction_0000005_intermediate_r&#45;&gt;reaction_0000005 -->
<g id="edge32" class="edge"><title>reaction_0000005_intermediate_r&#45;&gt;reaction_0000005</title>
<path fill="none" stroke="black" d="M473.065,-198.009C475.311,-198.308 534.951,-206.26 555.848,-209.046"/>
</g>
<!-- reaction_0000006 -->
<g id="node44" class="node"><title>reaction_0000006</title>
<polygon fill="none" stroke="black" points="390,-284 376,-284 376,-270 390,-270 390,-284"/>
</g>
<!-- reaction_0000006_empty -->
<g id="node48" class="node"><title>reaction_0000006_empty</title>
<text text-anchor="middle" x="473" y="-283.5" font-family="Times Roman,serif" font-size="15.00" fill="blue">Ø</text>
</g>
<!-- reaction_0000006&#45;&gt;reaction_0000006_empty -->
<g id="edge42" class="edge"><title>reaction_0000006&#45;&gt;reaction_0000006_empty</title>
<path fill="none" stroke="black" d="M390.062,-277.863C399.877,-279.063 418.359,-281.322 435.389,-283.403"/>
<polygon fill="black" stroke="black" points="435.364,-286.926 445.715,-284.665 436.213,-279.978 435.364,-286.926"/>
</g>
<!-- reaction_0000006_intermediate_r&#45;&gt;reaction_0000006 -->
<g id="edge38" class="edge"><title>reaction_0000006_intermediate_r&#45;&gt;reaction_0000006</title>
<path fill="none" stroke="black" d="M320.046,-259.013C321.551,-259.443 359.877,-270.394 375.979,-274.994"/>
</g>
<!-- reaction_0000007 -->
<g id="node50" class="node"><title>reaction_0000007</title>
<polygon fill="none" stroke="black" points="390,-151 376,-151 376,-137 390,-137 390,-151"/>
</g>
<!-- reaction_0000007_empty -->
<g id="node54" class="node"><title>reaction_0000007_empty</title>
<text text-anchor="middle" x="473" y="-139.5" font-family="Times Roman,serif" font-size="15.00" fill="blue">Ø</text>
</g>
<!-- reaction_0000007&#45;&gt;reaction_0000007_empty -->
<g id="edge48" class="edge"><title>reaction_0000007&#45;&gt;reaction_0000007_empty</title>
<path fill="none" stroke="black" d="M390.062,-144C399.877,-144 418.359,-144 435.389,-144"/>
<polygon fill="black" stroke="black" points="435.715,-147.5 445.715,-144 435.715,-140.5 435.715,-147.5"/>
</g>
<!-- reaction_0000007_intermediate_r&#45;&gt;reaction_0000007 -->
<g id="edge44" class="edge"><title>reaction_0000007_intermediate_r&#45;&gt;reaction_0000007</title>
<path fill="none" stroke="black" d="M320.046,-144C321.551,-144 359.877,-144 375.979,-144"/>
</g>
<!-- reaction_0000008 -->
<g id="node56" class="node"><title>reaction_0000008</title>
<polygon fill="none" stroke="black" points="390,-60 376,-60 376,-46 390,-46 390,-60"/>
</g>
<!-- reaction_0000008_intermediate_p -->
<g id="node60" class="node"><title>reaction_0000008_intermediate_p</title>
<ellipse fill="black" stroke="black" cx="473" cy="-54" rx="0.036" ry="0.036"/>
</g>
<!-- reaction_0000008&#45;&gt;reaction_0000008_intermediate_p -->
<g id="edge54" class="edge"><title>reaction_0000008&#45;&gt;reaction_0000008_intermediate_p</title>
<path fill="none" stroke="black" d="M390.062,-53.0785C410.947,-53.3105 471.081,-53.9787 472.955,-53.9995"/>
</g>
<!-- reaction_0000008_intermediate_r&#45;&gt;reaction_0000008 -->
<g id="edge50" class="edge"><title>reaction_0000008_intermediate_r&#45;&gt;reaction_0000008</title>
<path fill="none" stroke="black" d="M320.046,-49.0029C321.551,-49.0985 359.877,-51.5319 375.979,-52.5542"/>
</g>
<!-- reaction_0000008_intermediate_p&#45;&gt;species_0000005 -->
<g id="edge56" class="edge"><title>reaction_0000008_intermediate_p&#45;&gt;species_0000005</title>
<path fill="none" stroke="black" d="M473.065,-54C474.565,-54 501.648,-54 525.704,-54"/>
<polygon fill="black" stroke="black" points="525.745,-57.5001 535.745,-54 525.745,-50.5001 525.745,-57.5001"/>
</g>
<!-- reaction_0000009 -->
<g id="node63" class="node"><title>reaction_0000009</title>
<polygon fill="none" stroke="black" points="730,-76 716,-76 716,-62 730,-62 730,-76"/>
</g>
<!-- reaction_0000009_intermediate_p -->
<g id="node67" class="node"><title>reaction_0000009_intermediate_p</title>
<ellipse fill="black" stroke="black" cx="793" cy="-70" rx="0.036" ry="0.036"/>
</g>
<!-- reaction_0000009&#45;&gt;reaction_0000009_intermediate_p -->
<g id="edge62" class="edge"><title>reaction_0000009&#45;&gt;reaction_0000009_intermediate_p</title>
<path fill="none" stroke="black" d="M730.228,-69.1033C747.554,-69.3508 790.221,-69.9603 792.871,-69.9982"/>
</g>
<!-- reaction_0000009_intermediate_r&#45;&gt;reaction_0000009 -->
<g id="edge58" class="edge"><title>reaction_0000009_intermediate_r&#45;&gt;reaction_0000009</title>
<path fill="none" stroke="black" d="M653.051,-62.0051C654.748,-62.1748 698.582,-66.5582 715.98,-68.298"/>
</g>
<!-- reaction_0000009_intermediate_p&#45;&gt;species_0000006 -->
<g id="edge64" class="edge"><title>reaction_0000009_intermediate_p&#45;&gt;species_0000006</title>
<path fill="none" stroke="black" d="M793.065,-70C794.565,-70 821.648,-70 845.704,-70"/>
<polygon fill="black" stroke="black" points="845.745,-73.5001 855.745,-70 845.745,-66.5001 845.745,-73.5001"/>
</g>
<!-- reaction_0000010 -->
<g id="node70" class="node"><title>reaction_0000010</title>
<polygon fill="none" stroke="black" points="996,-99 982,-99 982,-85 996,-85 996,-99"/>
</g>
<!-- reaction_0000010_intermediate_p -->
<g id="node74" class="node"><title>reaction_0000010_intermediate_p</title>
<ellipse fill="black" stroke="black" cx="1059" cy="-93" rx="0.036" ry="0.036"/>
</g>
<!-- reaction_0000010&#45;&gt;reaction_0000010_intermediate_p -->
<g id="edge70" class="edge"><title>reaction_0000010&#45;&gt;reaction_0000010_intermediate_p</title>
<path fill="none" stroke="black" d="M996.228,-92.1033C1013.55,-92.3508 1056.22,-92.9603 1058.87,-92.9982"/>
</g>
<!-- reaction_0000010_intermediate_r&#45;&gt;reaction_0000010 -->
<g id="edge66" class="edge"><title>reaction_0000010_intermediate_r&#45;&gt;reaction_0000010</title>
<path fill="none" stroke="black" d="M946.123,-86.0172C947.976,-86.2757 970.231,-89.3811 981.924,-91.0126"/>
</g>
<!-- reaction_0000010_intermediate_p&#45;&gt;species_0000001 -->
<g id="edge72" class="edge"><title>reaction_0000010_intermediate_p&#45;&gt;species_0000001</title>
<path fill="none" stroke="black" d="M1059.07,-93C1060.56,-93 1087.65,-93 1111.7,-93"/>
<polygon fill="black" stroke="black" points="1111.75,-96.5001 1121.75,-93 1111.75,-89.5001 1111.75,-96.5001"/>
</g>
<!-- reaction_0000011 -->
<g id="node77" class="node"><title>reaction_0000011</title>
<polygon fill="none" stroke="black" points="1262,-122 1248,-122 1248,-108 1262,-108 1262,-122"/>
</g>
<!-- reaction_0000011_intermediate_p -->
<g id="node81" class="node"><title>reaction_0000011_intermediate_p</title>
<ellipse fill="black" stroke="black" cx="1325" cy="-116" rx="0.036" ry="0.036"/>
</g>
<!-- reaction_0000011&#45;&gt;reaction_0000011_intermediate_p -->
<g id="edge78" class="edge"><title>reaction_0000011&#45;&gt;reaction_0000011_intermediate_p</title>
<path fill="none" stroke="black" d="M1262.23,-115.103C1279.55,-115.351 1322.22,-115.96 1324.87,-115.998"/>
</g>
<!-- reaction_0000011_intermediate_r&#45;&gt;reaction_0000011 -->
<g id="edge74" class="edge"><title>reaction_0000011_intermediate_r&#45;&gt;reaction_0000011</title>
<path fill="none" stroke="black" d="M1212.12,-109.017C1213.98,-109.276 1236.23,-112.381 1247.92,-114.013"/>
</g>
<!-- reaction_0000011_intermediate_p&#45;&gt;species_0000002 -->
<g id="edge80" class="edge"><title>reaction_0000011_intermediate_p&#45;&gt;species_0000002</title>
<path fill="none" stroke="black" d="M1325.07,-116C1326.56,-116 1353.65,-116 1377.7,-116"/>
<polygon fill="black" stroke="black" points="1377.75,-119.5 1387.75,-116 1377.75,-112.5 1377.75,-119.5"/>
</g>
<!-- reaction_0000012 -->
<g id="node84" class="node"><title>reaction_0000012</title>
<polygon fill="none" stroke="black" points="1528,-145 1514,-145 1514,-131 1528,-131 1528,-145"/>
</g>
<!-- reaction_0000012_intermediate_p -->
<g id="node88" class="node"><title>reaction_0000012_intermediate_p</title>
<ellipse fill="black" stroke="black" cx="1591" cy="-139" rx="0.036" ry="0.036"/>
</g>
<!-- reaction_0000012&#45;&gt;reaction_0000012_intermediate_p -->
<g id="edge86" class="edge"><title>reaction_0000012&#45;&gt;reaction_0000012_intermediate_p</title>
<path fill="none" stroke="black" d="M1528.23,-138.103C1545.55,-138.351 1588.22,-138.96 1590.87,-138.998"/>
</g>
<!-- reaction_0000012_intermediate_r&#45;&gt;reaction_0000012 -->
<g id="edge82" class="edge"><title>reaction_0000012_intermediate_r&#45;&gt;reaction_0000012</title>
<path fill="none" stroke="black" d="M1478.12,-132.017C1479.98,-132.276 1502.23,-135.381 1513.92,-137.013"/>
</g>
<!-- reaction_0000012_intermediate_p&#45;&gt;species_0000003 -->
<g id="edge88" class="edge"><title>reaction_0000012_intermediate_p&#45;&gt;species_0000003</title>
<path fill="none" stroke="black" d="M1591.07,-139C1592.56,-139 1619.65,-139 1643.7,-139"/>
<polygon fill="black" stroke="black" points="1643.75,-142.5 1653.75,-139 1643.75,-135.5 1643.75,-142.5"/>
</g>
<!-- reaction_0000013 -->
<g id="node91" class="node"><title>reaction_0000013</title>
<polygon fill="none" stroke="black" points="1794,-177 1780,-177 1780,-163 1794,-163 1794,-177"/>
</g>
<!-- reaction_0000013_empty -->
<g id="node95" class="node"><title>reaction_0000013_empty</title>
<text text-anchor="middle" x="1857" y="-171.5" font-family="Times Roman,serif" font-size="15.00" fill="blue">Ø</text>
</g>
<!-- reaction_0000013&#45;&gt;reaction_0000013_empty -->
<g id="edge94" class="edge"><title>reaction_0000013&#45;&gt;reaction_0000013_empty</title>
<path fill="none" stroke="black" d="M1794.23,-170.62C1800.45,-171.153 1809.94,-171.966 1819.67,-172.8"/>
<polygon fill="black" stroke="black" points="1819.51,-176.299 1829.77,-173.666 1820.11,-169.325 1819.51,-176.299"/>
</g>
<!-- reaction_0000013_intermediate_r&#45;&gt;reaction_0000013 -->
<g id="edge90" class="edge"><title>reaction_0000013_intermediate_r&#45;&gt;reaction_0000013</title>
<path fill="none" stroke="black" d="M1744.12,-155.043C1745.98,-155.689 1768.23,-163.453 1779.92,-167.531"/>
</g>
<!-- reaction_0000014 -->
<g id="node97" class="node"><title>reaction_0000014</title>
<polygon fill="none" stroke="black" points="570,-179 556,-179 556,-165 570,-165 570,-179"/>
</g>
<!-- reaction_0000014_empty -->
<g id="node101" class="node"><title>reaction_0000014_empty</title>
<text text-anchor="middle" x="653" y="-162.5" font-family="Times Roman,serif" font-size="15.00" fill="blue">Ø</text>
</g>
<!-- reaction_0000014&#45;&gt;reaction_0000014_empty -->
<g id="edge100" class="edge"><title>reaction_0000014&#45;&gt;reaction_0000014_empty</title>
<path fill="none" stroke="black" d="M570.062,-171.608C579.877,-171.062 598.359,-170.036 615.389,-169.09"/>
<polygon fill="black" stroke="black" points="615.924,-172.565 625.715,-168.516 615.536,-165.576 615.924,-172.565"/>
</g>
<!-- reaction_0000014_intermediate_r&#45;&gt;reaction_0000014 -->
<g id="edge96" class="edge"><title>reaction_0000014_intermediate_r&#45;&gt;reaction_0000014</title>
<path fill="none" stroke="black" d="M473.065,-179.994C475.311,-179.795 534.951,-174.493 555.848,-172.636"/>
</g>
<!-- reaction_0000015 -->
<g id="node103" class="node"><title>reaction_0000015</title>
<polygon fill="none" stroke="black" points="390,-241 376,-241 376,-227 390,-227 390,-241"/>
</g>
<!-- reaction_0000015_empty -->
<g id="node107" class="node"><title>reaction_0000015_empty</title>
<text text-anchor="middle" x="473" y="-229.5" font-family="Times Roman,serif" font-size="15.00" fill="blue">Ø</text>
</g>
<!-- reaction_0000015&#45;&gt;reaction_0000015_empty -->
<g id="edge106" class="edge"><title>reaction_0000015&#45;&gt;reaction_0000015_empty</title>
<path fill="none" stroke="black" d="M390.062,-234C399.877,-234 418.359,-234 435.389,-234"/>
<polygon fill="black" stroke="black" points="435.715,-237.5 445.715,-234 435.715,-230.5 435.715,-237.5"/>
</g>
<!-- reaction_0000015_intermediate_r&#45;&gt;reaction_0000015 -->
<g id="edge102" class="edge"><title>reaction_0000015_intermediate_r&#45;&gt;reaction_0000015</title>
<path fill="none" stroke="black" d="M320.046,-234C321.551,-234 359.877,-234 375.979,-234"/>
</g>
<!-- reaction_0000016 -->
<g id="node109" class="node"><title>reaction_0000016</title>
<polygon fill="none" stroke="black" points="390,-108 376,-108 376,-94 390,-94 390,-108"/>
</g>
<!-- reaction_0000016_empty -->
<g id="node113" class="node"><title>reaction_0000016_empty</title>
<text text-anchor="middle" x="473" y="-85.5" font-family="Times Roman,serif" font-size="15.00" fill="blue">Ø</text>
</g>
<!-- reaction_0000016&#45;&gt;reaction_0000016_empty -->
<g id="edge112" class="edge"><title>reaction_0000016&#45;&gt;reaction_0000016_empty</title>
<path fill="none" stroke="black" d="M390.062,-100.137C399.877,-98.9373 418.359,-96.6784 435.389,-94.5969"/>
<polygon fill="black" stroke="black" points="436.213,-98.0223 445.715,-93.3349 435.364,-91.074 436.213,-98.0223"/>
</g>
<!-- reaction_0000016_intermediate_r&#45;&gt;reaction_0000016 -->
<g id="edge108" class="edge"><title>reaction_0000016_intermediate_r&#45;&gt;reaction_0000016</title>
<path fill="none" stroke="black" d="M320.046,-112.991C321.551,-112.705 359.877,-105.404 375.979,-102.337"/>
</g>
<!-- reaction_0000017 -->
<g id="node115" class="node"><title>reaction_0000017</title>
<polygon fill="none" stroke="black" points="390,-26 376,-26 376,-12 390,-12 390,-26"/>
</g>
<!-- reaction_0000017_empty -->
<g id="node119" class="node"><title>reaction_0000017_empty</title>
<text text-anchor="middle" x="473" y="-13.5" font-family="Times Roman,serif" font-size="15.00" fill="blue">Ø</text>
</g>
<!-- reaction_0000017&#45;&gt;reaction_0000017_empty -->
<g id="edge118" class="edge"><title>reaction_0000017&#45;&gt;reaction_0000017_empty</title>
<path fill="none" stroke="black" d="M390.062,-18.9215C399.877,-18.8125 418.359,-18.6071 435.389,-18.4179"/>
<polygon fill="black" stroke="black" points="435.754,-21.9142 445.715,-18.3032 435.676,-14.9146 435.754,-21.9142"/>
</g>
<!-- reaction_0000017_intermediate_r&#45;&gt;reaction_0000017 -->
<g id="edge114" class="edge"><title>reaction_0000017_intermediate_r&#45;&gt;reaction_0000017</title>
<path fill="none" stroke="black" d="M320.046,-25.9949C321.551,-25.8277 359.877,-21.5692 375.979,-19.7801"/>
</g>
<!-- reaction_0000018 -->
<g id="node121" class="node"><title>reaction_0000018</title>
<polygon fill="none" stroke="black" points="730,-42 716,-42 716,-28 730,-28 730,-42"/>
</g>
<!-- reaction_0000018_empty -->
<g id="node125" class="node"><title>reaction_0000018_empty</title>
<text text-anchor="middle" x="793" y="-29.5" font-family="Times Roman,serif" font-size="15.00" fill="blue">Ø</text>
</g>
<!-- reaction_0000018&#45;&gt;reaction_0000018_empty -->
<g id="edge124" class="edge"><title>reaction_0000018&#45;&gt;reaction_0000018_empty</title>
<path fill="none" stroke="black" d="M730.228,-34.8967C736.45,-34.8079 745.94,-34.6723 755.672,-34.5333"/>
<polygon fill="black" stroke="black" points="755.824,-38.0315 765.773,-34.389 755.724,-31.0322 755.824,-38.0315"/>
</g>
<!-- reaction_0000018_intermediate_r&#45;&gt;reaction_0000018 -->
<g id="edge120" class="edge"><title>reaction_0000018_intermediate_r&#45;&gt;reaction_0000018</title>
<path fill="none" stroke="black" d="M653.051,-37.9978C654.748,-37.9251 698.582,-36.0465 715.98,-35.3009"/>
</g>
<!-- reaction_0000019 -->
<g id="node127" class="node"><title>reaction_0000019</title>
<polygon fill="none" stroke="black" points="996,-65 982,-65 982,-51 996,-51 996,-65"/>
</g>
<!-- reaction_0000019_empty -->
<g id="node131" class="node"><title>reaction_0000019_empty</title>
<text text-anchor="middle" x="1059" y="-52.5" font-family="Times Roman,serif" font-size="15.00" fill="blue">Ø</text>
</g>
<!-- reaction_0000019&#45;&gt;reaction_0000019_empty -->
<g id="edge130" class="edge"><title>reaction_0000019&#45;&gt;reaction_0000019_empty</title>
<path fill="none" stroke="black" d="M996.228,-57.8967C1002.45,-57.8079 1011.94,-57.6723 1021.67,-57.5333"/>
<polygon fill="black" stroke="black" points="1021.82,-61.0315 1031.77,-57.389 1021.72,-54.0322 1021.82,-61.0315"/>
</g>
<!-- reaction_0000019_intermediate_r&#45;&gt;reaction_0000019 -->
<g id="edge126" class="edge"><title>reaction_0000019_intermediate_r&#45;&gt;reaction_0000019</title>
<path fill="none" stroke="black" d="M946.123,-60.9914C947.976,-60.8622 970.231,-59.3095 981.924,-58.4937"/>
</g>
<!-- reaction_0000020 -->
<g id="node133" class="node"><title>reaction_0000020</title>
<polygon fill="none" stroke="black" points="1262,-88 1248,-88 1248,-74 1262,-74 1262,-88"/>
</g>
<!-- reaction_0000020_empty -->
<g id="node137" class="node"><title>reaction_0000020_empty</title>
<text text-anchor="middle" x="1325" y="-75.5" font-family="Times Roman,serif" font-size="15.00" fill="blue">Ø</text>
</g>
<!-- reaction_0000020&#45;&gt;reaction_0000020_empty -->
<g id="edge136" class="edge"><title>reaction_0000020&#45;&gt;reaction_0000020_empty</title>
<path fill="none" stroke="black" d="M1262.23,-80.8967C1268.45,-80.8079 1277.94,-80.6723 1287.67,-80.5333"/>
<polygon fill="black" stroke="black" points="1287.82,-84.0315 1297.77,-80.389 1287.72,-77.0322 1287.82,-84.0315"/>
</g>
<!-- reaction_0000020_intermediate_r&#45;&gt;reaction_0000020 -->
<g id="edge132" class="edge"><title>reaction_0000020_intermediate_r&#45;&gt;reaction_0000020</title>
<path fill="none" stroke="black" d="M1212.12,-83.9914C1213.98,-83.8622 1236.23,-82.3095 1247.92,-81.4937"/>
</g>
<!-- reaction_0000021 -->
<g id="node139" class="node"><title>reaction_0000021</title>
<polygon fill="none" stroke="black" points="1528,-111 1514,-111 1514,-97 1528,-97 1528,-111"/>
</g>
<!-- reaction_0000021_empty -->
<g id="node143" class="node"><title>reaction_0000021_empty</title>
<text text-anchor="middle" x="1591" y="-98.5" font-family="Times Roman,serif" font-size="15.00" fill="blue">Ø</text>
</g>
<!-- reaction_0000021&#45;&gt;reaction_0000021_empty -->
<g id="edge142" class="edge"><title>reaction_0000021&#45;&gt;reaction_0000021_empty</title>
<path fill="none" stroke="black" d="M1528.23,-103.897C1534.45,-103.808 1543.94,-103.672 1553.67,-103.533"/>
<polygon fill="black" stroke="black" points="1553.82,-107.032 1563.77,-103.389 1553.72,-100.032 1553.82,-107.032"/>
</g>
<!-- reaction_0000021_intermediate_r&#45;&gt;reaction_0000021 -->
<g id="edge138" class="edge"><title>reaction_0000021_intermediate_r&#45;&gt;reaction_0000021</title>
<path fill="none" stroke="black" d="M1478.12,-106.991C1479.98,-106.862 1502.23,-105.309 1513.92,-104.494"/>
</g>
<!-- reaction_0000022 -->
<g id="node145" class="node"><title>reaction_0000022</title>
<polygon fill="none" stroke="black" points="1794,-134 1780,-134 1780,-120 1794,-120 1794,-134"/>
</g>
<!-- reaction_0000022_empty -->
<g id="node149" class="node"><title>reaction_0000022_empty</title>
<text text-anchor="middle" x="1857" y="-117.5" font-family="Times Roman,serif" font-size="15.00" fill="blue">Ø</text>
</g>
<!-- reaction_0000022&#45;&gt;reaction_0000022_empty -->
<g id="edge148" class="edge"><title>reaction_0000022&#45;&gt;reaction_0000022_empty</title>
<path fill="none" stroke="black" d="M1794.23,-126.484C1800.45,-126.039 1809.94,-125.361 1819.67,-124.666"/>
<polygon fill="black" stroke="black" points="1820.05,-128.148 1829.77,-123.945 1819.55,-121.166 1820.05,-128.148"/>
</g>
<!-- reaction_0000022_intermediate_r&#45;&gt;reaction_0000022 -->
<g id="edge144" class="edge"><title>reaction_0000022_intermediate_r&#45;&gt;reaction_0000022</title>
<path fill="none" stroke="black" d="M1744.12,-129.991C1745.98,-129.862 1768.23,-128.309 1779.92,-127.494"/>
</g>
</g>
</svg>
