<?xml version="1.0" encoding="UTF-8" standalone="no"?>
<!DOCTYPE svg PUBLIC "-//W3C//DTD SVG 1.1//EN"
 "http://www.w3.org/Graphics/SVG/1.1/DTD/svg11.dtd">
<!-- Generated by graphviz version 2.24.0 (20090616.2323)
 -->
<!-- Title: G Pages: 1 -->
<svg width="1152pt" height="594pt"
 viewBox="0.00 0.00 1152.00 594.00" xmlns="http://www.w3.org/2000/svg" xmlns:xlink="http://www.w3.org/1999/xlink">
<g id="graph1" class="graph" transform="scale(1 1) rotate(0) translate(4 590)">
<title>G</title>
<polygon fill="white" stroke="white" points="-4,5 -4,-590 1149,-590 1149,5 -4,5"/>
<!-- x1 -->
<g id="node1" class="node"><title>x1</title>
<polyline fill="none" stroke="black" points="218,-541 188,-541 "/>
<path fill="none" stroke="black" d="M188,-541C182,-541 176,-535 176,-529"/>
<polyline fill="none" stroke="black" points="176,-529 176,-517 "/>
<path fill="none" stroke="black" d="M176,-517C176,-511 182,-505 188,-505"/>
<polyline fill="none" stroke="black" points="188,-505 218,-505 "/>
<path fill="none" stroke="black" d="M218,-505C224,-505 230,-511 230,-517"/>
<polyline fill="none" stroke="black" points="230,-517 230,-529 "/>
<path fill="none" stroke="black" d="M230,-529C230,-535 224,-541 218,-541"/>
<text text-anchor="middle" x="203" y="-520.5" font-family="Times Roman,serif" font-size="10.00">cyclin</text>
</g>
<!-- cyclincdkcomplexformation_intermediate_r -->
<g id="node19" class="node"><title>cyclincdkcomplexformation_intermediate_r</title>
<ellipse fill="black" stroke="black" cx="266" cy="-532" rx="0.036" ry="0.036"/>
</g>
<!-- x1&#45;&gt;cyclincdkcomplexformation_intermediate_r -->
<g id="edge10" class="edge"><title>x1&#45;&gt;cyclincdkcomplexformation_intermediate_r</title>
<path fill="none" stroke="black" d="M230.083,-526.869C246.625,-529.232 264.824,-531.832 265.945,-531.992"/>
</g>
<!-- cyclindegradation_intermediate_r -->
<g id="node27" class="node"><title>cyclindegradation_intermediate_r</title>
<ellipse fill="black" stroke="black" cx="266" cy="-514" rx="0.036" ry="0.036"/>
</g>
<!-- x1&#45;&gt;cyclindegradation_intermediate_r -->
<g id="edge20" class="edge"><title>x1&#45;&gt;cyclindegradation_intermediate_r</title>
<path fill="none" stroke="black" d="M230.083,-519.131C246.625,-516.768 264.824,-514.168 265.945,-514.008"/>
</g>
<!-- x2 -->
<g id="node2" class="node"><title>x2</title>
<polyline fill="none" stroke="black" points="1131,-535 1093,-535 "/>
<path fill="none" stroke="black" d="M1093,-535C1087,-535 1081,-529 1081,-523"/>
<polyline fill="none" stroke="black" points="1081,-523 1081,-511 "/>
<path fill="none" stroke="black" d="M1081,-511C1081,-505 1087,-499 1093,-499"/>
<polyline fill="none" stroke="black" points="1093,-499 1131,-499 "/>
<path fill="none" stroke="black" d="M1131,-499C1137,-499 1143,-505 1143,-511"/>
<polyline fill="none" stroke="black" points="1143,-511 1143,-523 "/>
<path fill="none" stroke="black" d="M1143,-523C1143,-529 1137,-535 1131,-535"/>
<text text-anchor="middle" x="1112" y="-514.5" font-family="Times Roman,serif" font-size="10.00">free CDK</text>
</g>
<!-- x2&#45;&gt;cyclincdkcomplexformation_intermediate_r -->
<g id="edge12" class="edge"><title>x2&#45;&gt;cyclincdkcomplexformation_intermediate_r</title>
<path fill="none" stroke="black" d="M1092.03,-535.129C1067.36,-555.572 1023.22,-586 979,-586 401,-586 401,-586 401,-586 337.388,-586 268.198,-533.674 266.051,-532.039"/>
</g>
<!-- x3 -->
<g id="node3" class="node"><title>x3</title>
<polyline fill="none" stroke="black" points="853,-318 823,-318 "/>
<path fill="none" stroke="black" d="M823,-318C817,-318 811,-312 811,-306"/>
<polyline fill="none" stroke="black" points="811,-306 811,-294 "/>
<path fill="none" stroke="black" d="M811,-294C811,-288 817,-282 823,-282"/>
<polyline fill="none" stroke="black" points="823,-282 853,-282 "/>
<path fill="none" stroke="black" d="M853,-282C859,-282 865,-288 865,-294"/>
<polyline fill="none" stroke="black" points="865,-294 865,-306 "/>
<path fill="none" stroke="black" d="M865,-306C865,-312 859,-318 853,-318"/>
<text text-anchor="middle" x="838" y="-297.5" font-family="Times Roman,serif" font-size="10.00">MPF</text>
</g>
<!-- MPFdissociation_intermediate_r -->
<g id="node36" class="node"><title>MPFdissociation_intermediate_r</title>
<ellipse fill="black" stroke="black" cx="915" cy="-386" rx="0.036" ry="0.036"/>
</g>
<!-- x3&#45;&gt;MPFdissociation_intermediate_r -->
<g id="edge30" class="edge"><title>x3&#45;&gt;MPFdissociation_intermediate_r</title>
<path fill="none" stroke="black" d="M854.33,-318.238C876.226,-342.694 912.636,-383.36 914.89,-385.877"/>
</g>
<!-- MPFPreMPFtransition_intermediate_r -->
<g id="node56" class="node"><title>MPFPreMPFtransition_intermediate_r</title>
<ellipse fill="black" stroke="black" cx="915" cy="-306" rx="0.036" ry="0.036"/>
</g>
<!-- x3&#45;&gt;MPFPreMPFtransition_intermediate_r -->
<g id="edge54" class="edge"><title>x3&#45;&gt;MPFPreMPFtransition_intermediate_r</title>
<path fill="none" stroke="black" d="M865.364,-302.132C886.805,-303.803 913.286,-305.866 914.92,-305.994"/>
</g>
<!-- cdc25phosphorylation_intermediate_m -->
<g id="node72" class="node"><title>cdc25phosphorylation_intermediate_m</title>
<ellipse fill="black" stroke="black" cx="915" cy="-254" rx="0.036" ry="0.036"/>
</g>
<!-- x3&#45;&gt;cdc25phosphorylation_intermediate_m -->
<g id="edge76" class="edge"><title>x3&#45;&gt;cdc25phosphorylation_intermediate_m</title>
<path fill="none" stroke="black" d="M865.364,-283.653C886.805,-270.844 913.286,-255.024 914.92,-254.048"/>
</g>
<!-- wee1phosphorylation_intermediate_m -->
<g id="node97" class="node"><title>wee1phosphorylation_intermediate_m</title>
<ellipse fill="black" stroke="black" cx="915" cy="-208" rx="0.036" ry="0.036"/>
</g>
<!-- x3&#45;&gt;wee1phosphorylation_intermediate_m -->
<g id="edge104" class="edge"><title>x3&#45;&gt;wee1phosphorylation_intermediate_m</title>
<path fill="none" stroke="black" d="M853.213,-281.824C874.952,-255.85 912.557,-210.919 914.886,-208.136"/>
</g>
<!-- _2_intermediate_m -->
<g id="node108" class="node"><title>_2_intermediate_m</title>
<ellipse fill="black" stroke="black" cx="915" cy="-288" rx="0.036" ry="0.036"/>
</g>
<!-- x3&#45;&gt;_2_intermediate_m -->
<g id="edge120" class="edge"><title>x3&#45;&gt;_2_intermediate_m</title>
<path fill="none" stroke="black" d="M865.364,-295.735C886.805,-292.394 913.286,-288.267 914.92,-288.012"/>
</g>
<!-- x4 -->
<g id="node4" class="node"><title>x4</title>
<ellipse fill="none" stroke="black" cx="687" cy="-176" rx="35.8221" ry="18"/>
<text text-anchor="middle" x="687" y="-173.5" font-family="Times Roman,serif" font-size="10.00">cdc25_P</text>
</g>
<!-- PreMPFMPFtransition_intermediate_m -->
<g id="node52" class="node"><title>PreMPFMPFtransition_intermediate_m</title>
<ellipse fill="black" stroke="black" cx="761" cy="-226" rx="0.036" ry="0.036"/>
</g>
<!-- x4&#45;&gt;PreMPFMPFtransition_intermediate_m -->
<g id="edge50" class="edge"><title>x4&#45;&gt;PreMPFMPFtransition_intermediate_m</title>
<path fill="none" stroke="black" d="M708.802,-190.731C729.948,-205.019 759.11,-224.723 760.912,-225.941"/>
</g>
<!-- cdc25dephosphorylation_intermediate_r -->
<g id="node77" class="node"><title>cdc25dephosphorylation_intermediate_r</title>
<ellipse fill="black" stroke="black" cx="761" cy="-129" rx="0.036" ry="0.036"/>
</g>
<!-- x4&#45;&gt;cdc25dephosphorylation_intermediate_r -->
<g id="edge80" class="edge"><title>x4&#45;&gt;cdc25dephosphorylation_intermediate_r</title>
<path fill="none" stroke="black" d="M709.605,-161.643C730.687,-148.253 759.156,-130.171 760.914,-129.054"/>
</g>
<!-- x5 -->
<g id="node5" class="node"><title>x5</title>
<polyline fill="none" stroke="black" points="994,-64 964,-64 "/>
<path fill="none" stroke="black" d="M964,-64C958,-64 952,-58 952,-52"/>
<polyline fill="none" stroke="black" points="952,-52 952,-40 "/>
<path fill="none" stroke="black" d="M952,-40C952,-34 958,-28 964,-28"/>
<polyline fill="none" stroke="black" points="964,-28 994,-28 "/>
<path fill="none" stroke="black" d="M994,-28C1000,-28 1006,-34 1006,-40"/>
<polyline fill="none" stroke="black" points="1006,-40 1006,-52 "/>
<path fill="none" stroke="black" d="M1006,-52C1006,-58 1000,-64 994,-64"/>
<text text-anchor="middle" x="979" y="-43.5" font-family="Times Roman,serif" font-size="10.00">Wee1</text>
</g>
<!-- MPFPreMPFtransition_intermediate_m -->
<g id="node62" class="node"><title>MPFPreMPFtransition_intermediate_m</title>
<ellipse fill="black" stroke="black" cx="1043" cy="-62" rx="0.036" ry="0.036"/>
</g>
<!-- x5&#45;&gt;MPFPreMPFtransition_intermediate_m -->
<g id="edge62" class="edge"><title>x5&#45;&gt;MPFPreMPFtransition_intermediate_m</title>
<path fill="none" stroke="black" d="M1006.14,-52.7854C1023.04,-57.01 1041.79,-61.6971 1042.94,-61.9859"/>
</g>
<!-- wee1phosphorylation_intermediate_r -->
<g id="node91" class="node"><title>wee1phosphorylation_intermediate_r</title>
<ellipse fill="black" stroke="black" cx="1043" cy="-30" rx="0.036" ry="0.036"/>
</g>
<!-- x5&#45;&gt;wee1phosphorylation_intermediate_r -->
<g id="edge96" class="edge"><title>x5&#45;&gt;wee1phosphorylation_intermediate_r</title>
<path fill="none" stroke="black" d="M1006.14,-39.2146C1023.04,-34.99 1041.79,-30.3029 1042.94,-30.0141"/>
</g>
<!-- x6 -->
<g id="node6" class="node"><title>x6</title>
<ellipse fill="none" stroke="black" cx="320" cy="-465" rx="18" ry="18"/>
<text text-anchor="middle" x="320" y="-462.5" font-family="Times Roman,serif" font-size="10.00">APC_P</text>
</g>
<!-- cyclindegradation_intermediate_m -->
<g id="node32" class="node"><title>cyclindegradation_intermediate_m</title>
<ellipse fill="black" stroke="black" cx="401" cy="-504" rx="0.036" ry="0.036"/>
</g>
<!-- x6&#45;&gt;cyclindegradation_intermediate_m -->
<g id="edge26" class="edge"><title>x6&#45;&gt;cyclindegradation_intermediate_m</title>
<path fill="none" stroke="black" d="M336.392,-472.892C359.32,-483.932 398.458,-502.776 400.882,-503.943"/>
</g>
<!-- MPFdissociation_intermediate_m -->
<g id="node42" class="node"><title>MPFdissociation_intermediate_m</title>
<ellipse fill="black" stroke="black" cx="1043" cy="-468" rx="0.036" ry="0.036"/>
</g>
<!-- x6&#45;&gt;MPFdissociation_intermediate_m -->
<g id="edge38" class="edge"><title>x6&#45;&gt;MPFdissociation_intermediate_m</title>
<path fill="none" stroke="black" d="M338.263,-466.916C369.93,-470.068 437.095,-476 494,-476 494,-476 494,-476 915,-476 971.109,-476 1040.78,-468.248 1042.95,-468.006"/>
</g>
<!-- APCdephosphorylation_intermediate_r -->
<g id="node113" class="node"><title>APCdephosphorylation_intermediate_r</title>
<ellipse fill="black" stroke="black" cx="401" cy="-407" rx="0.036" ry="0.036"/>
</g>
<!-- x6&#45;&gt;APCdephosphorylation_intermediate_r -->
<g id="edge124" class="edge"><title>x6&#45;&gt;APCdephosphorylation_intermediate_r</title>
<path fill="none" stroke="black" d="M334.413,-453.511C345.147,-445.09 360.258,-433.516 374,-424 385.294,-416.179 400.045,-407.557 400.956,-407.026"/>
</g>
<!-- m -->
<g id="node7" class="node"><title>m</title>
<ellipse fill="none" stroke="black" cx="838" cy="-208" rx="40.0132" ry="18"/>
<text text-anchor="middle" x="838" y="-205.5" font-family="Times Roman,serif" font-size="10.00">cell_mass</text>
</g>
<!-- m&#45;&gt;cdc25phosphorylation_intermediate_m -->
<g id="edge74" class="edge"><title>m&#45;&gt;cdc25phosphorylation_intermediate_m</title>
<path fill="none" stroke="black" d="M862.363,-222.555C884.217,-235.61 913.127,-252.881 914.913,-253.948"/>
</g>
<!-- m&#45;&gt;wee1phosphorylation_intermediate_m -->
<g id="edge106" class="edge"><title>m&#45;&gt;wee1phosphorylation_intermediate_m</title>
<path fill="none" stroke="black" d="M878.304,-208C896.352,-208 913.87,-208 914.948,-208"/>
</g>
<!-- m&#45;&gt;_2_intermediate_m -->
<g id="edge118" class="edge"><title>m&#45;&gt;_2_intermediate_m</title>
<path fill="none" stroke="black" d="M853.954,-224.576C875.803,-247.276 912.61,-285.517 914.889,-287.885"/>
</g>
<!-- y4 -->
<g id="node8" class="node"><title>y4</title>
<polyline fill="none" stroke="black" points="994,-156 964,-156 "/>
<path fill="none" stroke="black" d="M964,-156C958,-156 952,-150 952,-144"/>
<polyline fill="none" stroke="black" points="952,-144 952,-132 "/>
<path fill="none" stroke="black" d="M952,-132C952,-126 958,-120 964,-120"/>
<polyline fill="none" stroke="black" points="964,-120 994,-120 "/>
<path fill="none" stroke="black" d="M994,-120C1000,-120 1006,-126 1006,-132"/>
<polyline fill="none" stroke="black" points="1006,-132 1006,-144 "/>
<path fill="none" stroke="black" d="M1006,-144C1006,-150 1000,-156 994,-156"/>
<text text-anchor="middle" x="979" y="-135.5" font-family="Times Roman,serif" font-size="10.00">cdc25</text>
</g>
<!-- cdc25phosphorylation_intermediate_r -->
<g id="node66" class="node"><title>cdc25phosphorylation_intermediate_r</title>
<ellipse fill="black" stroke="black" cx="1043" cy="-115" rx="0.036" ry="0.036"/>
</g>
<!-- y4&#45;&gt;cdc25phosphorylation_intermediate_r -->
<g id="edge66" class="edge"><title>y4&#45;&gt;cdc25phosphorylation_intermediate_r</title>
<path fill="none" stroke="black" d="M1006.14,-128.246C1023.04,-122.173 1041.79,-115.435 1042.94,-115.02"/>
</g>
<!-- y5 -->
<g id="node9" class="node"><title>y5</title>
<ellipse fill="none" stroke="black" cx="687" cy="-46" rx="35.0885" ry="18"/>
<text text-anchor="middle" x="687" y="-43.5" font-family="Times Roman,serif" font-size="10.00">Wee1_P</text>
</g>
<!-- wee1dephosphorylation_intermediate_r -->
<g id="node84" class="node"><title>wee1dephosphorylation_intermediate_r</title>
<ellipse fill="black" stroke="black" cx="761" cy="-46" rx="0.036" ry="0.036"/>
</g>
<!-- y5&#45;&gt;wee1dephosphorylation_intermediate_r -->
<g id="edge88" class="edge"><title>y5&#45;&gt;wee1dephosphorylation_intermediate_r</title>
<path fill="none" stroke="black" d="M722.266,-46C740.73,-46 759.771,-46 760.943,-46"/>
</g>
<!-- y6 -->
<g id="node10" class="node"><title>y6</title>
<ellipse fill="none" stroke="black" cx="687" cy="-392" rx="27" ry="18"/>
<text text-anchor="middle" x="687" y="-389.5" font-family="Times Roman,serif" font-size="10.00">APC</text>
</g>
<!-- _2_intermediate_r -->
<g id="node102" class="node"><title>_2_intermediate_r</title>
<ellipse fill="black" stroke="black" cx="761" cy="-392" rx="0.036" ry="0.036"/>
</g>
<!-- y6&#45;&gt;_2_intermediate_r -->
<g id="edge110" class="edge"><title>y6&#45;&gt;_2_intermediate_r</title>
<path fill="none" stroke="black" d="M714.135,-392C734.594,-392 759.395,-392 760.925,-392"/>
</g>
<!-- Pre_MPF -->
<g id="node11" class="node"><title>Pre_MPF</title>
<polyline fill="none" stroke="black" points="512,-364 476,-364 "/>
<path fill="none" stroke="black" d="M476,-364C470,-364 464,-358 464,-352"/>
<polyline fill="none" stroke="black" points="464,-352 464,-340 "/>
<path fill="none" stroke="black" d="M464,-340C464,-334 470,-328 476,-328"/>
<polyline fill="none" stroke="black" points="476,-328 512,-328 "/>
<path fill="none" stroke="black" d="M512,-328C518,-328 524,-334 524,-340"/>
<polyline fill="none" stroke="black" points="524,-340 524,-352 "/>
<path fill="none" stroke="black" d="M524,-352C524,-358 518,-364 512,-364"/>
<text text-anchor="middle" x="494" y="-343.5" font-family="Times Roman,serif" font-size="10.00">Pre_MPF</text>
</g>
<!-- PreMPFMPFtransition_intermediate_r -->
<g id="node46" class="node"><title>PreMPFMPFtransition_intermediate_r</title>
<ellipse fill="black" stroke="black" cx="587" cy="-309" rx="0.036" ry="0.036"/>
</g>
<!-- Pre_MPF&#45;&gt;PreMPFMPFtransition_intermediate_r -->
<g id="edge42" class="edge"><title>Pre_MPF&#45;&gt;PreMPFMPFtransition_intermediate_r</title>
<path fill="none" stroke="black" d="M524.194,-333.987C550.501,-323.521 584.78,-309.883 586.897,-309.041"/>
</g>
<!-- cyclinsythesis -->
<g id="node12" class="node"><title>cyclinsythesis</title>
<polygon fill="none" stroke="black" points="104,-530 90,-530 90,-516 104,-516 104,-530"/>
</g>
<!-- cyclinsythesis_intermediate_p -->
<g id="node15" class="node"><title>cyclinsythesis_intermediate_p</title>
<ellipse fill="black" stroke="black" cx="140" cy="-523" rx="0.036" ry="0.036"/>
</g>
<!-- cyclinsythesis&#45;&gt;cyclinsythesis_intermediate_p -->
<g id="edge4" class="edge"><title>cyclinsythesis&#45;&gt;cyclinsythesis_intermediate_p</title>
<path fill="none" stroke="black" d="M104.101,-523C115.932,-523 138.531,-523 139.932,-523"/>
</g>
<!-- cyclinsythesis_empty -->
<g id="node13" class="node"><title>cyclinsythesis_empty</title>
<text text-anchor="middle" x="27" y="-518.5" font-family="Times Roman,serif" font-size="15.00" fill="blue">Ø</text>
</g>
<!-- cyclinsythesis_empty&#45;&gt;cyclinsythesis -->
<g id="edge2" class="edge"><title>cyclinsythesis_empty&#45;&gt;cyclinsythesis</title>
<path fill="none" stroke="black" d="M54.2643,-523C67.1627,-523 81.5367,-523 89.8947,-523"/>
</g>
<!-- cyclinsythesis_intermediate_p&#45;&gt;x1 -->
<g id="edge6" class="edge"><title>cyclinsythesis_intermediate_p&#45;&gt;x1</title>
<path fill="none" stroke="black" d="M140.046,-523C140.865,-523 152.597,-523 165.716,-523"/>
<polygon fill="black" stroke="black" points="165.86,-526.5 175.86,-523 165.859,-519.5 165.86,-526.5"/>
</g>
<!-- cyclincdkcomplexformation -->
<g id="node18" class="node"><title>cyclincdkcomplexformation</title>
<polygon fill="none" stroke="black" points="327,-416 313,-416 313,-402 327,-402 327,-416"/>
</g>
<!-- cyclincdkcomplexformation_intermediate_p -->
<g id="node23" class="node"><title>cyclincdkcomplexformation_intermediate_p</title>
<ellipse fill="black" stroke="black" cx="401" cy="-366" rx="0.036" ry="0.036"/>
</g>
<!-- cyclincdkcomplexformation&#45;&gt;cyclincdkcomplexformation_intermediate_p -->
<g id="edge14" class="edge"><title>cyclincdkcomplexformation&#45;&gt;cyclincdkcomplexformation_intermediate_p</title>
<path fill="none" stroke="black" d="M327.188,-405.184C346.392,-394.989 397.659,-367.774 400.845,-366.083"/>
</g>
<!-- cyclincdkcomplexformation_intermediate_r&#45;&gt;cyclincdkcomplexformation -->
<g id="edge8" class="edge"><title>cyclincdkcomplexformation_intermediate_r&#45;&gt;cyclincdkcomplexformation</title>
<path fill="none" stroke="black" d="M266.047,-531.844C267.011,-528.643 282.736,-476.822 302,-438 305.793,-430.356 311.014,-422.136 314.857,-416.406"/>
</g>
<!-- cyclincdkcomplexformation_intermediate_p&#45;&gt;Pre_MPF -->
<g id="edge16" class="edge"><title>cyclincdkcomplexformation_intermediate_p&#45;&gt;Pre_MPF</title>
<path fill="none" stroke="black" d="M401.067,-365.986C402.585,-365.659 429.467,-359.878 453.929,-354.617"/>
<polygon fill="black" stroke="black" points="454.789,-358.013 463.83,-352.488 453.317,-351.169 454.789,-358.013"/>
</g>
<!-- cyclindegradation -->
<g id="node26" class="node"><title>cyclindegradation</title>
<polygon fill="none" stroke="black" points="327,-521 313,-521 313,-507 327,-507 327,-521"/>
</g>
<!-- cyclindegradation_empty -->
<g id="node30" class="node"><title>cyclindegradation_empty</title>
<text text-anchor="middle" x="401" y="-535.5" font-family="Times Roman,serif" font-size="15.00" fill="blue">Ø</text>
</g>
<!-- cyclindegradation&#45;&gt;cyclindegradation_empty -->
<g id="edge22" class="edge"><title>cyclindegradation&#45;&gt;cyclindegradation_empty</title>
<path fill="none" stroke="black" d="M327.188,-516.307C335.538,-518.988 349.949,-523.613 363.834,-528.07"/>
<polygon fill="black" stroke="black" points="363.166,-531.532 373.757,-531.255 365.305,-524.866 363.166,-531.532"/>
</g>
<!-- cyclindegradation&#45;&gt;cyclindegradation_intermediate_m -->
<g id="edge24" class="edge"><title>cyclindegradation&#45;&gt;cyclindegradation_intermediate_m</title>
<path fill="none" stroke="black" d="M339.199,-511.63C362.258,-508.783 398.194,-504.346 400.845,-504.019"/>
<polygon fill="none" stroke="black" points="339.098,-511.642 333.633,-516.347 327.188,-513.113 332.653,-508.408 339.098,-511.642"/>
</g>
<!-- cyclindegradation_intermediate_r&#45;&gt;cyclindegradation -->
<g id="edge18" class="edge"><title>cyclindegradation_intermediate_r&#45;&gt;cyclindegradation</title>
<path fill="none" stroke="black" d="M266.155,-514C268.58,-514 298.855,-514 312.913,-514"/>
</g>
<!-- MPFdissociation -->
<g id="node35" class="node"><title>MPFdissociation</title>
<polygon fill="none" stroke="black" points="986,-448 972,-448 972,-434 986,-434 986,-448"/>
</g>
<!-- MPFdissociation_intermediate_p -->
<g id="node39" class="node"><title>MPFdissociation_intermediate_p</title>
<ellipse fill="black" stroke="black" cx="1043" cy="-445" rx="0.036" ry="0.036"/>
</g>
<!-- MPFdissociation&#45;&gt;MPFdissociation_intermediate_p -->
<g id="edge32" class="edge"><title>MPFdissociation&#45;&gt;MPFdissociation_intermediate_p</title>
<path fill="none" stroke="black" d="M986.342,-441.459C1002.63,-442.477 1040.53,-444.846 1042.89,-444.993"/>
</g>
<!-- MPFdissociation&#45;&gt;MPFdissociation_intermediate_m -->
<g id="edge36" class="edge"><title>MPFdissociation&#45;&gt;MPFdissociation_intermediate_m</title>
<path fill="none" stroke="black" d="M997.405,-448.765C1015.59,-456.437 1040.97,-467.145 1042.89,-467.952"/>
<polygon fill="none" stroke="black" points="997.398,-448.762 990.315,-450.115 986.342,-444.097 993.425,-442.744 997.398,-448.762"/>
</g>
<!-- MPFdissociation_intermediate_r&#45;&gt;MPFdissociation -->
<g id="edge28" class="edge"><title>MPFdissociation_intermediate_r&#45;&gt;MPFdissociation</title>
<path fill="none" stroke="black" d="M915.046,-386.04C916.576,-387.354 955.51,-420.814 971.868,-434.871"/>
</g>
<!-- MPFdissociation_intermediate_p&#45;&gt;x2 -->
<g id="edge34" class="edge"><title>MPFdissociation_intermediate_p&#45;&gt;x2</title>
<path fill="none" stroke="black" d="M1043.05,-445.052C1044.29,-446.344 1068.25,-471.346 1087.58,-491.518"/>
<polygon fill="black" stroke="black" points="1085.26,-494.155 1094.71,-498.953 1090.31,-489.312 1085.26,-494.155"/>
</g>
<!-- PreMPFMPFtransition -->
<g id="node45" class="node"><title>PreMPFMPFtransition</title>
<polygon fill="none" stroke="black" points="694,-307 680,-307 680,-293 694,-293 694,-307"/>
</g>
<!-- PreMPFMPFtransition_intermediate_p -->
<g id="node49" class="node"><title>PreMPFMPFtransition_intermediate_p</title>
<ellipse fill="black" stroke="black" cx="761" cy="-300" rx="0.036" ry="0.036"/>
</g>
<!-- PreMPFMPFtransition&#45;&gt;PreMPFMPFtransition_intermediate_p -->
<g id="edge44" class="edge"><title>PreMPFMPFtransition&#45;&gt;PreMPFMPFtransition_intermediate_p</title>
<path fill="none" stroke="black" d="M694.095,-300C712.038,-300 758.005,-300 760.861,-300"/>
</g>
<!-- PreMPFMPFtransition&#45;&gt;PreMPFMPFtransition_intermediate_m -->
<g id="edge48" class="edge"><title>PreMPFMPFtransition&#45;&gt;PreMPFMPFtransition_intermediate_m</title>
<path fill="none" stroke="black" d="M702.844,-284.156C723.801,-263.199 758.396,-228.604 760.861,-226.139"/>
<polygon fill="none" stroke="black" points="702.581,-284.419 701.167,-291.49 694.095,-292.905 695.51,-285.833 702.581,-284.419"/>
</g>
<!-- PreMPFMPFtransition_intermediate_r&#45;&gt;PreMPFMPFtransition -->
<g id="edge40" class="edge"><title>PreMPFMPFtransition_intermediate_r&#45;&gt;PreMPFMPFtransition</title>
<path fill="none" stroke="black" d="M587.072,-308.993C589.592,-308.767 657.096,-302.691 679.702,-300.657"/>
</g>
<!-- PreMPFMPFtransition_intermediate_p&#45;&gt;x3 -->
<g id="edge46" class="edge"><title>PreMPFMPFtransition_intermediate_p&#45;&gt;x3</title>
<path fill="none" stroke="black" d="M761.056,-300C762.229,-300 781.712,-300 800.777,-300"/>
<polygon fill="black" stroke="black" points="800.907,-303.5 810.907,-300 800.907,-296.5 800.907,-303.5"/>
</g>
<!-- MPFPreMPFtransition -->
<g id="node55" class="node"><title>MPFPreMPFtransition</title>
<polygon fill="none" stroke="black" points="986,-313 972,-313 972,-299 986,-299 986,-313"/>
</g>
<!-- MPFPreMPFtransition_intermediate_p -->
<g id="node59" class="node"><title>MPFPreMPFtransition_intermediate_p</title>
<ellipse fill="black" stroke="black" cx="1043" cy="-326" rx="0.036" ry="0.036"/>
</g>
<!-- MPFPreMPFtransition&#45;&gt;MPFPreMPFtransition_intermediate_p -->
<g id="edge56" class="edge"><title>MPFPreMPFtransition&#45;&gt;MPFPreMPFtransition_intermediate_p</title>
<path fill="none" stroke="black" d="M986.342,-308.294C1002.63,-313.383 1040.53,-325.229 1042.89,-325.964"/>
</g>
<!-- MPFPreMPFtransition&#45;&gt;MPFPreMPFtransition_intermediate_m -->
<g id="edge60" class="edge"><title>MPFPreMPFtransition&#45;&gt;MPFPreMPFtransition_intermediate_m</title>
<path fill="none" stroke="black" d="M983.956,-287.107C998.726,-230.795 1041.52,-67.6498 1042.96,-62.1429"/>
<polygon fill="none" stroke="black" points="983.891,-287.353 986.238,-294.172 980.846,-298.961 978.5,-292.142 983.891,-287.353"/>
</g>
<!-- MPFPreMPFtransition_intermediate_r&#45;&gt;MPFPreMPFtransition -->
<g id="edge52" class="edge"><title>MPFPreMPFtransition_intermediate_r&#45;&gt;MPFPreMPFtransition</title>
<path fill="none" stroke="black" d="M915.046,-306C916.576,-306 955.51,-306 971.868,-306"/>
</g>
<!-- MPFPreMPFtransition_intermediate_p&#45;&gt;Pre_MPF -->
<g id="edge58" class="edge"><title>MPFPreMPFtransition_intermediate_p&#45;&gt;Pre_MPF</title>
<path fill="none" stroke="black" d="M1042.95,-326.014C1040.8,-326.62 971.679,-346 915,-346 687,-346 687,-346 687,-346 634.321,-346 573.554,-346 534.501,-346"/>
<polygon fill="black" stroke="black" points="534.087,-342.5 524.087,-346 534.087,-349.5 534.087,-342.5"/>
</g>
<!-- cdc25phosphorylation -->
<g id="node65" class="node"><title>cdc25phosphorylation</title>
<polygon fill="none" stroke="black" points="501,-179 487,-179 487,-165 501,-165 501,-179"/>
</g>
<!-- cdc25phosphorylation_intermediate_p -->
<g id="node69" class="node"><title>cdc25phosphorylation_intermediate_p</title>
<ellipse fill="black" stroke="black" cx="587" cy="-172" rx="0.036" ry="0.036"/>
</g>
<!-- cdc25phosphorylation&#45;&gt;cdc25phosphorylation_intermediate_p -->
<g id="edge68" class="edge"><title>cdc25phosphorylation&#45;&gt;cdc25phosphorylation_intermediate_p</title>
<path fill="none" stroke="black" d="M501.298,-172C522.879,-172 585.017,-172 586.954,-172"/>
</g>
<!-- cdc25phosphorylation&#45;&gt;cdc25phosphorylation_intermediate_m -->
<g id="edge72" class="edge"><title>cdc25phosphorylation&#45;&gt;cdc25phosphorylation_intermediate_m</title>
<path fill="none" stroke="black" d="M506.884,-189.213C518.91,-203.921 538.233,-224.342 560,-235 611.258,-260.098 629.927,-254 687,-254 687,-254 687,-254 761,-254 828.375,-254 912.331,-254 914.938,-254"/>
<polygon fill="none" stroke="black" points="506.565,-188.803 499.722,-186.528 499.191,-179.336 506.034,-181.612 506.565,-188.803"/>
</g>
<!-- cdc25phosphorylation_intermediate_r&#45;&gt;cdc25phosphorylation -->
<g id="edge64" class="edge"><title>cdc25phosphorylation_intermediate_r&#45;&gt;cdc25phosphorylation</title>
<path fill="none" stroke="black" d="M1042.95,-114.983C1040.81,-114.287 971.897,-92 915,-92 687,-92 687,-92 687,-92 609.016,-92 525.891,-148.427 501.265,-166.501"/>
</g>
<!-- cdc25phosphorylation_intermediate_p&#45;&gt;x4 -->
<g id="edge70" class="edge"><title>cdc25phosphorylation_intermediate_p&#45;&gt;x4</title>
<path fill="none" stroke="black" d="M587.072,-172.003C588.627,-172.065 614.911,-173.116 640.129,-174.125"/>
<polygon fill="black" stroke="black" points="640.293,-177.634 650.425,-174.537 640.572,-170.64 640.293,-177.634"/>
</g>
<!-- cdc25dephosphorylation -->
<g id="node76" class="node"><title>cdc25dephosphorylation</title>
<polygon fill="none" stroke="black" points="845,-134 831,-134 831,-120 845,-120 845,-134"/>
</g>
<!-- cdc25dephosphorylation_intermediate_p -->
<g id="node80" class="node"><title>cdc25dephosphorylation_intermediate_p</title>
<ellipse fill="black" stroke="black" cx="915" cy="-132" rx="0.036" ry="0.036"/>
</g>
<!-- cdc25dephosphorylation&#45;&gt;cdc25dephosphorylation_intermediate_p -->
<g id="edge82" class="edge"><title>cdc25dephosphorylation&#45;&gt;cdc25dephosphorylation_intermediate_p</title>
<path fill="none" stroke="black" d="M845.106,-127.461C863.572,-128.661 911.854,-131.796 914.854,-131.99"/>
</g>
<!-- cdc25dephosphorylation_intermediate_r&#45;&gt;cdc25dephosphorylation -->
<g id="edge78" class="edge"><title>cdc25dephosphorylation_intermediate_r&#45;&gt;cdc25dephosphorylation</title>
<path fill="none" stroke="black" d="M761.056,-128.999C762.941,-128.95 812.085,-127.673 830.829,-127.186"/>
</g>
<!-- cdc25dephosphorylation_intermediate_p&#45;&gt;y4 -->
<g id="edge84" class="edge"><title>cdc25dephosphorylation_intermediate_p&#45;&gt;y4</title>
<path fill="none" stroke="black" d="M915.046,-132.004C915.893,-132.084 928.209,-133.238 941.809,-134.513"/>
<polygon fill="black" stroke="black" points="941.511,-138.001 951.794,-135.449 942.165,-131.031 941.511,-138.001"/>
</g>
<!-- wee1dephosphorylation -->
<g id="node83" class="node"><title>wee1dephosphorylation</title>
<polygon fill="none" stroke="black" points="845,-53 831,-53 831,-39 845,-39 845,-53"/>
</g>
<!-- wee1dephosphorylation_intermediate_p -->
<g id="node87" class="node"><title>wee1dephosphorylation_intermediate_p</title>
<ellipse fill="black" stroke="black" cx="915" cy="-46" rx="0.036" ry="0.036"/>
</g>
<!-- wee1dephosphorylation&#45;&gt;wee1dephosphorylation_intermediate_p -->
<g id="edge90" class="edge"><title>wee1dephosphorylation&#45;&gt;wee1dephosphorylation_intermediate_p</title>
<path fill="none" stroke="black" d="M845.106,-46C863.572,-46 911.854,-46 914.854,-46"/>
</g>
<!-- wee1dephosphorylation_intermediate_r&#45;&gt;wee1dephosphorylation -->
<g id="edge86" class="edge"><title>wee1dephosphorylation_intermediate_r&#45;&gt;wee1dephosphorylation</title>
<path fill="none" stroke="black" d="M761.056,-46C762.941,-46 812.085,-46 830.829,-46"/>
</g>
<!-- wee1dephosphorylation_intermediate_p&#45;&gt;x5 -->
<g id="edge92" class="edge"><title>wee1dephosphorylation_intermediate_p&#45;&gt;x5</title>
<path fill="none" stroke="black" d="M915.046,-46C915.885,-46 927.971,-46 941.414,-46"/>
<polygon fill="black" stroke="black" points="941.794,-49.5001 951.794,-46 941.794,-42.5001 941.794,-49.5001"/>
</g>
<!-- wee1phosphorylation -->
<g id="node90" class="node"><title>wee1phosphorylation</title>
<polygon fill="none" stroke="black" points="501,-53 487,-53 487,-39 501,-39 501,-53"/>
</g>
<!-- wee1phosphorylation_intermediate_p -->
<g id="node94" class="node"><title>wee1phosphorylation_intermediate_p</title>
<ellipse fill="black" stroke="black" cx="587" cy="-46" rx="0.036" ry="0.036"/>
</g>
<!-- wee1phosphorylation&#45;&gt;wee1phosphorylation_intermediate_p -->
<g id="edge98" class="edge"><title>wee1phosphorylation&#45;&gt;wee1phosphorylation_intermediate_p</title>
<path fill="none" stroke="black" d="M501.298,-46C522.879,-46 585.017,-46 586.954,-46"/>
</g>
<!-- wee1phosphorylation&#45;&gt;wee1phosphorylation_intermediate_m -->
<g id="edge102" class="edge"><title>wee1phosphorylation&#45;&gt;wee1phosphorylation_intermediate_m</title>
<path fill="none" stroke="black" d="M512.848,-52.5427C588.876,-78.9451 869.352,-176.451 878,-181 895.454,-190.181 913.814,-206.913 914.945,-207.949"/>
<polygon fill="none" stroke="black" points="512.479,-52.4146 505.499,-54.2254 501.143,-48.4787 508.123,-46.6679 512.479,-52.4146"/>
</g>
<!-- wee1phosphorylation_intermediate_r&#45;&gt;wee1phosphorylation -->
<g id="edge94" class="edge"><title>wee1phosphorylation_intermediate_r&#45;&gt;wee1phosphorylation</title>
<path fill="none" stroke="black" d="M1042.95,-29.9783C1040.83,-29.0698 972.518,-0 915,-0 687,-0 687,-0 687,-0 612.598,-0 526.35,-32.748 501.214,-42.9818"/>
</g>
<!-- wee1phosphorylation_intermediate_p&#45;&gt;y5 -->
<g id="edge100" class="edge"><title>wee1phosphorylation_intermediate_p&#45;&gt;y5</title>
<path fill="none" stroke="black" d="M587.072,-46C588.66,-46 616.038,-46 641.734,-46"/>
<polygon fill="black" stroke="black" points="641.814,-49.5001 651.814,-46 641.814,-42.5001 641.814,-49.5001"/>
</g>
<!-- _2 -->
<g id="node101" class="node"><title>_2</title>
<polygon fill="none" stroke="black" points="845,-399 831,-399 831,-385 845,-385 845,-399"/>
</g>
<!-- _2_intermediate_p -->
<g id="node105" class="node"><title>_2_intermediate_p</title>
<ellipse fill="black" stroke="black" cx="915" cy="-427" rx="0.036" ry="0.036"/>
</g>
<!-- _2&#45;&gt;_2_intermediate_p -->
<g id="edge112" class="edge"><title>_2&#45;&gt;_2_intermediate_p</title>
<path fill="none" stroke="black" d="M845.106,-395.23C863.572,-403.624 911.854,-425.57 914.854,-426.933"/>
</g>
<!-- _2&#45;&gt;_2_intermediate_m -->
<g id="edge116" class="edge"><title>_2&#45;&gt;_2_intermediate_m</title>
<path fill="none" stroke="black" d="M850.647,-374.919C872.111,-345.929 913.505,-290.019 914.961,-288.053"/>
<polygon fill="none" stroke="black" points="850.433,-375.207 850.078,-382.41 843.293,-384.852 843.648,-377.649 850.433,-375.207"/>
</g>
<!-- _2_intermediate_r&#45;&gt;_2 -->
<g id="edge108" class="edge"><title>_2_intermediate_r&#45;&gt;_2</title>
<path fill="none" stroke="black" d="M761.056,-392C762.941,-392 812.085,-392 830.829,-392"/>
</g>
<!-- _2_intermediate_p&#45;&gt;x6 -->
<g id="edge114" class="edge"><title>_2_intermediate_p&#45;&gt;x6</title>
<path fill="none" stroke="black" d="M914.938,-427.008C912.336,-427.341 828.547,-438 761,-438 494,-438 494,-438 494,-438 441.865,-438 381.972,-449.983 347.795,-457.983"/>
<polygon fill="black" stroke="black" points="346.551,-454.682 337.644,-460.42 348.185,-461.488 346.551,-454.682"/>
</g>
<!-- APCdephosphorylation -->
<g id="node112" class="node"><title>APCdephosphorylation</title>
<polygon fill="none" stroke="black" points="501,-405 487,-405 487,-391 501,-391 501,-405"/>
</g>
<!-- APCdephosphorylation_intermediate_p -->
<g id="node116" class="node"><title>APCdephosphorylation_intermediate_p</title>
<ellipse fill="black" stroke="black" cx="587" cy="-395" rx="0.036" ry="0.036"/>
</g>
<!-- APCdephosphorylation&#45;&gt;APCdephosphorylation_intermediate_p -->
<g id="edge126" class="edge"><title>APCdephosphorylation&#45;&gt;APCdephosphorylation_intermediate_p</title>
<path fill="none" stroke="black" d="M501.298,-397.765C522.879,-397.068 585.017,-395.064 586.954,-395.001"/>
</g>
<!-- APCdephosphorylation_intermediate_r&#45;&gt;APCdephosphorylation -->
<g id="edge122" class="edge"><title>APCdephosphorylation_intermediate_r&#45;&gt;APCdephosphorylation</title>
<path fill="none" stroke="black" d="M401.067,-406.993C403.4,-406.768 465.601,-400.748 486.914,-398.686"/>
</g>
<!-- APCdephosphorylation_intermediate_p&#45;&gt;y6 -->
<g id="edge128" class="edge"><title>APCdephosphorylation_intermediate_p&#45;&gt;y6</title>
<path fill="none" stroke="black" d="M587.072,-394.998C588.824,-394.945 621.985,-393.95 649.632,-393.121"/>
<polygon fill="black" stroke="black" points="649.99,-396.612 659.881,-392.814 649.78,-389.615 649.99,-396.612"/>
</g>
<!-- cellmass -->
<g id="node119" class="node"><title>cellmass</title>
<polygon fill="none" stroke="black" points="694,-226 680,-226 680,-212 694,-212 694,-226"/>
</g>
<!-- cellmass_intermediate_p -->
<g id="node122" class="node"><title>cellmass_intermediate_p</title>
<ellipse fill="black" stroke="black" cx="761" cy="-208" rx="0.036" ry="0.036"/>
</g>
<!-- cellmass&#45;&gt;cellmass_intermediate_p -->
<g id="edge132" class="edge"><title>cellmass&#45;&gt;cellmass_intermediate_p</title>
<path fill="none" stroke="black" d="M694.095,-217.945C712.038,-215.278 758.005,-208.445 760.861,-208.021"/>
</g>
<!-- cellmass_empty -->
<g id="node120" class="node"><title>cellmass_empty</title>
<text text-anchor="middle" x="587" y="-203.5" font-family="Times Roman,serif" font-size="15.00" fill="blue">Ø</text>
</g>
<!-- cellmass_empty&#45;&gt;cellmass -->
<g id="edge130" class="edge"><title>cellmass_empty&#45;&gt;cellmass</title>
<path fill="none" stroke="black" d="M614.061,-210.977C636.273,-213.42 666.195,-216.711 679.768,-218.204"/>
</g>
<!-- cellmass_intermediate_p&#45;&gt;m -->
<g id="edge134" class="edge"><title>cellmass_intermediate_p&#45;&gt;m</title>
<path fill="none" stroke="black" d="M761.056,-208C761.95,-208 773.474,-208 787.343,-208"/>
<polygon fill="black" stroke="black" points="787.738,-211.5 797.738,-208 787.738,-204.5 787.738,-211.5"/>
</g>
</g>
</svg>
