<?xml version="1.0" encoding="UTF-8" standalone="no"?>
<!DOCTYPE svg PUBLIC "-//W3C//DTD SVG 1.1//EN"
 "http://www.w3.org/Graphics/SVG/1.1/DTD/svg11.dtd">
<!-- Generated by graphviz version 2.24.0 (20090616.2323)
 -->
<!-- Title: G Pages: 1 -->
<svg width="862pt" height="121pt"
 viewBox="0.00 0.00 862.00 121.00" xmlns="http://www.w3.org/2000/svg" xmlns:xlink="http://www.w3.org/1999/xlink">
<g id="graph1" class="graph" transform="scale(1 1) rotate(0) translate(4 117)">
<title>G</title>
<polygon fill="white" stroke="white" points="-4,5 -4,-117 859,-117 859,5 -4,5"/>
<!-- z -->
<g id="node1" class="node"><title>z</title>
<ellipse fill="none" stroke="black" cx="239" cy="-54" rx="62.7899" ry="18"/>
<text text-anchor="middle" x="239" y="-51.5" font-family="Times Roman,serif" font-size="10.00">Ca in the cytosol</text>
</g>
<!-- reaction_0000004_intermediate_r -->
<g id="node23" class="node"><title>reaction_0000004_intermediate_r</title>
<ellipse fill="black" stroke="black" cx="339" cy="-38" rx="0.036" ry="0.036"/>
</g>
<!-- z&#45;&gt;reaction_0000004_intermediate_r -->
<g id="edge24" class="edge"><title>z&#45;&gt;reaction_0000004_intermediate_r</title>
<path fill="none" stroke="black" d="M293.973,-45.2043C316.484,-41.6026 337.637,-38.2181 338.937,-38.0101"/>
</g>
<!-- reaction_0000006_intermediate_r -->
<g id="node37" class="node"><title>reaction_0000006_intermediate_r</title>
<ellipse fill="black" stroke="black" cx="339" cy="-60" rx="0.036" ry="0.036"/>
</g>
<!-- z&#45;&gt;reaction_0000006_intermediate_r -->
<g id="edge40" class="edge"><title>z&#45;&gt;reaction_0000006_intermediate_r</title>
<path fill="none" stroke="black" d="M300.909,-57.7145C320.727,-58.9036 337.895,-59.9337 338.949,-59.9969"/>
</g>
<!-- y -->
<g id="node2" class="node"><title>y</title>
<ellipse fill="none" stroke="black" cx="623" cy="-46" rx="107.112" ry="18"/>
<text text-anchor="middle" x="623" y="-43.5" font-family="Times Roman,serif" font-size="10.00">Ca in the InsP3&#45;insensitive pool</text>
</g>
<!-- reaction_0000003_intermediate_r -->
<g id="node16" class="node"><title>reaction_0000003_intermediate_r</title>
<ellipse fill="black" stroke="black" cx="767" cy="-68" rx="0.036" ry="0.036"/>
</g>
<!-- y&#45;&gt;reaction_0000003_intermediate_r -->
<g id="edge16" class="edge"><title>y&#45;&gt;reaction_0000003_intermediate_r</title>
<path fill="none" stroke="black" d="M702.581,-58.1582C734.844,-63.0872 765.053,-67.7026 766.91,-67.9862"/>
</g>
<!-- reaction_0000005_intermediate_r -->
<g id="node30" class="node"><title>reaction_0000005_intermediate_r</title>
<ellipse fill="black" stroke="black" cx="767" cy="-43" rx="0.036" ry="0.036"/>
</g>
<!-- y&#45;&gt;reaction_0000005_intermediate_r -->
<g id="edge32" class="edge"><title>y&#45;&gt;reaction_0000005_intermediate_r</title>
<path fill="none" stroke="black" d="M729.542,-43.7804C750.269,-43.3486 765.991,-43.021 766.953,-43.001"/>
</g>
<!-- reaction_0000001 -->
<g id="node3" class="node"><title>reaction_0000001</title>
<polygon fill="none" stroke="black" points="104,-78 90,-78 90,-64 104,-64 104,-78"/>
</g>
<!-- reaction_0000001_intermediate_p -->
<g id="node6" class="node"><title>reaction_0000001_intermediate_p</title>
<ellipse fill="black" stroke="black" cx="140" cy="-66" rx="0.036" ry="0.036"/>
</g>
<!-- reaction_0000001&#45;&gt;reaction_0000001_intermediate_p -->
<g id="edge4" class="edge"><title>reaction_0000001&#45;&gt;reaction_0000001_intermediate_p</title>
<path fill="none" stroke="black" d="M104.101,-70.1744C115.932,-68.7986 138.531,-66.1708 139.932,-66.0079"/>
</g>
<!-- reaction_0000001_empty -->
<g id="node4" class="node"><title>reaction_0000001_empty</title>
<text text-anchor="middle" x="27" y="-72.5" font-family="Times Roman,serif" font-size="15.00" fill="blue">Ø</text>
</g>
<!-- reaction_0000001_empty&#45;&gt;reaction_0000001 -->
<g id="edge2" class="edge"><title>reaction_0000001_empty&#45;&gt;reaction_0000001</title>
<path fill="none" stroke="black" d="M54.2643,-74.6631C67.1627,-73.5575 81.5367,-72.3254 89.8947,-71.609"/>
</g>
<!-- reaction_0000001_intermediate_p&#45;&gt;z -->
<g id="edge6" class="edge"><title>reaction_0000001_intermediate_p&#45;&gt;z</title>
<path fill="none" stroke="black" d="M140.072,-65.9913C141.158,-65.8596 154.454,-64.248 170.965,-62.2466"/>
<polygon fill="black" stroke="black" points="171.485,-65.7094 180.991,-61.0314 170.642,-58.7603 171.485,-65.7094"/>
</g>
<!-- reaction_0000002 -->
<g id="node9" class="node"><title>reaction_0000002</title>
<polygon fill="none" stroke="black" points="104,-41 90,-41 90,-27 104,-27 104,-41"/>
</g>
<!-- reaction_0000002_intermediate_p -->
<g id="node12" class="node"><title>reaction_0000002_intermediate_p</title>
<ellipse fill="black" stroke="black" cx="140" cy="-43" rx="0.036" ry="0.036"/>
</g>
<!-- reaction_0000002&#45;&gt;reaction_0000002_intermediate_p -->
<g id="edge10" class="edge"><title>reaction_0000002&#45;&gt;reaction_0000002_intermediate_p</title>
<path fill="none" stroke="black" d="M104.101,-35.4862C115.932,-37.9625 138.531,-42.6925 139.932,-42.9857"/>
</g>
<!-- reaction_0000002_empty -->
<g id="node10" class="node"><title>reaction_0000002_empty</title>
<text text-anchor="middle" x="27" y="-18.5" font-family="Times Roman,serif" font-size="15.00" fill="blue">Ø</text>
</g>
<!-- reaction_0000002_empty&#45;&gt;reaction_0000002 -->
<g id="edge8" class="edge"><title>reaction_0000002_empty&#45;&gt;reaction_0000002</title>
<path fill="none" stroke="black" d="M54.2643,-27.2844C67.1627,-29.3113 81.5367,-31.5701 89.8947,-32.8835"/>
</g>
<!-- reaction_0000002_intermediate_p&#45;&gt;z -->
<g id="edge12" class="edge"><title>reaction_0000002_intermediate_p&#45;&gt;z</title>
<path fill="none" stroke="black" d="M140.072,-43.008C141.134,-43.126 153.856,-44.5395 169.844,-46.316"/>
<polygon fill="black" stroke="black" points="169.821,-49.8349 180.147,-47.4607 170.594,-42.8777 169.821,-49.8349"/>
</g>
<!-- reaction_0000003 -->
<g id="node15" class="node"><title>reaction_0000003</title>
<polygon fill="none" stroke="black" points="818,-82 804,-82 804,-68 818,-68 818,-82"/>
</g>
<!-- reaction_0000003_intermediate_p -->
<g id="node19" class="node"><title>reaction_0000003_intermediate_p</title>
<ellipse fill="black" stroke="black" cx="854" cy="-94" rx="0.036" ry="0.036"/>
</g>
<!-- reaction_0000003&#45;&gt;reaction_0000003_intermediate_p -->
<g id="edge18" class="edge"><title>reaction_0000003&#45;&gt;reaction_0000003_intermediate_p</title>
<path fill="none" stroke="black" d="M818.101,-78.1375C829.932,-83.3654 852.531,-93.3508 853.932,-93.9698"/>
</g>
<!-- reaction_0000003_intermediate_r&#45;&gt;reaction_0000003 -->
<g id="edge14" class="edge"><title>reaction_0000003_intermediate_r&#45;&gt;reaction_0000003</title>
<path fill="none" stroke="black" d="M767.126,-68.0201C769.022,-68.3216 791.795,-71.9446 803.759,-73.848"/>
</g>
<!-- reaction_0000003_intermediate_p&#45;&gt;z -->
<g id="edge20" class="edge"><title>reaction_0000003_intermediate_p&#45;&gt;z</title>
<path fill="none" stroke="black" d="M853.863,-94.0545C851.044,-95.1689 805.341,-113 767,-113 383,-113 383,-113 383,-113 342.531,-113 300.121,-92.8009 271.895,-76.0402"/>
<polygon fill="black" stroke="black" points="273.607,-72.9841 263.25,-70.7492 269.953,-78.9547 273.607,-72.9841"/>
</g>
<!-- reaction_0000004 -->
<g id="node22" class="node"><title>reaction_0000004</title>
<polygon fill="none" stroke="black" points="390,-42 376,-42 376,-28 390,-28 390,-42"/>
</g>
<!-- reaction_0000004_intermediate_p -->
<g id="node26" class="node"><title>reaction_0000004_intermediate_p</title>
<ellipse fill="black" stroke="black" cx="453" cy="-31" rx="0.036" ry="0.036"/>
</g>
<!-- reaction_0000004&#45;&gt;reaction_0000004_intermediate_p -->
<g id="edge26" class="edge"><title>reaction_0000004&#45;&gt;reaction_0000004_intermediate_p</title>
<path fill="none" stroke="black" d="M390.228,-34.587C407.554,-33.5969 450.221,-31.1588 452.871,-31.0074"/>
</g>
<!-- reaction_0000004_intermediate_r&#45;&gt;reaction_0000004 -->
<g id="edge22" class="edge"><title>reaction_0000004_intermediate_r&#45;&gt;reaction_0000004</title>
<path fill="none" stroke="black" d="M339.126,-37.9914C341.022,-37.8622 363.795,-36.3095 375.759,-35.4937"/>
</g>
<!-- reaction_0000004_intermediate_p&#45;&gt;y -->
<g id="edge28" class="edge"><title>reaction_0000004_intermediate_p&#45;&gt;y</title>
<path fill="none" stroke="black" d="M453.123,-31.0109C455.237,-31.1974 484.26,-33.7582 517.736,-36.712"/>
<polygon fill="black" stroke="black" points="517.489,-40.2037 527.758,-37.5963 518.104,-33.2308 517.489,-40.2037"/>
</g>
<!-- reaction_0000005 -->
<g id="node29" class="node"><title>reaction_0000005</title>
<polygon fill="none" stroke="black" points="818,-47 804,-47 804,-33 818,-33 818,-47"/>
</g>
<!-- reaction_0000005_intermediate_p -->
<g id="node33" class="node"><title>reaction_0000005_intermediate_p</title>
<ellipse fill="black" stroke="black" cx="854" cy="-20" rx="0.036" ry="0.036"/>
</g>
<!-- reaction_0000005&#45;&gt;reaction_0000005_intermediate_p -->
<g id="edge34" class="edge"><title>reaction_0000005&#45;&gt;reaction_0000005_intermediate_p</title>
<path fill="none" stroke="black" d="M818.101,-36.6974C829.932,-31.1944 852.531,-20.6833 853.932,-20.0318"/>
</g>
<!-- reaction_0000005_intermediate_r&#45;&gt;reaction_0000005 -->
<g id="edge30" class="edge"><title>reaction_0000005_intermediate_r&#45;&gt;reaction_0000005</title>
<path fill="none" stroke="black" d="M767.126,-42.9914C769.022,-42.8622 791.795,-41.3095 803.759,-40.4937"/>
</g>
<!-- reaction_0000005_intermediate_p&#45;&gt;z -->
<g id="edge36" class="edge"><title>reaction_0000005_intermediate_p&#45;&gt;z</title>
<path fill="none" stroke="black" d="M853.863,-19.9426C851.05,-18.7695 805.435,-3.55271e-15 767,-0 383,-0 383,-0 383,-0 344.139,-0 302.92,-17.455 274.585,-32.5172"/>
<polygon fill="black" stroke="black" points="272.576,-29.6269 265.492,-37.5048 275.943,-35.7643 272.576,-29.6269"/>
</g>
<!-- reaction_0000006 -->
<g id="node36" class="node"><title>reaction_0000006</title>
<polygon fill="none" stroke="black" points="390,-74 376,-74 376,-60 390,-60 390,-74"/>
</g>
<!-- reaction_0000006_empty -->
<g id="node40" class="node"><title>reaction_0000006_empty</title>
<text text-anchor="middle" x="453" y="-62.5" font-family="Times Roman,serif" font-size="15.00" fill="blue">Ø</text>
</g>
<!-- reaction_0000006&#45;&gt;reaction_0000006_empty -->
<g id="edge42" class="edge"><title>reaction_0000006&#45;&gt;reaction_0000006_empty</title>
<path fill="none" stroke="black" d="M390.228,-67C396.45,-67 405.94,-67 415.672,-67"/>
<polygon fill="black" stroke="black" points="415.773,-70.5001 425.773,-67 415.773,-63.5001 415.773,-70.5001"/>
</g>
<!-- reaction_0000006_intermediate_r&#45;&gt;reaction_0000006 -->
<g id="edge38" class="edge"><title>reaction_0000006_intermediate_r&#45;&gt;reaction_0000006</title>
<path fill="none" stroke="black" d="M339.126,-60.0201C341.022,-60.3216 363.795,-63.9446 375.759,-65.848"/>
</g>
</g>
</svg>
