<?xml version="1.0" encoding="UTF-8" standalone="no"?>
<!DOCTYPE svg PUBLIC "-//W3C//DTD SVG 1.1//EN"
 "http://www.w3.org/Graphics/SVG/1.1/DTD/svg11.dtd">
<!-- Generated by graphviz version 2.24.0 (20090616.2323)
 -->
<!-- Title: G Pages: 1 -->
<svg width="402pt" height="126pt"
 viewBox="0.00 0.00 402.00 126.00" xmlns="http://www.w3.org/2000/svg" xmlns:xlink="http://www.w3.org/1999/xlink">
<g id="graph1" class="graph" transform="scale(1 1) rotate(0) translate(4 122)">
<title>G</title>
<polygon fill="white" stroke="white" points="-4,5 -4,-122 399,-122 399,5 -4,5"/>
<!-- B -->
<g id="node1" class="node"><title>B</title>
<polyline fill="none" stroke="black" points="258,-87 228,-87 "/>
<path fill="none" stroke="black" d="M228,-87C222,-87 216,-81 216,-75"/>
<polyline fill="none" stroke="black" points="216,-75 216,-63 "/>
<path fill="none" stroke="black" d="M216,-63C216,-57 222,-51 228,-51"/>
<polyline fill="none" stroke="black" points="228,-51 258,-51 "/>
<path fill="none" stroke="black" d="M258,-51C264,-51 270,-57 270,-63"/>
<polyline fill="none" stroke="black" points="270,-63 270,-75 "/>
<path fill="none" stroke="black" d="M270,-75C270,-81 264,-87 258,-87"/>
<text text-anchor="middle" x="243" y="-66.5" font-family="Times Roman,serif" font-size="10.00">B</text>
</g>
<!-- Growth_intermediate_r -->
<g id="node14" class="node"><title>Growth_intermediate_r</title>
<ellipse fill="black" stroke="black" cx="307" cy="-111" rx="0.036" ry="0.036"/>
</g>
<!-- B&#45;&gt;Growth_intermediate_r -->
<g id="edge18" class="edge"><title>B&#45;&gt;Growth_intermediate_r</title>
<path fill="none" stroke="black" d="M270.142,-86.8118C287.04,-97.9012 305.788,-110.205 306.944,-110.963"/>
</g>
<!-- Growth_intermediate_m -->
<g id="node21" class="node"><title>Growth_intermediate_m</title>
<ellipse fill="black" stroke="black" cx="394" cy="-38" rx="0.036" ry="0.036"/>
</g>
<!-- B&#45;&gt;Growth_intermediate_m -->
<g id="edge28" class="edge"><title>B&#45;&gt;Growth_intermediate_m</title>
<path fill="none" stroke="black" d="M270.345,-63.3861C313.179,-54.5924 391.505,-38.5123 393.942,-38.012"/>
</g>
<!-- A -->
<g id="node2" class="node"><title>A</title>
<polyline fill="none" stroke="black" points="42,-72 12,-72 "/>
<path fill="none" stroke="black" d="M12,-72C6,-72 2.07242e-14,-66 1.65793e-14,-60"/>
<polyline fill="none" stroke="black" points="1.65793e-14,-60 8.28967e-15,-48 "/>
<path fill="none" stroke="black" d="M8.28967e-15,-48C4.14483e-15,-42 6,-36 12,-36"/>
<polyline fill="none" stroke="black" points="12,-36 42,-36 "/>
<path fill="none" stroke="black" d="M42,-36C48,-36 54,-42 54,-48"/>
<polyline fill="none" stroke="black" points="54,-48 54,-60 "/>
<path fill="none" stroke="black" d="M54,-60C54,-66 48,-72 42,-72"/>
<text text-anchor="middle" x="27" y="-51.5" font-family="Times Roman,serif" font-size="10.00">A</text>
</g>
<!-- Nucleation_intermediate_r -->
<g id="node4" class="node"><title>Nucleation_intermediate_r</title>
<ellipse fill="black" stroke="black" cx="91" cy="-70" rx="0.036" ry="0.036"/>
</g>
<!-- A&#45;&gt;Nucleation_intermediate_r -->
<g id="edge4" class="edge"><title>A&#45;&gt;Nucleation_intermediate_r</title>
<path fill="none" stroke="black" d="M54.1418,-60.7854C71.0399,-65.01 89.7885,-69.6971 90.9438,-69.9859"/>
</g>
<!-- Nucleation_intermediate_m -->
<g id="node10" class="node"><title>Nucleation_intermediate_m</title>
<ellipse fill="black" stroke="black" cx="179" cy="-45" rx="0.036" ry="0.036"/>
</g>
<!-- A&#45;&gt;Nucleation_intermediate_m -->
<g id="edge12" class="edge"><title>A&#45;&gt;Nucleation_intermediate_m</title>
<path fill="none" stroke="black" d="M54.1746,-52.391C97.212,-49.8427 176.475,-45.1495 178.941,-45.0035"/>
</g>
<!-- A&#45;&gt;Growth_intermediate_r -->
<g id="edge16" class="edge"><title>A&#45;&gt;Growth_intermediate_r</title>
<path fill="none" stroke="black" d="M45.5066,-72.302C65.7129,-90.2699 99.8995,-115 135,-115 135,-115 135,-115 179,-115 235.027,-115 304.782,-111.124 306.948,-111.003"/>
</g>
<!-- A&#45;&gt;Growth_intermediate_m -->
<g id="edge26" class="edge"><title>A&#45;&gt;Growth_intermediate_m</title>
<path fill="none" stroke="black" d="M48.5939,-35.7181C69.3467,-20.0522 102.298,-0 135,-0 135,-0 135,-0 307,-0 347.876,-0 391.202,-35.6621 393.87,-37.891"/>
</g>
<!-- Nucleation -->
<g id="node3" class="node"><title>Nucleation</title>
<polygon fill="none" stroke="black" points="142,-80 128,-80 128,-66 142,-66 142,-80"/>
</g>
<!-- Nucleation_intermediate_p -->
<g id="node7" class="node"><title>Nucleation_intermediate_p</title>
<ellipse fill="black" stroke="black" cx="179" cy="-71" rx="0.036" ry="0.036"/>
</g>
<!-- Nucleation&#45;&gt;Nucleation_intermediate_p -->
<g id="edge6" class="edge"><title>Nucleation&#45;&gt;Nucleation_intermediate_p</title>
<path fill="none" stroke="black" d="M142.266,-72.6697C154.372,-72.1194 177.497,-71.0683 178.93,-71.0032"/>
</g>
<!-- Nucleation&#45;&gt;Nucleation_intermediate_m -->
<g id="edge10" class="edge"><title>Nucleation&#45;&gt;Nucleation_intermediate_m</title>
<path fill="none" stroke="black" d="M152.536,-61.8407C164.301,-54.3539 177.844,-45.7358 178.93,-45.0445"/>
<polygon fill="none" stroke="black" points="152.39,-61.9338 149.475,-68.5297 142.266,-68.3764 145.18,-61.7804 152.39,-61.9338"/>
</g>
<!-- Nucleation_intermediate_r&#45;&gt;Nucleation -->
<g id="edge2" class="edge"><title>Nucleation_intermediate_r&#45;&gt;Nucleation</title>
<path fill="none" stroke="black" d="M91.1262,-70.0086C93.0215,-70.1378 115.795,-71.6905 127.759,-72.5063"/>
</g>
<!-- Nucleation_intermediate_p&#45;&gt;B -->
<g id="edge8" class="edge"><title>Nucleation_intermediate_p&#45;&gt;B</title>
<path fill="none" stroke="black" d="M179.046,-70.9986C179.885,-70.9723 191.971,-70.5947 205.414,-70.1746"/>
<polygon fill="black" stroke="black" points="205.909,-73.6609 215.794,-69.8502 205.69,-66.6643 205.909,-73.6609"/>
</g>
<!-- Growth -->
<g id="node13" class="node"><title>Growth</title>
<polygon fill="none" stroke="black" points="358,-118 344,-118 344,-104 358,-104 358,-118"/>
</g>
<!-- Growth_intermediate_p -->
<g id="node18" class="node"><title>Growth_intermediate_p</title>
<ellipse fill="black" stroke="black" cx="394" cy="-93" rx="0.036" ry="0.036"/>
</g>
<!-- Growth&#45;&gt;Growth_intermediate_p -->
<g id="edge20" class="edge"><title>Growth&#45;&gt;Growth_intermediate_p</title>
<path fill="none" stroke="black" d="M358.101,-108.028C369.932,-103.075 392.531,-93.615 393.932,-93.0286"/>
</g>
<!-- Growth&#45;&gt;Growth_intermediate_m -->
<g id="edge24" class="edge"><title>Growth&#45;&gt;Growth_intermediate_m</title>
<path fill="none" stroke="black" d="M361.401,-93.3432C373.655,-72.5383 392.54,-40.4793 393.92,-38.1362"/>
<polygon fill="none" stroke="black" points="361.371,-93.394 361.772,-100.594 355.28,-103.734 354.879,-96.5336 361.371,-93.394"/>
</g>
<!-- Growth_intermediate_r&#45;&gt;Growth -->
<g id="edge14" class="edge"><title>Growth_intermediate_r&#45;&gt;Growth</title>
<path fill="none" stroke="black" d="M307.126,-111C309.022,-111 331.795,-111 343.759,-111"/>
</g>
<!-- Growth_intermediate_p&#45;&gt;B -->
<g id="edge22" class="edge"><title>Growth_intermediate_p&#45;&gt;B</title>
<path fill="none" stroke="black" d="M393.942,-92.9907C391.685,-92.6321 324.388,-81.9358 280.423,-74.9481"/>
<polygon fill="black" stroke="black" points="280.77,-71.4594 270.345,-73.3462 279.672,-78.3726 280.77,-71.4594"/>
</g>
</g>
</svg>
