<?xml version="1.0" encoding="UTF-8" standalone="no"?>
<!DOCTYPE svg PUBLIC "-//W3C//DTD SVG 1.1//EN"
 "http://www.w3.org/Graphics/SVG/1.1/DTD/svg11.dtd">
<!-- Generated by graphviz version 2.30.1 (20140821.0912)
 -->
<!-- Title: G Pages: 1 -->
<svg width="2234pt" height="806pt"
 viewBox="0.00 0.00 2234.00 806.00" xmlns="http://www.w3.org/2000/svg" xmlns:xlink="http://www.w3.org/1999/xlink">
<g id="graph0" class="graph" transform="scale(1 1) rotate(0) translate(4 802)">
<title>G</title>
<polygon fill="white" stroke="white" points="-4,5 -4,-802 2231,-802 2231,5 -4,5"/>
<!-- s_glu -->
<g id="s_glu [CHEBI:17234]" class="node"><title>s_glu</title>
<ellipse fill="none" stroke="black" cx="276" cy="-159" rx="29.3664" ry="18"/>
<text text-anchor="middle" x="276" y="-156.5" font-family="Times,serif" font-size="10.00">Glucose</text>
</g>
<!-- r1_intermediate_r -->
<g id="node13" class="node"><title>r1_intermediate_r</title>
<ellipse fill="black" stroke="black" cx="343" cy="-753" rx="0.036" ry="0.036"/>
</g>
<!-- s_glu&#45;&gt;r1_intermediate_r -->
<g id="edge2" class="edge"><title>s_glu&#45;&gt;r1_intermediate_r</title>
<path fill="none" stroke="black" d="M278.981,-177.102C289.789,-275.873 341.188,-745.58 341.991,-752.913"/>
</g>
<!-- r2_intermediate_m -->
<g id="node19" class="node"><title>r2_intermediate_m</title>
<ellipse fill="black" stroke="black" cx="1519" cy="-178" rx="0.036" ry="0.036"/>
</g>
<!-- s_glu&#45;&gt;r2_intermediate_m -->
<g id="edge16" class="edge"><title>s_glu&#45;&gt;r2_intermediate_m</title>
<path fill="none" stroke="black" d="M293.348,-144.024C313.542,-127.136 349.697,-102 386,-102 386,-102 386,-102 1308,-102 1405.71,-102 1514.54,-175.644 1517.92,-177.945"/>
</g>
<!-- r5_intermediate_m -->
<g id="node31" class="node"><title>r5_intermediate_m</title>
<ellipse fill="black" stroke="black" cx="1519" cy="-520" rx="0.036" ry="0.036"/>
</g>
<!-- s_glu&#45;&gt;r5_intermediate_m -->
<g id="edge39" class="edge"><title>s_glu&#45;&gt;r5_intermediate_m</title>
<path fill="none" stroke="black" d="M276.566,-177.094C274.723,-273.46 272.255,-722 386,-722 386,-722 386,-722 1036,-722 1245.27,-722 1318.43,-701.537 1482,-571 1503.01,-554.235 1517.1,-522.09 1517.96,-520.097"/>
</g>
<!-- r7_intermediate_r -->
<g id="node37" class="node"><title>r7_intermediate_r</title>
<ellipse fill="black" stroke="black" cx="551" cy="-178" rx="0.036" ry="0.036"/>
</g>
<!-- s_glu&#45;&gt;r7_intermediate_r -->
<g id="edge48" class="edge"><title>s_glu&#45;&gt;r7_intermediate_r</title>
<path fill="none" stroke="black" d="M305.443,-160.98C374.273,-165.77 544.568,-177.622 549.873,-177.991"/>
</g>
<!-- r8_intermediate_m -->
<g id="node43" class="node"><title>r8_intermediate_m</title>
<ellipse fill="black" stroke="black" cx="1519" cy="-230" rx="0.036" ry="0.036"/>
</g>
<!-- s_glu&#45;&gt;r8_intermediate_m -->
<g id="edge63" class="edge"><title>s_glu&#45;&gt;r8_intermediate_m</title>
<path fill="none" stroke="black" d="M293.348,-173.976C313.542,-190.864 349.697,-216 386,-216 386,-216 386,-216 1238,-216 1360.65,-216 1513.15,-229.566 1517.89,-229.99"/>
</g>
<!-- r9_intermediate_m -->
<g id="node47" class="node"><title>r9_intermediate_m</title>
<ellipse fill="black" stroke="black" cx="1855" cy="-131" rx="0.036" ry="0.036"/>
</g>
<!-- s_glu&#45;&gt;r9_intermediate_m -->
<g id="edge70" class="edge"><title>s_glu&#45;&gt;r9_intermediate_m</title>
<path fill="none" stroke="black" d="M286.257,-142.016C302.535,-114.691 339.059,-64 386,-64 386,-64 386,-64 1694,-64 1769.89,-64 1851.41,-128.923 1853.94,-130.951"/>
</g>
<!-- r10_intermediate_m -->
<g id="node51" class="node"><title>r10_intermediate_m</title>
<ellipse fill="black" stroke="black" cx="1855" cy="-290" rx="0.036" ry="0.036"/>
</g>
<!-- s_glu&#45;&gt;r10_intermediate_m -->
<g id="edge77" class="edge"><title>s_glu&#45;&gt;r10_intermediate_m</title>
<path fill="none" stroke="black" d="M303.208,-151.817C325.149,-146.436 357.379,-140 386,-140 386,-140 386,-140 1308,-140 1403.1,-140 1438.26,-120.387 1520,-169 1543.23,-182.814 1533.5,-203.03 1556,-218 1667.67,-292.301 1848.25,-290.089 1853.87,-290.002"/>
</g>
<!-- s_glu_out_intermediate_r -->
<g id="node60" class="node"><title>s_glu_out_intermediate_r</title>
<ellipse fill="black" stroke="black" cx="343" cy="-27" rx="0.036" ry="0.036"/>
</g>
<!-- s_glu&#45;&gt;s_glu_out_intermediate_r -->
<g id="edge89" class="edge"><title>s_glu&#45;&gt;s_glu_out_intermediate_r</title>
<path fill="none" stroke="black" d="M285.498,-141.743C302.841,-106.522 340.79,-29.4571 341.972,-27.0574"/>
</g>
<!-- s_pyr -->
<g id="s_pyr [CHEBI:15361]" class="node"><title>s_pyr</title>
<ellipse fill="none" stroke="black" cx="551" cy="-520" rx="31.3996" ry="18"/>
<text text-anchor="middle" x="551" y="-517.5" font-family="Times,serif" font-size="10.00">Pyruvate</text>
</g>
<!-- r2_intermediate_r -->
<g id="node17" class="node"><title>r2_intermediate_r</title>
<ellipse fill="black" stroke="black" cx="840" cy="-430" rx="0.036" ry="0.036"/>
</g>
<!-- s_pyr&#45;&gt;r2_intermediate_r -->
<g id="edge10" class="edge"><title>s_pyr&#45;&gt;r2_intermediate_r</title>
<path fill="none" stroke="black" d="M578.743,-511.614C648.877,-489.62 833.122,-431.843 838.863,-430.043"/>
</g>
<!-- r3_intermediate_r -->
<g id="node21" class="node"><title>r3_intermediate_r</title>
<ellipse fill="black" stroke="black" cx="619" cy="-559" rx="0.036" ry="0.036"/>
</g>
<!-- s_pyr&#45;&gt;r3_intermediate_r -->
<g id="edge18" class="edge"><title>s_pyr&#45;&gt;r3_intermediate_r</title>
<path fill="none" stroke="black" d="M573.611,-532.77C592.258,-543.789 616.434,-558.075 617.927,-558.957"/>
</g>
<!-- s_pyr_out_intermediate_r -->
<g id="node63" class="node"><title>s_pyr_out_intermediate_r</title>
<ellipse fill="black" stroke="black" cx="619" cy="-520" rx="0.036" ry="0.036"/>
</g>
<!-- s_pyr&#45;&gt;s_pyr_out_intermediate_r -->
<g id="edge92" class="edge"><title>s_pyr&#45;&gt;s_pyr_out_intermediate_r</title>
<path fill="none" stroke="black" d="M582.296,-520C599.104,-520 616.854,-520 617.947,-520"/>
</g>
<!-- s_acetate -->
<g id="s_acetate [CHEBI:40480]" class="node"><title>s_acetate</title>
<ellipse fill="none" stroke="black" cx="1127" cy="-524" rx="28.0137" ry="18"/>
<text text-anchor="middle" x="1127" y="-521.5" font-family="Times,serif" font-size="10.00">Acetate</text>
</g>
<!-- r5_intermediate_r -->
<g id="node29" class="node"><title>r5_intermediate_r</title>
<ellipse fill="black" stroke="black" cx="1193" cy="-520" rx="0.036" ry="0.036"/>
</g>
<!-- s_acetate&#45;&gt;r5_intermediate_r -->
<g id="edge33" class="edge"><title>s_acetate&#45;&gt;r5_intermediate_r</title>
<path fill="none" stroke="black" d="M1155.14,-522.304C1172.04,-521.248 1190.79,-520.076 1191.94,-520.004"/>
</g>
<!-- r8_intermediate_r -->
<g id="node41" class="node"><title>r8_intermediate_r</title>
<ellipse fill="black" stroke="black" cx="1193" cy="-398" rx="0.036" ry="0.036"/>
</g>
<!-- s_acetate&#45;&gt;r8_intermediate_r -->
<g id="edge56" class="edge"><title>s_acetate&#45;&gt;r8_intermediate_r</title>
<path fill="none" stroke="black" d="M1136.63,-507.007C1153.83,-473.152 1190.82,-400.322 1191.97,-398.054"/>
</g>
<!-- s_acetate_out_intermediate_r -->
<g id="node66" class="node"><title>s_acetate_out_intermediate_r</title>
<ellipse fill="black" stroke="black" cx="1193" cy="-540" rx="0.036" ry="0.036"/>
</g>
<!-- s_acetate&#45;&gt;s_acetate_out_intermediate_r -->
<g id="edge95" class="edge"><title>s_acetate&#45;&gt;s_acetate_out_intermediate_r</title>
<path fill="none" stroke="black" d="M1153.66,-530.416C1170.91,-534.728 1190.72,-539.68 1191.94,-539.985"/>
</g>
<!-- s_acetald -->
<g id="s_acetald [CHEBI:15343]" class="node"><title>s_acetald</title>
<ellipse fill="none" stroke="black" cx="840" cy="-570" rx="43.6222" ry="18"/>
<text text-anchor="middle" x="840" y="-567.5" font-family="Times,serif" font-size="10.00">Acetaldehyde</text>
</g>
<!-- r1_intermediate_m -->
<g id="node15" class="node"><title>r1_intermediate_m</title>
<ellipse fill="black" stroke="black" cx="1519" cy="-760" rx="0.036" ry="0.036"/>
</g>
<!-- s_acetald&#45;&gt;r1_intermediate_m -->
<g id="edge7" class="edge"><title>s_acetald&#45;&gt;r1_intermediate_m</title>
<path fill="none" stroke="black" d="M855.854,-586.867C877.307,-609.257 919.319,-646 964,-646 964,-646 964,-646 1036,-646 1131.05,-646 1138.12,-711.679 1230,-736 1352.23,-768.352 1512.89,-760.267 1517.88,-760.006"/>
</g>
<!-- r4_intermediate_r -->
<g id="node25" class="node"><title>r4_intermediate_r</title>
<ellipse fill="black" stroke="black" cx="921" cy="-602" rx="0.036" ry="0.036"/>
</g>
<!-- s_acetald&#45;&gt;r4_intermediate_r -->
<g id="edge25" class="edge"><title>s_acetald&#45;&gt;r4_intermediate_r</title>
<path fill="none" stroke="black" d="M871.77,-582.464C893.258,-591.168 918.376,-601.342 919.925,-601.969"/>
</g>
<!-- r6_intermediate_r -->
<g id="node33" class="node"><title>r6_intermediate_r</title>
<ellipse fill="black" stroke="black" cx="1519" cy="-538" rx="0.036" ry="0.036"/>
</g>
<!-- s_acetald&#45;&gt;r6_intermediate_r -->
<g id="edge41" class="edge"><title>s_acetald&#45;&gt;r6_intermediate_r</title>
<path fill="none" stroke="black" d="M883.693,-570C907.356,-570 937.307,-570 964,-570 964,-570 964,-570 1036,-570 1168.71,-570 1202.5,-606.887 1334,-589 1416.77,-577.741 1514.88,-539.229 1517.93,-538.029"/>
</g>
<!-- s_acetald_out_intermediate_r -->
<g id="node69" class="node"><title>s_acetald_out_intermediate_r</title>
<ellipse fill="black" stroke="black" cx="921" cy="-524" rx="0.036" ry="0.036"/>
</g>
<!-- s_acetald&#45;&gt;s_acetald_out_intermediate_r -->
<g id="edge98" class="edge"><title>s_acetald&#45;&gt;s_acetald_out_intermediate_r</title>
<path fill="none" stroke="black" d="M865.996,-555.445C888.417,-542.39 918.079,-525.119 919.911,-524.052"/>
</g>
<!-- s_EtOH -->
<g id="s_EtOH [CHEBI:16236]" class="node"><title>s_EtOH</title>
<ellipse fill="none" stroke="black" cx="1774" cy="-404" rx="18" ry="18"/>
<text text-anchor="middle" x="1774" y="-401.5" font-family="Times,serif" font-size="10.00">EtOH</text>
</g>
<!-- r4_intermediate_m -->
<g id="node27" class="node"><title>r4_intermediate_m</title>
<ellipse fill="black" stroke="black" cx="1855" cy="-474" rx="0.036" ry="0.036"/>
</g>
<!-- s_EtOH&#45;&gt;r4_intermediate_m -->
<g id="edge31" class="edge"><title>s_EtOH&#45;&gt;r4_intermediate_m</title>
<path fill="none" stroke="black" d="M1788.05,-415.559C1809.78,-434.82 1851.3,-471.608 1853.87,-473.889"/>
</g>
<!-- s_EtOH&#45;&gt;r9_intermediate_m -->
<g id="edge71" class="edge"><title>s_EtOH&#45;&gt;r9_intermediate_m</title>
<path fill="none" stroke="black" d="M1776.92,-385.989C1782.69,-334.421 1801.17,-187.388 1828,-148 1835.53,-136.946 1852.87,-131.355 1853.95,-131.016"/>
</g>
<!-- s_EtOH&#45;&gt;r10_intermediate_m -->
<g id="edge78" class="edge"><title>s_EtOH&#45;&gt;r10_intermediate_m</title>
<path fill="none" stroke="black" d="M1785.01,-389.562C1805.93,-359.365 1852.51,-292.143 1853.97,-290.05"/>
</g>
<!-- s_EtOH_out_intermediate_r -->
<g id="node72" class="node"><title>s_EtOH_out_intermediate_r</title>
<ellipse fill="black" stroke="black" cx="1855" cy="-404" rx="0.036" ry="0.036"/>
</g>
<!-- s_EtOH&#45;&gt;s_EtOH_out_intermediate_r -->
<g id="edge101" class="edge"><title>s_EtOH&#45;&gt;s_EtOH_out_intermediate_r</title>
<path fill="none" stroke="black" d="M1792.14,-404C1814.65,-404 1851.6,-404 1853.89,-404"/>
</g>
<!-- x -->
<g id="x" class="node"><title>x</title>
<ellipse fill="none" stroke="black" cx="1426" cy="-338" rx="27" ry="18"/>
<text text-anchor="middle" x="1426" y="-335.5" font-family="Times,serif" font-size="10.00">BM</text>
</g>
<!-- x&#45;&gt;r1_intermediate_m -->
<g id="edge8" class="edge"><title>x&#45;&gt;r1_intermediate_m</title>
<path fill="none" stroke="black" d="M1451.51,-344.064C1462.64,-348.115 1474.89,-354.659 1482,-365 1506.79,-401.023 1517.83,-754.415 1518,-759.935"/>
</g>
<!-- x&#45;&gt;r2_intermediate_m -->
<g id="edge15" class="edge"><title>x&#45;&gt;r2_intermediate_m</title>
<path fill="none" stroke="black" d="M1436.57,-321.18C1459.57,-280.742 1516.19,-181.176 1517.96,-178.074"/>
</g>
<!-- r3_intermediate_m -->
<g id="node23" class="node"><title>r3_intermediate_m</title>
<ellipse fill="black" stroke="black" cx="1519" cy="-502" rx="0.036" ry="0.036"/>
</g>
<!-- x&#45;&gt;r3_intermediate_m -->
<g id="edge23" class="edge"><title>x&#45;&gt;r3_intermediate_m</title>
<path fill="none" stroke="black" d="M1451.07,-344.717C1461.95,-348.9 1474.12,-355.368 1482,-365 1521.24,-412.965 1518.11,-499.251 1518,-501.936"/>
</g>
<!-- x&#45;&gt;r4_intermediate_m -->
<g id="edge30" class="edge"><title>x&#45;&gt;r4_intermediate_m</title>
<path fill="none" stroke="black" d="M1449.95,-346.641C1460.33,-351.189 1472.41,-357.408 1482,-365 1535.97,-407.713 1523.17,-474 1592,-474 1592,-474 1592,-474 1694,-474 1764,-474 1851.23,-474 1853.94,-474"/>
</g>
<!-- x&#45;&gt;r5_intermediate_m -->
<g id="edge38" class="edge"><title>x&#45;&gt;r5_intermediate_m</title>
<path fill="none" stroke="black" d="M1451.19,-344.617C1462.11,-348.778 1474.26,-355.255 1482,-365 1503.65,-392.255 1517.56,-516.046 1517.99,-519.908"/>
</g>
<!-- r6_intermediate_m -->
<g id="node35" class="node"><title>r6_intermediate_m</title>
<ellipse fill="black" stroke="black" cx="1693" cy="-418" rx="0.036" ry="0.036"/>
</g>
<!-- x&#45;&gt;r6_intermediate_m -->
<g id="edge46" class="edge"><title>x&#45;&gt;r6_intermediate_m</title>
<path fill="none" stroke="black" d="M1449.22,-347.475C1467.51,-355.108 1494.21,-365.87 1518,-374 1592.3,-399.388 1688.93,-417.429 1691.93,-417.987"/>
</g>
<!-- r7_intermediate_m -->
<g id="node39" class="node"><title>r7_intermediate_m</title>
<ellipse fill="black" stroke="black" cx="1519" cy="-212" rx="0.036" ry="0.036"/>
</g>
<!-- x&#45;&gt;r7_intermediate_m -->
<g id="edge54" class="edge"><title>x&#45;&gt;r7_intermediate_m</title>
<path fill="none" stroke="black" d="M1438.53,-322.042C1462.63,-288.667 1516.29,-214.369 1517.96,-212.055"/>
</g>
<!-- x&#45;&gt;r8_intermediate_m -->
<g id="edge62" class="edge"><title>x&#45;&gt;r8_intermediate_m</title>
<path fill="none" stroke="black" d="M1449.48,-328.767C1460.39,-323.403 1473.03,-315.762 1482,-306 1506.5,-279.338 1517.32,-233.009 1517.97,-230.14"/>
</g>
<!-- x&#45;&gt;r9_intermediate_m -->
<g id="edge69" class="edge"><title>x&#45;&gt;r9_intermediate_m</title>
<path fill="none" stroke="black" d="M1444.52,-324.761C1455.81,-315.827 1470.47,-303.437 1482,-291 1501.46,-270.005 1505.3,-263.562 1520,-239 1538.99,-207.273 1525.84,-185.387 1556,-164 1663,-88.1284 1848.1,-129.652 1853.86,-130.968"/>
</g>
<!-- x&#45;&gt;r10_intermediate_m -->
<g id="edge76" class="edge"><title>x&#45;&gt;r10_intermediate_m</title>
<path fill="none" stroke="black" d="M1449.23,-328.574C1480.5,-316.191 1539.53,-296 1592,-296 1592,-296 1592,-296 1694,-296 1764.05,-296 1851.23,-290.186 1853.94,-290.004"/>
</g>
<!-- r11_intermediate_m -->
<g id="node55" class="node"><title>r11_intermediate_m</title>
<ellipse fill="black" stroke="black" cx="2199" cy="-291" rx="0.036" ry="0.036"/>
</g>
<!-- x&#45;&gt;r11_intermediate_m -->
<g id="edge83" class="edge"><title>x&#45;&gt;r11_intermediate_m</title>
<path fill="none" stroke="black" d="M1453,-336.98C1485.51,-335.795 1542.86,-334 1592,-334 1592,-334 1592,-334 2060,-334 2123.24,-334 2195.7,-292.333 2197.95,-291.031"/>
</g>
<!-- x_out_intermediate_r -->
<g id="node78" class="node"><title>x_out_intermediate_r</title>
<ellipse fill="black" stroke="black" cx="1519" cy="-365" rx="0.036" ry="0.036"/>
</g>
<!-- x&#45;&gt;x_out_intermediate_r -->
<g id="edge107" class="edge"><title>x&#45;&gt;x_out_intermediate_r</title>
<path fill="none" stroke="black" d="M1450.91,-345.094C1477.03,-352.844 1515.5,-364.26 1517.88,-364.966"/>
</g>
<!-- a -->
<g id="a" class="node"><title>a</title>
<ellipse fill="none" stroke="black" cx="1593" cy="-191" rx="37.1717" ry="18"/>
<text text-anchor="middle" x="1593" y="-188.5" font-family="Times,serif" font-size="10.00">BM(active)</text>
</g>
<!-- r9_intermediate_r -->
<g id="node45" class="node"><title>r9_intermediate_r</title>
<ellipse fill="black" stroke="black" cx="1693" cy="-166" rx="0.036" ry="0.036"/>
</g>
<!-- a&#45;&gt;r9_intermediate_r -->
<g id="edge65" class="edge"><title>a&#45;&gt;r9_intermediate_r</title>
<path fill="none" stroke="black" d="M1626.09,-182.814C1653.78,-175.751 1689.68,-166.593 1691.89,-166.028"/>
</g>
<!-- r10_intermediate_r -->
<g id="node49" class="node"><title>r10_intermediate_r</title>
<ellipse fill="black" stroke="black" cx="1693" cy="-191" rx="0.036" ry="0.036"/>
</g>
<!-- a&#45;&gt;r10_intermediate_r -->
<g id="edge73" class="edge"><title>a&#45;&gt;r10_intermediate_r</title>
<path fill="none" stroke="black" d="M1630.21,-191C1657.26,-191 1689.89,-191 1691.9,-191"/>
</g>
<!-- a_out_intermediate_r -->
<g id="node75" class="node"><title>a_out_intermediate_r</title>
<ellipse fill="black" stroke="black" cx="1693" cy="-216" rx="0.036" ry="0.036"/>
</g>
<!-- a&#45;&gt;a_out_intermediate_r -->
<g id="edge104" class="edge"><title>a&#45;&gt;a_out_intermediate_r</title>
<path fill="none" stroke="black" d="M1626.09,-199.186C1653.78,-206.249 1689.68,-215.407 1691.89,-215.972"/>
</g>
<!-- AcDH -->
<g id="AcDH" class="node"><title>AcDH</title>
<ellipse fill="none" stroke="black" cx="1957" cy="-168" rx="38.0276" ry="18"/>
<text text-anchor="middle" x="1957" y="-165.5" font-family="Times,serif" font-size="10.00">BM(AcDH)</text>
</g>
<!-- r11_intermediate_r -->
<g id="node53" class="node"><title>r11_intermediate_r</title>
<ellipse fill="black" stroke="black" cx="2059" cy="-204" rx="0.036" ry="0.036"/>
</g>
<!-- AcDH&#45;&gt;r11_intermediate_r -->
<g id="edge80" class="edge"><title>AcDH&#45;&gt;r11_intermediate_r</title>
<path fill="none" stroke="black" d="M1988,-178.801C2016.54,-189.074 2055.48,-203.092 2057.88,-203.958"/>
</g>
<!-- AcDH_out_intermediate_r -->
<g id="node81" class="node"><title>AcDH_out_intermediate_r</title>
<ellipse fill="black" stroke="black" cx="2059" cy="-168" rx="0.036" ry="0.036"/>
</g>
<!-- AcDH&#45;&gt;AcDH_out_intermediate_r -->
<g id="edge110" class="edge"><title>AcDH&#45;&gt;AcDH_out_intermediate_r</title>
<path fill="none" stroke="black" d="M1995.52,-168C2023.01,-168 2055.87,-168 2057.9,-168"/>
</g>
<!-- CO2 -->
<g id="CO2 [CHEBI:16526]" class="node"><title>CO2</title>
<ellipse fill="none" stroke="black" cx="1426" cy="-392" rx="18" ry="18"/>
<text text-anchor="middle" x="1426" y="-389.5" font-family="Times,serif" font-size="10.00">CO2</text>
</g>
<!-- Red -->
<g id="Red [CHEBI:16908]" class="node"><title>Red</title>
<ellipse fill="none" stroke="black" cx="1426" cy="-446" rx="55.8461" ry="18"/>
<text text-anchor="middle" x="1426" y="-443.5" font-family="Times,serif" font-size="10.00">Red. Equ. (NADH)</text>
</g>
<!-- Red&#45;&gt;r6_intermediate_r -->
<g id="edge42" class="edge"><title>Red&#45;&gt;r6_intermediate_r</title>
<path fill="none" stroke="black" d="M1444.12,-463.304C1469.65,-489.122 1515.05,-535.018 1517.86,-537.861"/>
</g>
<!-- S_f -->
<g id="S_f [CHEBI:17234]" class="node"><title>S_f</title>
<ellipse fill="none" stroke="black" cx="44" cy="-159" rx="43.6222" ry="18"/>
<text text-anchor="middle" x="44" y="-156.5" font-family="Times,serif" font-size="10.00">Glucose(feed)</text>
</g>
<!-- s_glu_in_intermediate_r -->
<g id="node57" class="node"><title>s_glu_in_intermediate_r</title>
<ellipse fill="black" stroke="black" cx="124" cy="-159" rx="0.036" ry="0.036"/>
</g>
<!-- S_f&#45;&gt;s_glu_in_intermediate_r -->
<g id="edge85" class="edge"><title>S_f&#45;&gt;s_glu_in_intermediate_r</title>
<path fill="none" stroke="black" d="M87.6515,-159C105.292,-159 121.928,-159 122.95,-159"/>
</g>
<!-- r1 -->
<g id="node12" class="node"><title>r1</title>
<polygon fill="none" stroke="black" points="394,-764 380,-764 380,-750 394,-750 394,-764"/>
</g>
<!-- r1_intermediate_p -->
<g id="node14" class="node"><title>r1_intermediate_p</title>
<ellipse fill="black" stroke="black" cx="457" cy="-520" rx="0.036" ry="0.036"/>
</g>
<!-- r1&#45;&gt;r1_intermediate_p -->
<g id="edge3" class="edge"><title>r1&#45;&gt;r1_intermediate_p</title>
<path fill="none" stroke="black" d="M390.035,-749.907C401.173,-711.089 454.303,-525.915 455.96,-520.138"/>
</g>
<!-- r1&#45;&gt;r1_intermediate_m -->
<g id="edge6" class="edge"><title>r1&#45;&gt;r1_intermediate_m</title>
<path fill="none" stroke="black" d="M394.04,-759.69C415.087,-768.812 487.335,-798 550,-798 550,-798 550,-798 1308,-798 1386.13,-798 1406.2,-791.922 1482,-773 1497.99,-769.009 1516.78,-760.55 1517.94,-760.026"/>
</g>
<!-- r1_intermediate_r&#45;&gt;r1 -->
<g id="edge1" class="edge"><title>r1_intermediate_r&#45;&gt;r1</title>
<path fill="none" stroke="black" d="M344.12,-753.011C345.968,-753.187 368.602,-755.343 379.803,-756.41"/>
</g>
<!-- r1_intermediate_p&#45;&gt;s_pyr -->
<g id="edge4" class="edge"><title>r1_intermediate_p&#45;&gt;s_pyr</title>
<path fill="none" stroke="black" d="M458.067,-520C459.552,-520 485.591,-520 509.576,-520"/>
<polygon fill="black" stroke="black" points="509.653,-523.5 519.653,-520 509.653,-516.5 509.653,-523.5"/>
</g>
<!-- r1_intermediate_p&#45;&gt;Red -->
<g id="edge5" class="edge"><title>r1_intermediate_p&#45;&gt;Red</title>
<path fill="none" stroke="black" d="M458.052,-519.914C460.243,-516.341 531.022,-402 618,-402 618,-402 618,-402 1036,-402 1154.14,-402 1291.19,-422.286 1367,-435.309"/>
<polygon fill="black" stroke="black" points="1366.84,-438.832 1377.29,-437.096 1368.03,-431.936 1366.84,-438.832"/>
</g>
<!-- r2 -->
<g id="node16" class="node"><title>r2</title>
<polygon fill="none" stroke="black" points="1244,-331 1230,-331 1230,-317 1244,-317 1244,-331"/>
</g>
<!-- r2_intermediate_p -->
<g id="node18" class="node"><title>r2_intermediate_p</title>
<ellipse fill="black" stroke="black" cx="1307" cy="-394" rx="0.036" ry="0.036"/>
</g>
<!-- r2&#45;&gt;r2_intermediate_p -->
<g id="edge11" class="edge"><title>r2&#45;&gt;r2_intermediate_p</title>
<path fill="none" stroke="black" d="M1241.06,-331.123C1246.84,-343.77 1260.56,-370.205 1280,-385 1289.43,-392.174 1304.99,-393.895 1305.95,-393.995"/>
</g>
<!-- r2&#45;&gt;r2_intermediate_m -->
<g id="edge14" class="edge"><title>r2&#45;&gt;r2_intermediate_m</title>
<path fill="none" stroke="black" d="M1242.94,-316.881C1250.11,-307 1264.27,-289.095 1280,-278 1372.29,-212.902 1513.5,-179.066 1517.9,-178.025"/>
</g>
<!-- r2_intermediate_r&#45;&gt;r2 -->
<g id="edge9" class="edge"><title>r2_intermediate_r&#45;&gt;r2</title>
<path fill="none" stroke="black" d="M841.038,-429.925C842.62,-426.806 893.812,-327 964,-327 964,-327 964,-327 1128,-327 1166.64,-327 1213.03,-325.057 1229.67,-324.299"/>
</g>
<!-- r2_intermediate_p&#45;&gt;CO2 -->
<g id="edge12" class="edge"><title>r2_intermediate_p&#45;&gt;CO2</title>
<path fill="none" stroke="black" d="M1308.08,-393.999C1310.49,-393.957 1363.73,-393.047 1397.53,-392.47"/>
<polygon fill="black" stroke="black" points="1397.79,-395.966 1407.73,-392.295 1397.67,-388.967 1397.79,-395.966"/>
</g>
<!-- r2_intermediate_p&#45;&gt;Red -->
<g id="edge13" class="edge"><title>r2_intermediate_p&#45;&gt;Red</title>
<path fill="none" stroke="black" d="M1308.17,-394.05C1309.82,-394.549 1323.39,-398.67 1334,-403 1343.99,-407.074 1365.5,-417.218 1385.11,-426.63"/>
<polygon fill="black" stroke="black" points="1383.69,-429.835 1394.22,-431.02 1386.73,-423.528 1383.69,-429.835"/>
</g>
<!-- r3 -->
<g id="node20" class="node"><title>r3</title>
<polygon fill="none" stroke="black" points="670,-572 656,-572 656,-558 670,-558 670,-572"/>
</g>
<!-- r3_intermediate_p -->
<g id="node22" class="node"><title>r3_intermediate_p</title>
<ellipse fill="black" stroke="black" cx="733" cy="-565" rx="0.036" ry="0.036"/>
</g>
<!-- r3&#45;&gt;r3_intermediate_p -->
<g id="edge19" class="edge"><title>r3&#45;&gt;r3_intermediate_p</title>
<path fill="none" stroke="black" d="M670.275,-565C686.583,-565 729.222,-565 731.871,-565"/>
</g>
<!-- r3&#45;&gt;r3_intermediate_m -->
<g id="edge22" class="edge"><title>r3&#45;&gt;r3_intermediate_m</title>
<path fill="none" stroke="black" d="M669.129,-572.088C688.319,-597.706 758.905,-684 839,-684 839,-684 839,-684 1036,-684 1263.2,-684 1514.05,-504.833 1517.95,-502.033"/>
</g>
<!-- r3_intermediate_r&#45;&gt;r3 -->
<g id="edge17" class="edge"><title>r3_intermediate_r&#45;&gt;r3</title>
<path fill="none" stroke="black" d="M620.12,-559.017C621.968,-559.281 644.602,-562.515 655.803,-564.115"/>
</g>
<!-- r3_intermediate_p&#45;&gt;s_acetald -->
<g id="edge20" class="edge"><title>r3_intermediate_p&#45;&gt;s_acetald</title>
<path fill="none" stroke="black" d="M734.076,-565.004C735.639,-565.078 761.003,-566.286 786.399,-567.495"/>
<polygon fill="black" stroke="black" points="786.303,-570.994 796.458,-567.974 786.636,-564.002 786.303,-570.994"/>
</g>
<!-- r3_intermediate_p&#45;&gt;CO2 -->
<g id="edge21" class="edge"><title>r3_intermediate_p&#45;&gt;CO2</title>
<path fill="none" stroke="black" d="M734.053,-564.969C738.52,-562.351 1025.39,-394.677 1280,-367 1303.86,-364.406 1310.22,-363.792 1334,-367 1356.5,-370.034 1381.31,-377.109 1399.33,-382.961"/>
<polygon fill="black" stroke="black" points="1398.24,-386.288 1408.83,-386.139 1400.46,-379.649 1398.24,-386.288"/>
</g>
<!-- r4 -->
<g id="node24" class="node"><title>r4</title>
<polygon fill="none" stroke="black" points="972,-612 958,-612 958,-598 972,-598 972,-612"/>
</g>
<!-- r4_intermediate_p -->
<g id="node26" class="node"><title>r4_intermediate_p</title>
<ellipse fill="black" stroke="black" cx="1035" cy="-534" rx="0.036" ry="0.036"/>
</g>
<!-- r4&#45;&gt;r4_intermediate_p -->
<g id="edge26" class="edge"><title>r4&#45;&gt;r4_intermediate_p</title>
<path fill="none" stroke="black" d="M972.275,-598.448C988.583,-581.42 1031.22,-536.901 1033.87,-534.135"/>
</g>
<!-- r4&#45;&gt;r4_intermediate_m -->
<g id="edge29" class="edge"><title>r4&#45;&gt;r4_intermediate_m</title>
<path fill="none" stroke="black" d="M972.022,-606.156C995.802,-610.803 1085.32,-629.077 1156,-654 1225.03,-678.342 1232.8,-722 1306,-722 1306,-722 1306,-722 1694,-722 1824.15,-722 1853.54,-477.86 1853.99,-474.045"/>
</g>
<!-- r4_intermediate_r&#45;&gt;r4 -->
<g id="edge24" class="edge"><title>r4_intermediate_r&#45;&gt;r4</title>
<path fill="none" stroke="black" d="M922.12,-602.009C923.968,-602.141 946.602,-603.757 957.803,-604.557"/>
</g>
<!-- r4_intermediate_p&#45;&gt;s_acetate -->
<g id="edge27" class="edge"><title>r4_intermediate_p&#45;&gt;s_acetate</title>
<path fill="none" stroke="black" d="M1036.07,-533.993C1037.56,-533.826 1064.65,-530.817 1088.7,-528.144"/>
<polygon fill="black" stroke="black" points="1089.19,-531.611 1098.75,-527.028 1088.42,-524.654 1089.19,-531.611"/>
</g>
<!-- r4_intermediate_p&#45;&gt;Red -->
<g id="edge28" class="edge"><title>r4_intermediate_p&#45;&gt;Red</title>
<path fill="none" stroke="black" d="M1036.04,-533.991C1036.95,-533.799 1051.59,-530.65 1062,-525 1079.82,-515.333 1079.58,-505.454 1098,-497 1136.74,-479.222 1149.38,-478 1192,-478 1192,-478 1192,-478 1238,-478 1283.91,-478 1335.27,-468.512 1372.53,-459.869"/>
<polygon fill="black" stroke="black" points="1373.73,-463.181 1382.65,-457.462 1372.11,-456.371 1373.73,-463.181"/>
</g>
<!-- r5 -->
<g id="node28" class="node"><title>r5</title>
<polygon fill="none" stroke="black" points="1244,-523 1230,-523 1230,-509 1244,-509 1244,-523"/>
</g>
<!-- r5_intermediate_p -->
<g id="node30" class="node"><title>r5_intermediate_p</title>
<ellipse fill="black" stroke="black" cx="1307" cy="-412" rx="0.036" ry="0.036"/>
</g>
<!-- r5&#45;&gt;r5_intermediate_p -->
<g id="edge34" class="edge"><title>r5&#45;&gt;r5_intermediate_p</title>
<path fill="none" stroke="black" d="M1242.67,-508.852C1257.8,-485.722 1304.51,-414.28 1305.97,-412.053"/>
</g>
<!-- r5&#45;&gt;r5_intermediate_m -->
<g id="edge37" class="edge"><title>r5&#45;&gt;r5_intermediate_m</title>
<path fill="none" stroke="black" d="M1244.11,-516.087C1284.74,-516.668 1514.37,-519.948 1517.96,-519.999"/>
</g>
<!-- r5_intermediate_r&#45;&gt;r5 -->
<g id="edge32" class="edge"><title>r5_intermediate_r&#45;&gt;r5</title>
<path fill="none" stroke="black" d="M1194.12,-519.989C1195.97,-519.813 1218.6,-517.657 1229.8,-516.59"/>
</g>
<!-- r5_intermediate_p&#45;&gt;CO2 -->
<g id="edge35" class="edge"><title>r5_intermediate_p&#45;&gt;CO2</title>
<path fill="none" stroke="black" d="M1308.08,-411.986C1310.51,-411.571 1364.29,-402.379 1398.05,-396.607"/>
<polygon fill="black" stroke="black" points="1398.95,-400.003 1408.22,-394.868 1397.77,-393.103 1398.95,-400.003"/>
</g>
<!-- r5_intermediate_p&#45;&gt;Red -->
<g id="edge36" class="edge"><title>r5_intermediate_p&#45;&gt;Red</title>
<path fill="none" stroke="black" d="M1308.08,-412.025C1309.98,-412.576 1343.41,-422.289 1374.03,-431.189"/>
<polygon fill="black" stroke="black" points="1373.25,-434.607 1383.83,-434.037 1375.21,-427.885 1373.25,-434.607"/>
</g>
<!-- r6 -->
<g id="node32" class="node"><title>r6</title>
<polygon fill="none" stroke="black" points="1600,-446 1586,-446 1586,-432 1600,-432 1600,-446"/>
</g>
<!-- r6_intermediate_p -->
<g id="node34" class="node"><title>r6_intermediate_p</title>
<ellipse fill="black" stroke="black" cx="1693" cy="-437" rx="0.036" ry="0.036"/>
</g>
<!-- r6&#45;&gt;r6_intermediate_p -->
<g id="edge43" class="edge"><title>r6&#45;&gt;r6_intermediate_p</title>
<path fill="none" stroke="black" d="M1600.13,-438.875C1621.25,-438.444 1689.81,-437.045 1691.95,-437.001"/>
</g>
<!-- r6&#45;&gt;r6_intermediate_m -->
<g id="edge45" class="edge"><title>r6&#45;&gt;r6_intermediate_m</title>
<path fill="none" stroke="black" d="M1600.13,-437.686C1621.25,-433.161 1689.81,-418.469 1691.95,-418.011"/>
</g>
<!-- r6_intermediate_r&#45;&gt;r6 -->
<g id="edge40" class="edge"><title>r6_intermediate_r&#45;&gt;r6</title>
<path fill="none" stroke="black" d="M1520.05,-537.928C1521.87,-535.434 1570.47,-468.605 1586.75,-446.225"/>
</g>
<!-- r6_intermediate_p&#45;&gt;s_EtOH -->
<g id="edge44" class="edge"><title>r6_intermediate_p&#45;&gt;s_EtOH</title>
<path fill="none" stroke="black" d="M1694.17,-436.939C1695.81,-436.338 1709.26,-431.395 1720,-427 1729.17,-423.247 1739.16,-418.965 1747.97,-415.121"/>
<polygon fill="black" stroke="black" points="1749.56,-418.246 1757.3,-411.019 1746.74,-411.838 1749.56,-418.246"/>
</g>
<!-- r7 -->
<g id="node36" class="node"><title>r7</title>
<polygon fill="none" stroke="black" points="1244,-185 1230,-185 1230,-171 1244,-171 1244,-185"/>
</g>
<!-- r7_intermediate_p -->
<g id="node38" class="node"><title>r7_intermediate_p</title>
<ellipse fill="black" stroke="black" cx="1307" cy="-320" rx="0.036" ry="0.036"/>
</g>
<!-- r7&#45;&gt;r7_intermediate_p -->
<g id="edge49" class="edge"><title>r7&#45;&gt;r7_intermediate_p</title>
<path fill="none" stroke="black" d="M1241.47,-185.237C1255.11,-213.722 1304.43,-316.712 1305.96,-319.923"/>
</g>
<!-- r7&#45;&gt;r7_intermediate_m -->
<g id="edge53" class="edge"><title>r7&#45;&gt;r7_intermediate_m</title>
<path fill="none" stroke="black" d="M1244.11,-178.742C1284.74,-183.675 1514.37,-211.559 1517.96,-211.995"/>
</g>
<!-- r7_intermediate_r&#45;&gt;r7 -->
<g id="edge47" class="edge"><title>r7_intermediate_r&#45;&gt;r7</title>
<path fill="none" stroke="black" d="M552.044,-178C553.907,-178 613.875,-178 662,-178 662,-178 662,-178 1128,-178 1166.62,-178 1213.02,-178 1229.67,-178"/>
</g>
<!-- r7_intermediate_p&#45;&gt;x -->
<g id="edge50" class="edge"><title>r7_intermediate_p&#45;&gt;x</title>
<path fill="none" stroke="black" d="M1308.08,-320.013C1310.31,-320.356 1355.9,-327.369 1389.48,-332.535"/>
<polygon fill="black" stroke="black" points="1389.04,-336.009 1399.45,-334.07 1390.1,-329.09 1389.04,-336.009"/>
</g>
<!-- r7_intermediate_p&#45;&gt;CO2 -->
<g id="edge51" class="edge"><title>r7_intermediate_p&#45;&gt;CO2</title>
<path fill="none" stroke="black" d="M1308.04,-320.019C1308.94,-320.411 1323.52,-326.796 1334,-334 1351.4,-345.964 1352.38,-353.365 1370,-365 1379.32,-371.155 1390.25,-376.803 1399.9,-381.324"/>
<polygon fill="black" stroke="black" points="1398.46,-384.515 1409.01,-385.448 1401.34,-378.137 1398.46,-384.515"/>
</g>
<!-- r7_intermediate_p&#45;&gt;Red -->
<g id="edge52" class="edge"><title>r7_intermediate_p&#45;&gt;Red</title>
<path fill="none" stroke="black" d="M1308.03,-320.059C1309.33,-322.535 1351.02,-401.887 1370,-419 1373.2,-421.885 1376.76,-424.533 1380.5,-426.947"/>
<polygon fill="black" stroke="black" points="1379.02,-430.137 1389.42,-432.155 1382.55,-424.092 1379.02,-430.137"/>
</g>
<!-- r8 -->
<g id="node40" class="node"><title>r8</title>
<polygon fill="none" stroke="black" points="1244,-401 1230,-401 1230,-387 1244,-387 1244,-401"/>
</g>
<!-- r8_intermediate_p -->
<g id="node42" class="node"><title>r8_intermediate_p</title>
<ellipse fill="black" stroke="black" cx="1307" cy="-376" rx="0.036" ry="0.036"/>
</g>
<!-- r8&#45;&gt;r8_intermediate_p -->
<g id="edge57" class="edge"><title>r8&#45;&gt;r8_intermediate_p</title>
<path fill="none" stroke="black" d="M1244.28,-392.339C1260.58,-388.022 1303.22,-376.735 1305.87,-376.034"/>
</g>
<!-- r8&#45;&gt;r8_intermediate_m -->
<g id="edge61" class="edge"><title>r8&#45;&gt;r8_intermediate_m</title>
<path fill="none" stroke="black" d="M1239.48,-386.651C1243.17,-370.279 1254.41,-330.702 1280,-311 1352.74,-255.01 1401.94,-312.896 1482,-268 1501.66,-256.977 1517.01,-231.649 1517.95,-230.077"/>
</g>
<!-- r8_intermediate_r&#45;&gt;r8 -->
<g id="edge55" class="edge"><title>r8_intermediate_r&#45;&gt;r8</title>
<path fill="none" stroke="black" d="M1194.12,-397.989C1195.97,-397.813 1218.6,-395.657 1229.8,-394.59"/>
</g>
<!-- r8_intermediate_p&#45;&gt;x -->
<g id="edge58" class="edge"><title>r8_intermediate_p&#45;&gt;x</title>
<path fill="none" stroke="black" d="M1308.08,-375.972C1310.36,-375.232 1358.13,-359.72 1391.89,-348.754"/>
<polygon fill="black" stroke="black" points="1392.99,-352.076 1401.42,-345.658 1390.83,-345.419 1392.99,-352.076"/>
</g>
<!-- r8_intermediate_p&#45;&gt;CO2 -->
<g id="edge59" class="edge"><title>r8_intermediate_p&#45;&gt;CO2</title>
<path fill="none" stroke="black" d="M1308.08,-376.012C1310.49,-376.341 1363.73,-383.622 1397.53,-388.243"/>
<polygon fill="black" stroke="black" points="1397.35,-391.751 1407.73,-389.638 1398.29,-384.815 1397.35,-391.751"/>
</g>
<!-- r8_intermediate_p&#45;&gt;Red -->
<g id="edge60" class="edge"><title>r8_intermediate_p&#45;&gt;Red</title>
<path fill="none" stroke="black" d="M1308.04,-376.008C1308.97,-376.17 1323.87,-378.858 1334,-385 1352.82,-396.41 1351.92,-406.454 1370,-419 1374,-421.772 1378.32,-424.416 1382.72,-426.887"/>
<polygon fill="black" stroke="black" points="1381.33,-430.11 1391.8,-431.707 1384.61,-423.927 1381.33,-430.11"/>
</g>
<!-- r9 -->
<g id="node44" class="node"><title>r9</title>
<polygon fill="none" stroke="black" points="1781,-166 1767,-166 1767,-152 1781,-152 1781,-166"/>
</g>
<!-- r9_intermediate_p -->
<g id="node46" class="node"><title>r9_intermediate_p</title>
<ellipse fill="black" stroke="black" cx="1855" cy="-157" rx="0.036" ry="0.036"/>
</g>
<!-- r9&#45;&gt;r9_intermediate_p -->
<g id="edge66" class="edge"><title>r9&#45;&gt;r9_intermediate_p</title>
<path fill="none" stroke="black" d="M1781.2,-158.843C1799.24,-158.386 1850.65,-157.085 1853.84,-157.004"/>
</g>
<!-- r9&#45;&gt;r9_intermediate_m -->
<g id="edge68" class="edge"><title>r9&#45;&gt;r9_intermediate_m</title>
<path fill="none" stroke="black" d="M1781.2,-156.803C1799.24,-150.408 1850.65,-132.188 1853.84,-131.055"/>
</g>
<!-- r9_intermediate_r&#45;&gt;r9 -->
<g id="edge64" class="edge"><title>r9_intermediate_r&#45;&gt;r9</title>
<path fill="none" stroke="black" d="M1694.06,-165.995C1696.04,-165.819 1748.88,-161.138 1766.98,-159.533"/>
</g>
<!-- r9_intermediate_p&#45;&gt;AcDH -->
<g id="edge67" class="edge"><title>r9_intermediate_p&#45;&gt;AcDH</title>
<path fill="none" stroke="black" d="M1856.07,-157.008C1857.63,-157.18 1884.14,-160.096 1909.47,-162.881"/>
<polygon fill="black" stroke="black" points="1909.1,-166.362 1919.42,-163.977 1909.87,-159.404 1909.1,-166.362"/>
</g>
<!-- r10 -->
<g id="node48" class="node"><title>r10</title>
<polygon fill="none" stroke="black" points="1781,-198 1767,-198 1767,-184 1781,-184 1781,-198"/>
</g>
<!-- r10_empty -->
<g id="node50" class="node"><title>r10_empty</title>
<text text-anchor="middle" x="1855" y="-189.5" font-family="Times,serif" font-size="15.00" fill="blue">Ø</text>
</g>
<!-- r10&#45;&gt;r10_empty -->
<g id="edge74" class="edge"><title>r10&#45;&gt;r10_empty</title>
<path fill="none" stroke="black" d="M1781.2,-191.157C1789.22,-191.36 1803.83,-191.73 1817.87,-192.085"/>
<polygon fill="black" stroke="black" points="1817.81,-195.585 1827.89,-192.339 1817.98,-188.587 1817.81,-195.585"/>
</g>
<!-- r10&#45;&gt;r10_intermediate_m -->
<g id="edge75" class="edge"><title>r10&#45;&gt;r10_intermediate_m</title>
<path fill="none" stroke="black" d="M1781.13,-195.913C1784.59,-198.884 1788.84,-202.884 1792,-207 1812.58,-233.821 1804.81,-249.407 1828,-274 1837.02,-283.563 1852.96,-289.613 1853.95,-289.982"/>
</g>
<!-- r10_intermediate_r&#45;&gt;r10 -->
<g id="edge72" class="edge"><title>r10_intermediate_r&#45;&gt;r10</title>
<path fill="none" stroke="black" d="M1694.06,-191C1696.04,-191 1748.88,-191 1766.98,-191"/>
</g>
<!-- r11 -->
<g id="node52" class="node"><title>r11</title>
<polygon fill="none" stroke="black" points="2136,-251 2122,-251 2122,-237 2136,-237 2136,-251"/>
</g>
<!-- r11_empty -->
<g id="node54" class="node"><title>r11_empty</title>
<text text-anchor="middle" x="2199" y="-240.5" font-family="Times,serif" font-size="15.00" fill="blue">Ø</text>
</g>
<!-- r11&#45;&gt;r11_empty -->
<g id="edge81" class="edge"><title>r11&#45;&gt;r11_empty</title>
<path fill="none" stroke="black" d="M2136.28,-244C2142.28,-244 2151.85,-244 2161.68,-244"/>
<polygon fill="black" stroke="black" points="2161.88,-247.5 2171.88,-244 2161.88,-240.5 2161.88,-247.5"/>
</g>
<!-- r11&#45;&gt;r11_intermediate_m -->
<g id="edge82" class="edge"><title>r11&#45;&gt;r11_intermediate_m</title>
<path fill="none" stroke="black" d="M2136.28,-248.337C2152.58,-259.609 2195.22,-289.08 2197.87,-290.911"/>
</g>
<!-- r11_intermediate_r&#45;&gt;r11 -->
<g id="edge79" class="edge"><title>r11_intermediate_r&#45;&gt;r11</title>
<path fill="none" stroke="black" d="M2060.05,-204.029C2061.72,-205.013 2105.53,-230.785 2121.91,-240.415"/>
</g>
<!-- s_glu_in -->
<g id="node56" class="node"><title>s_glu_in</title>
<polygon fill="none" stroke="black" points="174,-166 160,-166 160,-152 174,-152 174,-166"/>
</g>
<!-- s_glu_in_intermediate_p -->
<g id="node58" class="node"><title>s_glu_in_intermediate_p</title>
<ellipse fill="black" stroke="black" cx="210" cy="-159" rx="0.036" ry="0.036"/>
</g>
<!-- s_glu_in&#45;&gt;s_glu_in_intermediate_p -->
<g id="edge86" class="edge"><title>s_glu_in&#45;&gt;s_glu_in_intermediate_p</title>
<path fill="none" stroke="black" d="M174.05,-159C185.098,-159 207.54,-159 208.932,-159"/>
</g>
<!-- s_glu_in_intermediate_r&#45;&gt;s_glu_in -->
<g id="edge84" class="edge"><title>s_glu_in_intermediate_r&#45;&gt;s_glu_in</title>
<path fill="none" stroke="black" d="M125.118,-159C126.921,-159 149.016,-159 159.95,-159"/>
</g>
<!-- s_glu_in_intermediate_p&#45;&gt;s_glu -->
<g id="edge87" class="edge"><title>s_glu_in_intermediate_p&#45;&gt;s_glu</title>
<path fill="none" stroke="black" d="M211.046,-159C211.861,-159 223.284,-159 236.257,-159"/>
<polygon fill="black" stroke="black" points="236.329,-162.5 246.329,-159 236.329,-155.5 236.329,-162.5"/>
</g>
<!-- s_glu_out -->
<g id="node59" class="node"><title>s_glu_out</title>
<polygon fill="none" stroke="black" points="394,-29 380,-29 380,-15 394,-15 394,-29"/>
</g>
<!-- s_glu_out_empty -->
<g id="node61" class="node"><title>s_glu_out_empty</title>
<text text-anchor="middle" x="457" y="-14.5" font-family="Times,serif" font-size="15.00" fill="blue">Ø</text>
</g>
<!-- s_glu_out&#45;&gt;s_glu_out_empty -->
<g id="edge90" class="edge"><title>s_glu_out&#45;&gt;s_glu_out_empty</title>
<path fill="none" stroke="black" d="M394.275,-21.6309C400.278,-21.2777 409.849,-20.7148 419.68,-20.1365"/>
<polygon fill="black" stroke="black" points="420.102,-23.6178 429.88,-19.5365 419.691,-16.6298 420.102,-23.6178"/>
</g>
<!-- s_glu_out_intermediate_r&#45;&gt;s_glu_out -->
<g id="edge88" class="edge"><title>s_glu_out_intermediate_r&#45;&gt;s_glu_out</title>
<path fill="none" stroke="black" d="M344.12,-26.9857C345.968,-26.7657 368.602,-24.0712 379.803,-22.7378"/>
</g>
<!-- s_pyr_out -->
<g id="node62" class="node"><title>s_pyr_out</title>
<polygon fill="none" stroke="black" points="670,-527 656,-527 656,-513 670,-513 670,-527"/>
</g>
<!-- s_pyr_out_empty -->
<g id="node64" class="node"><title>s_pyr_out_empty</title>
<text text-anchor="middle" x="733" y="-516.5" font-family="Times,serif" font-size="15.00" fill="blue">Ø</text>
</g>
<!-- s_pyr_out&#45;&gt;s_pyr_out_empty -->
<g id="edge93" class="edge"><title>s_pyr_out&#45;&gt;s_pyr_out_empty</title>
<path fill="none" stroke="black" d="M670.275,-520C676.278,-520 685.849,-520 695.68,-520"/>
<polygon fill="black" stroke="black" points="695.88,-523.5 705.88,-520 695.88,-516.5 695.88,-523.5"/>
</g>
<!-- s_pyr_out_intermediate_r&#45;&gt;s_pyr_out -->
<g id="edge91" class="edge"><title>s_pyr_out_intermediate_r&#45;&gt;s_pyr_out</title>
<path fill="none" stroke="black" d="M620.12,-520C621.968,-520 644.602,-520 655.803,-520"/>
</g>
<!-- s_acetate_out -->
<g id="node65" class="node"><title>s_acetate_out</title>
<polygon fill="none" stroke="black" points="1244,-562 1230,-562 1230,-548 1244,-548 1244,-562"/>
</g>
<!-- s_acetate_out_empty -->
<g id="node67" class="node"><title>s_acetate_out_empty</title>
<text text-anchor="middle" x="1307" y="-558.5" font-family="Times,serif" font-size="15.00" fill="blue">Ø</text>
</g>
<!-- s_acetate_out&#45;&gt;s_acetate_out_empty -->
<g id="edge96" class="edge"><title>s_acetate_out&#45;&gt;s_acetate_out_empty</title>
<path fill="none" stroke="black" d="M1244.28,-555.646C1250.28,-556.264 1259.85,-557.249 1269.68,-558.261"/>
<polygon fill="black" stroke="black" points="1269.57,-561.769 1279.88,-559.311 1270.29,-554.805 1269.57,-561.769"/>
</g>
<!-- s_acetate_out_intermediate_r&#45;&gt;s_acetate_out -->
<g id="edge94" class="edge"><title>s_acetate_out_intermediate_r&#45;&gt;s_acetate_out</title>
<path fill="none" stroke="black" d="M1194.12,-540.043C1195.97,-540.703 1218.6,-548.786 1229.8,-552.787"/>
</g>
<!-- s_acetald_out -->
<g id="node68" class="node"><title>s_acetald_out</title>
<polygon fill="none" stroke="black" points="972,-514 958,-514 958,-500 972,-500 972,-514"/>
</g>
<!-- s_acetald_out_empty -->
<g id="node70" class="node"><title>s_acetald_out_empty</title>
<text text-anchor="middle" x="1035" y="-494.5" font-family="Times,serif" font-size="15.00" fill="blue">Ø</text>
</g>
<!-- s_acetald_out&#45;&gt;s_acetald_out_empty -->
<g id="edge99" class="edge"><title>s_acetald_out&#45;&gt;s_acetald_out_empty</title>
<path fill="none" stroke="black" d="M972.275,-506.169C978.278,-505.375 987.849,-504.108 997.68,-502.807"/>
<polygon fill="black" stroke="black" points="998.425,-506.239 1007.88,-501.457 997.507,-499.3 998.425,-506.239"/>
</g>
<!-- s_acetald_out_intermediate_r&#45;&gt;s_acetald_out -->
<g id="edge97" class="edge"><title>s_acetald_out_intermediate_r&#45;&gt;s_acetald_out</title>
<path fill="none" stroke="black" d="M922.12,-523.951C923.968,-523.203 946.602,-514.042 957.803,-509.508"/>
</g>
<!-- s_EtOH_out -->
<g id="node71" class="node"><title>s_EtOH_out</title>
<polygon fill="none" stroke="black" points="1964,-411 1950,-411 1950,-397 1964,-397 1964,-411"/>
</g>
<!-- s_EtOH_out_empty -->
<g id="node73" class="node"><title>s_EtOH_out_empty</title>
<text text-anchor="middle" x="2059" y="-400.5" font-family="Times,serif" font-size="15.00" fill="blue">Ø</text>
</g>
<!-- s_EtOH_out&#45;&gt;s_EtOH_out_empty -->
<g id="edge102" class="edge"><title>s_EtOH_out&#45;&gt;s_EtOH_out_empty</title>
<path fill="none" stroke="black" d="M1964.26,-404C1975.65,-404 2000.56,-404 2021.85,-404"/>
<polygon fill="black" stroke="black" points="2021.93,-407.5 2031.93,-404 2021.93,-400.5 2021.93,-407.5"/>
</g>
<!-- s_EtOH_out_intermediate_r&#45;&gt;s_EtOH_out -->
<g id="edge100" class="edge"><title>s_EtOH_out_intermediate_r&#45;&gt;s_EtOH_out</title>
<path fill="none" stroke="black" d="M1856.07,-404C1858.64,-404 1928.65,-404 1949.93,-404"/>
</g>
<!-- a_out -->
<g id="node74" class="node"><title>a_out</title>
<polygon fill="none" stroke="black" points="1781,-230 1767,-230 1767,-216 1781,-216 1781,-230"/>
</g>
<!-- a_out_empty -->
<g id="node76" class="node"><title>a_out_empty</title>
<text text-anchor="middle" x="1855" y="-243.5" font-family="Times,serif" font-size="15.00" fill="blue">Ø</text>
</g>
<!-- a_out&#45;&gt;a_out_empty -->
<g id="edge105" class="edge"><title>a_out&#45;&gt;a_out_empty</title>
<path fill="none" stroke="black" d="M1781.2,-224.883C1789.3,-227.343 1804.12,-231.846 1818.28,-236.149"/>
<polygon fill="black" stroke="black" points="1817.31,-239.511 1827.89,-239.069 1819.34,-232.813 1817.31,-239.511"/>
</g>
<!-- a_out_intermediate_r&#45;&gt;a_out -->
<g id="edge103" class="edge"><title>a_out_intermediate_r&#45;&gt;a_out</title>
<path fill="none" stroke="black" d="M1694.06,-216.005C1696.04,-216.181 1748.88,-220.862 1766.98,-222.467"/>
</g>
<!-- x_out -->
<g id="node77" class="node"><title>x_out</title>
<polygon fill="none" stroke="black" points="1600,-376 1586,-376 1586,-362 1600,-362 1600,-376"/>
</g>
<!-- x_out_empty -->
<g id="node79" class="node"><title>x_out_empty</title>
<text text-anchor="middle" x="1693" y="-376.5" font-family="Times,serif" font-size="15.00" fill="blue">Ø</text>
</g>
<!-- x_out&#45;&gt;x_out_empty -->
<g id="edge108" class="edge"><title>x_out&#45;&gt;x_out_empty</title>
<path fill="none" stroke="black" d="M1600.13,-369.688C1611.1,-370.919 1634.87,-373.587 1655.48,-375.901"/>
<polygon fill="black" stroke="black" points="1655.25,-379.397 1665.58,-377.034 1656.03,-372.441 1655.25,-379.397"/>
</g>
<!-- x_out_intermediate_r&#45;&gt;x_out -->
<g id="edge106" class="edge"><title>x_out_intermediate_r&#45;&gt;x_out</title>
<path fill="none" stroke="black" d="M1520.05,-365.003C1521.82,-365.101 1568.21,-367.679 1585.55,-368.642"/>
</g>
<!-- AcDH_out -->
<g id="node80" class="node"><title>AcDH_out</title>
<polygon fill="none" stroke="black" points="2136,-175 2122,-175 2122,-161 2136,-161 2136,-175"/>
</g>
<!-- AcDH_out_empty -->
<g id="node82" class="node"><title>AcDH_out_empty</title>
<text text-anchor="middle" x="2199" y="-164.5" font-family="Times,serif" font-size="15.00" fill="blue">Ø</text>
</g>
<!-- AcDH_out&#45;&gt;AcDH_out_empty -->
<g id="edge111" class="edge"><title>AcDH_out&#45;&gt;AcDH_out_empty</title>
<path fill="none" stroke="black" d="M2136.28,-168C2142.28,-168 2151.85,-168 2161.68,-168"/>
<polygon fill="black" stroke="black" points="2161.88,-171.5 2171.88,-168 2161.88,-164.5 2161.88,-171.5"/>
</g>
<!-- AcDH_out_intermediate_r&#45;&gt;AcDH_out -->
<g id="edge109" class="edge"><title>AcDH_out_intermediate_r&#45;&gt;AcDH_out</title>
<path fill="none" stroke="black" d="M2060.05,-168C2061.72,-168 2105.53,-168 2121.91,-168"/>
</g>
</g>
</svg>
