<?xml version="1.0" encoding="UTF-8" standalone="no"?>
<!DOCTYPE svg PUBLIC "-//W3C//DTD SVG 1.1//EN"
 "http://www.w3.org/Graphics/SVG/1.1/DTD/svg11.dtd">
<!-- Generated by graphviz version 2.30.1 (20140821.0912)
 -->
<!-- Title: G Pages: 1 -->
<svg width="2140pt" height="400pt"
 viewBox="0.00 0.00 2140.00 400.00" xmlns="http://www.w3.org/2000/svg" xmlns:xlink="http://www.w3.org/1999/xlink">
<g id="graph0" class="graph" transform="scale(1 1) rotate(0) translate(4 396)">
<title>G</title>
<polygon fill="white" stroke="white" points="-4,5 -4,-396 2137,-396 2137,5 -4,5"/>
<!-- Dsh_i -->
<g id="Dsh_i" class="node"><title>Dsh_i</title>
<path fill="none" stroke="black" d="M132,-392C132,-392 102,-392 102,-392 96,-392 90,-386 90,-380 90,-380 90,-368 90,-368 90,-362 96,-356 102,-356 102,-356 132,-356 132,-356 138,-356 144,-362 144,-368 144,-368 144,-380 144,-380 144,-386 138,-392 132,-392"/>
<text text-anchor="middle" x="117" y="-371.5" font-family="Times,serif" font-size="10.00">Dsh_i</text>
</g>
<!-- v1_intermediate_r -->
<g id="node18" class="node"><title>v1_intermediate_r</title>
<ellipse fill="black" stroke="black" cx="181" cy="-355" rx="0.036" ry="0.036"/>
</g>
<!-- Dsh_i&#45;&gt;v1_intermediate_r -->
<g id="edge2" class="edge"><title>Dsh_i&#45;&gt;v1_intermediate_r</title>
<path fill="none" stroke="black" d="M144.294,-365.942C160.664,-360.926 178.826,-355.36 179.946,-355.017"/>
</g>
<!-- Dsh_a -->
<g id="Dsh_a" class="node"><title>Dsh_a</title>
<path fill="none" stroke="black" d="M394,-360C394,-360 364,-360 364,-360 358,-360 352,-354 352,-348 352,-348 352,-336 352,-336 352,-330 358,-324 364,-324 364,-324 394,-324 394,-324 400,-324 406,-330 406,-336 406,-336 406,-348 406,-348 406,-354 400,-360 394,-360"/>
<text text-anchor="middle" x="379" y="-339.5" font-family="Times,serif" font-size="10.00">Dsh_a</text>
</g>
<!-- v2_intermediate_r -->
<g id="node22" class="node"><title>v2_intermediate_r</title>
<ellipse fill="black" stroke="black" cx="469" cy="-349" rx="0.036" ry="0.036"/>
</g>
<!-- Dsh_a&#45;&gt;v2_intermediate_r -->
<g id="edge8" class="edge"><title>Dsh_a&#45;&gt;v2_intermediate_r</title>
<path fill="none" stroke="black" d="M406.403,-344.1C431.514,-346.098 465.78,-348.823 467.897,-348.992"/>
</g>
<!-- v3_intermediate_m -->
<g id="node27" class="node"><title>v3_intermediate_m</title>
<ellipse fill="black" stroke="black" cx="469" cy="-330" rx="0.036" ry="0.036"/>
</g>
<!-- Dsh_a&#45;&gt;v3_intermediate_m -->
<g id="edge17" class="edge"><title>Dsh_a&#45;&gt;v3_intermediate_m</title>
<path fill="none" stroke="black" d="M406.403,-338.4C431.514,-334.975 465.78,-330.303 467.897,-330.014"/>
</g>
<!-- APC__axin__GSK3 -->
<g id="APC__axin__GSK3" class="node"><title>APC__axin__GSK3</title>
<path fill="none" stroke="black" d="M1108,-195C1108,-195 1036,-195 1036,-195 1030,-195 1024,-189 1024,-183 1024,-183 1024,-171 1024,-171 1024,-165 1030,-159 1036,-159 1036,-159 1108,-159 1108,-159 1114,-159 1120,-165 1120,-171 1120,-171 1120,-183 1120,-183 1120,-189 1114,-195 1108,-195"/>
<text text-anchor="middle" x="1072" y="-174.5" font-family="Times,serif" font-size="10.00">APC*/axin*/GSK3</text>
</g>
<!-- v5_intermediate_r -->
<g id="node32" class="node"><title>v5_intermediate_r</title>
<ellipse fill="black" stroke="black" cx="1157" cy="-197" rx="0.036" ry="0.036"/>
</g>
<!-- APC__axin__GSK3&#45;&gt;v5_intermediate_r -->
<g id="edge23" class="edge"><title>APC__axin__GSK3&#45;&gt;v5_intermediate_r</title>
<path fill="none" stroke="black" d="M1120.32,-188.402C1138.38,-192.753 1154.93,-196.743 1155.95,-196.988"/>
</g>
<!-- v8_intermediate_r -->
<g id="node41" class="node"><title>v8_intermediate_r</title>
<ellipse fill="black" stroke="black" cx="1157" cy="-119" rx="0.036" ry="0.036"/>
</g>
<!-- APC__axin__GSK3&#45;&gt;v8_intermediate_r -->
<g id="edge37" class="edge"><title>APC__axin__GSK3&#45;&gt;v8_intermediate_r</title>
<path fill="none" stroke="black" d="M1098.81,-158.966C1122.41,-142.472 1153.96,-120.428 1155.91,-119.066"/>
</g>
<!-- APC_axin_GSK3 -->
<g id="APC_axin_GSK3" class="node"><title>APC_axin_GSK3</title>
<path fill="none" stroke="black" d="M850,-253C850,-253 788,-253 788,-253 782,-253 776,-247 776,-241 776,-241 776,-229 776,-229 776,-223 782,-217 788,-217 788,-217 850,-217 850,-217 856,-217 862,-223 862,-229 862,-229 862,-241 862,-241 862,-247 856,-253 850,-253"/>
<text text-anchor="middle" x="819" y="-232.5" font-family="Times,serif" font-size="10.00">APC/axin/GSK3</text>
</g>
<!-- v3_intermediate_r -->
<g id="node25" class="node"><title>v3_intermediate_r</title>
<ellipse fill="black" stroke="black" cx="899" cy="-281" rx="0.036" ry="0.036"/>
</g>
<!-- APC_axin_GSK3&#45;&gt;v3_intermediate_r -->
<g id="edge12" class="edge"><title>APC_axin_GSK3&#45;&gt;v3_intermediate_r</title>
<path fill="none" stroke="black" d="M850.828,-253.18C871.949,-265.636 896.418,-280.067 897.927,-280.957"/>
</g>
<!-- v4_intermediate_r -->
<g id="node29" class="node"><title>v4_intermediate_r</title>
<ellipse fill="black" stroke="black" cx="899" cy="-192" rx="0.036" ry="0.036"/>
</g>
<!-- APC_axin_GSK3&#45;&gt;v4_intermediate_r -->
<g id="edge19" class="edge"><title>APC_axin_GSK3&#45;&gt;v4_intermediate_r</title>
<path fill="none" stroke="black" d="M853.079,-216.764C873.674,-205.411 896.523,-192.814 897.931,-192.038"/>
</g>
<!-- GSK3 -->
<g id="GSK3" class="node"><title>GSK3</title>
<path fill="none" stroke="black" d="M588,-272C588,-272 558,-272 558,-272 552,-272 546,-266 546,-260 546,-260 546,-248 546,-248 546,-242 552,-236 558,-236 558,-236 588,-236 588,-236 594,-236 600,-242 600,-248 600,-248 600,-260 600,-260 600,-266 594,-272 588,-272"/>
<text text-anchor="middle" x="573" y="-251.5" font-family="Times,serif" font-size="10.00">GSK3</text>
</g>
<!-- v6_intermediate_r -->
<g id="node35" class="node"><title>v6_intermediate_r</title>
<ellipse fill="black" stroke="black" cx="651" cy="-235" rx="0.036" ry="0.036"/>
</g>
<!-- GSK3&#45;&gt;v6_intermediate_r -->
<g id="edge27" class="edge"><title>GSK3&#45;&gt;v6_intermediate_r</title>
<path fill="none" stroke="black" d="M600.155,-247.461C621.452,-242.137 648.264,-235.434 649.919,-235.02"/>
</g>
<!-- APC_axin -->
<g id="APC_axin" class="node"><title>APC_axin</title>
<path fill="none" stroke="black" d="M589.5,-218C589.5,-218 556.5,-218 556.5,-218 550.5,-218 544.5,-212 544.5,-206 544.5,-206 544.5,-194 544.5,-194 544.5,-188 550.5,-182 556.5,-182 556.5,-182 589.5,-182 589.5,-182 595.5,-182 601.5,-188 601.5,-194 601.5,-194 601.5,-206 601.5,-206 601.5,-212 595.5,-218 589.5,-218"/>
<text text-anchor="middle" x="573" y="-197.5" font-family="Times,serif" font-size="10.00">APC/axin</text>
</g>
<!-- APC_axin&#45;&gt;v6_intermediate_r -->
<g id="edge28" class="edge"><title>APC_axin&#45;&gt;v6_intermediate_r</title>
<path fill="none" stroke="black" d="M601.868,-212.834C622.881,-222.511 648.352,-234.241 649.923,-234.965"/>
</g>
<!-- APC -->
<g id="APC" class="node"><title>APC</title>
<path fill="none" stroke="black" d="M263,-168C263,-168 233,-168 233,-168 227,-168 221,-162 221,-156 221,-156 221,-144 221,-144 221,-138 227,-132 233,-132 233,-132 263,-132 263,-132 269,-132 275,-138 275,-144 275,-144 275,-156 275,-156 275,-162 269,-168 263,-168"/>
<text text-anchor="middle" x="248" y="-147.5" font-family="Times,serif" font-size="10.00">APC</text>
</g>
<!-- v7_intermediate_r -->
<g id="node38" class="node"><title>v7_intermediate_r</title>
<ellipse fill="black" stroke="black" cx="315" cy="-180" rx="0.036" ry="0.036"/>
</g>
<!-- APC&#45;&gt;v7_intermediate_r -->
<g id="edge32" class="edge"><title>APC&#45;&gt;v7_intermediate_r</title>
<path fill="none" stroke="black" d="M275.063,-162.029C292.582,-170.115 312.699,-179.4 313.94,-179.972"/>
</g>
<!-- v17_intermediate_r -->
<g id="node68" class="node"><title>v17_intermediate_r</title>
<ellipse fill="black" stroke="black" cx="315" cy="-146" rx="0.036" ry="0.036"/>
</g>
<!-- APC&#45;&gt;v17_intermediate_r -->
<g id="edge71" class="edge"><title>APC&#45;&gt;v17_intermediate_r</title>
<path fill="none" stroke="black" d="M275.063,-148.396C292.582,-147.318 312.699,-146.08 313.94,-146.004"/>
</g>
<!-- B_catenin_APC__axin__GSK3 -->
<g id="B_catenin_APC__axin__GSK3" class="node"><title>B_catenin_APC__axin__GSK3</title>
<path fill="none" stroke="black" d="M1411.5,-137C1411.5,-137 1294.5,-137 1294.5,-137 1288.5,-137 1282.5,-131 1282.5,-125 1282.5,-125 1282.5,-113 1282.5,-113 1282.5,-107 1288.5,-101 1294.5,-101 1294.5,-101 1411.5,-101 1411.5,-101 1417.5,-101 1423.5,-107 1423.5,-113 1423.5,-113 1423.5,-125 1423.5,-125 1423.5,-131 1417.5,-137 1411.5,-137"/>
<text text-anchor="middle" x="1353" y="-116.5" font-family="Times,serif" font-size="10.00">B_catenin/APC*/axin*/GSK3</text>
</g>
<!-- v9_intermediate_r -->
<g id="node44" class="node"><title>v9_intermediate_r</title>
<ellipse fill="black" stroke="black" cx="1461" cy="-119" rx="0.036" ry="0.036"/>
</g>
<!-- B_catenin_APC__axin__GSK3&#45;&gt;v9_intermediate_r -->
<g id="edge42" class="edge"><title>B_catenin_APC__axin__GSK3&#45;&gt;v9_intermediate_r</title>
<path fill="none" stroke="black" d="M1423.52,-119C1442.88,-119 1458.97,-119 1459.95,-119"/>
</g>
<!-- B_catenin__APC__axin__GSK3 -->
<g id="B_catenin__APC__axin__GSK3" class="node"><title>B_catenin__APC__axin__GSK3</title>
<path fill="none" stroke="black" d="M1720,-137C1720,-137 1598,-137 1598,-137 1592,-137 1586,-131 1586,-125 1586,-125 1586,-113 1586,-113 1586,-107 1592,-101 1598,-101 1598,-101 1720,-101 1720,-101 1726,-101 1732,-107 1732,-113 1732,-113 1732,-125 1732,-125 1732,-131 1726,-137 1720,-137"/>
<text text-anchor="middle" x="1659" y="-116.5" font-family="Times,serif" font-size="10.00">B_catenin*/APC*/axin*/GSK3</text>
</g>
<!-- v10_intermediate_r -->
<g id="node47" class="node"><title>v10_intermediate_r</title>
<ellipse fill="black" stroke="black" cx="1769" cy="-122" rx="0.036" ry="0.036"/>
</g>
<!-- B_catenin__APC__axin__GSK3&#45;&gt;v10_intermediate_r -->
<g id="edge46" class="edge"><title>B_catenin__APC__axin__GSK3&#45;&gt;v10_intermediate_r</title>
<path fill="none" stroke="black" d="M1732.04,-121.001C1751.23,-121.534 1766.99,-121.972 1767.95,-121.999"/>
</g>
<!-- B_catenin -->
<g id="B_catenin" class="node"><title>B_catenin</title>
<path fill="none" stroke="black" d="M1944,-164C1944,-164 1904,-164 1904,-164 1898,-164 1892,-158 1892,-152 1892,-152 1892,-140 1892,-140 1892,-134 1898,-128 1904,-128 1904,-128 1944,-128 1944,-128 1950,-128 1956,-134 1956,-140 1956,-140 1956,-152 1956,-152 1956,-158 1950,-164 1944,-164"/>
<text text-anchor="middle" x="1924" y="-143.5" font-family="Times,serif" font-size="10.00">B_catenin*</text>
</g>
<!-- v11_intermediate_r -->
<g id="node50" class="node"><title>v11_intermediate_r</title>
<ellipse fill="black" stroke="black" cx="1992" cy="-146" rx="0.036" ry="0.036"/>
</g>
<!-- B_catenin&#45;&gt;v11_intermediate_r -->
<g id="edge51" class="edge"><title>B_catenin&#45;&gt;v11_intermediate_r</title>
<path fill="none" stroke="black" d="M1956.07,-146C1972.65,-146 1989.89,-146 1990.95,-146"/>
</g>
<!-- B_catenin_0 -->
<g id="B_catenin_0" class="node"><title>B_catenin_0</title>
<path fill="none" stroke="black" d="M265.5,-110C265.5,-110 230.5,-110 230.5,-110 224.5,-110 218.5,-104 218.5,-98 218.5,-98 218.5,-86 218.5,-86 218.5,-80 224.5,-74 230.5,-74 230.5,-74 265.5,-74 265.5,-74 271.5,-74 277.5,-80 277.5,-86 277.5,-86 277.5,-98 277.5,-98 277.5,-104 271.5,-110 265.5,-110"/>
<text text-anchor="middle" x="248" y="-89.5" font-family="Times,serif" font-size="10.00">B_catenin</text>
</g>
<!-- B_catenin_0&#45;&gt;v8_intermediate_r -->
<g id="edge38" class="edge"><title>B_catenin_0&#45;&gt;v8_intermediate_r</title>
<path fill="none" stroke="black" d="M277.66,-94.798C303.781,-97.105 343.444,-100 378,-100 378,-100 378,-100 988,-100 1061.97,-100 1153.1,-118.411 1155.93,-118.986"/>
</g>
<!-- v13_intermediate_r -->
<g id="node56" class="node"><title>v13_intermediate_r</title>
<ellipse fill="black" stroke="black" cx="315" cy="-63" rx="0.036" ry="0.036"/>
</g>
<!-- B_catenin_0&#45;&gt;v13_intermediate_r -->
<g id="edge57" class="edge"><title>B_catenin_0&#45;&gt;v13_intermediate_r</title>
<path fill="none" stroke="black" d="M277.699,-79.1958C294.568,-71.6698 312.821,-63.526 313.945,-63.0244"/>
</g>
<!-- v16_intermediate_r -->
<g id="node65" class="node"><title>v16_intermediate_r</title>
<ellipse fill="black" stroke="black" cx="315" cy="-34" rx="0.036" ry="0.036"/>
</g>
<!-- B_catenin_0&#45;&gt;v16_intermediate_r -->
<g id="edge66" class="edge"><title>B_catenin_0&#45;&gt;v16_intermediate_r</title>
<path fill="none" stroke="black" d="M269.21,-73.9664C287.695,-57.4724 312.4,-35.428 313.926,-34.0663"/>
</g>
<!-- B_catenin_0&#45;&gt;v17_intermediate_r -->
<g id="edge72" class="edge"><title>B_catenin_0&#45;&gt;v17_intermediate_r</title>
<path fill="none" stroke="black" d="M271.006,-110.282C289.274,-125.458 312.497,-144.751 313.93,-145.942"/>
</g>
<!-- Axin -->
<g id="Axin" class="node"><title>Axin</title>
<path fill="none" stroke="black" d="M263,-225C263,-225 233,-225 233,-225 227,-225 221,-219 221,-213 221,-213 221,-201 221,-201 221,-195 227,-189 233,-189 233,-189 263,-189 263,-189 269,-189 275,-195 275,-201 275,-201 275,-213 275,-213 275,-219 269,-225 263,-225"/>
<text text-anchor="middle" x="248" y="-204.5" font-family="Times,serif" font-size="10.00">Axin</text>
</g>
<!-- Axin&#45;&gt;v7_intermediate_r -->
<g id="edge33" class="edge"><title>Axin&#45;&gt;v7_intermediate_r</title>
<path fill="none" stroke="black" d="M275.063,-196.174C292.582,-188.897 312.699,-180.54 313.94,-180.025"/>
</g>
<!-- v15_intermediate_r -->
<g id="node62" class="node"><title>v15_intermediate_r</title>
<ellipse fill="black" stroke="black" cx="315" cy="-209" rx="0.036" ry="0.036"/>
</g>
<!-- Axin&#45;&gt;v15_intermediate_r -->
<g id="edge63" class="edge"><title>Axin&#45;&gt;v15_intermediate_r</title>
<path fill="none" stroke="black" d="M275.063,-207.802C292.582,-208.341 312.699,-208.96 313.94,-208.998"/>
</g>
<!-- TCF -->
<g id="TCF [CHEBI:30956]" class="node"><title>TCF</title>
<ellipse fill="none" stroke="black" cx="248" cy="-34" rx="18" ry="18"/>
<text text-anchor="middle" x="248" y="-31.5" font-family="Times,serif" font-size="10.00">TCF</text>
</g>
<!-- TCF&#45;&gt;v16_intermediate_r -->
<g id="edge67" class="edge"><title>TCF&#45;&gt;v16_intermediate_r</title>
<path fill="none" stroke="black" d="M266.078,-34C284.735,-34 312.218,-34 313.917,-34"/>
</g>
<!-- B_catenin_TCF -->
<g id="B_catenin_TCF [CHEBI:30956]" class="node"><title>B_catenin_TCF</title>
<path fill="none" stroke="black" d="M601,-36C601,-36 545,-36 545,-36 539,-36 533,-30 533,-24 533,-24 533,-12 533,-12 533,-6 539,-0 545,-0 545,-0 601,-0 601,-0 607,-0 613,-6 613,-12 613,-12 613,-24 613,-24 613,-30 607,-36 601,-36"/>
<text text-anchor="middle" x="573" y="-15.5" font-family="Times,serif" font-size="10.00">B_catenin/TCF</text>
</g>
<!-- B_catenin_APC -->
<g id="B_catenin_APC" class="node"><title>B_catenin_APC</title>
<path fill="none" stroke="black" d="M601.5,-164C601.5,-164 544.5,-164 544.5,-164 538.5,-164 532.5,-158 532.5,-152 532.5,-152 532.5,-140 532.5,-140 532.5,-134 538.5,-128 544.5,-128 544.5,-128 601.5,-128 601.5,-128 607.5,-128 613.5,-134 613.5,-140 613.5,-140 613.5,-152 613.5,-152 613.5,-158 607.5,-164 601.5,-164"/>
<text text-anchor="middle" x="573" y="-143.5" font-family="Times,serif" font-size="10.00">B_catenin/APC</text>
</g>
<!-- W -->
<g id="W" class="node"><title>W</title>
<ellipse fill="none" stroke="black" cx="248" cy="-307" rx="27" ry="18"/>
<text text-anchor="middle" x="248" y="-304.5" font-family="Times,serif" font-size="10.00">W</text>
</g>
<!-- v1_intermediate_m -->
<g id="node20" class="node"><title>v1_intermediate_m</title>
<ellipse fill="black" stroke="black" cx="315" cy="-317" rx="0.036" ry="0.036"/>
</g>
<!-- W&#45;&gt;v1_intermediate_m -->
<g id="edge6" class="edge"><title>W&#45;&gt;v1_intermediate_m</title>
<path fill="none" stroke="black" d="M274.69,-310.952C292.291,-313.66 312.682,-316.797 313.939,-316.991"/>
</g>
<!-- v1 -->
<g id="node17" class="node"><title>v1</title>
<polygon fill="none" stroke="black" points="255,-357 241,-357 241,-343 255,-343 255,-357"/>
</g>
<!-- v1_intermediate_p -->
<g id="node19" class="node"><title>v1_intermediate_p</title>
<ellipse fill="black" stroke="black" cx="315" cy="-347" rx="0.036" ry="0.036"/>
</g>
<!-- v1&#45;&gt;v1_intermediate_p -->
<g id="edge3" class="edge"><title>v1&#45;&gt;v1_intermediate_p</title>
<path fill="none" stroke="black" d="M255.47,-349.701C271.397,-348.966 311.394,-347.12 313.879,-347.006"/>
</g>
<!-- v1&#45;&gt;v1_intermediate_m -->
<g id="edge5" class="edge"><title>v1&#45;&gt;v1_intermediate_m</title>
<path fill="none" stroke="black" d="M255.47,-346.715C271.397,-338.629 311.394,-318.323 313.879,-317.062"/>
</g>
<!-- v1_intermediate_r&#45;&gt;v1 -->
<g id="edge1" class="edge"><title>v1_intermediate_r&#45;&gt;v1</title>
<path fill="none" stroke="black" d="M182.047,-354.996C183.631,-354.875 224.724,-351.714 240.716,-350.483"/>
</g>
<!-- v1_intermediate_p&#45;&gt;Dsh_a -->
<g id="edge4" class="edge"><title>v1_intermediate_p&#45;&gt;Dsh_a</title>
<path fill="none" stroke="black" d="M316.045,-346.996C316.863,-346.93 328.734,-345.973 341.87,-344.914"/>
<polygon fill="black" stroke="black" points="342.312,-348.39 351.998,-344.097 341.749,-341.412 342.312,-348.39"/>
</g>
<!-- v2 -->
<g id="node21" class="node"><title>v2</title>
<polygon fill="none" stroke="black" points="580,-360 566,-360 566,-346 580,-346 580,-360"/>
</g>
<!-- v2_intermediate_p -->
<g id="node23" class="node"><title>v2_intermediate_p</title>
<ellipse fill="black" stroke="black" cx="651" cy="-370" rx="0.036" ry="0.036"/>
</g>
<!-- v2&#45;&gt;v2_intermediate_p -->
<g id="edge9" class="edge"><title>v2&#45;&gt;v2_intermediate_p</title>
<path fill="none" stroke="black" d="M580.219,-354.391C597.803,-358.324 646.806,-369.286 649.851,-369.967"/>
</g>
<!-- v2_intermediate_r&#45;&gt;v2 -->
<g id="edge7" class="edge"><title>v2_intermediate_r&#45;&gt;v2</title>
<path fill="none" stroke="black" d="M470.074,-349.003C472.692,-349.106 544.108,-351.906 565.806,-352.757"/>
</g>
<!-- v2_intermediate_p&#45;&gt;Dsh_i -->
<g id="edge10" class="edge"><title>v2_intermediate_p&#45;&gt;Dsh_i</title>
<path fill="none" stroke="black" d="M649.928,-370.013C646.892,-370.558 549.143,-388 470,-388 247,-388 247,-388 247,-388 215.519,-388 179.967,-383.828 154.17,-380.039"/>
<polygon fill="black" stroke="black" points="154.512,-376.551 144.099,-378.507 153.459,-383.471 154.512,-376.551"/>
</g>
<!-- v3 -->
<g id="node24" class="node"><title>v3</title>
<polygon fill="none" stroke="black" points="386,-306 372,-306 372,-292 386,-292 386,-306"/>
</g>
<!-- v3_intermediate_p -->
<g id="node26" class="node"><title>v3_intermediate_p</title>
<ellipse fill="black" stroke="black" cx="469" cy="-254" rx="0.036" ry="0.036"/>
</g>
<!-- v3&#45;&gt;v3_intermediate_p -->
<g id="edge13" class="edge"><title>v3&#45;&gt;v3_intermediate_p</title>
<path fill="none" stroke="black" d="M386.049,-295.907C405.62,-285.899 466.071,-254.987 467.955,-254.023"/>
</g>
<!-- v3&#45;&gt;v3_intermediate_m -->
<g id="edge16" class="edge"><title>v3&#45;&gt;v3_intermediate_m</title>
<path fill="none" stroke="black" d="M386.049,-301.131C405.62,-308.025 466.071,-329.32 467.955,-329.984"/>
</g>
<!-- v3_intermediate_r&#45;&gt;v3 -->
<g id="edge11" class="edge"><title>v3_intermediate_r&#45;&gt;v3</title>
<path fill="none" stroke="black" d="M897.936,-281.014C895.277,-281.589 809.623,-300 740,-300 572,-300 572,-300 572,-300 498.999,-300 410.387,-299.268 386.298,-299.057"/>
</g>
<!-- v3_intermediate_p&#45;&gt;GSK3 -->
<g id="edge14" class="edge"><title>v3_intermediate_p&#45;&gt;GSK3</title>
<path fill="none" stroke="black" d="M470.074,-254C471.901,-254 507.219,-254 535.775,-254"/>
<polygon fill="black" stroke="black" points="535.915,-257.5 545.915,-254 535.915,-250.5 535.915,-257.5"/>
</g>
<!-- v3_intermediate_p&#45;&gt;APC_axin -->
<g id="edge15" class="edge"><title>v3_intermediate_p&#45;&gt;APC_axin</title>
<path fill="none" stroke="black" d="M470.168,-253.937C471.829,-253.318 485.447,-248.196 496,-243 509.133,-236.533 523.172,-228.827 535.564,-221.736"/>
<polygon fill="black" stroke="black" points="537.355,-224.744 544.26,-216.709 533.851,-218.684 537.355,-224.744"/>
</g>
<!-- v4 -->
<g id="node28" class="node"><title>v4</title>
<polygon fill="none" stroke="black" points="950,-190 936,-190 936,-176 950,-176 950,-190"/>
</g>
<!-- v4_intermediate_p -->
<g id="node30" class="node"><title>v4_intermediate_p</title>
<ellipse fill="black" stroke="black" cx="987" cy="-179" rx="0.036" ry="0.036"/>
</g>
<!-- v4&#45;&gt;v4_intermediate_p -->
<g id="edge20" class="edge"><title>v4&#45;&gt;v4_intermediate_p</title>
<path fill="none" stroke="black" d="M950.197,-182.41C961.515,-181.332 984.505,-179.142 985.93,-179.007"/>
</g>
<!-- v4_intermediate_r&#45;&gt;v4 -->
<g id="edge18" class="edge"><title>v4_intermediate_r&#45;&gt;v4</title>
<path fill="none" stroke="black" d="M900.12,-191.974C901.968,-191.578 924.602,-186.728 935.803,-184.328"/>
</g>
<!-- v4_intermediate_p&#45;&gt;APC__axin__GSK3 -->
<g id="edge21" class="edge"><title>v4_intermediate_p&#45;&gt;APC__axin__GSK3</title>
<path fill="none" stroke="black" d="M988.06,-178.999C988.961,-178.977 999.866,-178.714 1013.49,-178.386"/>
<polygon fill="black" stroke="black" points="1013.87,-181.878 1023.79,-178.138 1013.71,-174.88 1013.87,-181.878"/>
</g>
<!-- v5 -->
<g id="node31" class="node"><title>v5</title>
<polygon fill="none" stroke="black" points="1208,-207 1194,-207 1194,-193 1208,-193 1208,-207"/>
</g>
<!-- v5_intermediate_p -->
<g id="node33" class="node"><title>v5_intermediate_p</title>
<ellipse fill="black" stroke="black" cx="1245" cy="-217" rx="0.036" ry="0.036"/>
</g>
<!-- v5&#45;&gt;v5_intermediate_p -->
<g id="edge24" class="edge"><title>v5&#45;&gt;v5_intermediate_p</title>
<path fill="none" stroke="black" d="M1208.2,-202.508C1219.52,-207.089 1242.5,-216.395 1243.93,-216.972"/>
</g>
<!-- v5_intermediate_r&#45;&gt;v5 -->
<g id="edge22" class="edge"><title>v5_intermediate_r&#45;&gt;v5</title>
<path fill="none" stroke="black" d="M1158.12,-197.009C1159.97,-197.141 1182.6,-198.757 1193.8,-199.557"/>
</g>
<!-- v5_intermediate_p&#45;&gt;APC_axin_GSK3 -->
<g id="edge25" class="edge"><title>v5_intermediate_p&#45;&gt;APC_axin_GSK3</title>
<path fill="none" stroke="black" d="M1243.86,-217.052C1241.07,-218.107 1195.83,-235 1158,-235 942,-235 942,-235 942,-235 919.156,-235 893.907,-235 872.333,-235"/>
<polygon fill="black" stroke="black" points="872.064,-231.5 862.064,-235 872.064,-238.5 872.064,-231.5"/>
</g>
<!-- v6 -->
<g id="node34" class="node"><title>v6</title>
<polygon fill="none" stroke="black" points="702,-242 688,-242 688,-228 702,-228 702,-242"/>
</g>
<!-- v6_intermediate_p -->
<g id="node36" class="node"><title>v6_intermediate_p</title>
<ellipse fill="black" stroke="black" cx="739" cy="-235" rx="0.036" ry="0.036"/>
</g>
<!-- v6&#45;&gt;v6_intermediate_p -->
<g id="edge29" class="edge"><title>v6&#45;&gt;v6_intermediate_p</title>
<path fill="none" stroke="black" d="M702.197,-235C713.515,-235 736.505,-235 737.93,-235"/>
</g>
<!-- v6_intermediate_r&#45;&gt;v6 -->
<g id="edge26" class="edge"><title>v6_intermediate_r&#45;&gt;v6</title>
<path fill="none" stroke="black" d="M652.12,-235C653.968,-235 676.602,-235 687.803,-235"/>
</g>
<!-- v6_intermediate_p&#45;&gt;APC_axin_GSK3 -->
<g id="edge30" class="edge"><title>v6_intermediate_p&#45;&gt;APC_axin_GSK3</title>
<path fill="none" stroke="black" d="M740.057,-235C740.94,-235 752.068,-235 765.653,-235"/>
<polygon fill="black" stroke="black" points="765.868,-238.5 775.868,-235 765.868,-231.5 765.868,-238.5"/>
</g>
<!-- v7 -->
<g id="node37" class="node"><title>v7</title>
<polygon fill="none" stroke="black" points="386,-187 372,-187 372,-173 386,-173 386,-187"/>
</g>
<!-- v7_intermediate_p -->
<g id="node39" class="node"><title>v7_intermediate_p</title>
<ellipse fill="black" stroke="black" cx="469" cy="-180" rx="0.036" ry="0.036"/>
</g>
<!-- v7&#45;&gt;v7_intermediate_p -->
<g id="edge34" class="edge"><title>v7&#45;&gt;v7_intermediate_p</title>
<path fill="none" stroke="black" d="M386.049,-180C405.62,-180 466.071,-180 467.955,-180"/>
</g>
<!-- v7_intermediate_r&#45;&gt;v7 -->
<g id="edge31" class="edge"><title>v7_intermediate_r&#45;&gt;v7</title>
<path fill="none" stroke="black" d="M316.045,-180C317.541,-180 355.995,-180 371.555,-180"/>
</g>
<!-- v7_intermediate_p&#45;&gt;APC_axin -->
<g id="edge35" class="edge"><title>v7_intermediate_p&#45;&gt;APC_axin</title>
<path fill="none" stroke="black" d="M470.074,-180.014C471.868,-180.366 505.983,-187.056 534.257,-192.599"/>
<polygon fill="black" stroke="black" points="533.852,-196.087 544.338,-194.576 535.199,-189.217 533.852,-196.087"/>
</g>
<!-- v8 -->
<g id="node40" class="node"><title>v8</title>
<polygon fill="none" stroke="black" points="1208,-126 1194,-126 1194,-112 1208,-112 1208,-126"/>
</g>
<!-- v8_intermediate_p -->
<g id="node42" class="node"><title>v8_intermediate_p</title>
<ellipse fill="black" stroke="black" cx="1245" cy="-119" rx="0.036" ry="0.036"/>
</g>
<!-- v8&#45;&gt;v8_intermediate_p -->
<g id="edge39" class="edge"><title>v8&#45;&gt;v8_intermediate_p</title>
<path fill="none" stroke="black" d="M1208.2,-119C1219.52,-119 1242.5,-119 1243.93,-119"/>
</g>
<!-- v8_intermediate_r&#45;&gt;v8 -->
<g id="edge36" class="edge"><title>v8_intermediate_r&#45;&gt;v8</title>
<path fill="none" stroke="black" d="M1158.12,-119C1159.97,-119 1182.6,-119 1193.8,-119"/>
</g>
<!-- v8_intermediate_p&#45;&gt;B_catenin_APC__axin__GSK3 -->
<g id="edge40" class="edge"><title>v8_intermediate_p&#45;&gt;B_catenin_APC__axin__GSK3</title>
<path fill="none" stroke="black" d="M1246.08,-119C1247.08,-119 1257.81,-119 1272.08,-119"/>
<polygon fill="black" stroke="black" points="1272.46,-122.5 1282.46,-119 1272.46,-115.5 1272.46,-122.5"/>
</g>
<!-- v9 -->
<g id="node43" class="node"><title>v9</title>
<polygon fill="none" stroke="black" points="1512,-126 1498,-126 1498,-112 1512,-112 1512,-126"/>
</g>
<!-- v9_intermediate_p -->
<g id="node45" class="node"><title>v9_intermediate_p</title>
<ellipse fill="black" stroke="black" cx="1549" cy="-119" rx="0.036" ry="0.036"/>
</g>
<!-- v9&#45;&gt;v9_intermediate_p -->
<g id="edge43" class="edge"><title>v9&#45;&gt;v9_intermediate_p</title>
<path fill="none" stroke="black" d="M1512.2,-119C1523.52,-119 1546.5,-119 1547.93,-119"/>
</g>
<!-- v9_intermediate_r&#45;&gt;v9 -->
<g id="edge41" class="edge"><title>v9_intermediate_r&#45;&gt;v9</title>
<path fill="none" stroke="black" d="M1462.12,-119C1463.97,-119 1486.6,-119 1497.8,-119"/>
</g>
<!-- v9_intermediate_p&#45;&gt;B_catenin__APC__axin__GSK3 -->
<g id="edge44" class="edge"><title>v9_intermediate_p&#45;&gt;B_catenin__APC__axin__GSK3</title>
<path fill="none" stroke="black" d="M1550.08,-119C1551.08,-119 1561.59,-119 1575.69,-119"/>
<polygon fill="black" stroke="black" points="1575.96,-122.5 1585.96,-119 1575.96,-115.5 1575.96,-122.5"/>
</g>
<!-- v10 -->
<g id="node46" class="node"><title>v10</title>
<polygon fill="none" stroke="black" points="1820,-134 1806,-134 1806,-120 1820,-120 1820,-134"/>
</g>
<!-- v10_intermediate_p -->
<g id="node48" class="node"><title>v10_intermediate_p</title>
<ellipse fill="black" stroke="black" cx="1856" cy="-146" rx="0.036" ry="0.036"/>
</g>
<!-- v10&#45;&gt;v10_intermediate_p -->
<g id="edge47" class="edge"><title>v10&#45;&gt;v10_intermediate_p</title>
<path fill="none" stroke="black" d="M1820.05,-129.804C1831.1,-134.924 1853.54,-145.324 1854.93,-145.969"/>
</g>
<!-- v10_intermediate_r&#45;&gt;v10 -->
<g id="edge45" class="edge"><title>v10_intermediate_r&#45;&gt;v10</title>
<path fill="none" stroke="black" d="M1770.12,-122.014C1771.97,-122.234 1794.6,-124.929 1805.8,-126.262"/>
</g>
<!-- v10_intermediate_p&#45;&gt;B_catenin -->
<g id="edge48" class="edge"><title>v10_intermediate_p&#45;&gt;B_catenin</title>
<path fill="none" stroke="black" d="M1857.05,-146C1857.86,-146 1868.98,-146 1881.86,-146"/>
<polygon fill="black" stroke="black" points="1881.91,-149.5 1891.91,-146 1881.91,-142.5 1881.91,-149.5"/>
</g>
<!-- v10_intermediate_p&#45;&gt;APC__axin__GSK3 -->
<g id="edge49" class="edge"><title>v10_intermediate_p&#45;&gt;APC__axin__GSK3</title>
<path fill="none" stroke="black" d="M1854.87,-146.055C1852.11,-147.169 1807.5,-165 1770,-165 1200,-165 1200,-165 1200,-165 1177.15,-165 1152.1,-166.949 1130.32,-169.276"/>
<polygon fill="black" stroke="black" points="1129.79,-165.813 1120.24,-170.403 1130.57,-172.769 1129.79,-165.813"/>
</g>
<!-- v11 -->
<g id="node49" class="node"><title>v11</title>
<polygon fill="none" stroke="black" points="2042,-153 2028,-153 2028,-139 2042,-139 2042,-153"/>
</g>
<!-- v11_empty -->
<g id="node51" class="node"><title>v11_empty</title>
<text text-anchor="middle" x="2105" y="-142.5" font-family="Times,serif" font-size="15.00" fill="blue">Ø</text>
</g>
<!-- v11&#45;&gt;v11_empty -->
<g id="edge52" class="edge"><title>v11&#45;&gt;v11_empty</title>
<path fill="none" stroke="black" d="M2042.28,-146C2048.28,-146 2057.85,-146 2067.68,-146"/>
<polygon fill="black" stroke="black" points="2067.88,-149.5 2077.88,-146 2067.88,-142.5 2067.88,-149.5"/>
</g>
<!-- v11_intermediate_r&#45;&gt;v11 -->
<g id="edge50" class="edge"><title>v11_intermediate_r&#45;&gt;v11</title>
<path fill="none" stroke="black" d="M1993.12,-146C1994.92,-146 2017.02,-146 2027.95,-146"/>
</g>
<!-- v12 -->
<g id="node52" class="node"><title>v12</title>
<polygon fill="none" stroke="black" points="124,-99 110,-99 110,-85 124,-85 124,-99"/>
</g>
<!-- v12_intermediate_p -->
<g id="node54" class="node"><title>v12_intermediate_p</title>
<ellipse fill="black" stroke="black" cx="181" cy="-92" rx="0.036" ry="0.036"/>
</g>
<!-- v12&#45;&gt;v12_intermediate_p -->
<g id="edge54" class="edge"><title>v12&#45;&gt;v12_intermediate_p</title>
<path fill="none" stroke="black" d="M124.171,-92C139.364,-92 177.515,-92 179.884,-92"/>
</g>
<!-- v12_empty -->
<g id="node53" class="node"><title>v12_empty</title>
<text text-anchor="middle" x="27" y="-88.5" font-family="Times,serif" font-size="15.00" fill="blue">Ø</text>
</g>
<!-- v12_empty&#45;&gt;v12 -->
<g id="edge53" class="edge"><title>v12_empty&#45;&gt;v12</title>
<path fill="none" stroke="black" d="M54.4029,-92C73.6411,-92 98.2529,-92 109.665,-92"/>
</g>
<!-- v12_intermediate_p&#45;&gt;B_catenin_0 -->
<g id="edge55" class="edge"><title>v12_intermediate_p&#45;&gt;B_catenin_0</title>
<path fill="none" stroke="black" d="M182.047,-92C182.88,-92 194.649,-92 207.944,-92"/>
<polygon fill="black" stroke="black" points="208.254,-95.5001 218.254,-92 208.253,-88.5001 208.254,-95.5001"/>
</g>
<!-- v13 -->
<g id="node55" class="node"><title>v13</title>
<polygon fill="none" stroke="black" points="386,-65 372,-65 372,-51 386,-51 386,-65"/>
</g>
<!-- v13_empty -->
<g id="node57" class="node"><title>v13_empty</title>
<text text-anchor="middle" x="469" y="-50.5" font-family="Times,serif" font-size="15.00" fill="blue">Ø</text>
</g>
<!-- v13&#45;&gt;v13_empty -->
<g id="edge58" class="edge"><title>v13&#45;&gt;v13_empty</title>
<path fill="none" stroke="black" d="M386.049,-57.7251C395.439,-57.2982 414.239,-56.4437 431.466,-55.6606"/>
<polygon fill="black" stroke="black" points="432.06,-59.1373 441.891,-55.1868 431.742,-52.1445 432.06,-59.1373"/>
</g>
<!-- v13_intermediate_r&#45;&gt;v13 -->
<g id="edge56" class="edge"><title>v13_intermediate_r&#45;&gt;v13</title>
<path fill="none" stroke="black" d="M316.045,-62.9964C317.541,-62.8757 355.995,-59.7746 371.555,-58.5198"/>
</g>
<!-- v14 -->
<g id="node58" class="node"><title>v14</title>
<polygon fill="none" stroke="black" points="124,-214 110,-214 110,-200 124,-200 124,-214"/>
</g>
<!-- v14_intermediate_p -->
<g id="node60" class="node"><title>v14_intermediate_p</title>
<ellipse fill="black" stroke="black" cx="181" cy="-207" rx="0.036" ry="0.036"/>
</g>
<!-- v14&#45;&gt;v14_intermediate_p -->
<g id="edge60" class="edge"><title>v14&#45;&gt;v14_intermediate_p</title>
<path fill="none" stroke="black" d="M124.171,-207C139.364,-207 177.515,-207 179.884,-207"/>
</g>
<!-- v14_empty -->
<g id="node59" class="node"><title>v14_empty</title>
<text text-anchor="middle" x="27" y="-203.5" font-family="Times,serif" font-size="15.00" fill="blue">Ø</text>
</g>
<!-- v14_empty&#45;&gt;v14 -->
<g id="edge59" class="edge"><title>v14_empty&#45;&gt;v14</title>
<path fill="none" stroke="black" d="M54.4029,-207C73.6411,-207 98.2529,-207 109.665,-207"/>
</g>
<!-- v14_intermediate_p&#45;&gt;Axin -->
<g id="edge61" class="edge"><title>v14_intermediate_p&#45;&gt;Axin</title>
<path fill="none" stroke="black" d="M182.047,-207C182.94,-207 196.402,-207 210.84,-207"/>
<polygon fill="black" stroke="black" points="210.849,-210.5 220.849,-207 210.849,-203.5 210.849,-210.5"/>
</g>
<!-- v15 -->
<g id="node61" class="node"><title>v15</title>
<polygon fill="none" stroke="black" points="386,-221 372,-221 372,-207 386,-207 386,-221"/>
</g>
<!-- v15_empty -->
<g id="node63" class="node"><title>v15_empty</title>
<text text-anchor="middle" x="469" y="-212.5" font-family="Times,serif" font-size="15.00" fill="blue">Ø</text>
</g>
<!-- v15&#45;&gt;v15_empty -->
<g id="edge64" class="edge"><title>v15&#45;&gt;v15_empty</title>
<path fill="none" stroke="black" d="M386.049,-214.137C395.439,-214.351 414.239,-214.778 431.466,-215.17"/>
<polygon fill="black" stroke="black" points="431.814,-218.678 441.891,-215.407 431.973,-211.68 431.814,-218.678"/>
</g>
<!-- v15_intermediate_r&#45;&gt;v15 -->
<g id="edge62" class="edge"><title>v15_intermediate_r&#45;&gt;v15</title>
<path fill="none" stroke="black" d="M316.045,-209.004C317.541,-209.124 355.995,-212.225 371.555,-213.48"/>
</g>
<!-- v16 -->
<g id="node64" class="node"><title>v16</title>
<polygon fill="none" stroke="black" points="386,-29 372,-29 372,-15 386,-15 386,-29"/>
</g>
<!-- v16_intermediate_p -->
<g id="node66" class="node"><title>v16_intermediate_p</title>
<ellipse fill="black" stroke="black" cx="469" cy="-18" rx="0.036" ry="0.036"/>
</g>
<!-- v16&#45;&gt;v16_intermediate_p -->
<g id="edge68" class="edge"><title>v16&#45;&gt;v16_intermediate_p</title>
<path fill="none" stroke="black" d="M386.049,-21.7251C405.62,-20.8355 466.071,-18.0877 467.955,-18.002"/>
</g>
<!-- v16_intermediate_r&#45;&gt;v16 -->
<g id="edge65" class="edge"><title>v16_intermediate_r&#45;&gt;v16</title>
<path fill="none" stroke="black" d="M316.045,-33.9913C317.541,-33.7017 355.995,-26.2591 371.555,-23.2474"/>
</g>
<!-- v16_intermediate_p&#45;&gt;B_catenin_TCF -->
<g id="edge69" class="edge"><title>v16_intermediate_p&#45;&gt;B_catenin_TCF</title>
<path fill="none" stroke="black" d="M470.074,-18C471.634,-18 497.633,-18 522.979,-18"/>
<polygon fill="black" stroke="black" points="522.979,-21.5001 532.979,-18 522.979,-14.5001 522.979,-21.5001"/>
</g>
<!-- v17 -->
<g id="node67" class="node"><title>v17</title>
<polygon fill="none" stroke="black" points="386,-153 372,-153 372,-139 386,-139 386,-153"/>
</g>
<!-- v17_intermediate_p -->
<g id="node69" class="node"><title>v17_intermediate_p</title>
<ellipse fill="black" stroke="black" cx="469" cy="-146" rx="0.036" ry="0.036"/>
</g>
<!-- v17&#45;&gt;v17_intermediate_p -->
<g id="edge73" class="edge"><title>v17&#45;&gt;v17_intermediate_p</title>
<path fill="none" stroke="black" d="M386.049,-146C405.62,-146 466.071,-146 467.955,-146"/>
</g>
<!-- v17_intermediate_r&#45;&gt;v17 -->
<g id="edge70" class="edge"><title>v17_intermediate_r&#45;&gt;v17</title>
<path fill="none" stroke="black" d="M316.045,-146C317.541,-146 355.995,-146 371.555,-146"/>
</g>
<!-- v17_intermediate_p&#45;&gt;B_catenin_APC -->
<g id="edge74" class="edge"><title>v17_intermediate_p&#45;&gt;B_catenin_APC</title>
<path fill="none" stroke="black" d="M470.074,-146C471.617,-146 497.052,-146 522.125,-146"/>
<polygon fill="black" stroke="black" points="522.404,-149.5 532.404,-146 522.404,-142.5 522.404,-149.5"/>
</g>
</g>
</svg>
