<?xml version="1.0" encoding="UTF-8" standalone="no"?>
<!DOCTYPE svg PUBLIC "-//W3C//DTD SVG 1.1//EN"
 "http://www.w3.org/Graphics/SVG/1.1/DTD/svg11.dtd">
<!-- Generated by graphviz version 2.30.1 (20140821.0912)
 -->
<!-- Title: G Pages: 1 -->
<svg width="678pt" height="136pt"
 viewBox="0.00 0.00 678.00 136.00" xmlns="http://www.w3.org/2000/svg" xmlns:xlink="http://www.w3.org/1999/xlink">
<g id="graph0" class="graph" transform="scale(1 1) rotate(0) translate(4 132)">
<title>G</title>
<polygon fill="white" stroke="white" points="-4,5 -4,-132 675,-132 675,5 -4,5"/>
<!-- M -->
<g id="M [CHEBI:33699]" class="node"><title>M</title>
<ellipse fill="none" stroke="black" cx="272" cy="-110" rx="18" ry="18"/>
<text text-anchor="middle" x="272" y="-107.5" font-family="Times,serif" font-size="10.00">mRNA</text>
</g>
<!-- TL_intermediate_m -->
<g id="node12" class="node"><title>TL_intermediate_m</title>
<ellipse fill="black" stroke="black" cx="327" cy="-92" rx="0.036" ry="0.036"/>
</g>
<!-- M&#45;&gt;TL_intermediate_m -->
<g id="edge12" class="edge"><title>M&#45;&gt;TL_intermediate_m</title>
<path fill="none" stroke="black" d="M289.19,-104.502C304.289,-99.3736 324.679,-92.4486 325.939,-92.0208"/>
</g>
<!-- Md_intermediate_r -->
<g id="node14" class="node"><title>Md_intermediate_r</title>
<ellipse fill="black" stroke="black" cx="327" cy="-110" rx="0.036" ry="0.036"/>
</g>
<!-- M&#45;&gt;Md_intermediate_r -->
<g id="edge14" class="edge"><title>M&#45;&gt;Md_intermediate_r</title>
<path fill="none" stroke="black" d="M290.061,-110C305.071,-110 324.727,-110 325.941,-110"/>
</g>
<!-- P -->
<g id="P [CHEBI:16541]" class="node"><title>P</title>
<ellipse fill="none" stroke="black" cx="391" cy="-18" rx="27.1572" ry="18"/>
<text text-anchor="middle" x="391" y="-15.5" font-family="Times,serif" font-size="10.00">protein</text>
</g>
<!-- TC_intermediate_m -->
<g id="node7" class="node"><title>TC_intermediate_m</title>
<ellipse fill="black" stroke="black" cx="454" cy="-50" rx="0.036" ry="0.036"/>
</g>
<!-- P&#45;&gt;TC_intermediate_m -->
<g id="edge6" class="edge"><title>P&#45;&gt;TC_intermediate_m</title>
<path fill="none" stroke="black" d="M412.652,-28.8337C429.795,-37.8271 451.589,-49.2599 452.934,-49.9656"/>
</g>
<!-- Pd_intermediate_r -->
<g id="node18" class="node"><title>Pd_intermediate_r</title>
<ellipse fill="black" stroke="black" cx="454" cy="-18" rx="0.036" ry="0.036"/>
</g>
<!-- P&#45;&gt;Pd_intermediate_r -->
<g id="edge18" class="edge"><title>P&#45;&gt;Pd_intermediate_r</title>
<path fill="none" stroke="black" d="M418.224,-18C434.24,-18 451.861,-18 452.947,-18"/>
</g>
<!-- TC -->
<g id="node3" class="node"><title>TC</title>
<polygon fill="none" stroke="black" points="160,-92 146,-92 146,-78 160,-78 160,-92"/>
</g>
<!-- TC_intermediate_p -->
<g id="node6" class="node"><title>TC_intermediate_p</title>
<ellipse fill="black" stroke="black" cx="217" cy="-101" rx="0.036" ry="0.036"/>
</g>
<!-- TC&#45;&gt;TC_intermediate_p -->
<g id="edge3" class="edge"><title>TC&#45;&gt;TC_intermediate_p</title>
<path fill="none" stroke="black" d="M160.171,-86.5926C175.364,-90.5132 213.515,-100.359 215.884,-100.97"/>
</g>
<!-- TC&#45;&gt;TC_intermediate_m -->
<g id="edge5" class="edge"><title>TC&#45;&gt;TC_intermediate_m</title>
<path fill="none" stroke="black" d="M160.27,-83.062C177.665,-77.8633 228.075,-64 271,-64 271,-64 271,-64 328,-64 383.029,-64 450.844,-50.4341 452.95,-50.0101"/>
</g>
<!-- TC_intermediate_r -->
<g id="node4" class="node"><title>TC_intermediate_r</title>
<ellipse fill="black" stroke="black" cx="90" cy="-85" rx="0.036" ry="0.036"/>
</g>
<!-- TC_intermediate_r&#45;&gt;TC -->
<g id="edge1" class="edge"><title>TC_intermediate_r&#45;&gt;TC</title>
<path fill="none" stroke="black" d="M91.0442,-85C92.5162,-85 130.35,-85 145.659,-85"/>
</g>
<!-- TC_empty -->
<g id="node5" class="node"><title>TC_empty</title>
<text text-anchor="middle" x="27" y="-81.5" font-family="Times,serif" font-size="15.00" fill="blue">Ø</text>
</g>
<!-- TC_empty&#45;&gt;TC_intermediate_r -->
<g id="edge2" class="edge"><title>TC_empty&#45;&gt;TC_intermediate_r</title>
<path fill="none" stroke="black" d="M54.2235,-85C70.2399,-85 87.8615,-85 88.9472,-85"/>
</g>
<!-- TC_intermediate_p&#45;&gt;M -->
<g id="edge4" class="edge"><title>TC_intermediate_p&#45;&gt;M</title>
<path fill="none" stroke="black" d="M218.152,-101.026C219.632,-101.277 231.681,-103.323 243.9,-105.398"/>
<polygon fill="black" stroke="black" points="243.53,-108.885 253.975,-107.109 244.702,-101.984 243.53,-108.885"/>
</g>
<!-- TL -->
<g id="node8" class="node"><title>TL</title>
<polygon fill="none" stroke="black" points="279,-33 265,-33 265,-19 279,-19 279,-33"/>
</g>
<!-- TL_intermediate_p -->
<g id="node11" class="node"><title>TL_intermediate_p</title>
<ellipse fill="black" stroke="black" cx="327" cy="-21" rx="0.036" ry="0.036"/>
</g>
<!-- TL&#45;&gt;TL_intermediate_p -->
<g id="edge9" class="edge"><title>TL&#45;&gt;TL_intermediate_p</title>
<path fill="none" stroke="black" d="M279.08,-25.4264C292.566,-24.1541 323.956,-21.1928 325.905,-21.009"/>
</g>
<!-- TL&#45;&gt;TL_intermediate_m -->
<g id="edge11" class="edge"><title>TL&#45;&gt;TL_intermediate_m</title>
<path fill="none" stroke="black" d="M278.672,-33.0632C291.917,-49.5573 323.916,-89.4049 325.903,-91.8793"/>
</g>
<!-- TL_intermediate_r -->
<g id="node9" class="node"><title>TL_intermediate_r</title>
<ellipse fill="black" stroke="black" cx="217" cy="-26" rx="0.036" ry="0.036"/>
</g>
<!-- TL_intermediate_r&#45;&gt;TL -->
<g id="edge7" class="edge"><title>TL_intermediate_r&#45;&gt;TL</title>
<path fill="none" stroke="black" d="M218.152,-26C220.581,-26 251.47,-26 264.868,-26"/>
</g>
<!-- TL_empty -->
<g id="node10" class="node"><title>TL_empty</title>
<text text-anchor="middle" x="153" y="-22.5" font-family="Times,serif" font-size="15.00" fill="blue">Ø</text>
</g>
<!-- TL_empty&#45;&gt;TL_intermediate_r -->
<g id="edge8" class="edge"><title>TL_empty&#45;&gt;TL_intermediate_r</title>
<path fill="none" stroke="black" d="M180.294,-26C196.664,-26 214.826,-26 215.946,-26"/>
</g>
<!-- TL_intermediate_p&#45;&gt;P -->
<g id="edge10" class="edge"><title>TL_intermediate_p&#45;&gt;P</title>
<path fill="none" stroke="black" d="M328.045,-20.9978C328.857,-20.9585 340.565,-20.392 353.588,-19.7619"/>
<polygon fill="black" stroke="black" points="353.825,-23.2546 363.645,-19.2753 353.487,-16.2628 353.825,-23.2546"/>
</g>
<!-- Md -->
<g id="node13" class="node"><title>Md</title>
<polygon fill="none" stroke="black" points="398,-117 384,-117 384,-103 398,-103 398,-117"/>
</g>
<!-- Md_intermediate_p -->
<g id="node15" class="node"><title>Md_intermediate_p</title>
<ellipse fill="black" stroke="black" cx="454" cy="-110" rx="0.036" ry="0.036"/>
</g>
<!-- Md&#45;&gt;Md_intermediate_p -->
<g id="edge15" class="edge"><title>Md&#45;&gt;Md_intermediate_p</title>
<path fill="none" stroke="black" d="M398.072,-110C413.019,-110 450.555,-110 452.886,-110"/>
</g>
<!-- Md_intermediate_r&#45;&gt;Md -->
<g id="edge13" class="edge"><title>Md_intermediate_r&#45;&gt;Md</title>
<path fill="none" stroke="black" d="M328.045,-110C329.541,-110 367.995,-110 383.555,-110"/>
</g>
<!-- Md_empty -->
<g id="node16" class="node"><title>Md_empty</title>
<text text-anchor="middle" x="517" y="-106.5" font-family="Times,serif" font-size="15.00" fill="blue">Ø</text>
</g>
<!-- Md_intermediate_p&#45;&gt;Md_empty -->
<g id="edge16" class="edge"><title>Md_intermediate_p&#45;&gt;Md_empty</title>
<path fill="none" stroke="black" d="M455.044,-110C455.83,-110 466.976,-110 479.526,-110"/>
<polygon fill="black" stroke="black" points="479.721,-113.5 489.721,-110 479.721,-106.5 479.721,-113.5"/>
</g>
<!-- Pd -->
<g id="node17" class="node"><title>Pd</title>
<polygon fill="none" stroke="black" points="524,-25 510,-25 510,-11 524,-11 524,-25"/>
</g>
<!-- Pd_intermediate_p -->
<g id="node19" class="node"><title>Pd_intermediate_p</title>
<ellipse fill="black" stroke="black" cx="580" cy="-18" rx="0.036" ry="0.036"/>
</g>
<!-- Pd&#45;&gt;Pd_intermediate_p -->
<g id="edge19" class="edge"><title>Pd&#45;&gt;Pd_intermediate_p</title>
<path fill="none" stroke="black" d="M524.072,-18C539.019,-18 576.555,-18 578.886,-18"/>
</g>
<!-- Pd_intermediate_r&#45;&gt;Pd -->
<g id="edge17" class="edge"><title>Pd_intermediate_r&#45;&gt;Pd</title>
<path fill="none" stroke="black" d="M455.044,-18C456.516,-18 494.35,-18 509.659,-18"/>
</g>
<!-- Pd_empty -->
<g id="node20" class="node"><title>Pd_empty</title>
<text text-anchor="middle" x="643" y="-14.5" font-family="Times,serif" font-size="15.00" fill="blue">Ø</text>
</g>
<!-- Pd_intermediate_p&#45;&gt;Pd_empty -->
<g id="edge20" class="edge"><title>Pd_intermediate_p&#45;&gt;Pd_empty</title>
<path fill="none" stroke="black" d="M581.044,-18C581.83,-18 592.976,-18 605.526,-18"/>
<polygon fill="black" stroke="black" points="605.721,-21.5001 615.721,-18 605.721,-14.5001 605.721,-21.5001"/>
</g>
</g>
</svg>
