<?xml version="1.0" encoding="UTF-8" standalone="no"?>
<!DOCTYPE svg PUBLIC "-//W3C//DTD SVG 1.1//EN"
 "http://www.w3.org/Graphics/SVG/1.1/DTD/svg11.dtd">
<!-- Generated by graphviz version 2.24.0 (20090616.2323)
 -->
<!-- Title: G Pages: 1 -->
<svg width="960pt" height="204pt"
 viewBox="0.00 0.00 960.00 203.60" xmlns="http://www.w3.org/2000/svg" xmlns:xlink="http://www.w3.org/1999/xlink">
<g id="graph1" class="graph" transform="scale(1 1) rotate(0) translate(4 199.6)">
<title>G</title>
<polygon fill="white" stroke="white" points="-4,5 -4,-199.6 957,-199.6 957,5 -4,5"/>
<!-- e -->
<g id="node1" class="node"><title>e</title>
<polyline fill="none" stroke="black" points="158,-110 62,-110 "/>
<path fill="none" stroke="black" d="M62,-110C56,-110 50,-104 50,-98"/>
<polyline fill="none" stroke="black" points="50,-98 50,-86 "/>
<path fill="none" stroke="black" d="M50,-86C50,-80 56,-74 62,-74"/>
<polyline fill="none" stroke="black" points="62,-74 158,-74 "/>
<path fill="none" stroke="black" d="M158,-74C164,-74 170,-80 170,-86"/>
<polyline fill="none" stroke="black" points="170,-86 170,-98 "/>
<path fill="none" stroke="black" d="M170,-98C170,-104 164,-110 158,-110"/>
<text text-anchor="middle" x="110" y="-89.5" font-family="Times Roman,serif" font-size="10.00">enzyme E (catalase)</text>
</g>
<!-- r1_intermediate_r -->
<g id="node8" class="node"><title>r1_intermediate_r</title>
<ellipse fill="black" stroke="black" cx="257" cy="-138" rx="0.036" ry="0.036"/>
</g>
<!-- e&#45;&gt;r1_intermediate_r -->
<g id="edge4" class="edge"><title>e&#45;&gt;r1_intermediate_r</title>
<path fill="none" stroke="black" d="M177.599,-113.153C214.896,-124.825 254.233,-137.134 256.861,-137.956"/>
<polygon fill="black" stroke="black" points="178.265,-109.695 167.676,-110.048 176.175,-116.375 178.265,-109.695"/>
</g>
<!-- x -->
<g id="node2" class="node"><title>x</title>
<ellipse fill="none" stroke="black" cx="110" cy="-165" rx="109.074" ry="18"/>
<text text-anchor="middle" x="110" y="-162.5" font-family="Times Roman,serif" font-size="10.00">substrate S (hydrogen peroxide)</text>
</g>
<!-- x&#45;&gt;r1_intermediate_r -->
<g id="edge6" class="edge"><title>x&#45;&gt;r1_intermediate_r</title>
<path fill="none" stroke="black" d="M193.097,-149.737C225.24,-143.833 254.892,-138.387 256.893,-138.02"/>
<polygon fill="black" stroke="black" points="192.273,-146.33 183.069,-151.579 193.537,-153.215 192.273,-146.33"/>
</g>
<!-- r2_intermediate_r -->
<g id="node16" class="node"><title>r2_intermediate_r</title>
<ellipse fill="black" stroke="black" cx="749" cy="-138" rx="0.036" ry="0.036"/>
</g>
<!-- x&#45;&gt;r2_intermediate_r -->
<g id="edge16" class="edge"><title>x&#45;&gt;r2_intermediate_r</title>
<path fill="none" stroke="black" d="M193.026,-176.871C226.493,-180.712 265.511,-184 301,-184 301,-184 301,-184 345,-184 508.33,-184 558.078,-219.632 712,-165 730.585,-158.403 747.885,-139.249 748.948,-138.058"/>
</g>
<!-- p -->
<g id="node3" class="node"><title>p</title>
<polyline fill="none" stroke="black" points="700,-156 394,-156 "/>
<path fill="none" stroke="black" d="M394,-156C388,-156 382,-150 382,-144"/>
<polyline fill="none" stroke="black" points="382,-144 382,-132 "/>
<path fill="none" stroke="black" d="M382,-132C382,-126 388,-120 394,-120"/>
<polyline fill="none" stroke="black" points="394,-120 700,-120 "/>
<path fill="none" stroke="black" d="M700,-120C706,-120 712,-126 712,-132"/>
<polyline fill="none" stroke="black" points="712,-132 712,-144 "/>
<path fill="none" stroke="black" d="M712,-144C712,-150 706,-156 700,-156"/>
<text text-anchor="middle" x="547" y="-135.5" font-family="Times Roman,serif" font-size="10.00">enzyme&#45;substrate complex ES (catalase &#45; hydrogen peroxide)</text>
</g>
<!-- p&#45;&gt;r2_intermediate_r -->
<g id="edge14" class="edge"><title>p&#45;&gt;r2_intermediate_r</title>
<path fill="none" stroke="black" d="M712.419,-138C733.434,-138 748.063,-138 748.957,-138"/>
</g>
<!-- r3_intermediate_r -->
<g id="node25" class="node"><title>r3_intermediate_r</title>
<ellipse fill="black" stroke="black" cx="749" cy="-46" rx="0.036" ry="0.036"/>
</g>
<!-- p&#45;&gt;r3_intermediate_r -->
<g id="edge26" class="edge"><title>p&#45;&gt;r3_intermediate_r</title>
<path fill="none" stroke="black" d="M603.22,-119.878C635.897,-108.369 677.334,-92.066 712,-73 729.28,-63.4961 747.804,-47.0671 748.944,-46.0496"/>
</g>
<!-- p1 -->
<g id="node4" class="node"><title>p1</title>
<ellipse fill="none" stroke="black" cx="912" cy="-94" rx="38.8989" ry="18"/>
<text text-anchor="middle" x="912" y="-91.5" font-family="Times Roman,serif" font-size="10.00">product 1</text>
</g>
<!-- a -->
<g id="node5" class="node"><title>a</title>
<ellipse fill="none" stroke="black" cx="547" cy="-46" rx="41.2443" ry="18"/>
<text text-anchor="middle" x="547" y="-43.5" font-family="Times Roman,serif" font-size="10.00">donor AH2</text>
</g>
<!-- a&#45;&gt;r3_intermediate_r -->
<g id="edge28" class="edge"><title>a&#45;&gt;r3_intermediate_r</title>
<path fill="none" stroke="black" d="M588.365,-46C646.54,-46 745.837,-46 748.926,-46"/>
</g>
<!-- p2 -->
<g id="node6" class="node"><title>p2</title>
<ellipse fill="none" stroke="black" cx="912" cy="-20" rx="38.8989" ry="18"/>
<text text-anchor="middle" x="912" y="-17.5" font-family="Times Roman,serif" font-size="10.00">product 2</text>
</g>
<!-- r1 -->
<g id="node7" class="node"><title>r1</title>
<polygon fill="none" stroke="black" points="308,-145 294,-145 294,-131 308,-131 308,-145"/>
</g>
<!-- r1_intermediate_p -->
<g id="node12" class="node"><title>r1_intermediate_p</title>
<ellipse fill="black" stroke="black" cx="345" cy="-138" rx="0.036" ry="0.036"/>
</g>
<!-- r1&#45;&gt;r1_intermediate_p -->
<g id="edge8" class="edge"><title>r1&#45;&gt;r1_intermediate_p</title>
<path fill="none" stroke="black" d="M308.266,-138C320.372,-138 343.497,-138 344.93,-138"/>
</g>
<!-- r1_intermediate_r&#45;&gt;r1 -->
<g id="edge2" class="edge"><title>r1_intermediate_r&#45;&gt;r1</title>
<path fill="none" stroke="black" d="M257.126,-138C259.022,-138 281.795,-138 293.759,-138"/>
</g>
<!-- r1_intermediate_p&#45;&gt;p -->
<g id="edge10" class="edge"><title>r1_intermediate_p&#45;&gt;p</title>
<path fill="none" stroke="black" d="M345.146,-138C346.45,-138 356.363,-138 371.158,-138"/>
<polygon fill="black" stroke="black" points="371.544,-141.5 381.544,-138 371.544,-134.5 371.544,-141.5"/>
</g>
<!-- r2 -->
<g id="node15" class="node"><title>r2</title>
<polygon fill="none" stroke="black" points="800,-139 786,-139 786,-125 800,-125 800,-139"/>
</g>
<!-- r2_intermediate_p -->
<g id="node20" class="node"><title>r2_intermediate_p</title>
<ellipse fill="black" stroke="black" cx="836" cy="-94" rx="0.036" ry="0.036"/>
</g>
<!-- r2&#45;&gt;r2_intermediate_p -->
<g id="edge18" class="edge"><title>r2&#45;&gt;r2_intermediate_p</title>
<path fill="none" stroke="black" d="M800.101,-125.725C811.932,-115.269 834.531,-95.2983 835.932,-94.0604"/>
</g>
<!-- r2_intermediate_r&#45;&gt;r2 -->
<g id="edge12" class="edge"><title>r2_intermediate_r&#45;&gt;r2</title>
<path fill="none" stroke="black" d="M749.126,-137.983C751.022,-137.724 773.795,-134.619 785.759,-132.987"/>
</g>
<!-- r2_intermediate_p&#45;&gt;e -->
<g id="edge20" class="edge"><title>r2_intermediate_p&#45;&gt;e</title>
<path fill="none" stroke="black" d="M835.86,-93.9943C832.989,-93.877 786.468,-92 749,-92 301,-92 301,-92 301,-92 261.313,-92 216.987,-92 181.034,-92"/>
<polygon fill="black" stroke="black" points="180.644,-88.5001 170.644,-92 180.644,-95.5001 180.644,-88.5001"/>
</g>
<!-- r2_intermediate_p&#45;&gt;p1 -->
<g id="edge22" class="edge"><title>r2_intermediate_p&#45;&gt;p1</title>
<path fill="none" stroke="black" d="M836.055,-94C836.938,-94 848.312,-94 862.001,-94"/>
<polygon fill="black" stroke="black" points="862.261,-97.5001 872.261,-94 862.261,-90.5001 862.261,-97.5001"/>
</g>
<!-- r3 -->
<g id="node24" class="node"><title>r3</title>
<polygon fill="none" stroke="black" points="800,-49 786,-49 786,-35 800,-35 800,-49"/>
</g>
<!-- r3_intermediate_p -->
<g id="node29" class="node"><title>r3_intermediate_p</title>
<ellipse fill="black" stroke="black" cx="836" cy="-20" rx="0.036" ry="0.036"/>
</g>
<!-- r3&#45;&gt;r3_intermediate_p -->
<g id="edge30" class="edge"><title>r3&#45;&gt;r3_intermediate_p</title>
<path fill="none" stroke="black" d="M800.101,-38.3671C811.932,-32.3138 834.531,-20.7517 835.932,-20.035"/>
</g>
<!-- r3_intermediate_r&#45;&gt;r3 -->
<g id="edge24" class="edge"><title>r3_intermediate_r&#45;&gt;r3</title>
<path fill="none" stroke="black" d="M749.126,-45.9885C751.022,-45.8162 773.795,-43.746 785.759,-42.6583"/>
</g>
<!-- r3_intermediate_p&#45;&gt;e -->
<g id="edge32" class="edge"><title>r3_intermediate_p&#45;&gt;e</title>
<path fill="none" stroke="black" d="M835.863,-19.9426C833.05,-18.7695 787.435,-3.55271e-15 749,-0 301,-0 301,-0 301,-0 238.644,-0 175.17,-40.2927 139.367,-67.5476"/>
<polygon fill="black" stroke="black" points="137.046,-64.9192 131.305,-73.8238 141.346,-70.4429 137.046,-64.9192"/>
</g>
<!-- r3_intermediate_p&#45;&gt;p2 -->
<g id="edge34" class="edge"><title>r3_intermediate_p&#45;&gt;p2</title>
<path fill="none" stroke="black" d="M836.055,-20C836.938,-20 848.312,-20 862.001,-20"/>
<polygon fill="black" stroke="black" points="862.261,-23.5001 872.261,-20 862.261,-16.5001 862.261,-23.5001"/>
</g>
</g>
</svg>
