<?xml version="1.0" encoding="UTF-8" standalone="no"?>
<!DOCTYPE svg PUBLIC "-//W3C//DTD SVG 1.1//EN"
 "http://www.w3.org/Graphics/SVG/1.1/DTD/svg11.dtd">
<!-- Generated by graphviz version 2.24.0 (20090616.2323)
 -->
<!-- Title: G Pages: 1 -->
<svg width="1040pt" height="195pt"
 viewBox="0.00 0.00 1040.00 195.00" xmlns="http://www.w3.org/2000/svg" xmlns:xlink="http://www.w3.org/1999/xlink">
<g id="graph1" class="graph" transform="scale(1 1) rotate(0) translate(4 191)">
<title>G</title>
<polygon fill="white" stroke="white" points="-4,5 -4,-191 1037,-191 1037,5 -4,5"/>
<!-- H -->
<g id="node1" class="node"><title>H</title>
<polyline fill="none" stroke="black" points="42,-133 12,-133 "/>
<path fill="none" stroke="black" d="M12,-133C6,-133 2.07242e-14,-127 1.65793e-14,-121"/>
<polyline fill="none" stroke="black" points="1.65793e-14,-121 8.28967e-15,-109 "/>
<path fill="none" stroke="black" d="M8.28967e-15,-109C4.14483e-15,-103 6,-97 12,-97"/>
<polyline fill="none" stroke="black" points="12,-97 42,-97 "/>
<path fill="none" stroke="black" d="M42,-97C48,-97 54,-103 54,-109"/>
<polyline fill="none" stroke="black" points="54,-109 54,-121 "/>
<path fill="none" stroke="black" d="M54,-121C54,-127 48,-133 42,-133"/>
<text text-anchor="middle" x="27" y="-112.5" font-family="Times Roman,serif" font-size="10.00">H</text>
</g>
<!-- reaction_0_intermediate_r -->
<g id="node10" class="node"><title>reaction_0_intermediate_r</title>
<ellipse fill="black" stroke="black" cx="90" cy="-88" rx="0.036" ry="0.036"/>
</g>
<!-- H&#45;&gt;reaction_0_intermediate_r -->
<g id="edge4" class="edge"><title>H&#45;&gt;reaction_0_intermediate_r</title>
<path fill="none" stroke="black" d="M63.4393,-99.3832C76.8492,-93.6361 89.0344,-88.4138 89.9454,-88.0234"/>
<polygon fill="black" stroke="black" points="61.896,-96.2366 54.0833,-103.393 64.6535,-102.671 61.896,-96.2366"/>
</g>
<!-- HR -->
<g id="node2" class="node"><title>HR</title>
<polyline fill="none" stroke="black" points="254,-106 224,-106 "/>
<path fill="none" stroke="black" d="M224,-106C218,-106 212,-100 212,-94"/>
<polyline fill="none" stroke="black" points="212,-94 212,-82 "/>
<path fill="none" stroke="black" d="M212,-82C212,-76 218,-70 224,-70"/>
<polyline fill="none" stroke="black" points="224,-70 254,-70 "/>
<path fill="none" stroke="black" d="M254,-70C260,-70 266,-76 266,-82"/>
<polyline fill="none" stroke="black" points="266,-82 266,-94 "/>
<path fill="none" stroke="black" d="M266,-94C266,-100 260,-106 254,-106"/>
<text text-anchor="middle" x="239" y="-85.5" font-family="Times Roman,serif" font-size="10.00">HR</text>
</g>
<!-- reaction_1_intermediate_r -->
<g id="node18" class="node"><title>reaction_1_intermediate_r</title>
<ellipse fill="black" stroke="black" cx="302" cy="-88" rx="0.036" ry="0.036"/>
</g>
<!-- HR&#45;&gt;reaction_1_intermediate_r -->
<g id="edge14" class="edge"><title>HR&#45;&gt;reaction_1_intermediate_r</title>
<path fill="none" stroke="black" d="M276.211,-88C289.314,-88 301.052,-88 301.945,-88"/>
<polygon fill="black" stroke="black" points="276.083,-84.5001 266.083,-88 276.083,-91.5001 276.083,-84.5001"/>
</g>
<!-- R -->
<g id="node3" class="node"><title>R</title>
<polyline fill="none" stroke="black" points="42,-79 12,-79 "/>
<path fill="none" stroke="black" d="M12,-79C6,-79 2.07242e-14,-73 1.65793e-14,-67"/>
<polyline fill="none" stroke="black" points="1.65793e-14,-67 8.28967e-15,-55 "/>
<path fill="none" stroke="black" d="M8.28967e-15,-55C4.14483e-15,-49 6,-43 12,-43"/>
<polyline fill="none" stroke="black" points="12,-43 42,-43 "/>
<path fill="none" stroke="black" d="M42,-43C48,-43 54,-49 54,-55"/>
<polyline fill="none" stroke="black" points="54,-55 54,-67 "/>
<path fill="none" stroke="black" d="M54,-67C54,-73 48,-79 42,-79"/>
<text text-anchor="middle" x="27" y="-58.5" font-family="Times Roman,serif" font-size="10.00">R</text>
</g>
<!-- R&#45;&gt;reaction_0_intermediate_r -->
<g id="edge6" class="edge"><title>R&#45;&gt;reaction_0_intermediate_r</title>
<path fill="none" stroke="black" d="M63.4393,-76.6168C76.8492,-82.3639 89.0344,-87.5862 89.9454,-87.9766"/>
<polygon fill="black" stroke="black" points="64.6535,-73.3294 54.0833,-72.6071 61.896,-79.7634 64.6535,-73.3294"/>
</g>
<!-- HRRH -->
<g id="node4" class="node"><title>HRRH</title>
<ellipse fill="none" stroke="black" cx="453" cy="-88" rx="27.8202" ry="18"/>
<text text-anchor="middle" x="453" y="-85.5" font-family="Times Roman,serif" font-size="10.00">HRRH</text>
</g>
<!-- reaction_2_intermediate_r -->
<g id="node25" class="node"><title>reaction_2_intermediate_r</title>
<ellipse fill="black" stroke="black" cx="518" cy="-61" rx="0.036" ry="0.036"/>
</g>
<!-- HRRH&#45;&gt;reaction_2_intermediate_r -->
<g id="edge22" class="edge"><title>HRRH&#45;&gt;reaction_2_intermediate_r</title>
<path fill="none" stroke="black" d="M486.316,-74.1611C501.69,-67.7747 516.822,-61.4895 517.935,-61.0272"/>
<polygon fill="black" stroke="black" points="484.727,-71.0311 476.835,-78.0995 487.412,-77.4956 484.727,-71.0311"/>
</g>
<!-- E -->
<g id="node5" class="node"><title>E</title>
<polyline fill="none" stroke="black" points="736,-79 706,-79 "/>
<path fill="none" stroke="black" d="M706,-79C700,-79 694,-73 694,-67"/>
<polyline fill="none" stroke="black" points="694,-67 694,-55 "/>
<path fill="none" stroke="black" d="M694,-55C694,-49 700,-43 706,-43"/>
<polyline fill="none" stroke="black" points="706,-43 736,-43 "/>
<path fill="none" stroke="black" d="M736,-43C742,-43 748,-49 748,-55"/>
<polyline fill="none" stroke="black" points="748,-55 748,-67 "/>
<path fill="none" stroke="black" d="M748,-67C748,-73 742,-79 736,-79"/>
<text text-anchor="middle" x="721" y="-58.5" font-family="Times Roman,serif" font-size="10.00">E</text>
</g>
<!-- reaction_4_intermediate_m -->
<g id="node44" class="node"><title>reaction_4_intermediate_m</title>
<ellipse fill="black" stroke="black" cx="784" cy="-48" rx="0.036" ry="0.036"/>
</g>
<!-- E&#45;&gt;reaction_4_intermediate_m -->
<g id="edge44" class="edge"><title>E&#45;&gt;reaction_4_intermediate_m</title>
<path fill="none" stroke="black" d="M748.083,-55.4114C764.625,-51.998 782.824,-48.2426 783.945,-48.0113"/>
</g>
<!-- GQ -->
<g id="node6" class="node"><title>GQ</title>
<ellipse fill="none" stroke="black" cx="453" cy="-34" rx="27" ry="18"/>
<text text-anchor="middle" x="453" y="-31.5" font-family="Times Roman,serif" font-size="10.00">GQ</text>
</g>
<!-- GQ&#45;&gt;reaction_2_intermediate_r -->
<g id="edge24" class="edge"><title>GQ&#45;&gt;reaction_2_intermediate_r</title>
<path fill="none" stroke="black" d="M485.681,-47.5752C501.263,-54.0479 516.79,-60.4976 517.933,-60.9721"/>
<polygon fill="black" stroke="black" points="486.677,-44.1991 476.1,-43.5952 483.992,-50.6636 486.677,-44.1991"/>
</g>
<!-- IP3 -->
<g id="node7" class="node"><title>IP3</title>
<ellipse fill="none" stroke="black" cx="838" cy="-18" rx="18" ry="18"/>
<text text-anchor="middle" x="838" y="-15.5" font-family="Times Roman,serif" font-size="10.00">IP3</text>
</g>
<!-- reaction_3_intermediate_r -->
<g id="node33" class="node"><title>reaction_3_intermediate_r</title>
<ellipse fill="black" stroke="black" cx="892" cy="-18" rx="0.036" ry="0.036"/>
</g>
<!-- IP3&#45;&gt;reaction_3_intermediate_r -->
<g id="edge32" class="edge"><title>IP3&#45;&gt;reaction_3_intermediate_r</title>
<path fill="none" stroke="black" d="M856.282,-18C871.458,-18 890.751,-18 891.942,-18"/>
</g>
<!-- CHO -->
<g id="node8" class="node"><title>CHO</title>
<polyline fill="none" stroke="black" points="42,-187 12,-187 "/>
<path fill="none" stroke="black" d="M12,-187C6,-187 2.07242e-14,-181 1.65793e-14,-175"/>
<polyline fill="none" stroke="black" points="1.65793e-14,-175 8.28967e-15,-163 "/>
<path fill="none" stroke="black" d="M8.28967e-15,-163C4.14483e-15,-157 6,-151 12,-151"/>
<polyline fill="none" stroke="black" points="12,-151 42,-151 "/>
<path fill="none" stroke="black" d="M42,-151C48,-151 54,-157 54,-163"/>
<polyline fill="none" stroke="black" points="54,-163 54,-175 "/>
<path fill="none" stroke="black" d="M54,-175C54,-181 48,-187 42,-187"/>
<text text-anchor="middle" x="27" y="-166.5" font-family="Times Roman,serif" font-size="10.00">CHO</text>
</g>
<!-- reaction_0 -->
<g id="node9" class="node"><title>reaction_0</title>
<polygon fill="none" stroke="black" points="140,-95 126,-95 126,-81 140,-81 140,-95"/>
</g>
<!-- reaction_0_intermediate_p -->
<g id="node14" class="node"><title>reaction_0_intermediate_p</title>
<ellipse fill="black" stroke="black" cx="176" cy="-88" rx="0.036" ry="0.036"/>
</g>
<!-- reaction_0&#45;&gt;reaction_0_intermediate_p -->
<g id="edge8" class="edge"><title>reaction_0&#45;&gt;reaction_0_intermediate_p</title>
<path fill="none" stroke="black" d="M140.101,-88C151.932,-88 174.531,-88 175.932,-88"/>
</g>
<!-- reaction_0_intermediate_r&#45;&gt;reaction_0 -->
<g id="edge2" class="edge"><title>reaction_0_intermediate_r&#45;&gt;reaction_0</title>
<path fill="none" stroke="black" d="M90.1234,-88C91.9756,-88 114.231,-88 125.924,-88"/>
</g>
<!-- reaction_0_intermediate_p&#45;&gt;HR -->
<g id="edge10" class="edge"><title>reaction_0_intermediate_p&#45;&gt;HR</title>
<path fill="none" stroke="black" d="M176.046,-88C176.865,-88 188.597,-88 201.716,-88"/>
<polygon fill="black" stroke="black" points="201.86,-91.5001 211.86,-88 201.859,-84.5001 201.86,-91.5001"/>
</g>
<!-- reaction_1 -->
<g id="node17" class="node"><title>reaction_1</title>
<polygon fill="none" stroke="black" points="352,-95 338,-95 338,-81 352,-81 352,-95"/>
</g>
<!-- reaction_1_intermediate_p -->
<g id="node21" class="node"><title>reaction_1_intermediate_p</title>
<ellipse fill="black" stroke="black" cx="388" cy="-88" rx="0.036" ry="0.036"/>
</g>
<!-- reaction_1&#45;&gt;reaction_1_intermediate_p -->
<g id="edge16" class="edge"><title>reaction_1&#45;&gt;reaction_1_intermediate_p</title>
<path fill="none" stroke="black" d="M352.101,-88C363.932,-88 386.531,-88 387.932,-88"/>
</g>
<!-- reaction_1_intermediate_r&#45;&gt;reaction_1 -->
<g id="edge12" class="edge"><title>reaction_1_intermediate_r&#45;&gt;reaction_1</title>
<path fill="none" stroke="black" d="M302.123,-88C303.976,-88 326.231,-88 337.924,-88"/>
</g>
<!-- reaction_1_intermediate_p&#45;&gt;HRRH -->
<g id="edge18" class="edge"><title>reaction_1_intermediate_p&#45;&gt;HRRH</title>
<path fill="none" stroke="black" d="M388.047,-88C388.88,-88 400.649,-88 413.944,-88"/>
<polygon fill="black" stroke="black" points="414.254,-91.5001 424.254,-88 414.253,-84.5001 414.254,-91.5001"/>
</g>
<!-- reaction_2 -->
<g id="node24" class="node"><title>reaction_2</title>
<polygon fill="none" stroke="black" points="568,-68 554,-68 554,-54 568,-54 568,-68"/>
</g>
<!-- reaction_2_intermediate_p -->
<g id="node29" class="node"><title>reaction_2_intermediate_p</title>
<ellipse fill="black" stroke="black" cx="631" cy="-61" rx="0.036" ry="0.036"/>
</g>
<!-- reaction_2&#45;&gt;reaction_2_intermediate_p -->
<g id="edge26" class="edge"><title>reaction_2&#45;&gt;reaction_2_intermediate_p</title>
<path fill="none" stroke="black" d="M568.228,-61C585.554,-61 628.221,-61 630.871,-61"/>
</g>
<!-- reaction_2_intermediate_r&#45;&gt;reaction_2 -->
<g id="edge20" class="edge"><title>reaction_2_intermediate_r&#45;&gt;reaction_2</title>
<path fill="none" stroke="black" d="M518.123,-61C519.976,-61 542.231,-61 553.924,-61"/>
</g>
<!-- reaction_2_intermediate_p&#45;&gt;E -->
<g id="edge28" class="edge"><title>reaction_2_intermediate_p&#45;&gt;E</title>
<path fill="none" stroke="black" d="M631.065,-61C632.565,-61 659.648,-61 683.704,-61"/>
<polygon fill="black" stroke="black" points="683.745,-64.5001 693.745,-61 683.745,-57.5001 683.745,-64.5001"/>
</g>
<!-- reaction_3 -->
<g id="node32" class="node"><title>reaction_3</title>
<polygon fill="none" stroke="black" points="942,-25 928,-25 928,-11 942,-11 942,-25"/>
</g>
<!-- reaction_3_empty -->
<g id="node36" class="node"><title>reaction_3_empty</title>
<text text-anchor="middle" x="1005" y="-13.5" font-family="Times Roman,serif" font-size="15.00" fill="blue">Ø</text>
</g>
<!-- reaction_3&#45;&gt;reaction_3_empty -->
<g id="edge34" class="edge"><title>reaction_3&#45;&gt;reaction_3_empty</title>
<path fill="none" stroke="black" d="M942.228,-18C948.45,-18 957.94,-18 967.672,-18"/>
<polygon fill="black" stroke="black" points="967.773,-21.5001 977.773,-18 967.773,-14.5001 967.773,-21.5001"/>
</g>
<!-- reaction_3_intermediate_r&#45;&gt;reaction_3 -->
<g id="edge30" class="edge"><title>reaction_3_intermediate_r&#45;&gt;reaction_3</title>
<path fill="none" stroke="black" d="M892.123,-18C893.976,-18 916.231,-18 927.924,-18"/>
</g>
<!-- reaction_4 -->
<g id="node38" class="node"><title>reaction_4</title>
<polygon fill="none" stroke="black" points="728,-25 714,-25 714,-11 728,-11 728,-25"/>
</g>
<!-- reaction_4_intermediate_p -->
<g id="node41" class="node"><title>reaction_4_intermediate_p</title>
<ellipse fill="black" stroke="black" cx="784" cy="-18" rx="0.036" ry="0.036"/>
</g>
<!-- reaction_4&#45;&gt;reaction_4_intermediate_p -->
<g id="edge38" class="edge"><title>reaction_4&#45;&gt;reaction_4_intermediate_p</title>
<path fill="none" stroke="black" d="M728.227,-18C744.258,-18 781.571,-18 783.887,-18"/>
</g>
<!-- reaction_4&#45;&gt;reaction_4_intermediate_m -->
<g id="edge42" class="edge"><title>reaction_4&#45;&gt;reaction_4_intermediate_m</title>
<path fill="none" stroke="black" d="M739.118,-26.6276C757.02,-35.1523 782.005,-47.05 783.887,-47.9462"/>
<polygon fill="none" stroke="black" points="739.061,-26.6006 731.924,-27.6325 728.227,-21.4414 735.364,-20.4096 739.061,-26.6006"/>
</g>
<!-- reaction_4_empty -->
<g id="node39" class="node"><title>reaction_4_empty</title>
<text text-anchor="middle" x="631" y="-13.5" font-family="Times Roman,serif" font-size="15.00" fill="blue">Ø</text>
</g>
<!-- reaction_4_empty&#45;&gt;reaction_4 -->
<g id="edge36" class="edge"><title>reaction_4_empty&#45;&gt;reaction_4</title>
<path fill="none" stroke="black" d="M658.003,-18C677.264,-18 701.792,-18 713.766,-18"/>
</g>
<!-- reaction_4_intermediate_p&#45;&gt;IP3 -->
<g id="edge40" class="edge"><title>reaction_4_intermediate_p&#45;&gt;IP3</title>
<path fill="none" stroke="black" d="M784.155,-18C785.634,-18 797.471,-18 809.67,-18"/>
<polygon fill="black" stroke="black" points="809.784,-21.5001 819.784,-18 809.784,-14.5001 809.784,-21.5001"/>
</g>
</g>
</svg>
