<?xml version="1.0" encoding="UTF-8" standalone="no"?>
<!DOCTYPE svg PUBLIC "-//W3C//DTD SVG 1.1//EN"
 "http://www.w3.org/Graphics/SVG/1.1/DTD/svg11.dtd">
<!-- Generated by graphviz version 2.30.1 (20140821.0912)
 -->
<!-- Title: G Pages: 1 -->
<svg width="1196pt" height="374pt"
 viewBox="0.00 0.00 1196.00 374.00" xmlns="http://www.w3.org/2000/svg" xmlns:xlink="http://www.w3.org/1999/xlink">
<g id="graph0" class="graph" transform="scale(1 1) rotate(0) translate(4 370)">
<title>G</title>
<polygon fill="white" stroke="white" points="-4,5 -4,-370 1193,-370 1193,5 -4,5"/>
<!-- solution0 -->
<g id="solution0" class="node"><title>solution0</title>
<ellipse fill="none" stroke="black" cx="33" cy="-224" rx="32.9303" ry="18"/>
<text text-anchor="middle" x="33" y="-221.5" font-family="Times,serif" font-size="10.00">solution0</text>
</g>
<!-- R_5_intermediate_r -->
<g id="node18" class="node"><title>R_5_intermediate_r</title>
<ellipse fill="black" stroke="black" cx="129" cy="-110" rx="0.036" ry="0.036"/>
</g>
<!-- solution0&#45;&gt;R_5_intermediate_r -->
<g id="edge16" class="edge"><title>solution0&#45;&gt;R_5_intermediate_r</title>
<path fill="none" stroke="black" d="M43.7208,-206.685C55.687,-186.337 77.462,-152.276 102,-128 111.679,-118.424 127.005,-110.509 127.954,-110.024"/>
</g>
<!-- R_7_intermediate_r -->
<g id="node24" class="node"><title>R_7_intermediate_r</title>
<ellipse fill="black" stroke="black" cx="129" cy="-224" rx="0.036" ry="0.036"/>
</g>
<!-- solution0&#45;&gt;R_7_intermediate_r -->
<g id="edge24" class="edge"><title>solution0&#45;&gt;R_7_intermediate_r</title>
<path fill="none" stroke="black" d="M66.0866,-224C92.4667,-224 125.84,-224 127.9,-224"/>
</g>
<!-- R_11_intermediate_r -->
<g id="node36" class="node"><title>R_11_intermediate_r</title>
<ellipse fill="black" stroke="black" cx="1047" cy="-327" rx="0.036" ry="0.036"/>
</g>
<!-- solution0&#45;&gt;R_11_intermediate_r -->
<g id="edge42" class="edge"><title>solution0&#45;&gt;R_11_intermediate_r</title>
<path fill="none" stroke="black" d="M43.9823,-241.125C55.5855,-259.487 76.4479,-288.135 102,-304 139.364,-327.199 154.02,-328 198,-328 198,-328 198,-328 882,-328 953.751,-328 1043.16,-327.031 1045.93,-327.001"/>
</g>
<!-- R_13_intermediate_r -->
<g id="node42" class="node"><title>R_13_intermediate_r</title>
<ellipse fill="black" stroke="black" cx="129" cy="-85" rx="0.036" ry="0.036"/>
</g>
<!-- solution0&#45;&gt;R_13_intermediate_r -->
<g id="edge55" class="edge"><title>solution0&#45;&gt;R_13_intermediate_r</title>
<path fill="none" stroke="black" d="M40.4033,-206.316C50.377,-180.674 71.676,-132.772 102,-101 111.075,-91.4914 126.968,-85.3901 127.952,-85.018"/>
</g>
<!-- solution1 -->
<g id="solution1" class="node"><title>solution1</title>
<ellipse fill="none" stroke="black" cx="977" cy="-181" rx="32.9303" ry="18"/>
<text text-anchor="middle" x="977" y="-178.5" font-family="Times,serif" font-size="10.00">solution1</text>
</g>
<!-- R_9_intermediate_r -->
<g id="node30" class="node"><title>R_9_intermediate_r</title>
<ellipse fill="black" stroke="black" cx="1047" cy="-156" rx="0.036" ry="0.036"/>
</g>
<!-- solution1&#45;&gt;R_9_intermediate_r -->
<g id="edge34" class="edge"><title>solution1&#45;&gt;R_9_intermediate_r</title>
<path fill="none" stroke="black" d="M1004.88,-171.119C1023.29,-164.35 1044.62,-156.507 1045.94,-156.024"/>
</g>
<!-- R_10_intermediate_r -->
<g id="node33" class="node"><title>R_10_intermediate_r</title>
<ellipse fill="black" stroke="black" cx="1047" cy="-181" rx="0.036" ry="0.036"/>
</g>
<!-- solution1&#45;&gt;R_10_intermediate_r -->
<g id="edge37" class="edge"><title>solution1&#45;&gt;R_10_intermediate_r</title>
<path fill="none" stroke="black" d="M1010.01,-181C1027.09,-181 1044.85,-181 1045.95,-181"/>
</g>
<!-- solution1&#45;&gt;R_11_intermediate_r -->
<g id="edge43" class="edge"><title>solution1&#45;&gt;R_11_intermediate_r</title>
<path fill="none" stroke="black" d="M986.068,-198.321C1003.8,-236.391 1044.7,-324.2 1045.97,-326.935"/>
</g>
<!-- R_12_intermediate_r -->
<g id="node39" class="node"><title>R_12_intermediate_r</title>
<ellipse fill="black" stroke="black" cx="1047" cy="-41" rx="0.036" ry="0.036"/>
</g>
<!-- solution1&#45;&gt;R_12_intermediate_r -->
<g id="edge48" class="edge"><title>solution1&#45;&gt;R_12_intermediate_r</title>
<path fill="none" stroke="black" d="M986.475,-163.552C1004.42,-126.609 1044.72,-43.6454 1045.97,-41.0618"/>
</g>
<!-- solution2 -->
<g id="solution2" class="node"><title>solution2</title>
<ellipse fill="none" stroke="black" cx="365" cy="-143" rx="32.9303" ry="18"/>
<text text-anchor="middle" x="365" y="-140.5" font-family="Times,serif" font-size="10.00">solution2</text>
</g>
<!-- R_2_intermediate_r -->
<g id="node9" class="node"><title>R_2_intermediate_r</title>
<ellipse fill="black" stroke="black" cx="461" cy="-143" rx="0.036" ry="0.036"/>
</g>
<!-- solution2&#45;&gt;R_2_intermediate_r -->
<g id="edge5" class="edge"><title>solution2&#45;&gt;R_2_intermediate_r</title>
<path fill="none" stroke="black" d="M398.087,-143C424.467,-143 457.84,-143 459.9,-143"/>
</g>
<!-- R_6_intermediate_r -->
<g id="node21" class="node"><title>R_6_intermediate_r</title>
<ellipse fill="black" stroke="black" cx="461" cy="-71" rx="0.036" ry="0.036"/>
</g>
<!-- solution2&#45;&gt;R_6_intermediate_r -->
<g id="edge21" class="edge"><title>solution2&#45;&gt;R_6_intermediate_r</title>
<path fill="none" stroke="black" d="M379.911,-126.762C392.719,-112.694 412.884,-92.6648 434,-80 444.159,-73.907 459.035,-71.1729 459.955,-71.008"/>
</g>
<!-- solution3 -->
<g id="solution3" class="node"><title>solution3</title>
<ellipse fill="none" stroke="black" cx="697" cy="-111" rx="32.9303" ry="18"/>
<text text-anchor="middle" x="697" y="-108.5" font-family="Times,serif" font-size="10.00">solution3</text>
</g>
<!-- R_3_intermediate_r -->
<g id="node12" class="node"><title>R_3_intermediate_r</title>
<ellipse fill="black" stroke="black" cx="767" cy="-111" rx="0.036" ry="0.036"/>
</g>
<!-- solution3&#45;&gt;R_3_intermediate_r -->
<g id="edge10" class="edge"><title>solution3&#45;&gt;R_3_intermediate_r</title>
<path fill="none" stroke="black" d="M730.009,-111C747.095,-111 764.854,-111 765.947,-111"/>
</g>
<!-- R_8_intermediate_r -->
<g id="node27" class="node"><title>R_8_intermediate_r</title>
<ellipse fill="black" stroke="black" cx="767" cy="-178" rx="0.036" ry="0.036"/>
</g>
<!-- solution3&#45;&gt;R_8_intermediate_r -->
<g id="edge29" class="edge"><title>solution3&#45;&gt;R_8_intermediate_r</title>
<path fill="none" stroke="black" d="M713.771,-126.54C733.232,-145.714 764.003,-176.032 765.907,-177.909"/>
</g>
<!-- solution3&#45;&gt;R_12_intermediate_r -->
<g id="edge49" class="edge"><title>solution3&#45;&gt;R_12_intermediate_r</title>
<path fill="none" stroke="black" d="M711.678,-94.4352C731.104,-72.8971 768.918,-38 810,-38 810,-38 810,-38 882,-38 953.762,-38 1043.16,-40.907 1045.93,-40.9978"/>
</g>
<!-- R_1 -->
<g id="node5" class="node"><title>R_1</title>
<polygon fill="none" stroke="black" points="538,-114 524,-114 524,-100 538,-100 538,-114"/>
</g>
<!-- R_1_intermediate_p -->
<g id="node7" class="node"><title>R_1_intermediate_p</title>
<ellipse fill="black" stroke="black" cx="601" cy="-108" rx="0.036" ry="0.036"/>
</g>
<!-- R_1&#45;&gt;R_1_intermediate_p -->
<g id="edge2" class="edge"><title>R_1&#45;&gt;R_1_intermediate_p</title>
<path fill="none" stroke="black" d="M538.275,-107.092C554.583,-107.332 597.222,-107.959 599.871,-107.998"/>
</g>
<!-- R_1_empty -->
<g id="node6" class="node"><title>R_1_empty</title>
<text text-anchor="middle" x="461" y="-103.5" font-family="Times,serif" font-size="15.00" fill="blue">Ø</text>
</g>
<!-- R_1_empty&#45;&gt;R_1 -->
<g id="edge1" class="edge"><title>R_1_empty&#45;&gt;R_1</title>
<path fill="none" stroke="black" d="M488.096,-107C501.13,-107 515.805,-107 523.868,-107"/>
</g>
<!-- R_1_intermediate_p&#45;&gt;solution3 -->
<g id="edge3" class="edge"><title>R_1_intermediate_p&#45;&gt;solution3</title>
<path fill="none" stroke="black" d="M602.068,-108.002C603.566,-108.05 629.512,-108.878 653.754,-109.652"/>
<polygon fill="black" stroke="black" points="653.856,-113.157 663.963,-109.978 654.079,-106.16 653.856,-113.157"/>
</g>
<!-- R_2 -->
<g id="node8" class="node"><title>R_2</title>
<polygon fill="none" stroke="black" points="538,-146 524,-146 524,-132 538,-132 538,-146"/>
</g>
<!-- R_2_intermediate_p -->
<g id="node10" class="node"><title>R_2_intermediate_p</title>
<ellipse fill="black" stroke="black" cx="601" cy="-139" rx="0.036" ry="0.036"/>
</g>
<!-- R_2&#45;&gt;R_2_intermediate_p -->
<g id="edge6" class="edge"><title>R_2&#45;&gt;R_2_intermediate_p</title>
<path fill="none" stroke="black" d="M538.275,-139C554.583,-139 597.222,-139 599.871,-139"/>
</g>
<!-- R_2_intermediate_r&#45;&gt;R_2 -->
<g id="edge4" class="edge"><title>R_2_intermediate_r&#45;&gt;R_2</title>
<path fill="none" stroke="black" d="M462.049,-142.997C463.722,-142.899 507.535,-140.321 523.906,-139.358"/>
</g>
<!-- R_2_intermediate_p&#45;&gt;solution2 -->
<g id="edge7" class="edge"><title>R_2_intermediate_p&#45;&gt;solution2</title>
<path fill="none" stroke="black" d="M599.902,-139.036C597.895,-139.767 565.349,-151.528 538,-155 493.327,-160.671 441.761,-155.533 406.831,-150.332"/>
<polygon fill="black" stroke="black" points="406.971,-146.811 396.55,-148.727 405.891,-153.727 406.971,-146.811"/>
</g>
<!-- R_2_intermediate_p&#45;&gt;solution3 -->
<g id="edge8" class="edge"><title>R_2_intermediate_p&#45;&gt;solution3</title>
<path fill="none" stroke="black" d="M602.068,-138.98C603.653,-138.508 632.608,-129.883 657.954,-122.333"/>
<polygon fill="black" stroke="black" points="659.2,-125.614 667.785,-119.404 657.202,-118.905 659.2,-125.614"/>
</g>
<!-- R_3 -->
<g id="node11" class="node"><title>R_3</title>
<polygon fill="none" stroke="black" points="818,-118 804,-118 804,-104 818,-104 818,-118"/>
</g>
<!-- R_3_empty -->
<g id="node13" class="node"><title>R_3_empty</title>
<text text-anchor="middle" x="881" y="-118.5" font-family="Times,serif" font-size="15.00" fill="blue">Ø</text>
</g>
<!-- R_3&#45;&gt;R_3_empty -->
<g id="edge11" class="edge"><title>R_3&#45;&gt;R_3_empty</title>
<path fill="none" stroke="black" d="M818.275,-112.015C824.342,-112.996 834.051,-114.567 843.99,-116.175"/>
<polygon fill="black" stroke="black" points="843.449,-119.633 853.88,-117.775 844.567,-112.723 843.449,-119.633"/>
</g>
<!-- R_3_intermediate_r&#45;&gt;R_3 -->
<g id="edge9" class="edge"><title>R_3_intermediate_r&#45;&gt;R_3</title>
<path fill="none" stroke="black" d="M768.12,-111C769.968,-111 792.602,-111 803.803,-111"/>
</g>
<!-- R_4 -->
<g id="node14" class="node"><title>R_4</title>
<polygon fill="none" stroke="black" points="206,-188 192,-188 192,-174 206,-174 206,-188"/>
</g>
<!-- R_4_intermediate_p -->
<g id="node16" class="node"><title>R_4_intermediate_p</title>
<ellipse fill="black" stroke="black" cx="269" cy="-171" rx="0.036" ry="0.036"/>
</g>
<!-- R_4&#45;&gt;R_4_intermediate_p -->
<g id="edge13" class="edge"><title>R_4&#45;&gt;R_4_intermediate_p</title>
<path fill="none" stroke="black" d="M206.275,-180.077C222.583,-177.679 265.222,-171.409 267.871,-171.019"/>
</g>
<!-- R_4_empty -->
<g id="node15" class="node"><title>R_4_empty</title>
<text text-anchor="middle" x="129" y="-184.5" font-family="Times,serif" font-size="15.00" fill="blue">Ø</text>
</g>
<!-- R_4_empty&#45;&gt;R_4 -->
<g id="edge12" class="edge"><title>R_4_empty&#45;&gt;R_4</title>
<path fill="none" stroke="black" d="M156.096,-185.314C169.13,-183.972 183.805,-182.461 191.868,-181.631"/>
</g>
<!-- R_4_intermediate_p&#45;&gt;solution2 -->
<g id="edge14" class="edge"><title>R_4_intermediate_p&#45;&gt;solution2</title>
<path fill="none" stroke="black" d="M270.068,-170.98C271.653,-170.508 300.608,-161.883 325.954,-154.333"/>
<polygon fill="black" stroke="black" points="327.2,-157.614 335.785,-151.404 325.202,-150.905 327.2,-157.614"/>
</g>
<!-- R_5 -->
<g id="node17" class="node"><title>R_5</title>
<polygon fill="none" stroke="black" points="206,-114 192,-114 192,-100 206,-100 206,-114"/>
</g>
<!-- R_5_intermediate_p -->
<g id="node19" class="node"><title>R_5_intermediate_p</title>
<ellipse fill="black" stroke="black" cx="269" cy="-142" rx="0.036" ry="0.036"/>
</g>
<!-- R_5&#45;&gt;R_5_intermediate_p -->
<g id="edge17" class="edge"><title>R_5&#45;&gt;R_5_intermediate_p</title>
<path fill="none" stroke="black" d="M206.275,-110.23C222.583,-118.624 265.222,-140.57 267.871,-141.933"/>
</g>
<!-- R_5_intermediate_r&#45;&gt;R_5 -->
<g id="edge15" class="edge"><title>R_5_intermediate_r&#45;&gt;R_5</title>
<path fill="none" stroke="black" d="M130.049,-109.998C131.722,-109.924 175.535,-107.991 191.906,-107.269"/>
</g>
<!-- R_5_intermediate_p&#45;&gt;solution0 -->
<g id="edge18" class="edge"><title>R_5_intermediate_p&#45;&gt;solution0</title>
<path fill="none" stroke="black" d="M267.928,-141.991C264.929,-141.636 168.426,-130.487 102,-161 82.9289,-169.76 65.6423,-185.943 53.2708,-199.714"/>
<polygon fill="black" stroke="black" points="50.4622,-197.611 46.5783,-207.468 55.7616,-202.185 50.4622,-197.611"/>
</g>
<!-- R_5_intermediate_p&#45;&gt;solution2 -->
<g id="edge19" class="edge"><title>R_5_intermediate_p&#45;&gt;solution2</title>
<path fill="none" stroke="black" d="M270.068,-142.001C271.566,-142.017 297.512,-142.293 321.754,-142.551"/>
<polygon fill="black" stroke="black" points="321.926,-146.053 331.963,-142.659 322.001,-139.053 321.926,-146.053"/>
</g>
<!-- R_6 -->
<g id="node20" class="node"><title>R_6</title>
<polygon fill="none" stroke="black" points="538,-78 524,-78 524,-64 538,-64 538,-78"/>
</g>
<!-- R_6_empty -->
<g id="node22" class="node"><title>R_6_empty</title>
<text text-anchor="middle" x="601" y="-67.5" font-family="Times,serif" font-size="15.00" fill="blue">Ø</text>
</g>
<!-- R_6&#45;&gt;R_6_empty -->
<g id="edge22" class="edge"><title>R_6&#45;&gt;R_6_empty</title>
<path fill="none" stroke="black" d="M538.275,-71C544.278,-71 553.849,-71 563.68,-71"/>
<polygon fill="black" stroke="black" points="563.88,-74.5001 573.88,-71 563.88,-67.5001 563.88,-74.5001"/>
</g>
<!-- R_6_intermediate_r&#45;&gt;R_6 -->
<g id="edge20" class="edge"><title>R_6_intermediate_r&#45;&gt;R_6</title>
<path fill="none" stroke="black" d="M462.049,-71C463.722,-71 507.535,-71 523.906,-71"/>
</g>
<!-- R_7 -->
<g id="node23" class="node"><title>R_7</title>
<polygon fill="none" stroke="black" points="206,-224 192,-224 192,-210 206,-210 206,-224"/>
</g>
<!-- R_7_intermediate_p -->
<g id="node25" class="node"><title>R_7_intermediate_p</title>
<ellipse fill="black" stroke="black" cx="269" cy="-217" rx="0.036" ry="0.036"/>
</g>
<!-- R_7&#45;&gt;R_7_intermediate_p -->
<g id="edge25" class="edge"><title>R_7&#45;&gt;R_7_intermediate_p</title>
<path fill="none" stroke="black" d="M206.275,-217C222.583,-217 265.222,-217 267.871,-217"/>
</g>
<!-- R_7_intermediate_r&#45;&gt;R_7 -->
<g id="edge23" class="edge"><title>R_7_intermediate_r&#45;&gt;R_7</title>
<path fill="none" stroke="black" d="M130.049,-223.995C131.722,-223.823 175.535,-219.313 191.906,-217.627"/>
</g>
<!-- R_7_intermediate_p&#45;&gt;solution0 -->
<g id="edge26" class="edge"><title>R_7_intermediate_p&#45;&gt;solution0</title>
<path fill="none" stroke="black" d="M267.902,-217.036C265.895,-217.767 233.349,-229.528 206,-233 161.509,-238.648 110.111,-234.589 75.1713,-230.258"/>
<polygon fill="black" stroke="black" points="75.2509,-226.739 64.8821,-228.916 74.3453,-233.68 75.2509,-226.739"/>
</g>
<!-- R_7_intermediate_p&#45;&gt;solution1 -->
<g id="edge27" class="edge"><title>R_7_intermediate_p&#45;&gt;solution1</title>
<path fill="none" stroke="black" d="M270.077,-216.999C273.293,-216.969 376.874,-216 460,-216 460,-216 460,-216 812,-216 856.457,-216 906.23,-203.547 939.158,-193.497"/>
<polygon fill="black" stroke="black" points="940.316,-196.802 948.812,-190.472 938.223,-190.122 940.316,-196.802"/>
</g>
<!-- R_8 -->
<g id="node26" class="node"><title>R_8</title>
<polygon fill="none" stroke="black" points="818,-188 804,-188 804,-174 818,-174 818,-188"/>
</g>
<!-- R_8_intermediate_p -->
<g id="node28" class="node"><title>R_8_intermediate_p</title>
<ellipse fill="black" stroke="black" cx="881" cy="-181" rx="0.036" ry="0.036"/>
</g>
<!-- R_8&#45;&gt;R_8_intermediate_p -->
<g id="edge30" class="edge"><title>R_8&#45;&gt;R_8_intermediate_p</title>
<path fill="none" stroke="black" d="M818.275,-181C834.583,-181 877.222,-181 879.871,-181"/>
</g>
<!-- R_8_intermediate_r&#45;&gt;R_8 -->
<g id="edge28" class="edge"><title>R_8_intermediate_r&#45;&gt;R_8</title>
<path fill="none" stroke="black" d="M768.12,-178.009C769.968,-178.141 792.602,-179.757 803.803,-180.557"/>
</g>
<!-- R_8_intermediate_p&#45;&gt;solution1 -->
<g id="edge31" class="edge"><title>R_8_intermediate_p&#45;&gt;solution1</title>
<path fill="none" stroke="black" d="M882.068,-181C883.566,-181 909.512,-181 933.754,-181"/>
<polygon fill="black" stroke="black" points="933.963,-184.5 943.963,-181 933.963,-177.5 933.963,-184.5"/>
</g>
<!-- R_8_intermediate_p&#45;&gt;solution3 -->
<g id="edge32" class="edge"><title>R_8_intermediate_p&#45;&gt;solution3</title>
<path fill="none" stroke="black" d="M879.924,-180.971C876.924,-179.817 786.21,-144.927 734.038,-124.861"/>
<polygon fill="black" stroke="black" points="735.054,-121.502 724.464,-121.179 732.541,-128.035 735.054,-121.502"/>
</g>
<!-- R_9 -->
<g id="node29" class="node"><title>R_9</title>
<polygon fill="none" stroke="black" points="1098,-156 1084,-156 1084,-142 1098,-142 1098,-156"/>
</g>
<!-- R_9_empty -->
<g id="node31" class="node"><title>R_9_empty</title>
<text text-anchor="middle" x="1161" y="-145.5" font-family="Times,serif" font-size="15.00" fill="blue">Ø</text>
</g>
<!-- R_9&#45;&gt;R_9_empty -->
<g id="edge35" class="edge"><title>R_9&#45;&gt;R_9_empty</title>
<path fill="none" stroke="black" d="M1098.28,-149C1104.28,-149 1113.85,-149 1123.68,-149"/>
<polygon fill="black" stroke="black" points="1123.88,-152.5 1133.88,-149 1123.88,-145.5 1123.88,-152.5"/>
</g>
<!-- R_9_intermediate_r&#45;&gt;R_9 -->
<g id="edge33" class="edge"><title>R_9_intermediate_r&#45;&gt;R_9</title>
<path fill="none" stroke="black" d="M1048.12,-155.98C1049.97,-155.672 1072.6,-151.9 1083.8,-150.033"/>
</g>
<!-- R_10 -->
<g id="node32" class="node"><title>R_10</title>
<polygon fill="none" stroke="black" points="1098,-188 1084,-188 1084,-174 1098,-174 1098,-188"/>
</g>
<!-- R_10_intermediate_p -->
<g id="node34" class="node"><title>R_10_intermediate_p</title>
<ellipse fill="black" stroke="black" cx="1161" cy="-216" rx="0.036" ry="0.036"/>
</g>
<!-- R_10&#45;&gt;R_10_intermediate_p -->
<g id="edge38" class="edge"><title>R_10&#45;&gt;R_10_intermediate_p</title>
<path fill="none" stroke="black" d="M1098.28,-184.23C1114.58,-192.624 1157.22,-214.57 1159.87,-215.933"/>
</g>
<!-- R_10_intermediate_r&#45;&gt;R_10 -->
<g id="edge36" class="edge"><title>R_10_intermediate_r&#45;&gt;R_10</title>
<path fill="none" stroke="black" d="M1048.12,-181C1049.97,-181 1072.6,-181 1083.8,-181"/>
</g>
<!-- R_10_intermediate_p&#45;&gt;solution0 -->
<g id="edge39" class="edge"><title>R_10_intermediate_p&#45;&gt;solution0</title>
<path fill="none" stroke="black" d="M1159.89,-216.054C1155.31,-218.294 1007.86,-290 882,-290 198,-290 198,-290 198,-290 147.719,-290 94.6283,-262.97 62.9162,-243.506"/>
<polygon fill="black" stroke="black" points="64.4996,-240.367 54.1733,-237.997 60.7676,-246.289 64.4996,-240.367"/>
</g>
<!-- R_10_intermediate_p&#45;&gt;solution1 -->
<g id="edge40" class="edge"><title>R_10_intermediate_p&#45;&gt;solution1</title>
<path fill="none" stroke="black" d="M1159.93,-215.986C1157.08,-215.439 1071.27,-198.937 1018.54,-188.795"/>
<polygon fill="black" stroke="black" points="1018.94,-185.31 1008.46,-186.858 1017.62,-192.184 1018.94,-185.31"/>
</g>
<!-- R_11 -->
<g id="node35" class="node"><title>R_11</title>
<polygon fill="none" stroke="black" points="1098,-334 1084,-334 1084,-320 1098,-320 1098,-334"/>
</g>
<!-- R_11_intermediate_p -->
<g id="node37" class="node"><title>R_11_intermediate_p</title>
<ellipse fill="black" stroke="black" cx="1161" cy="-327" rx="0.036" ry="0.036"/>
</g>
<!-- R_11&#45;&gt;R_11_intermediate_p -->
<g id="edge44" class="edge"><title>R_11&#45;&gt;R_11_intermediate_p</title>
<path fill="none" stroke="black" d="M1098.28,-327C1114.58,-327 1157.22,-327 1159.87,-327"/>
</g>
<!-- R_11_intermediate_r&#45;&gt;R_11 -->
<g id="edge41" class="edge"><title>R_11_intermediate_r&#45;&gt;R_11</title>
<path fill="none" stroke="black" d="M1048.12,-327C1049.97,-327 1072.6,-327 1083.8,-327"/>
</g>
<!-- R_11_intermediate_p&#45;&gt;solution0 -->
<g id="edge45" class="edge"><title>R_11_intermediate_p&#45;&gt;solution0</title>
<path fill="none" stroke="black" d="M1159.96,-327.028C1158.15,-328.209 1099.89,-366 1048,-366 198,-366 198,-366 198,-366 152.274,-366 137.498,-357.823 102,-329 76.0675,-307.944 56.7497,-274.287 45.4593,-250.771"/>
<polygon fill="black" stroke="black" points="48.6315,-249.292 41.2534,-241.688 42.2794,-252.233 48.6315,-249.292"/>
</g>
<!-- R_11_intermediate_p&#45;&gt;solution1 -->
<g id="edge46" class="edge"><title>R_11_intermediate_p&#45;&gt;solution1</title>
<path fill="none" stroke="black" d="M1159.91,-326.932C1156.55,-324.23 1054.18,-242.108 1004.51,-202.269"/>
<polygon fill="black" stroke="black" points="1006.44,-199.33 996.453,-195.803 1002.06,-204.79 1006.44,-199.33"/>
</g>
<!-- R_12 -->
<g id="node38" class="node"><title>R_12</title>
<polygon fill="none" stroke="black" points="1098,-48 1084,-48 1084,-34 1098,-34 1098,-48"/>
</g>
<!-- R_12_intermediate_p -->
<g id="node40" class="node"><title>R_12_intermediate_p</title>
<ellipse fill="black" stroke="black" cx="1161" cy="-58" rx="0.036" ry="0.036"/>
</g>
<!-- R_12&#45;&gt;R_12_intermediate_p -->
<g id="edge50" class="edge"><title>R_12&#45;&gt;R_12_intermediate_p</title>
<path fill="none" stroke="black" d="M1098.28,-42.5688C1114.58,-46.6458 1157.22,-57.3054 1159.87,-57.9677"/>
</g>
<!-- R_12_intermediate_r&#45;&gt;R_12 -->
<g id="edge47" class="edge"><title>R_12_intermediate_r&#45;&gt;R_12</title>
<path fill="none" stroke="black" d="M1048.12,-41C1049.97,-41 1072.6,-41 1083.8,-41"/>
</g>
<!-- R_12_intermediate_p&#45;&gt;solution0 -->
<g id="edge51" class="edge"><title>R_12_intermediate_p&#45;&gt;solution0</title>
<path fill="none" stroke="black" d="M1159.84,-57.8336C1156.5,-54.4316 1102.3,-0 1048,-0 198,-0 198,-0 198,-0 101.836,-0 55.9497,-136.064 40.3833,-196.102"/>
<polygon fill="black" stroke="black" points="36.9267,-195.498 37.903,-206.048 43.7187,-197.192 36.9267,-195.498"/>
</g>
<!-- R_12_intermediate_p&#45;&gt;solution1 -->
<g id="edge52" class="edge"><title>R_12_intermediate_p&#45;&gt;solution1</title>
<path fill="none" stroke="black" d="M1159.92,-58.0559C1156.65,-60.2617 1057.62,-127.194 1007.07,-161.352"/>
<polygon fill="black" stroke="black" points="1004.85,-158.63 998.524,-167.129 1008.77,-164.43 1004.85,-158.63"/>
</g>
<!-- R_12_intermediate_p&#45;&gt;solution3 -->
<g id="edge53" class="edge"><title>R_12_intermediate_p&#45;&gt;solution3</title>
<path fill="none" stroke="black" d="M1159.96,-58.013C1158.08,-58.5581 1097.63,-76 1048,-76 810,-76 810,-76 810,-76 782.494,-76 752.847,-85.736 730.969,-94.9381"/>
<polygon fill="black" stroke="black" points="729.555,-91.7367 721.799,-98.955 732.363,-98.1485 729.555,-91.7367"/>
</g>
<!-- R_13 -->
<g id="node41" class="node"><title>R_13</title>
<polygon fill="none" stroke="black" points="206,-82 192,-82 192,-68 206,-68 206,-82"/>
</g>
<!-- R_13_empty -->
<g id="node43" class="node"><title>R_13_empty</title>
<text text-anchor="middle" x="269" y="-71.5" font-family="Times,serif" font-size="15.00" fill="blue">Ø</text>
</g>
<!-- R_13&#45;&gt;R_13_empty -->
<g id="edge56" class="edge"><title>R_13&#45;&gt;R_13_empty</title>
<path fill="none" stroke="black" d="M206.275,-75C212.278,-75 221.849,-75 231.68,-75"/>
<polygon fill="black" stroke="black" points="231.88,-78.5001 241.88,-75 231.88,-71.5001 231.88,-78.5001"/>
</g>
<!-- R_13_intermediate_r&#45;&gt;R_13 -->
<g id="edge54" class="edge"><title>R_13_intermediate_r&#45;&gt;R_13</title>
<path fill="none" stroke="black" d="M130.049,-84.9928C131.722,-84.7467 175.535,-78.3037 191.906,-75.8962"/>
</g>
</g>
</svg>
