<?xml version="1.0" encoding="UTF-8" standalone="no"?>
<!DOCTYPE svg PUBLIC "-//W3C//DTD SVG 1.1//EN"
 "http://www.w3.org/Graphics/SVG/1.1/DTD/svg11.dtd">
<!-- Generated by graphviz version 2.24.0 (20090616.2323)
 -->
<!-- Title: G Pages: 1 -->
<svg width="1010pt" height="203pt"
 viewBox="0.00 0.00 1010.00 203.00" xmlns="http://www.w3.org/2000/svg" xmlns:xlink="http://www.w3.org/1999/xlink">
<g id="graph1" class="graph" transform="scale(1 1) rotate(0) translate(4 199)">
<title>G</title>
<polygon fill="white" stroke="white" points="-4,5 -4,-199 1007,-199 1007,5 -4,5"/>
<!-- T -->
<g id="node1" class="node"><title>T</title>
<ellipse fill="none" stroke="black" cx="257" cy="-153" rx="27" ry="18"/>
<text text-anchor="middle" x="257" y="-150.5" font-family="Times Roman,serif" font-size="10.00">T</text>
</g>
<!-- T_cell_loss_intermediate_r -->
<g id="node12" class="node"><title>T_cell_loss_intermediate_r</title>
<ellipse fill="black" stroke="black" cx="321" cy="-169" rx="0.036" ry="0.036"/>
</g>
<!-- T&#45;&gt;T_cell_loss_intermediate_r -->
<g id="edge10" class="edge"><title>T&#45;&gt;T_cell_loss_intermediate_r</title>
<path fill="none" stroke="black" d="M282.294,-159.324C299.625,-163.656 319.702,-168.675 320.94,-168.985"/>
</g>
<!-- infection_intermediate_r -->
<g id="node18" class="node"><title>infection_intermediate_r</title>
<ellipse fill="black" stroke="black" cx="321" cy="-144" rx="0.036" ry="0.036"/>
</g>
<!-- T&#45;&gt;infection_intermediate_r -->
<g id="edge16" class="edge"><title>T&#45;&gt;infection_intermediate_r</title>
<path fill="none" stroke="black" d="M283.771,-149.235C300.761,-146.846 319.771,-144.173 320.943,-144.008"/>
</g>
<!-- T_i -->
<g id="node2" class="node"><title>T_i</title>
<ellipse fill="none" stroke="black" cx="565" cy="-146" rx="27" ry="18"/>
<text text-anchor="middle" x="565" y="-143.5" font-family="Times Roman,serif" font-size="10.00">T*</text>
</g>
<!-- T_i_lysis_intermediate_r -->
<g id="node28" class="node"><title>T_i_lysis_intermediate_r</title>
<ellipse fill="black" stroke="black" cx="655" cy="-146" rx="0.036" ry="0.036"/>
</g>
<!-- T_i&#45;&gt;T_i_lysis_intermediate_r -->
<g id="edge28" class="edge"><title>T_i&#45;&gt;T_i_lysis_intermediate_r</title>
<path fill="none" stroke="black" d="M592.003,-146C617.685,-146 652.729,-146 654.895,-146"/>
</g>
<!-- T_lysis_infect_intermediate_m -->
<g id="node39" class="node"><title>T_lysis_infect_intermediate_m</title>
<ellipse fill="black" stroke="black" cx="655" cy="-123" rx="0.036" ry="0.036"/>
</g>
<!-- T_i&#45;&gt;T_lysis_infect_intermediate_m -->
<g id="edge40" class="edge"><title>T_i&#45;&gt;T_lysis_infect_intermediate_m</title>
<path fill="none" stroke="black" d="M590.55,-139.471C616.326,-132.883 652.646,-123.602 654.891,-123.028"/>
</g>
<!-- T_lysis_noninf_intermediate_m -->
<g id="node48" class="node"><title>T_lysis_noninf_intermediate_m</title>
<ellipse fill="black" stroke="black" cx="655" cy="-95" rx="0.036" ry="0.036"/>
</g>
<!-- T_i&#45;&gt;T_lysis_noninf_intermediate_m -->
<g id="edge50" class="edge"><title>T_i&#45;&gt;T_lysis_noninf_intermediate_m</title>
<path fill="none" stroke="black" d="M585.874,-134.171C611.63,-119.576 652.357,-96.4978 654.877,-95.0696"/>
</g>
<!-- V_I -->
<g id="node3" class="node"><title>V_I</title>
<ellipse fill="none" stroke="black" cx="385" cy="-54" rx="27" ry="18"/>
<text text-anchor="middle" x="385" y="-51.5" font-family="Times Roman,serif" font-size="10.00">V_I</text>
</g>
<!-- infection_intermediate_m -->
<g id="node24" class="node"><title>infection_intermediate_m</title>
<ellipse fill="black" stroke="black" cx="475" cy="-72" rx="0.036" ry="0.036"/>
</g>
<!-- V_I&#45;&gt;infection_intermediate_m -->
<g id="edge24" class="edge"><title>V_I&#45;&gt;infection_intermediate_m</title>
<path fill="none" stroke="black" d="M411.032,-59.2063C436.782,-64.3563 472.674,-71.5348 474.892,-71.9784"/>
</g>
<!-- V_I_clearance_intermediate_r -->
<g id="node52" class="node"><title>V_I_clearance_intermediate_r</title>
<ellipse fill="black" stroke="black" cx="475" cy="-54" rx="0.036" ry="0.036"/>
</g>
<!-- V_I&#45;&gt;V_I_clearance_intermediate_r -->
<g id="edge54" class="edge"><title>V_I&#45;&gt;V_I_clearance_intermediate_r</title>
<path fill="none" stroke="black" d="M422.311,-54C446.173,-54 473.008,-54 474.895,-54"/>
<polygon fill="black" stroke="black" points="422.003,-50.5001 412.003,-54 422.003,-57.5001 422.003,-50.5001"/>
</g>
<!-- V_NI -->
<g id="node4" class="node"><title>V_NI</title>
<ellipse fill="none" stroke="black" cx="745" cy="-18" rx="27" ry="18"/>
<text text-anchor="middle" x="745" y="-15.5" font-family="Times Roman,serif" font-size="10.00">V_NI</text>
</g>
<!-- V_NI_clearance_intermediate_r -->
<g id="node58" class="node"><title>V_NI_clearance_intermediate_r</title>
<ellipse fill="black" stroke="black" cx="835" cy="-18" rx="0.036" ry="0.036"/>
</g>
<!-- V_NI&#45;&gt;V_NI_clearance_intermediate_r -->
<g id="edge60" class="edge"><title>V_NI&#45;&gt;V_NI_clearance_intermediate_r</title>
<path fill="none" stroke="black" d="M772.003,-18C797.685,-18 832.729,-18 834.895,-18"/>
</g>
<!-- T_cell_source -->
<g id="node5" class="node"><title>T_cell_source</title>
<polygon fill="none" stroke="black" points="104,-160 90,-160 90,-146 104,-146 104,-160"/>
</g>
<!-- T_cell_source_intermediate_p -->
<g id="node8" class="node"><title>T_cell_source_intermediate_p</title>
<ellipse fill="black" stroke="black" cx="167" cy="-153" rx="0.036" ry="0.036"/>
</g>
<!-- T_cell_source&#45;&gt;T_cell_source_intermediate_p -->
<g id="edge4" class="edge"><title>T_cell_source&#45;&gt;T_cell_source_intermediate_p</title>
<path fill="none" stroke="black" d="M104.228,-153C121.554,-153 164.221,-153 166.871,-153"/>
</g>
<!-- T_cell_source_empty -->
<g id="node6" class="node"><title>T_cell_source_empty</title>
<text text-anchor="middle" x="27" y="-148.5" font-family="Times Roman,serif" font-size="15.00" fill="blue">Ø</text>
</g>
<!-- T_cell_source_empty&#45;&gt;T_cell_source -->
<g id="edge2" class="edge"><title>T_cell_source_empty&#45;&gt;T_cell_source</title>
<path fill="none" stroke="black" d="M54.2643,-153C67.1627,-153 81.5367,-153 89.8947,-153"/>
</g>
<!-- T_cell_source_intermediate_p&#45;&gt;T -->
<g id="edge6" class="edge"><title>T_cell_source_intermediate_p&#45;&gt;T</title>
<path fill="none" stroke="black" d="M167.065,-153C168.565,-153 195.648,-153 219.704,-153"/>
<polygon fill="black" stroke="black" points="219.745,-156.5 229.745,-153 219.745,-149.5 219.745,-156.5"/>
</g>
<!-- T_cell_loss -->
<g id="node11" class="node"><title>T_cell_loss</title>
<polygon fill="none" stroke="black" points="392,-182 378,-182 378,-168 392,-168 392,-182"/>
</g>
<!-- T_cell_loss_empty -->
<g id="node15" class="node"><title>T_cell_loss_empty</title>
<text text-anchor="middle" x="475" y="-172.5" font-family="Times Roman,serif" font-size="15.00" fill="blue">Ø</text>
</g>
<!-- T_cell_loss&#45;&gt;T_cell_loss_empty -->
<g id="edge12" class="edge"><title>T_cell_loss&#45;&gt;T_cell_loss_empty</title>
<path fill="none" stroke="black" d="M392.062,-175.157C401.877,-175.375 420.359,-175.786 437.389,-176.164"/>
<polygon fill="black" stroke="black" points="437.639,-179.671 447.715,-176.394 437.795,-172.672 437.639,-179.671"/>
</g>
<!-- T_cell_loss_intermediate_r&#45;&gt;T_cell_loss -->
<g id="edge8" class="edge"><title>T_cell_loss_intermediate_r&#45;&gt;T_cell_loss</title>
<path fill="none" stroke="black" d="M321.046,-169.004C322.576,-169.148 361.51,-172.798 377.868,-174.331"/>
</g>
<!-- infection -->
<g id="node17" class="node"><title>infection</title>
<polygon fill="none" stroke="black" points="392,-148 378,-148 378,-134 392,-134 392,-148"/>
</g>
<!-- infection_intermediate_p -->
<g id="node21" class="node"><title>infection_intermediate_p</title>
<ellipse fill="black" stroke="black" cx="475" cy="-141" rx="0.036" ry="0.036"/>
</g>
<!-- infection&#45;&gt;infection_intermediate_p -->
<g id="edge18" class="edge"><title>infection&#45;&gt;infection_intermediate_p</title>
<path fill="none" stroke="black" d="M392.062,-141C412.947,-141 473.081,-141 474.955,-141"/>
</g>
<!-- infection&#45;&gt;infection_intermediate_m -->
<g id="edge22" class="edge"><title>infection&#45;&gt;infection_intermediate_m</title>
<path fill="none" stroke="black" d="M401.887,-128.054C427.482,-108.43 473.323,-73.2859 474.955,-72.0344"/>
<polygon fill="none" stroke="black" points="401.585,-128.284 399.258,-135.11 392.062,-135.586 394.39,-128.761 401.585,-128.284"/>
</g>
<!-- infection_intermediate_r&#45;&gt;infection -->
<g id="edge14" class="edge"><title>infection_intermediate_r&#45;&gt;infection</title>
<path fill="none" stroke="black" d="M321.046,-143.998C322.576,-143.926 361.51,-142.101 377.868,-141.334"/>
</g>
<!-- infection_intermediate_p&#45;&gt;T_i -->
<g id="edge20" class="edge"><title>infection_intermediate_p&#45;&gt;T_i</title>
<path fill="none" stroke="black" d="M475.065,-141.004C476.565,-141.087 503.648,-142.592 527.704,-143.928"/>
<polygon fill="black" stroke="black" points="527.566,-147.426 537.745,-144.486 527.955,-140.436 527.566,-147.426"/>
</g>
<!-- T_i_lysis -->
<g id="node27" class="node"><title>T_i_lysis</title>
<polygon fill="none" stroke="black" points="752,-153 738,-153 738,-139 752,-139 752,-153"/>
</g>
<!-- T_i_lysis_empty -->
<g id="node31" class="node"><title>T_i_lysis_empty</title>
<text text-anchor="middle" x="835" y="-141.5" font-family="Times Roman,serif" font-size="15.00" fill="blue">Ø</text>
</g>
<!-- T_i_lysis&#45;&gt;T_i_lysis_empty -->
<g id="edge30" class="edge"><title>T_i_lysis&#45;&gt;T_i_lysis_empty</title>
<path fill="none" stroke="black" d="M752.062,-146C761.877,-146 780.359,-146 797.389,-146"/>
<polygon fill="black" stroke="black" points="797.715,-149.5 807.715,-146 797.715,-142.5 797.715,-149.5"/>
</g>
<!-- T_i_lysis_intermediate_r&#45;&gt;T_i_lysis -->
<g id="edge26" class="edge"><title>T_i_lysis_intermediate_r&#45;&gt;T_i_lysis</title>
<path fill="none" stroke="black" d="M655.065,-146C657.311,-146 716.951,-146 737.848,-146"/>
</g>
<!-- T_lysis_infect -->
<g id="node33" class="node"><title>T_lysis_infect</title>
<polygon fill="none" stroke="black" points="264,-89 250,-89 250,-75 264,-75 264,-89"/>
</g>
<!-- T_lysis_infect_intermediate_p -->
<g id="node36" class="node"><title>T_lysis_infect_intermediate_p</title>
<ellipse fill="black" stroke="black" cx="321" cy="-63" rx="0.036" ry="0.036"/>
</g>
<!-- T_lysis_infect&#45;&gt;T_lysis_infect_intermediate_p -->
<g id="edge34" class="edge"><title>T_lysis_infect&#45;&gt;T_lysis_infect_intermediate_p</title>
<path fill="none" stroke="black" d="M264.342,-79.8205C280.627,-74.9857 318.532,-63.7327 320.885,-63.0341"/>
</g>
<!-- T_lysis_infect&#45;&gt;T_lysis_infect_intermediate_m -->
<g id="edge38" class="edge"><title>T_lysis_infect&#45;&gt;T_lysis_infect_intermediate_m</title>
<path fill="none" stroke="black" d="M276.032,-86.3713C300.932,-91.699 345.987,-100 385,-100 385,-100 385,-100 475,-100 554.39,-100 651.9,-122.287 654.928,-122.983"/>
<polygon fill="none" stroke="black" points="275.88,-86.3375 269.153,-88.9358 264.168,-83.7259 270.894,-81.1276 275.88,-86.3375"/>
</g>
<!-- T_lysis_infect_empty -->
<g id="node34" class="node"><title>T_lysis_infect_empty</title>
<text text-anchor="middle" x="167" y="-77.5" font-family="Times Roman,serif" font-size="15.00" fill="blue">Ø</text>
</g>
<!-- T_lysis_infect_empty&#45;&gt;T_lysis_infect -->
<g id="edge32" class="edge"><title>T_lysis_infect_empty&#45;&gt;T_lysis_infect</title>
<path fill="none" stroke="black" d="M194.003,-82C213.264,-82 237.792,-82 249.766,-82"/>
</g>
<!-- T_lysis_infect_intermediate_p&#45;&gt;V_I -->
<g id="edge36" class="edge"><title>T_lysis_infect_intermediate_p&#45;&gt;V_I</title>
<path fill="none" stroke="black" d="M321.046,-62.9935C321.905,-62.8727 334.565,-61.0924 348.397,-59.1473"/>
<polygon fill="black" stroke="black" points="349.109,-62.5817 358.524,-57.7232 348.134,-55.6499 349.109,-62.5817"/>
</g>
<!-- T_lysis_noninf -->
<g id="node42" class="node"><title>T_lysis_noninf</title>
<polygon fill="none" stroke="black" points="572,-25 558,-25 558,-11 572,-11 572,-25"/>
</g>
<!-- T_lysis_noninf_intermediate_p -->
<g id="node45" class="node"><title>T_lysis_noninf_intermediate_p</title>
<ellipse fill="black" stroke="black" cx="655" cy="-18" rx="0.036" ry="0.036"/>
</g>
<!-- T_lysis_noninf&#45;&gt;T_lysis_noninf_intermediate_p -->
<g id="edge44" class="edge"><title>T_lysis_noninf&#45;&gt;T_lysis_noninf_intermediate_p</title>
<path fill="none" stroke="black" d="M572.062,-18C592.947,-18 653.081,-18 654.955,-18"/>
</g>
<!-- T_lysis_noninf&#45;&gt;T_lysis_noninf_intermediate_m -->
<g id="edge48" class="edge"><title>T_lysis_noninf&#45;&gt;T_lysis_noninf_intermediate_m</title>
<path fill="none" stroke="black" d="M582.101,-29.7138C585.5,-32.3022 588.956,-35.1322 592,-38 610.141,-55.0925 608.558,-65.404 628,-81 638.215,-89.1938 653.977,-94.6508 654.952,-94.9838"/>
<polygon fill="none" stroke="black" points="581.776,-29.4822 574.569,-29.2547 572.007,-22.5141 579.214,-22.7416 581.776,-29.4822"/>
</g>
<!-- T_lysis_noninf_empty -->
<g id="node43" class="node"><title>T_lysis_noninf_empty</title>
<text text-anchor="middle" x="475" y="-13.5" font-family="Times Roman,serif" font-size="15.00" fill="blue">Ø</text>
</g>
<!-- T_lysis_noninf_empty&#45;&gt;T_lysis_noninf -->
<g id="edge42" class="edge"><title>T_lysis_noninf_empty&#45;&gt;T_lysis_noninf</title>
<path fill="none" stroke="black" d="M502.003,-18C521.264,-18 545.792,-18 557.766,-18"/>
</g>
<!-- T_lysis_noninf_intermediate_p&#45;&gt;V_NI -->
<g id="edge46" class="edge"><title>T_lysis_noninf_intermediate_p&#45;&gt;V_NI</title>
<path fill="none" stroke="black" d="M655.065,-18C656.565,-18 683.648,-18 707.704,-18"/>
<polygon fill="black" stroke="black" points="707.745,-21.5001 717.745,-18 707.745,-14.5001 707.745,-21.5001"/>
</g>
<!-- V_I_clearance -->
<g id="node51" class="node"><title>V_I_clearance</title>
<polygon fill="none" stroke="black" points="572,-61 558,-61 558,-47 572,-47 572,-61"/>
</g>
<!-- V_I_clearance_empty -->
<g id="node55" class="node"><title>V_I_clearance_empty</title>
<text text-anchor="middle" x="655" y="-49.5" font-family="Times Roman,serif" font-size="15.00" fill="blue">Ø</text>
</g>
<!-- V_I_clearance&#45;&gt;V_I_clearance_empty -->
<g id="edge56" class="edge"><title>V_I_clearance&#45;&gt;V_I_clearance_empty</title>
<path fill="none" stroke="black" d="M572.062,-54C581.877,-54 600.359,-54 617.389,-54"/>
<polygon fill="black" stroke="black" points="617.715,-57.5001 627.715,-54 617.715,-50.5001 617.715,-57.5001"/>
</g>
<!-- V_I_clearance_intermediate_r&#45;&gt;V_I_clearance -->
<g id="edge52" class="edge"><title>V_I_clearance_intermediate_r&#45;&gt;V_I_clearance</title>
<path fill="none" stroke="black" d="M475.065,-54C477.311,-54 536.951,-54 557.848,-54"/>
</g>
<!-- V_NI_clearance -->
<g id="node57" class="node"><title>V_NI_clearance</title>
<polygon fill="none" stroke="black" points="912,-25 898,-25 898,-11 912,-11 912,-25"/>
</g>
<!-- V_NI_clearance_empty -->
<g id="node61" class="node"><title>V_NI_clearance_empty</title>
<text text-anchor="middle" x="975" y="-13.5" font-family="Times Roman,serif" font-size="15.00" fill="blue">Ø</text>
</g>
<!-- V_NI_clearance&#45;&gt;V_NI_clearance_empty -->
<g id="edge62" class="edge"><title>V_NI_clearance&#45;&gt;V_NI_clearance_empty</title>
<path fill="none" stroke="black" d="M912.228,-18C918.45,-18 927.94,-18 937.672,-18"/>
<polygon fill="black" stroke="black" points="937.773,-21.5001 947.773,-18 937.773,-14.5001 937.773,-21.5001"/>
</g>
<!-- V_NI_clearance_intermediate_r&#45;&gt;V_NI_clearance -->
<g id="edge58" class="edge"><title>V_NI_clearance_intermediate_r&#45;&gt;V_NI_clearance</title>
<path fill="none" stroke="black" d="M835.051,-18C836.748,-18 880.582,-18 897.98,-18"/>
</g>
</g>
</svg>
