<?xml version="1.0" encoding="UTF-8" standalone="no"?>
<!DOCTYPE svg PUBLIC "-//W3C//DTD SVG 1.1//EN"
 "http://www.w3.org/Graphics/SVG/1.1/DTD/svg11.dtd">
<!-- Generated by graphviz version 2.24.0 (20090616.2323)
 -->
<!-- Title: G Pages: 1 -->
<svg width="1308pt" height="126pt"
 viewBox="0.00 0.00 1308.00 126.00" xmlns="http://www.w3.org/2000/svg" xmlns:xlink="http://www.w3.org/1999/xlink">
<g id="graph1" class="graph" transform="scale(1 1) rotate(0) translate(4 122)">
<title>G</title>
<polygon fill="white" stroke="white" points="-4,5 -4,-122 1305,-122 1305,5 -4,5"/>
<!-- s1 -->
<g id="s1" class="node"><title>s1</title>
<ellipse fill="none" stroke="black" cx="255" cy="-46" rx="43.0911" ry="18"/>
<text text-anchor="middle" x="255" y="-43.5" font-family="Times Roman,serif" font-size="10.00">HS surface</text>
</g>
<!-- k_endo_intermediate_r -->
<g id="node16" class="node"><title>k_endo_intermediate_r</title>
<ellipse fill="black" stroke="black" cx="335" cy="-71" rx="0.036" ry="0.036"/>
</g>
<!-- s1&#45;&gt;k_endo_intermediate_r -->
<g id="edge12" class="edge"><title>s1&#45;&gt;k_endo_intermediate_r</title>
<path fill="none" stroke="black" d="M289.856,-56.8926C310.741,-63.4191 333.528,-70.54 334.932,-70.9787"/>
</g>
<!-- k_shed_intermediate_r -->
<g id="node51" class="node"><title>k_shed_intermediate_r</title>
<ellipse fill="black" stroke="black" cx="335" cy="-46" rx="0.036" ry="0.036"/>
</g>
<!-- s1&#45;&gt;k_shed_intermediate_r -->
<g id="edge52" class="edge"><title>s1&#45;&gt;k_shed_intermediate_r</title>
<path fill="none" stroke="black" d="M298.278,-46C316.539,-46 333.882,-46 334.948,-46"/>
</g>
<!-- s2 -->
<g id="s2" class="node"><title>s2</title>
<ellipse fill="none" stroke="black" cx="519" cy="-100" rx="59.0964" ry="18"/>
<text text-anchor="middle" x="519" y="-97.5" font-family="Times Roman,serif" font-size="10.00">early endosome</text>
</g>
<!-- k_exo_intermediate_r -->
<g id="node23" class="node"><title>k_exo_intermediate_r</title>
<ellipse fill="black" stroke="black" cx="615" cy="-59" rx="0.036" ry="0.036"/>
</g>
<!-- s2&#45;&gt;k_exo_intermediate_r -->
<g id="edge20" class="edge"><title>s2&#45;&gt;k_exo_intermediate_r</title>
<path fill="none" stroke="black" d="M553.387,-85.3139C580.072,-73.917 612.877,-59.9066 614.901,-59.0421"/>
</g>
<!-- k_le_intermediate_r -->
<g id="node30" class="node"><title>k_le_intermediate_r</title>
<ellipse fill="black" stroke="black" cx="615" cy="-100" rx="0.036" ry="0.036"/>
</g>
<!-- s2&#45;&gt;k_le_intermediate_r -->
<g id="edge28" class="edge"><title>s2&#45;&gt;k_le_intermediate_r</title>
<path fill="none" stroke="black" d="M578.158,-100C597.297,-100 613.93,-100 614.95,-100"/>
</g>
<!-- s3 -->
<g id="s3" class="node"><title>s3</title>
<ellipse fill="none" stroke="black" cx="795" cy="-100" rx="56.1328" ry="18"/>
<text text-anchor="middle" x="795" y="-97.5" font-family="Times Roman,serif" font-size="10.00">late endosome</text>
</g>
<!-- k_lys_intermediate_r -->
<g id="node37" class="node"><title>k_lys_intermediate_r</title>
<ellipse fill="black" stroke="black" cx="888" cy="-100" rx="0.036" ry="0.036"/>
</g>
<!-- s3&#45;&gt;k_lys_intermediate_r -->
<g id="edge36" class="edge"><title>s3&#45;&gt;k_lys_intermediate_r</title>
<path fill="none" stroke="black" d="M851.511,-100C870.376,-100 886.934,-100 887.951,-100"/>
</g>
<!-- s5 -->
<g id="s5" class="node"><title>s5</title>
<ellipse fill="none" stroke="black" cx="1273" cy="-100" rx="27" ry="18"/>
<text text-anchor="middle" x="1273" y="-97.5" font-family="Times Roman,serif" font-size="10.00">s5</text>
</g>
<!-- s6 -->
<g id="s6" class="node"><title>s6</title>
<ellipse fill="none" stroke="black" cx="27" cy="-46" rx="27" ry="18"/>
<text text-anchor="middle" x="27" y="-43.5" font-family="Times Roman,serif" font-size="10.00">golgi</text>
</g>
<!-- k_golgi_intermediate_r -->
<g id="node9" class="node"><title>k_golgi_intermediate_r</title>
<ellipse fill="black" stroke="black" cx="90" cy="-46" rx="0.036" ry="0.036"/>
</g>
<!-- s6&#45;&gt;k_golgi_intermediate_r -->
<g id="edge4" class="edge"><title>s6&#45;&gt;k_golgi_intermediate_r</title>
<path fill="none" stroke="black" d="M54.0833,-46C70.6248,-46 88.8241,-46 89.9454,-46"/>
</g>
<!-- s8 -->
<g id="s8" class="node"><title>s8</title>
<ellipse fill="none" stroke="black" cx="519" cy="-46" rx="27" ry="18"/>
<text text-anchor="middle" x="519" y="-43.5" font-family="Times Roman,serif" font-size="10.00">s8</text>
</g>
<!-- s4 -->
<g id="s4" class="node"><title>s4</title>
<ellipse fill="none" stroke="black" cx="1049" cy="-100" rx="38.782" ry="18"/>
<text text-anchor="middle" x="1049" y="-97.5" font-family="Times Roman,serif" font-size="10.00">lysosome</text>
</g>
<!-- k_deg_intermediate_r -->
<g id="node44" class="node"><title>k_deg_intermediate_r</title>
<ellipse fill="black" stroke="black" cx="1124" cy="-100" rx="0.036" ry="0.036"/>
</g>
<!-- s4&#45;&gt;k_deg_intermediate_r -->
<g id="edge44" class="edge"><title>s4&#45;&gt;k_deg_intermediate_r</title>
<path fill="none" stroke="black" d="M1088.26,-100C1105.84,-100 1122.9,-100 1123.95,-100"/>
</g>
<!-- k_golgi -->
<g id="node8" class="node"><title>k_golgi</title>
<polygon fill="none" stroke="black" points="140,-53 126,-53 126,-39 140,-39 140,-53"/>
</g>
<!-- k_golgi_intermediate_p -->
<g id="node12" class="node"><title>k_golgi_intermediate_p</title>
<ellipse fill="black" stroke="black" cx="176" cy="-46" rx="0.036" ry="0.036"/>
</g>
<!-- k_golgi&#45;&gt;k_golgi_intermediate_p -->
<g id="edge6" class="edge"><title>k_golgi&#45;&gt;k_golgi_intermediate_p</title>
<path fill="none" stroke="black" d="M140.101,-46C151.932,-46 174.531,-46 175.932,-46"/>
</g>
<!-- k_golgi_intermediate_r&#45;&gt;k_golgi -->
<g id="edge2" class="edge"><title>k_golgi_intermediate_r&#45;&gt;k_golgi</title>
<path fill="none" stroke="black" d="M90.1234,-46C91.9756,-46 114.231,-46 125.924,-46"/>
</g>
<!-- k_golgi_intermediate_p&#45;&gt;s1 -->
<g id="edge8" class="edge"><title>k_golgi_intermediate_p&#45;&gt;s1</title>
<path fill="none" stroke="black" d="M176.057,-46C176.945,-46 188.034,-46 201.636,-46"/>
<polygon fill="black" stroke="black" points="201.874,-49.5001 211.874,-46 201.874,-42.5001 201.874,-49.5001"/>
</g>
<!-- k_endo -->
<g id="node15" class="node"><title>k_endo</title>
<polygon fill="none" stroke="black" points="386,-96 372,-96 372,-82 386,-82 386,-96"/>
</g>
<!-- k_endo_intermediate_p -->
<g id="node19" class="node"><title>k_endo_intermediate_p</title>
<ellipse fill="black" stroke="black" cx="423" cy="-94" rx="0.036" ry="0.036"/>
</g>
<!-- k_endo&#45;&gt;k_endo_intermediate_p -->
<g id="edge14" class="edge"><title>k_endo&#45;&gt;k_endo_intermediate_p</title>
<path fill="none" stroke="black" d="M386.266,-89.8256C398.372,-91.2014 421.497,-93.8292 422.93,-93.9921"/>
</g>
<!-- k_endo_intermediate_r&#45;&gt;k_endo -->
<g id="edge10" class="edge"><title>k_endo_intermediate_r&#45;&gt;k_endo</title>
<path fill="none" stroke="black" d="M335.126,-71.0516C337.022,-71.827 359.795,-81.1432 371.759,-86.0378"/>
</g>
<!-- k_endo_intermediate_p&#45;&gt;s2 -->
<g id="edge16" class="edge"><title>k_endo_intermediate_p&#45;&gt;s2</title>
<path fill="none" stroke="black" d="M423.07,-94.0043C424.076,-94.0672 435.874,-94.8046 450.875,-95.7422"/>
<polygon fill="black" stroke="black" points="450.915,-99.2514 461.114,-96.3821 451.352,-92.2651 450.915,-99.2514"/>
</g>
<!-- k_exo -->
<g id="node22" class="node"><title>k_exo</title>
<polygon fill="none" stroke="black" points="666,-59 652,-59 652,-45 666,-45 666,-59"/>
</g>
<!-- k_exo_intermediate_p -->
<g id="node26" class="node"><title>k_exo_intermediate_p</title>
<ellipse fill="black" stroke="black" cx="702" cy="-26" rx="0.036" ry="0.036"/>
</g>
<!-- k_exo&#45;&gt;k_exo_intermediate_p -->
<g id="edge22" class="edge"><title>k_exo&#45;&gt;k_exo_intermediate_p</title>
<path fill="none" stroke="black" d="M666.101,-47.7066C677.932,-40.5527 700.531,-26.8883 701.932,-26.0413"/>
</g>
<!-- k_exo_intermediate_r&#45;&gt;k_exo -->
<g id="edge18" class="edge"><title>k_exo_intermediate_r&#45;&gt;k_exo</title>
<path fill="none" stroke="black" d="M615.126,-58.9799C617.022,-58.6784 639.795,-55.0554 651.759,-53.152"/>
</g>
<!-- k_exo_intermediate_p&#45;&gt;s1 -->
<g id="edge24" class="edge"><title>k_exo_intermediate_p&#45;&gt;s1</title>
<path fill="none" stroke="black" d="M701.865,-25.9254C699.091,-24.4004 654.095,-0 615,-0 379,-0 379,-0 379,-0 346.973,-0 313.034,-13.6562 288.775,-26.0871"/>
<polygon fill="black" stroke="black" points="286.839,-23.1524 279.653,-30.9379 290.125,-29.3329 286.839,-23.1524"/>
</g>
<!-- k_le -->
<g id="node29" class="node"><title>k_le</title>
<polygon fill="none" stroke="black" points="666,-107 652,-107 652,-93 666,-93 666,-107"/>
</g>
<!-- k_le_intermediate_p -->
<g id="node33" class="node"><title>k_le_intermediate_p</title>
<ellipse fill="black" stroke="black" cx="702" cy="-100" rx="0.036" ry="0.036"/>
</g>
<!-- k_le&#45;&gt;k_le_intermediate_p -->
<g id="edge30" class="edge"><title>k_le&#45;&gt;k_le_intermediate_p</title>
<path fill="none" stroke="black" d="M666.101,-100C677.932,-100 700.531,-100 701.932,-100"/>
</g>
<!-- k_le_intermediate_r&#45;&gt;k_le -->
<g id="edge26" class="edge"><title>k_le_intermediate_r&#45;&gt;k_le</title>
<path fill="none" stroke="black" d="M615.126,-100C617.022,-100 639.795,-100 651.759,-100"/>
</g>
<!-- k_le_intermediate_p&#45;&gt;s3 -->
<g id="edge32" class="edge"><title>k_le_intermediate_p&#45;&gt;s3</title>
<path fill="none" stroke="black" d="M702.067,-100C703.024,-100 714.048,-100 728.192,-100"/>
<polygon fill="black" stroke="black" points="728.397,-103.5 738.397,-100 728.397,-96.5001 728.397,-103.5"/>
</g>
<!-- k_lys -->
<g id="node36" class="node"><title>k_lys</title>
<polygon fill="none" stroke="black" points="938,-107 924,-107 924,-93 938,-93 938,-107"/>
</g>
<!-- k_lys_intermediate_p -->
<g id="node40" class="node"><title>k_lys_intermediate_p</title>
<ellipse fill="black" stroke="black" cx="974" cy="-100" rx="0.036" ry="0.036"/>
</g>
<!-- k_lys&#45;&gt;k_lys_intermediate_p -->
<g id="edge38" class="edge"><title>k_lys&#45;&gt;k_lys_intermediate_p</title>
<path fill="none" stroke="black" d="M938.101,-100C949.932,-100 972.531,-100 973.932,-100"/>
</g>
<!-- k_lys_intermediate_r&#45;&gt;k_lys -->
<g id="edge34" class="edge"><title>k_lys_intermediate_r&#45;&gt;k_lys</title>
<path fill="none" stroke="black" d="M888.123,-100C889.976,-100 912.231,-100 923.924,-100"/>
</g>
<!-- k_lys_intermediate_p&#45;&gt;s4 -->
<g id="edge40" class="edge"><title>k_lys_intermediate_p&#45;&gt;s4</title>
<path fill="none" stroke="black" d="M974.054,-100C974.925,-100 986.15,-100 999.659,-100"/>
<polygon fill="black" stroke="black" points="999.784,-103.5 1009.78,-100 999.784,-96.5001 999.784,-103.5"/>
</g>
<!-- k_deg -->
<g id="node43" class="node"><title>k_deg</title>
<polygon fill="none" stroke="black" points="1174,-107 1160,-107 1160,-93 1174,-93 1174,-107"/>
</g>
<!-- k_deg_intermediate_p -->
<g id="node47" class="node"><title>k_deg_intermediate_p</title>
<ellipse fill="black" stroke="black" cx="1210" cy="-100" rx="0.036" ry="0.036"/>
</g>
<!-- k_deg&#45;&gt;k_deg_intermediate_p -->
<g id="edge46" class="edge"><title>k_deg&#45;&gt;k_deg_intermediate_p</title>
<path fill="none" stroke="black" d="M1174.1,-100C1185.93,-100 1208.53,-100 1209.93,-100"/>
</g>
<!-- k_deg_intermediate_r&#45;&gt;k_deg -->
<g id="edge42" class="edge"><title>k_deg_intermediate_r&#45;&gt;k_deg</title>
<path fill="none" stroke="black" d="M1124.12,-100C1125.98,-100 1148.23,-100 1159.92,-100"/>
</g>
<!-- k_deg_intermediate_p&#45;&gt;s5 -->
<g id="edge48" class="edge"><title>k_deg_intermediate_p&#45;&gt;s5</title>
<path fill="none" stroke="black" d="M1210.05,-100C1210.87,-100 1222.6,-100 1235.72,-100"/>
<polygon fill="black" stroke="black" points="1235.86,-103.5 1245.86,-100 1235.86,-96.5001 1235.86,-103.5"/>
</g>
<!-- k_shed -->
<g id="node50" class="node"><title>k_shed</title>
<polygon fill="none" stroke="black" points="386,-53 372,-53 372,-39 386,-39 386,-53"/>
</g>
<!-- k_shed_intermediate_p -->
<g id="node54" class="node"><title>k_shed_intermediate_p</title>
<ellipse fill="black" stroke="black" cx="423" cy="-46" rx="0.036" ry="0.036"/>
</g>
<!-- k_shed&#45;&gt;k_shed_intermediate_p -->
<g id="edge54" class="edge"><title>k_shed&#45;&gt;k_shed_intermediate_p</title>
<path fill="none" stroke="black" d="M386.266,-46C398.372,-46 421.497,-46 422.93,-46"/>
</g>
<!-- k_shed_intermediate_r&#45;&gt;k_shed -->
<g id="edge50" class="edge"><title>k_shed_intermediate_r&#45;&gt;k_shed</title>
<path fill="none" stroke="black" d="M335.126,-46C337.022,-46 359.795,-46 371.759,-46"/>
</g>
<!-- k_shed_intermediate_p&#45;&gt;s8 -->
<g id="edge56" class="edge"><title>k_shed_intermediate_p&#45;&gt;s8</title>
<path fill="none" stroke="black" d="M423.07,-46C424.724,-46 455.554,-46 481.822,-46"/>
<polygon fill="black" stroke="black" points="481.963,-49.5001 491.963,-46 481.963,-42.5001 481.963,-49.5001"/>
</g>
</g>
</svg>
