<?xml version="1.0" encoding="UTF-8" standalone="no"?>
<!DOCTYPE svg PUBLIC "-//W3C//DTD SVG 1.1//EN"
 "http://www.w3.org/Graphics/SVG/1.1/DTD/svg11.dtd">
<!-- Generated by graphviz version 2.24.0 (20090616.2323)
 -->
<!-- Title: G Pages: 1 -->
<svg width="534pt" height="130pt"
 viewBox="0.00 0.00 534.00 130.00" xmlns="http://www.w3.org/2000/svg" xmlns:xlink="http://www.w3.org/1999/xlink">
<g id="graph1" class="graph" transform="scale(1 1) rotate(0) translate(4 126)">
<title>G</title>
<polygon fill="white" stroke="white" points="-4,5 -4,-126 531,-126 531,5 -4,5"/>
<!-- Per -->
<g id="node1" class="node"><title>Per</title>
<polyline fill="none" stroke="black" points="302,-36 272,-36 "/>
<path fill="none" stroke="black" d="M272,-36C266,-36 260,-30 260,-24"/>
<polyline fill="none" stroke="black" points="260,-24 260,-12 "/>
<path fill="none" stroke="black" d="M260,-12C260,-6 266,-1.61846e-14 272,-1.46056e-14"/>
<polyline fill="none" stroke="black" points="272,-1.46056e-14 302,-6.71068e-15 "/>
<path fill="none" stroke="black" d="M302,-6.71068e-15C308,-5.1317e-15 314,-6 314,-12"/>
<polyline fill="none" stroke="black" points="314,-12 314,-24 "/>
<path fill="none" stroke="black" d="M314,-24C314,-30 308,-36 302,-36"/>
<text text-anchor="middle" x="287" y="-15.5" font-family="Times Roman,serif" font-size="10.00">Per</text>
</g>
<!-- rPerD_intermediate_r -->
<g id="node27" class="node"><title>rPerD_intermediate_r</title>
<ellipse fill="black" stroke="black" cx="350" cy="-18" rx="0.036" ry="0.036"/>
</g>
<!-- Per&#45;&gt;rPerD_intermediate_r -->
<g id="edge28" class="edge"><title>Per&#45;&gt;rPerD_intermediate_r</title>
<path fill="none" stroke="black" d="M314.083,-18C330.625,-18 348.824,-18 349.945,-18"/>
</g>
<!-- dClk -->
<g id="node2" class="node"><title>dClk</title>
<polyline fill="none" stroke="black" points="302,-122 272,-122 "/>
<path fill="none" stroke="black" d="M272,-122C266,-122 260,-116 260,-110"/>
<polyline fill="none" stroke="black" points="260,-110 260,-98 "/>
<path fill="none" stroke="black" d="M260,-98C260,-92 266,-86 272,-86"/>
<polyline fill="none" stroke="black" points="272,-86 302,-86 "/>
<path fill="none" stroke="black" d="M302,-86C308,-86 314,-92 314,-98"/>
<polyline fill="none" stroke="black" points="314,-98 314,-110 "/>
<path fill="none" stroke="black" d="M314,-110C314,-116 308,-122 302,-122"/>
<text text-anchor="middle" x="287" y="-101.5" font-family="Times Roman,serif" font-size="10.00">dClk</text>
</g>
<!-- rdClkD_intermediate_r -->
<g id="node35" class="node"><title>rdClkD_intermediate_r</title>
<ellipse fill="black" stroke="black" cx="350" cy="-104" rx="0.036" ry="0.036"/>
</g>
<!-- dClk&#45;&gt;rdClkD_intermediate_r -->
<g id="edge36" class="edge"><title>dClk&#45;&gt;rdClkD_intermediate_r</title>
<path fill="none" stroke="black" d="M314.083,-104C330.625,-104 348.824,-104 349.945,-104"/>
</g>
<!-- dClkF -->
<g id="node3" class="node"><title>dClkF</title>
<polyline fill="none" stroke="black" points="175,-79 139,-79 "/>
<path fill="none" stroke="black" d="M139,-79C133,-79 127,-73 127,-67"/>
<polyline fill="none" stroke="black" points="127,-67 127,-55 "/>
<path fill="none" stroke="black" d="M127,-55C127,-49 133,-43 139,-43"/>
<polyline fill="none" stroke="black" points="139,-43 175,-43 "/>
<path fill="none" stroke="black" d="M175,-43C181,-43 187,-49 187,-55"/>
<polyline fill="none" stroke="black" points="187,-55 187,-67 "/>
<path fill="none" stroke="black" d="M187,-67C187,-73 181,-79 175,-79"/>
<text text-anchor="middle" x="157" y="-58.5" font-family="Times Roman,serif" font-size="10.00">free dClk</text>
</g>
<!-- rPer_intermediate_m -->
<g id="node12" class="node"><title>rPer_intermediate_m</title>
<ellipse fill="black" stroke="black" cx="224" cy="-50" rx="0.036" ry="0.036"/>
</g>
<!-- dClkF&#45;&gt;rPer_intermediate_m -->
<g id="edge12" class="edge"><title>dClkF&#45;&gt;rPer_intermediate_m</title>
<path fill="none" stroke="black" d="M187.755,-55.9507C204.817,-53.1494 222.836,-50.191 223.946,-50.0089"/>
</g>
<!-- rdClk_intermediate_m -->
<g id="node23" class="node"><title>rdClk_intermediate_m</title>
<ellipse fill="black" stroke="black" cx="224" cy="-71" rx="0.036" ry="0.036"/>
</g>
<!-- dClkF&#45;&gt;rdClk_intermediate_m -->
<g id="edge24" class="edge"><title>dClkF&#45;&gt;rdClk_intermediate_m</title>
<path fill="none" stroke="black" d="M187.755,-65.5903C204.817,-68.1369 222.836,-70.8263 223.946,-70.9919"/>
</g>
<!-- rPer -->
<g id="node4" class="node"><title>rPer</title>
<polygon fill="none" stroke="black" points="164,-25 150,-25 150,-11 164,-11 164,-25"/>
</g>
<!-- rPer_intermediate_p -->
<g id="node9" class="node"><title>rPer_intermediate_p</title>
<ellipse fill="black" stroke="black" cx="224" cy="-18" rx="0.036" ry="0.036"/>
</g>
<!-- rPer&#45;&gt;rPer_intermediate_p -->
<g id="edge6" class="edge"><title>rPer&#45;&gt;rPer_intermediate_p</title>
<path fill="none" stroke="black" d="M164.17,-18C180.914,-18 221.366,-18 223.877,-18"/>
</g>
<!-- rPer&#45;&gt;rPer_intermediate_m -->
<g id="edge10" class="edge"><title>rPer&#45;&gt;rPer_intermediate_m</title>
<path fill="none" stroke="black" d="M175.135,-26.6615C194.226,-35.7798 221.817,-48.9573 223.877,-49.9415"/>
<polygon fill="none" stroke="black" points="174.999,-26.5964 167.86,-27.6199 164.17,-21.4246 171.308,-20.401 174.999,-26.5964"/>
</g>
<!-- rPer_intermediate_r -->
<g id="node5" class="node"><title>rPer_intermediate_r</title>
<ellipse fill="black" stroke="black" cx="90" cy="-18" rx="0.036" ry="0.036"/>
</g>
<!-- rPer_intermediate_r&#45;&gt;rPer -->
<g id="edge2" class="edge"><title>rPer_intermediate_r&#45;&gt;rPer</title>
<path fill="none" stroke="black" d="M90.0486,-18C91.6574,-18 132.814,-18 149.786,-18"/>
</g>
<!-- rPer_empty -->
<g id="node7" class="node"><title>rPer_empty</title>
<text text-anchor="middle" x="27" y="-13.5" font-family="Times Roman,serif" font-size="15.00" fill="blue">Ø</text>
</g>
<!-- rPer_empty&#45;&gt;rPer_intermediate_r -->
<g id="edge4" class="edge"><title>rPer_empty&#45;&gt;rPer_intermediate_r</title>
<path fill="none" stroke="black" d="M54.0833,-18C70.6248,-18 88.8241,-18 89.9454,-18"/>
</g>
<!-- rPer_intermediate_p&#45;&gt;Per -->
<g id="edge8" class="edge"><title>rPer_intermediate_p&#45;&gt;Per</title>
<path fill="none" stroke="black" d="M224.046,-18C224.865,-18 236.597,-18 249.716,-18"/>
<polygon fill="black" stroke="black" points="249.86,-21.5001 259.86,-18 249.859,-14.5001 249.86,-21.5001"/>
</g>
<!-- rdClk -->
<g id="node15" class="node"><title>rdClk</title>
<polygon fill="none" stroke="black" points="164,-111 150,-111 150,-97 164,-97 164,-111"/>
</g>
<!-- rdClk_intermediate_p -->
<g id="node20" class="node"><title>rdClk_intermediate_p</title>
<ellipse fill="black" stroke="black" cx="224" cy="-104" rx="0.036" ry="0.036"/>
</g>
<!-- rdClk&#45;&gt;rdClk_intermediate_p -->
<g id="edge18" class="edge"><title>rdClk&#45;&gt;rdClk_intermediate_p</title>
<path fill="none" stroke="black" d="M164.17,-104C180.914,-104 221.366,-104 223.877,-104"/>
</g>
<!-- rdClk&#45;&gt;rdClk_intermediate_m -->
<g id="edge22" class="edge"><title>rdClk&#45;&gt;rdClk_intermediate_m</title>
<path fill="none" stroke="black" d="M175.135,-95.0679C194.226,-85.6646 221.817,-72.0753 223.877,-71.0604"/>
<polygon fill="none" stroke="black" points="174.935,-95.1662 171.32,-101.406 164.17,-100.468 167.785,-94.2289 174.935,-95.1662"/>
</g>
<!-- rdClk_intermediate_r -->
<g id="node16" class="node"><title>rdClk_intermediate_r</title>
<ellipse fill="black" stroke="black" cx="90" cy="-104" rx="0.036" ry="0.036"/>
</g>
<!-- rdClk_intermediate_r&#45;&gt;rdClk -->
<g id="edge14" class="edge"><title>rdClk_intermediate_r&#45;&gt;rdClk</title>
<path fill="none" stroke="black" d="M90.0486,-104C91.6574,-104 132.814,-104 149.786,-104"/>
</g>
<!-- rdClk_empty -->
<g id="node18" class="node"><title>rdClk_empty</title>
<text text-anchor="middle" x="27" y="-99.5" font-family="Times Roman,serif" font-size="15.00" fill="blue">Ø</text>
</g>
<!-- rdClk_empty&#45;&gt;rdClk_intermediate_r -->
<g id="edge16" class="edge"><title>rdClk_empty&#45;&gt;rdClk_intermediate_r</title>
<path fill="none" stroke="black" d="M54.0833,-104C70.6248,-104 88.8241,-104 89.9454,-104"/>
</g>
<!-- rdClk_intermediate_p&#45;&gt;dClk -->
<g id="edge20" class="edge"><title>rdClk_intermediate_p&#45;&gt;dClk</title>
<path fill="none" stroke="black" d="M224.046,-104C224.865,-104 236.597,-104 249.716,-104"/>
<polygon fill="black" stroke="black" points="249.86,-107.5 259.86,-104 249.859,-100.5 249.86,-107.5"/>
</g>
<!-- rPerD -->
<g id="node26" class="node"><title>rPerD</title>
<polygon fill="none" stroke="black" points="400,-25 386,-25 386,-11 400,-11 400,-25"/>
</g>
<!-- rPerD_intermediate_p -->
<g id="node30" class="node"><title>rPerD_intermediate_p</title>
<ellipse fill="black" stroke="black" cx="436" cy="-18" rx="0.036" ry="0.036"/>
</g>
<!-- rPerD&#45;&gt;rPerD_intermediate_p -->
<g id="edge30" class="edge"><title>rPerD&#45;&gt;rPerD_intermediate_p</title>
<path fill="none" stroke="black" d="M400.101,-18C411.932,-18 434.531,-18 435.932,-18"/>
</g>
<!-- rPerD_intermediate_r&#45;&gt;rPerD -->
<g id="edge26" class="edge"><title>rPerD_intermediate_r&#45;&gt;rPerD</title>
<path fill="none" stroke="black" d="M350.123,-18C351.976,-18 374.231,-18 385.924,-18"/>
</g>
<!-- rPerD_empty -->
<g id="node32" class="node"><title>rPerD_empty</title>
<text text-anchor="middle" x="499" y="-13.5" font-family="Times Roman,serif" font-size="15.00" fill="blue">Ø</text>
</g>
<!-- rPerD_intermediate_p&#45;&gt;rPerD_empty -->
<g id="edge32" class="edge"><title>rPerD_intermediate_p&#45;&gt;rPerD_empty</title>
<path fill="none" stroke="black" d="M436.046,-18C436.865,-18 448.597,-18 461.716,-18"/>
<polygon fill="black" stroke="black" points="461.86,-21.5001 471.86,-18 461.859,-14.5001 461.86,-21.5001"/>
</g>
<!-- rdClkD -->
<g id="node34" class="node"><title>rdClkD</title>
<polygon fill="none" stroke="black" points="400,-111 386,-111 386,-97 400,-97 400,-111"/>
</g>
<!-- rdClkD_intermediate_p -->
<g id="node38" class="node"><title>rdClkD_intermediate_p</title>
<ellipse fill="black" stroke="black" cx="436" cy="-104" rx="0.036" ry="0.036"/>
</g>
<!-- rdClkD&#45;&gt;rdClkD_intermediate_p -->
<g id="edge38" class="edge"><title>rdClkD&#45;&gt;rdClkD_intermediate_p</title>
<path fill="none" stroke="black" d="M400.101,-104C411.932,-104 434.531,-104 435.932,-104"/>
</g>
<!-- rdClkD_intermediate_r&#45;&gt;rdClkD -->
<g id="edge34" class="edge"><title>rdClkD_intermediate_r&#45;&gt;rdClkD</title>
<path fill="none" stroke="black" d="M350.123,-104C351.976,-104 374.231,-104 385.924,-104"/>
</g>
<!-- rdClkD_empty -->
<g id="node40" class="node"><title>rdClkD_empty</title>
<text text-anchor="middle" x="499" y="-99.5" font-family="Times Roman,serif" font-size="15.00" fill="blue">Ø</text>
</g>
<!-- rdClkD_intermediate_p&#45;&gt;rdClkD_empty -->
<g id="edge40" class="edge"><title>rdClkD_intermediate_p&#45;&gt;rdClkD_empty</title>
<path fill="none" stroke="black" d="M436.046,-104C436.865,-104 448.597,-104 461.716,-104"/>
<polygon fill="black" stroke="black" points="461.86,-107.5 471.86,-104 461.859,-100.5 461.86,-107.5"/>
</g>
</g>
</svg>
