<?xml version="1.0" encoding="UTF-8" standalone="no"?>
<!DOCTYPE svg PUBLIC "-//W3C//DTD SVG 1.1//EN"
 "http://www.w3.org/Graphics/SVG/1.1/DTD/svg11.dtd">
<!-- Generated by graphviz version 2.30.1 (20140821.0912)
 -->
<!-- Title: G Pages: 1 -->
<svg width="1086pt" height="314pt"
 viewBox="0.00 0.00 1086.00 314.00" xmlns="http://www.w3.org/2000/svg" xmlns:xlink="http://www.w3.org/1999/xlink">
<g id="graph0" class="graph" transform="scale(1 1) rotate(0) translate(4 310)">
<title>G</title>
<polygon fill="white" stroke="white" points="-4,5 -4,-310 1083,-310 1083,5 -4,5"/>
<!-- Ra -->
<g id="Ra" class="node"><title>Ra</title>
<ellipse fill="none" stroke="black" cx="27" cy="-18" rx="27" ry="18"/>
<text text-anchor="middle" x="27" y="-15.5" font-family="Times,serif" font-size="10.00">Ra</text>
</g>
<!-- Rd -->
<g id="Rd" class="node"><title>Rd</title>
<ellipse fill="none" stroke="black" cx="27" cy="-72" rx="27" ry="18"/>
<text text-anchor="middle" x="27" y="-69.5" font-family="Times,serif" font-size="10.00">Rd</text>
</g>
<!-- Inh_g -->
<g id="Inh_g" class="node"><title>Inh_g</title>
<ellipse fill="none" stroke="black" cx="27" cy="-126" rx="27" ry="18"/>
<text text-anchor="middle" x="27" y="-123.5" font-family="Times,serif" font-size="10.00">Inh_g</text>
</g>
<!-- Inh_b -->
<g id="Inh_b" class="node"><title>Inh_b</title>
<ellipse fill="none" stroke="black" cx="27" cy="-180" rx="27" ry="18"/>
<text text-anchor="middle" x="27" y="-177.5" font-family="Times,serif" font-size="10.00">Inh_b</text>
</g>
<!-- Sti_g -->
<g id="Sti_g" class="node"><title>Sti_g</title>
<ellipse fill="none" stroke="black" cx="27" cy="-234" rx="27" ry="18"/>
<text text-anchor="middle" x="27" y="-231.5" font-family="Times,serif" font-size="10.00">Sti_g</text>
</g>
<!-- g_death_stimulus_delay_1_intermediate_r -->
<g id="node16" class="node"><title>g_death_stimulus_delay_1_intermediate_r</title>
<ellipse fill="black" stroke="black" cx="90" cy="-234" rx="0.036" ry="0.036"/>
</g>
<!-- Sti_g&#45;&gt;g_death_stimulus_delay_1_intermediate_r -->
<g id="edge2" class="edge"><title>Sti_g&#45;&gt;g_death_stimulus_delay_1_intermediate_r</title>
<path fill="none" stroke="black" d="M54.2235,-234C70.2399,-234 87.8615,-234 88.9472,-234"/>
</g>
<!-- Sti_b -->
<g id="Sti_b" class="node"><title>Sti_b</title>
<ellipse fill="none" stroke="black" cx="27" cy="-288" rx="27" ry="18"/>
<text text-anchor="middle" x="27" y="-285.5" font-family="Times,serif" font-size="10.00">Sti_b</text>
</g>
<!-- b_death_stimulus_delay_1_intermediate_r -->
<g id="node31" class="node"><title>b_death_stimulus_delay_1_intermediate_r</title>
<ellipse fill="black" stroke="black" cx="90" cy="-288" rx="0.036" ry="0.036"/>
</g>
<!-- Sti_b&#45;&gt;b_death_stimulus_delay_1_intermediate_r -->
<g id="edge21" class="edge"><title>Sti_b&#45;&gt;b_death_stimulus_delay_1_intermediate_r</title>
<path fill="none" stroke="black" d="M54.2235,-288C70.2399,-288 87.8615,-288 88.9472,-288"/>
</g>
<!-- Sti_g1 -->
<g id="Sti_g1" class="node"><title>Sti_g1</title>
<ellipse fill="none" stroke="black" cx="239" cy="-234" rx="27" ry="18"/>
<text text-anchor="middle" x="239" y="-231.5" font-family="Times,serif" font-size="10.00">Sti_g1</text>
</g>
<!-- g_death_stimulus_delay_2_intermediate_r -->
<g id="node19" class="node"><title>g_death_stimulus_delay_2_intermediate_r</title>
<ellipse fill="black" stroke="black" cx="302" cy="-234" rx="0.036" ry="0.036"/>
</g>
<!-- Sti_g1&#45;&gt;g_death_stimulus_delay_2_intermediate_r -->
<g id="edge6" class="edge"><title>Sti_g1&#45;&gt;g_death_stimulus_delay_2_intermediate_r</title>
<path fill="none" stroke="black" d="M266.224,-234C282.24,-234 299.861,-234 300.947,-234"/>
</g>
<!-- Sti_g2 -->
<g id="Sti_g2" class="node"><title>Sti_g2</title>
<ellipse fill="none" stroke="black" cx="451" cy="-234" rx="27" ry="18"/>
<text text-anchor="middle" x="451" y="-231.5" font-family="Times,serif" font-size="10.00">Sti_g2</text>
</g>
<!-- g_death_stimulus_delay_3_intermediate_r -->
<g id="node22" class="node"><title>g_death_stimulus_delay_3_intermediate_r</title>
<ellipse fill="black" stroke="black" cx="514" cy="-234" rx="0.036" ry="0.036"/>
</g>
<!-- Sti_g2&#45;&gt;g_death_stimulus_delay_3_intermediate_r -->
<g id="edge10" class="edge"><title>Sti_g2&#45;&gt;g_death_stimulus_delay_3_intermediate_r</title>
<path fill="none" stroke="black" d="M478.224,-234C494.24,-234 511.861,-234 512.947,-234"/>
</g>
<!-- Sti_g3 -->
<g id="Sti_g3" class="node"><title>Sti_g3</title>
<ellipse fill="none" stroke="black" cx="663" cy="-234" rx="27" ry="18"/>
<text text-anchor="middle" x="663" y="-231.5" font-family="Times,serif" font-size="10.00">Sti_g3</text>
</g>
<!-- g_death_stimulus_delay_4_intermediate_r -->
<g id="node25" class="node"><title>g_death_stimulus_delay_4_intermediate_r</title>
<ellipse fill="black" stroke="black" cx="726" cy="-234" rx="0.036" ry="0.036"/>
</g>
<!-- Sti_g3&#45;&gt;g_death_stimulus_delay_4_intermediate_r -->
<g id="edge14" class="edge"><title>Sti_g3&#45;&gt;g_death_stimulus_delay_4_intermediate_r</title>
<path fill="none" stroke="black" d="M690.224,-234C706.24,-234 723.861,-234 724.947,-234"/>
</g>
<!-- Sti_g4 -->
<g id="Sti_g4" class="node"><title>Sti_g4</title>
<ellipse fill="none" stroke="black" cx="875" cy="-234" rx="27" ry="18"/>
<text text-anchor="middle" x="875" y="-231.5" font-family="Times,serif" font-size="10.00">Sti_g4</text>
</g>
<!-- g_death_stimulus_delay_4_degradation_intermediate_r -->
<g id="node28" class="node"><title>g_death_stimulus_delay_4_degradation_intermediate_r</title>
<ellipse fill="black" stroke="black" cx="938" cy="-234" rx="0.036" ry="0.036"/>
</g>
<!-- Sti_g4&#45;&gt;g_death_stimulus_delay_4_degradation_intermediate_r -->
<g id="edge18" class="edge"><title>Sti_g4&#45;&gt;g_death_stimulus_delay_4_degradation_intermediate_r</title>
<path fill="none" stroke="black" d="M902.224,-234C918.24,-234 935.861,-234 936.947,-234"/>
</g>
<!-- Sti_b1 -->
<g id="Sti_b1" class="node"><title>Sti_b1</title>
<ellipse fill="none" stroke="black" cx="239" cy="-288" rx="27" ry="18"/>
<text text-anchor="middle" x="239" y="-285.5" font-family="Times,serif" font-size="10.00">Sti_b1</text>
</g>
<!-- b_death_stimulus_delay_2_intermediate_r -->
<g id="node34" class="node"><title>b_death_stimulus_delay_2_intermediate_r</title>
<ellipse fill="black" stroke="black" cx="302" cy="-288" rx="0.036" ry="0.036"/>
</g>
<!-- Sti_b1&#45;&gt;b_death_stimulus_delay_2_intermediate_r -->
<g id="edge25" class="edge"><title>Sti_b1&#45;&gt;b_death_stimulus_delay_2_intermediate_r</title>
<path fill="none" stroke="black" d="M266.224,-288C282.24,-288 299.861,-288 300.947,-288"/>
</g>
<!-- Sti_b2 -->
<g id="Sti_b2" class="node"><title>Sti_b2</title>
<ellipse fill="none" stroke="black" cx="451" cy="-288" rx="27" ry="18"/>
<text text-anchor="middle" x="451" y="-285.5" font-family="Times,serif" font-size="10.00">Sti_b2</text>
</g>
<!-- b_death_stimulus_delay_3_intermediate_r -->
<g id="node37" class="node"><title>b_death_stimulus_delay_3_intermediate_r</title>
<ellipse fill="black" stroke="black" cx="514" cy="-288" rx="0.036" ry="0.036"/>
</g>
<!-- Sti_b2&#45;&gt;b_death_stimulus_delay_3_intermediate_r -->
<g id="edge29" class="edge"><title>Sti_b2&#45;&gt;b_death_stimulus_delay_3_intermediate_r</title>
<path fill="none" stroke="black" d="M478.224,-288C494.24,-288 511.861,-288 512.947,-288"/>
</g>
<!-- Sti_b3 -->
<g id="Sti_b3" class="node"><title>Sti_b3</title>
<ellipse fill="none" stroke="black" cx="663" cy="-288" rx="27" ry="18"/>
<text text-anchor="middle" x="663" y="-285.5" font-family="Times,serif" font-size="10.00">Sti_b3</text>
</g>
<!-- b_death_stimulus_delay_4_intermediate_r -->
<g id="node40" class="node"><title>b_death_stimulus_delay_4_intermediate_r</title>
<ellipse fill="black" stroke="black" cx="726" cy="-288" rx="0.036" ry="0.036"/>
</g>
<!-- Sti_b3&#45;&gt;b_death_stimulus_delay_4_intermediate_r -->
<g id="edge33" class="edge"><title>Sti_b3&#45;&gt;b_death_stimulus_delay_4_intermediate_r</title>
<path fill="none" stroke="black" d="M690.224,-288C706.24,-288 723.861,-288 724.947,-288"/>
</g>
<!-- Sti_b4 -->
<g id="Sti_b4" class="node"><title>Sti_b4</title>
<ellipse fill="none" stroke="black" cx="875" cy="-288" rx="27" ry="18"/>
<text text-anchor="middle" x="875" y="-285.5" font-family="Times,serif" font-size="10.00">Sti_b4</text>
</g>
<!-- b_death_stimulus_delay_4_degradation_intermediate_r -->
<g id="node43" class="node"><title>b_death_stimulus_delay_4_degradation_intermediate_r</title>
<ellipse fill="black" stroke="black" cx="938" cy="-288" rx="0.036" ry="0.036"/>
</g>
<!-- Sti_b4&#45;&gt;b_death_stimulus_delay_4_degradation_intermediate_r -->
<g id="edge37" class="edge"><title>Sti_b4&#45;&gt;b_death_stimulus_delay_4_degradation_intermediate_r</title>
<path fill="none" stroke="black" d="M902.224,-288C918.24,-288 935.861,-288 936.947,-288"/>
</g>
<!-- g_death_stimulus_delay_1 -->
<g id="node15" class="node"><title>g_death_stimulus_delay_1</title>
<polygon fill="none" stroke="black" points="140,-241 126,-241 126,-227 140,-227 140,-241"/>
</g>
<!-- g_death_stimulus_delay_1_intermediate_p -->
<g id="node17" class="node"><title>g_death_stimulus_delay_1_intermediate_p</title>
<ellipse fill="black" stroke="black" cx="176" cy="-234" rx="0.036" ry="0.036"/>
</g>
<!-- g_death_stimulus_delay_1&#45;&gt;g_death_stimulus_delay_1_intermediate_p -->
<g id="edge3" class="edge"><title>g_death_stimulus_delay_1&#45;&gt;g_death_stimulus_delay_1_intermediate_p</title>
<path fill="none" stroke="black" d="M140.05,-234C151.098,-234 173.54,-234 174.932,-234"/>
</g>
<!-- g_death_stimulus_delay_1_intermediate_r&#45;&gt;g_death_stimulus_delay_1 -->
<g id="edge1" class="edge"><title>g_death_stimulus_delay_1_intermediate_r&#45;&gt;g_death_stimulus_delay_1</title>
<path fill="none" stroke="black" d="M91.1176,-234C92.9212,-234 115.016,-234 125.95,-234"/>
</g>
<!-- g_death_stimulus_delay_1_intermediate_p&#45;&gt;Sti_g1 -->
<g id="edge4" class="edge"><title>g_death_stimulus_delay_1_intermediate_p&#45;&gt;Sti_g1</title>
<path fill="none" stroke="black" d="M177.044,-234C177.83,-234 188.976,-234 201.526,-234"/>
<polygon fill="black" stroke="black" points="201.721,-237.5 211.721,-234 201.721,-230.5 201.721,-237.5"/>
</g>
<!-- g_death_stimulus_delay_2 -->
<g id="node18" class="node"><title>g_death_stimulus_delay_2</title>
<polygon fill="none" stroke="black" points="352,-241 338,-241 338,-227 352,-227 352,-241"/>
</g>
<!-- g_death_stimulus_delay_2_intermediate_p -->
<g id="node20" class="node"><title>g_death_stimulus_delay_2_intermediate_p</title>
<ellipse fill="black" stroke="black" cx="388" cy="-234" rx="0.036" ry="0.036"/>
</g>
<!-- g_death_stimulus_delay_2&#45;&gt;g_death_stimulus_delay_2_intermediate_p -->
<g id="edge7" class="edge"><title>g_death_stimulus_delay_2&#45;&gt;g_death_stimulus_delay_2_intermediate_p</title>
<path fill="none" stroke="black" d="M352.05,-234C363.098,-234 385.54,-234 386.932,-234"/>
</g>
<!-- g_death_stimulus_delay_2_intermediate_r&#45;&gt;g_death_stimulus_delay_2 -->
<g id="edge5" class="edge"><title>g_death_stimulus_delay_2_intermediate_r&#45;&gt;g_death_stimulus_delay_2</title>
<path fill="none" stroke="black" d="M303.118,-234C304.921,-234 327.016,-234 337.95,-234"/>
</g>
<!-- g_death_stimulus_delay_2_intermediate_p&#45;&gt;Sti_g2 -->
<g id="edge8" class="edge"><title>g_death_stimulus_delay_2_intermediate_p&#45;&gt;Sti_g2</title>
<path fill="none" stroke="black" d="M389.044,-234C389.83,-234 400.976,-234 413.526,-234"/>
<polygon fill="black" stroke="black" points="413.721,-237.5 423.721,-234 413.721,-230.5 413.721,-237.5"/>
</g>
<!-- g_death_stimulus_delay_3 -->
<g id="node21" class="node"><title>g_death_stimulus_delay_3</title>
<polygon fill="none" stroke="black" points="564,-241 550,-241 550,-227 564,-227 564,-241"/>
</g>
<!-- g_death_stimulus_delay_3_intermediate_p -->
<g id="node23" class="node"><title>g_death_stimulus_delay_3_intermediate_p</title>
<ellipse fill="black" stroke="black" cx="600" cy="-234" rx="0.036" ry="0.036"/>
</g>
<!-- g_death_stimulus_delay_3&#45;&gt;g_death_stimulus_delay_3_intermediate_p -->
<g id="edge11" class="edge"><title>g_death_stimulus_delay_3&#45;&gt;g_death_stimulus_delay_3_intermediate_p</title>
<path fill="none" stroke="black" d="M564.05,-234C575.098,-234 597.54,-234 598.932,-234"/>
</g>
<!-- g_death_stimulus_delay_3_intermediate_r&#45;&gt;g_death_stimulus_delay_3 -->
<g id="edge9" class="edge"><title>g_death_stimulus_delay_3_intermediate_r&#45;&gt;g_death_stimulus_delay_3</title>
<path fill="none" stroke="black" d="M515.118,-234C516.921,-234 539.016,-234 549.95,-234"/>
</g>
<!-- g_death_stimulus_delay_3_intermediate_p&#45;&gt;Sti_g3 -->
<g id="edge12" class="edge"><title>g_death_stimulus_delay_3_intermediate_p&#45;&gt;Sti_g3</title>
<path fill="none" stroke="black" d="M601.044,-234C601.83,-234 612.976,-234 625.526,-234"/>
<polygon fill="black" stroke="black" points="625.721,-237.5 635.721,-234 625.721,-230.5 625.721,-237.5"/>
</g>
<!-- g_death_stimulus_delay_4 -->
<g id="node24" class="node"><title>g_death_stimulus_delay_4</title>
<polygon fill="none" stroke="black" points="776,-241 762,-241 762,-227 776,-227 776,-241"/>
</g>
<!-- g_death_stimulus_delay_4_intermediate_p -->
<g id="node26" class="node"><title>g_death_stimulus_delay_4_intermediate_p</title>
<ellipse fill="black" stroke="black" cx="812" cy="-234" rx="0.036" ry="0.036"/>
</g>
<!-- g_death_stimulus_delay_4&#45;&gt;g_death_stimulus_delay_4_intermediate_p -->
<g id="edge15" class="edge"><title>g_death_stimulus_delay_4&#45;&gt;g_death_stimulus_delay_4_intermediate_p</title>
<path fill="none" stroke="black" d="M776.05,-234C787.098,-234 809.54,-234 810.932,-234"/>
</g>
<!-- g_death_stimulus_delay_4_intermediate_r&#45;&gt;g_death_stimulus_delay_4 -->
<g id="edge13" class="edge"><title>g_death_stimulus_delay_4_intermediate_r&#45;&gt;g_death_stimulus_delay_4</title>
<path fill="none" stroke="black" d="M727.118,-234C728.921,-234 751.016,-234 761.95,-234"/>
</g>
<!-- g_death_stimulus_delay_4_intermediate_p&#45;&gt;Sti_g4 -->
<g id="edge16" class="edge"><title>g_death_stimulus_delay_4_intermediate_p&#45;&gt;Sti_g4</title>
<path fill="none" stroke="black" d="M813.044,-234C813.83,-234 824.976,-234 837.526,-234"/>
<polygon fill="black" stroke="black" points="837.721,-237.5 847.721,-234 837.721,-230.5 837.721,-237.5"/>
</g>
<!-- g_death_stimulus_delay_4_degradation -->
<g id="node27" class="node"><title>g_death_stimulus_delay_4_degradation</title>
<polygon fill="none" stroke="black" points="988,-241 974,-241 974,-227 988,-227 988,-241"/>
</g>
<!-- g_death_stimulus_delay_4_degradation_empty -->
<g id="node29" class="node"><title>g_death_stimulus_delay_4_degradation_empty</title>
<text text-anchor="middle" x="1051" y="-230.5" font-family="Times,serif" font-size="15.00" fill="blue">Ø</text>
</g>
<!-- g_death_stimulus_delay_4_degradation&#45;&gt;g_death_stimulus_delay_4_degradation_empty -->
<g id="edge19" class="edge"><title>g_death_stimulus_delay_4_degradation&#45;&gt;g_death_stimulus_delay_4_degradation_empty</title>
<path fill="none" stroke="black" d="M988.275,-234C994.278,-234 1003.85,-234 1013.68,-234"/>
<polygon fill="black" stroke="black" points="1013.88,-237.5 1023.88,-234 1013.88,-230.5 1013.88,-237.5"/>
</g>
<!-- g_death_stimulus_delay_4_degradation_intermediate_r&#45;&gt;g_death_stimulus_delay_4_degradation -->
<g id="edge17" class="edge"><title>g_death_stimulus_delay_4_degradation_intermediate_r&#45;&gt;g_death_stimulus_delay_4_degradation</title>
<path fill="none" stroke="black" d="M939.118,-234C940.921,-234 963.016,-234 973.95,-234"/>
</g>
<!-- b_death_stimulus_delay_1 -->
<g id="node30" class="node"><title>b_death_stimulus_delay_1</title>
<polygon fill="none" stroke="black" points="140,-295 126,-295 126,-281 140,-281 140,-295"/>
</g>
<!-- b_death_stimulus_delay_1_intermediate_p -->
<g id="node32" class="node"><title>b_death_stimulus_delay_1_intermediate_p</title>
<ellipse fill="black" stroke="black" cx="176" cy="-288" rx="0.036" ry="0.036"/>
</g>
<!-- b_death_stimulus_delay_1&#45;&gt;b_death_stimulus_delay_1_intermediate_p -->
<g id="edge22" class="edge"><title>b_death_stimulus_delay_1&#45;&gt;b_death_stimulus_delay_1_intermediate_p</title>
<path fill="none" stroke="black" d="M140.05,-288C151.098,-288 173.54,-288 174.932,-288"/>
</g>
<!-- b_death_stimulus_delay_1_intermediate_r&#45;&gt;b_death_stimulus_delay_1 -->
<g id="edge20" class="edge"><title>b_death_stimulus_delay_1_intermediate_r&#45;&gt;b_death_stimulus_delay_1</title>
<path fill="none" stroke="black" d="M91.1176,-288C92.9212,-288 115.016,-288 125.95,-288"/>
</g>
<!-- b_death_stimulus_delay_1_intermediate_p&#45;&gt;Sti_b1 -->
<g id="edge23" class="edge"><title>b_death_stimulus_delay_1_intermediate_p&#45;&gt;Sti_b1</title>
<path fill="none" stroke="black" d="M177.044,-288C177.83,-288 188.976,-288 201.526,-288"/>
<polygon fill="black" stroke="black" points="201.721,-291.5 211.721,-288 201.721,-284.5 201.721,-291.5"/>
</g>
<!-- b_death_stimulus_delay_2 -->
<g id="node33" class="node"><title>b_death_stimulus_delay_2</title>
<polygon fill="none" stroke="black" points="352,-295 338,-295 338,-281 352,-281 352,-295"/>
</g>
<!-- b_death_stimulus_delay_2_intermediate_p -->
<g id="node35" class="node"><title>b_death_stimulus_delay_2_intermediate_p</title>
<ellipse fill="black" stroke="black" cx="388" cy="-288" rx="0.036" ry="0.036"/>
</g>
<!-- b_death_stimulus_delay_2&#45;&gt;b_death_stimulus_delay_2_intermediate_p -->
<g id="edge26" class="edge"><title>b_death_stimulus_delay_2&#45;&gt;b_death_stimulus_delay_2_intermediate_p</title>
<path fill="none" stroke="black" d="M352.05,-288C363.098,-288 385.54,-288 386.932,-288"/>
</g>
<!-- b_death_stimulus_delay_2_intermediate_r&#45;&gt;b_death_stimulus_delay_2 -->
<g id="edge24" class="edge"><title>b_death_stimulus_delay_2_intermediate_r&#45;&gt;b_death_stimulus_delay_2</title>
<path fill="none" stroke="black" d="M303.118,-288C304.921,-288 327.016,-288 337.95,-288"/>
</g>
<!-- b_death_stimulus_delay_2_intermediate_p&#45;&gt;Sti_b2 -->
<g id="edge27" class="edge"><title>b_death_stimulus_delay_2_intermediate_p&#45;&gt;Sti_b2</title>
<path fill="none" stroke="black" d="M389.044,-288C389.83,-288 400.976,-288 413.526,-288"/>
<polygon fill="black" stroke="black" points="413.721,-291.5 423.721,-288 413.721,-284.5 413.721,-291.5"/>
</g>
<!-- b_death_stimulus_delay_3 -->
<g id="node36" class="node"><title>b_death_stimulus_delay_3</title>
<polygon fill="none" stroke="black" points="564,-295 550,-295 550,-281 564,-281 564,-295"/>
</g>
<!-- b_death_stimulus_delay_3_intermediate_p -->
<g id="node38" class="node"><title>b_death_stimulus_delay_3_intermediate_p</title>
<ellipse fill="black" stroke="black" cx="600" cy="-288" rx="0.036" ry="0.036"/>
</g>
<!-- b_death_stimulus_delay_3&#45;&gt;b_death_stimulus_delay_3_intermediate_p -->
<g id="edge30" class="edge"><title>b_death_stimulus_delay_3&#45;&gt;b_death_stimulus_delay_3_intermediate_p</title>
<path fill="none" stroke="black" d="M564.05,-288C575.098,-288 597.54,-288 598.932,-288"/>
</g>
<!-- b_death_stimulus_delay_3_intermediate_r&#45;&gt;b_death_stimulus_delay_3 -->
<g id="edge28" class="edge"><title>b_death_stimulus_delay_3_intermediate_r&#45;&gt;b_death_stimulus_delay_3</title>
<path fill="none" stroke="black" d="M515.118,-288C516.921,-288 539.016,-288 549.95,-288"/>
</g>
<!-- b_death_stimulus_delay_3_intermediate_p&#45;&gt;Sti_b3 -->
<g id="edge31" class="edge"><title>b_death_stimulus_delay_3_intermediate_p&#45;&gt;Sti_b3</title>
<path fill="none" stroke="black" d="M601.044,-288C601.83,-288 612.976,-288 625.526,-288"/>
<polygon fill="black" stroke="black" points="625.721,-291.5 635.721,-288 625.721,-284.5 625.721,-291.5"/>
</g>
<!-- b_death_stimulus_delay_4 -->
<g id="node39" class="node"><title>b_death_stimulus_delay_4</title>
<polygon fill="none" stroke="black" points="776,-295 762,-295 762,-281 776,-281 776,-295"/>
</g>
<!-- b_death_stimulus_delay_4_intermediate_p -->
<g id="node41" class="node"><title>b_death_stimulus_delay_4_intermediate_p</title>
<ellipse fill="black" stroke="black" cx="812" cy="-288" rx="0.036" ry="0.036"/>
</g>
<!-- b_death_stimulus_delay_4&#45;&gt;b_death_stimulus_delay_4_intermediate_p -->
<g id="edge34" class="edge"><title>b_death_stimulus_delay_4&#45;&gt;b_death_stimulus_delay_4_intermediate_p</title>
<path fill="none" stroke="black" d="M776.05,-288C787.098,-288 809.54,-288 810.932,-288"/>
</g>
<!-- b_death_stimulus_delay_4_intermediate_r&#45;&gt;b_death_stimulus_delay_4 -->
<g id="edge32" class="edge"><title>b_death_stimulus_delay_4_intermediate_r&#45;&gt;b_death_stimulus_delay_4</title>
<path fill="none" stroke="black" d="M727.118,-288C728.921,-288 751.016,-288 761.95,-288"/>
</g>
<!-- b_death_stimulus_delay_4_intermediate_p&#45;&gt;Sti_b4 -->
<g id="edge35" class="edge"><title>b_death_stimulus_delay_4_intermediate_p&#45;&gt;Sti_b4</title>
<path fill="none" stroke="black" d="M813.044,-288C813.83,-288 824.976,-288 837.526,-288"/>
<polygon fill="black" stroke="black" points="837.721,-291.5 847.721,-288 837.721,-284.5 837.721,-291.5"/>
</g>
<!-- b_death_stimulus_delay_4_degradation -->
<g id="node42" class="node"><title>b_death_stimulus_delay_4_degradation</title>
<polygon fill="none" stroke="black" points="988,-295 974,-295 974,-281 988,-281 988,-295"/>
</g>
<!-- b_death_stimulus_delay_4_degradation_empty -->
<g id="node44" class="node"><title>b_death_stimulus_delay_4_degradation_empty</title>
<text text-anchor="middle" x="1051" y="-284.5" font-family="Times,serif" font-size="15.00" fill="blue">Ø</text>
</g>
<!-- b_death_stimulus_delay_4_degradation&#45;&gt;b_death_stimulus_delay_4_degradation_empty -->
<g id="edge38" class="edge"><title>b_death_stimulus_delay_4_degradation&#45;&gt;b_death_stimulus_delay_4_degradation_empty</title>
<path fill="none" stroke="black" d="M988.275,-288C994.278,-288 1003.85,-288 1013.68,-288"/>
<polygon fill="black" stroke="black" points="1013.88,-291.5 1023.88,-288 1013.88,-284.5 1013.88,-291.5"/>
</g>
<!-- b_death_stimulus_delay_4_degradation_intermediate_r&#45;&gt;b_death_stimulus_delay_4_degradation -->
<g id="edge36" class="edge"><title>b_death_stimulus_delay_4_degradation_intermediate_r&#45;&gt;b_death_stimulus_delay_4_degradation</title>
<path fill="none" stroke="black" d="M939.118,-288C940.921,-288 963.016,-288 973.95,-288"/>
</g>
</g>
</svg>
