<?xml version="1.0" encoding="UTF-8" standalone="no"?>
<!DOCTYPE svg PUBLIC "-//W3C//DTD SVG 1.1//EN"
 "http://www.w3.org/Graphics/SVG/1.1/DTD/svg11.dtd">
<!-- Generated by graphviz version 2.24.0 (20090616.2323)
 -->
<!-- Title: G Pages: 1 -->
<svg width="1230pt" height="652pt"
 viewBox="0.00 0.00 1230.00 652.00" xmlns="http://www.w3.org/2000/svg" xmlns:xlink="http://www.w3.org/1999/xlink">
<g id="graph1" class="graph" transform="scale(1 1) rotate(0) translate(4 648)">
<title>G</title>
<polygon fill="white" stroke="white" points="-4,5 -4,-648 1227,-648 1227,5 -4,5"/>
<!-- CS -->
<g id="node1" class="node"><title>CS</title>
<ellipse fill="none" stroke="black" cx="936" cy="-230" rx="27" ry="18"/>
<text text-anchor="middle" x="936" y="-227.5" font-family="Times Roman,serif" font-size="10.00">CS</text>
</g>
<!-- r1_intermediate_m -->
<g id="node21" class="node"><title>r1_intermediate_m</title>
<ellipse fill="black" stroke="black" cx="1005" cy="-124" rx="0.036" ry="0.036"/>
</g>
<!-- CS&#45;&gt;r1_intermediate_m -->
<g id="edge18" class="edge"><title>CS&#45;&gt;r1_intermediate_m</title>
<path fill="none" stroke="black" d="M954.561,-216.658C959.338,-212.636 964.197,-207.961 968,-203 990.849,-173.19 1004.15,-126.997 1004.96,-124.139"/>
</g>
<!-- r4_intermediate_r -->
<g id="node50" class="node"><title>r4_intermediate_r</title>
<ellipse fill="black" stroke="black" cx="1005" cy="-230" rx="0.036" ry="0.036"/>
</g>
<!-- CS&#45;&gt;r4_intermediate_r -->
<g id="edge48" class="edge"><title>CS&#45;&gt;r4_intermediate_r</title>
<path fill="none" stroke="black" d="M973.494,-230C989.078,-230 1003.84,-230 1004.94,-230"/>
<polygon fill="black" stroke="black" points="973.271,-226.5 963.271,-230 973.271,-233.5 973.271,-226.5"/>
</g>
<!-- r4_intermediate_m -->
<g id="node57" class="node"><title>r4_intermediate_m</title>
<ellipse fill="black" stroke="black" cx="1222" cy="-164" rx="0.036" ry="0.036"/>
</g>
<!-- CS&#45;&gt;r4_intermediate_m -->
<g id="edge58" class="edge"><title>CS&#45;&gt;r4_intermediate_m</title>
<path fill="none" stroke="black" d="M952.695,-215.636C984.562,-189.279 1057.37,-134.057 1130,-114 1153.99,-107.375 1163.85,-102.653 1186,-114 1209.61,-126.094 1221.26,-161.68 1221.97,-163.892"/>
</g>
<!-- r5_intermediate_r -->
<g id="node63" class="node"><title>r5_intermediate_r</title>
<ellipse fill="black" stroke="black" cx="1005" cy="-491" rx="0.036" ry="0.036"/>
</g>
<!-- CS&#45;&gt;r5_intermediate_r -->
<g id="edge66" class="edge"><title>CS&#45;&gt;r5_intermediate_r</title>
<path fill="none" stroke="black" d="M944.41,-257.334C951.081,-279.32 960.499,-311.045 968,-339 985.738,-405.103 1004.41,-488.353 1004.99,-490.938"/>
<polygon fill="black" stroke="black" points="947.73,-256.22 941.466,-247.675 941.034,-258.261 947.73,-256.22"/>
</g>
<!-- r5_intermediate_m -->
<g id="node70" class="node"><title>r5_intermediate_m</title>
<ellipse fill="black" stroke="black" cx="1222" cy="-466" rx="0.036" ry="0.036"/>
</g>
<!-- CS&#45;&gt;r5_intermediate_m -->
<g id="edge76" class="edge"><title>CS&#45;&gt;r5_intermediate_m</title>
<path fill="none" stroke="black" d="M952.427,-244.396C981.977,-270.594 1045.54,-328.322 1094,-382 1111.4,-401.269 1109.32,-412.305 1130,-428 1164.14,-453.91 1218.47,-465.281 1221.84,-465.967"/>
</g>
<!-- CD -->
<g id="node2" class="node"><title>CD</title>
<ellipse fill="none" stroke="black" cx="936" cy="-561" rx="27" ry="18"/>
<text text-anchor="middle" x="936" y="-558.5" font-family="Times Roman,serif" font-size="10.00">CD</text>
</g>
<!-- CD&#45;&gt;r5_intermediate_r -->
<g id="edge68" class="edge"><title>CD&#45;&gt;r5_intermediate_r</title>
<path fill="none" stroke="black" d="M958.569,-538.507C961.742,-535.322 964.958,-532.083 968,-529 984.039,-512.745 1003.73,-492.322 1004.94,-491.061"/>
<polygon fill="black" stroke="black" points="955.933,-536.193 951.342,-545.741 960.886,-541.14 955.933,-536.193"/>
</g>
<!-- CD&#45;&gt;r5_intermediate_m -->
<g id="edge78" class="edge"><title>CD&#45;&gt;r5_intermediate_m</title>
<path fill="none" stroke="black" d="M956.955,-549.392C979.125,-538.217 1015.47,-523 1049,-523 1049,-523 1049,-523 1093,-523 1154.7,-523 1219.93,-467.767 1221.95,-466.041"/>
</g>
<!-- r10_intermediate_r -->
<g id="node124" class="node"><title>r10_intermediate_r</title>
<ellipse fill="black" stroke="black" cx="1005" cy="-597" rx="0.036" ry="0.036"/>
</g>
<!-- CD&#45;&gt;r10_intermediate_r -->
<g id="edge148" class="edge"><title>CD&#45;&gt;r10_intermediate_r</title>
<path fill="none" stroke="black" d="M966.526,-576.927C984.319,-586.21 1003.54,-596.239 1004.92,-596.959"/>
<polygon fill="black" stroke="black" points="967.939,-573.716 957.454,-572.193 964.701,-579.922 967.939,-573.716"/>
</g>
<!-- r10_intermediate_m -->
<g id="node131" class="node"><title>r10_intermediate_m</title>
<ellipse fill="black" stroke="black" cx="1222" cy="-580" rx="0.036" ry="0.036"/>
</g>
<!-- CD&#45;&gt;r10_intermediate_m -->
<g id="edge158" class="edge"><title>CD&#45;&gt;r10_intermediate_m</title>
<path fill="none" stroke="black" d="M963.401,-561C986.285,-561 1019.77,-561 1049,-561 1049,-561 1049,-561 1093,-561 1150.05,-561 1219.78,-579.411 1221.95,-579.986"/>
</g>
<!-- CDCS -->
<g id="node3" class="node"><title>CDCS</title>
<ellipse fill="none" stroke="black" cx="1158" cy="-347" rx="27.1978" ry="18"/>
<text text-anchor="middle" x="1158" y="-344.5" font-family="Times Roman,serif" font-size="10.00">CDCS</text>
</g>
<!-- CDCS&#45;&gt;r5_intermediate_m -->
<g id="edge80" class="edge"><title>CDCS&#45;&gt;r5_intermediate_m</title>
<path fill="none" stroke="black" d="M1175.25,-361.365C1179.14,-365.184 1183,-369.506 1186,-374 1209.6,-409.385 1221.26,-462.551 1221.97,-465.84"/>
</g>
<!-- r9_intermediate_m -->
<g id="node114" class="node"><title>r9_intermediate_m</title>
<ellipse fill="black" stroke="black" cx="1222" cy="-324" rx="0.036" ry="0.036"/>
</g>
<!-- CDCS&#45;&gt;r9_intermediate_m -->
<g id="edge132" class="edge"><title>CDCS&#45;&gt;r9_intermediate_m</title>
<path fill="none" stroke="black" d="M1177.2,-333.854C1195.46,-325.773 1220.39,-318.723 1221.92,-323.5"/>
</g>
<!-- CDCS&#45;&gt;r9_intermediate_m -->
<g id="edge138" class="edge"><title>CDCS&#45;&gt;r9_intermediate_m</title>
<path fill="none" stroke="black" d="M1185.14,-343.926C1202.31,-338.251 1221.39,-329.244 1221.99,-324.235"/>
</g>
<!-- UVR8M -->
<g id="node4" class="node"><title>UVR8M</title>
<ellipse fill="none" stroke="black" cx="936" cy="-366" rx="32.0105" ry="18"/>
<text text-anchor="middle" x="936" y="-363.5" font-family="Times Roman,serif" font-size="10.00">UVR8M</text>
</g>
<!-- r3_intermediate_r -->
<g id="node40" class="node"><title>r3_intermediate_r</title>
<ellipse fill="black" stroke="black" cx="1005" cy="-415" rx="0.036" ry="0.036"/>
</g>
<!-- UVR8M&#45;&gt;r3_intermediate_r -->
<g id="edge36" class="edge"><title>UVR8M&#45;&gt;r3_intermediate_r</title>
<path fill="none" stroke="black" d="M955.958,-380.173C975.699,-394.192 1003.22,-413.734 1004.92,-414.941"/>
</g>
<!-- r3_intermediate_m -->
<g id="node46" class="node"><title>r3_intermediate_m</title>
<ellipse fill="black" stroke="black" cx="1093" cy="-391" rx="0.036" ry="0.036"/>
</g>
<!-- UVR8M&#45;&gt;r3_intermediate_m -->
<g id="edge44" class="edge"><title>UVR8M&#45;&gt;r3_intermediate_m</title>
<path fill="none" stroke="black" d="M967.018,-370.939C1012.06,-378.111 1090.5,-390.602 1092.94,-390.991"/>
</g>
<!-- UVR8M&#45;&gt;r4_intermediate_r -->
<g id="edge50" class="edge"><title>UVR8M&#45;&gt;r4_intermediate_r</title>
<path fill="none" stroke="black" d="M949.555,-339.283C969.31,-300.345 1003.81,-232.35 1004.97,-230.059"/>
<polygon fill="black" stroke="black" points="946.283,-337.997 944.879,-348.499 952.525,-341.164 946.283,-337.997"/>
</g>
<!-- UVR8M&#45;&gt;r4_intermediate_m -->
<g id="edge60" class="edge"><title>UVR8M&#45;&gt;r4_intermediate_m</title>
<path fill="none" stroke="black" d="M958.774,-352.973C1004.01,-326.655 1107.58,-264.172 1186,-200 1202.96,-186.118 1220.85,-165.347 1221.95,-164.063"/>
</g>
<!-- r6_intermediate_r -->
<g id="node76" class="node"><title>r6_intermediate_r</title>
<ellipse fill="black" stroke="black" cx="285" cy="-357" rx="0.036" ry="0.036"/>
</g>
<!-- UVR8M&#45;&gt;r6_intermediate_r -->
<g id="edge84" class="edge"><title>UVR8M&#45;&gt;r6_intermediate_r</title>
<path fill="none" stroke="black" d="M912.447,-353.812C890.055,-343.368 855.12,-330 823,-330 373,-330 373,-330 373,-330 333.368,-330 287.937,-355.339 285.136,-356.923"/>
</g>
<!-- r6_intermediate_m -->
<g id="node83" class="node"><title>r6_intermediate_m</title>
<ellipse fill="black" stroke="black" cx="1005" cy="-473" rx="0.036" ry="0.036"/>
</g>
<!-- UVR8M&#45;&gt;r6_intermediate_m -->
<g id="edge94" class="edge"><title>UVR8M&#45;&gt;r6_intermediate_m</title>
<path fill="none" stroke="black" d="M947.086,-383.191C966.286,-412.965 1003.8,-471.146 1004.97,-472.957"/>
</g>
<!-- UCS -->
<g id="node5" class="node"><title>UCS</title>
<ellipse fill="none" stroke="black" cx="1158" cy="-141" rx="27" ry="18"/>
<text text-anchor="middle" x="1158" y="-138.5" font-family="Times Roman,serif" font-size="10.00">UCS</text>
</g>
<!-- r2_intermediate_m -->
<g id="node34" class="node"><title>r2_intermediate_m</title>
<ellipse fill="black" stroke="black" cx="1222" cy="-89" rx="0.036" ry="0.036"/>
</g>
<!-- UCS&#45;&gt;r2_intermediate_m -->
<g id="edge28" class="edge"><title>UCS&#45;&gt;r2_intermediate_m</title>
<path fill="none" stroke="black" d="M1170.95,-124.928C1189.07,-107.594 1219.99,-84.1222 1221.91,-88.4893"/>
</g>
<!-- UCS&#45;&gt;r2_intermediate_m -->
<g id="edge30" class="edge"><title>UCS&#45;&gt;r2_intermediate_m</title>
<path fill="none" stroke="black" d="M1179.67,-129.822C1197.94,-116.153 1221.26,-95.1529 1221.98,-89.2687"/>
</g>
<!-- UCS&#45;&gt;r4_intermediate_m -->
<g id="edge62" class="edge"><title>UCS&#45;&gt;r4_intermediate_m</title>
<path fill="none" stroke="black" d="M1181.83,-149.564C1199.46,-155.899 1220.63,-163.508 1221.94,-163.977"/>
</g>
<!-- UCS&#45;&gt;r9_intermediate_m -->
<g id="edge136" class="edge"><title>UCS&#45;&gt;r9_intermediate_m</title>
<path fill="none" stroke="black" d="M1165.72,-158.49C1182.61,-202.82 1221.39,-315.178 1221.99,-323.815"/>
</g>
<!-- UCS&#45;&gt;r9_intermediate_m -->
<g id="edge142" class="edge"><title>UCS&#45;&gt;r9_intermediate_m</title>
<path fill="none" stroke="black" d="M1162.92,-158.864C1177.43,-205.154 1219.27,-323.744 1221.87,-324.319"/>
</g>
<!-- UVR8D -->
<g id="node6" class="node"><title>UVR8D</title>
<ellipse fill="none" stroke="black" cx="658" cy="-402" rx="30.8966" ry="18"/>
<text text-anchor="middle" x="658" y="-399.5" font-family="Times Roman,serif" font-size="10.00">UVR8D</text>
</g>
<!-- r8_intermediate_r -->
<g id="node99" class="node"><title>r8_intermediate_r</title>
<ellipse fill="black" stroke="black" cx="753" cy="-370" rx="0.036" ry="0.036"/>
</g>
<!-- UVR8D&#45;&gt;r8_intermediate_r -->
<g id="edge114" class="edge"><title>UVR8D&#45;&gt;r8_intermediate_r</title>
<path fill="none" stroke="black" d="M685.223,-392.83C712.418,-383.67 750.53,-370.832 752.885,-370.039"/>
</g>
<!-- r8_intermediate_m -->
<g id="node105" class="node"><title>r8_intermediate_m</title>
<ellipse fill="black" stroke="black" cx="867" cy="-392" rx="0.036" ry="0.036"/>
</g>
<!-- UVR8D&#45;&gt;r8_intermediate_m -->
<g id="edge122" class="edge"><title>UVR8D&#45;&gt;r8_intermediate_m</title>
<path fill="none" stroke="black" d="M689.743,-400.481C747.296,-397.727 863.303,-392.177 866.914,-392.004"/>
</g>
<!-- RUP -->
<g id="node7" class="node"><title>RUP</title>
<ellipse fill="none" stroke="black" cx="221" cy="-357" rx="27" ry="18"/>
<text text-anchor="middle" x="221" y="-354.5" font-family="Times Roman,serif" font-size="10.00">RUP</text>
</g>
<!-- RUP&#45;&gt;r2_intermediate_m -->
<g id="edge32" class="edge"><title>RUP&#45;&gt;r2_intermediate_m</title>
<path fill="none" stroke="black" d="M223.104,-338.935C231.456,-271.453 264.976,-38 329,-38 329,-38 329,-38 1093,-38 1153.69,-38 1219.9,-87.4187 1221.95,-88.963"/>
</g>
<!-- RUP&#45;&gt;r6_intermediate_r -->
<g id="edge86" class="edge"><title>RUP&#45;&gt;r6_intermediate_r</title>
<path fill="none" stroke="black" d="M248.142,-357C265.04,-357 283.788,-357 284.944,-357"/>
</g>
<!-- RUP&#45;&gt;r6_intermediate_m -->
<g id="edge96" class="edge"><title>RUP&#45;&gt;r6_intermediate_m</title>
<path fill="none" stroke="black" d="M224.43,-375.125C233.442,-416.626 261.883,-515 329,-515 329,-515 329,-515 867,-515 930.109,-515 1002.69,-474.302 1004.95,-473.03"/>
</g>
<!-- UR -->
<g id="node8" class="node"><title>UR</title>
<ellipse fill="none" stroke="black" cx="437" cy="-384" rx="27" ry="18"/>
<text text-anchor="middle" x="437" y="-381.5" font-family="Times Roman,serif" font-size="10.00">UR</text>
</g>
<!-- r7_intermediate_r -->
<g id="node88" class="node"><title>r7_intermediate_r</title>
<ellipse fill="black" stroke="black" cx="501" cy="-400" rx="0.036" ry="0.036"/>
</g>
<!-- UR&#45;&gt;r7_intermediate_r -->
<g id="edge100" class="edge"><title>UR&#45;&gt;r7_intermediate_r</title>
<path fill="none" stroke="black" d="M462.294,-390.324C479.625,-394.656 499.702,-399.675 500.94,-399.985"/>
</g>
<!-- r7_intermediate_m -->
<g id="node95" class="node"><title>r7_intermediate_m</title>
<ellipse fill="black" stroke="black" cx="589" cy="-377" rx="0.036" ry="0.036"/>
</g>
<!-- UR&#45;&gt;r7_intermediate_m -->
<g id="edge110" class="edge"><title>UR&#45;&gt;r7_intermediate_m</title>
<path fill="none" stroke="black" d="M464.175,-382.749C507.212,-380.767 586.475,-377.116 588.941,-377.003"/>
</g>
<!-- UVR8_M -->
<g id="node9" class="node"><title>UVR8_M</title>
<ellipse fill="none" stroke="black" cx="35" cy="-148" rx="35.0885" ry="18"/>
<text text-anchor="middle" x="35" y="-145.5" font-family="Times Roman,serif" font-size="10.00">UVR8_M</text>
</g>
<!-- COP1 -->
<g id="node10" class="node"><title>COP1</title>
<ellipse fill="none" stroke="black" cx="35" cy="-202" rx="27.1978" ry="18"/>
<text text-anchor="middle" x="35" y="-199.5" font-family="Times Roman,serif" font-size="10.00">COP1</text>
</g>
<!-- HY5 -->
<g id="node11" class="node"><title>HY5</title>
<ellipse fill="none" stroke="black" cx="936" cy="-176" rx="27" ry="18"/>
<text text-anchor="middle" x="936" y="-173.5" font-family="Times Roman,serif" font-size="10.00">HY5</text>
</g>
<!-- HY5&#45;&gt;r1_intermediate_m -->
<g id="edge10" class="edge"><title>HY5&#45;&gt;r1_intermediate_m</title>
<path fill="none" stroke="black" d="M949.632,-160.223C969.112,-142.864 1002.81,-119.106 1004.9,-123.487"/>
</g>
<!-- HY5&#45;&gt;r1_intermediate_m -->
<g id="edge14" class="edge"><title>HY5&#45;&gt;r1_intermediate_m</title>
<path fill="none" stroke="black" d="M958.212,-165.615C978.068,-151.984 1004.17,-130.281 1004.98,-124.274"/>
</g>
<!-- HY5&#45;&gt;r9_intermediate_m -->
<g id="edge144" class="edge"><title>HY5&#45;&gt;r9_intermediate_m</title>
<path fill="none" stroke="black" d="M961.891,-181.917C986.616,-187.996 1024.65,-198.471 1056,-212 1117.25,-238.428 1133.35,-246.04 1186,-287 1203.54,-300.648 1220.88,-322.577 1221.95,-323.934"/>
</g>
<!-- FHY3 -->
<g id="node12" class="node"><title>FHY3</title>
<ellipse fill="none" stroke="black" cx="936" cy="-122" rx="27" ry="18"/>
<text text-anchor="middle" x="936" y="-119.5" font-family="Times Roman,serif" font-size="10.00">FHY3</text>
</g>
<!-- FHY3&#45;&gt;r1_intermediate_m -->
<g id="edge12" class="edge"><title>FHY3&#45;&gt;r1_intermediate_m</title>
<path fill="none" stroke="black" d="M961.693,-116.194C980.698,-115.867 1003.52,-118.55 1004.93,-123.513"/>
</g>
<!-- FHY3&#45;&gt;r1_intermediate_m -->
<g id="edge16" class="edge"><title>FHY3&#45;&gt;r1_intermediate_m</title>
<path fill="none" stroke="black" d="M960.911,-129.235C980.057,-130.76 1003.48,-129.432 1004.93,-124.49"/>
</g>
<!-- DWD -->
<g id="node13" class="node"><title>DWD</title>
<ellipse fill="none" stroke="black" cx="936" cy="-626" rx="27" ry="18"/>
<text text-anchor="middle" x="936" y="-623.5" font-family="Times Roman,serif" font-size="10.00">DWD</text>
</g>
<!-- DWD&#45;&gt;r10_intermediate_r -->
<g id="edge150" class="edge"><title>DWD&#45;&gt;r10_intermediate_r</title>
<path fill="none" stroke="black" d="M968.385,-612.389C985.65,-605.133 1003.62,-597.578 1004.92,-597.032"/>
<polygon fill="black" stroke="black" points="966.839,-609.242 958.976,-616.343 969.551,-615.695 966.839,-609.242"/>
</g>
<!-- DWD&#45;&gt;r10_intermediate_m -->
<g id="edge160" class="edge"><title>DWD&#45;&gt;r10_intermediate_m</title>
<path fill="none" stroke="black" d="M962.414,-630.034C985.27,-633.173 1019.24,-637 1049,-637 1049,-637 1049,-637 1093,-637 1154.7,-637 1219.93,-581.767 1221.95,-580.041"/>
</g>
<!-- CDW -->
<g id="node14" class="node"><title>CDW</title>
<ellipse fill="none" stroke="black" cx="1158" cy="-401" rx="27" ry="18"/>
<text text-anchor="middle" x="1158" y="-398.5" font-family="Times Roman,serif" font-size="10.00">CDW</text>
</g>
<!-- CDW&#45;&gt;r9_intermediate_m -->
<g id="edge134" class="edge"><title>CDW&#45;&gt;r9_intermediate_m</title>
<path fill="none" stroke="black" d="M1168.02,-384.232C1173.56,-378.073 1180.43,-371.432 1186,-365 1203.65,-344.625 1221.44,-315.914 1221.99,-323.606"/>
</g>
<!-- CDW&#45;&gt;r9_intermediate_m -->
<g id="edge140" class="edge"><title>CDW&#45;&gt;r9_intermediate_m</title>
<path fill="none" stroke="black" d="M1179.51,-389.99C1181.76,-387.724 1183.97,-385.348 1186,-383 1203.65,-362.625 1221.44,-333.914 1221.99,-324.437"/>
</g>
<!-- CDW&#45;&gt;r10_intermediate_m -->
<g id="edge162" class="edge"><title>CDW&#45;&gt;r10_intermediate_m</title>
<path fill="none" stroke="black" d="M1164.37,-418.818C1180.31,-463.386 1220.71,-576.395 1221.97,-579.916"/>
</g>
<!-- r1 -->
<g id="node15" class="node"><title>r1</title>
<polygon fill="none" stroke="black" points="830,-126 816,-126 816,-112 830,-112 830,-126"/>
</g>
<!-- r1_intermediate_p -->
<g id="node18" class="node"><title>r1_intermediate_p</title>
<ellipse fill="black" stroke="black" cx="867" cy="-221" rx="0.036" ry="0.036"/>
</g>
<!-- r1&#45;&gt;r1_intermediate_p -->
<g id="edge4" class="edge"><title>r1&#45;&gt;r1_intermediate_p</title>
<path fill="none" stroke="black" d="M826.024,-126.011C835.81,-148.695 866.035,-218.764 866.977,-220.948"/>
</g>
<!-- r1&#45;&gt;r1_intermediate_m -->
<g id="edge8" class="edge"><title>r1&#45;&gt;r1_intermediate_m</title>
<path fill="none" stroke="black" d="M841.269,-110.375C869.242,-98.401 924.066,-79.8341 968,-95 987.133,-101.605 1003.92,-122.629 1004.95,-123.936"/>
<polygon fill="none" stroke="black" points="841.081,-110.46 837.264,-116.578 830.148,-115.408 833.965,-109.289 841.081,-110.46"/>
</g>
<!-- r1_empty -->
<g id="node16" class="node"><title>r1_empty</title>
<text text-anchor="middle" x="753" y="-114.5" font-family="Times Roman,serif" font-size="15.00" fill="blue">Ø</text>
</g>
<!-- r1_empty&#45;&gt;r1 -->
<g id="edge2" class="edge"><title>r1_empty&#45;&gt;r1</title>
<path fill="none" stroke="black" d="M780.264,-119C793.163,-119 807.537,-119 815.895,-119"/>
</g>
<!-- r1_intermediate_p&#45;&gt;CS -->
<g id="edge6" class="edge"><title>r1_intermediate_p&#45;&gt;CS</title>
<path fill="none" stroke="black" d="M867.05,-221.007C868.037,-221.135 883.471,-223.148 899.486,-225.237"/>
<polygon fill="black" stroke="black" points="899.04,-228.709 909.409,-226.532 899.946,-221.768 899.04,-228.709"/>
</g>
<!-- r2 -->
<g id="node28" class="node"><title>r2</title>
<polygon fill="none" stroke="black" points="120,-101 106,-101 106,-87 120,-87 120,-101"/>
</g>
<!-- r2_intermediate_p -->
<g id="node31" class="node"><title>r2_intermediate_p</title>
<ellipse fill="black" stroke="black" cx="157" cy="-189" rx="0.036" ry="0.036"/>
</g>
<!-- r2&#45;&gt;r2_intermediate_p -->
<g id="edge22" class="edge"><title>r2&#45;&gt;r2_intermediate_p</title>
<path fill="none" stroke="black" d="M116.307,-101.14C126.38,-122.889 156.053,-186.955 156.978,-188.952"/>
</g>
<!-- r2&#45;&gt;r2_intermediate_m -->
<g id="edge26" class="edge"><title>r2&#45;&gt;r2_intermediate_m</title>
<path fill="none" stroke="black" d="M122.779,-76.1915C139.203,-48.9365 175.086,-0 221,-0 221,-0 221,-0 1093,-0 1137.99,-0 1150.78,-12.0001 1186,-40 1206.49,-56.2912 1221.07,-87.0036 1221.96,-88.9072"/>
<polygon fill="none" stroke="black" points="122.593,-76.5175 123.087,-83.7117 116.636,-86.9347 116.142,-79.7405 122.593,-76.5175"/>
</g>
<!-- r2_empty -->
<g id="node29" class="node"><title>r2_empty</title>
<text text-anchor="middle" x="35" y="-89.5" font-family="Times Roman,serif" font-size="15.00" fill="blue">Ø</text>
</g>
<!-- r2_empty&#45;&gt;r2 -->
<g id="edge20" class="edge"><title>r2_empty&#45;&gt;r2</title>
<path fill="none" stroke="black" d="M62.2806,-94C77.7445,-94 95.9184,-94 105.767,-94"/>
</g>
<!-- r2_intermediate_p&#45;&gt;RUP -->
<g id="edge24" class="edge"><title>r2_intermediate_p&#45;&gt;RUP</title>
<path fill="none" stroke="black" d="M157.046,-189.122C158.485,-192.899 193.036,-283.595 210.741,-330.071"/>
<polygon fill="black" stroke="black" points="207.516,-331.437 214.347,-339.536 214.058,-328.945 207.516,-331.437"/>
</g>
<!-- r3 -->
<g id="node39" class="node"><title>r3</title>
<polygon fill="none" stroke="black" points="1056,-425 1042,-425 1042,-411 1056,-411 1056,-425"/>
</g>
<!-- r3_intermediate_p -->
<g id="node43" class="node"><title>r3_intermediate_p</title>
<ellipse fill="black" stroke="black" cx="1093" cy="-418" rx="0.036" ry="0.036"/>
</g>
<!-- r3&#45;&gt;r3_intermediate_p -->
<g id="edge38" class="edge"><title>r3&#45;&gt;r3_intermediate_p</title>
<path fill="none" stroke="black" d="M1056.27,-418C1068.37,-418 1091.5,-418 1092.93,-418"/>
</g>
<!-- r3&#45;&gt;r3_intermediate_m -->
<g id="edge42" class="edge"><title>r3&#45;&gt;r3_intermediate_m</title>
<path fill="none" stroke="black" d="M1066.54,-407.239C1078.3,-400.02 1091.84,-391.709 1092.93,-391.043"/>
<polygon fill="none" stroke="black" points="1066.49,-407.265 1063.47,-413.813 1056.27,-413.541 1059.29,-406.994 1066.49,-407.265"/>
</g>
<!-- r3_intermediate_r&#45;&gt;r3 -->
<g id="edge34" class="edge"><title>r3_intermediate_r&#45;&gt;r3</title>
<path fill="none" stroke="black" d="M1005.13,-415.009C1007.02,-415.138 1029.79,-416.691 1041.76,-417.506"/>
</g>
<!-- r3_intermediate_p&#45;&gt;UVR8D -->
<g id="edge40" class="edge"><title>r3_intermediate_p&#45;&gt;UVR8D</title>
<path fill="none" stroke="black" d="M1092.94,-418.035C1091.78,-418.751 1072.95,-430.258 1056,-434 973.947,-452.116 951.029,-439 867,-439 823,-439 823,-439 823,-439 777.905,-439 727.52,-425.678 694.429,-415.022"/>
<polygon fill="black" stroke="black" points="695.334,-411.635 684.74,-411.818 693.136,-418.281 695.334,-411.635"/>
</g>
<!-- r4 -->
<g id="node49" class="node"><title>r4</title>
<polygon fill="none" stroke="black" points="1056,-235 1042,-235 1042,-221 1056,-221 1056,-235"/>
</g>
<!-- r4_intermediate_p -->
<g id="node54" class="node"><title>r4_intermediate_p</title>
<ellipse fill="black" stroke="black" cx="1093" cy="-150" rx="0.036" ry="0.036"/>
</g>
<!-- r4&#45;&gt;r4_intermediate_p -->
<g id="edge52" class="edge"><title>r4&#45;&gt;r4_intermediate_p</title>
<path fill="none" stroke="black" d="M1053.06,-220.802C1063.61,-202.096 1091.2,-153.187 1092.92,-150.148"/>
</g>
<!-- r4&#45;&gt;r4_intermediate_m -->
<g id="edge56" class="edge"><title>r4&#45;&gt;r4_intermediate_m</title>
<path fill="none" stroke="black" d="M1067.45,-220.569C1075.03,-217.549 1083.92,-214.057 1092,-211 1148.56,-189.599 1219.74,-164.788 1221.95,-164.018"/>
<polygon fill="none" stroke="black" points="1067.42,-220.581 1063.34,-226.526 1056.28,-225.046 1060.36,-219.101 1067.42,-220.581"/>
</g>
<!-- r4_intermediate_r&#45;&gt;r4 -->
<g id="edge46" class="edge"><title>r4_intermediate_r&#45;&gt;r4</title>
<path fill="none" stroke="black" d="M1005.13,-229.994C1007.02,-229.908 1029.79,-228.873 1041.76,-228.329"/>
</g>
<!-- r4_intermediate_p&#45;&gt;UCS -->
<g id="edge54" class="edge"><title>r4_intermediate_p&#45;&gt;UCS</title>
<path fill="none" stroke="black" d="M1093.05,-149.993C1093.93,-149.871 1107.21,-148.032 1121.54,-146.049"/>
<polygon fill="black" stroke="black" points="1122.05,-149.511 1131.48,-144.672 1121.09,-142.577 1122.05,-149.511"/>
</g>
<!-- r5 -->
<g id="node62" class="node"><title>r5</title>
<polygon fill="none" stroke="black" points="1056,-495 1042,-495 1042,-481 1056,-481 1056,-495"/>
</g>
<!-- r5_intermediate_p -->
<g id="node67" class="node"><title>r5_intermediate_p</title>
<ellipse fill="black" stroke="black" cx="1093" cy="-437" rx="0.036" ry="0.036"/>
</g>
<!-- r5&#45;&gt;r5_intermediate_p -->
<g id="edge70" class="edge"><title>r5&#45;&gt;r5_intermediate_p</title>
<path fill="none" stroke="black" d="M1055.12,-480.909C1066.83,-467.333 1091.4,-438.853 1092.93,-437.086"/>
</g>
<!-- r5&#45;&gt;r5_intermediate_m -->
<g id="edge74" class="edge"><title>r5&#45;&gt;r5_intermediate_m</title>
<path fill="none" stroke="black" d="M1068.53,-485.516C1113.01,-479.861 1218.28,-466.473 1221.9,-466.012"/>
<polygon fill="none" stroke="black" points="1068.34,-485.541 1062.89,-490.266 1056.43,-487.055 1061.88,-482.33 1068.34,-485.541"/>
</g>
<!-- r5_intermediate_r&#45;&gt;r5 -->
<g id="edge64" class="edge"><title>r5_intermediate_r&#45;&gt;r5</title>
<path fill="none" stroke="black" d="M1005.13,-490.991C1007.02,-490.862 1029.79,-489.309 1041.76,-488.494"/>
</g>
<!-- r5_intermediate_p&#45;&gt;CDCS -->
<g id="edge72" class="edge"><title>r5_intermediate_p&#45;&gt;CDCS</title>
<path fill="none" stroke="black" d="M1093.05,-436.892C1094.06,-434.668 1110.53,-398.709 1130,-374 1131.39,-372.233 1132.9,-370.469 1134.46,-368.736"/>
<polygon fill="black" stroke="black" points="1137.09,-371.055 1141.53,-361.436 1132.06,-366.186 1137.09,-371.055"/>
</g>
<!-- r6 -->
<g id="node75" class="node"><title>r6</title>
<polygon fill="none" stroke="black" points="336,-391 322,-391 322,-377 336,-377 336,-391"/>
</g>
<!-- r6_intermediate_p -->
<g id="node80" class="node"><title>r6_intermediate_p</title>
<ellipse fill="black" stroke="black" cx="373" cy="-384" rx="0.036" ry="0.036"/>
</g>
<!-- r6&#45;&gt;r6_intermediate_p -->
<g id="edge88" class="edge"><title>r6&#45;&gt;r6_intermediate_p</title>
<path fill="none" stroke="black" d="M336.266,-384C348.372,-384 371.497,-384 372.93,-384"/>
</g>
<!-- r6&#45;&gt;r6_intermediate_m -->
<g id="edge92" class="edge"><title>r6&#45;&gt;r6_intermediate_m</title>
<path fill="none" stroke="black" d="M339.062,-402C355.658,-429.038 391.51,-477 437,-477 437,-477 437,-477 867,-477 927.4,-477 1002.61,-473.124 1004.94,-473.003"/>
<polygon fill="none" stroke="black" points="338.867,-401.666 332.39,-398.496 332.826,-391.298 339.302,-394.468 338.867,-401.666"/>
</g>
<!-- r6_intermediate_r&#45;&gt;r6 -->
<g id="edge82" class="edge"><title>r6_intermediate_r&#45;&gt;r6</title>
<path fill="none" stroke="black" d="M285.126,-357.077C287.022,-358.24 309.795,-372.215 321.759,-379.557"/>
</g>
<!-- r6_intermediate_p&#45;&gt;UR -->
<g id="edge90" class="edge"><title>r6_intermediate_p&#45;&gt;UR</title>
<path fill="none" stroke="black" d="M373.046,-384C373.885,-384 385.971,-384 399.414,-384"/>
<polygon fill="black" stroke="black" points="399.794,-387.5 409.794,-384 399.794,-380.5 399.794,-387.5"/>
</g>
<!-- r7 -->
<g id="node87" class="node"><title>r7</title>
<polygon fill="none" stroke="black" points="552,-410 538,-410 538,-396 552,-396 552,-410"/>
</g>
<!-- r7_intermediate_p -->
<g id="node91" class="node"><title>r7_intermediate_p</title>
<ellipse fill="black" stroke="black" cx="589" cy="-403" rx="0.036" ry="0.036"/>
</g>
<!-- r7&#45;&gt;r7_intermediate_p -->
<g id="edge102" class="edge"><title>r7&#45;&gt;r7_intermediate_p</title>
<path fill="none" stroke="black" d="M552.266,-403C564.372,-403 587.497,-403 588.93,-403"/>
</g>
<!-- r7&#45;&gt;r7_intermediate_m -->
<g id="edge108" class="edge"><title>r7&#45;&gt;r7_intermediate_m</title>
<path fill="none" stroke="black" d="M562.9,-392.422C574.579,-385.522 587.855,-377.677 588.93,-377.041"/>
<polygon fill="none" stroke="black" points="562.597,-392.602 559.466,-399.098 552.266,-398.707 555.396,-392.211 562.597,-392.602"/>
</g>
<!-- r7_intermediate_r&#45;&gt;r7 -->
<g id="edge98" class="edge"><title>r7_intermediate_r&#45;&gt;r7</title>
<path fill="none" stroke="black" d="M501.126,-400.009C503.022,-400.138 525.795,-401.691 537.759,-402.506"/>
</g>
<!-- r7_intermediate_p&#45;&gt;UVR8D -->
<g id="edge104" class="edge"><title>r7_intermediate_p&#45;&gt;UVR8D</title>
<path fill="none" stroke="black" d="M589.05,-402.999C589.924,-402.987 602.117,-402.81 616.014,-402.608"/>
<polygon fill="black" stroke="black" points="616.348,-406.104 626.296,-402.459 616.246,-399.105 616.348,-406.104"/>
</g>
<!-- r7_intermediate_p&#45;&gt;RUP -->
<g id="edge106" class="edge"><title>r7_intermediate_p&#45;&gt;RUP</title>
<path fill="none" stroke="black" d="M588.867,-403.1C586.134,-405.153 541.776,-438 501,-438 329,-438 329,-438 329,-438 290.843,-438 257.539,-405.24 238.347,-381.388"/>
<polygon fill="black" stroke="black" points="241.049,-379.161 232.163,-373.392 235.512,-383.443 241.049,-379.161"/>
</g>
<!-- r8 -->
<g id="node98" class="node"><title>r8</title>
<polygon fill="none" stroke="black" points="830,-373 816,-373 816,-359 830,-359 830,-373"/>
</g>
<!-- r8_intermediate_p -->
<g id="node102" class="node"><title>r8_intermediate_p</title>
<ellipse fill="black" stroke="black" cx="867" cy="-366" rx="0.036" ry="0.036"/>
</g>
<!-- r8&#45;&gt;r8_intermediate_p -->
<g id="edge116" class="edge"><title>r8&#45;&gt;r8_intermediate_p</title>
<path fill="none" stroke="black" d="M830.266,-366C842.372,-366 865.497,-366 866.93,-366"/>
</g>
<!-- r8&#45;&gt;r8_intermediate_m -->
<g id="edge120" class="edge"><title>r8&#45;&gt;r8_intermediate_m</title>
<path fill="none" stroke="black" d="M840.9,-376.578C852.579,-383.478 865.855,-391.323 866.93,-391.959"/>
<polygon fill="none" stroke="black" points="840.597,-376.398 833.396,-376.789 830.266,-370.293 837.466,-369.902 840.597,-376.398"/>
</g>
<!-- r8_intermediate_r&#45;&gt;r8 -->
<g id="edge112" class="edge"><title>r8_intermediate_r&#45;&gt;r8</title>
<path fill="none" stroke="black" d="M753.051,-369.997C754.748,-369.9 798.582,-367.395 815.98,-366.401"/>
</g>
<!-- r8_intermediate_p&#45;&gt;UVR8M -->
<g id="edge118" class="edge"><title>r8_intermediate_p&#45;&gt;UVR8M</title>
<path fill="none" stroke="black" d="M867.05,-366C867.917,-366 879.935,-366 893.701,-366"/>
<polygon fill="black" stroke="black" points="893.899,-369.5 903.899,-366 893.899,-362.5 893.899,-369.5"/>
</g>
<!-- r9 -->
<g id="node108" class="node"><title>r9</title>
<polygon fill="none" stroke="black" points="830,-249 816,-249 816,-235 830,-235 830,-249"/>
</g>
<!-- r9_intermediate_p -->
<g id="node111" class="node"><title>r9_intermediate_p</title>
<ellipse fill="black" stroke="black" cx="867" cy="-194" rx="0.036" ry="0.036"/>
</g>
<!-- r9&#45;&gt;r9_intermediate_p -->
<g id="edge126" class="edge"><title>r9&#45;&gt;r9_intermediate_p</title>
<path fill="none" stroke="black" d="M829.492,-234.917C841.349,-221.983 865.433,-195.709 866.927,-194.079"/>
</g>
<!-- r9&#45;&gt;r9_intermediate_m -->
<g id="edge130" class="edge"><title>r9&#45;&gt;r9_intermediate_m</title>
<path fill="none" stroke="black" d="M842.451,-245.997C921.799,-262.305 1217.05,-322.982 1221.94,-323.987"/>
<polygon fill="none" stroke="black" points="842.02,-245.909 835.338,-248.619 830.266,-243.493 836.948,-240.783 842.02,-245.909"/>
</g>
<!-- r9_empty -->
<g id="node109" class="node"><title>r9_empty</title>
<text text-anchor="middle" x="753" y="-237.5" font-family="Times Roman,serif" font-size="15.00" fill="blue">Ø</text>
</g>
<!-- r9_empty&#45;&gt;r9 -->
<g id="edge124" class="edge"><title>r9_empty&#45;&gt;r9</title>
<path fill="none" stroke="black" d="M780.264,-242C793.163,-242 807.537,-242 815.895,-242"/>
</g>
<!-- r9_intermediate_p&#45;&gt;HY5 -->
<g id="edge128" class="edge"><title>r9_intermediate_p&#45;&gt;HY5</title>
<path fill="none" stroke="black" d="M867.05,-193.987C868.057,-193.724 884.112,-189.536 900.474,-185.268"/>
<polygon fill="black" stroke="black" points="901.778,-188.545 910.57,-182.634 900.011,-181.771 901.778,-188.545"/>
</g>
<!-- r10 -->
<g id="node123" class="node"><title>r10</title>
<polygon fill="none" stroke="black" points="1056,-604 1042,-604 1042,-590 1056,-590 1056,-604"/>
</g>
<!-- r10_intermediate_p -->
<g id="node128" class="node"><title>r10_intermediate_p</title>
<ellipse fill="black" stroke="black" cx="1093" cy="-456" rx="0.036" ry="0.036"/>
</g>
<!-- r10&#45;&gt;r10_intermediate_p -->
<g id="edge152" class="edge"><title>r10&#45;&gt;r10_intermediate_p</title>
<path fill="none" stroke="black" d="M1051.24,-589.814C1060.07,-561.53 1091.98,-459.265 1092.98,-456.076"/>
</g>
<!-- r10&#45;&gt;r10_intermediate_m -->
<g id="edge156" class="edge"><title>r10&#45;&gt;r10_intermediate_m</title>
<path fill="none" stroke="black" d="M1068.53,-595.081C1113.01,-590.71 1218.28,-580.366 1221.9,-580.009"/>
<polygon fill="none" stroke="black" points="1068.38,-595.096 1062.8,-599.664 1056.43,-596.27 1062.01,-591.702 1068.38,-595.096"/>
</g>
<!-- r10_intermediate_r&#45;&gt;r10 -->
<g id="edge146" class="edge"><title>r10_intermediate_r&#45;&gt;r10</title>
<path fill="none" stroke="black" d="M1005.13,-597C1007.02,-597 1029.79,-597 1041.76,-597"/>
</g>
<!-- r10_intermediate_p&#45;&gt;CDW -->
<g id="edge154" class="edge"><title>r10_intermediate_p&#45;&gt;CDW</title>
<path fill="none" stroke="black" d="M1093.05,-455.96C1094.17,-455.007 1115.3,-437.133 1133.15,-422.024"/>
<polygon fill="black" stroke="black" points="1135.67,-424.479 1141.04,-415.347 1131.15,-419.135 1135.67,-424.479"/>
</g>
</g>
</svg>
