<?xml version="1.0" encoding="UTF-8" standalone="no"?>
<!DOCTYPE svg PUBLIC "-//W3C//DTD SVG 1.1//EN"
 "http://www.w3.org/Graphics/SVG/1.1/DTD/svg11.dtd">
<!-- Generated by graphviz version 2.24.0 (20090616.2323)
 -->
<!-- Title: G Pages: 1 -->
<svg width="1168pt" height="200pt"
 viewBox="0.00 0.00 1168.00 200.00" xmlns="http://www.w3.org/2000/svg" xmlns:xlink="http://www.w3.org/1999/xlink">
<g id="graph1" class="graph" transform="scale(1 1) rotate(0) translate(4 196)">
<title>G</title>
<polygon fill="white" stroke="white" points="-4,5 -4,-196 1165,-196 1165,5 -4,5"/>
<!-- bb -->
<g id="node1" class="node"><title>bb</title>
<ellipse fill="none" stroke="black" cx="694" cy="-152" rx="18" ry="18"/>
<text text-anchor="middle" x="694" y="-149.5" font-family="Times Roman,serif" font-size="10.00">HCO3&#45;</text>
</g>
<!-- nbc_intermediate_r -->
<g id="node10" class="node"><title>nbc_intermediate_r</title>
<ellipse fill="black" stroke="black" cx="775" cy="-152" rx="0.036" ry="0.036"/>
</g>
<!-- bb&#45;&gt;nbc_intermediate_r -->
<g id="edge4" class="edge"><title>bb&#45;&gt;nbc_intermediate_r</title>
<path fill="none" stroke="black" d="M722.532,-152C745.016,-152 772.908,-152 774.888,-152"/>
<polygon fill="black" stroke="black" points="722.38,-148.5 712.38,-152 722.38,-155.5 722.38,-148.5"/>
</g>
<!-- apbl_intermediate_r -->
<g id="node42" class="node"><title>apbl_intermediate_r</title>
<ellipse fill="black" stroke="black" cx="775" cy="-120" rx="0.036" ry="0.036"/>
</g>
<!-- bb&#45;&gt;apbl_intermediate_r -->
<g id="edge44" class="edge"><title>bb&#45;&gt;apbl_intermediate_r</title>
<path fill="none" stroke="black" d="M720.344,-141.592C743.146,-132.584 772.795,-120.871 774.883,-120.046"/>
<polygon fill="black" stroke="black" points="718.798,-138.44 710.783,-145.37 721.37,-144.95 718.798,-138.44"/>
</g>
<!-- cb -->
<g id="node2" class="node"><title>cb</title>
<ellipse fill="none" stroke="black" cx="944" cy="-92" rx="18" ry="18"/>
<text text-anchor="middle" x="944" y="-89.5" font-family="Times Roman,serif" font-size="10.00">CL&#45;</text>
</g>
<!-- nb -->
<g id="node3" class="node"><title>nb</title>
<ellipse fill="none" stroke="black" cx="1142" cy="-157" rx="18" ry="18"/>
<text text-anchor="middle" x="1142" y="-154.5" font-family="Times Roman,serif" font-size="10.00">Na+</text>
</g>
<!-- nb&#45;&gt;nbc_intermediate_r -->
<g id="edge6" class="edge"><title>nb&#45;&gt;nbc_intermediate_r</title>
<path fill="none" stroke="black" d="M1117.39,-170.948C1097.85,-180.705 1069.51,-192 1043,-192 889,-192 889,-192 889,-192 836.144,-192 776.883,-153.24 775.044,-152.029"/>
<polygon fill="black" stroke="black" points="1119.24,-173.928 1126.48,-166.196 1116,-167.724 1119.24,-173.928"/>
</g>
<!-- bi -->
<g id="node4" class="node"><title>bi</title>
<ellipse fill="none" stroke="black" cx="944" cy="-38" rx="18" ry="18"/>
<text text-anchor="middle" x="944" y="-35.5" font-family="Times Roman,serif" font-size="10.00">HCO3&#45;</text>
</g>
<!-- ci -->
<g id="node5" class="node"><title>ci</title>
<ellipse fill="none" stroke="black" cx="694" cy="-98" rx="18" ry="18"/>
<text text-anchor="middle" x="694" y="-95.5" font-family="Times Roman,serif" font-size="10.00">CL&#45;</text>
</g>
<!-- apl_intermediate_r -->
<g id="node33" class="node"><title>apl_intermediate_r</title>
<ellipse fill="black" stroke="black" cx="275" cy="-59" rx="0.036" ry="0.036"/>
</g>
<!-- ci&#45;&gt;apl_intermediate_r -->
<g id="edge34" class="edge"><title>ci&#45;&gt;apl_intermediate_r</title>
<path fill="none" stroke="black" d="M667.195,-88.7159C647.477,-82.708 619.889,-76 595,-76 415,-76 415,-76 415,-76 353.3,-76 277.413,-59.5271 275.056,-59.0123"/>
<polygon fill="black" stroke="black" points="666.142,-92.0537 676.733,-91.7545 668.267,-85.384 666.142,-92.0537"/>
</g>
<!-- ci&#45;&gt;apbl_intermediate_r -->
<g id="edge46" class="edge"><title>ci&#45;&gt;apbl_intermediate_r</title>
<path fill="none" stroke="black" d="M721.437,-105.452C744.091,-111.605 772.852,-119.417 774.886,-119.969"/>
<polygon fill="black" stroke="black" points="722.144,-102.017 711.576,-102.774 720.309,-108.772 722.144,-102.017"/>
</g>
<!-- ni -->
<g id="node6" class="node"><title>ni</title>
<ellipse fill="none" stroke="black" cx="944" cy="-146" rx="18" ry="18"/>
<text text-anchor="middle" x="944" y="-143.5" font-family="Times Roman,serif" font-size="10.00">Na+</text>
</g>
<!-- nak_intermediate_r -->
<g id="node51" class="node"><title>nak_intermediate_r</title>
<ellipse fill="black" stroke="black" cx="999" cy="-151" rx="0.036" ry="0.036"/>
</g>
<!-- ni&#45;&gt;nak_intermediate_r -->
<g id="edge56" class="edge"><title>ni&#45;&gt;nak_intermediate_r</title>
<path fill="none" stroke="black" d="M972.237,-148.567C985.207,-149.746 997.958,-150.905 998.939,-150.994"/>
<polygon fill="black" stroke="black" points="972.285,-145.057 962.009,-147.637 971.651,-152.028 972.285,-145.057"/>
</g>
<!-- naleak_intermediate_r -->
<g id="node58" class="node"><title>naleak_intermediate_r</title>
<ellipse fill="black" stroke="black" cx="999" cy="-129" rx="0.036" ry="0.036"/>
</g>
<!-- ni&#45;&gt;naleak_intermediate_r -->
<g id="edge64" class="edge"><title>ni&#45;&gt;naleak_intermediate_r</title>
<path fill="none" stroke="black" d="M971.334,-137.551C984.602,-133.45 997.922,-129.333 998.938,-129.019"/>
<polygon fill="black" stroke="black" points="969.923,-134.324 961.402,-140.621 971.99,-141.012 969.923,-134.324"/>
</g>
<!-- bl -->
<g id="node7" class="node"><title>bl</title>
<ellipse fill="none" stroke="black" cx="194" cy="-59" rx="18" ry="18"/>
<text text-anchor="middle" x="194" y="-56.5" font-family="Times Roman,serif" font-size="10.00">HCO3&#45;</text>
</g>
<!-- bcftr_intermediate_r -->
<g id="node19" class="node"><title>bcftr_intermediate_r</title>
<ellipse fill="black" stroke="black" cx="345" cy="-14" rx="0.036" ry="0.036"/>
</g>
<!-- bl&#45;&gt;bcftr_intermediate_r -->
<g id="edge16" class="edge"><title>bl&#45;&gt;bcftr_intermediate_r</title>
<path fill="none" stroke="black" d="M221.098,-50.9245C263.821,-38.1925 342.293,-14.8068 344.932,-14.0204"/>
<polygon fill="black" stroke="black" points="219.905,-47.6276 211.322,-53.8379 221.905,-54.3361 219.905,-47.6276"/>
</g>
<!-- bl&#45;&gt;apl_intermediate_r -->
<g id="edge32" class="edge"><title>bl&#45;&gt;apl_intermediate_r</title>
<path fill="none" stroke="black" d="M222.532,-59C245.016,-59 272.908,-59 274.888,-59"/>
<polygon fill="black" stroke="black" points="222.38,-55.5001 212.38,-59 222.38,-62.5001 222.38,-55.5001"/>
</g>
<!-- outflow_intermediate_r -->
<g id="node83" class="node"><title>outflow_intermediate_r</title>
<ellipse fill="black" stroke="black" cx="275" cy="-100" rx="0.036" ry="0.036"/>
</g>
<!-- bl&#45;&gt;outflow_intermediate_r -->
<g id="edge90" class="edge"><title>bl&#45;&gt;outflow_intermediate_r</title>
<path fill="none" stroke="black" d="M219.34,-71.8265C242.261,-83.4282 272.752,-98.8619 274.882,-99.9402"/>
<polygon fill="black" stroke="black" points="220.894,-68.6904 210.392,-67.297 217.733,-74.9359 220.894,-68.6904"/>
</g>
<!-- cl -->
<g id="node8" class="node"><title>cl</title>
<ellipse fill="none" stroke="black" cx="496" cy="-122" rx="18" ry="18"/>
<text text-anchor="middle" x="496" y="-119.5" font-family="Times Roman,serif" font-size="10.00">CL&#45;</text>
</g>
<!-- ccftr_intermediate_r -->
<g id="node26" class="node"><title>ccftr_intermediate_r</title>
<ellipse fill="black" stroke="black" cx="551" cy="-119" rx="0.036" ry="0.036"/>
</g>
<!-- cl&#45;&gt;ccftr_intermediate_r -->
<g id="edge24" class="edge"><title>cl&#45;&gt;ccftr_intermediate_r</title>
<path fill="none" stroke="black" d="M524.237,-120.46C537.207,-119.752 549.958,-119.057 550.939,-119.003"/>
<polygon fill="black" stroke="black" points="523.804,-116.978 514.009,-121.018 524.185,-123.968 523.804,-116.978"/>
</g>
<!-- nbc -->
<g id="node9" class="node"><title>nbc</title>
<polygon fill="none" stroke="black" points="852,-154 838,-154 838,-140 852,-140 852,-154"/>
</g>
<!-- nbc_intermediate_p -->
<g id="node14" class="node"><title>nbc_intermediate_p</title>
<ellipse fill="black" stroke="black" cx="889" cy="-146" rx="0.036" ry="0.036"/>
</g>
<!-- nbc&#45;&gt;nbc_intermediate_p -->
<g id="edge8" class="edge"><title>nbc&#45;&gt;nbc_intermediate_p</title>
<path fill="none" stroke="black" d="M852.266,-146.835C864.372,-146.56 887.497,-146.034 888.93,-146.002"/>
</g>
<!-- nbc_intermediate_r&#45;&gt;nbc -->
<g id="edge2" class="edge"><title>nbc_intermediate_r&#45;&gt;nbc</title>
<path fill="none" stroke="black" d="M775.051,-151.996C776.748,-151.875 820.582,-148.744 837.98,-147.501"/>
</g>
<!-- nbc_intermediate_p&#45;&gt;bi -->
<g id="edge10" class="edge"><title>nbc_intermediate_p&#45;&gt;bi</title>
<path fill="none" stroke="black" d="M889.051,-145.866C890.11,-143.11 907.341,-98.4949 926,-65 926.632,-63.865 927.297,-62.7153 927.982,-61.5629"/>
<polygon fill="black" stroke="black" points="931.091,-63.1946 933.473,-52.8709 925.173,-59.4562 931.091,-63.1946"/>
</g>
<!-- nbc_intermediate_p&#45;&gt;ni -->
<g id="edge12" class="edge"><title>nbc_intermediate_p&#45;&gt;ni</title>
<path fill="none" stroke="black" d="M889.158,-146C890.674,-146 902.878,-146 915.389,-146"/>
<polygon fill="black" stroke="black" points="915.743,-149.5 925.743,-146 915.743,-142.5 915.743,-149.5"/>
</g>
<!-- bcftr -->
<g id="node18" class="node"><title>bcftr</title>
<polygon fill="none" stroke="black" points="422,-18 408,-18 408,-4 422,-4 422,-18"/>
</g>
<!-- bcftr_intermediate_p -->
<g id="node22" class="node"><title>bcftr_intermediate_p</title>
<ellipse fill="black" stroke="black" cx="496" cy="-5" rx="0.036" ry="0.036"/>
</g>
<!-- bcftr&#45;&gt;bcftr_intermediate_p -->
<g id="edge18" class="edge"><title>bcftr&#45;&gt;bcftr_intermediate_p</title>
<path fill="none" stroke="black" d="M422.188,-10.4675C441.392,-9.045 492.659,-5.24747 495.845,-5.01152"/>
</g>
<!-- bcftr_intermediate_r&#45;&gt;bcftr -->
<g id="edge14" class="edge"><title>bcftr_intermediate_r&#45;&gt;bcftr</title>
<path fill="none" stroke="black" d="M345.051,-13.9978C346.748,-13.9251 390.582,-12.0465 407.98,-11.3009"/>
</g>
<!-- bcftr_intermediate_p&#45;&gt;bi -->
<g id="edge20" class="edge"><title>bcftr_intermediate_p&#45;&gt;bi</title>
<path fill="none" stroke="black" d="M496.159,-4.98566C499.423,-4.69238 552.321,-0 595,-0 595,-0 595,-0 845,-0 871.896,-0 900.336,-12.3756 919.798,-23.0019"/>
<polygon fill="black" stroke="black" points="918.165,-26.0996 928.585,-28.0159 921.634,-20.0198 918.165,-26.0996"/>
</g>
<!-- ccftr -->
<g id="node25" class="node"><title>ccftr</title>
<polygon fill="none" stroke="black" points="602,-123 588,-123 588,-109 602,-109 602,-123"/>
</g>
<!-- ccftr_intermediate_p -->
<g id="node29" class="node"><title>ccftr_intermediate_p</title>
<ellipse fill="black" stroke="black" cx="639" cy="-107" rx="0.036" ry="0.036"/>
</g>
<!-- ccftr&#45;&gt;ccftr_intermediate_p -->
<g id="edge26" class="edge"><title>ccftr&#45;&gt;ccftr_intermediate_p</title>
<path fill="none" stroke="black" d="M602.266,-114.514C614.372,-112.037 637.497,-107.308 638.93,-107.014"/>
</g>
<!-- ccftr_intermediate_r&#45;&gt;ccftr -->
<g id="edge22" class="edge"><title>ccftr_intermediate_r&#45;&gt;ccftr</title>
<path fill="none" stroke="black" d="M551.126,-118.991C553.022,-118.862 575.795,-117.309 587.759,-116.494"/>
</g>
<!-- ccftr_intermediate_p&#45;&gt;ci -->
<g id="edge28" class="edge"><title>ccftr_intermediate_p&#45;&gt;ci</title>
<path fill="none" stroke="black" d="M639.158,-106.974C640.699,-106.722 653.285,-104.662 666.011,-102.58"/>
<polygon fill="black" stroke="black" points="666.735,-106.008 676.039,-100.939 665.605,-99.1001 666.735,-106.008"/>
</g>
<!-- apl -->
<g id="node32" class="node"><title>apl</title>
<polygon fill="none" stroke="black" points="352,-48 338,-48 338,-34 352,-34 352,-48"/>
</g>
<!-- apl_intermediate_p -->
<g id="node37" class="node"><title>apl_intermediate_p</title>
<ellipse fill="black" stroke="black" cx="415" cy="-41" rx="0.036" ry="0.036"/>
</g>
<!-- apl&#45;&gt;apl_intermediate_p -->
<g id="edge36" class="edge"><title>apl&#45;&gt;apl_intermediate_p</title>
<path fill="none" stroke="black" d="M352.228,-41C369.554,-41 412.221,-41 414.871,-41"/>
</g>
<!-- apl_intermediate_r&#45;&gt;apl -->
<g id="edge30" class="edge"><title>apl_intermediate_r&#45;&gt;apl</title>
<path fill="none" stroke="black" d="M275.051,-58.987C276.748,-58.5505 320.582,-47.2789 337.98,-42.8052"/>
</g>
<!-- apl_intermediate_p&#45;&gt;bi -->
<g id="edge38" class="edge"><title>apl_intermediate_p&#45;&gt;bi</title>
<path fill="none" stroke="black" d="M415.055,-40.9978C417.357,-40.907 491.486,-38 551,-38 551,-38 551,-38 845,-38 868.783,-38 895.78,-38 915.568,-38"/>
<polygon fill="black" stroke="black" points="915.754,-41.5001 925.753,-38 915.753,-34.5001 915.754,-41.5001"/>
</g>
<!-- apl_intermediate_p&#45;&gt;cl -->
<g id="edge40" class="edge"><title>apl_intermediate_p&#45;&gt;cl</title>
<path fill="none" stroke="black" d="M415.059,-41.0587C416.701,-42.7013 452.447,-78.4467 475.88,-101.88"/>
<polygon fill="black" stroke="black" points="473.451,-104.401 482.997,-108.997 478.401,-99.4512 473.451,-104.401"/>
</g>
<!-- apbl -->
<g id="node41" class="node"><title>apbl</title>
<polygon fill="none" stroke="black" points="852,-120 838,-120 838,-106 852,-106 852,-120"/>
</g>
<!-- apbl_intermediate_p -->
<g id="node46" class="node"><title>apbl_intermediate_p</title>
<ellipse fill="black" stroke="black" cx="889" cy="-92" rx="0.036" ry="0.036"/>
</g>
<!-- apbl&#45;&gt;apbl_intermediate_p -->
<g id="edge48" class="edge"><title>apbl&#45;&gt;apbl_intermediate_p</title>
<path fill="none" stroke="black" d="M852.266,-109.532C864.372,-103.754 887.497,-92.7175 888.93,-92.0334"/>
</g>
<!-- apbl_intermediate_r&#45;&gt;apbl -->
<g id="edge42" class="edge"><title>apbl_intermediate_r&#45;&gt;apbl</title>
<path fill="none" stroke="black" d="M775.051,-119.995C776.748,-119.825 820.582,-115.442 837.98,-113.702"/>
</g>
<!-- apbl_intermediate_p&#45;&gt;cb -->
<g id="edge52" class="edge"><title>apbl_intermediate_p&#45;&gt;cb</title>
<path fill="none" stroke="black" d="M889.158,-92C890.674,-92 902.878,-92 915.389,-92"/>
<polygon fill="black" stroke="black" points="915.743,-95.5001 925.743,-92 915.743,-88.5001 915.743,-95.5001"/>
</g>
<!-- apbl_intermediate_p&#45;&gt;bi -->
<g id="edge50" class="edge"><title>apbl_intermediate_p&#45;&gt;bi</title>
<path fill="none" stroke="black" d="M889.158,-91.8451C891.014,-90.0224 908.896,-72.4658 923.744,-57.8878"/>
<polygon fill="black" stroke="black" points="926.447,-60.1384 931.131,-50.635 921.543,-55.1435 926.447,-60.1384"/>
</g>
<!-- nak -->
<g id="node50" class="node"><title>nak</title>
<polygon fill="none" stroke="black" points="1050,-164 1036,-164 1036,-150 1050,-150 1050,-164"/>
</g>
<!-- nak_intermediate_p -->
<g id="node54" class="node"><title>nak_intermediate_p</title>
<ellipse fill="black" stroke="black" cx="1087" cy="-157" rx="0.036" ry="0.036"/>
</g>
<!-- nak&#45;&gt;nak_intermediate_p -->
<g id="edge58" class="edge"><title>nak&#45;&gt;nak_intermediate_p</title>
<path fill="none" stroke="black" d="M1050.27,-157C1062.37,-157 1085.5,-157 1086.93,-157"/>
</g>
<!-- nak_intermediate_r&#45;&gt;nak -->
<g id="edge54" class="edge"><title>nak_intermediate_r&#45;&gt;nak</title>
<path fill="none" stroke="black" d="M999.126,-151.017C1001.02,-151.276 1023.79,-154.381 1035.76,-156.013"/>
</g>
<!-- nak_intermediate_p&#45;&gt;nb -->
<g id="edge60" class="edge"><title>nak_intermediate_p&#45;&gt;nb</title>
<path fill="none" stroke="black" d="M1087.16,-157C1088.67,-157 1100.88,-157 1113.39,-157"/>
<polygon fill="black" stroke="black" points="1113.74,-160.5 1123.74,-157 1113.74,-153.5 1113.74,-160.5"/>
</g>
<!-- naleak -->
<g id="node57" class="node"><title>naleak</title>
<polygon fill="none" stroke="black" points="1050,-132 1036,-132 1036,-118 1050,-118 1050,-132"/>
</g>
<!-- naleak_intermediate_p -->
<g id="node61" class="node"><title>naleak_intermediate_p</title>
<ellipse fill="black" stroke="black" cx="1087" cy="-132" rx="0.036" ry="0.036"/>
</g>
<!-- naleak&#45;&gt;naleak_intermediate_p -->
<g id="edge66" class="edge"><title>naleak&#45;&gt;naleak_intermediate_p</title>
<path fill="none" stroke="black" d="M1050.27,-126.156C1062.37,-128.082 1085.5,-131.761 1086.93,-131.989"/>
</g>
<!-- naleak_intermediate_r&#45;&gt;naleak -->
<g id="edge62" class="edge"><title>naleak_intermediate_r&#45;&gt;naleak</title>
<path fill="none" stroke="black" d="M999.126,-128.989C1001.02,-128.816 1023.79,-126.746 1035.76,-125.658"/>
</g>
<!-- naleak_intermediate_p&#45;&gt;nb -->
<g id="edge68" class="edge"><title>naleak_intermediate_p&#45;&gt;nb</title>
<path fill="none" stroke="black" d="M1087.16,-132.072C1088.78,-132.809 1102.64,-139.11 1116.02,-145.192"/>
<polygon fill="black" stroke="black" points="1114.95,-148.547 1125.5,-149.499 1117.84,-142.175 1114.95,-148.547"/>
</g>
<!-- buffering -->
<g id="node64" class="node"><title>buffering</title>
<polygon fill="none" stroke="black" points="852,-83 838,-83 838,-69 852,-69 852,-83"/>
</g>
<!-- buffering_intermediate_p -->
<g id="node67" class="node"><title>buffering_intermediate_p</title>
<ellipse fill="black" stroke="black" cx="889" cy="-70" rx="0.036" ry="0.036"/>
</g>
<!-- buffering&#45;&gt;buffering_intermediate_p -->
<g id="edge72" class="edge"><title>buffering&#45;&gt;buffering_intermediate_p</title>
<path fill="none" stroke="black" d="M852.266,-75.0092C864.372,-73.3583 887.497,-70.205 888.93,-70.0095"/>
</g>
<!-- buffering_empty -->
<g id="node65" class="node"><title>buffering_empty</title>
<text text-anchor="middle" x="775" y="-79.5" font-family="Times Roman,serif" font-size="15.00" fill="blue">Ø</text>
</g>
<!-- buffering_empty&#45;&gt;buffering -->
<g id="edge70" class="edge"><title>buffering_empty&#45;&gt;buffering</title>
<path fill="none" stroke="black" d="M802.264,-80.8841C815.163,-79.41 829.537,-77.7672 837.895,-76.812"/>
</g>
<!-- buffering_intermediate_p&#45;&gt;bi -->
<g id="edge74" class="edge"><title>buffering_intermediate_p&#45;&gt;bi</title>
<path fill="none" stroke="black" d="M889.158,-69.9082C890.843,-68.9279 905.729,-60.2668 919.566,-52.216"/>
<polygon fill="black" stroke="black" points="921.475,-55.1546 928.359,-47.1004 917.955,-49.1041 921.475,-55.1546"/>
</g>
<!-- bac -->
<g id="node70" class="node"><title>bac</title>
<polygon fill="none" stroke="black" points="104,-66 90,-66 90,-52 104,-52 104,-66"/>
</g>
<!-- bac_intermediate_p -->
<g id="node73" class="node"><title>bac_intermediate_p</title>
<ellipse fill="black" stroke="black" cx="140" cy="-59" rx="0.036" ry="0.036"/>
</g>
<!-- bac&#45;&gt;bac_intermediate_p -->
<g id="edge78" class="edge"><title>bac&#45;&gt;bac_intermediate_p</title>
<path fill="none" stroke="black" d="M104.101,-59C115.932,-59 138.531,-59 139.932,-59"/>
</g>
<!-- bac_empty -->
<g id="node71" class="node"><title>bac_empty</title>
<text text-anchor="middle" x="27" y="-54.5" font-family="Times Roman,serif" font-size="15.00" fill="blue">Ø</text>
</g>
<!-- bac_empty&#45;&gt;bac -->
<g id="edge76" class="edge"><title>bac_empty&#45;&gt;bac</title>
<path fill="none" stroke="black" d="M54.2643,-59C67.1627,-59 81.5367,-59 89.8947,-59"/>
</g>
<!-- bac_intermediate_p&#45;&gt;bl -->
<g id="edge80" class="edge"><title>bac_intermediate_p&#45;&gt;bl</title>
<path fill="none" stroke="black" d="M140.155,-59C141.634,-59 153.471,-59 165.67,-59"/>
<polygon fill="black" stroke="black" points="165.784,-62.5001 175.784,-59 165.784,-55.5001 165.784,-62.5001"/>
</g>
<!-- cac -->
<g id="node76" class="node"><title>cac</title>
<polygon fill="none" stroke="black" points="352,-165 338,-165 338,-151 352,-151 352,-165"/>
</g>
<!-- cac_intermediate_p -->
<g id="node79" class="node"><title>cac_intermediate_p</title>
<ellipse fill="black" stroke="black" cx="415" cy="-158" rx="0.036" ry="0.036"/>
</g>
<!-- cac&#45;&gt;cac_intermediate_p -->
<g id="edge84" class="edge"><title>cac&#45;&gt;cac_intermediate_p</title>
<path fill="none" stroke="black" d="M352.228,-158C369.554,-158 412.221,-158 414.871,-158"/>
</g>
<!-- cac_empty -->
<g id="node77" class="node"><title>cac_empty</title>
<text text-anchor="middle" x="275" y="-153.5" font-family="Times Roman,serif" font-size="15.00" fill="blue">Ø</text>
</g>
<!-- cac_empty&#45;&gt;cac -->
<g id="edge82" class="edge"><title>cac_empty&#45;&gt;cac</title>
<path fill="none" stroke="black" d="M302.264,-158C315.163,-158 329.537,-158 337.895,-158"/>
</g>
<!-- cac_intermediate_p&#45;&gt;cl -->
<g id="edge86" class="edge"><title>cac_intermediate_p&#45;&gt;cl</title>
<path fill="none" stroke="black" d="M415.044,-157.988C415.954,-157.739 430.679,-153.689 442,-149 451.529,-145.053 461.712,-140.151 470.637,-135.611"/>
<polygon fill="black" stroke="black" points="472.473,-138.601 479.738,-130.889 469.25,-132.388 472.473,-138.601"/>
</g>
<!-- outflow -->
<g id="node82" class="node"><title>outflow</title>
<polygon fill="none" stroke="black" points="352,-129 338,-129 338,-115 352,-115 352,-129"/>
</g>
<!-- outflow_empty -->
<g id="node86" class="node"><title>outflow_empty</title>
<text text-anchor="middle" x="415" y="-117.5" font-family="Times Roman,serif" font-size="15.00" fill="blue">Ø</text>
</g>
<!-- outflow&#45;&gt;outflow_empty -->
<g id="edge92" class="edge"><title>outflow&#45;&gt;outflow_empty</title>
<path fill="none" stroke="black" d="M352.228,-122C358.45,-122 367.94,-122 377.672,-122"/>
<polygon fill="black" stroke="black" points="377.773,-125.5 387.773,-122 377.773,-118.5 377.773,-125.5"/>
</g>
<!-- outflow_intermediate_r&#45;&gt;outflow -->
<g id="edge88" class="edge"><title>outflow_intermediate_r&#45;&gt;outflow</title>
<path fill="none" stroke="black" d="M275.051,-100.016C276.748,-100.549 320.582,-114.326 337.98,-119.794"/>
</g>
</g>
</svg>
