<?xml version="1.0" encoding="UTF-8" standalone="no"?>
<!DOCTYPE svg PUBLIC "-//W3C//DTD SVG 1.1//EN"
 "http://www.w3.org/Graphics/SVG/1.1/DTD/svg11.dtd">
<!-- Generated by graphviz version 2.30.1 (20140821.0912)
 -->
<!-- Title: G Pages: 1 -->
<svg width="2750pt" height="395pt"
 viewBox="0.00 0.00 2750.00 395.00" xmlns="http://www.w3.org/2000/svg" xmlns:xlink="http://www.w3.org/1999/xlink">
<g id="graph0" class="graph" transform="scale(1 1) rotate(0) translate(4 391)">
<title>G</title>
<polygon fill="white" stroke="white" points="-4,5 -4,-391 2747,-391 2747,5 -4,5"/>
<!-- Arg -->
<g id="Arg [CHEBI:29016]" class="node"><title>Arg</title>
<ellipse fill="none" stroke="black" cx="194" cy="-335" rx="18" ry="18"/>
<text text-anchor="middle" x="194" y="-332.5" font-family="Times,serif" font-size="10.00">Arg</text>
</g>
<!-- Fe3__Arg_synthesis_intermediate_r -->
<g id="node17" class="node"><title>Fe3__Arg_synthesis_intermediate_r</title>
<ellipse fill="black" stroke="black" cx="249" cy="-297" rx="0.036" ry="0.036"/>
</g>
<!-- Arg&#45;&gt;Fe3__Arg_synthesis_intermediate_r -->
<g id="edge2" class="edge"><title>Arg&#45;&gt;Fe3__Arg_synthesis_intermediate_r</title>
<path fill="none" stroke="black" d="M209.203,-324.817C224.412,-313.912 246.564,-298.03 247.933,-297.048"/>
</g>
<!-- Fe2__Arg_synthesis_dissociation_intermediate_r -->
<g id="node20" class="node"><title>Fe2__Arg_synthesis_dissociation_intermediate_r</title>
<ellipse fill="black" stroke="black" cx="2655" cy="-311" rx="0.036" ry="0.036"/>
</g>
<!-- Arg&#45;&gt;Fe2__Arg_synthesis_dissociation_intermediate_r -->
<g id="edge7" class="edge"><title>Arg&#45;&gt;Fe2__Arg_synthesis_dissociation_intermediate_r</title>
<path fill="none" stroke="black" d="M207.645,-347.061C225.134,-362.422 258.371,-387 292,-387 292,-387 292,-387 2502,-387 2576.35,-387 2651.61,-313.356 2653.94,-311.055"/>
</g>
<!-- Fe3__enos -->
<g id="Fe3__enos [CHEBI:29034]" class="node"><title>Fe3__enos</title>
<ellipse fill="none" stroke="black" cx="2383" cy="-81" rx="36.4942" ry="18"/>
<text text-anchor="middle" x="2383" y="-78.5" font-family="Times,serif" font-size="10.00">Fe3+(enos)</text>
</g>
<!-- Fe3__enos&#45;&gt;Fe3__Arg_synthesis_intermediate_r -->
<g id="edge3" class="edge"><title>Fe3__enos&#45;&gt;Fe3__Arg_synthesis_intermediate_r</title>
<path fill="none" stroke="black" d="M2369.41,-64.2167C2350.04,-40.4913 2310.46,-0 2266,-0 336,-0 336,-0 336,-0 267.826,-0 250.273,-292.378 250.003,-296.946"/>
</g>
<!-- Fe2__formation_intermediate_r -->
<g id="node26" class="node"><title>Fe2__formation_intermediate_r</title>
<ellipse fill="black" stroke="black" cx="2457" cy="-86" rx="0.036" ry="0.036"/>
</g>
<!-- Fe3__enos&#45;&gt;Fe2__formation_intermediate_r -->
<g id="edge15" class="edge"><title>Fe3__enos&#45;&gt;Fe2__formation_intermediate_r</title>
<path fill="none" stroke="black" d="M2419.58,-83.4707C2437.15,-84.691 2454.86,-85.9207 2455.95,-85.9963"/>
</g>
<!-- Fe3__Arg -->
<g id="Fe3__Arg [CHEBI:29034] [CHEBI:29016]" class="node"><title>Fe3__Arg</title>
<ellipse fill="none" stroke="black" cx="409" cy="-297" rx="34.9638" ry="18"/>
<text text-anchor="middle" x="409" y="-294.5" font-family="Times,serif" font-size="10.00">Fe3+_Arg</text>
</g>
<!-- Fe2__Arg_formation_intermediate_r -->
<g id="node39" class="node"><title>Fe2__Arg_formation_intermediate_r</title>
<ellipse fill="black" stroke="black" cx="481" cy="-297" rx="0.036" ry="0.036"/>
</g>
<!-- Fe3__Arg&#45;&gt;Fe2__Arg_formation_intermediate_r -->
<g id="edge35" class="edge"><title>Fe3__Arg&#45;&gt;Fe2__Arg_formation_intermediate_r</title>
<path fill="none" stroke="black" d="M443.77,-297C461.111,-297 478.855,-297 479.947,-297"/>
</g>
<!-- Fe2 -->
<g id="Fe2 [CHEBI:29033]" class="node"><title>Fe2</title>
<ellipse fill="none" stroke="black" cx="2600" cy="-127" rx="18" ry="18"/>
<text text-anchor="middle" x="2600" y="-124.5" font-family="Times,serif" font-size="10.00">Fe2+</text>
</g>
<!-- Fe2&#45;&gt;Fe2__Arg_synthesis_dissociation_intermediate_r -->
<g id="edge8" class="edge"><title>Fe2&#45;&gt;Fe2__Arg_synthesis_dissociation_intermediate_r</title>
<path fill="none" stroke="black" d="M2605.99,-144.31C2618.97,-189.399 2652.92,-307.241 2653.97,-310.912"/>
</g>
<!-- Fe2__Arg -->
<g id="Fe2__Arg [CHEBI:29016] [CHEBI:29033]" class="node"><title>Fe2__Arg</title>
<ellipse fill="none" stroke="black" cx="641" cy="-297" rx="34.9638" ry="18"/>
<text text-anchor="middle" x="641" y="-294.5" font-family="Times,serif" font-size="10.00">Fe2+_Arg</text>
</g>
<!-- Fe3__O2_Arg_formation_with_Oxygen_activation_intermediate_r -->
<g id="node45" class="node"><title>Fe3__O2_Arg_formation_with_Oxygen_activation_intermediate_r</title>
<ellipse fill="black" stroke="black" cx="713" cy="-297" rx="0.036" ry="0.036"/>
</g>
<!-- Fe2__Arg&#45;&gt;Fe3__O2_Arg_formation_with_Oxygen_activation_intermediate_r -->
<g id="edge44" class="edge"><title>Fe2__Arg&#45;&gt;Fe3__O2_Arg_formation_with_Oxygen_activation_intermediate_r</title>
<path fill="none" stroke="black" d="M675.77,-297C693.111,-297 710.855,-297 711.947,-297"/>
</g>
<!-- Fe3__NO -->
<g id="Fe3__NO [CHEBI:29034] [CHEBI:16480]" class="node"><title>Fe3__NO</title>
<ellipse fill="none" stroke="black" cx="1920" cy="-231" rx="34.2855" ry="18"/>
<text text-anchor="middle" x="1920" y="-228.5" font-family="Times,serif" font-size="10.00">Fe3+_NO</text>
</g>
<!-- Fe3__and_NO_formation_intermediate_r -->
<g id="node29" class="node"><title>Fe3__and_NO_formation_intermediate_r</title>
<ellipse fill="black" stroke="black" cx="1991" cy="-231" rx="0.036" ry="0.036"/>
</g>
<!-- Fe3__NO&#45;&gt;Fe3__and_NO_formation_intermediate_r -->
<g id="edge19" class="edge"><title>Fe3__NO&#45;&gt;Fe3__and_NO_formation_intermediate_r</title>
<path fill="none" stroke="black" d="M1954.29,-231C1971.38,-231 1988.87,-231 1989.95,-231"/>
</g>
<!-- Fe2__NO_synthesis_intermediate_r -->
<g id="node65" class="node"><title>Fe2__NO_synthesis_intermediate_r</title>
<ellipse fill="black" stroke="black" cx="1991" cy="-206" rx="0.036" ry="0.036"/>
</g>
<!-- Fe3__NO&#45;&gt;Fe2__NO_synthesis_intermediate_r -->
<g id="edge73" class="edge"><title>Fe3__NO&#45;&gt;Fe2__NO_synthesis_intermediate_r</title>
<path fill="none" stroke="black" d="M1948.67,-220.976C1967.26,-214.238 1988.62,-206.5 1989.94,-206.023"/>
</g>
<!-- NO -->
<g id="NO [CHEBI:16480]" class="node"><title>NO</title>
<ellipse fill="none" stroke="black" cx="2150" cy="-227" rx="18" ry="18"/>
<text text-anchor="middle" x="2150" y="-224.5" font-family="Times,serif" font-size="10.00">NO</text>
</g>
<!-- Fe2__NO -->
<g id="Fe2__NO [CHEBI:29033] [CHEBI:16480]" class="node"><title>Fe2__NO</title>
<ellipse fill="none" stroke="black" cx="2150" cy="-173" rx="34.2855" ry="18"/>
<text text-anchor="middle" x="2150" y="-170.5" font-family="Times,serif" font-size="10.00">Fe2+_NO</text>
</g>
<!-- Fe3__formation_intermediate_r -->
<g id="node32" class="node"><title>Fe3__formation_intermediate_r</title>
<ellipse fill="black" stroke="black" cx="2221" cy="-173" rx="0.036" ry="0.036"/>
</g>
<!-- Fe2__NO&#45;&gt;Fe3__formation_intermediate_r -->
<g id="edge24" class="edge"><title>Fe2__NO&#45;&gt;Fe3__formation_intermediate_r</title>
<path fill="none" stroke="black" d="M2184.29,-173C2201.38,-173 2218.87,-173 2219.95,-173"/>
</g>
<!-- Fe3__NOHA -->
<g id="Fe3__NOHA [CHEBI:29034] [CHEBI:47830]" class="node"><title>Fe3__NOHA</title>
<ellipse fill="none" stroke="black" cx="1137" cy="-168" rx="42.9448" ry="18"/>
<text text-anchor="middle" x="1137" y="-165.5" font-family="Times,serif" font-size="10.00">Fe3+_NOHA</text>
</g>
<!-- Fe3__NOHA_formation_degradation_intermediate_r -->
<g id="node36" class="node"><title>Fe3__NOHA_formation_degradation_intermediate_r</title>
<ellipse fill="black" stroke="black" cx="1217" cy="-138" rx="0.036" ry="0.036"/>
</g>
<!-- Fe3__NOHA&#45;&gt;Fe3__NOHA_formation_degradation_intermediate_r -->
<g id="edge30" class="edge"><title>Fe3__NOHA&#45;&gt;Fe3__NOHA_formation_degradation_intermediate_r</title>
<path fill="none" stroke="black" d="M1169.28,-155.971C1190.3,-147.885 1214.44,-138.6 1215.93,-138.028"/>
</g>
<!-- Fe2__NOHA_synthesis_intermediate_r -->
<g id="node55" class="node"><title>Fe2__NOHA_synthesis_intermediate_r</title>
<ellipse fill="black" stroke="black" cx="1217" cy="-168" rx="0.036" ry="0.036"/>
</g>
<!-- Fe3__NOHA&#45;&gt;Fe2__NOHA_synthesis_intermediate_r -->
<g id="edge58" class="edge"><title>Fe3__NOHA&#45;&gt;Fe2__NOHA_synthesis_intermediate_r</title>
<path fill="none" stroke="black" d="M1180.2,-168C1198,-168 1214.91,-168 1215.95,-168"/>
</g>
<!-- NOHA -->
<g id="NOHA [CHEBI:47830]" class="node"><title>NOHA</title>
<ellipse fill="none" stroke="black" cx="1668" cy="-84" rx="18" ry="18"/>
<text text-anchor="middle" x="1668" y="-81.5" font-family="Times,serif" font-size="10.00">NOHA</text>
</g>
<!-- Fe2__NOHA -->
<g id="Fe2__NOHA [CHEBI:29033] [CHEBI:47830]" class="node"><title>Fe2__NOHA</title>
<ellipse fill="none" stroke="black" cx="1385" cy="-168" rx="42.9448" ry="18"/>
<text text-anchor="middle" x="1385" y="-165.5" font-family="Times,serif" font-size="10.00">Fe2+_NOHA</text>
</g>
<!-- Fe2__NOHA_formation_intermediate_r -->
<g id="node42" class="node"><title>Fe2__NOHA_formation_intermediate_r</title>
<ellipse fill="black" stroke="black" cx="1465" cy="-136" rx="0.036" ry="0.036"/>
</g>
<!-- Fe2__NOHA&#45;&gt;Fe2__NOHA_formation_intermediate_r -->
<g id="edge39" class="edge"><title>Fe2__NOHA&#45;&gt;Fe2__NOHA_formation_intermediate_r</title>
<path fill="none" stroke="black" d="M1416.38,-155.536C1437.6,-146.832 1462.4,-136.658 1463.93,-136.031"/>
</g>
<!-- Fe3__O2__NOHA_synthesis_with_Oxygen_activation_intermediate_r -->
<g id="node58" class="node"><title>Fe3__O2__NOHA_synthesis_with_Oxygen_activation_intermediate_r</title>
<ellipse fill="black" stroke="black" cx="1465" cy="-208" rx="0.036" ry="0.036"/>
</g>
<!-- Fe2__NOHA&#45;&gt;Fe3__O2__NOHA_synthesis_with_Oxygen_activation_intermediate_r -->
<g id="edge62" class="edge"><title>Fe2__NOHA&#45;&gt;Fe3__O2__NOHA_synthesis_with_Oxygen_activation_intermediate_r</title>
<path fill="none" stroke="black" d="M1412.84,-181.766C1434.7,-192.975 1462.22,-207.087 1463.92,-207.958"/>
</g>
<!-- O2 -->
<g id="O2 [CHEBI:15379]" class="node"><title>O2</title>
<ellipse fill="none" stroke="black" cx="1520" cy="-265" rx="18" ry="18"/>
<text text-anchor="middle" x="1520" y="-262.5" font-family="Times,serif" font-size="10.00">O2</text>
</g>
<!-- Fe3__formation_intermediate_m -->
<g id="node34" class="node"><title>Fe3__formation_intermediate_m</title>
<ellipse fill="black" stroke="black" cx="2309" cy="-204" rx="0.036" ry="0.036"/>
</g>
<!-- O2&#45;&gt;Fe3__formation_intermediate_m -->
<g id="edge28" class="edge"><title>O2&#45;&gt;Fe3__formation_intermediate_m</title>
<path fill="none" stroke="black" d="M1538.22,-267.672C1603.04,-277.49 1838.62,-311 2034,-311 2034,-311 2034,-311 2151,-311 2234.12,-311 2305.73,-207.318 2307.95,-204.078"/>
</g>
<!-- Fe3__O2_Arg_formation_with_Oxygen_activation_intermediate_m -->
<g id="node47" class="node"><title>Fe3__O2_Arg_formation_with_Oxygen_activation_intermediate_m</title>
<ellipse fill="black" stroke="black" cx="1575" cy="-321" rx="0.036" ry="0.036"/>
</g>
<!-- O2&#45;&gt;Fe3__O2_Arg_formation_with_Oxygen_activation_intermediate_m -->
<g id="edge48" class="edge"><title>O2&#45;&gt;Fe3__O2_Arg_formation_with_Oxygen_activation_intermediate_m</title>
<path fill="none" stroke="black" d="M1533.03,-277.707C1548.18,-293.713 1572.43,-319.337 1573.93,-320.923"/>
</g>
<!-- Fe3__O2__NOHA_synthesis_with_Oxygen_activation_intermediate_m -->
<g id="node60" class="node"><title>Fe3__O2__NOHA_synthesis_with_Oxygen_activation_intermediate_m</title>
<ellipse fill="black" stroke="black" cx="1575" cy="-250" rx="0.036" ry="0.036"/>
</g>
<!-- O2&#45;&gt;Fe3__O2__NOHA_synthesis_with_Oxygen_activation_intermediate_m -->
<g id="edge66" class="edge"><title>O2&#45;&gt;Fe3__O2__NOHA_synthesis_with_Oxygen_activation_intermediate_m</title>
<path fill="none" stroke="black" d="M1537.48,-260.336C1552.55,-256.07 1572.7,-250.369 1573.94,-250.017"/>
</g>
<!-- Fe3__O2__Arg -->
<g id="Fe3__O2__Arg [CHEBI:15379] [CHEBI:29016] [CHEBI:29034]" class="node"><title>Fe3__O2__Arg</title>
<ellipse fill="none" stroke="black" cx="885" cy="-265" rx="47.1863" ry="18"/>
<text text-anchor="middle" x="885" y="-262.5" font-family="Times,serif" font-size="10.00">Fe3+_O2&#45;_Arg</text>
</g>
<!-- Fe3__O2_Arg_degradation_intermediate_r -->
<g id="node49" class="node"><title>Fe3__O2_Arg_degradation_intermediate_r</title>
<ellipse fill="black" stroke="black" cx="969" cy="-246" rx="0.036" ry="0.036"/>
</g>
<!-- Fe3__O2__Arg&#45;&gt;Fe3__O2_Arg_degradation_intermediate_r -->
<g id="edge50" class="edge"><title>Fe3__O2__Arg&#45;&gt;Fe3__O2_Arg_degradation_intermediate_r</title>
<path fill="none" stroke="black" d="M925.559,-255.834C945.873,-251.127 966.658,-246.311 967.938,-246.014"/>
</g>
<!-- Fe3__NOHA_synthesis_intermediate_r -->
<g id="node52" class="node"><title>Fe3__NOHA_synthesis_intermediate_r</title>
<ellipse fill="black" stroke="black" cx="969" cy="-270" rx="0.036" ry="0.036"/>
</g>
<!-- Fe3__O2__Arg&#45;&gt;Fe3__NOHA_synthesis_intermediate_r -->
<g id="edge54" class="edge"><title>Fe3__O2__Arg&#45;&gt;Fe3__NOHA_synthesis_intermediate_r</title>
<path fill="none" stroke="black" d="M931.795,-267.792C949.991,-268.902 966.91,-269.934 967.949,-269.997"/>
</g>
<!-- Fe3__O2__NOHA -->
<g id="Fe3__O2__NOHA [CHEBI:15379] [CHEBI:29034] [CHEBI:47830]" class="node"><title>Fe3__O2__NOHA</title>
<ellipse fill="none" stroke="black" cx="1668" cy="-217" rx="55.1691" ry="18"/>
<text text-anchor="middle" x="1668" y="-214.5" font-family="Times,serif" font-size="10.00">Fe3+_O2&#45;_NOHA</text>
</g>
<!-- Fe3__NO_and_Citrulline_synthesis_intermediate_r -->
<g id="node62" class="node"><title>Fe3__NO_and_Citrulline_synthesis_intermediate_r</title>
<ellipse fill="black" stroke="black" cx="1761" cy="-231" rx="0.036" ry="0.036"/>
</g>
<!-- Fe3__O2__NOHA&#45;&gt;Fe3__NO_and_Citrulline_synthesis_intermediate_r -->
<g id="edge68" class="edge"><title>Fe3__O2__NOHA&#45;&gt;Fe3__NO_and_Citrulline_synthesis_intermediate_r</title>
<path fill="none" stroke="black" d="M1718.23,-224.574C1739,-227.769 1758.73,-230.804 1759.94,-230.991"/>
</g>
<!-- Fe3__O2__NOHA_degradation_intermediate_r -->
<g id="node68" class="node"><title>Fe3__O2__NOHA_degradation_intermediate_r</title>
<ellipse fill="black" stroke="black" cx="1761" cy="-206" rx="0.036" ry="0.036"/>
</g>
<!-- Fe3__O2__NOHA&#45;&gt;Fe3__O2__NOHA_degradation_intermediate_r -->
<g id="edge77" class="edge"><title>Fe3__O2__NOHA&#45;&gt;Fe3__O2__NOHA_degradation_intermediate_r</title>
<path fill="none" stroke="black" d="M1720.09,-210.825C1740.18,-208.396 1758.8,-206.145 1759.94,-206.007"/>
</g>
<!-- Citrulline -->
<g id="Citrulline [CHEBI:18211]" class="node"><title>Citrulline</title>
<ellipse fill="none" stroke="black" cx="1920" cy="-177" rx="32.9303" ry="18"/>
<text text-anchor="middle" x="1920" y="-174.5" font-family="Times,serif" font-size="10.00">Citrulline</text>
</g>
<!-- Fe3__Arg_synthesis -->
<g id="node16" class="node"><title>Fe3__Arg_synthesis</title>
<polygon fill="none" stroke="black" points="300,-304 286,-304 286,-290 300,-290 300,-304"/>
</g>
<!-- Fe3__Arg_synthesis_intermediate_p -->
<g id="node18" class="node"><title>Fe3__Arg_synthesis_intermediate_p</title>
<ellipse fill="black" stroke="black" cx="337" cy="-297" rx="0.036" ry="0.036"/>
</g>
<!-- Fe3__Arg_synthesis&#45;&gt;Fe3__Arg_synthesis_intermediate_p -->
<g id="edge4" class="edge"><title>Fe3__Arg_synthesis&#45;&gt;Fe3__Arg_synthesis_intermediate_p</title>
<path fill="none" stroke="black" d="M300.197,-297C311.515,-297 334.505,-297 335.93,-297"/>
</g>
<!-- Fe3__Arg_synthesis_intermediate_r&#45;&gt;Fe3__Arg_synthesis -->
<g id="edge1" class="edge"><title>Fe3__Arg_synthesis_intermediate_r&#45;&gt;Fe3__Arg_synthesis</title>
<path fill="none" stroke="black" d="M250.12,-297C251.968,-297 274.602,-297 285.803,-297"/>
</g>
<!-- Fe3__Arg_synthesis_intermediate_p&#45;&gt;Fe3__Arg -->
<g id="edge5" class="edge"><title>Fe3__Arg_synthesis_intermediate_p&#45;&gt;Fe3__Arg</title>
<path fill="none" stroke="black" d="M338.051,-297C338.91,-297 350.574,-297 364.138,-297"/>
<polygon fill="black" stroke="black" points="364.224,-300.5 374.224,-297 364.224,-293.5 364.224,-300.5"/>
</g>
<!-- Fe2__Arg_synthesis_dissociation -->
<g id="node19" class="node"><title>Fe2__Arg_synthesis_dissociation</title>
<polygon fill="none" stroke="black" points="2706,-319 2692,-319 2692,-305 2706,-305 2706,-319"/>
</g>
<!-- Fe2__Arg_synthesis_dissociation_intermediate_p -->
<g id="node21" class="node"><title>Fe2__Arg_synthesis_dissociation_intermediate_p</title>
<ellipse fill="black" stroke="black" cx="2742" cy="-330" rx="0.036" ry="0.036"/>
</g>
<!-- Fe2__Arg_synthesis_dissociation&#45;&gt;Fe2__Arg_synthesis_dissociation_intermediate_p -->
<g id="edge9" class="edge"><title>Fe2__Arg_synthesis_dissociation&#45;&gt;Fe2__Arg_synthesis_dissociation_intermediate_p</title>
<path fill="none" stroke="black" d="M2706.05,-314.656C2717.1,-319.506 2739.54,-329.359 2740.93,-329.97"/>
</g>
<!-- Fe2__Arg_synthesis_dissociation_intermediate_r&#45;&gt;Fe2__Arg_synthesis_dissociation -->
<g id="edge6" class="edge"><title>Fe2__Arg_synthesis_dissociation_intermediate_r&#45;&gt;Fe2__Arg_synthesis_dissociation</title>
<path fill="none" stroke="black" d="M2656.12,-311.003C2657.97,-311.047 2680.6,-311.586 2691.8,-311.852"/>
</g>
<!-- Fe2__Arg_synthesis_dissociation_intermediate_p&#45;&gt;Fe2__Arg -->
<g id="edge10" class="edge"><title>Fe2__Arg_synthesis_dissociation_intermediate_p&#45;&gt;Fe2__Arg</title>
<path fill="none" stroke="black" d="M2740.87,-330.055C2738.11,-331.169 2693.5,-349 2656,-349 756,-349 756,-349 756,-349 724.262,-349 691.672,-332.11 669.51,-317.582"/>
<polygon fill="black" stroke="black" points="671.208,-314.503 660.973,-311.762 667.264,-320.287 671.208,-314.503"/>
</g>
<!-- Arginine_synthesis -->
<g id="node22" class="node"><title>Arginine_synthesis</title>
<polygon fill="none" stroke="black" points="104,-342 90,-342 90,-328 104,-328 104,-342"/>
</g>
<!-- Arginine_synthesis_intermediate_p -->
<g id="node24" class="node"><title>Arginine_synthesis_intermediate_p</title>
<ellipse fill="black" stroke="black" cx="140" cy="-335" rx="0.036" ry="0.036"/>
</g>
<!-- Arginine_synthesis&#45;&gt;Arginine_synthesis_intermediate_p -->
<g id="edge12" class="edge"><title>Arginine_synthesis&#45;&gt;Arginine_synthesis_intermediate_p</title>
<path fill="none" stroke="black" d="M104.05,-335C115.098,-335 137.54,-335 138.932,-335"/>
</g>
<!-- Arginine_synthesis_empty -->
<g id="node23" class="node"><title>Arginine_synthesis_empty</title>
<text text-anchor="middle" x="27" y="-331.5" font-family="Times,serif" font-size="15.00" fill="blue">Ø</text>
</g>
<!-- Arginine_synthesis_empty&#45;&gt;Arginine_synthesis -->
<g id="edge11" class="edge"><title>Arginine_synthesis_empty&#45;&gt;Arginine_synthesis</title>
<path fill="none" stroke="black" d="M54.0961,-335C67.13,-335 81.8045,-335 89.8681,-335"/>
</g>
<!-- Arginine_synthesis_intermediate_p&#45;&gt;Arg -->
<g id="edge13" class="edge"><title>Arginine_synthesis_intermediate_p&#45;&gt;Arg</title>
<path fill="none" stroke="black" d="M141.149,-335C142.568,-335 153.891,-335 165.595,-335"/>
<polygon fill="black" stroke="black" points="165.739,-338.5 175.739,-335 165.739,-331.5 165.739,-338.5"/>
</g>
<!-- Fe2__formation -->
<g id="node25" class="node"><title>Fe2__formation</title>
<polygon fill="none" stroke="black" points="2508,-96 2494,-96 2494,-82 2508,-82 2508,-96"/>
</g>
<!-- Fe2__formation_intermediate_p -->
<g id="node27" class="node"><title>Fe2__formation_intermediate_p</title>
<ellipse fill="black" stroke="black" cx="2545" cy="-94" rx="0.036" ry="0.036"/>
</g>
<!-- Fe2__formation&#45;&gt;Fe2__formation_intermediate_p -->
<g id="edge16" class="edge"><title>Fe2__formation&#45;&gt;Fe2__formation_intermediate_p</title>
<path fill="none" stroke="black" d="M2508.2,-89.7378C2519.52,-91.0851 2542.5,-93.822 2543.93,-93.9917"/>
</g>
<!-- Fe2__formation_intermediate_r&#45;&gt;Fe2__formation -->
<g id="edge14" class="edge"><title>Fe2__formation_intermediate_r&#45;&gt;Fe2__formation</title>
<path fill="none" stroke="black" d="M2458.12,-86.0086C2459.97,-86.1406 2482.6,-87.7573 2493.8,-88.5573"/>
</g>
<!-- Fe2__formation_intermediate_p&#45;&gt;Fe2 -->
<g id="edge17" class="edge"><title>Fe2__formation_intermediate_p&#45;&gt;Fe2</title>
<path fill="none" stroke="black" d="M2546.15,-94.0947C2547.79,-95.1119 2562.3,-104.147 2575.7,-112.493"/>
<polygon fill="black" stroke="black" points="2573.86,-115.471 2584.2,-117.786 2577.56,-109.529 2573.86,-115.471"/>
</g>
<!-- Fe3__and_NO_formation -->
<g id="node28" class="node"><title>Fe3__and_NO_formation</title>
<polygon fill="none" stroke="black" points="2042,-238 2028,-238 2028,-224 2042,-224 2042,-238"/>
</g>
<!-- Fe3__and_NO_formation_intermediate_p -->
<g id="node30" class="node"><title>Fe3__and_NO_formation_intermediate_p</title>
<ellipse fill="black" stroke="black" cx="2079" cy="-231" rx="0.036" ry="0.036"/>
</g>
<!-- Fe3__and_NO_formation&#45;&gt;Fe3__and_NO_formation_intermediate_p -->
<g id="edge20" class="edge"><title>Fe3__and_NO_formation&#45;&gt;Fe3__and_NO_formation_intermediate_p</title>
<path fill="none" stroke="black" d="M2042.2,-231C2053.52,-231 2076.5,-231 2077.93,-231"/>
</g>
<!-- Fe3__and_NO_formation_intermediate_r&#45;&gt;Fe3__and_NO_formation -->
<g id="edge18" class="edge"><title>Fe3__and_NO_formation_intermediate_r&#45;&gt;Fe3__and_NO_formation</title>
<path fill="none" stroke="black" d="M1992.12,-231C1993.97,-231 2016.6,-231 2027.8,-231"/>
</g>
<!-- Fe3__and_NO_formation_intermediate_p&#45;&gt;Fe3__enos -->
<g id="edge21" class="edge"><title>Fe3__and_NO_formation_intermediate_p&#45;&gt;Fe3__enos</title>
<path fill="none" stroke="black" d="M2080.05,-231.046C2081.14,-231.994 2098.88,-247.27 2116,-254 2159.73,-271.193 2173.01,-273 2220,-273 2220,-273 2220,-273 2266,-273 2341.6,-273 2369.25,-162.595 2378.2,-109.226"/>
<polygon fill="black" stroke="black" points="2381.7,-109.484 2379.79,-99.0629 2374.78,-108.4 2381.7,-109.484"/>
</g>
<!-- Fe3__and_NO_formation_intermediate_p&#45;&gt;NO -->
<g id="edge22" class="edge"><title>Fe3__and_NO_formation_intermediate_p&#45;&gt;NO</title>
<path fill="none" stroke="black" d="M2080.05,-230.997C2081.22,-230.929 2102.78,-229.68 2121.48,-228.595"/>
<polygon fill="black" stroke="black" points="2121.92,-232.076 2131.71,-228.003 2121.52,-225.087 2121.92,-232.076"/>
</g>
<!-- Fe3__formation -->
<g id="node31" class="node"><title>Fe3__formation</title>
<polygon fill="none" stroke="black" points="2272,-180 2258,-180 2258,-166 2272,-166 2272,-180"/>
</g>
<!-- Fe3__formation_intermediate_p -->
<g id="node33" class="node"><title>Fe3__formation_intermediate_p</title>
<ellipse fill="black" stroke="black" cx="2309" cy="-90" rx="0.036" ry="0.036"/>
</g>
<!-- Fe3__formation&#45;&gt;Fe3__formation_intermediate_p -->
<g id="edge25" class="edge"><title>Fe3__formation&#45;&gt;Fe3__formation_intermediate_p</title>
<path fill="none" stroke="black" d="M2269.58,-165.923C2279.42,-146.479 2306.25,-93.4558 2307.92,-90.1608"/>
</g>
<!-- Fe3__formation&#45;&gt;Fe3__formation_intermediate_m -->
<g id="edge27" class="edge"><title>Fe3__formation&#45;&gt;Fe3__formation_intermediate_m</title>
<path fill="none" stroke="black" d="M2272.2,-177.574C2283.52,-185.928 2306.5,-202.896 2307.93,-203.949"/>
</g>
<!-- Fe3__formation_intermediate_r&#45;&gt;Fe3__formation -->
<g id="edge23" class="edge"><title>Fe3__formation_intermediate_r&#45;&gt;Fe3__formation</title>
<path fill="none" stroke="black" d="M2222.12,-173C2223.97,-173 2246.6,-173 2257.8,-173"/>
</g>
<!-- Fe3__formation_intermediate_p&#45;&gt;Fe3__enos -->
<g id="edge26" class="edge"><title>Fe3__formation_intermediate_p&#45;&gt;Fe3__enos</title>
<path fill="none" stroke="black" d="M2310.05,-89.9935C2310.94,-89.8819 2323.17,-88.3541 2337.29,-86.5885"/>
<polygon fill="black" stroke="black" points="2337.77,-90.0561 2347.26,-85.3426 2336.9,-83.1101 2337.77,-90.0561"/>
</g>
<!-- Fe3__NOHA_formation_degradation -->
<g id="node35" class="node"><title>Fe3__NOHA_formation_degradation</title>
<polygon fill="none" stroke="black" points="1268,-112 1254,-112 1254,-98 1268,-98 1268,-112"/>
</g>
<!-- Fe3__NOHA_formation_degradation_intermediate_p -->
<g id="node37" class="node"><title>Fe3__NOHA_formation_degradation_intermediate_p</title>
<ellipse fill="black" stroke="black" cx="1575" cy="-84" rx="0.036" ry="0.036"/>
</g>
<!-- Fe3__NOHA_formation_degradation&#45;&gt;Fe3__NOHA_formation_degradation_intermediate_p -->
<g id="edge31" class="edge"><title>Fe3__NOHA_formation_degradation&#45;&gt;Fe3__NOHA_formation_degradation_intermediate_p</title>
<path fill="none" stroke="black" d="M1268.06,-103.636C1285.78,-99.7666 1339.14,-89 1384,-89 1384,-89 1384,-89 1466,-89 1513.3,-89 1572.13,-84.155 1573.96,-84.0036"/>
</g>
<!-- Fe3__NOHA_formation_degradation_intermediate_r&#45;&gt;Fe3__NOHA_formation_degradation -->
<g id="edge29" class="edge"><title>Fe3__NOHA_formation_degradation_intermediate_r&#45;&gt;Fe3__NOHA_formation_degradation</title>
<path fill="none" stroke="black" d="M1218.12,-137.905C1219.97,-136.454 1242.6,-118.67 1253.8,-109.869"/>
</g>
<!-- Fe3__NOHA_formation_degradation_intermediate_p&#45;&gt;Fe3__enos -->
<g id="edge32" class="edge"><title>Fe3__NOHA_formation_degradation_intermediate_p&#45;&gt;Fe3__enos</title>
<path fill="none" stroke="black" d="M1576.05,-83.9439C1577.09,-82.7943 1594.05,-64.2871 1612,-57 1673.45,-32.0575 1693.68,-38 1760,-38 1760,-38 1760,-38 2266,-38 2296.01,-38 2327.83,-50.8135 2350.53,-62.4512"/>
<polygon fill="black" stroke="black" points="2348.9,-65.5459 2359.37,-67.1578 2352.19,-59.3676 2348.9,-65.5459"/>
</g>
<!-- Fe3__NOHA_formation_degradation_intermediate_p&#45;&gt;NOHA -->
<g id="edge33" class="edge"><title>Fe3__NOHA_formation_degradation_intermediate_p&#45;&gt;NOHA</title>
<path fill="none" stroke="black" d="M1576.07,-84C1577.81,-84 1613.64,-84 1639.79,-84"/>
<polygon fill="black" stroke="black" points="1639.94,-87.5001 1649.94,-84 1639.94,-80.5001 1639.94,-87.5001"/>
</g>
<!-- Fe2__Arg_formation -->
<g id="node38" class="node"><title>Fe2__Arg_formation</title>
<polygon fill="none" stroke="black" points="532,-304 518,-304 518,-290 532,-290 532,-304"/>
</g>
<!-- Fe2__Arg_formation_intermediate_p -->
<g id="node40" class="node"><title>Fe2__Arg_formation_intermediate_p</title>
<ellipse fill="black" stroke="black" cx="569" cy="-297" rx="0.036" ry="0.036"/>
</g>
<!-- Fe2__Arg_formation&#45;&gt;Fe2__Arg_formation_intermediate_p -->
<g id="edge36" class="edge"><title>Fe2__Arg_formation&#45;&gt;Fe2__Arg_formation_intermediate_p</title>
<path fill="none" stroke="black" d="M532.197,-297C543.515,-297 566.505,-297 567.93,-297"/>
</g>
<!-- Fe2__Arg_formation_intermediate_r&#45;&gt;Fe2__Arg_formation -->
<g id="edge34" class="edge"><title>Fe2__Arg_formation_intermediate_r&#45;&gt;Fe2__Arg_formation</title>
<path fill="none" stroke="black" d="M482.12,-297C483.968,-297 506.602,-297 517.803,-297"/>
</g>
<!-- Fe2__Arg_formation_intermediate_p&#45;&gt;Fe2__Arg -->
<g id="edge37" class="edge"><title>Fe2__Arg_formation_intermediate_p&#45;&gt;Fe2__Arg</title>
<path fill="none" stroke="black" d="M570.051,-297C570.91,-297 582.574,-297 596.138,-297"/>
<polygon fill="black" stroke="black" points="596.224,-300.5 606.224,-297 596.224,-293.5 596.224,-300.5"/>
</g>
<!-- Fe2__NOHA_formation -->
<g id="node41" class="node"><title>Fe2__NOHA_formation</title>
<polygon fill="none" stroke="black" points="1527,-138 1513,-138 1513,-124 1527,-124 1527,-138"/>
</g>
<!-- Fe2__NOHA_formation_intermediate_p -->
<g id="node43" class="node"><title>Fe2__NOHA_formation_intermediate_p</title>
<ellipse fill="black" stroke="black" cx="1575" cy="-130" rx="0.036" ry="0.036"/>
</g>
<!-- Fe2__NOHA_formation&#45;&gt;Fe2__NOHA_formation_intermediate_p -->
<g id="edge40" class="edge"><title>Fe2__NOHA_formation&#45;&gt;Fe2__NOHA_formation_intermediate_p</title>
<path fill="none" stroke="black" d="M1527.08,-130.885C1540.57,-130.631 1571.96,-130.039 1573.9,-130.002"/>
</g>
<!-- Fe2__NOHA_formation_intermediate_r&#45;&gt;Fe2__NOHA_formation -->
<g id="edge38" class="edge"><title>Fe2__NOHA_formation_intermediate_r&#45;&gt;Fe2__NOHA_formation</title>
<path fill="none" stroke="black" d="M1466.15,-135.986C1468.58,-135.757 1499.47,-132.842 1512.87,-131.578"/>
</g>
<!-- Fe2__NOHA_formation_intermediate_p&#45;&gt;Fe2 -->
<g id="edge41" class="edge"><title>Fe2__NOHA_formation_intermediate_p&#45;&gt;Fe2</title>
<path fill="none" stroke="black" d="M1576.14,-129.998C1581.95,-129.907 1768.93,-127 1919,-127 1919,-127 1919,-127 2502,-127 2525.48,-127 2552.15,-127 2571.58,-127"/>
<polygon fill="black" stroke="black" points="2571.83,-130.5 2581.83,-127 2571.83,-123.5 2571.83,-130.5"/>
</g>
<!-- Fe2__NOHA_formation_intermediate_p&#45;&gt;NOHA -->
<g id="edge42" class="edge"><title>Fe2__NOHA_formation_intermediate_p&#45;&gt;NOHA</title>
<path fill="none" stroke="black" d="M1576.07,-129.967C1577.87,-129.056 1616.21,-109.672 1642.53,-96.3704"/>
<polygon fill="black" stroke="black" points="1644.24,-99.4252 1651.59,-91.7903 1641.09,-93.178 1644.24,-99.4252"/>
</g>
<!-- Fe3__O2_Arg_formation_with_Oxygen_activation -->
<g id="node44" class="node"><title>Fe3__O2_Arg_formation_with_Oxygen_activation</title>
<polygon fill="none" stroke="black" points="764,-304 750,-304 750,-290 764,-290 764,-304"/>
</g>
<!-- Fe3__O2_Arg_formation_with_Oxygen_activation_intermediate_p -->
<g id="node46" class="node"><title>Fe3__O2_Arg_formation_with_Oxygen_activation_intermediate_p</title>
<ellipse fill="black" stroke="black" cx="801" cy="-274" rx="0.036" ry="0.036"/>
</g>
<!-- Fe3__O2_Arg_formation_with_Oxygen_activation&#45;&gt;Fe3__O2_Arg_formation_with_Oxygen_activation_intermediate_p -->
<g id="edge45" class="edge"><title>Fe3__O2_Arg_formation_with_Oxygen_activation&#45;&gt;Fe3__O2_Arg_formation_with_Oxygen_activation_intermediate_p</title>
<path fill="none" stroke="black" d="M764.197,-293.606C775.515,-287.408 798.505,-274.819 799.93,-274.038"/>
</g>
<!-- Fe3__O2_Arg_formation_with_Oxygen_activation&#45;&gt;Fe3__O2_Arg_formation_with_Oxygen_activation_intermediate_m -->
<g id="edge47" class="edge"><title>Fe3__O2_Arg_formation_with_Oxygen_activation&#45;&gt;Fe3__O2_Arg_formation_with_Oxygen_activation_intermediate_m</title>
<path fill="none" stroke="black" d="M764.006,-298.146C782.077,-301.489 837.56,-311 884,-311 884,-311 884,-311 1466,-311 1513.45,-311 1572.13,-320.69 1573.96,-320.993"/>
</g>
<!-- Fe3__O2_Arg_formation_with_Oxygen_activation_intermediate_r&#45;&gt;Fe3__O2_Arg_formation_with_Oxygen_activation -->
<g id="edge43" class="edge"><title>Fe3__O2_Arg_formation_with_Oxygen_activation_intermediate_r&#45;&gt;Fe3__O2_Arg_formation_with_Oxygen_activation</title>
<path fill="none" stroke="black" d="M714.12,-297C715.968,-297 738.602,-297 749.803,-297"/>
</g>
<!-- Fe3__O2_Arg_formation_with_Oxygen_activation_intermediate_p&#45;&gt;Fe3__O2__Arg -->
<g id="edge46" class="edge"><title>Fe3__O2_Arg_formation_with_Oxygen_activation_intermediate_p&#45;&gt;Fe3__O2__Arg</title>
<path fill="none" stroke="black" d="M802.059,-273.993C802.989,-273.891 814.716,-272.604 829.021,-271.034"/>
<polygon fill="black" stroke="black" points="829.678,-274.483 839.236,-269.913 828.914,-267.525 829.678,-274.483"/>
</g>
<!-- Fe3__O2_Arg_degradation -->
<g id="node48" class="node"><title>Fe3__O2_Arg_degradation</title>
<polygon fill="none" stroke="black" points="1020,-248 1006,-248 1006,-234 1020,-234 1020,-248"/>
</g>
<!-- Fe3__O2_Arg_degradation_intermediate_p -->
<g id="node50" class="node"><title>Fe3__O2_Arg_degradation_intermediate_p</title>
<ellipse fill="black" stroke="black" cx="1057" cy="-218" rx="0.036" ry="0.036"/>
</g>
<!-- Fe3__O2_Arg_degradation&#45;&gt;Fe3__O2_Arg_degradation_intermediate_p -->
<g id="edge51" class="edge"><title>Fe3__O2_Arg_degradation&#45;&gt;Fe3__O2_Arg_degradation_intermediate_p</title>
<path fill="none" stroke="black" d="M1020.2,-237.606C1031.52,-231.408 1054.5,-218.819 1055.93,-218.038"/>
</g>
<!-- Fe3__O2_Arg_degradation_intermediate_r&#45;&gt;Fe3__O2_Arg_degradation -->
<g id="edge49" class="edge"><title>Fe3__O2_Arg_degradation_intermediate_r&#45;&gt;Fe3__O2_Arg_degradation</title>
<path fill="none" stroke="black" d="M970.12,-245.986C971.968,-245.766 994.602,-243.071 1005.8,-241.738"/>
</g>
<!-- Fe3__O2_Arg_degradation_intermediate_p&#45;&gt;Fe2__Arg -->
<g id="edge52" class="edge"><title>Fe3__O2_Arg_degradation_intermediate_p&#45;&gt;Fe2__Arg</title>
<path fill="none" stroke="black" d="M1055.86,-217.966C1053.05,-217.262 1007.39,-206 970,-206 756,-206 756,-206 756,-206 713.726,-206 678.11,-244.694 658.444,-271.619"/>
<polygon fill="black" stroke="black" points="655.522,-269.691 652.632,-279.884 661.247,-273.718 655.522,-269.691"/>
</g>
<!-- Fe3__NOHA_synthesis -->
<g id="node51" class="node"><title>Fe3__NOHA_synthesis</title>
<polygon fill="none" stroke="black" points="1020,-280 1006,-280 1006,-266 1020,-266 1020,-280"/>
</g>
<!-- Fe3__NOHA_synthesis_intermediate_p -->
<g id="node53" class="node"><title>Fe3__NOHA_synthesis_intermediate_p</title>
<ellipse fill="black" stroke="black" cx="1057" cy="-260" rx="0.036" ry="0.036"/>
</g>
<!-- Fe3__NOHA_synthesis&#45;&gt;Fe3__NOHA_synthesis_intermediate_p -->
<g id="edge55" class="edge"><title>Fe3__NOHA_synthesis&#45;&gt;Fe3__NOHA_synthesis_intermediate_p</title>
<path fill="none" stroke="black" d="M1020.2,-271.082C1031.52,-267.579 1054.5,-260.463 1055.93,-260.022"/>
</g>
<!-- Fe3__NOHA_synthesis_intermediate_r&#45;&gt;Fe3__NOHA_synthesis -->
<g id="edge53" class="edge"><title>Fe3__NOHA_synthesis_intermediate_r&#45;&gt;Fe3__NOHA_synthesis</title>
<path fill="none" stroke="black" d="M970.12,-270.009C971.968,-270.141 994.602,-271.757 1005.8,-272.557"/>
</g>
<!-- Fe3__NOHA_synthesis_intermediate_p&#45;&gt;Fe3__NOHA -->
<g id="edge56" class="edge"><title>Fe3__NOHA_synthesis_intermediate_p&#45;&gt;Fe3__NOHA</title>
<path fill="none" stroke="black" d="M1058.06,-259.933C1059.6,-258.109 1092.55,-219.244 1115.11,-192.637"/>
<polygon fill="black" stroke="black" points="1117.94,-194.718 1121.73,-184.827 1112.6,-190.192 1117.94,-194.718"/>
</g>
<!-- Fe2__NOHA_synthesis -->
<g id="node54" class="node"><title>Fe2__NOHA_synthesis</title>
<polygon fill="none" stroke="black" points="1268,-175 1254,-175 1254,-161 1268,-161 1268,-175"/>
</g>
<!-- Fe2__NOHA_synthesis_intermediate_p -->
<g id="node56" class="node"><title>Fe2__NOHA_synthesis_intermediate_p</title>
<ellipse fill="black" stroke="black" cx="1305" cy="-168" rx="0.036" ry="0.036"/>
</g>
<!-- Fe2__NOHA_synthesis&#45;&gt;Fe2__NOHA_synthesis_intermediate_p -->
<g id="edge59" class="edge"><title>Fe2__NOHA_synthesis&#45;&gt;Fe2__NOHA_synthesis_intermediate_p</title>
<path fill="none" stroke="black" d="M1268.2,-168C1279.52,-168 1302.5,-168 1303.93,-168"/>
</g>
<!-- Fe2__NOHA_synthesis_intermediate_r&#45;&gt;Fe2__NOHA_synthesis -->
<g id="edge57" class="edge"><title>Fe2__NOHA_synthesis_intermediate_r&#45;&gt;Fe2__NOHA_synthesis</title>
<path fill="none" stroke="black" d="M1218.12,-168C1219.97,-168 1242.6,-168 1253.8,-168"/>
</g>
<!-- Fe2__NOHA_synthesis_intermediate_p&#45;&gt;Fe2__NOHA -->
<g id="edge60" class="edge"><title>Fe2__NOHA_synthesis_intermediate_p&#45;&gt;Fe2__NOHA</title>
<path fill="none" stroke="black" d="M1306.06,-168C1306.94,-168 1318.07,-168 1331.65,-168"/>
<polygon fill="black" stroke="black" points="1331.87,-171.5 1341.87,-168 1331.87,-164.5 1331.87,-171.5"/>
</g>
<!-- Fe3__O2__NOHA_synthesis_with_Oxygen_activation -->
<g id="node57" class="node"><title>Fe3__O2__NOHA_synthesis_with_Oxygen_activation</title>
<polygon fill="none" stroke="black" points="1527,-224 1513,-224 1513,-210 1527,-210 1527,-224"/>
</g>
<!-- Fe3__O2__NOHA_synthesis_with_Oxygen_activation_intermediate_p -->
<g id="node59" class="node"><title>Fe3__O2__NOHA_synthesis_with_Oxygen_activation_intermediate_p</title>
<ellipse fill="black" stroke="black" cx="1575" cy="-217" rx="0.036" ry="0.036"/>
</g>
<!-- Fe3__O2__NOHA_synthesis_with_Oxygen_activation&#45;&gt;Fe3__O2__NOHA_synthesis_with_Oxygen_activation_intermediate_p -->
<g id="edge63" class="edge"><title>Fe3__O2__NOHA_synthesis_with_Oxygen_activation&#45;&gt;Fe3__O2__NOHA_synthesis_with_Oxygen_activation_intermediate_p</title>
<path fill="none" stroke="black" d="M1527.08,-217C1540.57,-217 1571.96,-217 1573.9,-217"/>
</g>
<!-- Fe3__O2__NOHA_synthesis_with_Oxygen_activation&#45;&gt;Fe3__O2__NOHA_synthesis_with_Oxygen_activation_intermediate_m -->
<g id="edge65" class="edge"><title>Fe3__O2__NOHA_synthesis_with_Oxygen_activation&#45;&gt;Fe3__O2__NOHA_synthesis_with_Oxygen_activation_intermediate_m</title>
<path fill="none" stroke="black" d="M1527.08,-220.786C1540.57,-229.183 1571.96,-248.727 1573.9,-249.941"/>
</g>
<!-- Fe3__O2__NOHA_synthesis_with_Oxygen_activation_intermediate_r&#45;&gt;Fe3__O2__NOHA_synthesis_with_Oxygen_activation -->
<g id="edge61" class="edge"><title>Fe3__O2__NOHA_synthesis_with_Oxygen_activation_intermediate_r&#45;&gt;Fe3__O2__NOHA_synthesis_with_Oxygen_activation</title>
<path fill="none" stroke="black" d="M1466.15,-208.026C1468.58,-208.438 1499.47,-213.684 1512.87,-215.959"/>
</g>
<!-- Fe3__O2__NOHA_synthesis_with_Oxygen_activation_intermediate_p&#45;&gt;Fe3__O2__NOHA -->
<g id="edge64" class="edge"><title>Fe3__O2__NOHA_synthesis_with_Oxygen_activation_intermediate_p&#45;&gt;Fe3__O2__NOHA</title>
<path fill="none" stroke="black" d="M1576.07,-217C1577.02,-217 1588.2,-217 1602.41,-217"/>
<polygon fill="black" stroke="black" points="1602.64,-220.5 1612.64,-217 1602.64,-213.5 1602.64,-220.5"/>
</g>
<!-- Fe3__NO_and_Citrulline_synthesis -->
<g id="node61" class="node"><title>Fe3__NO_and_Citrulline_synthesis</title>
<polygon fill="none" stroke="black" points="1812,-242 1798,-242 1798,-228 1812,-228 1812,-242"/>
</g>
<!-- Fe3__NO_and_Citrulline_synthesis_intermediate_p -->
<g id="node63" class="node"><title>Fe3__NO_and_Citrulline_synthesis_intermediate_p</title>
<ellipse fill="black" stroke="black" cx="1849" cy="-231" rx="0.036" ry="0.036"/>
</g>
<!-- Fe3__NO_and_Citrulline_synthesis&#45;&gt;Fe3__NO_and_Citrulline_synthesis_intermediate_p -->
<g id="edge69" class="edge"><title>Fe3__NO_and_Citrulline_synthesis&#45;&gt;Fe3__NO_and_Citrulline_synthesis_intermediate_p</title>
<path fill="none" stroke="black" d="M1812.2,-234.41C1823.52,-233.332 1846.5,-231.142 1847.93,-231.007"/>
</g>
<!-- Fe3__NO_and_Citrulline_synthesis_intermediate_r&#45;&gt;Fe3__NO_and_Citrulline_synthesis -->
<g id="edge67" class="edge"><title>Fe3__NO_and_Citrulline_synthesis_intermediate_r&#45;&gt;Fe3__NO_and_Citrulline_synthesis</title>
<path fill="none" stroke="black" d="M1762.12,-231.011C1763.97,-231.187 1786.6,-233.343 1797.8,-234.41"/>
</g>
<!-- Fe3__NO_and_Citrulline_synthesis_intermediate_p&#45;&gt;Fe3__NO -->
<g id="edge70" class="edge"><title>Fe3__NO_and_Citrulline_synthesis_intermediate_p&#45;&gt;Fe3__NO</title>
<path fill="none" stroke="black" d="M1850.05,-231C1850.89,-231 1862.17,-231 1875.38,-231"/>
<polygon fill="black" stroke="black" points="1875.71,-234.5 1885.71,-231 1875.71,-227.5 1875.71,-234.5"/>
</g>
<!-- Fe3__NO_and_Citrulline_synthesis_intermediate_p&#45;&gt;Citrulline -->
<g id="edge71" class="edge"><title>Fe3__NO_and_Citrulline_synthesis_intermediate_p&#45;&gt;Citrulline</title>
<path fill="none" stroke="black" d="M1850.05,-230.961C1851.24,-230.032 1873.34,-212.734 1892.2,-197.971"/>
<polygon fill="black" stroke="black" points="1894.57,-200.564 1900.29,-191.644 1890.26,-195.051 1894.57,-200.564"/>
</g>
<!-- Fe2__NO_synthesis -->
<g id="node64" class="node"><title>Fe2__NO_synthesis</title>
<polygon fill="none" stroke="black" points="2042,-193 2028,-193 2028,-179 2042,-179 2042,-193"/>
</g>
<!-- Fe2__NO_synthesis_intermediate_p -->
<g id="node66" class="node"><title>Fe2__NO_synthesis_intermediate_p</title>
<ellipse fill="black" stroke="black" cx="2079" cy="-180" rx="0.036" ry="0.036"/>
</g>
<!-- Fe2__NO_synthesis&#45;&gt;Fe2__NO_synthesis_intermediate_p -->
<g id="edge74" class="edge"><title>Fe2__NO_synthesis&#45;&gt;Fe2__NO_synthesis_intermediate_p</title>
<path fill="none" stroke="black" d="M2042.2,-185.115C2053.52,-183.498 2076.5,-180.214 2077.93,-180.01"/>
</g>
<!-- Fe2__NO_synthesis_intermediate_r&#45;&gt;Fe2__NO_synthesis -->
<g id="edge72" class="edge"><title>Fe2__NO_synthesis_intermediate_r&#45;&gt;Fe2__NO_synthesis</title>
<path fill="none" stroke="black" d="M1992.12,-205.943C1993.97,-205.063 2016.6,-194.285 2027.8,-188.951"/>
</g>
<!-- Fe2__NO_synthesis_intermediate_p&#45;&gt;Fe2__NO -->
<g id="edge75" class="edge"><title>Fe2__NO_synthesis_intermediate_p&#45;&gt;Fe2__NO</title>
<path fill="none" stroke="black" d="M2080.05,-179.995C2080.9,-179.908 2092.57,-178.724 2106.08,-177.355"/>
<polygon fill="black" stroke="black" points="2106.51,-180.829 2116.1,-176.337 2105.8,-173.865 2106.51,-180.829"/>
</g>
<!-- Fe3__O2__NOHA_degradation -->
<g id="node67" class="node"><title>Fe3__O2__NOHA_degradation</title>
<polygon fill="none" stroke="black" points="1812,-210 1798,-210 1798,-196 1812,-196 1812,-210"/>
</g>
<!-- Fe3__O2__NOHA_degradation_intermediate_p -->
<g id="node69" class="node"><title>Fe3__O2__NOHA_degradation_intermediate_p</title>
<ellipse fill="black" stroke="black" cx="1849" cy="-186" rx="0.036" ry="0.036"/>
</g>
<!-- Fe3__O2__NOHA_degradation&#45;&gt;Fe3__O2__NOHA_degradation_intermediate_p -->
<g id="edge78" class="edge"><title>Fe3__O2__NOHA_degradation&#45;&gt;Fe3__O2__NOHA_degradation_intermediate_p</title>
<path fill="none" stroke="black" d="M1812.2,-200.492C1823.52,-195.911 1846.5,-186.605 1847.93,-186.028"/>
</g>
<!-- Fe3__O2__NOHA_degradation_intermediate_r&#45;&gt;Fe3__O2__NOHA_degradation -->
<g id="edge76" class="edge"><title>Fe3__O2__NOHA_degradation_intermediate_r&#45;&gt;Fe3__O2__NOHA_degradation</title>
<path fill="none" stroke="black" d="M1762.12,-205.991C1763.97,-205.859 1786.6,-204.243 1797.8,-203.443"/>
</g>
<!-- Fe3__O2__NOHA_degradation_intermediate_p&#45;&gt;Fe2__NOHA -->
<g id="edge79" class="edge"><title>Fe3__O2__NOHA_degradation_intermediate_p&#45;&gt;Fe2__NOHA</title>
<path fill="none" stroke="black" d="M1847.86,-185.948C1845.07,-184.893 1799.83,-168 1762,-168 1519,-168 1519,-168 1519,-168 1492.43,-168 1462.88,-168 1438.39,-168"/>
<polygon fill="black" stroke="black" points="1438.23,-164.5 1428.23,-168 1438.23,-171.5 1438.23,-164.5"/>
</g>
</g>
</svg>
