<?xml version="1.0" encoding="UTF-8" standalone="no"?>
<!DOCTYPE svg PUBLIC "-//W3C//DTD SVG 1.1//EN"
 "http://www.w3.org/Graphics/SVG/1.1/DTD/svg11.dtd">
<!-- Generated by graphviz version 2.24.0 (20090616.2323)
 -->
<!-- Title: G Pages: 1 -->
<svg width="500pt" height="951pt"
 viewBox="0.00 0.00 500.00 951.00" xmlns="http://www.w3.org/2000/svg" xmlns:xlink="http://www.w3.org/1999/xlink">
<g id="graph1" class="graph" transform="scale(1 1) rotate(0) translate(4 947)">
<title>G</title>
<polygon fill="white" stroke="white" points="-4,5 -4,-947 497,-947 497,5 -4,5"/>
<!-- species_1 -->
<g id="node1" class="node"><title>species_1</title>
<polyline fill="none" stroke="black" points="264,-565 234,-565 "/>
<path fill="none" stroke="black" d="M234,-565C228,-565 222,-559 222,-553"/>
<polyline fill="none" stroke="black" points="222,-553 222,-541 "/>
<path fill="none" stroke="black" d="M222,-541C222,-535 228,-529 234,-529"/>
<polyline fill="none" stroke="black" points="234,-529 264,-529 "/>
<path fill="none" stroke="black" d="M264,-529C270,-529 276,-535 276,-541"/>
<polyline fill="none" stroke="black" points="276,-541 276,-553 "/>
<path fill="none" stroke="black" d="M276,-553C276,-559 270,-565 264,-565"/>
<text text-anchor="middle" x="249" y="-544.5" font-family="Times Roman,serif" font-size="10.00">Htot</text>
</g>
<!-- reaction_2_intermediate_r -->
<g id="node24" class="node"><title>reaction_2_intermediate_r</title>
<ellipse fill="black" stroke="black" cx="312" cy="-565" rx="0.036" ry="0.036"/>
</g>
<!-- species_1&#45;&gt;reaction_2_intermediate_r -->
<g id="edge10" class="edge"><title>species_1&#45;&gt;reaction_2_intermediate_r</title>
<path fill="none" stroke="black" d="M276.083,-554.738C292.625,-559.464 310.824,-564.664 311.945,-564.984"/>
</g>
<!-- reaction_3_intermediate_r -->
<g id="node30" class="node"><title>reaction_3_intermediate_r</title>
<ellipse fill="black" stroke="black" cx="312" cy="-529" rx="0.036" ry="0.036"/>
</g>
<!-- species_1&#45;&gt;reaction_3_intermediate_r -->
<g id="edge16" class="edge"><title>species_1&#45;&gt;reaction_3_intermediate_r</title>
<path fill="none" stroke="black" d="M276.083,-539.262C292.625,-534.536 310.824,-529.336 311.945,-529.016"/>
</g>
<!-- species_2 -->
<g id="node2" class="node"><title>species_2</title>
<polyline fill="none" stroke="black" points="264,-364 234,-364 "/>
<path fill="none" stroke="black" d="M234,-364C228,-364 222,-358 222,-352"/>
<polyline fill="none" stroke="black" points="222,-352 222,-340 "/>
<path fill="none" stroke="black" d="M222,-340C222,-334 228,-328 234,-328"/>
<polyline fill="none" stroke="black" points="234,-328 264,-328 "/>
<path fill="none" stroke="black" d="M264,-328C270,-328 276,-334 276,-340"/>
<polyline fill="none" stroke="black" points="276,-340 276,-352 "/>
<path fill="none" stroke="black" d="M276,-352C276,-358 270,-364 264,-364"/>
<text text-anchor="middle" x="249" y="-343.5" font-family="Times Roman,serif" font-size="10.00">H</text>
</g>
<!-- reaction_5_intermediate_r -->
<g id="node47" class="node"><title>reaction_5_intermediate_r</title>
<ellipse fill="black" stroke="black" cx="312" cy="-425" rx="0.036" ry="0.036"/>
</g>
<!-- species_2&#45;&gt;reaction_5_intermediate_r -->
<g id="edge36" class="edge"><title>species_2&#45;&gt;reaction_5_intermediate_r</title>
<path fill="none" stroke="black" d="M263.612,-364.323C281.641,-386.931 310.15,-422.68 311.914,-424.892"/>
</g>
<!-- reaction_6_intermediate_r -->
<g id="node53" class="node"><title>reaction_6_intermediate_r</title>
<ellipse fill="black" stroke="black" cx="312" cy="-346" rx="0.036" ry="0.036"/>
</g>
<!-- species_2&#45;&gt;reaction_6_intermediate_r -->
<g id="edge42" class="edge"><title>species_2&#45;&gt;reaction_6_intermediate_r</title>
<path fill="none" stroke="black" d="M276.083,-346C292.625,-346 310.824,-346 311.945,-346"/>
</g>
<!-- reaction_7_intermediate_r -->
<g id="node64" class="node"><title>reaction_7_intermediate_r</title>
<ellipse fill="black" stroke="black" cx="312" cy="-267" rx="0.036" ry="0.036"/>
</g>
<!-- species_2&#45;&gt;reaction_7_intermediate_r -->
<g id="edge56" class="edge"><title>species_2&#45;&gt;reaction_7_intermediate_r</title>
<path fill="none" stroke="black" d="M263.612,-327.677C281.641,-305.069 310.15,-269.32 311.914,-267.108"/>
</g>
<!-- species_3 -->
<g id="node3" class="node"><title>species_3</title>
<polyline fill="none" stroke="black" points="264,-61 234,-61 "/>
<path fill="none" stroke="black" d="M234,-61C228,-61 222,-55 222,-49"/>
<polyline fill="none" stroke="black" points="222,-49 222,-37 "/>
<path fill="none" stroke="black" d="M222,-37C222,-31 228,-25 234,-25"/>
<polyline fill="none" stroke="black" points="234,-25 264,-25 "/>
<path fill="none" stroke="black" d="M264,-25C270,-25 276,-31 276,-37"/>
<polyline fill="none" stroke="black" points="276,-37 276,-49 "/>
<path fill="none" stroke="black" d="M276,-49C276,-55 270,-61 264,-61"/>
<text text-anchor="middle" x="249" y="-40.5" font-family="Times Roman,serif" font-size="10.00">A</text>
</g>
<!-- reaction_9_intermediate_r -->
<g id="node81" class="node"><title>reaction_9_intermediate_r</title>
<ellipse fill="black" stroke="black" cx="312" cy="-26" rx="0.036" ry="0.036"/>
</g>
<!-- species_3&#45;&gt;reaction_9_intermediate_r -->
<g id="edge76" class="edge"><title>species_3&#45;&gt;reaction_9_intermediate_r</title>
<path fill="none" stroke="black" d="M276.083,-35.6918C292.625,-31.2282 310.824,-26.3173 311.945,-26.0147"/>
</g>
<!-- reaction_10_intermediate_r -->
<g id="node87" class="node"><title>reaction_10_intermediate_r</title>
<ellipse fill="black" stroke="black" cx="312" cy="-59" rx="0.036" ry="0.036"/>
</g>
<!-- species_3&#45;&gt;reaction_10_intermediate_r -->
<g id="edge82" class="edge"><title>species_3&#45;&gt;reaction_10_intermediate_r</title>
<path fill="none" stroke="black" d="M276.083,-49.8783C292.625,-54.0793 310.824,-58.7014 311.945,-58.9861"/>
</g>
<!-- species_4 -->
<g id="node4" class="node"><title>species_4</title>
<polyline fill="none" stroke="black" points="65,-619 35,-619 "/>
<path fill="none" stroke="black" d="M35,-619C29,-619 23,-613 23,-607"/>
<polyline fill="none" stroke="black" points="23,-607 23,-595 "/>
<path fill="none" stroke="black" d="M23,-595C23,-589 29,-583 35,-583"/>
<polyline fill="none" stroke="black" points="35,-583 65,-583 "/>
<path fill="none" stroke="black" d="M65,-583C71,-583 77,-589 77,-595"/>
<polyline fill="none" stroke="black" points="77,-595 77,-607 "/>
<path fill="none" stroke="black" d="M77,-607C77,-613 71,-619 65,-619"/>
<text text-anchor="middle" x="50" y="-598.5" font-family="Times Roman,serif" font-size="10.00">HOH</text>
</g>
<!-- species_5 -->
<g id="node5" class="node"><title>species_5</title>
<polyline fill="none" stroke="black" points="390,-127 360,-127 "/>
<path fill="none" stroke="black" d="M360,-127C354,-127 348,-121 348,-115"/>
<polyline fill="none" stroke="black" points="348,-115 348,-103 "/>
<path fill="none" stroke="black" d="M348,-103C348,-97 354,-91 360,-91"/>
<polyline fill="none" stroke="black" points="360,-91 390,-91 "/>
<path fill="none" stroke="black" d="M390,-91C396,-91 402,-97 402,-103"/>
<polyline fill="none" stroke="black" points="402,-103 402,-115 "/>
<path fill="none" stroke="black" d="M402,-115C402,-121 396,-127 390,-127"/>
<text text-anchor="middle" x="375" y="-106.5" font-family="Times Roman,serif" font-size="10.00">Atot</text>
</g>
<!-- reaction_10_intermediate_m -->
<g id="node92" class="node"><title>reaction_10_intermediate_m</title>
<ellipse fill="black" stroke="black" cx="465" cy="-136" rx="0.036" ry="0.036"/>
</g>
<!-- species_5&#45;&gt;reaction_10_intermediate_m -->
<g id="edge92" class="edge"><title>species_5&#45;&gt;reaction_10_intermediate_m</title>
<path fill="none" stroke="black" d="M402.003,-117.101C427.685,-124.805 462.729,-135.319 464.895,-135.968"/>
</g>
<!-- species_6 -->
<g id="node6" class="node"><title>species_6</title>
<polyline fill="none" stroke="black" points="65,-673 35,-673 "/>
<path fill="none" stroke="black" d="M35,-673C29,-673 23,-667 23,-661"/>
<polyline fill="none" stroke="black" points="23,-661 23,-649 "/>
<path fill="none" stroke="black" d="M23,-649C23,-643 29,-637 35,-637"/>
<polyline fill="none" stroke="black" points="35,-637 65,-637 "/>
<path fill="none" stroke="black" d="M65,-637C71,-637 77,-643 77,-649"/>
<polyline fill="none" stroke="black" points="77,-649 77,-661 "/>
<path fill="none" stroke="black" d="M77,-661C77,-667 71,-673 65,-673"/>
<text text-anchor="middle" x="50" y="-652.5" font-family="Times Roman,serif" font-size="10.00">AOH</text>
</g>
<!-- species_7 -->
<g id="node7" class="node"><title>species_7</title>
<polyline fill="none" stroke="black" points="390,-181 360,-181 "/>
<path fill="none" stroke="black" d="M360,-181C354,-181 348,-175 348,-169"/>
<polyline fill="none" stroke="black" points="348,-169 348,-157 "/>
<path fill="none" stroke="black" d="M348,-157C348,-151 354,-145 360,-145"/>
<polyline fill="none" stroke="black" points="360,-145 390,-145 "/>
<path fill="none" stroke="black" d="M390,-145C396,-145 402,-151 402,-157"/>
<polyline fill="none" stroke="black" points="402,-157 402,-169 "/>
<path fill="none" stroke="black" d="M402,-169C402,-175 396,-181 390,-181"/>
<text text-anchor="middle" x="375" y="-160.5" font-family="Times Roman,serif" font-size="10.00">Ftot</text>
</g>
<!-- reaction_7_intermediate_m -->
<g id="node69" class="node"><title>reaction_7_intermediate_m</title>
<ellipse fill="black" stroke="black" cx="465" cy="-246" rx="0.036" ry="0.036"/>
</g>
<!-- species_7&#45;&gt;reaction_7_intermediate_m -->
<g id="edge62" class="edge"><title>species_7&#45;&gt;reaction_7_intermediate_m</title>
<path fill="none" stroke="black" d="M393.523,-181.086C396.405,-184.024 399.314,-187.066 402,-190 418.829,-208.386 418.329,-217.694 438,-233 448.183,-240.923 463.975,-245.695 464.952,-245.986"/>
</g>
<!-- species_7&#45;&gt;reaction_10_intermediate_m -->
<g id="edge88" class="edge"><title>species_7&#45;&gt;reaction_10_intermediate_m</title>
<path fill="none" stroke="black" d="M402.003,-154.899C427.685,-147.195 462.729,-136.681 464.895,-136.032"/>
</g>
<!-- species_8 -->
<g id="node8" class="node"><title>species_8</title>
<polyline fill="none" stroke="black" points="390,-407 360,-407 "/>
<path fill="none" stroke="black" d="M360,-407C354,-407 348,-401 348,-395"/>
<polyline fill="none" stroke="black" points="348,-395 348,-383 "/>
<path fill="none" stroke="black" d="M348,-383C348,-377 354,-371 360,-371"/>
<polyline fill="none" stroke="black" points="360,-371 390,-371 "/>
<path fill="none" stroke="black" d="M390,-371C396,-371 402,-377 402,-383"/>
<polyline fill="none" stroke="black" points="402,-383 402,-395 "/>
<path fill="none" stroke="black" d="M402,-395C402,-401 396,-407 390,-407"/>
<text text-anchor="middle" x="375" y="-386.5" font-family="Times Roman,serif" font-size="10.00">Ptot</text>
</g>
<!-- reaction_3_intermediate_m -->
<g id="node35" class="node"><title>reaction_3_intermediate_m</title>
<ellipse fill="black" stroke="black" cx="465" cy="-420" rx="0.036" ry="0.036"/>
</g>
<!-- species_8&#45;&gt;reaction_3_intermediate_m -->
<g id="edge22" class="edge"><title>species_8&#45;&gt;reaction_3_intermediate_m</title>
<path fill="none" stroke="black" d="M402.003,-398.301C427.685,-407.147 462.729,-419.218 464.895,-419.964"/>
</g>
<!-- reaction_6_intermediate_m -->
<g id="node58" class="node"><title>reaction_6_intermediate_m</title>
<ellipse fill="black" stroke="black" cx="465" cy="-386" rx="0.036" ry="0.036"/>
</g>
<!-- species_8&#45;&gt;reaction_6_intermediate_m -->
<g id="edge48" class="edge"><title>species_8&#45;&gt;reaction_6_intermediate_m</title>
<path fill="none" stroke="black" d="M402.003,-388.1C427.685,-387.244 462.729,-386.076 464.895,-386.004"/>
</g>
<!-- species_9 -->
<g id="node9" class="node"><title>species_9</title>
<ellipse fill="none" stroke="black" cx="375" cy="-249" rx="27" ry="18"/>
<text text-anchor="middle" x="375" y="-246.5" font-family="Times Roman,serif" font-size="10.00">HF</text>
</g>
<!-- species_9&#45;&gt;reaction_7_intermediate_m -->
<g id="edge66" class="edge"><title>species_9&#45;&gt;reaction_7_intermediate_m</title>
<path fill="none" stroke="black" d="M402.003,-248.1C427.685,-247.244 462.729,-246.076 464.895,-246.004"/>
</g>
<!-- species_10 -->
<g id="node10" class="node"><title>species_10</title>
<ellipse fill="none" stroke="black" cx="375" cy="-443" rx="27" ry="18"/>
<text text-anchor="middle" x="375" y="-440.5" font-family="Times Roman,serif" font-size="10.00">HP</text>
</g>
<!-- species_10&#45;&gt;reaction_3_intermediate_m -->
<g id="edge26" class="edge"><title>species_10&#45;&gt;reaction_3_intermediate_m</title>
<path fill="none" stroke="black" d="M400.55,-436.471C426.326,-429.883 462.646,-420.602 464.891,-420.028"/>
</g>
<!-- species_10&#45;&gt;reaction_6_intermediate_m -->
<g id="edge52" class="edge"><title>species_10&#45;&gt;reaction_6_intermediate_m</title>
<path fill="none" stroke="black" d="M394.974,-430.35C420.66,-414.082 462.297,-387.712 464.874,-386.08"/>
</g>
<!-- species_11 -->
<g id="node11" class="node"><title>species_11</title>
<ellipse fill="none" stroke="black" cx="375" cy="-303" rx="18" ry="18"/>
<text text-anchor="middle" x="375" y="-300.5" font-family="Times Roman,serif" font-size="10.00">O2</text>
</g>
<!-- species_11&#45;&gt;reaction_3_intermediate_m -->
<g id="edge24" class="edge"><title>species_11&#45;&gt;reaction_3_intermediate_m</title>
<path fill="none" stroke="black" d="M388.692,-315.229C393.218,-319.638 398.091,-324.811 402,-330 421.87,-356.377 417.627,-369.009 438,-395 447.774,-407.469 463.95,-419.241 464.951,-419.965"/>
</g>
<!-- species_11&#45;&gt;reaction_6_intermediate_m -->
<g id="edge50" class="edge"><title>species_11&#45;&gt;reaction_6_intermediate_m</title>
<path fill="none" stroke="black" d="M388.147,-315.683C392.629,-320.128 397.614,-325.208 402,-330 418.829,-348.386 418.329,-357.694 438,-373 448.183,-380.923 463.975,-385.695 464.952,-385.986"/>
</g>
<!-- species_11&#45;&gt;reaction_7_intermediate_m -->
<g id="edge64" class="edge"><title>species_11&#45;&gt;reaction_7_intermediate_m</title>
<path fill="none" stroke="black" d="M390.267,-293.331C415.142,-277.577 461.957,-247.927 464.858,-246.09"/>
</g>
<!-- species_11&#45;&gt;reaction_10_intermediate_m -->
<g id="edge90" class="edge"><title>species_11&#45;&gt;reaction_10_intermediate_m</title>
<path fill="none" stroke="black" d="M388.871,-291.357C393.518,-286.92 398.421,-281.58 402,-276 426.83,-237.295 417.666,-220.245 438,-179 447.667,-159.392 463.943,-137.42 464.951,-136.066"/>
</g>
<!-- species_12 -->
<g id="node12" class="node"><title>species_12</title>
<ellipse fill="none" stroke="black" cx="50" cy="-709" rx="33.2417" ry="18"/>
<text text-anchor="middle" x="50" y="-706.5" font-family="Times Roman,serif" font-size="10.00">FIHfree</text>
</g>
<!-- species_13 -->
<g id="node13" class="node"><title>species_13</title>
<ellipse fill="none" stroke="black" cx="50" cy="-763" rx="27" ry="18"/>
<text text-anchor="middle" x="50" y="-760.5" font-family="Times Roman,serif" font-size="10.00">CAD</text>
</g>
<!-- species_14 -->
<g id="node14" class="node"><title>species_14</title>
<ellipse fill="none" stroke="black" cx="50" cy="-817" rx="27" ry="18"/>
<text text-anchor="middle" x="50" y="-814.5" font-family="Times Roman,serif" font-size="10.00">NAD</text>
</g>
<!-- species_15 -->
<g id="node15" class="node"><title>species_15</title>
<ellipse fill="none" stroke="black" cx="50" cy="-871" rx="33.2417" ry="18"/>
<text text-anchor="middle" x="50" y="-868.5" font-family="Times Roman,serif" font-size="10.00">CADOH</text>
</g>
<!-- species_16 -->
<g id="node16" class="node"><title>species_16</title>
<ellipse fill="none" stroke="black" cx="50" cy="-925" rx="49.8625" ry="18"/>
<text text-anchor="middle" x="50" y="-922.5" font-family="Times Roman,serif" font-size="10.00">A for plotting</text>
</g>
<!-- reaction_1 -->
<g id="node17" class="node"><title>reaction_1</title>
<polygon fill="none" stroke="black" points="150,-554 136,-554 136,-540 150,-540 150,-554"/>
</g>
<!-- reaction_1_intermediate_p -->
<g id="node20" class="node"><title>reaction_1_intermediate_p</title>
<ellipse fill="black" stroke="black" cx="186" cy="-547" rx="0.036" ry="0.036"/>
</g>
<!-- reaction_1&#45;&gt;reaction_1_intermediate_p -->
<g id="edge4" class="edge"><title>reaction_1&#45;&gt;reaction_1_intermediate_p</title>
<path fill="none" stroke="black" d="M150.101,-547C161.932,-547 184.531,-547 185.932,-547"/>
</g>
<!-- reaction_1_empty -->
<g id="node18" class="node"><title>reaction_1_empty</title>
<text text-anchor="middle" x="50" y="-542.5" font-family="Times Roman,serif" font-size="15.00" fill="blue">Ø</text>
</g>
<!-- reaction_1_empty&#45;&gt;reaction_1 -->
<g id="edge2" class="edge"><title>reaction_1_empty&#45;&gt;reaction_1</title>
<path fill="none" stroke="black" d="M77.4001,-547C97.546,-547 123.481,-547 135.838,-547"/>
</g>
<!-- reaction_1_intermediate_p&#45;&gt;species_1 -->
<g id="edge6" class="edge"><title>reaction_1_intermediate_p&#45;&gt;species_1</title>
<path fill="none" stroke="black" d="M186.046,-547C186.865,-547 198.597,-547 211.716,-547"/>
<polygon fill="black" stroke="black" points="211.86,-550.5 221.86,-547 211.859,-543.5 211.86,-550.5"/>
</g>
<!-- reaction_2 -->
<g id="node23" class="node"><title>reaction_2</title>
<polygon fill="none" stroke="black" points="382,-577 368,-577 368,-563 382,-563 382,-577"/>
</g>
<!-- reaction_2_empty -->
<g id="node27" class="node"><title>reaction_2_empty</title>
<text text-anchor="middle" x="465" y="-574.5" font-family="Times Roman,serif" font-size="15.00" fill="blue">Ø</text>
</g>
<!-- reaction_2&#45;&gt;reaction_2_empty -->
<g id="edge12" class="edge"><title>reaction_2&#45;&gt;reaction_2_empty</title>
<path fill="none" stroke="black" d="M382.062,-570.706C391.877,-571.688 410.359,-573.536 427.389,-575.239"/>
<polygon fill="black" stroke="black" points="427.416,-578.759 437.715,-576.271 428.113,-571.794 427.416,-578.759"/>
</g>
<!-- reaction_2_intermediate_r&#45;&gt;reaction_2 -->
<g id="edge8" class="edge"><title>reaction_2_intermediate_r&#45;&gt;reaction_2</title>
<path fill="none" stroke="black" d="M312.046,-565.004C313.551,-565.123 351.877,-568.165 367.979,-569.443"/>
</g>
<!-- reaction_3 -->
<g id="node29" class="node"><title>reaction_3</title>
<polygon fill="none" stroke="black" points="382,-532 368,-532 368,-518 382,-518 382,-532"/>
</g>
<!-- reaction_3_empty -->
<g id="node33" class="node"><title>reaction_3_empty</title>
<text text-anchor="middle" x="465" y="-520.5" font-family="Times Roman,serif" font-size="15.00" fill="blue">Ø</text>
</g>
<!-- reaction_3&#45;&gt;reaction_3_empty -->
<g id="edge18" class="edge"><title>reaction_3&#45;&gt;reaction_3_empty</title>
<path fill="none" stroke="black" d="M382.062,-525C391.877,-525 410.359,-525 427.389,-525"/>
<polygon fill="black" stroke="black" points="427.715,-528.5 437.715,-525 427.715,-521.5 427.715,-528.5"/>
</g>
<!-- reaction_3&#45;&gt;reaction_3_intermediate_m -->
<g id="edge20" class="edge"><title>reaction_3&#45;&gt;reaction_3_intermediate_m</title>
<path fill="none" stroke="black" d="M391.704,-512.178C395.299,-509.045 398.936,-505.563 402,-502 421.785,-478.999 418.459,-467.208 438,-444 448.018,-432.102 463.965,-420.733 464.952,-420.034"/>
<polygon fill="none" stroke="black" points="391.524,-512.323 389.37,-519.205 382.189,-519.862 384.343,-512.981 391.524,-512.323"/>
</g>
<!-- reaction_3_intermediate_r&#45;&gt;reaction_3 -->
<g id="edge14" class="edge"><title>reaction_3_intermediate_r&#45;&gt;reaction_3</title>
<path fill="none" stroke="black" d="M312.046,-528.997C313.551,-528.902 351.877,-526.468 367.979,-525.446"/>
</g>
<!-- reaction_4 -->
<g id="node40" class="node"><title>reaction_4</title>
<polygon fill="none" stroke="black" points="150,-353 136,-353 136,-339 150,-339 150,-353"/>
</g>
<!-- reaction_4_intermediate_p -->
<g id="node43" class="node"><title>reaction_4_intermediate_p</title>
<ellipse fill="black" stroke="black" cx="186" cy="-346" rx="0.036" ry="0.036"/>
</g>
<!-- reaction_4&#45;&gt;reaction_4_intermediate_p -->
<g id="edge30" class="edge"><title>reaction_4&#45;&gt;reaction_4_intermediate_p</title>
<path fill="none" stroke="black" d="M150.101,-346C161.932,-346 184.531,-346 185.932,-346"/>
</g>
<!-- reaction_4_empty -->
<g id="node41" class="node"><title>reaction_4_empty</title>
<text text-anchor="middle" x="50" y="-341.5" font-family="Times Roman,serif" font-size="15.00" fill="blue">Ø</text>
</g>
<!-- reaction_4_empty&#45;&gt;reaction_4 -->
<g id="edge28" class="edge"><title>reaction_4_empty&#45;&gt;reaction_4</title>
<path fill="none" stroke="black" d="M77.4001,-346C97.546,-346 123.481,-346 135.838,-346"/>
</g>
<!-- reaction_4_intermediate_p&#45;&gt;species_2 -->
<g id="edge32" class="edge"><title>reaction_4_intermediate_p&#45;&gt;species_2</title>
<path fill="none" stroke="black" d="M186.046,-346C186.865,-346 198.597,-346 211.716,-346"/>
<polygon fill="black" stroke="black" points="211.86,-349.5 221.86,-346 211.859,-342.5 211.86,-349.5"/>
</g>
<!-- reaction_5 -->
<g id="node46" class="node"><title>reaction_5</title>
<polygon fill="none" stroke="black" points="382,-493 368,-493 368,-479 382,-479 382,-493"/>
</g>
<!-- reaction_5_empty -->
<g id="node50" class="node"><title>reaction_5_empty</title>
<text text-anchor="middle" x="465" y="-466.5" font-family="Times Roman,serif" font-size="15.00" fill="blue">Ø</text>
</g>
<!-- reaction_5&#45;&gt;reaction_5_empty -->
<g id="edge38" class="edge"><title>reaction_5&#45;&gt;reaction_5_empty</title>
<path fill="none" stroke="black" d="M382.062,-484.823C391.877,-483.187 410.359,-480.107 427.389,-477.269"/>
<polygon fill="black" stroke="black" points="428.426,-480.644 437.715,-475.548 427.275,-473.739 428.426,-480.644"/>
</g>
<!-- reaction_5_intermediate_r&#45;&gt;reaction_5 -->
<g id="edge34" class="edge"><title>reaction_5_intermediate_r&#45;&gt;reaction_5</title>
<path fill="none" stroke="black" d="M312.048,-425.081C313.044,-426.751 329.273,-453.723 348,-470 354.086,-475.29 362.16,-479.811 367.888,-482.684"/>
</g>
<!-- reaction_6 -->
<g id="node52" class="node"><title>reaction_6</title>
<polygon fill="none" stroke="black" points="382,-353 368,-353 368,-339 382,-339 382,-353"/>
</g>
<!-- reaction_6_empty -->
<g id="node56" class="node"><title>reaction_6_empty</title>
<text text-anchor="middle" x="465" y="-341.5" font-family="Times Roman,serif" font-size="15.00" fill="blue">Ø</text>
</g>
<!-- reaction_6&#45;&gt;reaction_6_empty -->
<g id="edge44" class="edge"><title>reaction_6&#45;&gt;reaction_6_empty</title>
<path fill="none" stroke="black" d="M382.062,-346C391.877,-346 410.359,-346 427.389,-346"/>
<polygon fill="black" stroke="black" points="427.715,-349.5 437.715,-346 427.715,-342.5 427.715,-349.5"/>
</g>
<!-- reaction_6&#45;&gt;reaction_6_intermediate_m -->
<g id="edge46" class="edge"><title>reaction_6&#45;&gt;reaction_6_intermediate_m</title>
<path fill="none" stroke="black" d="M393.283,-354.126C419.113,-365.606 463.352,-385.268 464.955,-385.98"/>
<polygon fill="none" stroke="black" points="393.028,-354.012 385.92,-355.231 382.062,-349.139 389.17,-347.92 393.028,-354.012"/>
</g>
<!-- reaction_6_intermediate_r&#45;&gt;reaction_6 -->
<g id="edge40" class="edge"><title>reaction_6_intermediate_r&#45;&gt;reaction_6</title>
<path fill="none" stroke="black" d="M312.046,-346C313.551,-346 351.877,-346 367.979,-346"/>
</g>
<!-- reaction_7 -->
<g id="node63" class="node"><title>reaction_7</title>
<polygon fill="none" stroke="black" points="382,-213 368,-213 368,-199 382,-199 382,-213"/>
</g>
<!-- reaction_7_empty -->
<g id="node67" class="node"><title>reaction_7_empty</title>
<text text-anchor="middle" x="465" y="-201.5" font-family="Times Roman,serif" font-size="15.00" fill="blue">Ø</text>
</g>
<!-- reaction_7&#45;&gt;reaction_7_empty -->
<g id="edge58" class="edge"><title>reaction_7&#45;&gt;reaction_7_empty</title>
<path fill="none" stroke="black" d="M382.062,-206C391.877,-206 410.359,-206 427.389,-206"/>
<polygon fill="black" stroke="black" points="427.715,-209.5 437.715,-206 427.715,-202.5 427.715,-209.5"/>
</g>
<!-- reaction_7&#45;&gt;reaction_7_intermediate_m -->
<g id="edge60" class="edge"><title>reaction_7&#45;&gt;reaction_7_intermediate_m</title>
<path fill="none" stroke="black" d="M393.283,-214.126C419.113,-225.606 463.352,-245.268 464.955,-245.98"/>
<polygon fill="none" stroke="black" points="393.028,-214.012 385.92,-215.231 382.062,-209.139 389.17,-207.92 393.028,-214.012"/>
</g>
<!-- reaction_7_intermediate_r&#45;&gt;reaction_7 -->
<g id="edge54" class="edge"><title>reaction_7_intermediate_r&#45;&gt;reaction_7</title>
<path fill="none" stroke="black" d="M312.048,-266.919C313.044,-265.249 329.273,-238.277 348,-222 354.086,-216.71 362.16,-212.189 367.888,-209.316"/>
</g>
<!-- reaction_8 -->
<g id="node74" class="node"><title>reaction_8</title>
<polygon fill="none" stroke="black" points="150,-50 136,-50 136,-36 150,-36 150,-50"/>
</g>
<!-- reaction_8_intermediate_p -->
<g id="node77" class="node"><title>reaction_8_intermediate_p</title>
<ellipse fill="black" stroke="black" cx="186" cy="-43" rx="0.036" ry="0.036"/>
</g>
<!-- reaction_8&#45;&gt;reaction_8_intermediate_p -->
<g id="edge70" class="edge"><title>reaction_8&#45;&gt;reaction_8_intermediate_p</title>
<path fill="none" stroke="black" d="M150.101,-43C161.932,-43 184.531,-43 185.932,-43"/>
</g>
<!-- reaction_8_empty -->
<g id="node75" class="node"><title>reaction_8_empty</title>
<text text-anchor="middle" x="50" y="-38.5" font-family="Times Roman,serif" font-size="15.00" fill="blue">Ø</text>
</g>
<!-- reaction_8_empty&#45;&gt;reaction_8 -->
<g id="edge68" class="edge"><title>reaction_8_empty&#45;&gt;reaction_8</title>
<path fill="none" stroke="black" d="M77.4001,-43C97.546,-43 123.481,-43 135.838,-43"/>
</g>
<!-- reaction_8_intermediate_p&#45;&gt;species_3 -->
<g id="edge72" class="edge"><title>reaction_8_intermediate_p&#45;&gt;species_3</title>
<path fill="none" stroke="black" d="M186.046,-43C186.865,-43 198.597,-43 211.716,-43"/>
<polygon fill="black" stroke="black" points="211.86,-46.5001 221.86,-43 211.859,-39.5001 211.86,-46.5001"/>
</g>
<!-- reaction_9 -->
<g id="node80" class="node"><title>reaction_9</title>
<polygon fill="none" stroke="black" points="382,-30 368,-30 368,-16 382,-16 382,-30"/>
</g>
<!-- reaction_9_empty -->
<g id="node84" class="node"><title>reaction_9_empty</title>
<text text-anchor="middle" x="465" y="-13.5" font-family="Times Roman,serif" font-size="15.00" fill="blue">Ø</text>
</g>
<!-- reaction_9&#45;&gt;reaction_9_empty -->
<g id="edge78" class="edge"><title>reaction_9&#45;&gt;reaction_9_empty</title>
<path fill="none" stroke="black" d="M382.062,-22.6077C391.877,-22.0624 410.359,-21.0356 427.389,-20.0895"/>
<polygon fill="black" stroke="black" points="427.924,-23.5653 437.715,-19.5159 427.536,-16.576 427.924,-23.5653"/>
</g>
<!-- reaction_9_intermediate_r&#45;&gt;reaction_9 -->
<g id="edge74" class="edge"><title>reaction_9_intermediate_r&#45;&gt;reaction_9</title>
<path fill="none" stroke="black" d="M312.046,-25.9978C313.551,-25.9261 351.877,-24.1011 367.979,-23.3343"/>
</g>
<!-- reaction_10 -->
<g id="node86" class="node"><title>reaction_10</title>
<polygon fill="none" stroke="black" points="382,-73 368,-73 368,-59 382,-59 382,-73"/>
</g>
<!-- reaction_10_empty -->
<g id="node90" class="node"><title>reaction_10_empty</title>
<text text-anchor="middle" x="465" y="-67.5" font-family="Times Roman,serif" font-size="15.00" fill="blue">Ø</text>
</g>
<!-- reaction_10&#45;&gt;reaction_10_empty -->
<g id="edge84" class="edge"><title>reaction_10&#45;&gt;reaction_10_empty</title>
<path fill="none" stroke="black" d="M382.062,-66.4708C391.877,-67.1251 410.359,-68.3572 427.389,-69.4926"/>
<polygon fill="black" stroke="black" points="427.504,-73.0079 437.715,-70.181 427.97,-66.0234 427.504,-73.0079"/>
</g>
<!-- reaction_10&#45;&gt;reaction_10_intermediate_m -->
<g id="edge86" class="edge"><title>reaction_10&#45;&gt;reaction_10_intermediate_m</title>
<path fill="none" stroke="black" d="M392.819,-75.9622C395.939,-77.8744 399.11,-79.9291 402,-82 431.039,-102.81 462.939,-133.978 464.904,-135.906"/>
<polygon fill="none" stroke="black" points="392.705,-75.8963 385.508,-76.3515 382.32,-69.8834 389.517,-69.4282 392.705,-75.8963"/>
</g>
<!-- reaction_10_intermediate_r&#45;&gt;reaction_10 -->
<g id="edge80" class="edge"><title>reaction_10_intermediate_r&#45;&gt;reaction_10</title>
<path fill="none" stroke="black" d="M312.046,-59.0051C313.551,-59.1723 351.877,-63.4308 367.979,-65.2199"/>
</g>
</g>
</svg>
