<?xml version="1.0" encoding="UTF-8" standalone="no"?>
<!DOCTYPE svg PUBLIC "-//W3C//DTD SVG 1.1//EN"
 "http://www.w3.org/Graphics/SVG/1.1/DTD/svg11.dtd">
<!-- Generated by graphviz version 2.30.1 (20140821.0912)
 -->
<!-- Title: G Pages: 1 -->
<svg width="1270pt" height="1007pt"
 viewBox="0.00 0.00 1270.00 1007.00" xmlns="http://www.w3.org/2000/svg" xmlns:xlink="http://www.w3.org/1999/xlink">
<g id="graph0" class="graph" transform="scale(1 1) rotate(0) translate(4 1003)">
<title>G</title>
<polygon fill="white" stroke="white" points="-4,5 -4,-1003 1267,-1003 1267,5 -4,5"/>
<!-- K_ECF -->
<g id="K_ECF" class="node"><title>K_ECF</title>
<ellipse fill="none" stroke="black" cx="571" cy="-284" rx="27.8353" ry="18"/>
<text text-anchor="middle" x="571" y="-281.5" font-family="Times,serif" font-size="10.00">K_ECF</text>
</g>
<!-- re4_intermediate_r -->
<g id="node44" class="node"><title>re4_intermediate_r</title>
<ellipse fill="black" stroke="black" cx="645" cy="-513" rx="0.036" ry="0.036"/>
</g>
<!-- K_ECF&#45;&gt;re4_intermediate_r -->
<g id="edge29" class="edge"><title>K_ECF&#45;&gt;re4_intermediate_r</title>
<path fill="none" stroke="black" d="M577.53,-301.589C594.126,-354.374 642.458,-508.095 643.964,-512.885"/>
</g>
<!-- re5_intermediate_r -->
<g id="node48" class="node"><title>re5_intermediate_r</title>
<ellipse fill="black" stroke="black" cx="645" cy="-201" rx="0.036" ry="0.036"/>
</g>
<!-- K_ECF&#45;&gt;re5_intermediate_r -->
<g id="edge35" class="edge"><title>K_ECF&#45;&gt;re5_intermediate_r</title>
<path fill="none" stroke="black" d="M585.543,-268.388C605.748,-245.097 641.666,-203.69 643.892,-201.125"/>
</g>
<!-- re7_intermediate_r -->
<g id="node51" class="node"><title>re7_intermediate_r</title>
<ellipse fill="black" stroke="black" cx="645" cy="-320" rx="0.036" ry="0.036"/>
</g>
<!-- K_ECF&#45;&gt;re7_intermediate_r -->
<g id="edge39" class="edge"><title>K_ECF&#45;&gt;re7_intermediate_r</title>
<path fill="none" stroke="black" d="M593.602,-294.801C614.148,-305.074 642.183,-319.092 643.916,-319.958"/>
</g>
<!-- re9_intermediate_r -->
<g id="node55" class="node"><title>re9_intermediate_r</title>
<ellipse fill="black" stroke="black" cx="645" cy="-169" rx="0.036" ry="0.036"/>
</g>
<!-- K_ECF&#45;&gt;re9_intermediate_r -->
<g id="edge45" class="edge"><title>K_ECF&#45;&gt;re9_intermediate_r</title>
<path fill="none" stroke="black" d="M582.316,-267.523C601.913,-236.222 642.7,-171.077 643.97,-169.048"/>
</g>
<!-- re35_intermediate_r -->
<g id="node59" class="node"><title>re35_intermediate_r</title>
<ellipse fill="black" stroke="black" cx="645" cy="-361" rx="0.036" ry="0.036"/>
</g>
<!-- K_ECF&#45;&gt;re35_intermediate_r -->
<g id="edge51" class="edge"><title>K_ECF&#45;&gt;re35_intermediate_r</title>
<path fill="none" stroke="black" d="M586.225,-299.213C606.552,-320.952 641.716,-358.557 643.894,-360.886"/>
</g>
<!-- re6_intermediate_r -->
<g id="node62" class="node"><title>re6_intermediate_r</title>
<ellipse fill="black" stroke="black" cx="645" cy="-284" rx="0.036" ry="0.036"/>
</g>
<!-- K_ECF&#45;&gt;re6_intermediate_r -->
<g id="edge55" class="edge"><title>K_ECF&#45;&gt;re6_intermediate_r</title>
<path fill="none" stroke="black" d="M598.81,-284C618.641,-284 642.459,-284 643.928,-284"/>
</g>
<!-- K_ICF -->
<g id="K_ICF" class="node"><title>K_ICF</title>
<ellipse fill="none" stroke="black" cx="844" cy="-522" rx="27" ry="18"/>
<text text-anchor="middle" x="844" y="-519.5" font-family="Times,serif" font-size="10.00">K_ICF</text>
</g>
<!-- re3_intermediate_r -->
<g id="node71" class="node"><title>re3_intermediate_r</title>
<ellipse fill="black" stroke="black" cx="915" cy="-519" rx="0.036" ry="0.036"/>
</g>
<!-- K_ICF&#45;&gt;re3_intermediate_r -->
<g id="edge67" class="edge"><title>K_ICF&#45;&gt;re3_intermediate_r</title>
<path fill="none" stroke="black" d="M871.086,-520.866C890.015,-520.043 912.543,-519.063 913.932,-519.003"/>
</g>
<!-- K_urin -->
<g id="K_urin" class="node"><title>K_urin</title>
<ellipse fill="none" stroke="black" cx="844" cy="-46" rx="27.1572" ry="18"/>
<text text-anchor="middle" x="844" y="-43.5" font-family="Times,serif" font-size="10.00">K_urin</text>
</g>
<!-- K_tiss -->
<g id="K_tiss" class="node"><title>K_tiss</title>
<ellipse fill="none" stroke="black" cx="844" cy="-338" rx="27" ry="18"/>
<text text-anchor="middle" x="844" y="-335.5" font-family="Times,serif" font-size="10.00">K_tiss</text>
</g>
<!-- re8_intermediate_r -->
<g id="node77" class="node"><title>re8_intermediate_r</title>
<ellipse fill="black" stroke="black" cx="915" cy="-306" rx="0.036" ry="0.036"/>
</g>
<!-- K_tiss&#45;&gt;re8_intermediate_r -->
<g id="edge75" class="edge"><title>K_tiss&#45;&gt;re8_intermediate_r</title>
<path fill="none" stroke="black" d="M866.832,-327.875C886.415,-318.793 912.322,-306.778 913.922,-306.036"/>
</g>
<!-- K_sal -->
<g id="K_sal" class="node"><title>K_sal</title>
<ellipse fill="none" stroke="black" cx="844" cy="-138" rx="27" ry="18"/>
<text text-anchor="middle" x="844" y="-135.5" font-family="Times,serif" font-size="10.00">K_sal</text>
</g>
<!-- re11_intermediate_r -->
<g id="node74" class="node"><title>re11_intermediate_r</title>
<ellipse fill="black" stroke="black" cx="915" cy="-143" rx="0.036" ry="0.036"/>
</g>
<!-- K_sal&#45;&gt;re11_intermediate_r -->
<g id="edge71" class="edge"><title>K_sal&#45;&gt;re11_intermediate_r</title>
<path fill="none" stroke="black" d="M871.086,-139.89C890.015,-141.262 912.543,-142.894 913.932,-142.995"/>
</g>
<!-- met_act -->
<g id="met_act" class="node"><title>met_act</title>
<ellipse fill="none" stroke="black" cx="284" cy="-873" rx="28.6898" ry="18"/>
<text text-anchor="middle" x="284" y="-870.5" font-family="Times,serif" font-size="10.00">met_act</text>
</g>
<!-- re21_intermediate_r -->
<g id="node81" class="node"><title>re21_intermediate_r</title>
<ellipse fill="black" stroke="black" cx="357" cy="-873" rx="0.036" ry="0.036"/>
</g>
<!-- met_act&#45;&gt;re21_intermediate_r -->
<g id="edge81" class="edge"><title>met_act&#45;&gt;re21_intermediate_r</title>
<path fill="none" stroke="black" d="M313.061,-873C332.287,-873 354.56,-873 355.933,-873"/>
</g>
<!-- K_milk -->
<g id="K_milk" class="node"><title>K_milk</title>
<ellipse fill="none" stroke="black" cx="844" cy="-430" rx="28.0137" ry="18"/>
<text text-anchor="middle" x="844" y="-427.5" font-family="Times,serif" font-size="10.00">K_milk</text>
</g>
<!-- K_ECF_mmol -->
<g id="K_ECF_mmol" class="node"><title>K_ECF_mmol</title>
<ellipse fill="none" stroke="black" cx="45" cy="-927" rx="44.978" ry="18"/>
<text text-anchor="middle" x="45" y="-924.5" font-family="Times,serif" font-size="10.00">K_ECF_mmol</text>
</g>
<!-- K_ICF_mmol -->
<g id="K_ICF_mmol" class="node"><title>K_ICF_mmol</title>
<ellipse fill="none" stroke="black" cx="45" cy="-981" rx="42.9448" ry="18"/>
<text text-anchor="middle" x="45" y="-978.5" font-family="Times,serif" font-size="10.00">K_ICF_mmol</text>
</g>
<!-- K_git -->
<g id="K_git" class="node"><title>K_git</title>
<ellipse fill="none" stroke="black" cx="1111" cy="-174" rx="27" ry="18"/>
<text text-anchor="middle" x="1111" y="-171.5" font-family="Times,serif" font-size="10.00">K_git</text>
</g>
<!-- re7_intermediate_m -->
<g id="node53" class="node"><title>re7_intermediate_m</title>
<ellipse fill="black" stroke="black" cx="1175" cy="-309" rx="0.036" ry="0.036"/>
</g>
<!-- K_git&#45;&gt;re7_intermediate_m -->
<g id="edge43" class="edge"><title>K_git&#45;&gt;re7_intermediate_m</title>
<path fill="none" stroke="black" d="M1119.85,-191.098C1136.27,-226.857 1172.83,-306.462 1173.97,-308.941"/>
</g>
<!-- re9_intermediate_m -->
<g id="node57" class="node"><title>re9_intermediate_m</title>
<ellipse fill="black" stroke="black" cx="1175" cy="-112" rx="0.036" ry="0.036"/>
</g>
<!-- K_git&#45;&gt;re9_intermediate_m -->
<g id="edge49" class="edge"><title>K_git&#45;&gt;re9_intermediate_m</title>
<path fill="none" stroke="black" d="M1126.69,-159.307C1144.45,-141.546 1172.2,-113.8 1173.92,-112.084"/>
</g>
<!-- re10_intermediate_r -->
<g id="node68" class="node"><title>re10_intermediate_r</title>
<ellipse fill="black" stroke="black" cx="1175" cy="-154" rx="0.036" ry="0.036"/>
</g>
<!-- K_git&#45;&gt;re10_intermediate_r -->
<g id="edge63" class="edge"><title>K_git&#45;&gt;re10_intermediate_r</title>
<path fill="none" stroke="black" d="M1135.79,-166.325C1152.73,-160.861 1172.71,-154.417 1173.94,-154.019"/>
</g>
<!-- re8_intermediate_m -->
<g id="node79" class="node"><title>re8_intermediate_m</title>
<ellipse fill="black" stroke="black" cx="1175" cy="-193" rx="0.036" ry="0.036"/>
</g>
<!-- K_git&#45;&gt;re8_intermediate_m -->
<g id="edge79" class="edge"><title>K_git&#45;&gt;re8_intermediate_m</title>
<path fill="none" stroke="black" d="M1135.79,-181.292C1152.73,-186.482 1172.71,-192.604 1173.94,-192.982"/>
</g>
<!-- Gluc_b -->
<g id="Gluc_b" class="node"><title>Gluc_b</title>
<ellipse fill="none" stroke="black" cx="571" cy="-616" rx="27.8353" ry="18"/>
<text text-anchor="middle" x="571" y="-613.5" font-family="Times,serif" font-size="10.00">Gluc_b</text>
</g>
<!-- re37_intermediate_r -->
<g id="node28" class="node"><title>re37_intermediate_r</title>
<ellipse fill="black" stroke="black" cx="645" cy="-713" rx="0.036" ry="0.036"/>
</g>
<!-- Gluc_b&#45;&gt;re37_intermediate_r -->
<g id="edge6" class="edge"><title>Gluc_b&#45;&gt;re37_intermediate_r</title>
<path fill="none" stroke="black" d="M583.889,-632.018C603.7,-658.707 641.54,-709.686 643.886,-712.846"/>
</g>
<!-- re40_intermediate_r -->
<g id="node84" class="node"><title>re40_intermediate_r</title>
<ellipse fill="black" stroke="black" cx="645" cy="-643" rx="0.036" ry="0.036"/>
</g>
<!-- Gluc_b&#45;&gt;re40_intermediate_r -->
<g id="edge85" class="edge"><title>Gluc_b&#45;&gt;re40_intermediate_r</title>
<path fill="none" stroke="black" d="M595.575,-624.841C615.918,-632.469 642.292,-642.36 643.921,-642.97"/>
</g>
<!-- re31_intermediate_m -->
<g id="node99" class="node"><title>re31_intermediate_m</title>
<ellipse fill="black" stroke="black" cx="645" cy="-583" rx="0.036" ry="0.036"/>
</g>
<!-- Gluc_b&#45;&gt;re31_intermediate_m -->
<g id="edge107" class="edge"><title>Gluc_b&#45;&gt;re31_intermediate_m</title>
<path fill="none" stroke="black" d="M593.994,-605.92C614.506,-596.518 642.205,-583.823 643.917,-583.038"/>
</g>
<!-- ins_b -->
<g id="ins_b" class="node"><title>ins_b</title>
<ellipse fill="none" stroke="black" cx="709" cy="-565" rx="27" ry="18"/>
<text text-anchor="middle" x="709" y="-562.5" font-family="Times,serif" font-size="10.00">ins_b</text>
</g>
<!-- re37_intermediate_m -->
<g id="node30" class="node"><title>re37_intermediate_m</title>
<ellipse fill="black" stroke="black" cx="773" cy="-734" rx="0.036" ry="0.036"/>
</g>
<!-- ins_b&#45;&gt;re37_intermediate_m -->
<g id="edge10" class="edge"><title>ins_b&#45;&gt;re37_intermediate_m</title>
<path fill="none" stroke="black" d="M717.176,-582.294C722.527,-595.341 729.928,-613.715 736,-630 752.554,-674.399 770.82,-730.377 771.945,-733.832"/>
</g>
<!-- re4_intermediate_m -->
<g id="node46" class="node"><title>re4_intermediate_m</title>
<ellipse fill="black" stroke="black" cx="773" cy="-543" rx="0.036" ry="0.036"/>
</g>
<!-- ins_b&#45;&gt;re4_intermediate_m -->
<g id="edge33" class="edge"><title>ins_b&#45;&gt;re4_intermediate_m</title>
<path fill="none" stroke="black" d="M733.087,-556.808C750.163,-550.749 770.673,-543.471 771.938,-543.022"/>
</g>
<!-- re32_intermediate_r -->
<g id="node88" class="node"><title>re32_intermediate_r</title>
<ellipse fill="black" stroke="black" cx="773" cy="-565" rx="0.036" ry="0.036"/>
</g>
<!-- ins_b&#45;&gt;re32_intermediate_r -->
<g id="edge91" class="edge"><title>ins_b&#45;&gt;re32_intermediate_r</title>
<path fill="none" stroke="black" d="M736.294,-565C752.664,-565 770.826,-565 771.946,-565"/>
</g>
<!-- Gluc_stor -->
<g id="Gluc_stor" class="node"><title>Gluc_stor</title>
<ellipse fill="none" stroke="black" cx="844" cy="-748" rx="33.6077" ry="18"/>
<text text-anchor="middle" x="844" y="-745.5" font-family="Times,serif" font-size="10.00">Gluc_stor</text>
</g>
<!-- re38_intermediate_r -->
<g id="node38" class="node"><title>re38_intermediate_r</title>
<ellipse fill="black" stroke="black" cx="915" cy="-694" rx="0.036" ry="0.036"/>
</g>
<!-- Gluc_stor&#45;&gt;re38_intermediate_r -->
<g id="edge21" class="edge"><title>Gluc_stor&#45;&gt;re38_intermediate_r</title>
<path fill="none" stroke="black" d="M863.855,-733.244C883.646,-717.755 912.152,-695.446 913.914,-694.067"/>
</g>
<!-- re43_intermediate_r -->
<g id="node41" class="node"><title>re43_intermediate_r</title>
<ellipse fill="black" stroke="black" cx="915" cy="-760" rx="0.036" ry="0.036"/>
</g>
<!-- Gluc_stor&#45;&gt;re43_intermediate_r -->
<g id="edge25" class="edge"><title>Gluc_stor&#45;&gt;re43_intermediate_r</title>
<path fill="none" stroke="black" d="M876.27,-753.438C893.956,-756.514 912.784,-759.789 913.944,-759.99"/>
</g>
<!-- Gluc_prod -->
<g id="Gluc_prod" class="node"><title>Gluc_prod</title>
<ellipse fill="none" stroke="black" cx="284" cy="-751" rx="35.8171" ry="18"/>
<text text-anchor="middle" x="284" y="-748.5" font-family="Times,serif" font-size="10.00">Gluc_prod</text>
</g>
<!-- Gluc_prod&#45;&gt;re37_intermediate_m -->
<g id="edge11" class="edge"><title>Gluc_prod&#45;&gt;re37_intermediate_m</title>
<path fill="none" stroke="black" d="M319.964,-751C347.219,-751 386.016,-751 420,-751 420,-751 420,-751 646,-751 701.624,-751 769.832,-734.527 771.949,-734.012"/>
</g>
<!-- re41_intermediate_r -->
<g id="node32" class="node"><title>re41_intermediate_r</title>
<ellipse fill="black" stroke="black" cx="357" cy="-650" rx="0.036" ry="0.036"/>
</g>
<!-- Gluc_prod&#45;&gt;re41_intermediate_r -->
<g id="edge13" class="edge"><title>Gluc_prod&#45;&gt;re41_intermediate_r</title>
<path fill="none" stroke="black" d="M297.044,-733.867C316.668,-705.951 353.599,-653.415 355.888,-650.159"/>
</g>
<!-- re39_intermediate_r -->
<g id="node35" class="node"><title>re39_intermediate_r</title>
<ellipse fill="black" stroke="black" cx="357" cy="-784" rx="0.036" ry="0.036"/>
</g>
<!-- Gluc_prod&#45;&gt;re39_intermediate_r -->
<g id="edge17" class="edge"><title>Gluc_prod&#45;&gt;re39_intermediate_r</title>
<path fill="none" stroke="black" d="M311.035,-763.101C330.665,-772.224 354.46,-783.284 355.929,-783.967"/>
</g>
<!-- re40_intermediate_m -->
<g id="node86" class="node"><title>re40_intermediate_m</title>
<ellipse fill="black" stroke="black" cx="773" cy="-673" rx="0.036" ry="0.036"/>
</g>
<!-- Gluc_prod&#45;&gt;re40_intermediate_m -->
<g id="edge89" class="edge"><title>Gluc_prod&#45;&gt;re40_intermediate_m</title>
<path fill="none" stroke="black" d="M302.283,-735.116C326.623,-714.463 373.27,-681 420,-681 420,-681 420,-681 646,-681 701.236,-681 769.819,-673.248 771.949,-673.006"/>
</g>
<!-- src_metact -->
<g id="src_metact" class="node"><title>src_metact</title>
<ellipse fill="none" stroke="black" cx="45" cy="-873" rx="35.1405" ry="18"/>
<text text-anchor="middle" x="45" y="-870.5" font-family="Times,serif" font-size="10.00">src_metact</text>
</g>
<!-- re20_intermediate_r -->
<g id="node25" class="node"><title>re20_intermediate_r</title>
<ellipse fill="black" stroke="black" cx="126" cy="-873" rx="0.036" ry="0.036"/>
</g>
<!-- src_metact&#45;&gt;re20_intermediate_r -->
<g id="edge2" class="edge"><title>src_metact&#45;&gt;re20_intermediate_r</title>
<path fill="none" stroke="black" d="M80.4207,-873C101.044,-873 123.546,-873 124.933,-873"/>
</g>
<!-- snk_metact -->
<g id="snk_metact" class="node"><title>snk_metact</title>
<ellipse fill="none" stroke="black" cx="571" cy="-873" rx="37.1717" ry="18"/>
<text text-anchor="middle" x="571" y="-870.5" font-family="Times,serif" font-size="10.00">snk_metact</text>
</g>
<!-- src_Kgit -->
<g id="src_Kgit" class="node"><title>src_Kgit</title>
<ellipse fill="none" stroke="black" cx="844" cy="-192" rx="30.7213" ry="18"/>
<text text-anchor="middle" x="844" y="-189.5" font-family="Times,serif" font-size="10.00">src_Kgit</text>
</g>
<!-- re34_intermediate_r -->
<g id="node65" class="node"><title>re34_intermediate_r</title>
<ellipse fill="black" stroke="black" cx="915" cy="-189" rx="0.036" ry="0.036"/>
</g>
<!-- src_Kgit&#45;&gt;re34_intermediate_r -->
<g id="edge59" class="edge"><title>src_Kgit&#45;&gt;re34_intermediate_r</title>
<path fill="none" stroke="black" d="M874.663,-190.71C892.78,-189.923 912.712,-189.056 913.94,-189.003"/>
</g>
<!-- src_Glucblood -->
<g id="src_Glucblood" class="node"><title>src_Glucblood</title>
<ellipse fill="none" stroke="black" cx="284" cy="-614" rx="34.9638" ry="18"/>
<text text-anchor="middle" x="284" y="-611.5" font-family="Times,serif" font-size="10.00">src_Glucb</text>
</g>
<!-- re33_intermediate_r -->
<g id="node91" class="node"><title>re33_intermediate_r</title>
<ellipse fill="black" stroke="black" cx="357" cy="-614" rx="0.036" ry="0.036"/>
</g>
<!-- src_Glucblood&#45;&gt;re33_intermediate_r -->
<g id="edge95" class="edge"><title>src_Glucblood&#45;&gt;re33_intermediate_r</title>
<path fill="none" stroke="black" d="M318.836,-614C336.552,-614 354.821,-614 355.945,-614"/>
</g>
<!-- s23 -->
<g id="s23" class="node"><title>s23</title>
<ellipse fill="none" stroke="black" cx="45" cy="-751" rx="34.9638" ry="18"/>
<text text-anchor="middle" x="45" y="-748.5" font-family="Times,serif" font-size="10.00">src_Gprod</text>
</g>
<!-- re36_intermediate_r -->
<g id="node94" class="node"><title>re36_intermediate_r</title>
<ellipse fill="black" stroke="black" cx="126" cy="-751" rx="0.036" ry="0.036"/>
</g>
<!-- s23&#45;&gt;re36_intermediate_r -->
<g id="edge99" class="edge"><title>s23&#45;&gt;re36_intermediate_r</title>
<path fill="none" stroke="black" d="M79.9616,-751C100.704,-751 123.525,-751 124.932,-751"/>
</g>
<!-- sa4_degraded -->
<g id="sa4_degraded" class="node"><title>sa4_degraded</title>
<ellipse fill="none" stroke="black" cx="844" cy="-284" rx="32.9303" ry="18"/>
<text text-anchor="middle" x="844" y="-281.5" font-family="Times,serif" font-size="10.00">snk_Kecf</text>
</g>
<!-- s24 -->
<g id="s24" class="node"><title>s24</title>
<ellipse fill="none" stroke="black" cx="844" cy="-657" rx="32.9303" ry="18"/>
<text text-anchor="middle" x="844" y="-654.5" font-family="Times,serif" font-size="10.00">Gluc_use</text>
</g>
<!-- src_insnew -->
<g id="src_insnew" class="node"><title>src_insnew</title>
<ellipse fill="none" stroke="black" cx="421" cy="-570" rx="27" ry="18"/>
<text text-anchor="middle" x="421" y="-567.5" font-family="Times,serif" font-size="10.00">src_ins</text>
</g>
<!-- re31_intermediate_r -->
<g id="node97" class="node"><title>re31_intermediate_r</title>
<ellipse fill="black" stroke="black" cx="491" cy="-570" rx="0.036" ry="0.036"/>
</g>
<!-- src_insnew&#45;&gt;re31_intermediate_r -->
<g id="edge103" class="edge"><title>src_insnew&#45;&gt;re31_intermediate_r</title>
<path fill="none" stroke="black" d="M448.096,-570C466.673,-570 488.583,-570 489.934,-570"/>
</g>
<!-- snk_insnew -->
<g id="snk_insnew" class="node"><title>snk_insnew</title>
<ellipse fill="none" stroke="black" cx="981" cy="-565" rx="28.0137" ry="18"/>
<text text-anchor="middle" x="981" y="-562.5" font-family="Times,serif" font-size="10.00">snk_ins</text>
</g>
<!-- re20 -->
<g id="node24" class="node"><title>re20</title>
<polygon fill="none" stroke="black" points="176,-880 162,-880 162,-866 176,-866 176,-880"/>
</g>
<!-- re20_intermediate_p -->
<g id="node26" class="node"><title>re20_intermediate_p</title>
<ellipse fill="black" stroke="black" cx="212" cy="-873" rx="0.036" ry="0.036"/>
</g>
<!-- re20&#45;&gt;re20_intermediate_p -->
<g id="edge3" class="edge"><title>re20&#45;&gt;re20_intermediate_p</title>
<path fill="none" stroke="black" d="M176.05,-873C187.098,-873 209.54,-873 210.932,-873"/>
</g>
<!-- re20_intermediate_r&#45;&gt;re20 -->
<g id="edge1" class="edge"><title>re20_intermediate_r&#45;&gt;re20</title>
<path fill="none" stroke="black" d="M127.118,-873C128.921,-873 151.016,-873 161.95,-873"/>
</g>
<!-- re20_intermediate_p&#45;&gt;met_act -->
<g id="edge4" class="edge"><title>re20_intermediate_p&#45;&gt;met_act</title>
<path fill="none" stroke="black" d="M213.051,-873C214.022,-873 228.79,-873 244.507,-873"/>
<polygon fill="black" stroke="black" points="244.837,-876.5 254.837,-873 244.837,-869.5 244.837,-876.5"/>
</g>
<!-- re37 -->
<g id="node27" class="node"><title>re37</title>
<polygon fill="none" stroke="black" points="716,-723 702,-723 702,-709 716,-709 716,-723"/>
</g>
<!-- re37_intermediate_p -->
<g id="node29" class="node"><title>re37_intermediate_p</title>
<ellipse fill="black" stroke="black" cx="773" cy="-716" rx="0.036" ry="0.036"/>
</g>
<!-- re37&#45;&gt;re37_intermediate_p -->
<g id="edge7" class="edge"><title>re37&#45;&gt;re37_intermediate_p</title>
<path fill="none" stroke="black" d="M716.171,-716C731.364,-716 769.515,-716 771.884,-716"/>
</g>
<!-- re37&#45;&gt;re37_intermediate_m -->
<g id="edge9" class="edge"><title>re37&#45;&gt;re37_intermediate_m</title>
<path fill="none" stroke="black" d="M716.171,-717.792C731.364,-722.202 769.515,-733.278 771.884,-733.966"/>
</g>
<!-- re37_intermediate_r&#45;&gt;re37 -->
<g id="edge5" class="edge"><title>re37_intermediate_r&#45;&gt;re37</title>
<path fill="none" stroke="black" d="M646.045,-713.002C647.541,-713.075 685.995,-714.935 701.555,-715.688"/>
</g>
<!-- re37_intermediate_p&#45;&gt;Gluc_stor -->
<g id="edge8" class="edge"><title>re37_intermediate_p&#45;&gt;Gluc_stor</title>
<path fill="none" stroke="black" d="M774.05,-716.023C775.083,-716.502 791.947,-724.323 808.736,-732.11"/>
<polygon fill="black" stroke="black" points="807.411,-735.353 817.955,-736.385 810.356,-729.003 807.411,-735.353"/>
</g>
<!-- re41 -->
<g id="node31" class="node"><title>re41</title>
<polygon fill="none" stroke="black" points="428,-653 414,-653 414,-639 428,-639 428,-653"/>
</g>
<!-- re41_intermediate_p -->
<g id="node33" class="node"><title>re41_intermediate_p</title>
<ellipse fill="black" stroke="black" cx="491" cy="-640" rx="0.036" ry="0.036"/>
</g>
<!-- re41&#45;&gt;re41_intermediate_p -->
<g id="edge14" class="edge"><title>re41&#45;&gt;re41_intermediate_p</title>
<path fill="none" stroke="black" d="M428.275,-645.446C444.583,-644.007 487.222,-640.245 489.871,-640.011"/>
</g>
<!-- re41_intermediate_r&#45;&gt;re41 -->
<g id="edge12" class="edge"><title>re41_intermediate_r&#45;&gt;re41</title>
<path fill="none" stroke="black" d="M358.045,-649.997C359.541,-649.901 397.995,-647.42 413.555,-646.416"/>
</g>
<!-- re41_intermediate_p&#45;&gt;Gluc_b -->
<g id="edge15" class="edge"><title>re41_intermediate_p&#45;&gt;Gluc_b</title>
<path fill="none" stroke="black" d="M492.057,-639.983C493.317,-639.595 515.438,-632.788 535.791,-626.526"/>
<polygon fill="black" stroke="black" points="537.013,-629.812 545.541,-623.526 534.954,-623.122 537.013,-629.812"/>
</g>
<!-- re39 -->
<g id="node34" class="node"><title>re39</title>
<polygon fill="none" stroke="black" points="498,-796 484,-796 484,-782 498,-782 498,-796"/>
</g>
<!-- re39_intermediate_p -->
<g id="node36" class="node"><title>re39_intermediate_p</title>
<ellipse fill="black" stroke="black" cx="571" cy="-789" rx="0.036" ry="0.036"/>
</g>
<!-- re39&#45;&gt;re39_intermediate_p -->
<g id="edge18" class="edge"><title>re39&#45;&gt;re39_intermediate_p</title>
<path fill="none" stroke="black" d="M498.121,-789C515.934,-789 566.691,-789 569.846,-789"/>
</g>
<!-- re39_intermediate_r&#45;&gt;re39 -->
<g id="edge16" class="edge"><title>re39_intermediate_r&#45;&gt;re39</title>
<path fill="none" stroke="black" d="M358.096,-784.004C361.562,-784.135 458.21,-787.796 483.821,-788.766"/>
</g>
<!-- re39_intermediate_p&#45;&gt;Gluc_stor -->
<g id="edge19" class="edge"><title>re39_intermediate_p&#45;&gt;Gluc_stor</title>
<path fill="none" stroke="black" d="M572.066,-788.991C574.845,-788.598 664.316,-775.939 736,-765 757.693,-761.69 781.836,-757.866 801.69,-754.684"/>
<polygon fill="black" stroke="black" points="802.328,-758.127 811.646,-753.085 801.218,-751.215 802.328,-758.127"/>
</g>
<!-- re38 -->
<g id="node37" class="node"><title>re38</title>
<polygon fill="none" stroke="black" points="988,-698 974,-698 974,-684 988,-684 988,-698"/>
</g>
<!-- re38_intermediate_p -->
<g id="node39" class="node"><title>re38_intermediate_p</title>
<ellipse fill="black" stroke="black" cx="1047" cy="-651" rx="0.036" ry="0.036"/>
</g>
<!-- re38&#45;&gt;re38_intermediate_p -->
<g id="edge22" class="edge"><title>re38&#45;&gt;re38_intermediate_p</title>
<path fill="none" stroke="black" d="M988.371,-687.018C1004.05,-677.217 1043.43,-652.603 1045.88,-651.075"/>
</g>
<!-- re38_intermediate_r&#45;&gt;re38 -->
<g id="edge20" class="edge"><title>re38_intermediate_r&#45;&gt;re38</title>
<path fill="none" stroke="black" d="M916.046,-693.998C917.606,-693.925 958.067,-692.028 973.813,-691.29"/>
</g>
<!-- re38_intermediate_p&#45;&gt;Gluc_b -->
<g id="edge23" class="edge"><title>re38_intermediate_p&#45;&gt;Gluc_b</title>
<path fill="none" stroke="black" d="M1045.95,-650.971C1043.83,-649.76 975.506,-611 916,-611 708,-611 708,-611 708,-611 674.418,-611 636.203,-612.541 608.852,-613.912"/>
<polygon fill="black" stroke="black" points="608.376,-610.432 598.57,-614.445 608.738,-617.423 608.376,-610.432"/>
</g>
<!-- re43 -->
<g id="node40" class="node"><title>re43</title>
<polygon fill="none" stroke="black" points="988,-774 974,-774 974,-760 988,-760 988,-774"/>
</g>
<!-- re43_intermediate_p -->
<g id="node42" class="node"><title>re43_intermediate_p</title>
<ellipse fill="black" stroke="black" cx="1047" cy="-797" rx="0.036" ry="0.036"/>
</g>
<!-- re43&#45;&gt;re43_intermediate_p -->
<g id="edge26" class="edge"><title>re43&#45;&gt;re43_intermediate_p</title>
<path fill="none" stroke="black" d="M988.371,-769.986C1004.05,-777.337 1043.43,-795.797 1045.88,-796.944"/>
</g>
<!-- re43_intermediate_r&#45;&gt;re43 -->
<g id="edge24" class="edge"><title>re43_intermediate_r&#45;&gt;re43</title>
<path fill="none" stroke="black" d="M916.046,-760.005C917.606,-760.176 958.067,-764.601 973.813,-766.323"/>
</g>
<!-- re43_intermediate_p&#45;&gt;Gluc_prod -->
<g id="edge27" class="edge"><title>re43_intermediate_p&#45;&gt;Gluc_prod</title>
<path fill="none" stroke="black" d="M1045.95,-797.022C1043.79,-797.93 974.37,-827 916,-827 420,-827 420,-827 420,-827 376.315,-827 333.72,-796.407 308.416,-774.041"/>
<polygon fill="black" stroke="black" points="310.575,-771.273 300.829,-767.118 305.857,-776.444 310.575,-771.273"/>
</g>
<!-- re4 -->
<g id="node43" class="node"><title>re4</title>
<polygon fill="none" stroke="black" points="716,-529 702,-529 702,-515 716,-515 716,-529"/>
</g>
<!-- re4_intermediate_p -->
<g id="node45" class="node"><title>re4_intermediate_p</title>
<ellipse fill="black" stroke="black" cx="773" cy="-522" rx="0.036" ry="0.036"/>
</g>
<!-- re4&#45;&gt;re4_intermediate_p -->
<g id="edge30" class="edge"><title>re4&#45;&gt;re4_intermediate_p</title>
<path fill="none" stroke="black" d="M716.171,-522C731.364,-522 769.515,-522 771.884,-522"/>
</g>
<!-- re4&#45;&gt;re4_intermediate_m -->
<g id="edge32" class="edge"><title>re4&#45;&gt;re4_intermediate_m</title>
<path fill="none" stroke="black" d="M716.171,-524.09C731.364,-529.236 769.515,-542.158 771.884,-542.961"/>
</g>
<!-- re4_intermediate_r&#45;&gt;re4 -->
<g id="edge28" class="edge"><title>re4_intermediate_r&#45;&gt;re4</title>
<path fill="none" stroke="black" d="M646.045,-513.007C647.541,-513.224 685.995,-518.806 701.555,-521.064"/>
</g>
<!-- re4_intermediate_p&#45;&gt;K_ICF -->
<g id="edge31" class="edge"><title>re4_intermediate_p&#45;&gt;K_ICF</title>
<path fill="none" stroke="black" d="M774.05,-522C775.034,-522 790.39,-522 806.359,-522"/>
<polygon fill="black" stroke="black" points="806.797,-525.5 816.797,-522 806.797,-518.5 806.797,-525.5"/>
</g>
<!-- re5 -->
<g id="node47" class="node"><title>re5</title>
<polygon fill="none" stroke="black" points="716,-172 702,-172 702,-158 716,-158 716,-172"/>
</g>
<!-- re5_intermediate_p -->
<g id="node49" class="node"><title>re5_intermediate_p</title>
<ellipse fill="black" stroke="black" cx="773" cy="-147" rx="0.036" ry="0.036"/>
</g>
<!-- re5&#45;&gt;re5_intermediate_p -->
<g id="edge36" class="edge"><title>re5&#45;&gt;re5_intermediate_p</title>
<path fill="none" stroke="black" d="M716.171,-163.208C731.364,-158.798 769.515,-147.722 771.884,-147.034"/>
</g>
<!-- re5_intermediate_r&#45;&gt;re5 -->
<g id="edge34" class="edge"><title>re5_intermediate_r&#45;&gt;re5</title>
<path fill="none" stroke="black" d="M646.045,-200.974C647.541,-200.105 685.995,-177.777 701.555,-168.742"/>
</g>
<!-- re5_intermediate_p&#45;&gt;K_sal -->
<g id="edge37" class="edge"><title>re5_intermediate_p&#45;&gt;K_sal</title>
<path fill="none" stroke="black" d="M774.05,-146.993C775.05,-146.863 790.897,-144.796 807.145,-142.677"/>
<polygon fill="black" stroke="black" points="807.721,-146.131 817.184,-141.367 806.816,-139.19 807.721,-146.131"/>
</g>
<!-- re7 -->
<g id="node50" class="node"><title>re7</title>
<polygon fill="none" stroke="black" points="716,-345 702,-345 702,-331 716,-331 716,-345"/>
</g>
<!-- re7_intermediate_p -->
<g id="node52" class="node"><title>re7_intermediate_p</title>
<ellipse fill="black" stroke="black" cx="773" cy="-338" rx="0.036" ry="0.036"/>
</g>
<!-- re7&#45;&gt;re7_intermediate_p -->
<g id="edge40" class="edge"><title>re7&#45;&gt;re7_intermediate_p</title>
<path fill="none" stroke="black" d="M716.171,-338C731.364,-338 769.515,-338 771.884,-338"/>
</g>
<!-- re7&#45;&gt;re7_intermediate_m -->
<g id="edge42" class="edge"><title>re7&#45;&gt;re7_intermediate_m</title>
<path fill="none" stroke="black" d="M716.105,-341.764C734.524,-352.751 791.448,-384 843,-384 843,-384 843,-384 1048,-384 1112.15,-384 1172.1,-311.325 1173.96,-309.054"/>
</g>
<!-- re7_intermediate_r&#45;&gt;re7 -->
<g id="edge38" class="edge"><title>re7_intermediate_r&#45;&gt;re7</title>
<path fill="none" stroke="black" d="M646.045,-320.013C647.541,-320.447 685.995,-331.611 701.555,-336.129"/>
</g>
<!-- re7_intermediate_p&#45;&gt;K_tiss -->
<g id="edge41" class="edge"><title>re7_intermediate_p&#45;&gt;K_tiss</title>
<path fill="none" stroke="black" d="M774.05,-338C775.034,-338 790.39,-338 806.359,-338"/>
<polygon fill="black" stroke="black" points="806.797,-341.5 816.797,-338 806.797,-334.5 806.797,-341.5"/>
</g>
<!-- re9 -->
<g id="node54" class="node"><title>re9</title>
<polygon fill="none" stroke="black" points="716,-99 702,-99 702,-85 716,-85 716,-99"/>
</g>
<!-- re9_intermediate_p -->
<g id="node56" class="node"><title>re9_intermediate_p</title>
<ellipse fill="black" stroke="black" cx="773" cy="-55" rx="0.036" ry="0.036"/>
</g>
<!-- re9&#45;&gt;re9_intermediate_p -->
<g id="edge46" class="edge"><title>re9&#45;&gt;re9_intermediate_p</title>
<path fill="none" stroke="black" d="M716.171,-88.317C731.364,-79.2508 769.515,-56.4831 771.884,-55.069"/>
</g>
<!-- re9&#45;&gt;re9_intermediate_m -->
<g id="edge48" class="edge"><title>re9&#45;&gt;re9_intermediate_m</title>
<path fill="none" stroke="black" d="M716.098,-92C734.963,-92 794.049,-92 843,-92 843,-92 843,-92 1048,-92 1103.82,-92 1171.84,-111.38 1173.95,-111.986"/>
</g>
<!-- re9_intermediate_r&#45;&gt;re9 -->
<g id="edge44" class="edge"><title>re9_intermediate_r&#45;&gt;re9</title>
<path fill="none" stroke="black" d="M646.045,-168.944C647.563,-167.059 687.134,-117.915 702.226,-99.1705"/>
</g>
<!-- re9_intermediate_p&#45;&gt;K_urin -->
<g id="edge47" class="edge"><title>re9_intermediate_p&#45;&gt;K_urin</title>
<path fill="none" stroke="black" d="M774.05,-54.9935C775.05,-54.863 790.897,-52.7961 807.145,-50.6768"/>
<polygon fill="black" stroke="black" points="807.721,-54.1313 817.184,-49.3673 806.816,-47.1901 807.721,-54.1313"/>
</g>
<!-- re35 -->
<g id="node58" class="node"><title>re35</title>
<polygon fill="none" stroke="black" points="716,-405 702,-405 702,-391 716,-391 716,-405"/>
</g>
<!-- re35_intermediate_p -->
<g id="node60" class="node"><title>re35_intermediate_p</title>
<ellipse fill="black" stroke="black" cx="773" cy="-421" rx="0.036" ry="0.036"/>
</g>
<!-- re35&#45;&gt;re35_intermediate_p -->
<g id="edge52" class="edge"><title>re35&#45;&gt;re35_intermediate_p</title>
<path fill="none" stroke="black" d="M716.171,-400.289C731.364,-405.925 769.515,-420.078 771.884,-420.957"/>
</g>
<!-- re35_intermediate_r&#45;&gt;re35 -->
<g id="edge50" class="edge"><title>re35_intermediate_r&#45;&gt;re35</title>
<path fill="none" stroke="black" d="M646.045,-361.027C647.541,-361.92 685.995,-384.868 701.555,-394.154"/>
</g>
<!-- re35_intermediate_p&#45;&gt;K_milk -->
<g id="edge53" class="edge"><title>re35_intermediate_p&#45;&gt;K_milk</title>
<path fill="none" stroke="black" d="M774.05,-421.007C775.021,-421.133 789.974,-423.084 805.708,-425.136"/>
<polygon fill="black" stroke="black" points="805.651,-428.658 816.02,-426.481 806.557,-421.717 805.651,-428.658"/>
</g>
<!-- re6 -->
<g id="node61" class="node"><title>re6</title>
<polygon fill="none" stroke="black" points="716,-291 702,-291 702,-277 716,-277 716,-291"/>
</g>
<!-- re6_intermediate_p -->
<g id="node63" class="node"><title>re6_intermediate_p</title>
<ellipse fill="black" stroke="black" cx="773" cy="-284" rx="0.036" ry="0.036"/>
</g>
<!-- re6&#45;&gt;re6_intermediate_p -->
<g id="edge56" class="edge"><title>re6&#45;&gt;re6_intermediate_p</title>
<path fill="none" stroke="black" d="M716.171,-284C731.364,-284 769.515,-284 771.884,-284"/>
</g>
<!-- re6_intermediate_r&#45;&gt;re6 -->
<g id="edge54" class="edge"><title>re6_intermediate_r&#45;&gt;re6</title>
<path fill="none" stroke="black" d="M646.045,-284C647.541,-284 685.995,-284 701.555,-284"/>
</g>
<!-- re6_intermediate_p&#45;&gt;sa4_degraded -->
<g id="edge57" class="edge"><title>re6_intermediate_p&#45;&gt;sa4_degraded</title>
<path fill="none" stroke="black" d="M774.05,-284C774.917,-284 786.935,-284 800.701,-284"/>
<polygon fill="black" stroke="black" points="800.899,-287.5 810.899,-284 800.899,-280.5 800.899,-287.5"/>
</g>
<!-- re34 -->
<g id="node64" class="node"><title>re34</title>
<polygon fill="none" stroke="black" points="988,-194 974,-194 974,-180 988,-180 988,-194"/>
</g>
<!-- re34_intermediate_p -->
<g id="node66" class="node"><title>re34_intermediate_p</title>
<ellipse fill="black" stroke="black" cx="1047" cy="-180" rx="0.036" ry="0.036"/>
</g>
<!-- re34&#45;&gt;re34_intermediate_p -->
<g id="edge60" class="edge"><title>re34&#45;&gt;re34_intermediate_p</title>
<path fill="none" stroke="black" d="M988.371,-186.303C1004.05,-184.588 1043.43,-180.281 1045.88,-180.013"/>
</g>
<!-- re34_intermediate_r&#45;&gt;re34 -->
<g id="edge58" class="edge"><title>re34_intermediate_r&#45;&gt;re34</title>
<path fill="none" stroke="black" d="M916.046,-188.999C917.606,-188.95 958.067,-187.685 973.813,-187.193"/>
</g>
<!-- re34_intermediate_p&#45;&gt;K_git -->
<g id="edge61" class="edge"><title>re34_intermediate_p&#45;&gt;K_git</title>
<path fill="none" stroke="black" d="M1048.04,-179.996C1048.86,-179.916 1060.73,-178.768 1073.87,-177.496"/>
<polygon fill="black" stroke="black" points="1074.38,-180.963 1084,-176.516 1073.71,-173.996 1074.38,-180.963"/>
</g>
<!-- re10 -->
<g id="node67" class="node"><title>re10</title>
<polygon fill="none" stroke="black" points="1226,-99 1212,-99 1212,-85 1226,-85 1226,-99"/>
</g>
<!-- re10_intermediate_p -->
<g id="node69" class="node"><title>re10_intermediate_p</title>
<ellipse fill="black" stroke="black" cx="1262" cy="-46" rx="0.036" ry="0.036"/>
</g>
<!-- re10&#45;&gt;re10_intermediate_p -->
<g id="edge64" class="edge"><title>re10&#45;&gt;re10_intermediate_p</title>
<path fill="none" stroke="black" d="M1226.05,-85.2125C1237.1,-72.8167 1259.54,-47.6378 1260.93,-46.0762"/>
</g>
<!-- re10_intermediate_r&#45;&gt;re10 -->
<g id="edge62" class="edge"><title>re10_intermediate_r&#45;&gt;re10</title>
<path fill="none" stroke="black" d="M1176.03,-153.955C1177.02,-152.488 1202.08,-115.499 1213,-99.3863"/>
</g>
<!-- re10_intermediate_p&#45;&gt;K_ECF -->
<g id="edge65" class="edge"><title>re10_intermediate_p&#45;&gt;K_ECF</title>
<path fill="none" stroke="black" d="M1260.88,-45.868C1258.37,-43.1699 1217.61,-0 1176,-0 708,-0 708,-0 708,-0 595.424,-0 575.96,-183.769 572.653,-255.656"/>
<polygon fill="black" stroke="black" points="569.15,-255.675 572.261,-265.802 576.145,-255.945 569.15,-255.675"/>
</g>
<!-- re3 -->
<g id="node70" class="node"><title>re3</title>
<polygon fill="none" stroke="black" points="988,-524 974,-524 974,-510 988,-510 988,-524"/>
</g>
<!-- re3_intermediate_p -->
<g id="node72" class="node"><title>re3_intermediate_p</title>
<ellipse fill="black" stroke="black" cx="1047" cy="-496" rx="0.036" ry="0.036"/>
</g>
<!-- re3&#45;&gt;re3_intermediate_p -->
<g id="edge68" class="edge"><title>re3&#45;&gt;re3_intermediate_p</title>
<path fill="none" stroke="black" d="M988.371,-514.91C1004.05,-509.764 1043.43,-496.842 1045.88,-496.039"/>
</g>
<!-- re3_intermediate_r&#45;&gt;re3 -->
<g id="edge66" class="edge"><title>re3_intermediate_r&#45;&gt;re3</title>
<path fill="none" stroke="black" d="M916.046,-518.999C917.606,-518.95 958.067,-517.685 973.813,-517.193"/>
</g>
<!-- re3_intermediate_p&#45;&gt;K_ECF -->
<g id="edge69" class="edge"><title>re3_intermediate_p&#45;&gt;K_ECF</title>
<path fill="none" stroke="black" d="M1045.95,-495.986C1043.77,-495.38 973.544,-476 916,-476 708,-476 708,-476 708,-476 628.537,-476 591.31,-365.134 578.013,-311.893"/>
<polygon fill="black" stroke="black" points="581.393,-310.977 575.668,-302.063 574.584,-312.602 581.393,-310.977"/>
</g>
<!-- re11 -->
<g id="node73" class="node"><title>re11</title>
<polygon fill="none" stroke="black" points="988,-161 974,-161 974,-147 988,-147 988,-161"/>
</g>
<!-- re11_intermediate_p -->
<g id="node75" class="node"><title>re11_intermediate_p</title>
<ellipse fill="black" stroke="black" cx="1047" cy="-158" rx="0.036" ry="0.036"/>
</g>
<!-- re11&#45;&gt;re11_intermediate_p -->
<g id="edge72" class="edge"><title>re11&#45;&gt;re11_intermediate_p</title>
<path fill="none" stroke="black" d="M988.371,-154.398C1004.05,-155.378 1043.43,-157.84 1045.88,-157.993"/>
</g>
<!-- re11_intermediate_r&#45;&gt;re11 -->
<g id="edge70" class="edge"><title>re11_intermediate_r&#45;&gt;re11</title>
<path fill="none" stroke="black" d="M916.046,-143.008C917.606,-143.276 958.067,-150.23 973.813,-152.937"/>
</g>
<!-- re11_intermediate_p&#45;&gt;K_git -->
<g id="edge73" class="edge"><title>re11_intermediate_p&#45;&gt;K_git</title>
<path fill="none" stroke="black" d="M1048.04,-158.012C1048.89,-158.231 1061.67,-161.527 1075.4,-165.07"/>
<polygon fill="black" stroke="black" points="1074.85,-168.544 1085.41,-167.653 1076.6,-161.766 1074.85,-168.544"/>
</g>
<!-- re8 -->
<g id="node76" class="node"><title>re8</title>
<polygon fill="none" stroke="black" points="988,-280 974,-280 974,-266 988,-266 988,-280"/>
</g>
<!-- re8_intermediate_p -->
<g id="node78" class="node"><title>re8_intermediate_p</title>
<ellipse fill="black" stroke="black" cx="1047" cy="-240" rx="0.036" ry="0.036"/>
</g>
<!-- re8&#45;&gt;re8_intermediate_p -->
<g id="edge76" class="edge"><title>re8&#45;&gt;re8_intermediate_p</title>
<path fill="none" stroke="black" d="M988.371,-269.715C1004.05,-261.629 1043.43,-241.323 1045.88,-240.062"/>
</g>
<!-- re8&#45;&gt;re8_intermediate_m -->
<g id="edge78" class="edge"><title>re8&#45;&gt;re8_intermediate_m</title>
<path fill="none" stroke="black" d="M988.242,-270.892C1000.02,-266.88 1026.29,-257.759 1048,-249 1103.94,-226.429 1171.84,-194.031 1173.95,-193.024"/>
</g>
<!-- re8_intermediate_r&#45;&gt;re8 -->
<g id="edge74" class="edge"><title>re8_intermediate_r&#45;&gt;re8</title>
<path fill="none" stroke="black" d="M916.046,-305.976C917.606,-305.172 958.067,-284.309 973.813,-276.19"/>
</g>
<!-- re8_intermediate_p&#45;&gt;K_ECF -->
<g id="edge77" class="edge"><title>re8_intermediate_p&#45;&gt;K_ECF</title>
<path fill="none" stroke="black" d="M1045.95,-239.999C1043.75,-239.938 972.882,-238 916,-238 708,-238 708,-238 708,-238 669.818,-238 628.634,-254.471 601.712,-267.701"/>
<polygon fill="black" stroke="black" points="599.804,-264.745 592.471,-272.392 602.972,-270.987 599.804,-264.745"/>
</g>
<!-- re21 -->
<g id="node80" class="node"><title>re21</title>
<polygon fill="none" stroke="black" points="428,-880 414,-880 414,-866 428,-866 428,-880"/>
</g>
<!-- re21_intermediate_p -->
<g id="node82" class="node"><title>re21_intermediate_p</title>
<ellipse fill="black" stroke="black" cx="491" cy="-873" rx="0.036" ry="0.036"/>
</g>
<!-- re21&#45;&gt;re21_intermediate_p -->
<g id="edge82" class="edge"><title>re21&#45;&gt;re21_intermediate_p</title>
<path fill="none" stroke="black" d="M428.275,-873C444.583,-873 487.222,-873 489.871,-873"/>
</g>
<!-- re21_intermediate_r&#45;&gt;re21 -->
<g id="edge80" class="edge"><title>re21_intermediate_r&#45;&gt;re21</title>
<path fill="none" stroke="black" d="M358.045,-873C359.541,-873 397.995,-873 413.555,-873"/>
</g>
<!-- re21_intermediate_p&#45;&gt;snk_metact -->
<g id="edge83" class="edge"><title>re21_intermediate_p&#45;&gt;snk_metact</title>
<path fill="none" stroke="black" d="M492.057,-873C493.065,-873 507.424,-873 523.548,-873"/>
<polygon fill="black" stroke="black" points="523.712,-876.5 533.712,-873 523.712,-869.5 523.712,-876.5"/>
</g>
<!-- re40 -->
<g id="node83" class="node"><title>re40</title>
<polygon fill="none" stroke="black" points="716,-653 702,-653 702,-639 716,-639 716,-653"/>
</g>
<!-- re40_intermediate_p -->
<g id="node85" class="node"><title>re40_intermediate_p</title>
<ellipse fill="black" stroke="black" cx="773" cy="-650" rx="0.036" ry="0.036"/>
</g>
<!-- re40&#45;&gt;re40_intermediate_p -->
<g id="edge86" class="edge"><title>re40&#45;&gt;re40_intermediate_p</title>
<path fill="none" stroke="black" d="M716.171,-646.398C731.364,-647.378 769.515,-649.84 771.884,-649.993"/>
</g>
<!-- re40&#45;&gt;re40_intermediate_m -->
<g id="edge88" class="edge"><title>re40&#45;&gt;re40_intermediate_m</title>
<path fill="none" stroke="black" d="M716.171,-648.688C731.364,-655.303 769.515,-671.918 771.884,-672.95"/>
</g>
<!-- re40_intermediate_r&#45;&gt;re40 -->
<g id="edge84" class="edge"><title>re40_intermediate_r&#45;&gt;re40</title>
<path fill="none" stroke="black" d="M646.045,-643.002C647.541,-643.075 685.995,-644.935 701.555,-645.688"/>
</g>
<!-- re40_intermediate_p&#45;&gt;s24 -->
<g id="edge87" class="edge"><title>re40_intermediate_p&#45;&gt;s24</title>
<path fill="none" stroke="black" d="M774.05,-650.005C774.924,-650.094 787.117,-651.331 801.014,-652.741"/>
<polygon fill="black" stroke="black" points="800.994,-656.256 811.296,-653.784 801.7,-649.292 800.994,-656.256"/>
</g>
<!-- re32 -->
<g id="node87" class="node"><title>re32</title>
<polygon fill="none" stroke="black" points="851,-572 837,-572 837,-558 851,-558 851,-572"/>
</g>
<!-- re32_intermediate_p -->
<g id="node89" class="node"><title>re32_intermediate_p</title>
<ellipse fill="black" stroke="black" cx="915" cy="-565" rx="0.036" ry="0.036"/>
</g>
<!-- re32&#45;&gt;re32_intermediate_p -->
<g id="edge92" class="edge"><title>re32&#45;&gt;re32_intermediate_p</title>
<path fill="none" stroke="black" d="M851.368,-565C867.915,-565 911.181,-565 913.869,-565"/>
</g>
<!-- re32_intermediate_r&#45;&gt;re32 -->
<g id="edge90" class="edge"><title>re32_intermediate_r&#45;&gt;re32</title>
<path fill="none" stroke="black" d="M774.05,-565C775.748,-565 820.204,-565 836.816,-565"/>
</g>
<!-- re32_intermediate_p&#45;&gt;snk_insnew -->
<g id="edge93" class="edge"><title>re32_intermediate_p&#45;&gt;snk_insnew</title>
<path fill="none" stroke="black" d="M916.046,-565C916.879,-565 928.797,-565 942.124,-565"/>
<polygon fill="black" stroke="black" points="942.429,-568.5 952.429,-565 942.429,-561.5 942.429,-568.5"/>
</g>
<!-- re33 -->
<g id="node90" class="node"><title>re33</title>
<polygon fill="none" stroke="black" points="428,-621 414,-621 414,-607 428,-607 428,-621"/>
</g>
<!-- re33_intermediate_p -->
<g id="node92" class="node"><title>re33_intermediate_p</title>
<ellipse fill="black" stroke="black" cx="491" cy="-615" rx="0.036" ry="0.036"/>
</g>
<!-- re33&#45;&gt;re33_intermediate_p -->
<g id="edge96" class="edge"><title>re33&#45;&gt;re33_intermediate_p</title>
<path fill="none" stroke="black" d="M428.275,-614.092C444.583,-614.332 487.222,-614.959 489.871,-614.998"/>
</g>
<!-- re33_intermediate_r&#45;&gt;re33 -->
<g id="edge94" class="edge"><title>re33_intermediate_r&#45;&gt;re33</title>
<path fill="none" stroke="black" d="M358.045,-614C359.541,-614 397.995,-614 413.555,-614"/>
</g>
<!-- re33_intermediate_p&#45;&gt;Gluc_b -->
<g id="edge97" class="edge"><title>re33_intermediate_p&#45;&gt;Gluc_b</title>
<path fill="none" stroke="black" d="M492.057,-615.001C493.259,-615.016 513.426,-615.275 532.943,-615.525"/>
<polygon fill="black" stroke="black" points="532.942,-619.025 542.986,-615.654 533.032,-612.026 532.942,-619.025"/>
</g>
<!-- re36 -->
<g id="node93" class="node"><title>re36</title>
<polygon fill="none" stroke="black" points="176,-758 162,-758 162,-744 176,-744 176,-758"/>
</g>
<!-- re36_intermediate_p -->
<g id="node95" class="node"><title>re36_intermediate_p</title>
<ellipse fill="black" stroke="black" cx="212" cy="-751" rx="0.036" ry="0.036"/>
</g>
<!-- re36&#45;&gt;re36_intermediate_p -->
<g id="edge100" class="edge"><title>re36&#45;&gt;re36_intermediate_p</title>
<path fill="none" stroke="black" d="M176.05,-751C187.098,-751 209.54,-751 210.932,-751"/>
</g>
<!-- re36_intermediate_r&#45;&gt;re36 -->
<g id="edge98" class="edge"><title>re36_intermediate_r&#45;&gt;re36</title>
<path fill="none" stroke="black" d="M127.118,-751C128.921,-751 151.016,-751 161.95,-751"/>
</g>
<!-- re36_intermediate_p&#45;&gt;Gluc_prod -->
<g id="edge101" class="edge"><title>re36_intermediate_p&#45;&gt;Gluc_prod</title>
<path fill="none" stroke="black" d="M213.051,-751C213.882,-751 224.822,-751 237.812,-751"/>
<polygon fill="black" stroke="black" points="238.013,-754.5 248.013,-751 238.013,-747.5 238.013,-754.5"/>
</g>
<!-- re31 -->
<g id="node96" class="node"><title>re31</title>
<polygon fill="none" stroke="black" points="578,-577 564,-577 564,-563 578,-563 578,-577"/>
</g>
<!-- re31_intermediate_p -->
<g id="node98" class="node"><title>re31_intermediate_p</title>
<ellipse fill="black" stroke="black" cx="645" cy="-565" rx="0.036" ry="0.036"/>
</g>
<!-- re31&#45;&gt;re31_intermediate_p -->
<g id="edge104" class="edge"><title>re31&#45;&gt;re31_intermediate_p</title>
<path fill="none" stroke="black" d="M578.139,-569.574C595.006,-568.402 641.002,-565.208 643.86,-565.01"/>
</g>
<!-- re31&#45;&gt;re31_intermediate_m -->
<g id="edge106" class="edge"><title>re31&#45;&gt;re31_intermediate_m</title>
<path fill="none" stroke="black" d="M578.139,-571.108C595.006,-574.154 641.002,-582.459 643.86,-582.975"/>
</g>
<!-- re31_intermediate_r&#45;&gt;re31 -->
<g id="edge102" class="edge"><title>re31_intermediate_r&#45;&gt;re31</title>
<path fill="none" stroke="black" d="M492.057,-570C494.003,-570 545.691,-570 563.802,-570"/>
</g>
<!-- re31_intermediate_p&#45;&gt;ins_b -->
<g id="edge105" class="edge"><title>re31_intermediate_p&#45;&gt;ins_b</title>
<path fill="none" stroke="black" d="M646.045,-565C646.863,-565 658.734,-565 671.87,-565"/>
<polygon fill="black" stroke="black" points="671.998,-568.5 681.998,-565 671.998,-561.5 671.998,-568.5"/>
</g>
</g>
</svg>
