<?xml version="1.0" encoding="UTF-8" standalone="no"?>
<!DOCTYPE svg PUBLIC "-//W3C//DTD SVG 1.1//EN"
 "http://www.w3.org/Graphics/SVG/1.1/DTD/svg11.dtd">
<!-- Generated by graphviz version 2.24.0 (20090616.2323)
 -->
<!-- Title: G Pages: 1 -->
<svg width="722pt" height="325pt"
 viewBox="0.00 0.00 722.00 325.00" xmlns="http://www.w3.org/2000/svg" xmlns:xlink="http://www.w3.org/1999/xlink">
<g id="graph1" class="graph" transform="scale(1 1) rotate(0) translate(4 321)">
<title>G</title>
<polygon fill="white" stroke="white" points="-4,5 -4,-321 719,-321 719,5 -4,5"/>
<!-- X -->
<g id="node1" class="node"><title>X</title>
<polyline fill="none" stroke="black" points="42,-317 12,-317 "/>
<path fill="none" stroke="black" d="M12,-317C6,-317 2.07242e-14,-311 1.65793e-14,-305"/>
<polyline fill="none" stroke="black" points="1.65793e-14,-305 8.28967e-15,-293 "/>
<path fill="none" stroke="black" d="M8.28967e-15,-293C4.14483e-15,-287 6,-281 12,-281"/>
<polyline fill="none" stroke="black" points="12,-281 42,-281 "/>
<path fill="none" stroke="black" d="M42,-281C48,-281 54,-287 54,-293"/>
<polyline fill="none" stroke="black" points="54,-293 54,-305 "/>
<path fill="none" stroke="black" d="M54,-305C54,-311 48,-317 42,-317"/>
<text text-anchor="middle" x="27" y="-296.5" font-family="Times Roman,serif" font-size="10.00">X</text>
</g>
<!-- R1_intermediate_r -->
<g id="node14" class="node"><title>R1_intermediate_r</title>
<ellipse fill="black" stroke="black" cx="90" cy="-299" rx="0.036" ry="0.036"/>
</g>
<!-- X&#45;&gt;R1_intermediate_r -->
<g id="edge4" class="edge"><title>X&#45;&gt;R1_intermediate_r</title>
<path fill="none" stroke="black" d="M54.0833,-299C70.6248,-299 88.8241,-299 89.9454,-299"/>
</g>
<!-- Xa -->
<g id="node2" class="node"><title>Xa</title>
<polyline fill="none" stroke="black" points="296,-317 266,-317 "/>
<path fill="none" stroke="black" d="M266,-317C260,-317 254,-311 254,-305"/>
<polyline fill="none" stroke="black" points="254,-305 254,-293 "/>
<path fill="none" stroke="black" d="M254,-293C254,-287 260,-281 266,-281"/>
<polyline fill="none" stroke="black" points="266,-281 296,-281 "/>
<path fill="none" stroke="black" d="M296,-281C302,-281 308,-287 308,-293"/>
<polyline fill="none" stroke="black" points="308,-293 308,-305 "/>
<path fill="none" stroke="black" d="M308,-305C308,-311 302,-317 296,-317"/>
<text text-anchor="middle" x="281" y="-296.5" font-family="Times Roman,serif" font-size="10.00">Xa</text>
</g>
<!-- R2_intermediate_r -->
<g id="node24" class="node"><title>R2_intermediate_r</title>
<ellipse fill="black" stroke="black" cx="345" cy="-299" rx="0.036" ry="0.036"/>
</g>
<!-- Xa&#45;&gt;R2_intermediate_r -->
<g id="edge16" class="edge"><title>Xa&#45;&gt;R2_intermediate_r</title>
<path fill="none" stroke="black" d="M308.142,-299C325.04,-299 343.788,-299 344.944,-299"/>
</g>
<!-- R3_intermediate_r -->
<g id="node31" class="node"><title>R3_intermediate_r</title>
<ellipse fill="black" stroke="black" cx="345" cy="-245" rx="0.036" ry="0.036"/>
</g>
<!-- Xa&#45;&gt;R3_intermediate_r -->
<g id="edge26" class="edge"><title>Xa&#45;&gt;R3_intermediate_r</title>
<path fill="none" stroke="black" d="M310.472,-274.133C326.661,-260.474 343.718,-246.082 344.931,-245.058"/>
<polygon fill="black" stroke="black" points="308.053,-271.594 302.667,-280.718 312.567,-276.944 308.053,-271.594"/>
</g>
<!-- R6_intermediate_m -->
<g id="node66" class="node"><title>R6_intermediate_m</title>
<ellipse fill="black" stroke="black" cx="345" cy="-61" rx="0.036" ry="0.036"/>
</g>
<!-- Xa&#45;&gt;R6_intermediate_m -->
<g id="edge68" class="edge"><title>Xa&#45;&gt;R6_intermediate_m</title>
<path fill="none" stroke="black" d="M302.081,-280.716C304.351,-277.988 306.41,-275.058 308,-272 318.809,-251.212 344.191,-66.8926 344.981,-61.1377"/>
</g>
<!-- Xa_ATIII -->
<g id="node3" class="node"><title>Xa_ATIII</title>
<polyline fill="none" stroke="black" points="553,-317 523,-317 "/>
<path fill="none" stroke="black" d="M523,-317C517,-317 511,-311 511,-305"/>
<polyline fill="none" stroke="black" points="511,-305 511,-293 "/>
<path fill="none" stroke="black" d="M511,-293C511,-287 517,-281 523,-281"/>
<polyline fill="none" stroke="black" points="523,-281 553,-281 "/>
<path fill="none" stroke="black" d="M553,-281C559,-281 565,-287 565,-293"/>
<polyline fill="none" stroke="black" points="565,-293 565,-305 "/>
<path fill="none" stroke="black" d="M565,-305C565,-311 559,-317 553,-317"/>
<text text-anchor="middle" x="538" y="-296.5" font-family="Times Roman,serif" font-size="10.00">Xa_ATIII</text>
</g>
<!-- PL -->
<g id="node4" class="node"><title>PL</title>
<ellipse fill="none" stroke="black" cx="281" cy="-191" rx="27" ry="18"/>
<text text-anchor="middle" x="281" y="-188.5" font-family="Times Roman,serif" font-size="10.00">PL</text>
</g>
<!-- PL&#45;&gt;R3_intermediate_r -->
<g id="edge28" class="edge"><title>PL&#45;&gt;R3_intermediate_r</title>
<path fill="none" stroke="black" d="M305.514,-211.684C322.925,-226.374 343.467,-243.707 344.918,-244.931"/>
<polygon fill="black" stroke="black" points="307.715,-208.962 297.815,-205.188 303.201,-214.312 307.715,-208.962"/>
</g>
<!-- PT -->
<g id="node5" class="node"><title>PT</title>
<ellipse fill="none" stroke="black" cx="538" cy="-199" rx="27" ry="18"/>
<text text-anchor="middle" x="538" y="-196.5" font-family="Times Roman,serif" font-size="10.00">PT</text>
</g>
<!-- R5_intermediate_m -->
<g id="node56" class="node"><title>R5_intermediate_m</title>
<ellipse fill="black" stroke="black" cx="602" cy="-153" rx="0.036" ry="0.036"/>
</g>
<!-- PT&#45;&gt;R5_intermediate_m -->
<g id="edge56" class="edge"><title>PT&#45;&gt;R5_intermediate_m</title>
<path fill="none" stroke="black" d="M556.511,-185.695C574.822,-172.534 600.346,-154.189 601.923,-153.055"/>
</g>
<!-- Va -->
<g id="node6" class="node"><title>Va</title>
<polyline fill="none" stroke="black" points="296,-263 266,-263 "/>
<path fill="none" stroke="black" d="M266,-263C260,-263 254,-257 254,-251"/>
<polyline fill="none" stroke="black" points="254,-251 254,-239 "/>
<path fill="none" stroke="black" d="M254,-239C254,-233 260,-227 266,-227"/>
<polyline fill="none" stroke="black" points="266,-227 296,-227 "/>
<path fill="none" stroke="black" d="M296,-227C302,-227 308,-233 308,-239"/>
<polyline fill="none" stroke="black" points="308,-239 308,-251 "/>
<path fill="none" stroke="black" d="M308,-251C308,-257 302,-263 296,-263"/>
<text text-anchor="middle" x="281" y="-242.5" font-family="Times Roman,serif" font-size="10.00">Va</text>
</g>
<!-- Va&#45;&gt;R3_intermediate_r -->
<g id="edge24" class="edge"><title>Va&#45;&gt;R3_intermediate_r</title>
<path fill="none" stroke="black" d="M318.505,-245C331.931,-245 344.023,-245 344.944,-245"/>
<polygon fill="black" stroke="black" points="318.142,-241.5 308.142,-245 318.142,-248.5 318.142,-241.5"/>
</g>
<!-- IIa -->
<g id="node7" class="node"><title>IIa</title>
<polyline fill="none" stroke="black" points="424,-79 394,-79 "/>
<path fill="none" stroke="black" d="M394,-79C388,-79 382,-73 382,-67"/>
<polyline fill="none" stroke="black" points="382,-67 382,-55 "/>
<path fill="none" stroke="black" d="M382,-55C382,-49 388,-43 394,-43"/>
<polyline fill="none" stroke="black" points="394,-43 424,-43 "/>
<path fill="none" stroke="black" d="M424,-43C430,-43 436,-49 436,-55"/>
<polyline fill="none" stroke="black" points="436,-55 436,-67 "/>
<path fill="none" stroke="black" d="M436,-67C436,-73 430,-79 424,-79"/>
<text text-anchor="middle" x="409" y="-58.5" font-family="Times Roman,serif" font-size="10.00">IIa</text>
</g>
<!-- R4_intermediate_m -->
<g id="node46" class="node"><title>R4_intermediate_m</title>
<ellipse fill="black" stroke="black" cx="473" cy="-79" rx="0.036" ry="0.036"/>
</g>
<!-- IIa&#45;&gt;R4_intermediate_m -->
<g id="edge44" class="edge"><title>IIa&#45;&gt;R4_intermediate_m</title>
<path fill="none" stroke="black" d="M436.142,-68.6336C453.04,-73.3862 471.788,-78.6593 472.944,-78.9842"/>
</g>
<!-- R7_intermediate_r -->
<g id="node70" class="node"><title>R7_intermediate_r</title>
<ellipse fill="black" stroke="black" cx="473" cy="-42" rx="0.036" ry="0.036"/>
</g>
<!-- IIa&#45;&gt;R7_intermediate_r -->
<g id="edge72" class="edge"><title>IIa&#45;&gt;R7_intermediate_r</title>
<path fill="none" stroke="black" d="M436.142,-52.9423C453.04,-47.9257 471.788,-42.3597 472.944,-42.0167"/>
</g>
<!-- R8_intermediate_r -->
<g id="node77" class="node"><title>R8_intermediate_r</title>
<ellipse fill="black" stroke="black" cx="473" cy="-61" rx="0.036" ry="0.036"/>
</g>
<!-- IIa&#45;&gt;R8_intermediate_r -->
<g id="edge80" class="edge"><title>IIa&#45;&gt;R8_intermediate_r</title>
<path fill="none" stroke="black" d="M436.142,-61C453.04,-61 471.788,-61 472.944,-61"/>
</g>
<!-- V -->
<g id="node8" class="node"><title>V</title>
<polyline fill="none" stroke="black" points="42,-197 12,-197 "/>
<path fill="none" stroke="black" d="M12,-197C6,-197 2.07242e-14,-191 1.65793e-14,-185"/>
<polyline fill="none" stroke="black" points="1.65793e-14,-185 8.28967e-15,-173 "/>
<path fill="none" stroke="black" d="M8.28967e-15,-173C4.14483e-15,-167 6,-161 12,-161"/>
<polyline fill="none" stroke="black" points="12,-161 42,-161 "/>
<path fill="none" stroke="black" d="M42,-161C48,-161 54,-167 54,-173"/>
<polyline fill="none" stroke="black" points="54,-173 54,-185 "/>
<path fill="none" stroke="black" d="M54,-185C54,-191 48,-197 42,-197"/>
<text text-anchor="middle" x="27" y="-176.5" font-family="Times Roman,serif" font-size="10.00">V</text>
</g>
<!-- R4_intermediate_r -->
<g id="node40" class="node"><title>R4_intermediate_r</title>
<ellipse fill="black" stroke="black" cx="90" cy="-179" rx="0.036" ry="0.036"/>
</g>
<!-- V&#45;&gt;R4_intermediate_r -->
<g id="edge36" class="edge"><title>V&#45;&gt;R4_intermediate_r</title>
<path fill="none" stroke="black" d="M54.0833,-179C70.6248,-179 88.8241,-179 89.9454,-179"/>
</g>
<!-- II -->
<g id="node9" class="node"><title>II</title>
<polyline fill="none" stroke="black" points="168,-85 138,-85 "/>
<path fill="none" stroke="black" d="M138,-85C132,-85 126,-79 126,-73"/>
<polyline fill="none" stroke="black" points="126,-73 126,-61 "/>
<path fill="none" stroke="black" d="M126,-61C126,-55 132,-49 138,-49"/>
<polyline fill="none" stroke="black" points="138,-49 168,-49 "/>
<path fill="none" stroke="black" d="M168,-49C174,-49 180,-55 180,-61"/>
<polyline fill="none" stroke="black" points="180,-61 180,-73 "/>
<path fill="none" stroke="black" d="M180,-73C180,-79 174,-85 168,-85"/>
<text text-anchor="middle" x="153" y="-64.5" font-family="Times Roman,serif" font-size="10.00">II</text>
</g>
<!-- R5_intermediate_r -->
<g id="node50" class="node"><title>R5_intermediate_r</title>
<ellipse fill="black" stroke="black" cx="217" cy="-83" rx="0.036" ry="0.036"/>
</g>
<!-- II&#45;&gt;R5_intermediate_r -->
<g id="edge48" class="edge"><title>II&#45;&gt;R5_intermediate_r</title>
<path fill="none" stroke="black" d="M180.142,-73.7854C197.04,-78.01 215.788,-82.6971 216.944,-82.9859"/>
</g>
<!-- R6_intermediate_r -->
<g id="node60" class="node"><title>R6_intermediate_r</title>
<ellipse fill="black" stroke="black" cx="217" cy="-58" rx="0.036" ry="0.036"/>
</g>
<!-- II&#45;&gt;R6_intermediate_r -->
<g id="edge60" class="edge"><title>II&#45;&gt;R6_intermediate_r</title>
<path fill="none" stroke="black" d="M180.142,-63.1832C197.04,-60.8069 215.788,-58.1704 216.944,-58.0079"/>
</g>
<!-- IIa_alpha2M -->
<g id="node10" class="node"><title>IIa_alpha2M</title>
<polyline fill="none" stroke="black" points="701,-36 651,-36 "/>
<path fill="none" stroke="black" d="M651,-36C645,-36 639,-30 639,-24"/>
<polyline fill="none" stroke="black" points="639,-24 639,-12 "/>
<path fill="none" stroke="black" d="M639,-12C639,-6 645,-1.66113e-14 651,-1.54591e-14"/>
<polyline fill="none" stroke="black" points="651,-1.54591e-14 701,-5.85718e-15 "/>
<path fill="none" stroke="black" d="M701,-5.85718e-15C707,-4.70495e-15 713,-6 713,-12"/>
<polyline fill="none" stroke="black" points="713,-12 713,-24 "/>
<path fill="none" stroke="black" d="M713,-24C713,-30 707,-36 701,-36"/>
<text text-anchor="middle" x="676" y="-15.5" font-family="Times Roman,serif" font-size="10.00">IIa_alpha2M</text>
</g>
<!-- IIa_ATIII -->
<g id="node11" class="node"><title>IIa_ATIII</title>
<polyline fill="none" stroke="black" points="691,-90 661,-90 "/>
<path fill="none" stroke="black" d="M661,-90C655,-90 649,-84 649,-78"/>
<polyline fill="none" stroke="black" points="649,-78 649,-66 "/>
<path fill="none" stroke="black" d="M649,-66C649,-60 655,-54 661,-54"/>
<polyline fill="none" stroke="black" points="661,-54 691,-54 "/>
<path fill="none" stroke="black" d="M691,-54C697,-54 703,-60 703,-66"/>
<polyline fill="none" stroke="black" points="703,-66 703,-78 "/>
<path fill="none" stroke="black" d="M703,-78C703,-84 697,-90 691,-90"/>
<text text-anchor="middle" x="676" y="-69.5" font-family="Times Roman,serif" font-size="10.00">IIa_ATIII</text>
</g>
<!-- RVV -->
<g id="node12" class="node"><title>RVV</title>
<ellipse fill="none" stroke="black" cx="153" cy="-256" rx="27" ry="18"/>
<text text-anchor="middle" x="153" y="-253.5" font-family="Times Roman,serif" font-size="10.00">RVV</text>
</g>
<!-- R1_intermediate_m -->
<g id="node20" class="node"><title>R1_intermediate_m</title>
<ellipse fill="black" stroke="black" cx="217" cy="-272" rx="0.036" ry="0.036"/>
</g>
<!-- RVV&#45;&gt;R1_intermediate_m -->
<g id="edge12" class="edge"><title>RVV&#45;&gt;R1_intermediate_m</title>
<path fill="none" stroke="black" d="M178.294,-262.324C195.625,-266.656 215.702,-271.675 216.94,-271.985"/>
</g>
<!-- R1 -->
<g id="node13" class="node"><title>R1</title>
<polygon fill="none" stroke="black" points="160,-306 146,-306 146,-292 160,-292 160,-306"/>
</g>
<!-- R1_intermediate_p -->
<g id="node17" class="node"><title>R1_intermediate_p</title>
<ellipse fill="black" stroke="black" cx="217" cy="-299" rx="0.036" ry="0.036"/>
</g>
<!-- R1&#45;&gt;R1_intermediate_p -->
<g id="edge6" class="edge"><title>R1&#45;&gt;R1_intermediate_p</title>
<path fill="none" stroke="black" d="M160.342,-299C176.627,-299 214.532,-299 216.885,-299"/>
</g>
<!-- R1&#45;&gt;R1_intermediate_m -->
<g id="edge10" class="edge"><title>R1&#45;&gt;R1_intermediate_m</title>
<path fill="none" stroke="black" d="M171.405,-291.235C189.592,-283.563 214.973,-272.855 216.885,-272.048"/>
<polygon fill="none" stroke="black" points="171.398,-291.238 167.425,-297.256 160.342,-295.903 164.315,-289.885 171.398,-291.238"/>
</g>
<!-- R1_intermediate_r&#45;&gt;R1 -->
<g id="edge2" class="edge"><title>R1_intermediate_r&#45;&gt;R1</title>
<path fill="none" stroke="black" d="M90.0457,-299C91.551,-299 129.877,-299 145.979,-299"/>
</g>
<!-- R1_intermediate_p&#45;&gt;Xa -->
<g id="edge8" class="edge"><title>R1_intermediate_p&#45;&gt;Xa</title>
<path fill="none" stroke="black" d="M217.046,-299C217.885,-299 229.971,-299 243.414,-299"/>
<polygon fill="black" stroke="black" points="243.794,-302.5 253.794,-299 243.794,-295.5 243.794,-302.5"/>
</g>
<!-- R2 -->
<g id="node23" class="node"><title>R2</title>
<polygon fill="none" stroke="black" points="416,-306 402,-306 402,-292 416,-292 416,-306"/>
</g>
<!-- R2_intermediate_p -->
<g id="node27" class="node"><title>R2_intermediate_p</title>
<ellipse fill="black" stroke="black" cx="473" cy="-299" rx="0.036" ry="0.036"/>
</g>
<!-- R2&#45;&gt;R2_intermediate_p -->
<g id="edge18" class="edge"><title>R2&#45;&gt;R2_intermediate_p</title>
<path fill="none" stroke="black" d="M416.342,-299C432.627,-299 470.532,-299 472.885,-299"/>
</g>
<!-- R2_intermediate_r&#45;&gt;R2 -->
<g id="edge14" class="edge"><title>R2_intermediate_r&#45;&gt;R2</title>
<path fill="none" stroke="black" d="M345.046,-299C346.576,-299 385.51,-299 401.868,-299"/>
</g>
<!-- R2_intermediate_p&#45;&gt;Xa_ATIII -->
<g id="edge20" class="edge"><title>R2_intermediate_p&#45;&gt;Xa_ATIII</title>
<path fill="none" stroke="black" d="M473.047,-299C473.907,-299 486.415,-299 500.228,-299"/>
<polygon fill="black" stroke="black" points="500.369,-302.5 510.369,-299 500.369,-295.5 500.369,-302.5"/>
</g>
<!-- R3 -->
<g id="node30" class="node"><title>R3</title>
<polygon fill="none" stroke="black" points="416,-252 402,-252 402,-238 416,-238 416,-252"/>
</g>
<!-- R3_intermediate_p -->
<g id="node36" class="node"><title>R3_intermediate_p</title>
<ellipse fill="black" stroke="black" cx="473" cy="-199" rx="0.036" ry="0.036"/>
</g>
<!-- R3&#45;&gt;R3_intermediate_p -->
<g id="edge30" class="edge"><title>R3&#45;&gt;R3_intermediate_p</title>
<path fill="none" stroke="black" d="M416.342,-239.723C432.627,-228.018 470.532,-200.774 472.885,-199.083"/>
</g>
<!-- R3_intermediate_r&#45;&gt;R3 -->
<g id="edge22" class="edge"><title>R3_intermediate_r&#45;&gt;R3</title>
<path fill="none" stroke="black" d="M345.046,-245C346.576,-245 385.51,-245 401.868,-245"/>
</g>
<!-- R3_intermediate_p&#45;&gt;PT -->
<g id="edge32" class="edge"><title>R3_intermediate_p&#45;&gt;PT</title>
<path fill="none" stroke="black" d="M473.047,-199C473.913,-199 486.596,-199 500.527,-199"/>
<polygon fill="black" stroke="black" points="500.74,-202.5 510.74,-199 500.74,-195.5 500.74,-202.5"/>
</g>
<!-- R4 -->
<g id="node39" class="node"><title>R4</title>
<polygon fill="none" stroke="black" points="160,-186 146,-186 146,-172 160,-172 160,-186"/>
</g>
<!-- R4_intermediate_p -->
<g id="node43" class="node"><title>R4_intermediate_p</title>
<ellipse fill="black" stroke="black" cx="217" cy="-212" rx="0.036" ry="0.036"/>
</g>
<!-- R4&#45;&gt;R4_intermediate_p -->
<g id="edge38" class="edge"><title>R4&#45;&gt;R4_intermediate_p</title>
<path fill="none" stroke="black" d="M160.342,-182.786C176.627,-191.183 214.532,-210.727 216.885,-211.941"/>
</g>
<!-- R4&#45;&gt;R4_intermediate_m -->
<g id="edge42" class="edge"><title>R4&#45;&gt;R4_intermediate_m</title>
<path fill="none" stroke="black" d="M171.394,-170.883C195.9,-160.826 240.842,-145 281,-145 281,-145 281,-145 345,-145 408.006,-145 471,-81.0464 472.953,-79.0478"/>
<polygon fill="none" stroke="black" points="171.075,-171.02 167.132,-177.057 160.042,-175.74 163.985,-169.702 171.075,-171.02"/>
</g>
<!-- R4_intermediate_r&#45;&gt;R4 -->
<g id="edge34" class="edge"><title>R4_intermediate_r&#45;&gt;R4</title>
<path fill="none" stroke="black" d="M90.0457,-179C91.551,-179 129.877,-179 145.979,-179"/>
</g>
<!-- R4_intermediate_p&#45;&gt;Va -->
<g id="edge40" class="edge"><title>R4_intermediate_p&#45;&gt;Va</title>
<path fill="none" stroke="black" d="M217.046,-212.024C217.91,-212.469 230.691,-219.06 244.603,-226.233"/>
<polygon fill="black" stroke="black" points="243.302,-229.5 253.794,-230.972 246.51,-223.278 243.302,-229.5"/>
</g>
<!-- R5 -->
<g id="node49" class="node"><title>R5</title>
<polygon fill="none" stroke="black" points="288,-93 274,-93 274,-79 288,-79 288,-93"/>
</g>
<!-- R5_intermediate_p -->
<g id="node53" class="node"><title>R5_intermediate_p</title>
<ellipse fill="black" stroke="black" cx="345" cy="-79" rx="0.036" ry="0.036"/>
</g>
<!-- R5&#45;&gt;R5_intermediate_p -->
<g id="edge50" class="edge"><title>R5&#45;&gt;R5_intermediate_p</title>
<path fill="none" stroke="black" d="M288.342,-85.197C304.627,-83.4158 342.532,-79.2699 344.885,-79.0126"/>
</g>
<!-- R5&#45;&gt;R5_intermediate_m -->
<g id="edge54" class="edge"><title>R5&#45;&gt;R5_intermediate_m</title>
<path fill="none" stroke="black" d="M299.99,-91.0998C324.844,-97.3155 369.851,-107 409,-107 409,-107 409,-107 473,-107 532.918,-107 599.873,-151.574 601.95,-152.967"/>
<polygon fill="none" stroke="black" points="299.762,-91.0405 292.947,-93.3977 288.15,-88.0136 294.965,-85.6564 299.762,-91.0405"/>
</g>
<!-- R5_intermediate_r&#45;&gt;R5 -->
<g id="edge46" class="edge"><title>R5_intermediate_r&#45;&gt;R5</title>
<path fill="none" stroke="black" d="M217.046,-83.0022C218.576,-83.0739 257.51,-84.8989 273.868,-85.6657"/>
</g>
<!-- R5_intermediate_p&#45;&gt;IIa -->
<g id="edge52" class="edge"><title>R5_intermediate_p&#45;&gt;IIa</title>
<path fill="none" stroke="black" d="M345.046,-78.987C345.893,-78.7488 358.209,-75.2851 371.809,-71.4598"/>
<polygon fill="black" stroke="black" points="373.116,-74.7284 381.794,-68.6516 371.22,-67.9898 373.116,-74.7284"/>
</g>
<!-- R6 -->
<g id="node59" class="node"><title>R6</title>
<polygon fill="none" stroke="black" points="288,-61 274,-61 274,-47 288,-47 288,-61"/>
</g>
<!-- R6_intermediate_p -->
<g id="node63" class="node"><title>R6_intermediate_p</title>
<ellipse fill="black" stroke="black" cx="345" cy="-43" rx="0.036" ry="0.036"/>
</g>
<!-- R6&#45;&gt;R6_intermediate_p -->
<g id="edge62" class="edge"><title>R6&#45;&gt;R6_intermediate_p</title>
<path fill="none" stroke="black" d="M288.342,-52.7382C304.627,-49.9391 342.532,-43.4242 344.885,-43.0197"/>
</g>
<!-- R6&#45;&gt;R6_intermediate_m -->
<g id="edge66" class="edge"><title>R6&#45;&gt;R6_intermediate_m</title>
<path fill="none" stroke="black" d="M300.462,-56.1287C318.559,-58.108 343.01,-60.7823 344.885,-60.9874"/>
<polygon fill="none" stroke="black" points="300.27,-56.1078 293.871,-59.4317 288.342,-54.803 294.741,-51.4791 300.27,-56.1078"/>
</g>
<!-- R6_intermediate_r&#45;&gt;R6 -->
<g id="edge58" class="edge"><title>R6_intermediate_r&#45;&gt;R6</title>
<path fill="none" stroke="black" d="M217.046,-57.9971C218.576,-57.9015 257.51,-55.4681 273.868,-54.4458"/>
</g>
<!-- R6_intermediate_p&#45;&gt;IIa -->
<g id="edge64" class="edge"><title>R6_intermediate_p&#45;&gt;IIa</title>
<path fill="none" stroke="black" d="M345.046,-43.013C345.893,-43.2512 358.209,-46.7149 371.809,-50.5402"/>
<polygon fill="black" stroke="black" points="371.22,-54.0102 381.794,-53.3484 373.116,-47.2716 371.22,-54.0102"/>
</g>
<!-- R7 -->
<g id="node69" class="node"><title>R7</title>
<polygon fill="none" stroke="black" points="545,-31 531,-31 531,-17 545,-17 545,-31"/>
</g>
<!-- R7_intermediate_p -->
<g id="node73" class="node"><title>R7_intermediate_p</title>
<ellipse fill="black" stroke="black" cx="602" cy="-19" rx="0.036" ry="0.036"/>
</g>
<!-- R7&#45;&gt;R7_intermediate_p -->
<g id="edge74" class="edge"><title>R7&#45;&gt;R7_intermediate_p</title>
<path fill="none" stroke="black" d="M545.342,-23.4264C561.627,-22.1541 599.532,-19.1928 601.885,-19.009"/>
</g>
<!-- R7_intermediate_r&#45;&gt;R7 -->
<g id="edge70" class="edge"><title>R7_intermediate_r&#45;&gt;R7</title>
<path fill="none" stroke="black" d="M473.047,-41.987C474.6,-41.5569 514.143,-30.6065 530.756,-26.0059"/>
</g>
<!-- R7_intermediate_p&#45;&gt;IIa_alpha2M -->
<g id="edge76" class="edge"><title>R7_intermediate_p&#45;&gt;IIa_alpha2M</title>
<path fill="none" stroke="black" d="M602.054,-18.9993C602.927,-18.9875 614.354,-18.8331 627.974,-18.649"/>
<polygon fill="black" stroke="black" points="628.208,-22.1463 638.16,-18.5114 628.114,-15.1469 628.208,-22.1463"/>
</g>
<!-- R8 -->
<g id="node76" class="node"><title>R8</title>
<polygon fill="none" stroke="black" points="545,-74 531,-74 531,-60 545,-60 545,-74"/>
</g>
<!-- R8_intermediate_p -->
<g id="node80" class="node"><title>R8_intermediate_p</title>
<ellipse fill="black" stroke="black" cx="602" cy="-70" rx="0.036" ry="0.036"/>
</g>
<!-- R8&#45;&gt;R8_intermediate_p -->
<g id="edge82" class="edge"><title>R8&#45;&gt;R8_intermediate_p</title>
<path fill="none" stroke="black" d="M545.342,-67.3441C561.627,-68.1075 599.532,-69.8843 601.885,-69.9946"/>
</g>
<!-- R8_intermediate_r&#45;&gt;R8 -->
<g id="edge78" class="edge"><title>R8_intermediate_r&#45;&gt;R8</title>
<path fill="none" stroke="black" d="M473.047,-61.0043C474.6,-61.1477 514.143,-64.7978 530.756,-66.3314"/>
</g>
<!-- R8_intermediate_p&#45;&gt;IIa_ATIII -->
<g id="edge84" class="edge"><title>R8_intermediate_p&#45;&gt;IIa_ATIII</title>
<path fill="none" stroke="black" d="M602.054,-70.0014C603.144,-70.0309 620.678,-70.5048 638.397,-70.9837"/>
<polygon fill="black" stroke="black" points="638.637,-74.4914 648.728,-71.2629 638.826,-67.4939 638.637,-74.4914"/>
</g>
</g>
</svg>
