<?xml version="1.0" encoding="UTF-8" standalone="no"?>
<!DOCTYPE svg PUBLIC "-//W3C//DTD SVG 1.1//EN"
 "http://www.w3.org/Graphics/SVG/1.1/DTD/svg11.dtd">
<!-- Generated by graphviz version 2.24.0 (20090616.2323)
 -->
<!-- Title: G Pages: 1 -->
<svg width="966pt" height="287pt"
 viewBox="0.00 0.00 966.00 287.00" xmlns="http://www.w3.org/2000/svg" xmlns:xlink="http://www.w3.org/1999/xlink">
<g id="graph1" class="graph" transform="scale(1 1) rotate(0) translate(4 283)">
<title>G</title>
<polygon fill="white" stroke="white" points="-4,5 -4,-283 963,-283 963,5 -4,5"/>
<!-- RA -->
<g id="node1" class="node"><title>RA</title>
<ellipse fill="none" stroke="black" cx="275" cy="-207" rx="18" ry="18"/>
<text text-anchor="middle" x="275" y="-204.5" font-family="Times Roman,serif" font-size="10.00">RA</text>
</g>
<!-- RA_decay_intermediate_r -->
<g id="node13" class="node"><title>RA_decay_intermediate_r</title>
<ellipse fill="black" stroke="black" cx="383" cy="-232" rx="0.036" ry="0.036"/>
</g>
<!-- RA&#45;&gt;RA_decay_intermediate_r -->
<g id="edge10" class="edge"><title>RA&#45;&gt;RA_decay_intermediate_r</title>
<path fill="none" stroke="black" d="M292.834,-211.128C323.03,-218.118 381.148,-231.571 382.957,-231.99"/>
</g>
<!-- RA_deg_by_Cyp26_intermediate_r -->
<g id="node19" class="node"><title>RA_deg_by_Cyp26_intermediate_r</title>
<ellipse fill="black" stroke="black" cx="383" cy="-207" rx="0.036" ry="0.036"/>
</g>
<!-- RA&#45;&gt;RA_deg_by_Cyp26_intermediate_r -->
<g id="edge16" class="edge"><title>RA&#45;&gt;RA_deg_by_Cyp26_intermediate_r</title>
<path fill="none" stroke="black" d="M293.321,-207C323.171,-207 379.348,-207 382.83,-207"/>
</g>
<!-- FGF_synthesis_intermediate_m -->
<g id="node63" class="node"><title>FGF_synthesis_intermediate_m</title>
<ellipse fill="black" stroke="black" cx="383" cy="-36" rx="0.036" ry="0.036"/>
</g>
<!-- RA&#45;&gt;FGF_synthesis_intermediate_m -->
<g id="edge64" class="edge"><title>RA&#45;&gt;FGF_synthesis_intermediate_m</title>
<path fill="none" stroke="black" d="M288.489,-195.034C298.426,-185.576 311.616,-171.578 320,-157 346.066,-111.675 319.228,-82.17 356,-45 364.618,-36.2888 381.877,-36.0093 382.948,-36.0003"/>
</g>
<!-- M_C -->
<g id="node2" class="node"><title>M_C</title>
<ellipse fill="none" stroke="black" cx="677" cy="-72" rx="51.0937" ry="18"/>
<text text-anchor="middle" x="677" y="-69.5" font-family="Times Roman,serif" font-size="10.00">cyp26_mRNA</text>
</g>
<!-- M_C_decay_intermediate_r -->
<g id="node37" class="node"><title>M_C_decay_intermediate_r</title>
<ellipse fill="black" stroke="black" cx="791" cy="-72" rx="0.036" ry="0.036"/>
</g>
<!-- M_C&#45;&gt;M_C_decay_intermediate_r -->
<g id="edge36" class="edge"><title>M_C&#45;&gt;M_C_decay_intermediate_r</title>
<path fill="none" stroke="black" d="M728.331,-72C757.644,-72 788.976,-72 790.906,-72"/>
</g>
<!-- C_translation_intermediate_m -->
<g id="node48" class="node"><title>C_translation_intermediate_m</title>
<ellipse fill="black" stroke="black" cx="791" cy="-104" rx="0.036" ry="0.036"/>
</g>
<!-- M_C&#45;&gt;C_translation_intermediate_m -->
<g id="edge48" class="edge"><title>M_C&#45;&gt;C_translation_intermediate_m</title>
<path fill="none" stroke="black" d="M717.192,-83.282C748.988,-92.2071 788.446,-103.283 790.881,-103.967"/>
</g>
<!-- C -->
<g id="node3" class="node"><title>C</title>
<polyline fill="none" stroke="black" points="488,-182 458,-182 "/>
<path fill="none" stroke="black" d="M458,-182C452,-182 446,-176 446,-170"/>
<polyline fill="none" stroke="black" points="446,-170 446,-158 "/>
<path fill="none" stroke="black" d="M446,-158C446,-152 452,-146 458,-146"/>
<polyline fill="none" stroke="black" points="458,-146 488,-146 "/>
<path fill="none" stroke="black" d="M488,-146C494,-146 500,-152 500,-158"/>
<polyline fill="none" stroke="black" points="500,-158 500,-170 "/>
<path fill="none" stroke="black" d="M500,-170C500,-176 494,-182 488,-182"/>
<text text-anchor="middle" x="473" y="-161.5" font-family="Times Roman,serif" font-size="10.00">CYP26</text>
</g>
<!-- RA_deg_by_Cyp26_intermediate_m -->
<g id="node24" class="node"><title>RA_deg_by_Cyp26_intermediate_m</title>
<ellipse fill="black" stroke="black" cx="563" cy="-171" rx="0.036" ry="0.036"/>
</g>
<!-- C&#45;&gt;RA_deg_by_Cyp26_intermediate_m -->
<g id="edge22" class="edge"><title>C&#45;&gt;RA_deg_by_Cyp26_intermediate_m</title>
<path fill="none" stroke="black" d="M500.003,-166.1C525.685,-168.098 560.729,-170.823 562.895,-170.992"/>
</g>
<!-- C_decay_intermediate_r -->
<g id="node52" class="node"><title>C_decay_intermediate_r</title>
<ellipse fill="black" stroke="black" cx="563" cy="-153" rx="0.036" ry="0.036"/>
</g>
<!-- C&#45;&gt;C_decay_intermediate_r -->
<g id="edge52" class="edge"><title>C&#45;&gt;C_decay_intermediate_r</title>
<path fill="none" stroke="black" d="M500.003,-160.7C525.685,-157.561 560.729,-153.278 562.895,-153.013"/>
</g>
<!-- F -->
<g id="node4" class="node"><title>F</title>
<polyline fill="none" stroke="black" points="488,-42 458,-42 "/>
<path fill="none" stroke="black" d="M458,-42C452,-42 446,-36 446,-30"/>
<polyline fill="none" stroke="black" points="446,-30 446,-18 "/>
<path fill="none" stroke="black" d="M446,-18C446,-12 452,-6 458,-6"/>
<polyline fill="none" stroke="black" points="458,-6 488,-6 "/>
<path fill="none" stroke="black" d="M488,-6C494,-6 500,-12 500,-18"/>
<polyline fill="none" stroke="black" points="500,-18 500,-30 "/>
<path fill="none" stroke="black" d="M500,-30C500,-36 494,-42 488,-42"/>
<text text-anchor="middle" x="473" y="-21.5" font-family="Times Roman,serif" font-size="10.00">FGF</text>
</g>
<!-- M_C_transcription_intermediate_m -->
<g id="node33" class="node"><title>M_C_transcription_intermediate_m</title>
<ellipse fill="black" stroke="black" cx="563" cy="-48" rx="0.036" ry="0.036"/>
</g>
<!-- F&#45;&gt;M_C_transcription_intermediate_m -->
<g id="edge32" class="edge"><title>F&#45;&gt;M_C_transcription_intermediate_m</title>
<path fill="none" stroke="black" d="M500.003,-31.2008C525.685,-38.0492 560.729,-47.3945 562.895,-47.9719"/>
</g>
<!-- FGF_decay_intermediate_r -->
<g id="node68" class="node"><title>FGF_decay_intermediate_r</title>
<ellipse fill="black" stroke="black" cx="563" cy="-24" rx="0.036" ry="0.036"/>
</g>
<!-- F&#45;&gt;FGF_decay_intermediate_r -->
<g id="edge70" class="edge"><title>F&#45;&gt;FGF_decay_intermediate_r</title>
<path fill="none" stroke="black" d="M500.003,-24C525.685,-24 560.729,-24 562.895,-24"/>
</g>
<!-- M_F -->
<g id="node5" class="node"><title>M_F</title>
<ellipse fill="none" stroke="black" cx="275" cy="-61" rx="43.8243" ry="18"/>
<text text-anchor="middle" x="275" y="-58.5" font-family="Times Roman,serif" font-size="10.00">FGF_mRNA</text>
</g>
<!-- M_F&#45;&gt;FGF_synthesis_intermediate_m -->
<g id="edge66" class="edge"><title>M_F&#45;&gt;FGF_synthesis_intermediate_m</title>
<path fill="none" stroke="black" d="M313.685,-52.045C343.706,-45.0957 380.612,-36.5528 382.889,-36.0257"/>
</g>
<!-- RA_synthesis -->
<g id="node6" class="node"><title>RA_synthesis</title>
<polygon fill="none" stroke="black" points="104,-214 90,-214 90,-200 104,-200 104,-214"/>
</g>
<!-- RA_synthesis_intermediate_p -->
<g id="node9" class="node"><title>RA_synthesis_intermediate_p</title>
<ellipse fill="black" stroke="black" cx="167" cy="-207" rx="0.036" ry="0.036"/>
</g>
<!-- RA_synthesis&#45;&gt;RA_synthesis_intermediate_p -->
<g id="edge4" class="edge"><title>RA_synthesis&#45;&gt;RA_synthesis_intermediate_p</title>
<path fill="none" stroke="black" d="M104.228,-207C121.554,-207 164.221,-207 166.871,-207"/>
</g>
<!-- RA_synthesis_empty -->
<g id="node7" class="node"><title>RA_synthesis_empty</title>
<text text-anchor="middle" x="27" y="-202.5" font-family="Times Roman,serif" font-size="15.00" fill="blue">Ø</text>
</g>
<!-- RA_synthesis_empty&#45;&gt;RA_synthesis -->
<g id="edge2" class="edge"><title>RA_synthesis_empty&#45;&gt;RA_synthesis</title>
<path fill="none" stroke="black" d="M54.2643,-207C67.1627,-207 81.5367,-207 89.8947,-207"/>
</g>
<!-- RA_synthesis_intermediate_p&#45;&gt;RA -->
<g id="edge6" class="edge"><title>RA_synthesis_intermediate_p&#45;&gt;RA</title>
<path fill="none" stroke="black" d="M167.078,-207C169.227,-207 215.126,-207 246.367,-207"/>
<polygon fill="black" stroke="black" points="246.71,-210.5 256.71,-207 246.71,-203.5 246.71,-210.5"/>
</g>
<!-- RA_decay -->
<g id="node12" class="node"><title>RA_decay</title>
<polygon fill="none" stroke="black" points="480,-257 466,-257 466,-243 480,-243 480,-257"/>
</g>
<!-- RA_decay_empty -->
<g id="node16" class="node"><title>RA_decay_empty</title>
<text text-anchor="middle" x="563" y="-256.5" font-family="Times Roman,serif" font-size="15.00" fill="blue">Ø</text>
</g>
<!-- RA_decay&#45;&gt;RA_decay_empty -->
<g id="edge12" class="edge"><title>RA_decay&#45;&gt;RA_decay_empty</title>
<path fill="none" stroke="black" d="M480.062,-250.863C489.877,-252.063 508.359,-254.322 525.389,-256.403"/>
<polygon fill="black" stroke="black" points="525.364,-259.926 535.715,-257.665 526.213,-252.978 525.364,-259.926"/>
</g>
<!-- RA_decay_intermediate_r&#45;&gt;RA_decay -->
<g id="edge8" class="edge"><title>RA_decay_intermediate_r&#45;&gt;RA_decay</title>
<path fill="none" stroke="black" d="M383.065,-232.013C385.311,-232.462 444.951,-244.39 465.848,-248.57"/>
</g>
<!-- RA_deg_by_Cyp26 -->
<g id="node18" class="node"><title>RA_deg_by_Cyp26</title>
<polygon fill="none" stroke="black" points="480,-214 466,-214 466,-200 480,-200 480,-214"/>
</g>
<!-- RA_deg_by_Cyp26_empty -->
<g id="node22" class="node"><title>RA_deg_by_Cyp26_empty</title>
<text text-anchor="middle" x="563" y="-202.5" font-family="Times Roman,serif" font-size="15.00" fill="blue">Ø</text>
</g>
<!-- RA_deg_by_Cyp26&#45;&gt;RA_deg_by_Cyp26_empty -->
<g id="edge18" class="edge"><title>RA_deg_by_Cyp26&#45;&gt;RA_deg_by_Cyp26_empty</title>
<path fill="none" stroke="black" d="M480.062,-207C489.877,-207 508.359,-207 525.389,-207"/>
<polygon fill="black" stroke="black" points="525.715,-210.5 535.715,-207 525.715,-203.5 525.715,-210.5"/>
</g>
<!-- RA_deg_by_Cyp26&#45;&gt;RA_deg_by_Cyp26_intermediate_m -->
<g id="edge20" class="edge"><title>RA_deg_by_Cyp26&#45;&gt;RA_deg_by_Cyp26_intermediate_m</title>
<path fill="none" stroke="black" d="M491.425,-198.624C503.899,-193.072 520.81,-185.775 536,-180 547.454,-175.645 562.055,-171.282 562.956,-171.013"/>
<polygon fill="none" stroke="black" points="491.231,-198.711 487.404,-204.823 480.29,-203.641 484.118,-197.529 491.231,-198.711"/>
</g>
<!-- RA_deg_by_Cyp26_intermediate_r&#45;&gt;RA_deg_by_Cyp26 -->
<g id="edge14" class="edge"><title>RA_deg_by_Cyp26_intermediate_r&#45;&gt;RA_deg_by_Cyp26</title>
<path fill="none" stroke="black" d="M383.065,-207C385.311,-207 444.951,-207 465.848,-207"/>
</g>
<!-- M_C_transcription -->
<g id="node27" class="node"><title>M_C_transcription</title>
<polygon fill="none" stroke="black" points="480,-79 466,-79 466,-65 480,-65 480,-79"/>
</g>
<!-- M_C_transcription_intermediate_p -->
<g id="node30" class="node"><title>M_C_transcription_intermediate_p</title>
<ellipse fill="black" stroke="black" cx="563" cy="-72" rx="0.036" ry="0.036"/>
</g>
<!-- M_C_transcription&#45;&gt;M_C_transcription_intermediate_p -->
<g id="edge26" class="edge"><title>M_C_transcription&#45;&gt;M_C_transcription_intermediate_p</title>
<path fill="none" stroke="black" d="M480.062,-72C500.947,-72 561.081,-72 562.955,-72"/>
</g>
<!-- M_C_transcription&#45;&gt;M_C_transcription_intermediate_m -->
<g id="edge30" class="edge"><title>M_C_transcription&#45;&gt;M_C_transcription_intermediate_m</title>
<path fill="none" stroke="black" d="M491.995,-66.9346C517.917,-60.0221 561.367,-48.4356 562.955,-48.012"/>
<polygon fill="none" stroke="black" points="491.657,-67.0247 486.89,-72.4357 480.062,-70.1168 484.829,-64.7058 491.657,-67.0247"/>
</g>
<!-- M_C_transcription_empty -->
<g id="node28" class="node"><title>M_C_transcription_empty</title>
<text text-anchor="middle" x="383" y="-67.5" font-family="Times Roman,serif" font-size="15.00" fill="blue">Ø</text>
</g>
<!-- M_C_transcription_empty&#45;&gt;M_C_transcription -->
<g id="edge24" class="edge"><title>M_C_transcription_empty&#45;&gt;M_C_transcription</title>
<path fill="none" stroke="black" d="M410.003,-72C429.264,-72 453.792,-72 465.766,-72"/>
</g>
<!-- M_C_transcription_intermediate_p&#45;&gt;M_C -->
<g id="edge28" class="edge"><title>M_C_transcription_intermediate_p&#45;&gt;M_C</title>
<path fill="none" stroke="black" d="M563.083,-72C564.697,-72 589.71,-72 615.886,-72"/>
<polygon fill="black" stroke="black" points="615.929,-75.5001 625.929,-72 615.929,-68.5001 615.929,-75.5001"/>
</g>
<!-- M_C_decay -->
<g id="node36" class="node"><title>M_C_decay</title>
<polygon fill="none" stroke="black" points="868,-79 854,-79 854,-65 868,-65 868,-79"/>
</g>
<!-- M_C_decay_empty -->
<g id="node40" class="node"><title>M_C_decay_empty</title>
<text text-anchor="middle" x="931" y="-67.5" font-family="Times Roman,serif" font-size="15.00" fill="blue">Ø</text>
</g>
<!-- M_C_decay&#45;&gt;M_C_decay_empty -->
<g id="edge38" class="edge"><title>M_C_decay&#45;&gt;M_C_decay_empty</title>
<path fill="none" stroke="black" d="M868.228,-72C874.45,-72 883.94,-72 893.672,-72"/>
<polygon fill="black" stroke="black" points="893.773,-75.5001 903.773,-72 893.773,-68.5001 893.773,-75.5001"/>
</g>
<!-- M_C_decay_intermediate_r&#45;&gt;M_C_decay -->
<g id="edge34" class="edge"><title>M_C_decay_intermediate_r&#45;&gt;M_C_decay</title>
<path fill="none" stroke="black" d="M791.051,-72C792.748,-72 836.582,-72 853.98,-72"/>
</g>
<!-- C_translation -->
<g id="node42" class="node"><title>C_translation</title>
<polygon fill="none" stroke="black" points="282,-148 268,-148 268,-134 282,-134 282,-148"/>
</g>
<!-- C_translation_intermediate_p -->
<g id="node45" class="node"><title>C_translation_intermediate_p</title>
<ellipse fill="black" stroke="black" cx="383" cy="-155" rx="0.036" ry="0.036"/>
</g>
<!-- C_translation&#45;&gt;C_translation_intermediate_p -->
<g id="edge42" class="edge"><title>C_translation&#45;&gt;C_translation_intermediate_p</title>
<path fill="none" stroke="black" d="M282.086,-141.919C305.738,-144.985 380.61,-154.69 382.944,-154.993"/>
</g>
<!-- C_translation&#45;&gt;C_translation_intermediate_m -->
<g id="edge46" class="edge"><title>C_translation&#45;&gt;C_translation_intermediate_m</title>
<path fill="none" stroke="black" d="M294.182,-137.276C329.442,-130.766 406.998,-118 473,-118 473,-118 473,-118 563,-118 662.938,-118 787.054,-104.434 790.908,-104.01"/>
<polygon fill="none" stroke="black" points="293.946,-137.321 288.798,-142.371 282.157,-139.561 287.305,-134.511 293.946,-137.321"/>
</g>
<!-- C_translation_empty -->
<g id="node43" class="node"><title>C_translation_empty</title>
<text text-anchor="middle" x="167" y="-136.5" font-family="Times Roman,serif" font-size="15.00" fill="blue">Ø</text>
</g>
<!-- C_translation_empty&#45;&gt;C_translation -->
<g id="edge40" class="edge"><title>C_translation_empty&#45;&gt;C_translation</title>
<path fill="none" stroke="black" d="M194.253,-141C218.748,-141 253.068,-141 267.809,-141"/>
</g>
<!-- C_translation_intermediate_p&#45;&gt;C -->
<g id="edge44" class="edge"><title>C_translation_intermediate_p&#45;&gt;C</title>
<path fill="none" stroke="black" d="M383.065,-155.007C384.565,-155.156 411.648,-157.865 435.704,-160.27"/>
<polygon fill="black" stroke="black" points="435.446,-163.762 445.745,-161.275 436.143,-156.797 435.446,-163.762"/>
</g>
<!-- C_decay -->
<g id="node51" class="node"><title>C_decay</title>
<polygon fill="none" stroke="black" points="684,-160 670,-160 670,-146 684,-146 684,-160"/>
</g>
<!-- C_decay_empty -->
<g id="node55" class="node"><title>C_decay_empty</title>
<text text-anchor="middle" x="791" y="-148.5" font-family="Times Roman,serif" font-size="15.00" fill="blue">Ø</text>
</g>
<!-- C_decay&#45;&gt;C_decay_empty -->
<g id="edge54" class="edge"><title>C_decay&#45;&gt;C_decay_empty</title>
<path fill="none" stroke="black" d="M684.131,-153C697.78,-153 728.462,-153 753.465,-153"/>
<polygon fill="black" stroke="black" points="753.767,-156.5 763.767,-153 753.767,-149.5 753.767,-156.5"/>
</g>
<!-- C_decay_intermediate_r&#45;&gt;C_decay -->
<g id="edge50" class="edge"><title>C_decay_intermediate_r&#45;&gt;C_decay</title>
<path fill="none" stroke="black" d="M563.083,-153C565.995,-153 645.092,-153 669.739,-153"/>
</g>
<!-- FGF_synthesis -->
<g id="node57" class="node"><title>FGF_synthesis</title>
<polygon fill="none" stroke="black" points="282,-25 268,-25 268,-11 282,-11 282,-25"/>
</g>
<!-- FGF_synthesis_intermediate_p -->
<g id="node60" class="node"><title>FGF_synthesis_intermediate_p</title>
<ellipse fill="black" stroke="black" cx="383" cy="-18" rx="0.036" ry="0.036"/>
</g>
<!-- FGF_synthesis&#45;&gt;FGF_synthesis_intermediate_p -->
<g id="edge58" class="edge"><title>FGF_synthesis&#45;&gt;FGF_synthesis_intermediate_p</title>
<path fill="none" stroke="black" d="M282.086,-18C305.738,-18 380.61,-18 382.944,-18"/>
</g>
<!-- FGF_synthesis&#45;&gt;FGF_synthesis_intermediate_m -->
<g id="edge62" class="edge"><title>FGF_synthesis&#45;&gt;FGF_synthesis_intermediate_m</title>
<path fill="none" stroke="black" d="M293.93,-21.1551C324.346,-26.2244 380.92,-35.6534 382.944,-35.9907"/>
<polygon fill="none" stroke="black" points="293.923,-21.1539 287.347,-24.113 282.086,-19.181 288.662,-16.2219 293.923,-21.1539"/>
</g>
<!-- FGF_synthesis_empty -->
<g id="node58" class="node"><title>FGF_synthesis_empty</title>
<text text-anchor="middle" x="167" y="-13.5" font-family="Times Roman,serif" font-size="15.00" fill="blue">Ø</text>
</g>
<!-- FGF_synthesis_empty&#45;&gt;FGF_synthesis -->
<g id="edge56" class="edge"><title>FGF_synthesis_empty&#45;&gt;FGF_synthesis</title>
<path fill="none" stroke="black" d="M194.253,-18C218.748,-18 253.068,-18 267.809,-18"/>
</g>
<!-- FGF_synthesis_intermediate_p&#45;&gt;F -->
<g id="edge60" class="edge"><title>FGF_synthesis_intermediate_p&#45;&gt;F</title>
<path fill="none" stroke="black" d="M383.065,-18.0043C384.565,-18.1043 411.648,-19.9099 435.704,-21.5136"/>
<polygon fill="black" stroke="black" points="435.534,-25.01 445.745,-22.183 436,-18.0255 435.534,-25.01"/>
</g>
<!-- FGF_decay -->
<g id="node67" class="node"><title>FGF_decay</title>
<polygon fill="none" stroke="black" points="684,-31 670,-31 670,-17 684,-17 684,-31"/>
</g>
<!-- FGF_decay_empty -->
<g id="node71" class="node"><title>FGF_decay_empty</title>
<text text-anchor="middle" x="791" y="-19.5" font-family="Times Roman,serif" font-size="15.00" fill="blue">Ø</text>
</g>
<!-- FGF_decay&#45;&gt;FGF_decay_empty -->
<g id="edge72" class="edge"><title>FGF_decay&#45;&gt;FGF_decay_empty</title>
<path fill="none" stroke="black" d="M684.131,-24C697.78,-24 728.462,-24 753.465,-24"/>
<polygon fill="black" stroke="black" points="753.767,-27.5001 763.767,-24 753.767,-20.5001 753.767,-27.5001"/>
</g>
<!-- FGF_decay_intermediate_r&#45;&gt;FGF_decay -->
<g id="edge68" class="edge"><title>FGF_decay_intermediate_r&#45;&gt;FGF_decay</title>
<path fill="none" stroke="black" d="M563.083,-24C565.995,-24 645.092,-24 669.739,-24"/>
</g>
</g>
</svg>
