<?xml version="1.0" encoding="UTF-8" standalone="no"?>
<!DOCTYPE svg PUBLIC "-//W3C//DTD SVG 1.1//EN"
 "http://www.w3.org/Graphics/SVG/1.1/DTD/svg11.dtd">
<!-- Generated by graphviz version 2.30.1 (20140821.0912)
 -->
<!-- Title: G Pages: 1 -->
<svg width="1520pt" height="478pt"
 viewBox="0.00 0.00 1520.00 478.00" xmlns="http://www.w3.org/2000/svg" xmlns:xlink="http://www.w3.org/1999/xlink">
<g id="graph0" class="graph" transform="scale(1 1) rotate(0) translate(4 474)">
<title>G</title>
<polygon fill="white" stroke="white" points="-4,5 -4,-474 1517,-474 1517,5 -4,5"/>
<!-- aux -->
<g id="aux" class="node"><title>aux</title>
<ellipse fill="none" stroke="black" cx="27" cy="-66" rx="27" ry="18"/>
<text text-anchor="middle" x="27" y="-63.5" font-family="Times,serif" font-size="10.00">aux</text>
</g>
<!-- auxin_degradation_intermediate_r -->
<g id="node16" class="node"><title>auxin_degradation_intermediate_r</title>
<ellipse fill="black" stroke="black" cx="91" cy="-138" rx="0.036" ry="0.036"/>
</g>
<!-- aux&#45;&gt;auxin_degradation_intermediate_r -->
<g id="edge6" class="edge"><title>aux&#45;&gt;auxin_degradation_intermediate_r</title>
<path fill="none" stroke="black" d="M41.4531,-81.6229C59.1179,-102.137 88.1173,-135.814 89.9125,-137.898"/>
</g>
<!-- auxTIR1_formation_intermediate_r -->
<g id="node44" class="node"><title>auxTIR1_formation_intermediate_r</title>
<ellipse fill="black" stroke="black" cx="1425" cy="-54" rx="0.036" ry="0.036"/>
</g>
<!-- aux&#45;&gt;auxTIR1_formation_intermediate_r -->
<g id="edge49" class="edge"><title>aux&#45;&gt;auxTIR1_formation_intermediate_r</title>
<path fill="none" stroke="black" d="M41.407,-50.6924C60.0521,-31.1953 95.8459,-0 134,-0 134,-0 134,-0 1298,-0 1339.76,-0 1350.72,-8.18084 1388,-27 1405.3,-35.7311 1422.87,-52.8846 1423.95,-53.9481"/>
</g>
<!-- IAAm -->
<g id="IAAm" class="node"><title>IAAm</title>
<ellipse fill="none" stroke="black" cx="459" cy="-285" rx="27" ry="18"/>
<text text-anchor="middle" x="459" y="-282.5" font-family="Times,serif" font-size="10.00">IAAm</text>
</g>
<!-- mRNA_degradation_intermediate_r -->
<g id="node23" class="node"><title>mRNA_degradation_intermediate_r</title>
<ellipse fill="black" stroke="black" cx="523" cy="-318" rx="0.036" ry="0.036"/>
</g>
<!-- IAAm&#45;&gt;mRNA_degradation_intermediate_r -->
<g id="edge18" class="edge"><title>IAAm&#45;&gt;mRNA_degradation_intermediate_r</title>
<path fill="none" stroke="black" d="M480.645,-295.989C498.117,-305.288 520.548,-317.227 521.933,-317.964"/>
</g>
<!-- mRNA_translation_intermediate_r -->
<g id="node29" class="node"><title>mRNA_translation_intermediate_r</title>
<ellipse fill="black" stroke="black" cx="523" cy="-255" rx="0.036" ry="0.036"/>
</g>
<!-- IAAm&#45;&gt;mRNA_translation_intermediate_r -->
<g id="edge26" class="edge"><title>IAAm&#45;&gt;mRNA_translation_intermediate_r</title>
<path fill="none" stroke="black" d="M481.337,-274.676C498.711,-266.269 520.584,-255.685 521.934,-255.032"/>
</g>
<!-- IAAp -->
<g id="IAAp" class="node"><title>IAAp</title>
<ellipse fill="none" stroke="black" cx="675" cy="-308" rx="27" ry="18"/>
<text text-anchor="middle" x="675" y="-305.5" font-family="Times,serif" font-size="10.00">IAAp</text>
</g>
<!-- IAA_degradation_intermediate_r -->
<g id="node26" class="node"><title>IAA_degradation_intermediate_r</title>
<ellipse fill="black" stroke="black" cx="739" cy="-409" rx="0.036" ry="0.036"/>
</g>
<!-- IAAp&#45;&gt;IAA_degradation_intermediate_r -->
<g id="edge22" class="edge"><title>IAAp&#45;&gt;IAA_degradation_intermediate_r</title>
<path fill="none" stroke="black" d="M686.238,-324.678C703.297,-352.468 735.882,-405.549 737.901,-408.84"/>
</g>
<!-- ARFIAA_formation_intermediate_r -->
<g id="node38" class="node"><title>ARFIAA_formation_intermediate_r</title>
<ellipse fill="black" stroke="black" cx="739" cy="-365" rx="0.036" ry="0.036"/>
</g>
<!-- IAAp&#45;&gt;ARFIAA_formation_intermediate_r -->
<g id="edge40" class="edge"><title>IAAp&#45;&gt;ARFIAA_formation_intermediate_r</title>
<path fill="none" stroke="black" d="M691.645,-322.384C709.438,-338.742 736.26,-363.4 737.919,-364.926"/>
</g>
<!-- auxTIR1IAA_formation_intermediate_r -->
<g id="node50" class="node"><title>auxTIR1IAA_formation_intermediate_r</title>
<ellipse fill="black" stroke="black" cx="739" cy="-143" rx="0.036" ry="0.036"/>
</g>
<!-- IAAp&#45;&gt;auxTIR1IAA_formation_intermediate_r -->
<g id="edge60" class="edge"><title>IAAp&#45;&gt;auxTIR1IAA_formation_intermediate_r</title>
<path fill="none" stroke="black" d="M682.518,-290.654C698.187,-248.953 736.769,-146.275 737.971,-143.076"/>
</g>
<!-- ARF -->
<g id="ARF" class="node"><title>ARF</title>
<ellipse fill="none" stroke="black" cx="1141" cy="-376" rx="27" ry="18"/>
<text text-anchor="middle" x="1141" y="-373.5" font-family="Times,serif" font-size="10.00">ARF</text>
</g>
<!-- mRNA_production_intermediate_m -->
<g id="node21" class="node"><title>mRNA_production_intermediate_m</title>
<ellipse fill="black" stroke="black" cx="1425" cy="-311" rx="0.036" ry="0.036"/>
</g>
<!-- ARF&#45;&gt;mRNA_production_intermediate_m -->
<g id="edge14" class="edge"><title>ARF&#45;&gt;mRNA_production_intermediate_m</title>
<path fill="none" stroke="black" d="M1160.11,-363.186C1181.15,-349.575 1217.43,-330 1252,-330 1252,-330 1252,-330 1298,-330 1353.75,-330 1421.84,-311.589 1423.95,-311.014"/>
</g>
<!-- ARF2_formation_intermediate_r -->
<g id="node32" class="node"><title>ARF2_formation_intermediate_r</title>
<ellipse fill="black" stroke="black" cx="1209" cy="-376" rx="0.036" ry="0.036"/>
</g>
<!-- ARF&#45;&gt;ARF2_formation_intermediate_r -->
<g id="edge31" class="edge"><title>ARF&#45;&gt;ARF2_formation_intermediate_r</title>
<path fill="none" stroke="black" d="M1168.08,-376C1185.96,-376 1206.66,-376 1207.94,-376"/>
</g>
<!-- ARF&#45;&gt;ARFIAA_formation_intermediate_r -->
<g id="edge39" class="edge"><title>ARF&#45;&gt;ARFIAA_formation_intermediate_r</title>
<path fill="none" stroke="black" d="M1116.72,-384.125C1094.67,-391.088 1060.49,-400 1030,-400 826,-400 826,-400 826,-400 786.023,-400 742.792,-367.153 740.13,-365.1"/>
</g>
<!-- null -->
<g id="null" class="node"><title>null</title>
<ellipse fill="none" stroke="black" cx="243" cy="-232" rx="27" ry="18"/>
<text text-anchor="middle" x="243" y="-229.5" font-family="Times,serif" font-size="10.00">null</text>
</g>
<!-- auxin_production_intermediate_r -->
<g id="node13" class="node"><title>auxin_production_intermediate_r</title>
<ellipse fill="black" stroke="black" cx="307" cy="-176" rx="0.036" ry="0.036"/>
</g>
<!-- null&#45;&gt;auxin_production_intermediate_r -->
<g id="edge2" class="edge"><title>null&#45;&gt;auxin_production_intermediate_r</title>
<path fill="none" stroke="black" d="M259.967,-217.579C277.763,-201.505 304.28,-177.553 305.92,-176.072"/>
</g>
<!-- mRNA_production_intermediate_r -->
<g id="node19" class="node"><title>mRNA_production_intermediate_r</title>
<ellipse fill="black" stroke="black" cx="307" cy="-249" rx="0.036" ry="0.036"/>
</g>
<!-- null&#45;&gt;mRNA_production_intermediate_r -->
<g id="edge10" class="edge"><title>null&#45;&gt;mRNA_production_intermediate_r</title>
<path fill="none" stroke="black" d="M268.148,-238.621C285.013,-243.245 304.725,-248.65 305.941,-248.984"/>
</g>
<!-- ARFIAA -->
<g id="ARFIAA" class="node"><title>ARFIAA</title>
<ellipse fill="none" stroke="black" cx="906" cy="-316" rx="31.577" ry="18"/>
<text text-anchor="middle" x="906" y="-313.5" font-family="Times,serif" font-size="10.00">ARFIAA</text>
</g>
<!-- ARFIAA&#45;&gt;mRNA_production_intermediate_m -->
<g id="edge16" class="edge"><title>ARFIAA&#45;&gt;mRNA_production_intermediate_m</title>
<path fill="none" stroke="black" d="M934.088,-307.471C958.413,-300.573 995.233,-292 1028,-292 1028,-292 1028,-292 1298,-292 1353.75,-292 1421.84,-310.411 1423.95,-310.986"/>
</g>
<!-- ARFIAA_dissociation_intermediate_r -->
<g id="node41" class="node"><title>ARFIAA_dissociation_intermediate_r</title>
<ellipse fill="black" stroke="black" cx="985" cy="-324" rx="0.036" ry="0.036"/>
</g>
<!-- ARFIAA&#45;&gt;ARFIAA_dissociation_intermediate_r -->
<g id="edge44" class="edge"><title>ARFIAA&#45;&gt;ARFIAA_dissociation_intermediate_r</title>
<path fill="none" stroke="black" d="M937.432,-319.162C958.283,-321.328 982.438,-323.838 983.927,-323.992"/>
</g>
<!-- ARF2 -->
<g id="ARF2" class="node"><title>ARF2</title>
<ellipse fill="none" stroke="black" cx="1361" cy="-376" rx="27" ry="18"/>
<text text-anchor="middle" x="1361" y="-373.5" font-family="Times,serif" font-size="10.00">ARF2</text>
</g>
<!-- ARF2&#45;&gt;mRNA_production_intermediate_m -->
<g id="edge15" class="edge"><title>ARF2&#45;&gt;mRNA_production_intermediate_m</title>
<path fill="none" stroke="black" d="M1376.38,-360.924C1394.12,-342.323 1422.18,-312.909 1423.92,-311.089"/>
</g>
<!-- ARF2_dissociation_intermediate_r -->
<g id="node35" class="node"><title>ARF2_dissociation_intermediate_r</title>
<ellipse fill="black" stroke="black" cx="1425" cy="-381" rx="0.036" ry="0.036"/>
</g>
<!-- ARF2&#45;&gt;ARF2_dissociation_intermediate_r -->
<g id="edge35" class="edge"><title>ARF2&#45;&gt;ARF2_dissociation_intermediate_r</title>
<path fill="none" stroke="black" d="M1387.93,-378.091C1404.39,-379.419 1422.81,-380.904 1423.94,-380.996"/>
</g>
<!-- auxTIR1 -->
<g id="auxTIR1" class="node"><title>auxTIR1</title>
<ellipse fill="none" stroke="black" cx="1141" cy="-108" rx="31.3996" ry="18"/>
<text text-anchor="middle" x="1141" y="-105.5" font-family="Times,serif" font-size="10.00">auxTIR1</text>
</g>
<!-- auxTIR1_dissociation_intermediate_r -->
<g id="node47" class="node"><title>auxTIR1_dissociation_intermediate_r</title>
<ellipse fill="black" stroke="black" cx="1209" cy="-76" rx="0.036" ry="0.036"/>
</g>
<!-- auxTIR1&#45;&gt;auxTIR1_dissociation_intermediate_r -->
<g id="edge54" class="edge"><title>auxTIR1&#45;&gt;auxTIR1_dissociation_intermediate_r</title>
<path fill="none" stroke="black" d="M1165.45,-96.6279C1183.83,-87.7176 1206.53,-76.7122 1207.93,-76.0331"/>
</g>
<!-- auxTIR1&#45;&gt;auxTIR1IAA_formation_intermediate_r -->
<g id="edge59" class="edge"><title>auxTIR1&#45;&gt;auxTIR1IAA_formation_intermediate_r</title>
<path fill="none" stroke="black" d="M1116.11,-96.808C1094.21,-87.5801 1060.63,-76 1030,-76 826,-76 826,-76 826,-76 778.304,-76 741.176,-140.923 740.027,-142.951"/>
</g>
<!-- auxTIR1IAA -->
<g id="auxTIR1IAA" class="node"><title>auxTIR1IAA</title>
<ellipse fill="none" stroke="black" cx="906" cy="-160" rx="41.5911" ry="18"/>
<text text-anchor="middle" x="906" y="-157.5" font-family="Times,serif" font-size="10.00">auxTIR1IAA</text>
</g>
<!-- auxTIR1IAA_dissociation_intermediate_r -->
<g id="node53" class="node"><title>auxTIR1IAA_dissociation_intermediate_r</title>
<ellipse fill="black" stroke="black" cx="985" cy="-152" rx="0.036" ry="0.036"/>
</g>
<!-- auxTIR1IAA&#45;&gt;auxTIR1IAA_dissociation_intermediate_r -->
<g id="edge64" class="edge"><title>auxTIR1IAA&#45;&gt;auxTIR1IAA_dissociation_intermediate_r</title>
<path fill="none" stroke="black" d="M946.853,-155.859C965.055,-153.968 982.852,-152.119 983.947,-152.006"/>
</g>
<!-- IAA_ubiquitination_intermediate_r -->
<g id="node56" class="node"><title>IAA_ubiquitination_intermediate_r</title>
<ellipse fill="black" stroke="black" cx="985" cy="-177" rx="0.036" ry="0.036"/>
</g>
<!-- auxTIR1IAA&#45;&gt;IAA_ubiquitination_intermediate_r -->
<g id="edge69" class="edge"><title>auxTIR1IAA&#45;&gt;IAA_ubiquitination_intermediate_r</title>
<path fill="none" stroke="black" d="M943.696,-168.102C962.908,-172.343 982.721,-176.718 983.941,-176.987"/>
</g>
<!-- TIR1 -->
<g id="TIR1" class="node"><title>TIR1</title>
<ellipse fill="none" stroke="black" cx="1361" cy="-54" rx="27" ry="18"/>
<text text-anchor="middle" x="1361" y="-51.5" font-family="Times,serif" font-size="10.00">TIR1</text>
</g>
<!-- TIR1&#45;&gt;auxTIR1_formation_intermediate_r -->
<g id="edge50" class="edge"><title>TIR1&#45;&gt;auxTIR1_formation_intermediate_r</title>
<path fill="none" stroke="black" d="M1388.29,-54C1404.66,-54 1422.83,-54 1423.95,-54"/>
</g>
<!-- IAAstar -->
<g id="IAAstar" class="node"><title>IAAstar</title>
<ellipse fill="none" stroke="black" cx="1141" cy="-170" rx="28.6898" ry="18"/>
<text text-anchor="middle" x="1141" y="-167.5" font-family="Times,serif" font-size="10.00">IAAstar</text>
</g>
<!-- IAAstar_degradation_intermediate_r -->
<g id="node59" class="node"><title>IAAstar_degradation_intermediate_r</title>
<ellipse fill="black" stroke="black" cx="1209" cy="-173" rx="0.036" ry="0.036"/>
</g>
<!-- IAAstar&#45;&gt;IAAstar_degradation_intermediate_r -->
<g id="edge74" class="edge"><title>IAAstar&#45;&gt;IAAstar_degradation_intermediate_r</title>
<path fill="none" stroke="black" d="M1169.99,-171.272C1187.42,-172.064 1206.75,-172.943 1207.94,-172.997"/>
</g>
<!-- auxin_production -->
<g id="node12" class="node"><title>auxin_production</title>
<polygon fill="none" stroke="black" points="358,-171 344,-171 344,-157 358,-157 358,-171"/>
</g>
<!-- auxin_production_intermediate_p -->
<g id="node14" class="node"><title>auxin_production_intermediate_p</title>
<ellipse fill="black" stroke="black" cx="395" cy="-129" rx="0.036" ry="0.036"/>
</g>
<!-- auxin_production&#45;&gt;auxin_production_intermediate_p -->
<g id="edge3" class="edge"><title>auxin_production&#45;&gt;auxin_production_intermediate_p</title>
<path fill="none" stroke="black" d="M358.197,-158.836C369.515,-149.404 392.505,-130.246 393.93,-129.058"/>
</g>
<!-- auxin_production_intermediate_r&#45;&gt;auxin_production -->
<g id="edge1" class="edge"><title>auxin_production_intermediate_r&#45;&gt;auxin_production</title>
<path fill="none" stroke="black" d="M308.12,-175.966C309.968,-175.438 332.602,-168.971 343.803,-165.771"/>
</g>
<!-- auxin_production_intermediate_p&#45;&gt;aux -->
<g id="edge4" class="edge"><title>auxin_production_intermediate_p&#45;&gt;aux</title>
<path fill="none" stroke="black" d="M393.87,-128.9C391.208,-126.847 347.977,-94 308,-94 134,-94 134,-94 134,-94 108.483,-94 80.6215,-86.3212 59.8693,-79.0061"/>
<polygon fill="black" stroke="black" points="60.8878,-75.6515 50.2944,-75.4795 58.4685,-82.2201 60.8878,-75.6515"/>
</g>
<!-- auxin_degradation -->
<g id="node15" class="node"><title>auxin_degradation</title>
<polygon fill="none" stroke="black" points="142,-162 128,-162 128,-148 142,-148 142,-162"/>
</g>
<!-- auxin_degradation_intermediate_p -->
<g id="node17" class="node"><title>auxin_degradation_intermediate_p</title>
<ellipse fill="black" stroke="black" cx="179" cy="-206" rx="0.036" ry="0.036"/>
</g>
<!-- auxin_degradation&#45;&gt;auxin_degradation_intermediate_p -->
<g id="edge7" class="edge"><title>auxin_degradation&#45;&gt;auxin_degradation_intermediate_p</title>
<path fill="none" stroke="black" d="M141.84,-162.091C153.02,-175.667 176.474,-204.147 177.929,-205.914"/>
</g>
<!-- auxin_degradation_intermediate_r&#45;&gt;auxin_degradation -->
<g id="edge5" class="edge"><title>auxin_degradation_intermediate_r&#45;&gt;auxin_degradation</title>
<path fill="none" stroke="black" d="M92.1205,-138.049C93.9681,-138.797 116.602,-147.958 127.803,-152.492"/>
</g>
<!-- auxin_degradation_intermediate_p&#45;&gt;null -->
<g id="edge8" class="edge"><title>auxin_degradation_intermediate_p&#45;&gt;null</title>
<path fill="none" stroke="black" d="M180.045,-206.019C180.953,-206.4 195.487,-212.495 210.249,-218.685"/>
<polygon fill="black" stroke="black" points="209.265,-222.068 219.841,-222.707 211.973,-215.612 209.265,-222.068"/>
</g>
<!-- mRNA_production -->
<g id="node18" class="node"><title>mRNA_production</title>
<polygon fill="none" stroke="black" points="358,-261 344,-261 344,-247 358,-247 358,-261"/>
</g>
<!-- mRNA_production_intermediate_p -->
<g id="node20" class="node"><title>mRNA_production_intermediate_p</title>
<ellipse fill="black" stroke="black" cx="395" cy="-283" rx="0.036" ry="0.036"/>
</g>
<!-- mRNA_production&#45;&gt;mRNA_production_intermediate_p -->
<g id="edge11" class="edge"><title>mRNA_production&#45;&gt;mRNA_production_intermediate_p</title>
<path fill="none" stroke="black" d="M358.197,-258.279C369.515,-266.094 392.505,-281.968 393.93,-282.952"/>
</g>
<!-- mRNA_production&#45;&gt;mRNA_production_intermediate_m -->
<g id="edge13" class="edge"><title>mRNA_production&#45;&gt;mRNA_production_intermediate_m</title>
<path fill="none" stroke="black" d="M358.04,-249.013C379.153,-232.105 452.169,-178 522,-178 522,-178 522,-178 740,-178 849.752,-178 874.248,-216 984,-216 984,-216 984,-216 1030,-216 1110.89,-216 1127.11,-254 1208,-254 1208,-254 1208,-254 1298,-254 1358.5,-254 1421.98,-309.233 1423.95,-310.959"/>
</g>
<!-- mRNA_production_intermediate_r&#45;&gt;mRNA_production -->
<g id="edge9" class="edge"><title>mRNA_production_intermediate_r&#45;&gt;mRNA_production</title>
<path fill="none" stroke="black" d="M308.12,-249.014C309.968,-249.234 332.602,-251.929 343.803,-253.262"/>
</g>
<!-- mRNA_production_intermediate_p&#45;&gt;IAAm -->
<g id="edge12" class="edge"><title>mRNA_production_intermediate_p&#45;&gt;IAAm</title>
<path fill="none" stroke="black" d="M396.045,-283.001C396.863,-283.028 408.734,-283.411 421.87,-283.835"/>
<polygon fill="black" stroke="black" points="421.891,-287.337 431.998,-284.161 422.116,-280.341 421.891,-287.337"/>
</g>
<!-- mRNA_degradation -->
<g id="node22" class="node"><title>mRNA_degradation</title>
<polygon fill="none" stroke="black" points="574,-328 560,-328 560,-314 574,-314 574,-328"/>
</g>
<!-- mRNA_degradation_intermediate_p -->
<g id="node24" class="node"><title>mRNA_degradation_intermediate_p</title>
<ellipse fill="black" stroke="black" cx="611" cy="-338" rx="0.036" ry="0.036"/>
</g>
<!-- mRNA_degradation&#45;&gt;mRNA_degradation_intermediate_p -->
<g id="edge19" class="edge"><title>mRNA_degradation&#45;&gt;mRNA_degradation_intermediate_p</title>
<path fill="none" stroke="black" d="M574.197,-323.508C585.515,-328.089 608.505,-337.395 609.93,-337.972"/>
</g>
<!-- mRNA_degradation_intermediate_r&#45;&gt;mRNA_degradation -->
<g id="edge17" class="edge"><title>mRNA_degradation_intermediate_r&#45;&gt;mRNA_degradation</title>
<path fill="none" stroke="black" d="M524.12,-318.009C525.968,-318.141 548.602,-319.757 559.803,-320.557"/>
</g>
<!-- mRNA_degradation_intermediate_p&#45;&gt;null -->
<g id="edge20" class="edge"><title>mRNA_degradation_intermediate_p&#45;&gt;null</title>
<path fill="none" stroke="black" d="M609.864,-338.052C607.073,-339.107 561.83,-356 524,-356 350,-356 350,-356 350,-356 299.39,-356 267.786,-295.579 253.314,-259.09"/>
<polygon fill="black" stroke="black" points="256.499,-257.617 249.685,-249.503 249.952,-260.095 256.499,-257.617"/>
</g>
<!-- IAA_degradation -->
<g id="node25" class="node"><title>IAA_degradation</title>
<polygon fill="none" stroke="black" points="790,-442 776,-442 776,-428 790,-428 790,-442"/>
</g>
<!-- IAA_degradation_intermediate_p -->
<g id="node27" class="node"><title>IAA_degradation_intermediate_p</title>
<ellipse fill="black" stroke="black" cx="827" cy="-452" rx="0.036" ry="0.036"/>
</g>
<!-- IAA_degradation&#45;&gt;IAA_degradation_intermediate_p -->
<g id="edge23" class="edge"><title>IAA_degradation&#45;&gt;IAA_degradation_intermediate_p</title>
<path fill="none" stroke="black" d="M790.197,-437.508C801.515,-442.089 824.505,-451.395 825.93,-451.972"/>
</g>
<!-- IAA_degradation_intermediate_r&#45;&gt;IAA_degradation -->
<g id="edge21" class="edge"><title>IAA_degradation_intermediate_r&#45;&gt;IAA_degradation</title>
<path fill="none" stroke="black" d="M740.12,-409.075C741.968,-410.218 764.602,-424.23 775.803,-431.164"/>
</g>
<!-- IAA_degradation_intermediate_p&#45;&gt;null -->
<g id="edge24" class="edge"><title>IAA_degradation_intermediate_p&#45;&gt;null</title>
<path fill="none" stroke="black" d="M825.864,-452.052C823.073,-453.107 777.83,-470 740,-470 350,-470 350,-470 350,-470 259.138,-470 245.605,-323.457 243.989,-260.35"/>
<polygon fill="black" stroke="black" points="247.488,-260.219 243.816,-250.28 240.489,-260.339 247.488,-260.219"/>
</g>
<!-- mRNA_translation -->
<g id="node28" class="node"><title>mRNA_translation</title>
<polygon fill="none" stroke="black" points="574,-258 560,-258 560,-244 574,-244 574,-258"/>
</g>
<!-- mRNA_translation_intermediate_p -->
<g id="node30" class="node"><title>mRNA_translation_intermediate_p</title>
<ellipse fill="black" stroke="black" cx="611" cy="-286" rx="0.036" ry="0.036"/>
</g>
<!-- mRNA_translation&#45;&gt;mRNA_translation_intermediate_p -->
<g id="edge27" class="edge"><title>mRNA_translation&#45;&gt;mRNA_translation_intermediate_p</title>
<path fill="none" stroke="black" d="M574.197,-256.164C585.515,-265.596 608.505,-284.754 609.93,-285.942"/>
</g>
<!-- mRNA_translation_intermediate_r&#45;&gt;mRNA_translation -->
<g id="edge25" class="edge"><title>mRNA_translation_intermediate_r&#45;&gt;mRNA_translation</title>
<path fill="none" stroke="black" d="M524.12,-254.989C525.968,-254.813 548.602,-252.657 559.803,-251.59"/>
</g>
<!-- mRNA_translation_intermediate_p&#45;&gt;IAAm -->
<g id="edge28" class="edge"><title>mRNA_translation_intermediate_p&#45;&gt;IAAm</title>
<path fill="none" stroke="black" d="M609.941,-286C607.669,-285.984 540.031,-285.534 496.385,-285.243"/>
<polygon fill="black" stroke="black" points="496.151,-281.741 486.128,-285.174 496.104,-288.741 496.151,-281.741"/>
</g>
<!-- mRNA_translation_intermediate_p&#45;&gt;IAAp -->
<g id="edge29" class="edge"><title>mRNA_translation_intermediate_p&#45;&gt;IAAp</title>
<path fill="none" stroke="black" d="M612.045,-286.016C612.935,-286.332 626.915,-291.293 641.369,-296.421"/>
<polygon fill="black" stroke="black" points="640.209,-299.723 650.803,-299.769 642.549,-293.126 640.209,-299.723"/>
</g>
<!-- ARF2_formation -->
<g id="node31" class="node"><title>ARF2_formation</title>
<polygon fill="none" stroke="black" points="1260,-383 1246,-383 1246,-369 1260,-369 1260,-383"/>
</g>
<!-- ARF2_formation_intermediate_p -->
<g id="node33" class="node"><title>ARF2_formation_intermediate_p</title>
<ellipse fill="black" stroke="black" cx="1297" cy="-376" rx="0.036" ry="0.036"/>
</g>
<!-- ARF2_formation&#45;&gt;ARF2_formation_intermediate_p -->
<g id="edge32" class="edge"><title>ARF2_formation&#45;&gt;ARF2_formation_intermediate_p</title>
<path fill="none" stroke="black" d="M1260.2,-376C1271.52,-376 1294.5,-376 1295.93,-376"/>
</g>
<!-- ARF2_formation_intermediate_r&#45;&gt;ARF2_formation -->
<g id="edge30" class="edge"><title>ARF2_formation_intermediate_r&#45;&gt;ARF2_formation</title>
<path fill="none" stroke="black" d="M1210.12,-376C1211.97,-376 1234.6,-376 1245.8,-376"/>
</g>
<!-- ARF2_formation_intermediate_p&#45;&gt;ARF2 -->
<g id="edge33" class="edge"><title>ARF2_formation_intermediate_p&#45;&gt;ARF2</title>
<path fill="none" stroke="black" d="M1298.04,-376C1298.86,-376 1310.73,-376 1323.87,-376"/>
<polygon fill="black" stroke="black" points="1324,-379.5 1334,-376 1324,-372.5 1324,-379.5"/>
</g>
<!-- ARF2_dissociation -->
<g id="node34" class="node"><title>ARF2_dissociation</title>
<polygon fill="none" stroke="black" points="1476,-391 1462,-391 1462,-377 1476,-377 1476,-391"/>
</g>
<!-- ARF2_dissociation_intermediate_p -->
<g id="node36" class="node"><title>ARF2_dissociation_intermediate_p</title>
<ellipse fill="black" stroke="black" cx="1512" cy="-403" rx="0.036" ry="0.036"/>
</g>
<!-- ARF2_dissociation&#45;&gt;ARF2_dissociation_intermediate_p -->
<g id="edge36" class="edge"><title>ARF2_dissociation&#45;&gt;ARF2_dissociation_intermediate_p</title>
<path fill="none" stroke="black" d="M1476.05,-386.804C1487.1,-391.924 1509.54,-402.324 1510.93,-402.969"/>
</g>
<!-- ARF2_dissociation_intermediate_r&#45;&gt;ARF2_dissociation -->
<g id="edge34" class="edge"><title>ARF2_dissociation_intermediate_r&#45;&gt;ARF2_dissociation</title>
<path fill="none" stroke="black" d="M1426.12,-381.009C1427.97,-381.141 1450.6,-382.757 1461.8,-383.557"/>
</g>
<!-- ARF2_dissociation_intermediate_p&#45;&gt;ARF -->
<g id="edge37" class="edge"><title>ARF2_dissociation_intermediate_p&#45;&gt;ARF</title>
<path fill="none" stroke="black" d="M1510.87,-403.055C1508.11,-404.169 1463.5,-422 1426,-422 1252,-422 1252,-422 1252,-422 1221.75,-422 1190.2,-407.013 1168.68,-394.147"/>
<polygon fill="black" stroke="black" points="1170.45,-391.124 1160.11,-388.814 1166.75,-397.068 1170.45,-391.124"/>
</g>
<!-- ARFIAA_formation -->
<g id="node37" class="node"><title>ARFIAA_formation</title>
<polygon fill="none" stroke="black" points="790,-372 776,-372 776,-358 790,-358 790,-372"/>
</g>
<!-- ARFIAA_formation_intermediate_p -->
<g id="node39" class="node"><title>ARFIAA_formation_intermediate_p</title>
<ellipse fill="black" stroke="black" cx="827" cy="-325" rx="0.036" ry="0.036"/>
</g>
<!-- ARFIAA_formation&#45;&gt;ARFIAA_formation_intermediate_p -->
<g id="edge41" class="edge"><title>ARFIAA_formation&#45;&gt;ARFIAA_formation_intermediate_p</title>
<path fill="none" stroke="black" d="M790.197,-359.098C801.515,-348.319 824.505,-326.424 825.93,-325.066"/>
</g>
<!-- ARFIAA_formation_intermediate_r&#45;&gt;ARFIAA_formation -->
<g id="edge38" class="edge"><title>ARFIAA_formation_intermediate_r&#45;&gt;ARFIAA_formation</title>
<path fill="none" stroke="black" d="M740.12,-365C741.968,-365 764.602,-365 775.803,-365"/>
</g>
<!-- ARFIAA_formation_intermediate_p&#45;&gt;ARFIAA -->
<g id="edge42" class="edge"><title>ARFIAA_formation_intermediate_p&#45;&gt;ARFIAA</title>
<path fill="none" stroke="black" d="M828.056,-324.993C829.162,-324.864 846.551,-322.832 864.516,-320.732"/>
<polygon fill="black" stroke="black" points="864.931,-324.207 874.457,-319.57 864.118,-317.255 864.931,-324.207"/>
</g>
<!-- ARFIAA_dissociation -->
<g id="node40" class="node"><title>ARFIAA_dissociation</title>
<polygon fill="none" stroke="black" points="1036,-334 1022,-334 1022,-320 1036,-320 1036,-334"/>
</g>
<!-- ARFIAA_dissociation_intermediate_p -->
<g id="node42" class="node"><title>ARFIAA_dissociation_intermediate_p</title>
<ellipse fill="black" stroke="black" cx="1073" cy="-362" rx="0.036" ry="0.036"/>
</g>
<!-- ARFIAA_dissociation&#45;&gt;ARFIAA_dissociation_intermediate_p -->
<g id="edge45" class="edge"><title>ARFIAA_dissociation&#45;&gt;ARFIAA_dissociation_intermediate_p</title>
<path fill="none" stroke="black" d="M1036.2,-332.164C1047.52,-341.596 1070.5,-360.754 1071.93,-361.942"/>
</g>
<!-- ARFIAA_dissociation_intermediate_r&#45;&gt;ARFIAA_dissociation -->
<g id="edge43" class="edge"><title>ARFIAA_dissociation_intermediate_r&#45;&gt;ARFIAA_dissociation</title>
<path fill="none" stroke="black" d="M986.12,-324.009C987.968,-324.141 1010.6,-325.757 1021.8,-326.557"/>
</g>
<!-- ARFIAA_dissociation_intermediate_p&#45;&gt;ARF -->
<g id="edge46" class="edge"><title>ARFIAA_dissociation_intermediate_p&#45;&gt;ARF</title>
<path fill="none" stroke="black" d="M1074.05,-362.01C1074.99,-362.21 1089.68,-365.325 1104.95,-368.566"/>
<polygon fill="black" stroke="black" points="1104.43,-372.032 1114.94,-370.683 1105.88,-365.185 1104.43,-372.032"/>
</g>
<!-- ARFIAA_dissociation_intermediate_p&#45;&gt;IAAp -->
<g id="edge47" class="edge"><title>ARFIAA_dissociation_intermediate_p&#45;&gt;IAAp</title>
<path fill="none" stroke="black" d="M1071.92,-361.995C1068.38,-361.803 954.515,-355.532 864,-343 810.193,-335.55 748.37,-323.326 710.757,-315.474"/>
<polygon fill="black" stroke="black" points="711.323,-312.016 700.817,-313.382 709.882,-318.866 711.323,-312.016"/>
</g>
<!-- auxTIR1_formation -->
<g id="node43" class="node"><title>auxTIR1_formation</title>
<polygon fill="none" stroke="black" points="1476,-71 1462,-71 1462,-57 1476,-57 1476,-71"/>
</g>
<!-- auxTIR1_formation_intermediate_p -->
<g id="node45" class="node"><title>auxTIR1_formation_intermediate_p</title>
<ellipse fill="black" stroke="black" cx="1512" cy="-86" rx="0.036" ry="0.036"/>
</g>
<!-- auxTIR1_formation&#45;&gt;auxTIR1_formation_intermediate_p -->
<g id="edge51" class="edge"><title>auxTIR1_formation&#45;&gt;auxTIR1_formation_intermediate_p</title>
<path fill="none" stroke="black" d="M1476.05,-67.2462C1487.1,-73.1746 1509.54,-85.2167 1510.93,-85.9636"/>
</g>
<!-- auxTIR1_formation_intermediate_r&#45;&gt;auxTIR1_formation -->
<g id="edge48" class="edge"><title>auxTIR1_formation_intermediate_r&#45;&gt;auxTIR1_formation</title>
<path fill="none" stroke="black" d="M1426.12,-54.0287C1427.97,-54.4686 1450.6,-59.8575 1461.8,-62.5245"/>
</g>
<!-- auxTIR1_formation_intermediate_p&#45;&gt;auxTIR1 -->
<g id="edge52" class="edge"><title>auxTIR1_formation_intermediate_p&#45;&gt;auxTIR1</title>
<path fill="none" stroke="black" d="M1510.87,-86.0631C1508.13,-87.3535 1463.8,-108 1426,-108 1252,-108 1252,-108 1252,-108 1228.96,-108 1203.22,-108 1182.42,-108"/>
<polygon fill="black" stroke="black" points="1182.35,-104.5 1172.35,-108 1182.35,-111.5 1182.35,-104.5"/>
</g>
<!-- auxTIR1_dissociation -->
<g id="node46" class="node"><title>auxTIR1_dissociation</title>
<polygon fill="none" stroke="black" points="1260,-80 1246,-80 1246,-66 1260,-66 1260,-80"/>
</g>
<!-- auxTIR1_dissociation_intermediate_p -->
<g id="node48" class="node"><title>auxTIR1_dissociation_intermediate_p</title>
<ellipse fill="black" stroke="black" cx="1297" cy="-54" rx="0.036" ry="0.036"/>
</g>
<!-- auxTIR1_dissociation&#45;&gt;auxTIR1_dissociation_intermediate_p -->
<g id="edge55" class="edge"><title>auxTIR1_dissociation&#45;&gt;auxTIR1_dissociation_intermediate_p</title>
<path fill="none" stroke="black" d="M1260.2,-70.1965C1271.52,-65.0765 1294.5,-54.6765 1295.93,-54.0315"/>
</g>
<!-- auxTIR1_dissociation_intermediate_r&#45;&gt;auxTIR1_dissociation -->
<g id="edge53" class="edge"><title>auxTIR1_dissociation_intermediate_r&#45;&gt;auxTIR1_dissociation</title>
<path fill="none" stroke="black" d="M1210.12,-75.9914C1211.97,-75.8594 1234.6,-74.2427 1245.8,-73.4427"/>
</g>
<!-- auxTIR1_dissociation_intermediate_p&#45;&gt;aux -->
<g id="edge56" class="edge"><title>auxTIR1_dissociation_intermediate_p&#45;&gt;aux</title>
<path fill="none" stroke="black" d="M1295.86,-53.9541C1293.06,-53.0156 1247.66,-38 1210,-38 134,-38 134,-38 134,-38 108.483,-38 80.6215,-45.6788 59.8693,-52.9939"/>
<polygon fill="black" stroke="black" points="58.4685,-49.7799 50.2944,-56.5205 60.8878,-56.3485 58.4685,-49.7799"/>
</g>
<!-- auxTIR1_dissociation_intermediate_p&#45;&gt;TIR1 -->
<g id="edge57" class="edge"><title>auxTIR1_dissociation_intermediate_p&#45;&gt;TIR1</title>
<path fill="none" stroke="black" d="M1298.04,-54C1298.86,-54 1310.73,-54 1323.87,-54"/>
<polygon fill="black" stroke="black" points="1324,-57.5001 1334,-54 1324,-50.5001 1324,-57.5001"/>
</g>
<!-- auxTIR1IAA_formation -->
<g id="node49" class="node"><title>auxTIR1IAA_formation</title>
<polygon fill="none" stroke="black" points="790,-150 776,-150 776,-136 790,-136 790,-150"/>
</g>
<!-- auxTIR1IAA_formation_intermediate_p -->
<g id="node51" class="node"><title>auxTIR1IAA_formation_intermediate_p</title>
<ellipse fill="black" stroke="black" cx="827" cy="-144" rx="0.036" ry="0.036"/>
</g>
<!-- auxTIR1IAA_formation&#45;&gt;auxTIR1IAA_formation_intermediate_p -->
<g id="edge61" class="edge"><title>auxTIR1IAA_formation&#45;&gt;auxTIR1IAA_formation_intermediate_p</title>
<path fill="none" stroke="black" d="M790.197,-143.148C801.515,-143.417 824.505,-143.964 825.93,-143.998"/>
</g>
<!-- auxTIR1IAA_formation_intermediate_r&#45;&gt;auxTIR1IAA_formation -->
<g id="edge58" class="edge"><title>auxTIR1IAA_formation_intermediate_r&#45;&gt;auxTIR1IAA_formation</title>
<path fill="none" stroke="black" d="M740.12,-143C741.968,-143 764.602,-143 775.803,-143"/>
</g>
<!-- auxTIR1IAA_formation_intermediate_p&#45;&gt;auxTIR1IAA -->
<g id="edge62" class="edge"><title>auxTIR1IAA_formation_intermediate_p&#45;&gt;auxTIR1IAA</title>
<path fill="none" stroke="black" d="M828.056,-144.012C829.02,-144.212 842.334,-146.978 857.623,-150.156"/>
<polygon fill="black" stroke="black" points="857.343,-153.672 867.846,-152.28 858.767,-146.818 857.343,-153.672"/>
</g>
<!-- auxTIR1IAA_dissociation -->
<g id="node52" class="node"><title>auxTIR1IAA_dissociation</title>
<polygon fill="none" stroke="black" points="1036,-156 1022,-156 1022,-142 1036,-142 1036,-156"/>
</g>
<!-- auxTIR1IAA_dissociation_intermediate_p -->
<g id="node54" class="node"><title>auxTIR1IAA_dissociation_intermediate_p</title>
<ellipse fill="black" stroke="black" cx="1073" cy="-114" rx="0.036" ry="0.036"/>
</g>
<!-- auxTIR1IAA_dissociation&#45;&gt;auxTIR1IAA_dissociation_intermediate_p -->
<g id="edge65" class="edge"><title>auxTIR1IAA_dissociation&#45;&gt;auxTIR1IAA_dissociation_intermediate_p</title>
<path fill="none" stroke="black" d="M1036.2,-143.836C1047.52,-134.404 1070.5,-115.246 1071.93,-114.058"/>
</g>
<!-- auxTIR1IAA_dissociation_intermediate_r&#45;&gt;auxTIR1IAA_dissociation -->
<g id="edge63" class="edge"><title>auxTIR1IAA_dissociation_intermediate_r&#45;&gt;auxTIR1IAA_dissociation</title>
<path fill="none" stroke="black" d="M986.12,-151.991C987.968,-151.859 1010.6,-150.243 1021.8,-149.443"/>
</g>
<!-- auxTIR1IAA_dissociation_intermediate_p&#45;&gt;auxTIR1 -->
<g id="edge66" class="edge"><title>auxTIR1IAA_dissociation_intermediate_p&#45;&gt;auxTIR1</title>
<path fill="none" stroke="black" d="M1074.05,-113.996C1074.88,-113.92 1086.49,-112.864 1099.75,-111.659"/>
<polygon fill="black" stroke="black" points="1100.41,-115.113 1110.05,-110.722 1099.78,-108.142 1100.41,-115.113"/>
</g>
<!-- auxTIR1IAA_dissociation_intermediate_p&#45;&gt;IAAp -->
<g id="edge67" class="edge"><title>auxTIR1IAA_dissociation_intermediate_p&#45;&gt;IAAp</title>
<path fill="none" stroke="black" d="M1071.91,-113.986C1068.16,-113.424 947.424,-95.7104 864,-133 824.526,-150.644 736.972,-241.982 696.835,-285.237"/>
<polygon fill="black" stroke="black" points="694.131,-283.006 689.915,-292.725 699.272,-287.757 694.131,-283.006"/>
</g>
<!-- IAA_ubiquitination -->
<g id="node55" class="node"><title>IAA_ubiquitination</title>
<polygon fill="none" stroke="black" points="1036,-188 1022,-188 1022,-174 1036,-174 1036,-188"/>
</g>
<!-- IAA_ubiquitination_intermediate_p -->
<g id="node57" class="node"><title>IAA_ubiquitination_intermediate_p</title>
<ellipse fill="black" stroke="black" cx="1073" cy="-170" rx="0.036" ry="0.036"/>
</g>
<!-- IAA_ubiquitination&#45;&gt;IAA_ubiquitination_intermediate_p -->
<g id="edge70" class="edge"><title>IAA_ubiquitination&#45;&gt;IAA_ubiquitination_intermediate_p</title>
<path fill="none" stroke="black" d="M1036.2,-179.377C1047.52,-176.413 1070.5,-170.392 1071.93,-170.018"/>
</g>
<!-- IAA_ubiquitination_intermediate_r&#45;&gt;IAA_ubiquitination -->
<g id="edge68" class="edge"><title>IAA_ubiquitination_intermediate_r&#45;&gt;IAA_ubiquitination</title>
<path fill="none" stroke="black" d="M986.12,-177.011C987.968,-177.187 1010.6,-179.343 1021.8,-180.41"/>
</g>
<!-- IAA_ubiquitination_intermediate_p&#45;&gt;auxTIR1 -->
<g id="edge71" class="edge"><title>IAA_ubiquitination_intermediate_p&#45;&gt;auxTIR1</title>
<path fill="none" stroke="black" d="M1074.05,-169.955C1075.22,-168.851 1097.81,-147.633 1116.23,-130.331"/>
<polygon fill="black" stroke="black" points="1118.9,-132.624 1123.79,-123.226 1114.11,-127.522 1118.9,-132.624"/>
</g>
<!-- IAA_ubiquitination_intermediate_p&#45;&gt;IAAstar -->
<g id="edge72" class="edge"><title>IAA_ubiquitination_intermediate_p&#45;&gt;IAAstar</title>
<path fill="none" stroke="black" d="M1074.05,-170C1074.92,-170 1087.62,-170 1101.65,-170"/>
<polygon fill="black" stroke="black" points="1101.94,-173.5 1111.94,-170 1101.94,-166.5 1101.94,-173.5"/>
</g>
<!-- IAAstar_degradation -->
<g id="node58" class="node"><title>IAAstar_degradation</title>
<polygon fill="none" stroke="black" points="1260,-185 1246,-185 1246,-171 1260,-171 1260,-185"/>
</g>
<!-- IAAstar_degradation_intermediate_p -->
<g id="node60" class="node"><title>IAAstar_degradation_intermediate_p</title>
<ellipse fill="black" stroke="black" cx="1297" cy="-197" rx="0.036" ry="0.036"/>
</g>
<!-- IAAstar_degradation&#45;&gt;IAAstar_degradation_intermediate_p -->
<g id="edge75" class="edge"><title>IAAstar_degradation&#45;&gt;IAAstar_degradation_intermediate_p</title>
<path fill="none" stroke="black" d="M1260.2,-180.804C1271.52,-185.924 1294.5,-196.324 1295.93,-196.969"/>
</g>
<!-- IAAstar_degradation_intermediate_r&#45;&gt;IAAstar_degradation -->
<g id="edge73" class="edge"><title>IAAstar_degradation_intermediate_r&#45;&gt;IAAstar_degradation</title>
<path fill="none" stroke="black" d="M1210.12,-173.014C1211.97,-173.234 1234.6,-175.929 1245.8,-177.262"/>
</g>
<!-- IAAstar_degradation_intermediate_p&#45;&gt;null -->
<g id="edge76" class="edge"><title>IAAstar_degradation_intermediate_p&#45;&gt;null</title>
<path fill="none" stroke="black" d="M1295.89,-197.041C1291.47,-198.767 1149.02,-254 1030,-254 826,-254 826,-254 826,-254 757.227,-254 744.773,-216 676,-216 350,-216 350,-216 350,-216 325.959,-216 299.191,-220.074 278.569,-224.11"/>
<polygon fill="black" stroke="black" points="277.781,-220.699 268.685,-226.133 279.184,-227.557 277.781,-220.699"/>
</g>
</g>
</svg>
